<svg width="52" height="58" viewBox="0 0 52 58" fill="none" xmlns="http://www.w3.org/2000/svg">
<path d="M36.6667 11.8333C36.6667 17.8166 31.8166 22.6667 25.8333 22.6667C19.8501 22.6667 15 17.8166 15 11.8333C15 5.85008 19.8501 1 25.8333 1" stroke="white" stroke-width="2" stroke-linecap="round" stroke-linejoin="round"/>
<path d="M33.2052 3.96387L33.3434 4.38962H33.7913L33.4289 4.65287L33.5671 5.07862L33.2052 4.81537L32.8429 5.07862L32.981 4.65287L32.6191 4.38962H33.0666L33.2052 3.96387Z" stroke="white" stroke-width="2"/>
<path d="M21.5 15.625C21.5 15.625 22.5833 17.7917 25.8333 17.7917C29.0833 17.7917 30.1667 15.625 30.1667 15.625" stroke="white" stroke-width="2" stroke-linecap="round" stroke-linejoin="round"/>
<path d="M22.042 12.375C22.9395 12.375 23.667 11.6475 23.667 10.75C23.667 9.85254 22.9395 9.125 22.042 9.125C21.1445 9.125 20.417 9.85254 20.417 10.75C20.417 11.6475 21.1445 12.375 22.042 12.375Z" stroke="white" stroke-width="2"/>
<path d="M29.625 12.375C30.5225 12.375 31.25 11.6475 31.25 10.75C31.25 9.85254 30.5225 9.125 29.625 9.125C28.7275 9.125 28 9.85254 28 10.75C28 11.6475 28.7275 12.375 29.625 12.375Z" stroke="white" stroke-width="2"/>
<path d="M6.01383 40.36C6.4605 40.48 6.8005 40.6867 7.03383 40.98C7.26716 41.2667 7.38383 41.6267 7.38383 42.06C7.38383 42.6733 7.15716 43.15 6.70383 43.49C6.25049 43.83 5.59383 44 4.73383 44H1.41383V37H4.54383C5.3305 37 5.94383 37.1567 6.38383 37.47C6.82383 37.7833 7.04383 38.2267 7.04383 38.8C7.04383 39.1667 6.95383 39.4833 6.77383 39.75C6.6005 40.0167 6.34716 40.22 6.01383 40.36ZM2.69383 39.99H4.43383C4.85383 39.99 5.17383 39.9067 5.39383 39.74C5.61383 39.5733 5.72383 39.3267 5.72383 39C5.72383 38.6733 5.61383 38.4267 5.39383 38.26C5.17383 38.0867 4.85383 38 4.43383 38H2.69383V39.99ZM4.69383 43C5.61383 43 6.07383 42.6533 6.07383 41.96C6.07383 41.28 5.61383 40.94 4.69383 40.94H2.69383V43H4.69383ZM8.72477 38.66H9.97477V40.83H12.6648V38.66H13.9148V44H12.6648V41.89H9.97477V44H8.72477V38.66ZM20.59 41.36C20.59 41.4467 20.5833 41.57 20.57 41.73H16.38C16.4533 42.1233 16.6433 42.4367 16.95 42.67C17.2633 42.8967 17.65 43.01 18.11 43.01C18.6967 43.01 19.18 42.8167 19.56 42.43L20.23 43.2C19.99 43.4867 19.6867 43.7033 19.32 43.85C18.9533 43.9967 18.54 44.07 18.08 44.07C17.4933 44.07 16.9767 43.9533 16.53 43.72C16.0833 43.4867 15.7367 43.1633 15.49 42.75C15.25 42.33 15.13 41.8567 15.13 41.33C15.13 40.81 15.2467 40.3433 15.48 39.93C15.72 39.51 16.05 39.1833 16.47 38.95C16.89 38.7167 17.3633 38.6 17.89 38.6C18.41 38.6 18.8733 38.7167 19.28 38.95C19.6933 39.1767 20.0133 39.5 20.24 39.92C20.4733 40.3333 20.59 40.8133 20.59 41.36ZM17.89 39.6C17.49 39.6 17.15 39.72 16.87 39.96C16.5967 40.1933 16.43 40.5067 16.37 40.9H19.4C19.3467 40.5133 19.1833 40.2 18.91 39.96C18.6367 39.72 18.2967 39.6 17.89 39.6ZM29.8272 38.66V44H21.9572V38.66H23.2072V42.94H25.2772V38.66H26.5272V42.94H28.5772V38.66H29.8272ZM31.508 38.66H32.758V40.83H35.448V38.66H36.698V44H35.448V41.89H32.758V44H31.508V38.66ZM38.3732 38.66H39.6232V42.18L42.5732 38.66H43.7132V44H42.4632V40.48L39.5232 44H38.3732V38.66ZM45.3947 38.66H46.6447V42.18L49.5947 38.66H50.7347V44H49.4847V40.48L46.5447 44H45.3947V38.66ZM47.9847 38.03C47.4447 38.03 47.0314 37.9067 46.7447 37.66C46.4647 37.4067 46.3214 37.04 46.3147 36.56H47.1447C47.1514 36.8 47.2247 36.99 47.3647 37.13C47.5114 37.27 47.7147 37.34 47.9747 37.34C48.228 37.34 48.428 37.27 48.5747 37.13C48.728 36.99 48.808 36.8 48.8147 36.56H49.6647C49.658 37.04 49.5114 37.4067 49.2247 37.66C48.938 37.9067 48.5247 38.03 47.9847 38.03ZM20.6954 53.22C21.3554 53.42 21.6854 53.8467 21.6854 54.5C21.6854 54.98 21.5054 55.35 21.1454 55.61C20.7854 55.87 20.252 56 19.5454 56H16.8254V50.66H19.4354C20.0887 50.66 20.5987 50.78 20.9654 51.02C21.332 51.26 21.5154 51.6 21.5154 52.04C21.5154 52.3133 21.442 52.55 21.2954 52.75C21.1554 52.95 20.9554 53.1067 20.6954 53.22ZM18.0154 52.89H19.3254C19.972 52.89 20.2954 52.6667 20.2954 52.22C20.2954 51.7867 19.972 51.57 19.3254 51.57H18.0154V52.89ZM19.4454 55.09C20.132 55.09 20.4754 54.8667 20.4754 54.42C20.4754 54.1867 20.3954 54.0133 20.2354 53.9C20.0754 53.78 19.8254 53.72 19.4854 53.72H18.0154V55.09H19.4454ZM23.0168 50.66H24.2668V54.18L27.2168 50.66H28.3568V56H27.1068V52.48L24.1668 56H23.0168V50.66ZM35.7382 54.94V57.19H34.5682V56H30.4482V57.19H29.2882V54.94H29.5382C29.8782 54.9267 30.1082 54.71 30.2282 54.29C30.3549 53.8633 30.4382 53.2633 30.4782 52.49L30.5482 50.66H34.9482V54.94H35.7382ZM31.6182 52.58C31.5916 53.1933 31.5416 53.6933 31.4682 54.08C31.3949 54.4667 31.2616 54.7533 31.0682 54.94H33.6982V51.72H31.6482L31.6182 52.58Z" fill="white"/>
</svg>
