<svg width="43" height="41" viewBox="0 0 43 41" fill="none" xmlns="http://www.w3.org/2000/svg">
<path d="M4.22 39.1C3.50667 39.1 2.86333 38.9467 2.29 38.64C1.71667 38.3267 1.26667 37.8967 0.94 37.35C0.613333 36.7967 0.45 36.18 0.45 35.5C0.45 34.82 0.613333 34.2067 0.94 33.66C1.26667 33.1067 1.71667 32.6767 2.29 32.37C2.86333 32.0567 3.50667 31.9 4.22 31.9C4.93333 31.9 5.57667 32.0567 6.15 32.37C6.72333 32.6767 7.17333 33.1033 7.5 33.65C7.82667 34.1967 7.99 34.8133 7.99 35.5C7.99 36.1867 7.82667 36.8033 7.5 37.35C7.17333 37.8967 6.72333 38.3267 6.15 38.64C5.57667 38.9467 4.93333 39.1 4.22 39.1ZM4.22 37.96C4.68667 37.96 5.10667 37.8567 5.48 37.65C5.85333 37.4367 6.14667 37.1433 6.36 36.77C6.57333 36.39 6.68 35.9667 6.68 35.5C6.68 35.0333 6.57333 34.6133 6.36 34.24C6.14667 33.86 5.85333 33.5667 5.48 33.36C5.10667 33.1467 4.68667 33.04 4.22 33.04C3.75333 33.04 3.33333 33.1467 2.96 33.36C2.58667 33.5667 2.29333 33.86 2.08 34.24C1.86667 34.6133 1.76 35.0333 1.76 35.5C1.76 35.9667 1.86667 36.39 2.08 36.77C2.29333 37.1433 2.58667 37.4367 2.96 37.65C3.33333 37.8567 3.75333 37.96 4.22 37.96ZM14.8213 37.94V40.19H13.6513V39H9.53125V40.19H8.37125V37.94H8.62125C8.96125 37.9267 9.19125 37.71 9.31125 37.29C9.43792 36.8633 9.52125 36.2633 9.56125 35.49L9.63125 33.66H14.0313V37.94H14.8213ZM10.7013 35.58C10.6746 36.1933 10.6246 36.6933 10.5513 37.08C10.4779 37.4667 10.3446 37.7533 10.1513 37.94H12.7813V34.72H10.7313L10.7013 35.58ZM20.9377 36.36C20.9377 36.4467 20.931 36.57 20.9177 36.73H16.7277C16.801 37.1233 16.991 37.4367 17.2977 37.67C17.611 37.8967 17.9977 38.01 18.4577 38.01C19.0443 38.01 19.5277 37.8167 19.9077 37.43L20.5777 38.2C20.3377 38.4867 20.0343 38.7033 19.6677 38.85C19.301 38.9967 18.8877 39.07 18.4277 39.07C17.841 39.07 17.3243 38.9533 16.8777 38.72C16.431 38.4867 16.0843 38.1633 15.8377 37.75C15.5977 37.33 15.4777 36.8567 15.4777 36.33C15.4777 35.81 15.5943 35.3433 15.8277 34.93C16.0677 34.51 16.3977 34.1833 16.8177 33.95C17.2377 33.7167 17.711 33.6 18.2377 33.6C18.7577 33.6 19.221 33.7167 19.6277 33.95C20.041 34.1767 20.361 34.5 20.5877 34.92C20.821 35.3333 20.9377 35.8133 20.9377 36.36ZM18.2377 34.6C17.8377 34.6 17.4977 34.72 17.2177 34.96C16.9443 35.1933 16.7777 35.5067 16.7177 35.9H19.7477C19.6943 35.5133 19.531 35.2 19.2577 34.96C18.9843 34.72 18.6443 34.6 18.2377 34.6ZM27.2284 36.86H26.3284V39H25.0884V36.86H24.1884L22.8884 39H21.4084L23.1584 36.24L21.5384 33.66H22.8684L24.1684 35.82H25.0884V33.66H26.3284V35.82H27.2384L28.5484 33.66H29.8784L28.2584 36.24L30.0184 39H28.5284L27.2284 36.86ZM36.6474 37.94V40.19H35.4774V39H31.3574V40.19H30.1974V37.94H30.4474C30.7874 37.9267 31.0174 37.71 31.1374 37.29C31.2641 36.8633 31.3474 36.2633 31.3874 35.49L31.4574 33.66H35.8574V37.94H36.6474ZM32.5274 35.58C32.5008 36.1933 32.4508 36.6933 32.3774 37.08C32.3041 37.4667 32.1708 37.7533 31.9774 37.94H34.6074V34.72H32.5574L32.5274 35.58ZM39.7538 33.6C40.5405 33.6 41.1405 33.79 41.5538 34.17C41.9738 34.5433 42.1838 35.11 42.1838 35.87V39H41.0038V38.35C40.8505 38.5833 40.6305 38.7633 40.3438 38.89C40.0638 39.01 39.7238 39.07 39.3238 39.07C38.9238 39.07 38.5738 39.0033 38.2738 38.87C37.9738 38.73 37.7405 38.54 37.5738 38.3C37.4138 38.0533 37.3338 37.7767 37.3338 37.47C37.3338 36.99 37.5105 36.6067 37.8638 36.32C38.2238 36.0267 38.7872 35.88 39.5538 35.88H40.9338V35.8C40.9338 35.4267 40.8205 35.14 40.5938 34.94C40.3738 34.74 40.0438 34.64 39.6038 34.64C39.3038 34.64 39.0072 34.6867 38.7138 34.78C38.4272 34.8733 38.1838 35.0033 37.9838 35.17L37.4938 34.26C37.7738 34.0467 38.1105 33.8833 38.5038 33.77C38.8972 33.6567 39.3138 33.6 39.7538 33.6ZM39.5838 38.16C39.8972 38.16 40.1738 38.09 40.4138 37.95C40.6605 37.8033 40.8338 37.5967 40.9338 37.33V36.71H39.6438C38.9238 36.71 38.5638 36.9467 38.5638 37.42C38.5638 37.6467 38.6538 37.8267 38.8338 37.96C39.0138 38.0933 39.2638 38.16 39.5838 38.16Z" fill="white"/>
<g clip-path="url(#clip0_2_216)">
<path d="M33.5404 3.62386C33.587 3.81526 33.5281 4.02646 33.4296 4.19146L30.2861 9.48466C30.1695 9.68926 29.9245 9.80146 29.7198 9.80146C29.6615 9.80146 29.4982 9.78826 29.4346 9.76846L26.9152 9.06886V21.6089C26.9152 21.9917 26.6761 22.2689 26.332 22.2689H14.0848C13.7407 22.2689 13.5016 21.9917 13.5016 21.6089V9.06886L11.2388 9.77506C10.9764 9.86746 10.7489 9.74866 10.6031 9.49126L7.48299 4.21126C7.38385 4.03966 7.35469 3.84826 7.40135 3.65686C7.44217 3.45886 7.56464 3.32686 7.72211 3.23446L14.0848 -0.171143H17.0008C17.3449 -0.171143 17.584 0.0994574 17.584 0.488857C17.584 1.84846 19.2695 2.81206 20.4709 2.81206C21.6722 2.81206 23.416 1.85506 23.416 0.488857C23.416 0.106057 23.6551 -0.171143 23.9992 -0.171143H26.9152L33.2138 3.16846C33.3771 3.26086 33.4937 3.42586 33.5404 3.62386Z" fill="white"/>
</g>
<defs>
<clipPath id="clip0_2_216">
<rect width="27" height="22" fill="white" transform="translate(7)"/>
</clipPath>
</defs>
</svg>
