<svg width="32" height="46" viewBox="0 0 32 46" fill="none" xmlns="http://www.w3.org/2000/svg">
<path d="M8.13 42.9V45.54H6.93V44H0.99V37H2.27V42.9H5.8V37H7.09V42.9H8.13ZM13.0498 41.22C13.7098 41.42 14.0398 41.8467 14.0398 42.5C14.0398 42.98 13.8598 43.35 13.4998 43.61C13.1398 43.87 12.6065 44 11.8998 44H9.17984V38.66H11.7898C12.4432 38.66 12.9532 38.78 13.3198 39.02C13.6865 39.26 13.8698 39.6 13.8698 40.04C13.8698 40.3133 13.7965 40.55 13.6498 40.75C13.5098 40.95 13.3098 41.1067 13.0498 41.22ZM10.3698 40.89H11.6798C12.3265 40.89 12.6498 40.6667 12.6498 40.22C12.6498 39.7867 12.3265 39.57 11.6798 39.57H10.3698V40.89ZM11.7998 43.09C12.4865 43.09 12.8298 42.8667 12.8298 42.42C12.8298 42.1867 12.7498 42.0133 12.5898 41.9C12.4298 41.78 12.1798 41.72 11.8398 41.72H10.3698V43.09H11.7998ZM20.3713 41.36C20.3713 41.4467 20.3646 41.57 20.3513 41.73H16.1613C16.2346 42.1233 16.4246 42.4367 16.7313 42.67C17.0446 42.8967 17.4313 43.01 17.8913 43.01C18.4779 43.01 18.9613 42.8167 19.3413 42.43L20.0113 43.2C19.7713 43.4867 19.4679 43.7033 19.1013 43.85C18.7346 43.9967 18.3213 44.07 17.8613 44.07C17.2746 44.07 16.7579 43.9533 16.3113 43.72C15.8646 43.4867 15.5179 43.1633 15.2713 42.75C15.0313 42.33 14.9113 41.8567 14.9113 41.33C14.9113 40.81 15.0279 40.3433 15.2613 39.93C15.5013 39.51 15.8313 39.1833 16.2513 38.95C16.6713 38.7167 17.1446 38.6 17.6713 38.6C18.1913 38.6 18.6546 38.7167 19.0613 38.95C19.4746 39.1767 19.7946 39.5 20.0213 39.92C20.2546 40.3333 20.3713 40.8133 20.3713 41.36ZM17.6713 39.6C17.2713 39.6 16.9313 39.72 16.6513 39.96C16.3779 40.1933 16.2113 40.5067 16.1513 40.9H19.1813C19.1279 40.5133 18.9646 40.2 18.6913 39.96C18.4179 39.72 18.0779 39.6 17.6713 39.6ZM25.7731 39.72H23.9031V44H22.6531V39.72H20.7731V38.66H25.7731V39.72ZM28.6698 38.6C29.4565 38.6 30.0565 38.79 30.4698 39.17C30.8898 39.5433 31.0998 40.11 31.0998 40.87V44H29.9198V43.35C29.7665 43.5833 29.5465 43.7633 29.2598 43.89C28.9798 44.01 28.6398 44.07 28.2398 44.07C27.8398 44.07 27.4898 44.0033 27.1898 43.87C26.8898 43.73 26.6565 43.54 26.4898 43.3C26.3298 43.0533 26.2498 42.7767 26.2498 42.47C26.2498 41.99 26.4265 41.6067 26.7798 41.32C27.1398 41.0267 27.7032 40.88 28.4698 40.88H29.8498V40.8C29.8498 40.4267 29.7365 40.14 29.5098 39.94C29.2898 39.74 28.9598 39.64 28.5198 39.64C28.2198 39.64 27.9232 39.6867 27.6298 39.78C27.3432 39.8733 27.0998 40.0033 26.8998 40.17L26.4098 39.26C26.6898 39.0467 27.0265 38.8833 27.4198 38.77C27.8132 38.6567 28.2298 38.6 28.6698 38.6ZM28.4998 43.16C28.8132 43.16 29.0898 43.09 29.3298 42.95C29.5765 42.8033 29.7498 42.5967 29.8498 42.33V41.71H28.5598C27.8398 41.71 27.4798 41.9467 27.4798 42.42C27.4798 42.6467 27.5698 42.8267 27.7498 42.96C27.9298 43.0933 28.1798 43.16 28.4998 43.16Z" fill="white"/>
<g clip-path="url(#clip0_2_211)">
<path d="M29.046 0.0002925C27.995 0.060525 12.4753 13.309 11.2008 17.9741L14.1423 21.0554C22.5502 14.0445 25.2506 6.61997 30 0.0146025L29.0464 0L29.046 0.0002925V0.0002925ZM10.2735 18.9126C4.95952 20.8669 8.29081 24.7336 3 26.6254C8.99162 27.9744 11.6467 25.5061 13.2151 22.0034L10.2735 18.9123V18.9126Z" fill="white"/>
</g>
<defs>
<clipPath id="clip0_2_211">
<rect width="27" height="27" fill="white" transform="translate(3)"/>
</clipPath>
</defs>
</svg>
