<svg width="43" height="47" viewBox="0 0 43 47" fill="none" xmlns="http://www.w3.org/2000/svg">
<path d="M29.2346 28.4166C29.9197 28.4166 30.5768 28.1445 31.0613 27.66C31.5457 27.1755 31.8179 26.5185 31.8179 25.8333V5.16665C31.8179 4.4815 31.5457 3.82442 31.0613 3.33995C30.5768 2.85548 29.9197 2.58331 29.2346 2.58331H13.7501C13.0649 2.58331 12.4079 2.85548 11.9234 3.33995C11.4389 3.82442 11.1667 4.4815 11.1667 5.16665V25.8333C11.1667 26.5185 11.4389 27.1755 11.9234 27.66C12.4079 28.1445 13.0649 28.4166 13.7501 28.4166H29.2346ZM17.6251 6.45831H25.3751V9.04165H17.6251V6.45831ZM24.4063 14.5312C24.4033 15.3012 24.0961 16.0388 23.5518 16.5833C23.0075 17.1279 22.27 17.4354 21.5001 17.4388C19.9049 17.4388 18.5938 16.1277 18.5938 14.5312C18.5938 12.9347 19.9049 11.625 21.5001 11.625C22.2699 11.628 23.0074 11.9352 23.5517 12.4796C24.0961 13.0239 24.4033 13.7614 24.4063 14.5312ZM15.6876 23.4928C15.6876 21.3435 18.3071 19.1334 21.5001 19.1334C24.6931 19.1334 27.3126 21.3435 27.3126 23.4928V24.22H15.6876V23.4928Z" fill="white"/>
<path d="M7.92 43.9V46.49H6.72V45H1.35V46.49H0.14L0.15 43.9H0.45C0.89 43.88 1.19667 43.5567 1.37 42.93C1.55 42.2967 1.66 41.3933 1.7 40.22L1.78 38H6.91V43.9H7.92ZM2.84 40.34C2.80667 41.2467 2.73333 42.0033 2.62 42.61C2.50667 43.21 2.32667 43.64 2.08 43.9H5.63V39.1H2.89L2.84 40.34ZM10.9941 39.6C11.7807 39.6 12.3807 39.79 12.7941 40.17C13.2141 40.5433 13.4241 41.11 13.4241 41.87V45H12.2441V44.35C12.0907 44.5833 11.8707 44.7633 11.5841 44.89C11.3041 45.01 10.9641 45.07 10.5641 45.07C10.1641 45.07 9.81406 45.0033 9.51406 44.87C9.21406 44.73 8.98073 44.54 8.81406 44.3C8.65406 44.0533 8.57406 43.7767 8.57406 43.47C8.57406 42.99 8.75073 42.6067 9.10406 42.32C9.46406 42.0267 10.0274 41.88 10.7941 41.88H12.1741V41.8C12.1741 41.4267 12.0607 41.14 11.8341 40.94C11.6141 40.74 11.2841 40.64 10.8441 40.64C10.5441 40.64 10.2474 40.6867 9.95406 40.78C9.6674 40.8733 9.42406 41.0033 9.22406 41.17L8.73406 40.26C9.01406 40.0467 9.35073 39.8833 9.74406 39.77C10.1374 39.6567 10.5541 39.6 10.9941 39.6ZM10.8241 44.16C11.1374 44.16 11.4141 44.09 11.6541 43.95C11.9007 43.8033 12.0741 43.5967 12.1741 43.33V42.71H10.8841C10.1641 42.71 9.80406 42.9467 9.80406 43.42C9.80406 43.6467 9.89406 43.8267 10.0741 43.96C10.2541 44.0933 10.5041 44.16 10.8241 44.16ZM14.9709 39.66H16.2209V41.83H18.9109V39.66H20.1609V45H18.9109V42.89H16.2209V45H14.9709V39.66ZM21.8361 39.66H23.0861V41.83H25.7761V39.66H27.0261V45H25.7761V42.89H23.0861V45H21.8361V39.66ZM31.3013 41.42C31.9813 41.42 32.5013 41.5733 32.8613 41.88C33.2213 42.1867 33.4013 42.62 33.4013 43.18C33.4013 43.7667 33.2013 44.22 32.8013 44.54C32.408 44.86 31.848 45.0167 31.1213 45.01L28.7013 45V39.66H29.9513V41.41L31.3013 41.42ZM34.0913 39.66H35.3413V45H34.0913V39.66ZM31.0113 44.09C31.378 44.0967 31.658 44.02 31.8513 43.86C32.0447 43.7 32.1413 43.4667 32.1413 43.16C32.1413 42.86 32.048 42.64 31.8613 42.5C31.6747 42.36 31.3913 42.2867 31.0113 42.28L29.9513 42.27V44.08L31.0113 44.09ZM42.0216 42.36C42.0216 42.4467 42.015 42.57 42.0016 42.73H37.8116C37.885 43.1233 38.075 43.4367 38.3816 43.67C38.695 43.8967 39.0816 44.01 39.5416 44.01C40.1283 44.01 40.6116 43.8167 40.9916 43.43L41.6616 44.2C41.4216 44.4867 41.1183 44.7033 40.7516 44.85C40.385 44.9967 39.9716 45.07 39.5116 45.07C38.925 45.07 38.4083 44.9533 37.9616 44.72C37.515 44.4867 37.1683 44.1633 36.9216 43.75C36.6816 43.33 36.5616 42.8567 36.5616 42.33C36.5616 41.81 36.6783 41.3433 36.9116 40.93C37.1516 40.51 37.4816 40.1833 37.9016 39.95C38.3216 39.7167 38.795 39.6 39.3216 39.6C39.8416 39.6 40.305 39.7167 40.7116 39.95C41.125 40.1767 41.445 40.5 41.6716 40.92C41.905 41.3333 42.0216 41.8133 42.0216 42.36ZM39.3216 40.6C38.9216 40.6 38.5816 40.72 38.3016 40.96C38.0283 41.1933 37.8616 41.5067 37.8016 41.9H40.8316C40.7783 41.5133 40.615 41.2 40.3416 40.96C40.0683 40.72 39.7283 40.6 39.3216 40.6Z" fill="white"/>
</svg>
