<svg width="53" height="46" viewBox="0 0 53 46" fill="none" xmlns="http://www.w3.org/2000/svg">
<path d="M3.86 37C4.46667 37 4.99333 37.1 5.44 37.3C5.89333 37.5 6.24 37.7867 6.48 38.16C6.72 38.5333 6.84 38.9767 6.84 39.49C6.84 39.9967 6.72 40.44 6.48 40.82C6.24 41.1933 5.89333 41.48 5.44 41.68C4.99333 41.88 4.46667 41.98 3.86 41.98H2.28V44H0.98V37H3.86ZM3.8 40.88C4.36667 40.88 4.79667 40.76 5.09 40.52C5.38333 40.28 5.53 39.9367 5.53 39.49C5.53 39.0433 5.38333 38.7 5.09 38.46C4.79667 38.22 4.36667 38.1 3.8 38.1H2.28V40.88H3.8ZM10.2903 44.07C9.75031 44.07 9.26365 43.9533 8.83031 43.72C8.39698 43.4867 8.05698 43.1633 7.81031 42.75C7.57031 42.33 7.45031 41.8567 7.45031 41.33C7.45031 40.8033 7.57031 40.3333 7.81031 39.92C8.05698 39.5067 8.39698 39.1833 8.83031 38.95C9.26365 38.7167 9.75031 38.6 10.2903 38.6C10.837 38.6 11.327 38.7167 11.7603 38.95C12.1936 39.1833 12.5303 39.5067 12.7703 39.92C13.017 40.3333 13.1403 40.8033 13.1403 41.33C13.1403 41.8567 13.017 42.33 12.7703 42.75C12.5303 43.1633 12.1936 43.4867 11.7603 43.72C11.327 43.9533 10.837 44.07 10.2903 44.07ZM10.2903 43C10.7503 43 11.1303 42.8467 11.4303 42.54C11.7303 42.2333 11.8803 41.83 11.8803 41.33C11.8803 40.83 11.7303 40.4267 11.4303 40.12C11.1303 39.8133 10.7503 39.66 10.2903 39.66C9.83031 39.66 9.45031 39.8133 9.15031 40.12C8.85698 40.4267 8.71031 40.83 8.71031 41.33C8.71031 41.83 8.85698 42.2333 9.15031 42.54C9.45031 42.8467 9.83031 43 10.2903 43ZM20.0166 42.94V45.19H18.8466V44H14.7266V45.19H13.5666V42.94H13.8166C14.1566 42.9267 14.3866 42.71 14.5066 42.29C14.6332 41.8633 14.7166 41.2633 14.7566 40.49L14.8266 38.66H19.2266V42.94H20.0166ZM15.8966 40.58C15.8699 41.1933 15.8199 41.6933 15.7466 42.08C15.6732 42.4667 15.5399 42.7533 15.3466 42.94H17.9766V39.72H15.9266L15.8966 40.58ZM21.133 38.66H22.383V42.18L25.333 38.66H26.473V44H25.223V40.48L22.283 44H21.133V38.66ZM32.3845 39.72H30.5145V44H29.2645V39.72H27.3845V38.66H32.3845V39.72ZM38.0568 41.36C38.0568 41.4467 38.0501 41.57 38.0368 41.73H33.8468C33.9201 42.1233 34.1101 42.4367 34.4168 42.67C34.7301 42.8967 35.1168 43.01 35.5768 43.01C36.1635 43.01 36.6468 42.8167 37.0268 42.43L37.6968 43.2C37.4568 43.4867 37.1535 43.7033 36.7868 43.85C36.4201 43.9967 36.0068 44.07 35.5468 44.07C34.9601 44.07 34.4435 43.9533 33.9968 43.72C33.5501 43.4867 33.2035 43.1633 32.9568 42.75C32.7168 42.33 32.5968 41.8567 32.5968 41.33C32.5968 40.81 32.7135 40.3433 32.9468 39.93C33.1868 39.51 33.5168 39.1833 33.9368 38.95C34.3568 38.7167 34.8301 38.6 35.3568 38.6C35.8768 38.6 36.3401 38.7167 36.7468 38.95C37.1601 39.1767 37.4801 39.5 37.7068 39.92C37.9401 40.3333 38.0568 40.8133 38.0568 41.36ZM35.3568 39.6C34.9568 39.6 34.6168 39.72 34.3368 39.96C34.0635 40.1933 33.8968 40.5067 33.8368 40.9H36.8668C36.8135 40.5133 36.6501 40.2 36.3768 39.96C36.1035 39.72 35.7635 39.6 35.3568 39.6ZM44.1956 38.66V44H42.9456V39.72H40.9456L40.8956 40.78C40.8623 41.4867 40.7956 42.08 40.6956 42.56C40.6023 43.0333 40.439 43.41 40.2056 43.69C39.979 43.9633 39.6656 44.1 39.2656 44.1C39.079 44.1 38.849 44.0633 38.5756 43.99L38.6356 42.94C38.729 42.96 38.809 42.97 38.8756 42.97C39.129 42.97 39.319 42.87 39.4456 42.67C39.5723 42.4633 39.6523 42.22 39.6856 41.94C39.7256 41.6533 39.759 41.2467 39.7856 40.72L39.8756 38.66H44.1956ZM45.8791 38.66H47.1291V42.18L50.0791 38.66H51.2191V44H49.9691V40.48L47.0291 44H45.8791V38.66Z" fill="white"/>
<g clip-path="url(#clip0_2_202)">
<path d="M19.75 2.53123C19.7498 3.20278 19.4828 3.84674 19.0077 4.32144C18.5327 4.79614 17.8886 5.0627 17.217 5.06248C16.5455 5.06225 15.9015 4.79527 15.4268 4.32025C14.9521 3.84523 14.6856 3.20109 14.6858 2.52954C14.686 1.85799 14.953 1.21403 15.428 0.739328C15.6632 0.504279 15.9424 0.31786 16.2497 0.190712C16.5569 0.0635652 16.8862 -0.00181965 17.2187 -0.00170884C17.5512 -0.00159804 17.8805 0.0640062 18.1877 0.191358C18.4948 0.31871 18.7739 0.505316 19.0089 0.740521C19.244 0.975726 19.4304 1.25492 19.5576 1.56217C19.6847 1.86942 19.7501 2.19871 19.75 2.53123Z" fill="white"/>
<path d="M34.9375 2.53123C34.9373 3.20278 34.6703 3.84674 34.1952 4.32144C33.7202 4.79614 33.0761 5.0627 32.4045 5.06248C31.733 5.06225 31.089 4.79527 30.6143 4.32025C30.1396 3.84523 29.8731 3.20109 29.8733 2.52954C29.8735 1.85799 30.1405 1.21403 30.6155 0.739328C30.8507 0.504279 31.1299 0.31786 31.4372 0.190712C31.7444 0.0635652 32.0737 -0.00181965 32.4062 -0.00170884C32.7387 -0.00159804 33.068 0.0640062 33.3752 0.191358C33.6823 0.31871 33.9614 0.505316 34.1964 0.740521C34.4315 0.975726 34.6179 1.25492 34.7451 1.56217C34.8722 1.86942 34.9376 2.19871 34.9375 2.53123Z" fill="white"/>
<path d="M19.75 6.75H14.6875C14.2399 6.75 13.8107 6.92779 13.4943 7.24426C13.1778 7.56073 13 7.98995 13 8.4375V16.0312C13 16.4972 13.3778 16.875 13.8438 16.875C14.3097 16.875 14.6875 17.2528 14.6875 17.7188V25.9453C14.6875 26.5278 15.1597 27 15.7422 27C16.3247 27 16.7969 26.5278 16.7969 25.9453V17.2969C16.7969 17.0639 16.9858 16.875 17.2188 16.875C17.4517 16.875 17.6406 17.0639 17.6406 17.2969V25.9453C17.6406 26.5278 18.1128 27 18.6953 27C19.2778 27 19.75 26.5278 19.75 25.9453V17.7188C19.75 17.2528 20.1278 16.875 20.5938 16.875C21.0597 16.875 21.4375 16.4972 21.4375 16.0312V8.4375C21.4375 7.98995 21.2597 7.56073 20.9432 7.24426C20.6268 6.92779 20.1976 6.75 19.75 6.75Z" fill="white"/>
<path d="M38.7104 13.4984C38.7101 13.4986 38.7099 13.4982 38.7102 13.498L39.9069 12.6309C39.9591 12.5931 39.9726 12.521 39.9376 12.4669L36.4849 7.12798C36.4082 7.01144 36.3037 6.91575 36.1809 6.84949C36.0581 6.78323 35.9208 6.74846 35.7812 6.74829H29.0312C28.8916 6.748 28.7541 6.78258 28.6312 6.84888C28.5084 6.91518 28.404 7.01112 28.3276 7.12798L25.2408 11.9011C25.0007 12.2724 25.0931 12.7667 25.4512 13.0262C25.8154 13.2901 26.3235 13.2166 26.598 12.8603L27.8003 11.2999C28.3481 10.589 29.4584 10.7293 29.812 11.5543C29.9541 11.8857 29.9362 12.2639 29.7636 12.5804L27.4976 16.7349C27.0488 17.5577 27.6443 18.5608 28.5815 18.5608C29.2315 18.5608 29.7702 19.0648 29.8134 19.7134L30.2444 26.1844C30.2749 26.6424 30.6552 26.9983 31.1142 26.9983C31.5957 26.9983 31.9861 26.608 31.9861 26.1265V18.9827C31.9861 18.7497 32.1749 18.5608 32.4079 18.5608C32.6409 18.5608 32.8298 18.7497 32.8298 18.9827V26.1265C32.8298 26.608 33.2201 26.9983 33.7016 26.9983C34.1606 26.9983 34.541 26.6424 34.5715 26.1844L35.0025 19.7135C35.0457 19.0648 35.5844 18.5608 36.2345 18.5608C37.1717 18.5608 37.7672 17.5577 37.3186 16.7349L35.0522 12.5787C34.8796 12.2622 34.8618 11.884 35.0038 11.5527C35.3575 10.7277 36.4678 10.5873 37.0157 11.2983L38.7105 13.498C38.7107 13.4982 38.7106 13.4984 38.7104 13.4984Z" fill="white"/>
</g>
<defs>
<clipPath id="clip0_2_202">
<rect width="27" height="27" fill="white" transform="translate(13)"/>
</clipPath>
</defs>
</svg>
