<svg width="18" height="18" viewBox="0 0 18 18" fill="none" xmlns="http://www.w3.org/2000/svg">
<path fill-rule="evenodd" clip-rule="evenodd" d="M0 6C0 2.68629 2.68629 0 6 0H12C15.3137 0 18 2.68629 18 6V12C18 15.3137 15.3137 18 12 18H6C2.68629 18 0 15.3137 0 12V6Z" fill="#34AADC"/>
<path fill-rule="evenodd" clip-rule="evenodd" d="M9.06296 2.90009C8.02316 2.90009 7.17639 3.74494 7.17639 4.78712V6.60989C7.17639 7.65295 8.02104 8.49691 9.06296 8.49691C10.1028 8.49691 10.9495 7.65206 10.9495 6.60989V4.78712C10.9495 3.74405 10.1049 2.90009 9.06296 2.90009ZM7.79703 6.60989V4.78712C7.79703 4.08855 8.3651 3.52078 9.06292 3.52078C9.76236 3.52078 10.3288 4.08717 10.3288 4.78712V6.60989C10.3288 7.30846 9.76073 7.87623 9.06292 7.87623C8.36347 7.87623 7.79703 7.30984 7.79703 6.60989Z" fill="white"/>
<path fill-rule="evenodd" clip-rule="evenodd" d="M13.2003 4.62657C12.4651 3.89132 11.2689 3.88996 10.532 4.62689L9.24309 5.91579C8.50553 6.65335 8.50602 7.84737 9.24277 8.58412C9.97802 9.31938 11.1742 9.32073 11.9111 8.5838L13.2 7.29491C13.9376 6.55735 13.9371 5.36332 13.2003 4.62657ZM9.68196 6.35468L10.9708 5.06579C11.4648 4.57182 12.268 4.57204 12.7614 5.06546C13.256 5.56005 13.256 6.36107 12.7611 6.85601L11.4722 8.1449C10.9782 8.63887 10.1751 8.63866 9.68163 8.14523C9.18705 7.65065 9.18702 6.84962 9.68196 6.35468Z" fill="white"/>
<path fill-rule="evenodd" clip-rule="evenodd" d="M15.0056 8.95855C15.0056 7.91875 14.1608 7.07198 13.1186 7.07198H11.2958C10.2528 7.07198 9.40881 7.91663 9.40881 8.95855C9.40881 9.99836 10.2537 10.8451 11.2958 10.8451H13.1186C14.1617 10.8451 15.0056 10.0005 15.0056 8.95855ZM11.2958 7.69267H13.1186C13.8171 7.69267 14.3849 8.26074 14.3849 8.95855C14.3849 9.658 13.8185 10.2244 13.1186 10.2244H11.2958C10.5972 10.2244 10.0295 9.65636 10.0295 8.95855C10.0295 8.25911 10.5958 7.69267 11.2958 7.69267Z" fill="white"/>
<path fill-rule="evenodd" clip-rule="evenodd" d="M13.2003 13.3005C13.9355 12.5653 13.9369 11.3691 13.1999 10.6322L11.911 9.34332C11.1735 8.60576 9.97945 8.60624 9.2427 9.34299C8.50745 10.0782 8.5061 11.2744 9.24303 12.0113L10.5319 13.3002C11.2695 14.0378 12.4635 14.0373 13.2003 13.3005ZM11.4721 9.78221L12.761 11.0711C13.255 11.5651 13.2548 12.3682 12.7614 12.8617C12.2668 13.3562 11.4657 13.3563 10.9708 12.8613L9.68192 11.5724C9.18795 11.0785 9.18816 10.2753 9.68159 9.78189C10.1762 9.2873 10.9772 9.28727 11.4721 9.78221Z" fill="white"/>
<path fill-rule="evenodd" clip-rule="evenodd" d="M9.06296 15.0999C10.1028 15.0999 10.9495 14.2551 10.9495 13.2129V11.3901C10.9495 10.347 10.1049 9.50308 9.06296 9.50308C8.02316 9.50308 7.17639 10.3479 7.17639 11.3901V13.2129C7.17639 14.2559 8.02104 15.0999 9.06296 15.0999ZM10.3288 11.3901V13.2129C10.3288 13.9115 9.76073 14.4792 9.06292 14.4792C8.36347 14.4792 7.79703 13.9128 7.79703 13.2129V11.3901C7.79703 10.6915 8.3651 10.1238 9.06292 10.1238C9.76236 10.1238 10.3288 10.6902 10.3288 11.3901Z" fill="white"/>
<path fill-rule="evenodd" clip-rule="evenodd" d="M4.71494 13.3005C5.45019 14.0358 6.64634 14.0372 7.38327 13.3002L8.67217 12.0113C9.40972 11.2738 9.40924 10.0797 8.67249 9.34299C7.93724 8.60774 6.74108 8.60639 6.00415 9.34332L4.71526 10.6322C3.9777 11.3698 3.97818 12.5638 4.71494 13.3005ZM8.23327 11.5724L6.94437 12.8613C6.45041 13.3553 5.64725 13.3551 5.15383 12.8617C4.65924 12.3671 4.65921 11.566 5.15415 11.0711L6.44304 9.78221C6.93701 9.28825 7.74016 9.28846 8.23359 9.78189C8.72817 10.2765 8.72821 11.0775 8.23327 11.5724Z" fill="white"/>
<path fill-rule="evenodd" clip-rule="evenodd" d="M2.99438 8.95855C2.99438 9.99836 3.83924 10.8451 4.88141 10.8451H6.70418C7.74725 10.8451 8.59121 10.0005 8.59121 8.95855C8.59121 7.91875 7.74636 7.07198 6.70418 7.07198H4.88141C3.83835 7.07198 2.99438 7.91663 2.99438 8.95855ZM6.70422 10.2244H4.88144C4.18287 10.2244 3.61511 9.65636 3.61511 8.95855C3.61511 8.25911 4.1815 7.69267 4.88144 7.69267H6.70422C7.40279 7.69267 7.97055 8.26074 7.97055 8.95855C7.97055 9.658 7.40417 10.2244 6.70422 10.2244Z" fill="white"/>
<path fill-rule="evenodd" clip-rule="evenodd" d="M4.71499 4.62657C3.97974 5.36182 3.97839 6.55798 4.71532 7.29491L6.00421 8.5838C6.74177 9.32136 7.93579 9.32087 8.67255 8.58412C9.4078 7.84887 9.40915 6.65272 8.67222 5.91579L7.38333 4.62689C6.64577 3.88934 5.45174 3.88982 4.71499 4.62657ZM6.44308 8.14491L5.15418 6.85601C4.66022 6.36205 4.66043 5.55889 5.15386 5.06547C5.64844 4.57088 6.44947 4.57085 6.94441 5.06579L8.2333 6.35468C8.72727 6.84865 8.72705 7.6518 8.23363 8.14523C7.73904 8.63981 6.93802 8.63985 6.44308 8.14491Z" fill="white"/>
</svg>
