<svg width="25" height="25" viewBox="0 0 25 25" fill="none" xmlns="http://www.w3.org/2000/svg">
<path d="M12.4999 1.38867C10.3368 1.39048 8.26238 2.24818 6.72962 3.77443C5.19686 5.30069 4.33034 7.37147 4.31934 9.5345C4.31934 12.7776 6.13878 15.4928 7.47211 17.472L7.71517 17.8331C9.04175 19.7558 10.4649 21.61 11.9791 23.3887L12.5068 24.0067L13.0346 23.3887C14.5486 21.6098 15.9717 19.7556 17.2985 17.8331L17.5416 17.4651C18.8679 15.4859 20.6874 12.7776 20.6874 9.5345C20.6764 7.37027 19.8089 5.29844 18.2746 3.77199C16.7404 2.24553 14.6642 1.38864 12.4999 1.38867ZM12.4999 13.1942C11.5989 13.1942 10.7181 12.927 9.96896 12.4265C9.2198 11.9259 8.63591 11.2144 8.29111 10.382C7.94631 9.54959 7.85609 8.63362 8.03187 7.74993C8.20765 6.86624 8.64152 6.05451 9.27863 5.41741C9.91573 4.7803 10.7275 4.34643 11.6111 4.17065C12.4948 3.99487 13.4108 4.08509 14.2432 4.42989C15.0756 4.77469 15.7871 5.35858 16.2877 6.10774C16.7883 6.8569 17.0554 7.73767 17.0554 8.63867C17.0554 9.84688 16.5755 11.0056 15.7212 11.8599C14.8668 12.7143 13.7081 13.1942 12.4999 13.1942Z" fill="#868686"/>
<path d="M12.5004 11.2294C13.931 11.2294 15.0907 10.0697 15.0907 8.63911C15.0907 7.20853 13.931 6.04883 12.5004 6.04883C11.0699 6.04883 9.91016 7.20853 9.91016 8.63911C9.91016 10.0697 11.0699 11.2294 12.5004 11.2294Z" fill="#868686"/>
</svg>
