<svg width="12" height="12" viewBox="0 0 12 12" fill="none" xmlns="http://www.w3.org/2000/svg">
<g clip-path="url(#clip0_554_79)">
<path d="M11.8436 8.82474C11.3878 7.96313 9.93278 7.09353 9.76316 6.99394C9.42543 6.80131 9.06618 6.74226 8.75495 6.82932C8.51027 6.89686 8.31014 7.04746 8.17355 7.26612C7.98291 7.49328 7.74725 7.76046 7.69771 7.80399C7.31295 8.06469 7.06077 8.03715 6.72852 7.70542L4.29433 5.27075C3.95809 4.93451 3.93306 4.69034 4.18275 4.32058C4.2398 4.25304 4.50698 4.01688 4.73364 3.82624C4.9523 3.68965 5.10241 3.48951 5.17045 3.24534C5.25702 2.93262 5.19897 2.57436 5.00282 2.23163C4.90676 2.06752 4.03614 0.611991 3.17555 0.156163C2.65468 -0.119047 2.02473 -0.02448 1.60793 0.392321L1.07055 0.929699C0.0983835 1.90137 -1.08445 3.97884 1.90964 6.97295L5.02684 10.0901C6.46084 11.5241 7.6842 12 8.67692 12C9.75718 12 10.5637 11.4361 11.0701 10.9297L11.6075 10.3918C12.0243 9.97555 12.1193 9.3456 11.8436 8.82474Z" fill="#FDC14C"/>
<path d="M6.66568 4.88088C6.76024 4.96393 6.87782 5.00497 6.9949 5.00497C7.134 5.00497 7.27259 4.94693 7.37166 4.83435L9.99703 1.83374V2.50321C9.99703 2.7794 10.2207 3.00355 10.4974 3.00355C10.7741 3.00355 10.9977 2.7794 10.9977 2.50321V0.501785C10.9977 0.496274 10.9947 0.491278 10.9942 0.485766C10.9932 0.449248 10.9822 0.415217 10.9732 0.3802C10.9657 0.35168 10.9627 0.322151 10.9507 0.295648C10.9392 0.270623 10.9202 0.250124 10.9042 0.2266C10.8831 0.19557 10.8641 0.163555 10.8366 0.138037C10.8326 0.134027 10.8311 0.129031 10.8266 0.125536C10.8086 0.109517 10.7856 0.103513 10.7661 0.0905196C10.7356 0.0705134 10.707 0.0494986 10.672 0.0364816C10.638 0.0239807 10.6025 0.0204626 10.5669 0.0154669C10.5429 0.0119722 10.5219 0.00146484 10.4974 0.00146484H8.49598C8.21929 0.00146484 7.99563 0.225615 7.99563 0.501809C7.99563 0.778003 8.21929 1.00215 8.49598 1.00215H9.39462L6.61816 4.17487C6.43653 4.38302 6.45754 4.69925 6.66568 4.88088Z" fill="#FDC14C"/>
</g>
<defs>
<clipPath id="clip0_554_79">
<rect width="12" height="12" fill="white"/>
</clipPath>
</defs>
</svg>
