<svg width="12" height="12" viewBox="0 0 12 12" fill="none" xmlns="http://www.w3.org/2000/svg">
<g clip-path="url(#clip0_554_85)">
<path d="M11.8435 8.82478C11.3877 7.96317 9.93269 7.09357 9.76258 6.99398C9.42435 6.80135 9.06609 6.7423 8.75436 6.82987C8.50969 6.89742 8.31005 7.04802 8.17345 7.26668C7.98331 7.49334 7.74715 7.76004 7.69713 7.80406C7.30936 8.06724 7.06518 8.04224 6.72894 7.70548L4.2942 5.27077C3.95797 4.93453 3.93294 4.69035 4.18263 4.3206C4.23918 4.25305 4.50637 4.01689 4.73352 3.82626C4.95218 3.68966 5.10229 3.49002 5.17033 3.24584C5.2569 2.93313 5.19836 2.57487 5.00322 2.23162C4.90666 2.06751 4.03654 0.611974 3.17493 0.156145C2.65406 -0.119041 2.02411 -0.0244745 1.60783 0.392327L1.07045 0.929706C0.0987457 1.90138 -1.08409 3.97836 1.90954 6.97297L5.02672 10.0902C6.46072 11.5242 7.68409 12 8.6768 12C9.75707 12 10.5636 11.4361 11.07 10.9298L11.6074 10.3919C12.0242 9.97558 12.1192 9.34565 11.8435 8.82478Z" fill="#59E156"/>
<path d="M6.51939 4.62774C6.52689 4.65577 6.5294 4.68478 6.54141 4.7103C6.55293 4.73683 6.57342 4.75784 6.58994 4.78235C6.61046 4.81237 6.62847 4.8434 6.65549 4.86791C6.6595 4.87192 6.661 4.87741 6.66551 4.88142C6.68952 4.90244 6.71853 4.91294 6.74555 4.92896C6.76758 4.94198 6.78709 4.95849 6.81111 4.96799C6.87066 4.99151 6.9322 5.00502 6.99473 5.00502H8.99613C9.27282 5.00502 9.49648 4.78087 9.49648 4.50468C9.49648 4.22848 9.27282 4.00433 8.99613 4.00433H8.09749L10.874 0.831566C11.0561 0.623411 11.0351 0.307204 10.8269 0.125576C10.6188 -0.0560521 10.3031 -0.0350373 10.1209 0.172109L7.49507 3.17322V2.50325C7.49507 2.22706 7.27142 2.00291 6.99473 2.00291C6.71854 2.00291 6.49438 2.22706 6.49438 2.50325V4.50466C6.49438 4.51066 6.49739 4.51516 6.49788 4.52067C6.49886 4.55771 6.51038 4.59223 6.51939 4.62774Z" fill="#59E156"/>
</g>
<defs>
<clipPath id="clip0_554_85">
<rect width="12" height="12" fill="white"/>
</clipPath>
</defs>
</svg>
