<svg width="34" height="40" viewBox="0 0 34 40" fill="none" xmlns="http://www.w3.org/2000/svg">
<path d="M19.4634 3C14.8537 3 7.60976 5.33333 5.63415 7C3.65854 8.66667 4.97562 11.6667 6.29269 11C7.60976 10.3333 16.3024 7.13333 19.4634 6.33333C22.6244 5.53333 27.1466 6.88867 28.6829 7.66667C27.1466 6.33333 24.0732 3 19.4634 3Z" stroke="white" stroke-width="2" stroke-linejoin="round"/>
<path d="M0.99 31H6.44V32.07H2.27V33.79H4.34C5.18 33.79 5.81667 33.9667 6.25 34.32C6.69 34.6667 6.91 35.17 6.91 35.83C6.91 36.5233 6.67 37.06 6.19 37.44C5.71 37.8133 5.02667 38 4.14 38H0.99V31ZM4.07 37C4.57 37 4.95 36.9033 5.21 36.71C5.47 36.5167 5.6 36.2367 5.6 35.87C5.6 35.15 5.09 34.79 4.07 34.79H2.27V37H4.07ZM11.1535 32.6C11.6735 32.6 12.1368 32.7133 12.5435 32.94C12.9568 33.1667 13.2802 33.4867 13.5135 33.9C13.7468 34.3133 13.8635 34.79 13.8635 35.33C13.8635 35.87 13.7468 36.35 13.5135 36.77C13.2802 37.1833 12.9568 37.5033 12.5435 37.73C12.1368 37.9567 11.6735 38.07 11.1535 38.07C10.4335 38.07 9.86352 37.83 9.44352 37.35V39.94H8.19352V32.66H9.38352V33.36C9.59018 33.1067 9.84352 32.9167 10.1435 32.79C10.4502 32.6633 10.7868 32.6 11.1535 32.6ZM11.0135 37C11.4735 37 11.8502 36.8467 12.1435 36.54C12.4435 36.2333 12.5935 35.83 12.5935 35.33C12.5935 34.83 12.4435 34.4267 12.1435 34.12C11.8502 33.8133 11.4735 33.66 11.0135 33.66C10.7135 33.66 10.4435 33.73 10.2035 33.87C9.96352 34.0033 9.77352 34.1967 9.63352 34.45C9.49352 34.7033 9.42352 34.9967 9.42352 35.33C9.42352 35.6633 9.49352 35.9567 9.63352 36.21C9.77352 36.4633 9.96352 36.66 10.2035 36.8C10.4435 36.9333 10.7135 37 11.0135 37ZM17.4876 38.07C16.9476 38.07 16.4609 37.9533 16.0276 37.72C15.5942 37.4867 15.2542 37.1633 15.0076 36.75C14.7676 36.33 14.6476 35.8567 14.6476 35.33C14.6476 34.8033 14.7676 34.3333 15.0076 33.92C15.2542 33.5067 15.5942 33.1833 16.0276 32.95C16.4609 32.7167 16.9476 32.6 17.4876 32.6C18.0342 32.6 18.5242 32.7167 18.9576 32.95C19.3909 33.1833 19.7276 33.5067 19.9676 33.92C20.2142 34.3333 20.3376 34.8033 20.3376 35.33C20.3376 35.8567 20.2142 36.33 19.9676 36.75C19.7276 37.1633 19.3909 37.4867 18.9576 37.72C18.5242 37.9533 18.0342 38.07 17.4876 38.07ZM17.4876 37C17.9476 37 18.3276 36.8467 18.6276 36.54C18.9276 36.2333 19.0776 35.83 19.0776 35.33C19.0776 34.83 18.9276 34.4267 18.6276 34.12C18.3276 33.8133 17.9476 33.66 17.4876 33.66C17.0276 33.66 16.6476 33.8133 16.3476 34.12C16.0542 34.4267 15.9076 34.83 15.9076 35.33C15.9076 35.83 16.0542 36.2333 16.3476 36.54C16.6476 36.8467 17.0276 37 17.4876 37ZM25.4424 35.22C26.1024 35.42 26.4324 35.8467 26.4324 36.5C26.4324 36.98 26.2524 37.35 25.8924 37.61C25.5324 37.87 24.9991 38 24.2924 38H21.5724V32.66H24.1824C24.8358 32.66 25.3458 32.78 25.7124 33.02C26.0791 33.26 26.2624 33.6 26.2624 34.04C26.2624 34.3133 26.1891 34.55 26.0424 34.75C25.9024 34.95 25.7024 35.1067 25.4424 35.22ZM22.7624 34.89H24.0724C24.7191 34.89 25.0424 34.6667 25.0424 34.22C25.0424 33.7867 24.7191 33.57 24.0724 33.57H22.7624V34.89ZM24.1924 37.09C24.8791 37.09 25.2224 36.8667 25.2224 36.42C25.2224 36.1867 25.1424 36.0133 24.9824 35.9C24.8224 35.78 24.5724 35.72 24.2324 35.72H22.7624V37.09H24.1924ZM27.7638 32.66H29.0138V36.18L31.9638 32.66H33.1038V38H31.8538V34.48L28.9138 38H27.7638V32.66Z" fill="white"/>
</svg>
