<svg width="29" height="47" viewBox="0 0 29 47" fill="none" xmlns="http://www.w3.org/2000/svg">
<path d="M14.5 5.0625C8.61231 5.0625 3.50762 8.4915 1 13.5C3.50762 18.5085 8.61231 21.9375 14.5 21.9375C20.3877 21.9375 25.4924 18.5085 28 13.5C25.4924 8.4915 20.3877 5.0625 14.5 5.0625ZM21.1572 9.53775C22.7434 10.5503 24.0884 11.9053 25.0975 13.5C24.0915 15.0945 22.7461 16.4474 21.1572 17.4622C19.1694 18.7323 16.8597 19.4072 14.5008 19.4072C12.1419 19.4072 9.83228 18.7323 7.8445 17.4622C6.25632 16.4465 4.91108 15.0938 3.90419 13.5C4.97641 11.8009 6.43311 10.3777 8.15669 9.34538C7.78575 10.365 7.6661 11.4591 7.80786 12.5348C7.94962 13.6106 8.34862 14.6363 8.97105 15.5251C9.59348 16.4138 10.421 17.1394 11.3834 17.6404C12.3459 18.1414 13.415 18.4029 14.5 18.4029C15.585 18.4029 16.6541 18.1414 17.6166 17.6404C18.579 17.1394 19.4065 16.4138 20.029 15.5251C20.6514 14.6363 21.0504 13.6106 21.1921 12.5348C21.3339 11.4591 21.2142 10.365 20.8433 9.34538C20.9479 9.40781 21.0526 9.47194 21.1555 9.53775H21.1572ZM14.5 10.9688C14.4998 11.6403 14.2328 12.2843 13.7578 12.759C13.2828 13.2337 12.6386 13.5002 11.9671 13.5C11.2955 13.4998 10.6516 13.2328 10.1768 12.7578C9.70215 12.2828 9.43559 11.6386 9.43581 10.9671C9.43604 10.2955 9.70302 9.65155 10.178 9.17685C10.6531 8.70215 11.2972 8.43559 11.9688 8.43581C12.6403 8.43604 13.2843 8.70302 13.759 9.17804C14.2337 9.65306 14.5002 10.2972 14.5 10.9688Z" fill="white"/>
<path d="M5.73 39.1H2.26L2.27 45H0.99V38H5.74L5.73 39.1ZM10.0257 39.66V45H8.7757V40.72H6.7757L6.7257 41.78C6.69237 42.4867 6.6257 43.08 6.5257 43.56C6.43237 44.0333 6.26904 44.41 6.0357 44.69C5.80904 44.9633 5.4957 45.1 5.0957 45.1C4.90904 45.1 4.67904 45.0633 4.4057 44.99L4.4657 43.94C4.55904 43.96 4.63904 43.97 4.7057 43.97C4.95904 43.97 5.14904 43.87 5.2757 43.67C5.40237 43.4633 5.48237 43.22 5.5157 42.94C5.5557 42.6533 5.58904 42.2467 5.6157 41.72L5.7057 39.66H10.0257ZM13.6991 39.6C14.4858 39.6 15.0858 39.79 15.4991 40.17C15.9191 40.5433 16.1291 41.11 16.1291 41.87V45H14.9491V44.35C14.7958 44.5833 14.5758 44.7633 14.2891 44.89C14.0091 45.01 13.6691 45.07 13.2691 45.07C12.8691 45.07 12.5191 45.0033 12.2191 44.87C11.9191 44.73 11.6858 44.54 11.5191 44.3C11.3591 44.0533 11.2791 43.7767 11.2791 43.47C11.2791 42.99 11.4558 42.6067 11.8091 42.32C12.1691 42.0267 12.7325 41.88 13.4991 41.88H14.8791V41.8C14.8791 41.4267 14.7658 41.14 14.5391 40.94C14.3191 40.74 13.9891 40.64 13.5491 40.64C13.2491 40.64 12.9525 40.6867 12.6591 40.78C12.3725 40.8733 12.1291 41.0033 11.9291 41.17L11.4391 40.26C11.7191 40.0467 12.0558 39.8833 12.4491 39.77C12.8425 39.6567 13.2591 39.6 13.6991 39.6ZM13.5291 44.16C13.8425 44.16 14.1191 44.09 14.3591 43.95C14.6058 43.8033 14.7791 43.5967 14.8791 43.33V42.71H13.5891C12.8691 42.71 12.5091 42.9467 12.5091 43.42C12.5091 43.6467 12.5991 43.8267 12.7791 43.96C12.9591 44.0933 13.2091 44.16 13.5291 44.16ZM20.7976 42.22C21.1309 42.3133 21.3876 42.4667 21.5676 42.68C21.7542 42.8867 21.8476 43.1367 21.8476 43.43C21.8476 43.7567 21.7376 44.0467 21.5176 44.3C21.2976 44.5467 20.9942 44.74 20.6076 44.88C20.2209 45.02 19.7809 45.09 19.2876 45.09C18.8742 45.09 18.4709 45.0433 18.0776 44.95C17.6842 44.85 17.3276 44.71 17.0076 44.53L17.3676 43.6C17.6276 43.7467 17.9209 43.86 18.2476 43.94C18.5742 44.02 18.9009 44.06 19.2276 44.06C19.6476 44.06 19.9742 43.9967 20.2076 43.87C20.4476 43.7367 20.5676 43.5567 20.5676 43.33C20.5676 43.1233 20.4742 42.9633 20.2876 42.85C20.1076 42.7367 19.8509 42.68 19.5176 42.68H18.4776V41.84H19.4176C19.7309 41.84 19.9742 41.7867 20.1476 41.68C20.3276 41.5733 20.4176 41.4233 20.4176 41.23C20.4176 41.0367 20.3109 40.8833 20.0976 40.77C19.8842 40.6567 19.5909 40.6 19.2176 40.6C18.6842 40.6 18.1209 40.73 17.5276 40.99L17.2076 40.07C17.9076 39.7433 18.6142 39.58 19.3276 39.58C19.7809 39.58 20.1876 39.6433 20.5476 39.77C20.9076 39.89 21.1876 40.0633 21.3876 40.29C21.5942 40.51 21.6976 40.7633 21.6976 41.05C21.6976 41.31 21.6176 41.5433 21.4576 41.75C21.2976 41.95 21.0776 42.1067 20.7976 42.22ZM25.1347 39.6C25.9214 39.6 26.5214 39.79 26.9347 40.17C27.3547 40.5433 27.5647 41.11 27.5647 41.87V45H26.3847V44.35C26.2314 44.5833 26.0114 44.7633 25.7247 44.89C25.4447 45.01 25.1047 45.07 24.7047 45.07C24.3047 45.07 23.9547 45.0033 23.6547 44.87C23.3547 44.73 23.1214 44.54 22.9547 44.3C22.7947 44.0533 22.7147 43.7767 22.7147 43.47C22.7147 42.99 22.8914 42.6067 23.2447 42.32C23.6047 42.0267 24.168 41.88 24.9347 41.88H26.3147V41.8C26.3147 41.4267 26.2014 41.14 25.9747 40.94C25.7547 40.74 25.4247 40.64 24.9847 40.64C24.6847 40.64 24.388 40.6867 24.0947 40.78C23.808 40.8733 23.5647 41.0033 23.3647 41.17L22.8747 40.26C23.1547 40.0467 23.4914 39.8833 23.8847 39.77C24.278 39.6567 24.6947 39.6 25.1347 39.6ZM24.9647 44.16C25.278 44.16 25.5547 44.09 25.7947 43.95C26.0414 43.8033 26.2147 43.5967 26.3147 43.33V42.71H25.0247C24.3047 42.71 23.9447 42.9467 23.9447 43.42C23.9447 43.6467 24.0347 43.8267 24.2147 43.96C24.3947 44.0933 24.6447 44.16 24.9647 44.16Z" fill="white"/>
</svg>
