<svg width="27" height="42" viewBox="0 0 27 42" fill="none" xmlns="http://www.w3.org/2000/svg">
<path d="M13.5 8.1303C13.0078 7.64387 12.3574 7.24431 11.5488 6.9316C10.7402 6.6189 9.98438 6.46255 9.28125 6.46255C8.73633 6.46255 8.12988 6.54941 7.46191 6.72313C6.79395 6.89686 6.16992 7.08795 5.58984 7.29642C5.00977 7.50489 4.21875 7.69599 3.2168 7.86971C2.21484 8.04344 1.14258 8.1303 0 8.1303C0.720703 7.76548 1.59961 7.18784 2.63672 6.3974C3.67383 5.60695 4.59668 4.85994 5.40527 4.15636C6.21387 3.45277 7.05762 2.82737 7.93652 2.28014C8.81543 1.73291 9.54492 1.45929 10.125 1.45929C10.8105 1.45929 11.4478 1.60696 12.0366 1.90229C12.6255 2.19762 13.1133 2.60587 13.5 3.12704C13.8867 2.60587 14.3745 2.19762 14.9634 1.90229C15.5522 1.60696 16.1895 1.45929 16.875 1.45929C17.4551 1.45929 18.1846 1.73291 19.0635 2.28014C19.9424 2.82737 20.7861 3.45277 21.5947 4.15636C22.4033 4.85994 23.3262 5.60695 24.3633 6.3974C25.4004 7.18784 26.2793 7.76548 27 8.1303C25.8574 8.1303 24.7852 8.04344 23.7832 7.86971C22.7812 7.69599 21.9902 7.50489 21.4102 7.29642C20.8301 7.08795 20.2061 6.89686 19.5381 6.72313C18.8701 6.54941 18.2637 6.46255 17.7188 6.46255C17.0156 6.46255 16.2598 6.6189 15.4512 6.9316C14.6426 7.24431 13.9922 7.64387 13.5 8.1303ZM13.5 10.1629C13.9922 9.55484 14.625 9.06407 15.3984 8.69056C16.1719 8.31705 16.9453 8.1303 17.7188 8.1303C18.8262 8.1303 19.8984 8.18676 20.9355 8.29968C21.9727 8.4126 22.8428 8.55158 23.5459 8.71662C24.249 8.88166 24.873 9.04669 25.418 9.21173C25.9629 9.37677 26.3584 9.51141 26.6045 9.61564L27 9.79805C26.2969 10.1455 25.4663 10.6363 24.5083 11.2704C23.5503 11.9045 22.7241 12.4647 22.0298 12.9511C21.3354 13.4376 20.5884 13.8675 19.7886 14.241C18.9888 14.6146 18.2988 14.8013 17.7188 14.8013C15.6445 14.8013 14.2383 14.532 13.5 13.9935C12.7617 14.532 11.3555 14.8013 9.28125 14.8013C8.70117 14.8013 8.01123 14.6146 7.21143 14.241C6.41162 13.8675 5.66455 13.4376 4.97021 12.9511C4.27588 12.4647 3.44971 11.9045 2.4917 11.2704C1.53369 10.6363 0.703125 10.1455 0 9.79805C0.0878906 9.74593 0.219727 9.68513 0.395508 9.61564C0.571289 9.54615 0.958008 9.41586 1.55566 9.22476C2.15332 9.03366 2.78613 8.86428 3.4541 8.71662C4.12207 8.56895 4.9834 8.43432 6.03809 8.31271C7.09277 8.1911 8.17383 8.1303 9.28125 8.1303C10.0547 8.1303 10.8281 8.31705 11.6016 8.69056C12.375 9.06407 13.0078 9.55484 13.5 10.1629Z" fill="white"/>
<path d="M6.73 33.1H3.26L3.27 39H1.99V32H6.74L6.73 33.1ZM11.9484 33.66L9.44836 39.43C9.21503 40.01 8.93169 40.4167 8.59836 40.65C8.26503 40.89 7.86169 41.01 7.38836 41.01C7.12169 41.01 6.85836 40.9667 6.59836 40.88C6.33836 40.7933 6.12503 40.6733 5.95836 40.52L6.45836 39.6C6.57836 39.7133 6.71836 39.8033 6.87836 39.87C7.04503 39.9367 7.21169 39.97 7.37836 39.97C7.59836 39.97 7.77836 39.9133 7.91836 39.8C8.06503 39.6867 8.19836 39.4967 8.31836 39.23L8.40836 39.02L6.07836 33.66H7.37836L9.05836 37.61L10.7484 33.66H11.9484ZM15.6577 33.92C16.1644 33.92 16.6111 34.03 16.9977 34.25C17.3844 34.4633 17.6844 34.7633 17.8977 35.15C18.1177 35.5367 18.2277 35.98 18.2277 36.48C18.2277 36.9933 18.1077 37.45 17.8677 37.85C17.6277 38.2433 17.2911 38.55 16.8577 38.77C16.4244 38.99 15.9311 39.1 15.3777 39.1C14.4511 39.1 13.7344 38.7933 13.2277 38.18C12.7211 37.5667 12.4677 36.6833 12.4677 35.53C12.4677 34.4567 12.6977 33.6067 13.1577 32.98C13.6177 32.3533 14.3211 31.94 15.2677 31.74L17.7477 31.21L17.9277 32.33L15.6777 32.79C15.0311 32.9233 14.5477 33.15 14.2277 33.47C13.9077 33.79 13.7211 34.24 13.6677 34.82C13.9077 34.5333 14.1977 34.3133 14.5377 34.16C14.8777 34 15.2511 33.92 15.6577 33.92ZM15.4077 38.09C15.8677 38.09 16.2377 37.9433 16.5177 37.65C16.8044 37.35 16.9477 36.97 16.9477 36.51C16.9477 36.05 16.8044 35.68 16.5177 35.4C16.2377 35.12 15.8677 34.98 15.4077 34.98C14.9411 34.98 14.5644 35.12 14.2777 35.4C13.9911 35.68 13.8477 36.05 13.8477 36.51C13.8477 36.9767 13.9911 37.3567 14.2777 37.65C14.5711 37.9433 14.9477 38.09 15.4077 38.09ZM22.0377 35.42C22.7177 35.42 23.2377 35.5733 23.5977 35.88C23.9577 36.1867 24.1377 36.62 24.1377 37.18C24.1377 37.7667 23.9377 38.22 23.5377 38.54C23.1443 38.86 22.5843 39.0167 21.8577 39.01L19.4377 39V33.66H20.6877V35.41L22.0377 35.42ZM24.8277 33.66H26.0777V39H24.8277V33.66ZM21.7477 38.09C22.1143 38.0967 22.3943 38.02 22.5877 37.86C22.781 37.7 22.8777 37.4667 22.8777 37.16C22.8777 36.86 22.7843 36.64 22.5977 36.5C22.411 36.36 22.1277 36.2867 21.7477 36.28L20.6877 36.27V38.08L21.7477 38.09Z" fill="white"/>
</svg>
