<svg width="27" height="48" viewBox="0 0 27 48" fill="none" xmlns="http://www.w3.org/2000/svg">
<path d="M19.7104 15.312C19.5965 14.6872 19.4704 14.0387 19.3468 13.4059C19.027 11.7678 18.6967 10.074 18.6967 9.28842C18.6962 3.44798 17.0935 0.84375 13.4992 0.84375C9.9052 0.84375 8.3025 3.44798 8.3025 9.28884C8.3025 10.0752 7.97175 11.7707 7.65155 13.4106C7.52878 14.0417 7.40264 14.6888 7.28916 15.3124C4.8638 15.5145 2.95312 17.5319 2.95312 19.983C2.95312 22.2623 5.17767 24.1958 6.77362 24.5789C6.94533 24.6202 7.14445 24.6405 7.38323 24.6405C7.83548 24.6405 8.44003 24.5624 8.9138 24.4671C10.1866 25.5606 11.7952 26.1562 13.4992 26.1562C15.204 26.1562 16.8126 25.5601 18.0849 24.4666C18.5591 24.562 19.1641 24.64 19.6168 24.64C19.856 24.64 20.0551 24.6198 20.2264 24.5784C21.8219 24.1962 24.0469 22.2628 24.0469 19.983C24.0469 17.5319 22.1354 15.5136 19.7104 15.312ZM20.0066 23.6318C19.8783 23.6579 19.7476 23.6696 19.6168 23.6668C19.0848 23.6668 18.3448 23.5402 17.9896 23.4474C18.3528 23.2546 18.8072 23.0546 19.2953 22.9513C21.8801 22.4003 20.7579 21.1899 19.0287 21.7413C17.6711 22.1742 17.2378 23.8208 17.2125 23.9195C16.1485 24.7397 14.8426 25.1839 13.4992 25.1826C12.1566 25.184 10.8515 24.7404 9.78792 23.9212C9.76725 23.8397 9.33652 22.1767 7.97091 21.7413C6.24206 21.1899 5.11988 22.4007 7.7047 22.9513C8.19197 23.0546 8.64633 23.255 9.00998 23.4474C8.65561 23.5398 7.91437 23.6668 7.38323 23.6668C7.23136 23.6668 7.09594 23.6562 6.99384 23.6318C5.84212 23.3554 3.91163 21.8004 3.91163 19.9834C3.91163 17.9326 5.60334 16.2692 7.68994 16.2692C7.82578 16.2692 7.95994 16.2768 8.09156 16.2907C8.50331 13.8143 9.26058 10.63 9.26058 9.28884C9.26058 2.99405 11.1578 1.81744 13.4987 1.81744C15.8418 1.81744 17.7373 2.99405 17.7373 9.28884C17.7373 10.6296 18.495 13.8143 18.9068 16.2911C19.0388 16.2768 19.1734 16.2692 19.3092 16.2692C21.3958 16.2692 23.0875 17.9322 23.0875 19.9834C23.0884 21.8004 21.1579 23.3554 20.0066 23.6318Z" fill="white"/>
<path d="M10.2 39V46H8.9V43H5.28V46H3.98V39H5.28V41.89H8.9V39H10.2ZM14.4036 46.07C13.8636 46.07 13.3769 45.9533 12.9436 45.72C12.5103 45.4867 12.1703 45.1633 11.9236 44.75C11.6836 44.33 11.5636 43.8567 11.5636 43.33C11.5636 42.8033 11.6836 42.3333 11.9236 41.92C12.1703 41.5067 12.5103 41.1833 12.9436 40.95C13.3769 40.7167 13.8636 40.6 14.4036 40.6C14.9503 40.6 15.4403 40.7167 15.8736 40.95C16.3069 41.1833 16.6436 41.5067 16.8836 41.92C17.1303 42.3333 17.2536 42.8033 17.2536 43.33C17.2536 43.8567 17.1303 44.33 16.8836 44.75C16.6436 45.1633 16.3069 45.4867 15.8736 45.72C15.4403 45.9533 14.9503 46.07 14.4036 46.07ZM14.4036 45C14.8636 45 15.2436 44.8467 15.5436 44.54C15.8436 44.2333 15.9936 43.83 15.9936 43.33C15.9936 42.83 15.8436 42.4267 15.5436 42.12C15.2436 41.8133 14.8636 41.66 14.4036 41.66C13.9436 41.66 13.5636 41.8133 13.2636 42.12C12.9703 42.4267 12.8236 42.83 12.8236 43.33C12.8236 43.83 12.9703 44.2333 13.2636 44.54C13.5636 44.8467 13.9436 45 14.4036 45ZM20.9184 46.07C20.3651 46.07 19.8684 45.9533 19.4284 45.72C18.9884 45.4867 18.6451 45.1633 18.3984 44.75C18.1518 44.33 18.0284 43.8567 18.0284 43.33C18.0284 42.8033 18.1518 42.3333 18.3984 41.92C18.6451 41.5067 18.9851 41.1833 19.4184 40.95C19.8584 40.7167 20.3584 40.6 20.9184 40.6C21.4451 40.6 21.9051 40.7067 22.2984 40.92C22.6984 41.1333 22.9984 41.44 23.1984 41.84L22.2384 42.4C22.0851 42.1533 21.8918 41.97 21.6584 41.85C21.4318 41.7233 21.1818 41.66 20.9084 41.66C20.4418 41.66 20.0551 41.8133 19.7484 42.12C19.4418 42.42 19.2884 42.8233 19.2884 43.33C19.2884 43.8367 19.4384 44.2433 19.7384 44.55C20.0451 44.85 20.4351 45 20.9084 45C21.1818 45 21.4318 44.94 21.6584 44.82C21.8918 44.6933 22.0851 44.5067 22.2384 44.26L23.1984 44.82C22.9918 45.22 22.6884 45.53 22.2884 45.75C21.8951 45.9633 21.4384 46.07 20.9184 46.07Z" fill="white"/>
</svg>
