<svg width="90" height="90" viewBox="0 0 90 90" fill="none" xmlns="http://www.w3.org/2000/svg">
<path d="M26.1951 73V66H29.3251C30.1117 66 30.7251 66.1567 31.1651 66.47C31.6051 66.7767 31.8251 67.22 31.8251 67.8C31.8251 68.3733 31.6151 68.8167 31.1951 69.13C30.7751 69.4367 30.2217 69.59 29.5351 69.59L29.7151 69.23C30.4951 69.23 31.0984 69.3867 31.5251 69.7C31.9517 70.0133 32.1651 70.4667 32.1651 71.06C32.1651 71.6667 31.9417 72.1433 31.4951 72.49C31.0484 72.83 30.3884 73 29.5151 73H26.1951ZM27.4751 72H29.4751C29.9284 72 30.2717 71.9167 30.5051 71.75C30.7384 71.5767 30.8551 71.3133 30.8551 70.96C30.8551 70.6067 30.7384 70.35 30.5051 70.19C30.2717 70.0233 29.9284 69.94 29.4751 69.94H27.4751V72ZM27.4751 68.99H29.2151C29.6351 68.99 29.9551 68.9067 30.1751 68.74C30.3951 68.5667 30.5051 68.32 30.5051 68C30.5051 67.6667 30.3951 67.4167 30.1751 67.25C29.9551 67.0833 29.6351 67 29.2151 67H27.4751V68.99ZM38.896 73V67.66H40.146V73H38.896ZM36.106 69.42C36.7927 69.42 37.3127 69.5733 37.666 69.88C38.026 70.1867 38.206 70.62 38.206 71.18C38.206 71.76 38.006 72.2133 37.606 72.54C37.2127 72.86 36.6527 73.0167 35.926 73.01L33.506 73V67.66H34.756V69.41L36.106 69.42ZM35.816 72.09C36.1827 72.0967 36.4627 72.02 36.656 71.86C36.8493 71.7 36.946 71.4667 36.946 71.16C36.946 70.8533 36.8493 70.6333 36.656 70.5C36.4693 70.36 36.1893 70.2867 35.816 70.28L34.756 70.27V72.08L35.816 72.09ZM45.4863 72.42V68.72H43.4363L43.4063 69.58C43.393 69.8867 43.373 70.1833 43.3463 70.47C43.3197 70.75 43.2763 71.01 43.2163 71.25C43.1563 71.4833 43.0697 71.6767 42.9563 71.83C42.843 71.9833 42.693 72.0833 42.5063 72.13L41.2663 71.94C41.4663 71.94 41.6263 71.8767 41.7463 71.75C41.873 71.6167 41.9697 71.4367 42.0363 71.21C42.1097 70.9767 42.163 70.7133 42.1963 70.42C42.2297 70.12 42.253 69.81 42.2663 69.49L42.3363 67.66H46.7363V72.42H45.4863ZM41.0763 74.19V71.94H47.5263V74.19H46.3563V73H42.2363V74.19H41.0763ZM51.8827 73V71.92L51.8127 71.69V69.8C51.8127 69.4333 51.7027 69.15 51.4827 68.95C51.2627 68.7433 50.9294 68.64 50.4827 68.64C50.1827 68.64 49.8861 68.6867 49.5927 68.78C49.3061 68.8733 49.0627 69.0033 48.8627 69.17L48.3727 68.26C48.6594 68.04 48.9994 67.8767 49.3927 67.77C49.7927 67.6567 50.2061 67.6 50.6327 67.6C51.4061 67.6 52.0027 67.7867 52.4227 68.16C52.8494 68.5267 53.0627 69.0967 53.0627 69.87V73H51.8827ZM50.2027 73.07C49.8027 73.07 49.4527 73.0033 49.1527 72.87C48.8527 72.73 48.6194 72.54 48.4527 72.3C48.2927 72.0533 48.2127 71.7767 48.2127 71.47C48.2127 71.17 48.2827 70.9 48.4227 70.66C48.5694 70.42 48.8061 70.23 49.1327 70.09C49.4594 69.95 49.8927 69.88 50.4327 69.88H51.9827V70.71H50.5227C50.0961 70.71 49.8094 70.78 49.6627 70.92C49.5161 71.0533 49.4427 71.22 49.4427 71.42C49.4427 71.6467 49.5327 71.8267 49.7127 71.96C49.8927 72.0933 50.1427 72.16 50.4627 72.16C50.7694 72.16 51.0427 72.09 51.2827 71.95C51.5294 71.81 51.7061 71.6033 51.8127 71.33L52.0227 72.08C51.9027 72.3933 51.6861 72.6367 51.3727 72.81C51.0661 72.9833 50.6761 73.07 50.2027 73.07ZM55.7195 73V68.42L56.0095 68.72H53.8395V67.66H58.8395V68.72H56.6795L56.9695 68.42V73H55.7195ZM62.4263 69.42C63.1129 69.42 63.6363 69.5733 63.9963 69.88C64.3563 70.1867 64.5363 70.62 64.5363 71.18C64.5363 71.76 64.3363 72.2133 63.9363 72.54C63.5363 72.86 62.9729 73.0167 62.2463 73.01L59.7463 73V67.66H60.9963V69.41L62.4263 69.42ZM62.1363 72.09C62.5029 72.0967 62.7829 72.02 62.9763 71.86C63.1696 71.7 63.2663 71.4667 63.2663 71.16C63.2663 70.8533 63.1696 70.6333 62.9763 70.5C62.7896 70.36 62.5096 70.2867 62.1363 70.28L60.9963 70.27V72.08L62.1363 72.09ZM4.64859 85V79.66H7.25859C7.90526 79.66 8.41193 79.78 8.77859 80.02C9.15193 80.26 9.33859 80.6 9.33859 81.04C9.33859 81.4733 9.16526 81.8133 8.81859 82.06C8.47193 82.3 8.01193 82.42 7.43859 82.42L7.58859 82.11C8.23526 82.11 8.71526 82.23 9.02859 82.47C9.34859 82.7033 9.50859 83.0467 9.50859 83.5C9.50859 83.9733 9.33193 84.3433 8.97859 84.61C8.62526 84.87 8.08859 85 7.36859 85H4.64859ZM5.83859 84.09H7.26859C7.60859 84.09 7.86526 84.0367 8.03859 83.93C8.21193 83.8167 8.29859 83.6467 8.29859 83.42C8.29859 83.18 8.21859 83.0033 8.05859 82.89C7.89859 82.7767 7.64859 82.72 7.30859 82.72H5.83859V84.09ZM5.83859 81.89H7.14859C7.46859 81.89 7.70859 81.8333 7.86859 81.72C8.03526 81.6 8.11859 81.4333 8.11859 81.22C8.11859 81 8.03526 80.8367 7.86859 80.73C7.70859 80.6233 7.46859 80.57 7.14859 80.57H5.83859V81.89ZM13.22 85.07C12.6733 85.07 12.1867 84.9533 11.76 84.72C11.3333 84.48 10.9967 84.1533 10.75 83.74C10.5033 83.3267 10.38 82.8567 10.38 82.33C10.38 81.7967 10.5033 81.3267 10.75 80.92C10.9967 80.5067 11.3333 80.1833 11.76 79.95C12.1867 79.7167 12.6733 79.6 13.22 79.6C13.7733 79.6 14.2633 79.7167 14.69 79.95C15.1233 80.1833 15.46 80.5033 15.7 80.91C15.9467 81.3167 16.07 81.79 16.07 82.33C16.07 82.8567 15.9467 83.3267 15.7 83.74C15.46 84.1533 15.1233 84.48 14.69 84.72C14.2633 84.9533 13.7733 85.07 13.22 85.07ZM13.22 84C13.5267 84 13.8 83.9333 14.04 83.8C14.28 83.6667 14.4667 83.4733 14.6 83.22C14.74 82.9667 14.81 82.67 14.81 82.33C14.81 81.9833 14.74 81.6867 14.6 81.44C14.4667 81.1867 14.28 80.9933 14.04 80.86C13.8 80.7267 13.53 80.66 13.23 80.66C12.9233 80.66 12.65 80.7267 12.41 80.86C12.1767 80.9933 11.99 81.1867 11.85 81.44C11.71 81.6867 11.64 81.9833 11.64 82.33C11.64 82.67 11.71 82.9667 11.85 83.22C11.99 83.4733 12.1767 83.6667 12.41 83.8C12.65 83.9333 12.92 84 13.22 84ZM19.7948 85.07C19.2015 85.07 18.6815 84.9533 18.2348 84.72C17.7948 84.48 17.4515 84.1533 17.2048 83.74C16.9648 83.3267 16.8448 82.8567 16.8448 82.33C16.8448 81.7967 16.9615 81.3267 17.1948 80.92C17.4348 80.5067 17.7615 80.1833 18.1748 79.95C18.5948 79.7167 19.0715 79.6 19.6048 79.6C20.1248 79.6 20.5882 79.7133 20.9948 79.94C21.4015 80.1667 21.7215 80.4867 21.9548 80.9C22.1882 81.3133 22.3048 81.8 22.3048 82.36C22.3048 82.4133 22.3015 82.4733 22.2948 82.54C22.2948 82.6067 22.2915 82.67 22.2848 82.73H17.8348V81.9H21.6248L21.1348 82.16C21.1415 81.8533 21.0782 81.5833 20.9448 81.35C20.8115 81.1167 20.6282 80.9333 20.3948 80.8C20.1682 80.6667 19.9048 80.6 19.6048 80.6C19.2982 80.6 19.0282 80.6667 18.7948 80.8C18.5682 80.9333 18.3882 81.12 18.2548 81.36C18.1282 81.5933 18.0648 81.87 18.0648 82.19V82.39C18.0648 82.71 18.1382 82.9933 18.2848 83.24C18.4315 83.4867 18.6382 83.6767 18.9048 83.81C19.1715 83.9433 19.4782 84.01 19.8248 84.01C20.1248 84.01 20.3948 83.9633 20.6348 83.87C20.8748 83.7767 21.0882 83.63 21.2748 83.43L21.9448 84.2C21.7048 84.48 21.4015 84.6967 21.0348 84.85C20.6748 84.9967 20.2615 85.07 19.7948 85.07ZM23.672 85V79.66H24.922V81.83H27.612V79.66H28.862V85H27.612V82.89H24.922V85H23.672ZM30.5373 85V79.66H31.7873V81.83H34.4773V79.66H35.7273V85H34.4773V82.89H31.7873V85H30.5373ZM42.7925 85V79.66H44.0425V85H42.7925ZM40.0025 81.42C40.6892 81.42 41.2092 81.5733 41.5625 81.88C41.9225 82.1867 42.1025 82.62 42.1025 83.18C42.1025 83.76 41.9025 84.2133 41.5025 84.54C41.1092 84.86 40.5492 85.0167 39.8225 85.01L37.4025 85V79.66H38.6525V81.41L40.0025 81.42ZM39.7125 84.09C40.0792 84.0967 40.3592 84.02 40.5525 83.86C40.7458 83.7 40.8425 83.4667 40.8425 83.16C40.8425 82.8533 40.7458 82.6333 40.5525 82.5C40.3658 82.36 40.0858 82.2867 39.7125 82.28L38.6525 82.27V84.08L39.7125 84.09ZM45.7228 85V79.66H46.9728V83.18L49.9228 79.66H51.0628V85H49.8128V81.48L46.8728 85H45.7228ZM48.3128 79.03C47.7795 79.03 47.3695 78.9067 47.0828 78.66C46.7961 78.4067 46.6495 78.04 46.6428 77.56H47.4728C47.4795 77.8 47.5528 77.99 47.6928 78.13C47.8395 78.27 48.0428 78.34 48.3028 78.34C48.5561 78.34 48.7561 78.27 48.9028 78.13C49.0561 77.99 49.1361 77.8 49.1428 77.56H49.9928C49.9861 78.04 49.8361 78.4067 49.5428 78.66C49.2561 78.9067 48.8461 79.03 48.3128 79.03ZM58.058 85.1C57.618 85.1 57.2246 85.0333 56.878 84.9C56.5313 84.7667 56.2313 84.5633 55.978 84.29C55.7313 84.01 55.5413 83.6567 55.408 83.23C55.2746 82.8033 55.208 82.2967 55.208 81.71C55.208 81.2833 55.2446 80.8933 55.318 80.54C55.3913 80.1867 55.5013 79.87 55.648 79.59C55.7946 79.3033 55.978 79.05 56.198 78.83C56.4246 78.61 56.688 78.4267 56.988 78.28C57.288 78.1333 57.628 78.02 58.008 77.94L60.488 77.41L60.668 78.53L58.418 78.99C58.2913 79.0167 58.138 79.0567 57.958 79.11C57.7846 79.1567 57.6046 79.23 57.418 79.33C57.238 79.4233 57.068 79.56 56.908 79.74C56.7546 79.9133 56.628 80.14 56.528 80.42C56.4346 80.6933 56.388 81.0367 56.388 81.45C56.388 81.5767 56.3913 81.6733 56.398 81.74C56.4113 81.8 56.4213 81.8667 56.428 81.94C56.4413 82.0067 56.448 82.1067 56.448 82.24L55.978 81.75C56.1113 81.41 56.2946 81.12 56.528 80.88C56.768 80.6333 57.0446 80.4467 57.358 80.32C57.678 80.1867 58.0246 80.12 58.398 80.12C58.898 80.12 59.3413 80.2233 59.728 80.43C60.1146 80.6367 60.418 80.9267 60.638 81.3C60.858 81.6733 60.968 82.0967 60.968 82.57C60.968 83.0633 60.848 83.5 60.608 83.88C60.368 84.26 60.028 84.56 59.588 84.78C59.1546 84.9933 58.6446 85.1 58.058 85.1ZM58.158 84.09C58.458 84.09 58.7213 84.0267 58.948 83.9C59.1813 83.7667 59.3613 83.5867 59.488 83.36C59.6213 83.1333 59.688 82.88 59.688 82.6C59.688 82.32 59.6213 82.0767 59.488 81.87C59.3613 81.6567 59.1813 81.4867 58.948 81.36C58.7213 81.2333 58.4513 81.17 58.138 81.17C57.838 81.17 57.568 81.23 57.328 81.35C57.0946 81.47 56.9113 81.6367 56.778 81.85C56.6513 82.0567 56.588 82.2967 56.588 82.57C56.588 82.85 56.6546 83.1067 56.788 83.34C56.9213 83.5733 57.1046 83.7567 57.338 83.89C57.578 84.0233 57.8513 84.09 58.158 84.09ZM62.1779 85V79.66H63.4279V83.18L66.3779 79.66H67.5179V85H66.2679V81.48L63.3279 85H62.1779ZM68.4194 84.99L68.4794 83.94C68.526 83.9467 68.5694 83.9533 68.6094 83.96C68.6494 83.9667 68.686 83.97 68.7194 83.97C68.926 83.97 69.086 83.9067 69.1994 83.78C69.3127 83.6533 69.396 83.4833 69.4494 83.27C69.5094 83.05 69.5494 82.8067 69.5694 82.54C69.596 82.2667 69.616 81.9933 69.6294 81.72L69.7194 79.66H74.0394V85H72.7894V80.38L73.0794 80.72H70.5394L70.8094 80.37L70.7394 81.78C70.7194 82.2533 70.6794 82.6933 70.6194 83.1C70.566 83.5 70.4794 83.85 70.3594 84.15C70.246 84.45 70.086 84.6833 69.8794 84.85C69.6794 85.0167 69.4227 85.1 69.1094 85.1C69.0094 85.1 68.8994 85.09 68.7794 85.07C68.666 85.05 68.546 85.0233 68.4194 84.99ZM78.2128 85.07C77.6195 85.07 77.0995 84.9533 76.6528 84.72C76.2128 84.48 75.8695 84.1533 75.6228 83.74C75.3828 83.3267 75.2628 82.8567 75.2628 82.33C75.2628 81.7967 75.3795 81.3267 75.6128 80.92C75.8528 80.5067 76.1795 80.1833 76.5928 79.95C77.0128 79.7167 77.4895 79.6 78.0228 79.6C78.5428 79.6 79.0061 79.7133 79.4128 79.94C79.8195 80.1667 80.1395 80.4867 80.3728 80.9C80.6061 81.3133 80.7228 81.8 80.7228 82.36C80.7228 82.4133 80.7195 82.4733 80.7128 82.54C80.7128 82.6067 80.7095 82.67 80.7028 82.73H76.2528V81.9H80.0428L79.5528 82.16C79.5595 81.8533 79.4961 81.5833 79.3628 81.35C79.2295 81.1167 79.0461 80.9333 78.8128 80.8C78.5861 80.6667 78.3228 80.6 78.0228 80.6C77.7161 80.6 77.4461 80.6667 77.2128 80.8C76.9861 80.9333 76.8061 81.12 76.6728 81.36C76.5461 81.5933 76.4828 81.87 76.4828 82.19V82.39C76.4828 82.71 76.5561 82.9933 76.7028 83.24C76.8495 83.4867 77.0561 83.6767 77.3228 83.81C77.5895 83.9433 77.8961 84.01 78.2428 84.01C78.5428 84.01 78.8128 83.9633 79.0528 83.87C79.2928 83.7767 79.5061 83.63 79.6928 83.43L80.3628 84.2C80.1228 84.48 79.8195 84.6967 79.4528 84.85C79.0928 84.9967 78.6795 85.07 78.2128 85.07ZM83.0047 85V80.42L83.2947 80.72H81.1247V79.66H86.1247V80.72H83.9647L84.2547 80.42V85H83.0047Z" fill="white"/>
<path d="M54.9098 51.2462V28.2106C54.9098 27.0388 54.2211 25.9695 53.1542 25.484L52.2673 25.0809C51.7376 24.8411 51.1987 24.6328 50.6532 24.4488L50.704 24.398C51.4702 23.631 51.6234 22.49 51.1838 21.5622L52.5779 20.168C52.9094 20.3263 53.27 20.4179 53.6481 20.4179C54.3161 20.4179 54.9432 20.158 55.4145 19.6867L57.7713 17.3307C58.5367 16.5645 58.6907 15.4235 58.2502 14.4958L59.6459 13.1C59.9841 13.2608 60.348 13.3499 60.7152 13.3499C61.3548 13.3499 61.9944 13.1067 62.4816 12.6195L64.8376 10.2643C65.8104 9.28989 65.8104 7.7058 64.8368 6.73144C63.8625 5.75619 62.2784 5.75619 61.304 6.73144L58.948 9.08668C58.4766 9.55809 58.2168 10.186 58.2168 10.853C58.2168 11.2312 58.3084 11.5925 58.4667 11.924L57.0734 13.3173C56.1457 12.8776 55.0038 13.0309 54.2368 13.7979L51.8816 16.1531C51.4094 16.6253 51.1495 17.2533 51.1495 17.9194C51.1495 18.2984 51.242 18.659 51.4002 18.9905L50.006 20.3846C49.0783 19.9441 47.9373 20.0973 47.1702 20.8652L44.9158 23.1196L42.6614 20.8652C41.8944 20.0982 40.7525 19.9441 39.8248 20.3838L38.4315 18.9906C38.5898 18.6591 38.6821 18.2985 38.6821 17.9195C38.6821 17.2533 38.4223 16.6254 37.9501 16.1532L35.595 13.7979C34.8272 13.0309 33.6862 12.8776 32.7585 13.3173L31.3652 11.924C31.5235 11.5925 31.615 11.2312 31.615 10.853C31.615 10.186 31.3552 9.55799 30.8839 9.08668L28.5277 6.73144C27.5525 5.75619 25.9677 5.75619 24.9941 6.73144C24.0214 7.7058 24.0214 9.28989 24.9949 10.2643L27.3502 12.6195C27.8373 13.1067 28.4769 13.3507 29.1174 13.3499C29.4846 13.3499 29.8478 13.2608 30.1859 13.1L31.5809 14.4958C31.1412 15.4235 31.2952 16.5645 32.0614 17.3307L34.4175 19.6867C34.8889 20.1581 35.516 20.4179 36.1838 20.4179C36.562 20.4179 36.9225 20.3263 37.254 20.168L38.6465 21.5605C38.4883 21.892 38.3959 22.2534 38.3959 22.6315C38.3959 23.2978 38.6558 23.9257 39.128 24.3979L39.1804 24.4495C38.6275 24.6377 38.0853 24.8442 37.5648 25.0807L36.6779 25.4838C35.6118 25.9685 34.9223 27.0387 34.9223 28.2104V51.2461C34.9223 52.418 35.6119 53.4881 36.6771 53.9728L37.6989 54.4366C39.9925 55.4794 42.4544 55.9999 44.9162 55.9999C47.378 55.9999 49.8398 55.4794 52.1334 54.4366L53.1544 53.9728C54.221 53.4874 54.9098 52.4181 54.9098 51.2462ZM60.1257 10.2643L62.4817 7.90901C62.6441 7.74659 62.8573 7.66582 63.0705 7.66582C63.2837 7.66582 63.4968 7.74659 63.6593 7.90901C63.984 8.23377 63.984 8.76183 63.6593 9.08658L61.304 11.4418C60.9784 11.7666 60.4495 11.765 60.1256 11.4418C59.9682 11.2852 59.8824 11.0762 59.8824 10.853C59.8825 10.6315 59.9691 10.4216 60.1257 10.2643ZM53.0592 17.3307L55.4144 14.9754C55.5776 14.813 55.7908 14.7322 56.0041 14.7322C56.2173 14.7322 56.4304 14.813 56.5929 14.9754C56.9168 15.3002 56.9168 15.829 56.5929 16.153L54.2368 18.509C53.9229 18.8239 53.3749 18.8247 53.0593 18.5082C52.9019 18.3509 52.8153 18.1426 52.8153 17.9194C52.8152 17.6979 52.9018 17.4889 53.0592 17.3307ZM29.7062 11.4418C29.3805 11.7666 28.8517 11.7666 28.5277 11.4418L26.1725 9.08658C25.8477 8.76183 25.8477 8.23377 26.1725 7.90901C26.334 7.74659 26.5481 7.66582 26.7613 7.66582C26.9745 7.66582 27.1876 7.74659 27.3501 7.90901L29.7053 10.2643C29.8627 10.4216 29.9493 10.6316 29.9493 10.853C29.9494 11.0762 29.8636 11.2852 29.7062 11.4418ZM36.7718 18.5091C36.4579 18.824 35.909 18.824 35.595 18.5091L33.239 16.1531C32.915 15.8291 32.915 15.3003 33.239 14.9755C33.4014 14.8131 33.6146 14.7323 33.8278 14.7323C34.041 14.7323 34.255 14.8131 34.4175 14.9755L36.7727 17.3308C36.9301 17.489 37.0167 17.698 37.0167 17.9195C37.0166 18.1426 36.93 18.3509 36.7718 18.5091ZM48.348 22.0427C48.6736 21.7171 49.2016 21.7171 49.5256 22.0427C49.8503 22.3667 49.8503 22.8955 49.5263 23.2203L48.8176 23.9282C48.756 23.9149 48.6935 23.9056 48.6311 23.8923C48.5928 23.884 48.5528 23.8774 48.5145 23.8698C47.9456 23.7524 47.3727 23.6566 46.7948 23.5959L48.348 22.0427ZM40.3054 22.0427C40.4678 21.8795 40.6819 21.7995 40.8942 21.7995C41.1082 21.7995 41.3215 21.8795 41.4839 22.0427L43.8391 24.398C43.914 24.4729 43.9707 24.5612 44.0115 24.6554C44.024 24.6845 44.0265 24.7145 44.0356 24.7445C44.0547 24.8094 44.0714 24.8752 44.0748 24.9443C44.0765 24.9792 44.0731 25.0134 44.0706 25.0484C44.0656 25.1166 44.0531 25.1824 44.0315 25.2457C44.0224 25.2749 44.0148 25.3049 44.0016 25.3331C43.9608 25.4206 43.91 25.5047 43.8391 25.5754C43.6818 25.7328 43.466 25.812 43.2503 25.812C43.1429 25.812 43.0346 25.792 42.9338 25.7529C42.8339 25.7137 42.7406 25.6546 42.6615 25.5754L41.3431 24.2571C41.3431 24.2563 41.3423 24.2563 41.3423 24.2563L40.3054 23.2203C40.1481 23.062 40.0614 22.8531 40.0614 22.6315C40.0614 22.4084 40.1481 22.2001 40.3054 22.0427ZM49.0799 48.473H40.7518C40.2921 48.473 39.919 48.1007 39.919 47.6402C39.919 47.1796 40.2921 46.8074 40.7518 46.8074H49.0799C49.5396 46.8074 49.9127 47.1797 49.9127 47.6402C49.9128 48.1007 49.5397 48.473 49.0799 48.473ZM49.0799 43.4761H40.7518C40.2921 43.4761 39.919 43.1039 39.919 42.6434C39.919 42.1828 40.2921 41.8106 40.7518 41.8106H49.0799C49.5396 41.8106 49.9127 42.1829 49.9127 42.6434C49.9128 43.1039 49.5397 43.4761 49.0799 43.4761ZM49.0799 38.4792H40.7518C40.2921 38.4792 39.919 38.1069 39.919 37.6464C39.919 37.1858 40.2921 36.8137 40.7518 36.8137H49.0799C49.5396 36.8137 49.9127 37.1859 49.9127 37.6464C49.9128 38.1069 49.5397 38.4792 49.0799 38.4792ZM49.0799 33.4823H40.7518C40.2921 33.4823 39.919 33.11 39.919 32.6495C39.919 32.1889 40.2921 31.8167 40.7518 31.8167H49.0799C49.5396 31.8167 49.9127 32.189 49.9127 32.6495C49.9128 33.11 49.5397 33.4823 49.0799 33.4823Z" fill="white"/>
<path d="M65.5362 46.7781L57.2614 25.2798C56.7625 23.9823 54.9928 23.5418 54.0768 23.4885L52.7667 23.4851C52.8292 23.5118 52.8933 23.5359 52.9557 23.5642L53.8435 23.9681C55.5033 24.7226 56.5752 26.3875 56.5752 28.2105V40.1165L56.7067 40.0656C57.1348 39.9024 57.6178 40.114 57.7827 40.5445C57.9484 40.9734 57.7336 41.4556 57.3047 41.6214L56.5751 41.9012V45.4698L58.5014 44.7286C58.9303 44.5654 59.4116 44.7777 59.5773 45.2067C59.743 45.6364 59.529 46.1177 59.0993 46.2835L56.5751 47.2554V51.2462C56.5751 53.0701 55.5033 54.7349 53.8434 55.4886L52.929 55.905C57.1271 55.5968 61.1031 53.793 64.0912 50.7532L64.8773 49.9529C65.6987 49.1167 65.9568 47.8708 65.5362 46.7781Z" fill="white"/>
</svg>
