<svg width="90" height="90" viewBox="0 0 90 90" fill="none" xmlns="http://www.w3.org/2000/svg">
<path d="M2.52663 77V67.2H11.1926V77H9.40063V68.292L9.82063 68.74H3.89863L4.31863 68.292V77H2.52663ZM17.246 77.098C16.4153 77.098 15.6873 76.9347 15.062 76.608C14.446 76.272 13.9653 75.8147 13.62 75.236C13.284 74.6573 13.116 73.9993 13.116 73.262C13.116 72.5153 13.2793 71.8573 13.606 71.288C13.942 70.7093 14.3993 70.2567 14.978 69.93C15.566 69.6033 16.2333 69.44 16.98 69.44C17.708 69.44 18.3567 69.5987 18.926 69.916C19.4953 70.2333 19.9433 70.6813 20.27 71.26C20.5967 71.8387 20.76 72.52 20.76 73.304C20.76 73.3787 20.7553 73.4627 20.746 73.556C20.746 73.6493 20.7413 73.738 20.732 73.822H14.502V72.66H19.808L19.122 73.024C19.1313 72.5947 19.0427 72.2167 18.856 71.89C18.6693 71.5633 18.4127 71.3067 18.086 71.12C17.7687 70.9333 17.4 70.84 16.98 70.84C16.5507 70.84 16.1727 70.9333 15.846 71.12C15.5287 71.3067 15.2767 71.568 15.09 71.904C14.9127 72.2307 14.824 72.618 14.824 73.066V73.346C14.824 73.794 14.9267 74.1907 15.132 74.536C15.3373 74.8813 15.6267 75.1473 16 75.334C16.3733 75.5207 16.8027 75.614 17.288 75.614C17.708 75.614 18.086 75.5487 18.422 75.418C18.758 75.2873 19.0567 75.082 19.318 74.802L20.256 75.88C19.92 76.272 19.4953 76.5753 18.982 76.79C18.478 76.9953 17.8993 77.098 17.246 77.098ZM26.818 77.098C26.2114 77.098 25.656 76.958 25.152 76.678C24.6574 76.398 24.2607 75.978 23.962 75.418C23.6727 74.8487 23.528 74.13 23.528 73.262C23.528 72.3847 23.668 71.666 23.948 71.106C24.2374 70.546 24.6294 70.1307 25.124 69.86C25.6187 69.58 26.1834 69.44 26.818 69.44C27.5554 69.44 28.204 69.5987 28.764 69.916C29.3334 70.2333 29.7814 70.6767 30.108 71.246C30.444 71.8153 30.612 72.4873 30.612 73.262C30.612 74.0367 30.444 74.7133 30.108 75.292C29.7814 75.8613 29.3334 76.3047 28.764 76.622C28.204 76.9393 27.5554 77.098 26.818 77.098ZM22.674 79.716V69.524H24.34V71.288L24.284 73.276L24.424 75.264V79.716H22.674ZM26.622 75.6C27.042 75.6 27.4154 75.5067 27.742 75.32C28.078 75.1333 28.344 74.8627 28.54 74.508C28.736 74.1533 28.834 73.738 28.834 73.262C28.834 72.7767 28.736 72.3613 28.54 72.016C28.344 71.6613 28.078 71.3907 27.742 71.204C27.4154 71.0173 27.042 70.924 26.622 70.924C26.202 70.924 25.824 71.0173 25.488 71.204C25.152 71.3907 24.886 71.6613 24.69 72.016C24.494 72.3613 24.396 72.7767 24.396 73.262C24.396 73.738 24.494 74.1533 24.69 74.508C24.886 74.8627 25.152 75.1333 25.488 75.32C25.824 75.5067 26.202 75.6 26.622 75.6ZM35.8397 77.098C35.0091 77.098 34.2811 76.9347 33.6557 76.608C33.0397 76.272 32.5591 75.8147 32.2137 75.236C31.8777 74.6573 31.7097 73.9993 31.7097 73.262C31.7097 72.5153 31.8731 71.8573 32.1997 71.288C32.5357 70.7093 32.9931 70.2567 33.5717 69.93C34.1597 69.6033 34.8271 69.44 35.5737 69.44C36.3017 69.44 36.9504 69.5987 37.5197 69.916C38.0891 70.2333 38.5371 70.6813 38.8637 71.26C39.1904 71.8387 39.3537 72.52 39.3537 73.304C39.3537 73.3787 39.3491 73.4627 39.3397 73.556C39.3397 73.6493 39.3351 73.738 39.3257 73.822H33.0957V72.66H38.4017L37.7157 73.024C37.7251 72.5947 37.6364 72.2167 37.4497 71.89C37.2631 71.5633 37.0064 71.3067 36.6797 71.12C36.3624 70.9333 35.9937 70.84 35.5737 70.84C35.1444 70.84 34.7664 70.9333 34.4397 71.12C34.1224 71.3067 33.8704 71.568 33.6837 71.904C33.5064 72.2307 33.4177 72.618 33.4177 73.066V73.346C33.4177 73.794 33.5204 74.1907 33.7257 74.536C33.9311 74.8813 34.2204 75.1473 34.5937 75.334C34.9671 75.5207 35.3964 75.614 35.8817 75.614C36.3017 75.614 36.6797 75.5487 37.0157 75.418C37.3517 75.2873 37.6504 75.082 37.9117 74.802L38.8497 75.88C38.5137 76.272 38.0891 76.5753 37.5757 76.79C37.0717 76.9953 36.4931 77.098 35.8397 77.098ZM41.2678 77V69.524H44.9218C45.8271 69.524 46.5365 69.692 47.0498 70.028C47.5725 70.364 47.8338 70.84 47.8338 71.456C47.8338 72.0627 47.5911 72.5387 47.1058 72.884C46.6205 73.22 45.9765 73.388 45.1738 73.388L45.3838 72.954C46.2891 72.954 46.9611 73.122 47.3998 73.458C47.8478 73.7847 48.0718 74.2653 48.0718 74.9C48.0718 75.5627 47.8245 76.0807 47.3298 76.454C46.8351 76.818 46.0838 77 45.0758 77H41.2678ZM42.9338 75.726H44.9358C45.4118 75.726 45.7711 75.6513 46.0138 75.502C46.2565 75.3433 46.3778 75.1053 46.3778 74.788C46.3778 74.452 46.2658 74.2047 46.0418 74.046C45.8178 73.8873 45.4678 73.808 44.9918 73.808H42.9338V75.726ZM42.9338 72.646H44.7678C45.2158 72.646 45.5518 72.5667 45.7758 72.408C46.0091 72.24 46.1258 72.0067 46.1258 71.708C46.1258 71.4 46.0091 71.1713 45.7758 71.022C45.5518 70.8727 45.2158 70.798 44.7678 70.798H42.9338V72.646ZM54.6818 77V74.452L54.9338 74.746H52.6938C51.6671 74.746 50.8598 74.5313 50.2718 74.102C49.6931 73.6633 49.4038 73.0333 49.4038 72.212C49.4038 71.3347 49.7118 70.6673 50.3278 70.21C50.9531 69.7527 51.7838 69.524 52.8198 69.524H56.2498V77H54.6818ZM49.3058 77L51.3218 74.144H53.1138L51.1818 77H49.3058ZM54.6818 73.892V70.532L54.9338 70.994H52.8758C52.3344 70.994 51.9144 71.0967 51.6158 71.302C51.3264 71.498 51.1818 71.82 51.1818 72.268C51.1818 73.108 51.7278 73.528 52.8198 73.528H54.9338L54.6818 73.892ZM60.874 77.126C61.5647 77.126 62.176 77.028 62.708 76.832C63.2494 76.636 63.674 76.3653 63.982 76.02C64.29 75.6653 64.444 75.2593 64.444 74.802C64.444 74.2327 64.206 73.7847 63.73 73.458C63.254 73.122 62.6007 72.954 61.77 72.954L61.714 73.332C62.1994 73.332 62.6287 73.2527 63.002 73.094C63.3847 72.9353 63.6834 72.716 63.898 72.436C64.122 72.1467 64.234 71.8247 64.234 71.47C64.234 71.0407 64.08 70.6673 63.772 70.35C63.464 70.0327 63.044 69.79 62.512 69.622C61.98 69.454 61.3734 69.384 60.692 69.412C60.244 69.4213 59.7914 69.4867 59.334 69.608C58.886 69.72 58.424 69.8833 57.948 70.098L58.396 71.386C58.8067 71.2087 59.208 71.0733 59.6 70.98C60.0014 70.8867 60.3887 70.84 60.762 70.84C61.1167 70.84 61.42 70.8773 61.672 70.952C61.924 71.0173 62.1154 71.12 62.246 71.26C62.386 71.3907 62.456 71.5447 62.456 71.722C62.456 71.8993 62.4 72.0533 62.288 72.184C62.176 72.3147 62.0127 72.4127 61.798 72.478C61.5927 72.5433 61.3407 72.576 61.042 72.576H59.74V73.752H61.182C61.658 73.752 62.022 73.8313 62.274 73.99C62.5354 74.1393 62.666 74.3633 62.666 74.662C62.666 74.8673 62.5867 75.0493 62.428 75.208C62.2787 75.3667 62.064 75.488 61.784 75.572C61.504 75.6467 61.168 75.684 60.776 75.684C60.3187 75.684 59.8614 75.628 59.404 75.516C58.9467 75.404 58.536 75.2453 58.172 75.04L57.682 76.342C58.13 76.594 58.6294 76.79 59.18 76.93C59.74 77.0607 60.3047 77.126 60.874 77.126ZM70.7823 77V75.488L70.6843 75.166V72.52C70.6843 72.0067 70.5303 71.61 70.2223 71.33C69.9143 71.0407 69.4476 70.896 68.8223 70.896C68.4023 70.896 67.987 70.9613 67.5763 71.092C67.175 71.2227 66.8343 71.4047 66.5543 71.638L65.8683 70.364C66.2696 70.056 66.7456 69.8273 67.2963 69.678C67.8563 69.5193 68.435 69.44 69.0323 69.44C70.115 69.44 70.9503 69.7013 71.5383 70.224C72.1356 70.7373 72.4343 71.5353 72.4343 72.618V77H70.7823ZM68.4303 77.098C67.8703 77.098 67.3803 77.0047 66.9603 76.818C66.5403 76.622 66.2136 76.356 65.9803 76.02C65.7563 75.6747 65.6443 75.2873 65.6443 74.858C65.6443 74.438 65.7423 74.06 65.9383 73.724C66.1436 73.388 66.475 73.122 66.9323 72.926C67.3896 72.73 67.9963 72.632 68.7523 72.632H70.9223V73.794H68.8783C68.281 73.794 67.8796 73.892 67.6743 74.088C67.469 74.2747 67.3663 74.508 67.3663 74.788C67.3663 75.1053 67.4923 75.3573 67.7443 75.544C67.9963 75.7307 68.3463 75.824 68.7943 75.824C69.2236 75.824 69.6063 75.726 69.9423 75.53C70.2876 75.334 70.535 75.0447 70.6843 74.662L70.9783 75.712C70.8103 76.1507 70.507 76.4913 70.0683 76.734C69.639 76.9767 69.093 77.098 68.4303 77.098ZM76.1538 77V70.588L76.5598 71.008H73.5218V69.524H80.5218V71.008H77.4978L77.9038 70.588V77H76.1538ZM85.5432 71.988C86.5046 71.988 87.2372 72.2027 87.7412 72.632C88.2452 73.0613 88.4972 73.668 88.4972 74.452C88.4972 75.264 88.2172 75.8987 87.6572 76.356C87.0972 76.804 86.3086 77.0233 85.2912 77.014L81.7912 77V69.524H83.5412V71.974L85.5432 71.988ZM85.1372 75.726C85.6506 75.7353 86.0426 75.628 86.3132 75.404C86.5839 75.18 86.7192 74.8533 86.7192 74.424C86.7192 73.9947 86.5839 73.6867 86.3132 73.5C86.0519 73.304 85.6599 73.2013 85.1372 73.192L83.5412 73.178V75.712L85.1372 75.726Z" fill="white"/>
<path d="M46.9336 25.332C46.7885 25.1869 46.6162 25.0718 46.4266 24.9932C46.2371 24.9147 46.0338 24.8743 45.8286 24.8743C45.6234 24.8743 45.4202 24.9147 45.2306 24.9932C45.041 25.0718 44.8687 25.1869 44.7236 25.332L35.6084 34.4473C35.4633 34.5924 35.3482 34.7646 35.2696 34.9542C35.1911 35.1438 35.1506 35.347 35.1506 35.5523C35.1506 35.7575 35.1911 35.9607 35.2696 36.1503C35.3482 36.3399 35.4633 36.5121 35.6084 36.6572L43.3428 44.3916C43.4879 44.5367 43.6601 44.6519 43.8497 44.7304C44.0393 44.809 44.2425 44.8494 44.4478 44.8494C44.653 44.8494 44.8562 44.809 45.0458 44.7304C45.2354 44.6519 45.4076 44.5367 45.5527 44.3916L54.668 35.2764C54.8131 35.1313 54.9282 34.959 55.0068 34.7694C55.0853 34.5798 55.1258 34.3766 55.1258 34.1714C55.1258 33.9662 55.0853 33.763 55.0068 33.5734C54.9282 33.3838 54.8131 33.2115 54.668 33.0664L46.9336 25.332ZM41.417 36.1045C41.1985 36.3231 40.9201 36.472 40.617 36.5324C40.3139 36.5928 39.9996 36.5619 39.7141 36.4437C39.4285 36.3254 39.1844 36.1252 39.0127 35.8682C38.8409 35.6112 38.7493 35.3091 38.7493 35C38.7493 34.6909 38.8409 34.3888 39.0127 34.1318C39.1844 33.8748 39.4285 33.6746 39.7141 33.5563C39.9996 33.4381 40.3139 33.4072 40.617 33.4676C40.9201 33.528 41.1985 33.6769 41.417 33.8955C41.7098 34.1885 41.8743 34.5858 41.8743 35C41.8743 35.4142 41.7098 35.8115 41.417 36.1045V36.1045ZM46.1045 40.792C45.886 41.0106 45.6076 41.1595 45.3045 41.2199C45.0014 41.2803 44.6871 41.2494 44.4016 41.1312C44.116 41.0129 43.8719 40.8127 43.7002 40.5557C43.5284 40.2987 43.4368 39.9966 43.4368 39.6875C43.4368 39.3784 43.5284 39.0763 43.7002 38.8193C43.8719 38.5623 44.116 38.3621 44.4016 38.2438C44.6871 38.1256 45.0014 38.0947 45.3045 38.1551C45.6076 38.2155 45.886 38.3644 46.1045 38.583C46.3973 38.876 46.5618 39.2733 46.5618 39.6875C46.5618 40.1017 46.3973 40.499 46.1045 40.792V40.792ZM46.1045 31.417C45.886 31.6356 45.6076 31.7845 45.3045 31.8449C45.0014 31.9053 44.6871 31.8744 44.4016 31.7562C44.116 31.6379 43.8719 31.4377 43.7002 31.1807C43.5284 30.9237 43.4368 30.6216 43.4368 30.3125C43.4368 30.0034 43.5284 29.7013 43.7002 29.4443C43.8719 29.1873 44.116 28.9871 44.4016 28.8688C44.6871 28.7506 45.0014 28.7197 45.3045 28.7801C45.6076 28.8405 45.886 28.9894 46.1045 29.208C46.3973 29.501 46.5618 29.8983 46.5618 30.3125C46.5618 30.7267 46.3973 31.124 46.1045 31.417ZM50.792 36.1045C50.5735 36.3231 50.2951 36.472 49.992 36.5324C49.6889 36.5928 49.3746 36.5619 49.0891 36.4437C48.8035 36.3254 48.5594 36.1252 48.3877 35.8682C48.2159 35.6112 48.1243 35.3091 48.1243 35C48.1243 34.6909 48.2159 34.3888 48.3877 34.1318C48.5594 33.8748 48.8035 33.6746 49.0891 33.5563C49.3746 33.4381 49.6889 33.4072 49.992 33.4676C50.2951 33.528 50.5735 33.6769 50.792 33.8955C51.0848 34.1885 51.2493 34.5858 51.2493 35C51.2493 35.4142 51.0848 35.8115 50.792 36.1045V36.1045Z" fill="white"/>
<path d="M65.4697 14.5303C63.5596 12.6295 60.9745 11.5625 58.2798 11.5625C55.5851 11.5625 53 12.6295 51.0898 14.5303L44.2773 21.3555C44.2148 21.4184 44.1755 21.5008 44.1661 21.589C44.1566 21.6773 44.1774 21.7661 44.2252 21.8409C44.2729 21.9157 44.3447 21.9721 44.4288 22.0006C44.5128 22.0292 44.604 22.0283 44.6875 21.998C45.0514 21.8518 45.4373 21.7679 45.8291 21.75C46.4449 21.7484 47.0549 21.8689 47.6238 22.1046C48.1927 22.3403 48.7093 22.6865 49.1435 23.123L56.8769 30.8564C57.3135 31.2907 57.6597 31.8073 57.8953 32.3762C58.131 32.9451 58.2516 33.5551 58.25 34.1709C58.2321 34.5627 58.1483 34.9486 58.0019 35.3125C57.9717 35.3959 57.9708 35.4872 57.9994 35.5712C58.0279 35.6552 58.0842 35.727 58.159 35.7748C58.2338 35.8225 58.3227 35.8434 58.4109 35.8339C58.4992 35.8244 58.5816 35.7852 58.6445 35.7226L65.4697 28.9101C67.3704 27 68.4375 24.4149 68.4375 21.7202C68.4375 19.0255 67.3704 16.4404 65.4697 14.5303V14.5303Z" fill="white"/>
<path d="M44.8379 47.7764C44.2227 47.7776 43.6133 47.6575 43.0445 47.4229C42.4758 47.1882 41.9589 46.8438 41.5234 46.4092L33.7901 38.6719C33.4103 38.2925 33.0987 37.8505 32.8692 37.3652C32.4209 36.418 32.7334 34.9238 33.1113 33.7617C33.1364 33.6786 33.133 33.5895 33.1018 33.5085C33.0705 33.4276 33.0132 33.3593 32.9389 33.3145C32.8645 33.2697 32.7774 33.251 32.6912 33.2612C32.605 33.2715 32.5247 33.3101 32.4629 33.3711L24.9209 40.8945C23.014 42.8014 21.9427 45.3877 21.9427 48.0845C21.9427 50.7812 23.014 53.3675 24.9209 55.2744C26.8278 57.1813 29.4141 58.2526 32.1109 58.2526C34.8076 58.2526 37.3939 57.1813 39.3008 55.2744L46.4053 48.1572C46.4681 48.0942 46.5076 48.0117 46.5171 47.9233C46.5266 47.8348 46.5057 47.7458 46.4578 47.6708C46.4098 47.5959 46.3377 47.5396 46.2534 47.5112C46.1691 47.4828 46.0777 47.484 45.9942 47.5146C45.5859 47.6689 45.1738 47.7764 44.8379 47.7764Z" fill="white"/>
</svg>
