<svg width="90" height="90" viewBox="0 0 90 90" fill="none" xmlns="http://www.w3.org/2000/svg">
<path d="M42.3461 31.4014L39.3293 29.6587C38.951 29.4398 38.6394 29.1538 38.3962 28.8268C38.3598 29.3453 38.4054 29.8708 38.586 30.3749L39.9211 34.1106L42.3461 31.4014Z" fill="white"/>
<path d="M46.2729 37.4794L46.2373 37.3062L43.2841 40.6067C42.6496 41.3161 41.7747 41.6884 40.8815 41.7389L40.8843 54.9755C40.8843 56.0941 41.8117 57 42.957 57C43.4298 57 43.8606 56.8393 44.2095 56.5792C43.9425 56.0996 43.7772 55.5599 43.7772 54.9755V42.9123H45.1585V54.9755C45.1585 56.0941 46.0866 57 47.2311 57C48.3765 57 49.3038 56.0942 49.3038 54.9755L49.32 39.9156C49.3186 39.9156 49.3179 39.9156 49.3165 39.9156C47.8672 39.9156 46.57 38.9202 46.2729 37.4794Z" fill="white"/>
<path d="M47.8911 21.5541C49.7031 21.0102 50.7189 19.1356 50.1612 17.3664C49.6035 15.5964 47.6843 14.6045 45.8722 15.1496C44.0615 15.6935 43.0446 17.5689 43.6027 19.3381C44.1604 21.1074 46.0811 22.0994 47.8911 21.5541Z" fill="white"/>
<path d="M45.8926 35.641L45.3791 33.152L43.5566 32.0998L39.1226 37.0538C38.3689 37.8954 38.4579 39.1741 39.3194 39.9102C39.7124 40.2455 40.1978 40.4104 40.6826 40.4104C41.2596 40.4104 41.8341 40.1764 42.2439 39.718L45.8926 35.641Z" fill="white"/>
<path d="M55.3318 33.2629C54.4863 30.5816 55.0796 32.4638 52.3802 23.8981C51.8996 22.375 50.2473 21.5205 48.6867 21.99L47.4825 22.3526C46.5971 22.6187 45.9457 23.2583 45.6236 24.0363L47.2233 23.6545L44.0076 25.4847L40.6853 24.4365C39.9141 24.1902 39.0862 24.6082 38.8382 25.3601C38.5889 26.1134 39.0127 26.9214 39.7838 27.1649L43.7303 28.4087C43.8773 28.4546 44.0286 28.4778 44.1806 28.4778C44.4377 28.4778 44.6927 28.4123 44.9197 28.2829L48.7007 26.1306L47.5344 27.3414L49.7353 28.6119C50.4932 29.0498 51.0262 29.7819 51.2007 30.6255L52.2765 35.8374L52.3458 36.1732L52.9777 36.2684C54.7295 36.5413 55.7892 34.7099 55.3318 33.2629Z" fill="white"/>
<path d="M49.8461 30.8923C49.7493 30.4235 49.453 30.0172 49.0321 29.7736L46.5637 28.3479L45.5719 29.3768C45.1326 29.8319 44.4812 29.9748 43.909 29.7956L43.3319 29.6136L40.322 28.6645L46.612 32.2961L47.6276 37.2125C47.7929 38.013 48.513 38.5665 49.3178 38.5665C49.4313 38.5659 49.5462 38.5555 49.6617 38.5322C50.5962 38.3482 51.2014 37.4587 51.0129 36.5455L49.8461 30.8923Z" fill="white"/>
<path d="M41.0776 23.2309C41.4252 22.6487 41.6387 21.9802 41.6387 21.2578C41.6387 19.0786 39.8323 17.3129 37.5998 17.3129C35.3697 17.3129 33.5618 19.0786 33.5618 21.2578C33.5618 23.4212 35.3464 25.1733 37.555 25.1971C37.5733 25.1219 37.5796 25.0466 37.6048 24.9714C38.0733 23.5539 39.6269 22.7766 41.0776 23.2309Z" fill="white"/>
<path d="M30.5237 67.2H32.3437V77H30.5237V67.2ZM25.4557 77H23.6357V67.2H25.4557V77ZM30.6637 72.8H25.3017V71.246H30.6637V72.8ZM38.3827 77.098C37.552 77.098 36.824 76.9347 36.1987 76.608C35.5827 76.272 35.102 75.8147 34.7567 75.236C34.4207 74.6573 34.2527 73.9993 34.2527 73.262C34.2527 72.5153 34.416 71.8573 34.7427 71.288C35.0787 70.7093 35.536 70.2567 36.1147 69.93C36.7027 69.6033 37.37 69.44 38.1167 69.44C38.8447 69.44 39.4934 69.5987 40.0627 69.916C40.632 70.2333 41.08 70.6813 41.4067 71.26C41.7334 71.8387 41.8967 72.52 41.8967 73.304C41.8967 73.3787 41.892 73.4627 41.8827 73.556C41.8827 73.6493 41.878 73.738 41.8687 73.822H35.6387V72.66H40.9447L40.2587 73.024C40.268 72.5947 40.1794 72.2167 39.9927 71.89C39.806 71.5633 39.5494 71.3067 39.2227 71.12C38.9054 70.9333 38.5367 70.84 38.1167 70.84C37.6874 70.84 37.3094 70.9333 36.9827 71.12C36.6654 71.3067 36.4134 71.568 36.2267 71.904C36.0494 72.2307 35.9607 72.618 35.9607 73.066V73.346C35.9607 73.794 36.0634 74.1907 36.2687 74.536C36.474 74.8813 36.7634 75.1473 37.1367 75.334C37.51 75.5207 37.9394 75.614 38.4247 75.614C38.8447 75.614 39.2227 75.5487 39.5587 75.418C39.8947 75.2873 40.1934 75.082 40.4547 74.802L41.3927 75.88C41.0567 76.272 40.632 76.5753 40.1187 76.79C39.6147 76.9953 39.036 77.098 38.3827 77.098ZM47.2128 77.098C46.4288 77.098 45.7288 76.9347 45.1128 76.608C44.5061 76.272 44.0301 75.8147 43.6848 75.236C43.3394 74.6573 43.1668 73.9993 43.1668 73.262C43.1668 72.5153 43.3394 71.8573 43.6848 71.288C44.0301 70.7093 44.5061 70.2567 45.1128 69.93C45.7288 69.6033 46.4288 69.44 47.2128 69.44C47.9408 69.44 48.5801 69.5893 49.1308 69.888C49.6908 70.1773 50.1154 70.6067 50.4048 71.176L49.0608 71.96C48.8368 71.6053 48.5614 71.344 48.2348 71.176C47.9174 71.008 47.5721 70.924 47.1988 70.924C46.7694 70.924 46.3821 71.0173 46.0368 71.204C45.6914 71.3907 45.4208 71.6613 45.2248 72.016C45.0288 72.3613 44.9308 72.7767 44.9308 73.262C44.9308 73.7473 45.0288 74.1673 45.2248 74.522C45.4208 74.8673 45.6914 75.1333 46.0368 75.32C46.3821 75.5067 46.7694 75.6 47.1988 75.6C47.5721 75.6 47.9174 75.516 48.2348 75.348C48.5614 75.18 48.8368 74.9187 49.0608 74.564L50.4048 75.348C50.1154 75.908 49.6908 76.342 49.1308 76.65C48.5801 76.9487 47.9408 77.098 47.2128 77.098ZM53.4448 77V70.588L53.8508 71.008H50.8128V69.524H57.8128V71.008H54.7888L55.1948 70.588V77H53.4448ZM59.0823 77V69.524H60.8323V74.452L64.9623 69.524H66.5583V77H64.8083V72.072L60.6923 77H59.0823Z" fill="white"/>
</svg>
