<svg width="90" height="90" viewBox="0 0 90 90" fill="none" xmlns="http://www.w3.org/2000/svg">
<path d="M5.56867 77V68.292L6.00267 68.74H2.33467V67.2H10.6227V68.74H6.95467L7.37467 68.292V77H5.56867ZM14.7167 77.098C13.886 77.098 13.158 76.9347 12.5327 76.608C11.9167 76.272 11.436 75.8147 11.0907 75.236C10.7547 74.6573 10.5867 73.9993 10.5867 73.262C10.5867 72.5153 10.75 71.8573 11.0767 71.288C11.4127 70.7093 11.87 70.2567 12.4487 69.93C13.0367 69.6033 13.704 69.44 14.4507 69.44C15.1787 69.44 15.8274 69.5987 16.3967 69.916C16.966 70.2333 17.414 70.6813 17.7407 71.26C18.0674 71.8387 18.2307 72.52 18.2307 73.304C18.2307 73.3787 18.226 73.4627 18.2167 73.556C18.2167 73.6493 18.212 73.738 18.2027 73.822H11.9727V72.66H17.2787L16.5927 73.024C16.602 72.5947 16.5134 72.2167 16.3267 71.89C16.14 71.5633 15.8834 71.3067 15.5567 71.12C15.2394 70.9333 14.8707 70.84 14.4507 70.84C14.0214 70.84 13.6434 70.9333 13.3167 71.12C12.9994 71.3067 12.7474 71.568 12.5607 71.904C12.3834 72.2307 12.2947 72.618 12.2947 73.066V73.346C12.2947 73.794 12.3974 74.1907 12.6027 74.536C12.808 74.8813 13.0974 75.1473 13.4707 75.334C13.844 75.5207 14.2734 75.614 14.7587 75.614C15.1787 75.614 15.5567 75.5487 15.8927 75.418C16.2287 75.2873 16.5274 75.082 16.7887 74.802L17.7267 75.88C17.3907 76.272 16.966 76.5753 16.4527 76.79C15.9487 76.9953 15.37 77.098 14.7167 77.098ZM18.8337 77L22.1237 72.716L22.0957 73.654L18.9597 69.524H20.9057L23.1037 72.464H22.3617L24.5737 69.524H26.4637L23.2997 73.654L23.3137 72.716L26.5897 77H24.6157L22.3057 73.878L23.0337 73.976L20.7657 77H18.8337ZM27.842 77V69.524H35.01V77H33.274V70.602L33.68 71.008H29.186L29.592 70.602V77H27.842ZM41.9073 77V75.488L41.8093 75.166V72.52C41.8093 72.0067 41.6553 71.61 41.3473 71.33C41.0393 71.0407 40.5726 70.896 39.9473 70.896C39.5273 70.896 39.112 70.9613 38.7013 71.092C38.3 71.2227 37.9593 71.4047 37.6793 71.638L36.9933 70.364C37.3946 70.056 37.8706 69.8273 38.4213 69.678C38.9813 69.5193 39.56 69.44 40.1573 69.44C41.24 69.44 42.0753 69.7013 42.6633 70.224C43.2606 70.7373 43.5593 71.5353 43.5593 72.618V77H41.9073ZM39.5553 77.098C38.9953 77.098 38.5053 77.0047 38.0853 76.818C37.6653 76.622 37.3386 76.356 37.1053 76.02C36.8813 75.6747 36.7693 75.2873 36.7693 74.858C36.7693 74.438 36.8673 74.06 37.0633 73.724C37.2686 73.388 37.6 73.122 38.0573 72.926C38.5146 72.73 39.1213 72.632 39.8773 72.632H42.0473V73.794H40.0033C39.406 73.794 39.0046 73.892 38.7993 74.088C38.594 74.2747 38.4913 74.508 38.4913 74.788C38.4913 75.1053 38.6173 75.3573 38.8693 75.544C39.1213 75.7307 39.4713 75.824 39.9193 75.824C40.3486 75.824 40.7313 75.726 41.0673 75.53C41.4126 75.334 41.66 75.0447 41.8093 74.662L42.1033 75.712C41.9353 76.1507 41.632 76.4913 41.1933 76.734C40.764 76.9767 40.218 77.098 39.5553 77.098ZM49.1268 77.098C48.3428 77.098 47.6428 76.9347 47.0268 76.608C46.4202 76.272 45.9442 75.8147 45.5988 75.236C45.2535 74.6573 45.0808 73.9993 45.0808 73.262C45.0808 72.5153 45.2535 71.8573 45.5988 71.288C45.9442 70.7093 46.4202 70.2567 47.0268 69.93C47.6428 69.6033 48.3428 69.44 49.1268 69.44C49.8548 69.44 50.4942 69.5893 51.0448 69.888C51.6048 70.1773 52.0295 70.6067 52.3188 71.176L50.9748 71.96C50.7508 71.6053 50.4755 71.344 50.1488 71.176C49.8315 71.008 49.4862 70.924 49.1128 70.924C48.6835 70.924 48.2962 71.0173 47.9508 71.204C47.6055 71.3907 47.3348 71.6613 47.1388 72.016C46.9428 72.3613 46.8448 72.7767 46.8448 73.262C46.8448 73.7473 46.9428 74.1673 47.1388 74.522C47.3348 74.8673 47.6055 75.1333 47.9508 75.32C48.2962 75.5067 48.6835 75.6 49.1128 75.6C49.4862 75.6 49.8315 75.516 50.1488 75.348C50.4755 75.18 50.7508 74.9187 50.9748 74.564L52.3188 75.348C52.0295 75.908 51.6048 76.342 51.0448 76.65C50.4942 76.9487 49.8548 77.098 49.1268 77.098ZM53.8596 77V69.524H61.0276V77H59.2916V70.602L59.6976 71.008H55.2036L55.6096 70.602V77H53.8596ZM66.7209 77.098C65.9556 77.098 65.2742 76.9347 64.6769 76.608C64.0796 76.272 63.6082 75.8147 63.2629 75.236C62.9176 74.6573 62.7449 73.9993 62.7449 73.262C62.7449 72.5153 62.9176 71.8573 63.2629 71.288C63.6082 70.7093 64.0796 70.2567 64.6769 69.93C65.2742 69.6033 65.9556 69.44 66.7209 69.44C67.4956 69.44 68.1816 69.6033 68.7789 69.93C69.3856 70.2567 69.8569 70.7047 70.1929 71.274C70.5382 71.8433 70.7109 72.506 70.7109 73.262C70.7109 73.9993 70.5382 74.6573 70.1929 75.236C69.8569 75.8147 69.3856 76.272 68.7789 76.608C68.1816 76.9347 67.4956 77.098 66.7209 77.098ZM66.7209 75.6C67.1502 75.6 67.5329 75.5067 67.8689 75.32C68.2049 75.1333 68.4662 74.8627 68.6529 74.508C68.8489 74.1533 68.9469 73.738 68.9469 73.262C68.9469 72.7767 68.8489 72.3613 68.6529 72.016C68.4662 71.6613 68.2049 71.3907 67.8689 71.204C67.5329 71.0173 67.1549 70.924 66.7349 70.924C66.3056 70.924 65.9229 71.0173 65.5869 71.204C65.2602 71.3907 64.9989 71.6613 64.8029 72.016C64.6069 72.3613 64.5089 72.7767 64.5089 73.262C64.5089 73.738 64.6069 74.1533 64.8029 74.508C64.9989 74.8627 65.2602 75.1333 65.5869 75.32C65.9229 75.5067 66.3009 75.6 66.7209 75.6ZM76.5837 77.098C75.977 77.098 75.4217 76.958 74.9177 76.678C74.423 76.398 74.0263 75.978 73.7277 75.418C73.4383 74.8487 73.2937 74.13 73.2937 73.262C73.2937 72.3847 73.4337 71.666 73.7137 71.106C74.003 70.546 74.395 70.1307 74.8897 69.86C75.3843 69.58 75.949 69.44 76.5837 69.44C77.321 69.44 77.9697 69.5987 78.5297 69.916C79.099 70.2333 79.547 70.6767 79.8737 71.246C80.2097 71.8153 80.3777 72.4873 80.3777 73.262C80.3777 74.0367 80.2097 74.7133 79.8737 75.292C79.547 75.8613 79.099 76.3047 78.5297 76.622C77.9697 76.9393 77.321 77.098 76.5837 77.098ZM72.4397 79.716V69.524H74.1057V71.288L74.0497 73.276L74.1897 75.264V79.716H72.4397ZM76.3877 75.6C76.8077 75.6 77.181 75.5067 77.5077 75.32C77.8437 75.1333 78.1097 74.8627 78.3057 74.508C78.5017 74.1533 78.5997 73.738 78.5997 73.262C78.5997 72.7767 78.5017 72.3613 78.3057 72.016C78.1097 71.6613 77.8437 71.3907 77.5077 71.204C77.181 71.0173 76.8077 70.924 76.3877 70.924C75.9677 70.924 75.5897 71.0173 75.2537 71.204C74.9177 71.3907 74.6517 71.6613 74.4557 72.016C74.2597 72.3613 74.1617 72.7767 74.1617 73.262C74.1617 73.738 74.2597 74.1533 74.4557 74.508C74.6517 74.8627 74.9177 75.1333 75.2537 75.32C75.5897 75.5067 75.9677 75.6 76.3877 75.6ZM83.3999 77V70.588L83.8059 71.008H80.7679V69.524H87.7679V71.008H84.7439L85.1499 70.588V77H83.3999Z" fill="white"/>
<path d="M64.6726 21H26.3274C23.9414 21 22 23.1064 22 25.6953V51.3047C22 53.8936 23.9414 56 26.3274 56H64.6726C67.0586 56 69 53.8936 69 51.3047V25.6953C69 23.1062 67.0586 21 64.6726 21ZM66.2954 51.3047C66.2954 52.2755 65.5675 53.0654 64.6726 53.0654H26.3274C25.4325 53.0654 24.7046 52.2755 24.7046 51.3047V25.6953C24.7046 24.7246 25.4325 23.9346 26.3274 23.9346H64.6726C65.5675 23.9346 66.2954 24.7246 66.2954 25.6953V51.3047Z" fill="white"/>
<path d="M61.6597 33H52.3403C51.6002 33 51 33.8957 51 35C51 36.1043 51.6002 37 52.3403 37H61.6597C62.4 37 63 36.1043 63 35C63 33.8957 62.4 33 61.6597 33Z" fill="white"/>
<path d="M61.6597 40H52.3403C51.6002 40 51 40.8957 51 42C51 43.1047 51.6002 44 52.3403 44H61.6597C62.4 44 63 43.1047 63 42C63 40.8957 62.4 40 61.6597 40Z" fill="white"/>
<path d="M44.6921 39.599C44.6921 39.1888 44.6135 38.797 44.4716 38.4385C44.457 38.3474 44.4403 38.2564 44.4194 38.1641L42.8825 33.6745L42.8722 33.6341C42.3344 31.7468 41.5694 30 39.6293 30H32.2118C30.224 30 29.5215 31.79 28.972 33.6236L27.3645 38.1242C27.1321 38.5631 27 39.0652 27 39.599V40.9961C27 41.2121 27.0217 41.4234 27.0628 41.6269C27.0228 41.7498 27 41.8823 27 42.022V46.1771C27 46.7864 27.419 47.2805 27.9359 47.2805H29.8781C30.3947 47.2805 30.8137 46.7864 30.8137 46.1771V44.0993H40.9893V46.1771C40.9893 46.7864 41.4084 47.2805 41.9253 47.2805H43.7563C44.2734 47.2805 44.6923 46.7864 44.6923 46.1771V42.0215C44.6923 41.8824 44.6693 41.7493 44.6295 41.6267C44.6706 41.4229 44.6923 41.2118 44.6923 40.9959L44.6921 39.599ZM30.1126 34.0743C30.7245 32.0392 31.2166 31.4179 32.2118 31.4179H39.6289C40.6168 31.4179 41.1669 32.1108 41.7258 34.0656L42.8473 36.7446C42.4811 36.5848 42.0781 36.496 41.6548 36.496H30.0373C29.6561 36.496 29.2918 36.5683 28.9557 36.6991L30.1126 34.0743ZM31.076 41.5266H29.0268C28.6578 41.5266 28.3586 41.1736 28.3586 40.7387C28.3586 40.3037 28.6578 39.9509 29.0268 39.9509H31.076C31.4451 39.9509 31.7443 40.3037 31.7443 40.7387C31.7443 41.1736 31.4449 41.5266 31.076 41.5266ZM38.3148 41.3688H33.5483C33.3146 41.3688 33.1253 41.1455 33.1253 40.8701C33.1253 40.5943 33.3146 40.371 33.5483 40.371H38.3148C38.5488 40.371 38.7381 40.5943 38.7381 40.8701C38.7381 41.1455 38.5488 41.3688 38.3148 41.3688ZM42.6136 41.5266H40.5645C40.1953 41.5266 39.8962 41.1736 39.8962 40.7387C39.8962 40.3037 40.1955 39.9509 40.5645 39.9509H42.6136C42.9829 39.9509 43.2822 40.3037 43.2822 40.7387C43.2822 41.1736 42.9829 41.5266 42.6136 41.5266Z" fill="white"/>
</svg>
