<svg width="90" height="90" viewBox="0 0 90 90" fill="none" xmlns="http://www.w3.org/2000/svg">
<path d="M14.0122 24L10.6942 19.226L12.1642 18.316L16.0702 24H14.0122ZM7.5302 24V14.2H9.3222V24H7.5302ZM8.7762 19.87V18.302H12.0802V19.87H8.7762ZM12.3322 19.31L10.6662 19.086L14.0122 14.2H15.9442L12.3322 19.31ZM21.445 24.098C20.8383 24.098 20.283 23.958 19.779 23.678C19.2843 23.398 18.8877 22.978 18.589 22.418C18.2997 21.8487 18.155 21.13 18.155 20.262C18.155 19.3847 18.295 18.666 18.575 18.106C18.8643 17.546 19.2563 17.1307 19.751 16.86C20.2457 16.58 20.8103 16.44 21.445 16.44C22.1823 16.44 22.831 16.5987 23.391 16.916C23.9603 17.2333 24.4083 17.6767 24.735 18.246C25.071 18.8153 25.239 19.4873 25.239 20.262C25.239 21.0367 25.071 21.7133 24.735 22.292C24.4083 22.8613 23.9603 23.3047 23.391 23.622C22.831 23.9393 22.1823 24.098 21.445 24.098ZM17.301 26.716V16.524H18.967V18.288L18.911 20.276L19.051 22.264V26.716H17.301ZM21.249 22.6C21.669 22.6 22.0423 22.5067 22.369 22.32C22.705 22.1333 22.971 21.8627 23.167 21.508C23.363 21.1533 23.461 20.738 23.461 20.262C23.461 19.7767 23.363 19.3613 23.167 19.016C22.971 18.6613 22.705 18.3907 22.369 18.204C22.0423 18.0173 21.669 17.924 21.249 17.924C20.829 17.924 20.451 18.0173 20.115 18.204C19.779 18.3907 19.513 18.6613 19.317 19.016C19.121 19.3613 19.023 19.7767 19.023 20.262C19.023 20.738 19.121 21.1533 19.317 21.508C19.513 21.8627 19.779 22.1333 20.115 22.32C20.451 22.5067 20.829 22.6 21.249 22.6ZM26.9807 24V16.524H28.7307V21.452L32.8607 16.524H34.4567V24H32.7067V19.072L28.5907 24H26.9807ZM36.8108 24V16.524H38.6448L41.6548 21.83H40.9268L44.0908 16.524H45.7288L45.7428 24H44.1608V18.4L44.4408 18.582L41.6408 23.216H40.8848L38.0708 18.456L38.4068 18.372V24H36.8108ZM48.0901 24V16.524H49.8401V21.452L53.9701 16.524H55.5661V24H53.8161V19.072L49.7001 24H48.0901ZM57.9201 24V16.524H59.6701V19.562H63.4361V16.524H65.1861V24H63.4361V21.046H59.6701V24H57.9201ZM72.0675 24V22.488L71.9695 22.166V19.52C71.9695 19.0067 71.8155 18.61 71.5075 18.33C71.1995 18.0407 70.7328 17.896 70.1075 17.896C69.6875 17.896 69.2721 17.9613 68.8615 18.092C68.4601 18.2227 68.1195 18.4047 67.8395 18.638L67.1535 17.364C67.5548 17.056 68.0308 16.8273 68.5815 16.678C69.1415 16.5193 69.7201 16.44 70.3175 16.44C71.4001 16.44 72.2355 16.7013 72.8235 17.224C73.4208 17.7373 73.7195 18.5353 73.7195 19.618V24H72.0675ZM69.7155 24.098C69.1555 24.098 68.6655 24.0047 68.2455 23.818C67.8255 23.622 67.4988 23.356 67.2655 23.02C67.0415 22.6747 66.9295 22.2873 66.9295 21.858C66.9295 21.438 67.0275 21.06 67.2235 20.724C67.4288 20.388 67.7601 20.122 68.2175 19.926C68.6748 19.73 69.2815 19.632 70.0375 19.632H72.2075V20.794H70.1635C69.5661 20.794 69.1648 20.892 68.9595 21.088C68.7541 21.2747 68.6515 21.508 68.6515 21.788C68.6515 22.1053 68.7775 22.3573 69.0295 22.544C69.2815 22.7307 69.6315 22.824 70.0795 22.824C70.5088 22.824 70.8915 22.726 71.2275 22.53C71.5728 22.334 71.8201 22.0447 71.9695 21.662L72.2635 22.712C72.0955 23.1507 71.7921 23.4913 71.3535 23.734C70.9241 23.9767 70.3781 24.098 69.7155 24.098ZM74.793 23.986L74.877 22.516C74.9423 22.5253 75.003 22.5347 75.059 22.544C75.115 22.5533 75.1663 22.558 75.213 22.558C75.5023 22.558 75.7263 22.4693 75.885 22.292C76.0437 22.1147 76.1603 21.8767 76.235 21.578C76.319 21.27 76.375 20.9293 76.403 20.556C76.4403 20.1733 76.4683 19.7907 76.487 19.408L76.613 16.524H82.661V24H80.911V17.532L81.317 18.008H77.761L78.139 17.518L78.041 19.492C78.013 20.1547 77.957 20.7707 77.873 21.34C77.7983 21.9 77.677 22.39 77.509 22.81C77.3503 23.23 77.1263 23.5567 76.837 23.79C76.557 24.0233 76.1977 24.14 75.759 24.14C75.619 24.14 75.465 24.126 75.297 24.098C75.1383 24.07 74.9703 24.0327 74.793 23.986Z" fill="white"/>
<path d="M45 35.1666C48.5695 35.1665 52.0648 36.1852 55.0752 38.1031C58.0856 40.0209 60.4861 42.7582 61.9944 45.9933C63.5028 49.2284 64.0564 52.8268 63.5902 56.3656C63.1239 59.9045 61.6573 63.2367 59.3625 65.9708C61.9771 67.7 63.5979 69.9083 63.7396 72.3229L63.75 72.6666L45 76.8333L26.25 72.6666L26.2604 72.3229C26.4 69.9062 28.0229 67.6979 30.6354 65.9687C27.7969 62.5949 26.2434 58.3257 26.25 53.9166C26.25 48.9438 28.2255 44.1747 31.7418 40.6584C35.2581 37.1421 40.0272 35.1666 45 35.1666ZM45 39.3333C41.1323 39.3333 37.423 40.8697 34.688 43.6047C31.9531 46.3396 30.4167 50.0489 30.4167 53.9166C30.4167 57.1812 31.4875 60.2708 33.4271 62.7937L33.8271 63.2916L36.8334 66.8687L32.7459 69.575L32.4604 69.777L45 72.5645L57.5375 69.777L57.4354 69.702L57.0646 69.4458L53.1667 66.8687L56.1729 63.2895C58.3819 60.6665 59.5901 57.3458 59.5834 53.9166C59.5834 50.0489 58.0469 46.3396 55.312 43.6047C52.5771 40.8697 48.8678 39.3333 45 39.3333ZM45 58.0833C47.875 58.0833 50.2084 59.4833 50.2084 61.2083C50.2084 62.9333 47.875 64.3333 45 64.3333C42.125 64.3333 39.7917 62.9333 39.7917 61.2083C39.7917 59.4833 42.125 58.0833 45 58.0833ZM38.75 47.6666C41.0521 47.6666 42.9167 49.0666 42.9167 50.7916C42.9167 52.5166 41.0521 53.9166 38.75 53.9166C36.4479 53.9166 34.5834 52.5166 34.5834 50.7916C34.5834 49.0666 36.4479 47.6666 38.75 47.6666ZM51.25 47.6666C53.5521 47.6666 55.4167 49.0666 55.4167 50.7916C55.4167 52.5166 53.5521 53.9166 51.25 53.9166C48.9479 53.9166 47.0834 52.5166 47.0834 50.7916C47.0834 49.0666 48.9479 47.6666 51.25 47.6666Z" fill="white"/>
</svg>
