<svg width="90" height="90" viewBox="0 0 90 90" fill="none" xmlns="http://www.w3.org/2000/svg">
<path d="M20.4365 24V14.2H24.4685C25.3365 14.2 26.0785 14.34 26.6945 14.62C27.3198 14.9 27.8005 15.3013 28.1365 15.824C28.4725 16.3467 28.6405 16.9673 28.6405 17.686C28.6405 18.4047 28.4725 19.0253 28.1365 19.548C27.8005 20.0707 27.3198 20.472 26.6945 20.752C26.0785 21.032 25.3365 21.172 24.4685 21.172H21.4445L22.2565 20.318V24H20.4365ZM22.2565 20.514L21.4445 19.632H24.3845C25.1871 19.632 25.7891 19.464 26.1905 19.128C26.6011 18.7827 26.8065 18.302 26.8065 17.686C26.8065 17.0607 26.6011 16.58 26.1905 16.244C25.7891 15.908 25.1871 15.74 24.3845 15.74H21.4445L22.2565 14.844V20.514ZM34.6339 24V22.488L34.5359 22.166V19.52C34.5359 19.0067 34.3819 18.61 34.0739 18.33C33.7659 18.0407 33.2992 17.896 32.6739 17.896C32.2539 17.896 31.8385 17.9613 31.4279 18.092C31.0265 18.2227 30.6859 18.4047 30.4059 18.638L29.7199 17.364C30.1212 17.056 30.5972 16.8273 31.1479 16.678C31.7079 16.5193 32.2865 16.44 32.8839 16.44C33.9665 16.44 34.8019 16.7013 35.3899 17.224C35.9872 17.7373 36.2859 18.5353 36.2859 19.618V24H34.6339ZM32.2819 24.098C31.7219 24.098 31.2319 24.0047 30.8119 23.818C30.3919 23.622 30.0652 23.356 29.8319 23.02C29.6079 22.6747 29.4959 22.2873 29.4959 21.858C29.4959 21.438 29.5939 21.06 29.7899 20.724C29.9952 20.388 30.3265 20.122 30.7839 19.926C31.2412 19.73 31.8479 19.632 32.6039 19.632H34.7739V20.794H32.7299C32.1325 20.794 31.7312 20.892 31.5259 21.088C31.3205 21.2747 31.2179 21.508 31.2179 21.788C31.2179 22.1053 31.3439 22.3573 31.5959 22.544C31.8479 22.7307 32.1979 22.824 32.6459 22.824C33.0752 22.824 33.4579 22.726 33.7939 22.53C34.1392 22.334 34.3865 22.0447 34.5359 21.662L34.8299 22.712C34.6619 23.1507 34.3585 23.4913 33.9199 23.734C33.4905 23.9767 32.9445 24.098 32.2819 24.098ZM42.0214 24.14C41.4054 24.14 40.8547 24.0467 40.3694 23.86C39.8841 23.6733 39.4641 23.3887 39.1094 23.006C38.7641 22.614 38.4981 22.1193 38.3114 21.522C38.1247 20.9247 38.0314 20.2153 38.0314 19.394C38.0314 18.7967 38.0827 18.2507 38.1854 17.756C38.2881 17.2613 38.4421 16.818 38.6474 16.426C38.8527 16.0247 39.1094 15.67 39.4174 15.362C39.7347 15.054 40.1034 14.7973 40.5234 14.592C40.9434 14.3867 41.4194 14.228 41.9514 14.116L45.4234 13.374L45.6754 14.942L42.5254 15.586C42.3481 15.6233 42.1334 15.6793 41.8814 15.754C41.6387 15.8193 41.3867 15.922 41.1254 16.062C40.8734 16.1927 40.6354 16.384 40.4114 16.636C40.1967 16.8787 40.0194 17.196 39.8794 17.588C39.7487 17.9707 39.6834 18.4513 39.6834 19.03C39.6834 19.2073 39.6881 19.3427 39.6974 19.436C39.7161 19.52 39.7301 19.6133 39.7394 19.716C39.7581 19.8093 39.7674 19.9493 39.7674 20.136L39.1094 19.45C39.2961 18.974 39.5527 18.568 39.8794 18.232C40.2154 17.8867 40.6027 17.6253 41.0414 17.448C41.4894 17.2613 41.9747 17.168 42.4974 17.168C43.1974 17.168 43.8181 17.3127 44.3594 17.602C44.9007 17.8913 45.3254 18.2973 45.6334 18.82C45.9414 19.3427 46.0954 19.9353 46.0954 20.598C46.0954 21.2887 45.9274 21.9 45.5914 22.432C45.2554 22.964 44.7794 23.384 44.1634 23.692C43.5567 23.9907 42.8427 24.14 42.0214 24.14ZM42.1614 22.726C42.5814 22.726 42.9501 22.6373 43.2674 22.46C43.5941 22.2733 43.8461 22.0213 44.0234 21.704C44.2101 21.3867 44.3034 21.032 44.3034 20.64C44.3034 20.248 44.2101 19.9073 44.0234 19.618C43.8461 19.3193 43.5941 19.0813 43.2674 18.904C42.9501 18.7267 42.5721 18.638 42.1334 18.638C41.7134 18.638 41.3354 18.722 40.9994 18.89C40.6727 19.058 40.4161 19.2913 40.2294 19.59C40.0521 19.8793 39.9634 20.2153 39.9634 20.598C39.9634 20.99 40.0567 21.3493 40.2434 21.676C40.4301 22.0027 40.6867 22.2593 41.0134 22.446C41.3494 22.6327 41.7321 22.726 42.1614 22.726ZM51.1213 24.098C50.3559 24.098 49.6746 23.9347 49.0773 23.608C48.4799 23.272 48.0086 22.8147 47.6633 22.236C47.3179 21.6573 47.1453 20.9993 47.1453 20.262C47.1453 19.5153 47.3179 18.8573 47.6633 18.288C48.0086 17.7093 48.4799 17.2567 49.0773 16.93C49.6746 16.6033 50.3559 16.44 51.1213 16.44C51.8959 16.44 52.5819 16.6033 53.1793 16.93C53.7859 17.2567 54.2573 17.7047 54.5933 18.274C54.9386 18.8433 55.1113 19.506 55.1113 20.262C55.1113 20.9993 54.9386 21.6573 54.5933 22.236C54.2573 22.8147 53.7859 23.272 53.1793 23.608C52.5819 23.9347 51.8959 24.098 51.1213 24.098ZM51.1213 22.6C51.5506 22.6 51.9333 22.5067 52.2693 22.32C52.6053 22.1333 52.8666 21.8627 53.0533 21.508C53.2493 21.1533 53.3473 20.738 53.3473 20.262C53.3473 19.7767 53.2493 19.3613 53.0533 19.016C52.8666 18.6613 52.6053 18.3907 52.2693 18.204C51.9333 18.0173 51.5553 17.924 51.1353 17.924C50.7059 17.924 50.3233 18.0173 49.9873 18.204C49.6606 18.3907 49.3993 18.6613 49.2033 19.016C49.0073 19.3613 48.9093 19.7767 48.9093 20.262C48.9093 20.738 49.0073 21.1533 49.2033 21.508C49.3993 21.8627 49.6606 22.1333 49.9873 22.32C50.3233 22.5067 50.7013 22.6 51.1213 22.6ZM58.1206 24V17.588L58.5266 18.008H55.4886V16.524H62.4886V18.008H59.4646L59.8706 17.588V24H58.1206ZM68.294 24V22.488L68.196 22.166V19.52C68.196 19.0067 68.042 18.61 67.734 18.33C67.426 18.0407 66.9594 17.896 66.334 17.896C65.914 17.896 65.4987 17.9613 65.088 18.092C64.6867 18.2227 64.346 18.4047 64.066 18.638L63.38 17.364C63.7814 17.056 64.2574 16.8273 64.808 16.678C65.368 16.5193 65.9467 16.44 66.544 16.44C67.6267 16.44 68.462 16.7013 69.05 17.224C69.6474 17.7373 69.946 18.5353 69.946 19.618V24H68.294ZM65.942 24.098C65.382 24.098 64.892 24.0047 64.472 23.818C64.052 23.622 63.7254 23.356 63.492 23.02C63.268 22.6747 63.156 22.2873 63.156 21.858C63.156 21.438 63.254 21.06 63.45 20.724C63.6554 20.388 63.9867 20.122 64.444 19.926C64.9014 19.73 65.508 19.632 66.264 19.632H68.434V20.794H66.39C65.7927 20.794 65.3914 20.892 65.186 21.088C64.9807 21.2747 64.878 21.508 64.878 21.788C64.878 22.1053 65.004 22.3573 65.256 22.544C65.508 22.7307 65.858 22.824 66.306 22.824C66.7354 22.824 67.118 22.726 67.454 22.53C67.7994 22.334 68.0467 22.0447 68.196 21.662L68.49 22.712C68.322 23.1507 68.0187 23.4913 67.58 23.734C67.1507 23.9767 66.6047 24.098 65.942 24.098Z" fill="white"/>
<path d="M40.5 36C39.3065 36 38.1619 36.4741 37.318 37.318C36.4741 38.1619 36 39.3065 36 40.5V42H25.5C24.3065 42 23.1619 42.4741 22.318 43.318C21.4741 44.1619 21 45.3065 21 46.5V50.652L43.842 56.742C44.6008 56.9441 45.3992 56.9441 46.158 56.742L69 50.652V46.5C69 45.3065 68.5259 44.1619 67.682 43.318C66.8381 42.4741 65.6935 42 64.5 42H54V40.5C54 39.3065 53.5259 38.1619 52.682 37.318C51.8381 36.4741 50.6935 36 49.5 36H40.5ZM40.5 39H49.5C49.8978 39 50.2794 39.158 50.5607 39.4393C50.842 39.7206 51 40.1022 51 40.5V42H39V40.5C39 40.1022 39.158 39.7206 39.4393 39.4393C39.7206 39.158 40.1022 39 40.5 39V39Z" fill="white"/>
<path d="M21 70.5C21 71.6935 21.4741 72.8381 22.318 73.682C23.1619 74.5259 24.3065 75 25.5 75H64.5C65.6935 75 66.8381 74.5259 67.682 73.682C68.5259 72.8381 69 71.6935 69 70.5V53.55L45.387 59.841C45.1334 59.9088 44.8666 59.9088 44.613 59.841L21 53.55V70.5Z" fill="white"/>
</svg>