<svg width="90" height="90" viewBox="0 0 90 90" fill="none" xmlns="http://www.w3.org/2000/svg">
<path d="M44.6667 18C39.2676 18 34.875 22.3925 34.875 27.7916V33.6666H32.9167C31.8779 33.6666 30.8817 34.0793 30.1472 34.8138C29.4127 35.5483 29 36.5445 29 37.5833V53.25C29 54.2887 29.4127 55.285 30.1472 56.0195C30.8817 56.754 31.8779 57.1666 32.9167 57.1666H56.4167C57.4555 57.1666 58.4517 56.754 59.1862 56.0195C59.9207 55.285 60.3334 54.2887 60.3334 53.25V37.5833C60.3334 36.5445 59.9207 35.5483 59.1862 34.8138C58.4517 34.0793 57.4555 33.6666 56.4167 33.6666H54.4584V27.7916C54.4584 22.3925 50.0658 18 44.6667 18ZM38.7917 27.7916C38.7917 24.5526 41.4276 21.9167 44.6667 21.9167C47.9058 21.9167 50.5417 24.5526 50.5417 27.7916V33.6666H38.7917V27.7916ZM46.625 48.7908V53.25H42.7084V48.7908C42.0237 48.3988 41.474 47.8084 41.1316 47.0976C40.7892 46.3868 40.6703 45.5889 40.7905 44.8091C40.9108 44.0293 41.2645 43.3043 41.8051 42.7297C42.3457 42.155 43.0478 41.7577 43.8188 41.5901C44.3914 41.4634 44.9852 41.467 45.5563 41.6004C46.1274 41.7338 46.6612 41.9938 47.1185 42.361C47.5758 42.7282 47.9448 43.1934 48.1983 43.7223C48.4518 44.2511 48.5834 44.8302 48.5834 45.4166C48.5822 46.1016 48.4006 46.7741 48.0568 47.3664C47.713 47.9588 47.2192 48.4501 46.625 48.7908Z" fill="white"/>
<path d="M13.9744 76.034L14.5624 74.704C14.9824 74.9933 15.4397 75.2173 15.9344 75.376C16.4384 75.5253 16.9377 75.6047 17.4324 75.614C17.927 75.6233 18.375 75.5673 18.7764 75.446C19.187 75.3247 19.5137 75.1427 19.7564 74.9C19.999 74.6573 20.1204 74.354 20.1204 73.99C20.1204 73.5513 19.9384 73.2247 19.5744 73.01C19.2197 72.786 18.7344 72.674 18.1184 72.674H15.8364V71.246H17.9784C18.529 71.246 18.9537 71.134 19.2524 70.91C19.5604 70.686 19.7144 70.3827 19.7144 70C19.7144 69.6827 19.6117 69.4213 19.4064 69.216C19.2104 69.0107 18.9397 68.8567 18.5944 68.754C18.2584 68.6513 17.8757 68.6047 17.4464 68.614C17.0264 68.614 16.5877 68.6793 16.1304 68.81C15.673 68.9313 15.239 69.1133 14.8284 69.356L14.2544 67.886C14.8704 67.5593 15.5144 67.3307 16.1864 67.2C16.8677 67.0693 17.5257 67.032 18.1604 67.088C18.795 67.144 19.3644 67.2887 19.8684 67.522C20.3817 67.7553 20.7924 68.0633 21.1004 68.446C21.4084 68.8193 21.5624 69.2627 21.5624 69.776C21.5624 70.2427 21.4364 70.658 21.1844 71.022C20.9417 71.3767 20.6057 71.652 20.1764 71.848C19.747 72.044 19.2477 72.142 18.6784 72.142L18.7484 71.694C19.3924 71.694 19.9524 71.806 20.4284 72.03C20.9137 72.2447 21.287 72.5433 21.5484 72.926C21.819 73.3087 21.9544 73.752 21.9544 74.256C21.9544 74.732 21.833 75.1567 21.5904 75.53C21.3477 75.894 21.0164 76.202 20.5964 76.454C20.1764 76.6967 19.6957 76.8787 19.1544 77C18.613 77.112 18.0437 77.154 17.4464 77.126C16.849 77.098 16.2517 76.9953 15.6544 76.818C15.0664 76.6407 14.5064 76.3793 13.9744 76.034ZM28.3722 77V75.488L28.2742 75.166V72.52C28.2742 72.0067 28.1202 71.61 27.8122 71.33C27.5042 71.0407 27.0375 70.896 26.4122 70.896C25.9922 70.896 25.5768 70.9613 25.1662 71.092C24.7648 71.2227 24.4242 71.4047 24.1442 71.638L23.4582 70.364C23.8595 70.056 24.3355 69.8273 24.8862 69.678C25.4462 69.5193 26.0248 69.44 26.6222 69.44C27.7048 69.44 28.5402 69.7013 29.1282 70.224C29.7255 70.7373 30.0242 71.5353 30.0242 72.618V77H28.3722ZM26.0202 77.098C25.4602 77.098 24.9702 77.0047 24.5502 76.818C24.1302 76.622 23.8035 76.356 23.5702 76.02C23.3462 75.6747 23.2342 75.2873 23.2342 74.858C23.2342 74.438 23.3322 74.06 23.5282 73.724C23.7335 73.388 24.0648 73.122 24.5222 72.926C24.9795 72.73 25.5862 72.632 26.3422 72.632H28.5122V73.794H26.4682C25.8708 73.794 25.4695 73.892 25.2642 74.088C25.0588 74.2747 24.9562 74.508 24.9562 74.788C24.9562 75.1053 25.0822 75.3573 25.3342 75.544C25.5862 75.7307 25.9362 75.824 26.3842 75.824C26.8135 75.824 27.1962 75.726 27.5322 75.53C27.8775 75.334 28.1248 75.0447 28.2742 74.662L28.5682 75.712C28.4002 76.1507 28.0968 76.4913 27.6582 76.734C27.2288 76.9767 26.6828 77.098 26.0202 77.098ZM37.5517 77L34.8497 73.416L36.2777 72.534L39.6097 77H37.5517ZM32.1897 77V69.524H33.9397V77H32.1897ZM33.4217 74.004V72.548H35.9557V74.004H33.4217ZM36.4457 73.472L34.8077 73.276L37.5517 69.524H39.4277L36.4457 73.472ZM44.988 77.098C44.3813 77.098 43.826 76.958 43.322 76.678C42.8273 76.398 42.4306 75.978 42.132 75.418C41.8426 74.8487 41.698 74.13 41.698 73.262C41.698 72.3847 41.838 71.666 42.118 71.106C42.4073 70.546 42.7993 70.1307 43.294 69.86C43.7886 69.58 44.3533 69.44 44.988 69.44C45.7253 69.44 46.374 69.5987 46.934 69.916C47.5033 70.2333 47.9513 70.6767 48.278 71.246C48.614 71.8153 48.782 72.4873 48.782 73.262C48.782 74.0367 48.614 74.7133 48.278 75.292C47.9513 75.8613 47.5033 76.3047 46.934 76.622C46.374 76.9393 45.7253 77.098 44.988 77.098ZM40.844 79.716V69.524H42.51V71.288L42.454 73.276L42.594 75.264V79.716H40.844ZM44.792 75.6C45.212 75.6 45.5853 75.5067 45.912 75.32C46.248 75.1333 46.514 74.8627 46.71 74.508C46.906 74.1533 47.004 73.738 47.004 73.262C47.004 72.7767 46.906 72.3613 46.71 72.016C46.514 71.6613 46.248 71.3907 45.912 71.204C45.5853 71.0173 45.212 70.924 44.792 70.924C44.372 70.924 43.994 71.0173 43.658 71.204C43.322 71.3907 43.056 71.6613 42.86 72.016C42.664 72.3613 42.566 72.7767 42.566 73.262C42.566 73.738 42.664 74.1533 42.86 74.508C43.056 74.8627 43.322 75.1333 43.658 75.32C43.994 75.5067 44.372 75.6 44.792 75.6ZM58.0697 77V69.524H59.8197V77H58.0697ZM54.1637 71.988C55.125 71.988 55.853 72.2027 56.3477 72.632C56.8517 73.0613 57.1037 73.668 57.1037 74.452C57.1037 75.264 56.8237 75.8987 56.2637 76.356C55.713 76.804 54.929 77.0233 53.9117 77.014L50.5237 77V69.524H52.2737V71.974L54.1637 71.988ZM53.7577 75.726C54.271 75.7353 54.663 75.628 54.9337 75.404C55.2043 75.18 55.3397 74.8533 55.3397 74.424C55.3397 73.9947 55.2043 73.6867 54.9337 73.5C54.6723 73.304 54.2803 73.2013 53.7577 73.192L52.2737 73.178V75.712L53.7577 75.726ZM63.7261 77V70.588L64.1321 71.008H61.0941V69.524H68.0941V71.008H65.0701L65.4761 70.588V77H63.7261ZM73.1155 71.988C74.0768 71.988 74.8095 72.2027 75.3135 72.632C75.8175 73.0613 76.0695 73.668 76.0695 74.452C76.0695 75.264 75.7895 75.8987 75.2295 76.356C74.6695 76.804 73.8808 77.0233 72.8635 77.014L69.3635 77V69.524H71.1135V71.974L73.1155 71.988ZM72.7095 75.726C73.2228 75.7353 73.6148 75.628 73.8855 75.404C74.1562 75.18 74.2915 74.8533 74.2915 74.424C74.2915 73.9947 74.1562 73.6867 73.8855 73.5C73.6242 73.304 73.2322 73.2013 72.7095 73.192L71.1135 73.178V75.712L72.7095 75.726Z" fill="white"/>
</svg>