<svg width="90" height="90" viewBox="0 0 90 90" fill="none" xmlns="http://www.w3.org/2000/svg">
<path d="M42.9166 33.75V29.9167C41.259 29.9167 39.6693 29.3109 38.4972 28.2326C37.3251 27.1542 36.6666 25.6917 36.6666 24.1667C36.6666 22.6417 37.3251 21.1792 38.4972 20.1008C39.6693 19.0225 41.259 18.4167 42.9166 18.4167V16.5C42.9166 15.9917 43.1361 15.5042 43.5268 15.1448C43.9175 14.7853 44.4474 14.5834 45 14.5834C45.5525 14.5834 46.0824 14.7853 46.4731 15.1448C46.8638 15.5042 47.0833 15.9917 47.0833 16.5V18.4167H47.1291C48.7746 18.4167 50.3526 19.0181 51.5161 20.0885C52.6796 21.1589 53.3333 22.6107 53.3333 24.1245C53.3333 24.6329 53.1138 25.1204 52.7231 25.4798C52.3324 25.8393 51.8025 26.0412 51.25 26.0412C50.6974 26.0412 50.1675 25.8393 49.7768 25.4798C49.3861 25.1204 49.1666 24.6329 49.1666 24.1245C49.1666 23.6274 48.952 23.1506 48.5699 22.7991C48.1878 22.4475 47.6695 22.25 47.1291 22.25H47.0833V26.0834C48.7409 26.0834 50.3306 26.6892 51.5027 27.7675C52.6748 28.8458 53.3333 30.3084 53.3333 31.8334C53.3333 33.3584 52.6748 34.8209 51.5027 35.8992C50.3306 36.9776 48.7409 37.5834 47.0833 37.5834V39.5C47.0833 40.0084 46.8638 40.4959 46.4731 40.8553C46.0824 41.2148 45.5525 41.4167 45 41.4167C44.4474 41.4167 43.9175 41.2148 43.5268 40.8553C43.1361 40.4959 42.9166 40.0084 42.9166 39.5V37.5834H42.8104C41.181 37.5834 39.6183 36.9879 38.4661 35.9279C37.3139 34.8679 36.6666 33.4302 36.6666 31.9311C36.6666 31.4228 36.8861 30.9353 37.2768 30.5758C37.6675 30.2164 38.1974 30.0145 38.75 30.0145C39.3025 30.0145 39.8324 30.2164 40.2231 30.5758C40.6138 30.9353 40.8333 31.4228 40.8333 31.9311C40.8338 32.4134 41.0423 32.8757 41.413 33.2167C41.7836 33.5577 42.2862 33.7495 42.8104 33.75H42.9166ZM47.0833 33.75C47.6358 33.75 48.1657 33.5481 48.5564 33.1887C48.9471 32.8292 49.1666 32.3417 49.1666 31.8334C49.1666 31.325 48.9471 30.8375 48.5564 30.4781C48.1657 30.1186 47.6358 29.9167 47.0833 29.9167V33.75ZM42.9166 22.25C42.3641 22.25 41.8342 22.452 41.4435 22.8114C41.0528 23.1709 40.8333 23.6584 40.8333 24.1667C40.8333 24.675 41.0528 25.1626 41.4435 25.522C41.8342 25.8814 42.3641 26.0834 42.9166 26.0834V22.25ZM45 47.1667C33.4937 47.1667 24.1666 38.5858 24.1666 28C24.1666 17.4143 33.4937 8.83337 45 8.83337C56.5062 8.83337 65.8333 17.4143 65.8333 28C65.8333 38.5858 56.5062 47.1667 45 47.1667ZM45 43.3334C49.4202 43.3334 53.6595 41.7179 56.7851 38.8423C59.9107 35.9668 61.6666 32.0667 61.6666 28C61.6666 23.9334 59.9107 20.0333 56.7851 17.1577C53.6595 14.2822 49.4202 12.6667 45 12.6667C40.5797 12.6667 36.3405 14.2822 33.2148 17.1577C30.0892 20.0333 28.3333 23.9334 28.3333 28C28.3333 32.0667 30.0892 35.9668 33.2148 38.8423C36.3405 41.7179 40.5797 43.3334 45 43.3334V43.3334Z" fill="white"/>
<path d="M24.3165 65.14C23.5512 65.14 22.8465 65.014 22.2025 64.762C21.5585 64.51 20.9985 64.16 20.5225 63.712C20.0465 63.2547 19.6779 62.7227 19.4165 62.116C19.1552 61.5 19.0245 60.828 19.0245 60.1C19.0245 59.372 19.1552 58.7047 19.4165 58.098C19.6779 57.482 20.0465 56.95 20.5225 56.502C20.9985 56.0447 21.5585 55.69 22.2025 55.438C22.8465 55.186 23.5465 55.06 24.3025 55.06C25.0679 55.06 25.7679 55.186 26.4025 55.438C27.0465 55.69 27.6065 56.0447 28.0825 56.502C28.5585 56.95 28.9272 57.482 29.1885 58.098C29.4499 58.7047 29.5805 59.372 29.5805 60.1C29.5805 60.828 29.4499 61.5 29.1885 62.116C28.9272 62.732 28.5585 63.264 28.0825 63.712C27.6065 64.16 27.0465 64.51 26.4025 64.762C25.7679 65.014 25.0725 65.14 24.3165 65.14ZM24.3025 63.544C24.7972 63.544 25.2545 63.46 25.6745 63.292C26.0945 63.124 26.4585 62.886 26.7665 62.578C27.0745 62.2607 27.3125 61.8967 27.4805 61.486C27.6579 61.066 27.7465 60.604 27.7465 60.1C27.7465 59.596 27.6579 59.1387 27.4805 58.728C27.3125 58.308 27.0745 57.944 26.7665 57.636C26.4585 57.3187 26.0945 57.076 25.6745 56.908C25.2545 56.74 24.7972 56.656 24.3025 56.656C23.8079 56.656 23.3505 56.74 22.9305 56.908C22.5199 57.076 22.1559 57.3187 21.8385 57.636C21.5305 57.944 21.2879 58.308 21.1105 58.728C20.9425 59.1387 20.8585 59.596 20.8585 60.1C20.8585 60.5947 20.9425 61.052 21.1105 61.472C21.2879 61.892 21.5305 62.2607 21.8385 62.578C22.1465 62.886 22.5105 63.124 22.9305 63.292C23.3505 63.46 23.8079 63.544 24.3025 63.544ZM35.5407 65.098C34.934 65.098 34.3787 64.958 33.8747 64.678C33.38 64.398 32.9834 63.978 32.6847 63.418C32.3954 62.8487 32.2507 62.13 32.2507 61.262C32.2507 60.3847 32.3907 59.666 32.6707 59.106C32.96 58.546 33.352 58.1307 33.8467 57.86C34.3414 57.58 34.906 57.44 35.5407 57.44C36.278 57.44 36.9267 57.5987 37.4867 57.916C38.056 58.2333 38.504 58.6767 38.8307 59.246C39.1667 59.8153 39.3347 60.4873 39.3347 61.262C39.3347 62.0367 39.1667 62.7133 38.8307 63.292C38.504 63.8613 38.056 64.3047 37.4867 64.622C36.9267 64.9393 36.278 65.098 35.5407 65.098ZM31.3967 67.716V57.524H33.0627V59.288L33.0067 61.276L33.1467 63.264V67.716H31.3967ZM35.3447 63.6C35.7647 63.6 36.138 63.5067 36.4647 63.32C36.8007 63.1333 37.0667 62.8627 37.2627 62.508C37.4587 62.1533 37.5567 61.738 37.5567 61.262C37.5567 60.7767 37.4587 60.3613 37.2627 60.016C37.0667 59.6613 36.8007 59.3907 36.4647 59.204C36.138 59.0173 35.7647 58.924 35.3447 58.924C34.9247 58.924 34.5467 59.0173 34.2107 59.204C33.8747 59.3907 33.6087 59.6613 33.4127 60.016C33.2167 60.3613 33.1187 60.7767 33.1187 61.262C33.1187 61.738 33.2167 62.1533 33.4127 62.508C33.6087 62.8627 33.8747 63.1333 34.2107 63.32C34.5467 63.5067 34.9247 63.6 35.3447 63.6ZM44.5624 65.098C43.7317 65.098 43.0037 64.9347 42.3784 64.608C41.7624 64.272 41.2817 63.8147 40.9364 63.236C40.6004 62.6573 40.4324 61.9993 40.4324 61.262C40.4324 60.5153 40.5957 59.8573 40.9224 59.288C41.2584 58.7093 41.7157 58.2567 42.2944 57.93C42.8824 57.6033 43.5497 57.44 44.2964 57.44C45.0244 57.44 45.6731 57.5987 46.2424 57.916C46.8117 58.2333 47.2597 58.6813 47.5864 59.26C47.9131 59.8387 48.0764 60.52 48.0764 61.304C48.0764 61.3787 48.0717 61.4627 48.0624 61.556C48.0624 61.6493 48.0577 61.738 48.0484 61.822H41.8184V60.66H47.1244L46.4384 61.024C46.4477 60.5947 46.3591 60.2167 46.1724 59.89C45.9857 59.5633 45.7291 59.3067 45.4024 59.12C45.0851 58.9333 44.7164 58.84 44.2964 58.84C43.8671 58.84 43.4891 58.9333 43.1624 59.12C42.8451 59.3067 42.5931 59.568 42.4064 59.904C42.2291 60.2307 42.1404 60.618 42.1404 61.066V61.346C42.1404 61.794 42.2431 62.1907 42.4484 62.536C42.6537 62.8813 42.9431 63.1473 43.3164 63.334C43.6897 63.5207 44.1191 63.614 44.6044 63.614C45.0244 63.614 45.4024 63.5487 45.7384 63.418C46.0744 63.2873 46.3731 63.082 46.6344 62.802L47.5724 63.88C47.2364 64.272 46.8117 64.5753 46.2984 64.79C45.7944 64.9953 45.2157 65.098 44.5624 65.098ZM48.8028 64.986L48.8868 63.516C48.9521 63.5253 49.0128 63.5347 49.0688 63.544C49.1248 63.5533 49.1761 63.558 49.2228 63.558C49.5121 63.558 49.7361 63.4693 49.8948 63.292C50.0534 63.1147 50.1701 62.8767 50.2448 62.578C50.3288 62.27 50.3848 61.9293 50.4128 61.556C50.4501 61.1733 50.4781 60.7907 50.4968 60.408L50.6228 57.524H56.6708V65H54.9208V58.532L55.3268 59.008H51.7708L52.1488 58.518L52.0508 60.492C52.0228 61.1547 51.9668 61.7707 51.8828 62.34C51.8081 62.9 51.6868 63.39 51.5188 63.81C51.3601 64.23 51.1361 64.5567 50.8468 64.79C50.5668 65.0233 50.2074 65.14 49.7688 65.14C49.6288 65.14 49.4748 65.126 49.3068 65.098C49.1481 65.07 48.9801 65.0327 48.8028 64.986ZM65.8647 65.14C65.1834 65.14 64.572 65.028 64.0307 64.804C63.4894 64.58 63.0647 64.272 62.7567 63.88C62.4487 63.488 62.2947 63.0353 62.2947 62.522C62.2947 62.0553 62.3974 61.6353 62.6027 61.262C62.808 60.8887 63.1347 60.534 63.5827 60.198C64.0307 59.8527 64.6047 59.5073 65.3047 59.162C65.8554 58.8913 66.2847 58.6533 66.5927 58.448C66.91 58.2427 67.1294 58.0467 67.2507 57.86C67.3814 57.6733 67.4467 57.4773 67.4467 57.272C67.4467 56.992 67.3487 56.768 67.1527 56.6C66.9567 56.4227 66.6767 56.334 66.3127 56.334C65.9207 56.334 65.6127 56.432 65.3887 56.628C65.174 56.8147 65.0667 57.062 65.0667 57.37C65.0667 57.5287 65.0947 57.6827 65.1507 57.832C65.216 57.9813 65.328 58.1493 65.4867 58.336C65.6454 58.5227 65.874 58.7607 66.1727 59.05L71.3527 64.02L70.3867 65.154L64.7867 59.778C64.4694 59.47 64.2127 59.1853 64.0167 58.924C63.8207 58.6627 63.6807 58.4107 63.5967 58.168C63.5127 57.916 63.4707 57.6593 63.4707 57.398C63.4707 56.9407 63.5874 56.5393 63.8207 56.194C64.054 55.8393 64.3854 55.5687 64.8147 55.382C65.244 55.186 65.7434 55.088 66.3127 55.088C66.8447 55.088 67.302 55.1767 67.6847 55.354C68.0767 55.522 68.38 55.7693 68.5947 56.096C68.8187 56.4133 68.9307 56.796 68.9307 57.244C68.9307 57.636 68.8327 58 68.6367 58.336C68.4407 58.6627 68.1327 58.9753 67.7127 59.274C67.302 59.5727 66.7514 59.8853 66.0607 60.212C65.5474 60.464 65.1414 60.702 64.8427 60.926C64.544 61.15 64.3294 61.374 64.1987 61.598C64.068 61.822 64.0027 62.0693 64.0027 62.34C64.0027 62.6107 64.082 62.8487 64.2407 63.054C64.4087 63.2593 64.642 63.4227 64.9407 63.544C65.2394 63.656 65.5894 63.712 65.9907 63.712C66.588 63.712 67.1294 63.5813 67.6147 63.32C68.1094 63.0493 68.5247 62.648 68.8607 62.116C69.1967 61.584 69.4394 60.926 69.5887 60.142L71.0027 60.604C70.8067 61.5467 70.466 62.3587 69.9807 63.04C69.5047 63.712 68.9167 64.23 68.2167 64.594C67.5167 64.958 66.7327 65.14 65.8647 65.14ZM21.8447 82V72.2H25.8767C26.7447 72.2 27.4867 72.34 28.1027 72.62C28.728 72.9 29.2087 73.3013 29.5447 73.824C29.8807 74.3467 30.0487 74.9673 30.0487 75.686C30.0487 76.4047 29.8807 77.0253 29.5447 77.548C29.2087 78.0707 28.728 78.472 28.1027 78.752C27.4867 79.032 26.7447 79.172 25.8767 79.172H22.8527L23.6647 78.318V82H21.8447ZM23.6647 78.514L22.8527 77.632H25.7927C26.5953 77.632 27.1973 77.464 27.5987 77.128C28.0093 76.7827 28.2147 76.302 28.2147 75.686C28.2147 75.0607 28.0093 74.58 27.5987 74.244C27.1973 73.908 26.5953 73.74 25.7927 73.74H22.8527L23.6647 72.844V78.514ZM35.0331 82.098C34.2024 82.098 33.4744 81.9347 32.8491 81.608C32.2331 81.272 31.7524 80.8147 31.4071 80.236C31.0711 79.6573 30.9031 78.9993 30.9031 78.262C30.9031 77.5153 31.0664 76.8573 31.3931 76.288C31.7291 75.7093 32.1864 75.2567 32.7651 74.93C33.3531 74.6033 34.0204 74.44 34.7671 74.44C35.4951 74.44 36.1438 74.5987 36.7131 74.916C37.2824 75.2333 37.7304 75.6813 38.0571 76.26C38.3838 76.8387 38.5471 77.52 38.5471 78.304C38.5471 78.3787 38.5424 78.4627 38.5331 78.556C38.5331 78.6493 38.5284 78.738 38.5191 78.822H32.2891V77.66H37.5951L36.9091 78.024C36.9184 77.5947 36.8298 77.2167 36.6431 76.89C36.4564 76.5633 36.1998 76.3067 35.8731 76.12C35.5558 75.9333 35.1871 75.84 34.7671 75.84C34.3378 75.84 33.9598 75.9333 33.6331 76.12C33.3158 76.3067 33.0638 76.568 32.8771 76.904C32.6998 77.2307 32.6111 77.618 32.6111 78.066V78.346C32.6111 78.794 32.7138 79.1907 32.9191 79.536C33.1244 79.8813 33.4138 80.1473 33.7871 80.334C34.1604 80.5207 34.5898 80.614 35.0751 80.614C35.4951 80.614 35.8731 80.5487 36.2091 80.418C36.5451 80.2873 36.8438 80.082 37.1051 79.802L38.0431 80.88C37.7071 81.272 37.2824 81.5753 36.7691 81.79C36.2651 81.9953 35.6864 82.098 35.0331 82.098ZM45.4872 80.516L45.1092 80.936V74.524H46.8592V80.936L46.4392 80.516H50.1352L49.7292 80.936V74.524H51.4792V82H40.4612V74.524H42.2112V80.936L41.8052 80.516H45.4872ZM59.1943 82L56.4923 78.416L57.9203 77.534L61.2523 82H59.1943ZM53.8323 82V74.524H55.5823V82H53.8323ZM55.0643 79.004V77.548H57.5983V79.004H55.0643ZM58.0883 78.472L56.4503 78.276L59.1943 74.524H61.0703L58.0883 78.472ZM66.8858 82V80.488L66.7878 80.166V77.52C66.7878 77.0067 66.6338 76.61 66.3258 76.33C66.0178 76.0407 65.5512 75.896 64.9258 75.896C64.5058 75.896 64.0905 75.9613 63.6798 76.092C63.2785 76.2227 62.9378 76.4047 62.6578 76.638L61.9718 75.364C62.3732 75.056 62.8492 74.8273 63.3998 74.678C63.9598 74.5193 64.5385 74.44 65.1358 74.44C66.2185 74.44 67.0538 74.7013 67.6418 75.224C68.2392 75.7373 68.5378 76.5353 68.5378 77.618V82H66.8858ZM64.5338 82.098C63.9738 82.098 63.4838 82.0047 63.0638 81.818C62.6438 81.622 62.3172 81.356 62.0838 81.02C61.8598 80.6747 61.7478 80.2873 61.7478 79.858C61.7478 79.438 61.8458 79.06 62.0418 78.724C62.2472 78.388 62.5785 78.122 63.0358 77.926C63.4932 77.73 64.0998 77.632 64.8558 77.632H67.0258V78.794H64.9818C64.3845 78.794 63.9832 78.892 63.7778 79.088C63.5725 79.2747 63.4698 79.508 63.4698 79.788C63.4698 80.1053 63.5958 80.3573 63.8478 80.544C64.0998 80.7307 64.4498 80.824 64.8978 80.824C65.3272 80.824 65.7098 80.726 66.0458 80.53C66.3912 80.334 66.6385 80.0447 66.7878 79.662L67.0818 80.712C66.9138 81.1507 66.6105 81.4913 66.1718 81.734C65.7425 81.9767 65.1965 82.098 64.5338 82.098Z" fill="white"/>
</svg>
