<svg width="90" height="93" viewBox="0 0 90 93" fill="none" xmlns="http://www.w3.org/2000/svg">
<path d="M23.272 75V66.6H24.544L28.228 72.732H27.544L31.168 66.6H32.44L32.464 75H30.976L30.964 68.916H31.276L28.204 74.04H27.508L24.388 68.916H24.748V75H23.272ZM37.6347 75.084C36.9227 75.084 36.2987 74.944 35.7627 74.664C35.2347 74.376 34.8227 73.984 34.5267 73.488C34.2387 72.992 34.0947 72.428 34.0947 71.796C34.0947 71.156 34.2347 70.592 34.5147 70.104C34.8027 69.608 35.1947 69.22 35.6907 68.94C36.1947 68.66 36.7667 68.52 37.4067 68.52C38.0307 68.52 38.5867 68.656 39.0747 68.928C39.5627 69.2 39.9467 69.584 40.2267 70.08C40.5067 70.576 40.6467 71.16 40.6467 71.832C40.6467 71.896 40.6427 71.968 40.6347 72.048C40.6347 72.128 40.6307 72.204 40.6227 72.276H35.2827V71.28H39.8307L39.2427 71.592C39.2507 71.224 39.1747 70.9 39.0147 70.62C38.8547 70.34 38.6347 70.12 38.3547 69.96C38.0827 69.8 37.7667 69.72 37.4067 69.72C37.0387 69.72 36.7147 69.8 36.4347 69.96C36.1627 70.12 35.9467 70.344 35.7867 70.632C35.6347 70.912 35.5587 71.244 35.5587 71.628V71.868C35.5587 72.252 35.6467 72.592 35.8227 72.888C35.9987 73.184 36.2467 73.412 36.5667 73.572C36.8867 73.732 37.2547 73.812 37.6707 73.812C38.0307 73.812 38.3547 73.756 38.6427 73.644C38.9307 73.532 39.1867 73.356 39.4107 73.116L40.2147 74.04C39.9267 74.376 39.5627 74.636 39.1227 74.82C38.6907 74.996 38.1947 75.084 37.6347 75.084ZM46.5953 73.728L46.2713 74.088V68.592H47.7713V74.088L47.4113 73.728H50.5793L50.2313 74.088V68.592H51.7313V75H42.2873V68.592H43.7873V74.088L43.4393 73.728H46.5953ZM56.6042 75.084C55.9482 75.084 55.3642 74.944 54.8522 74.664C54.3402 74.376 53.9362 73.984 53.6402 73.488C53.3442 72.992 53.1962 72.428 53.1962 71.796C53.1962 71.156 53.3442 70.592 53.6402 70.104C53.9362 69.608 54.3402 69.22 54.8522 68.94C55.3642 68.66 55.9482 68.52 56.6042 68.52C57.2682 68.52 57.8562 68.66 58.3682 68.94C58.8882 69.22 59.2922 69.604 59.5802 70.092C59.8762 70.58 60.0242 71.148 60.0242 71.796C60.0242 72.428 59.8762 72.992 59.5802 73.488C59.2922 73.984 58.8882 74.376 58.3682 74.664C57.8562 74.944 57.2682 75.084 56.6042 75.084ZM56.6042 73.8C56.9722 73.8 57.3002 73.72 57.5882 73.56C57.8762 73.4 58.1002 73.168 58.2602 72.864C58.4282 72.56 58.5122 72.204 58.5122 71.796C58.5122 71.38 58.4282 71.024 58.2602 70.728C58.1002 70.424 57.8762 70.192 57.5882 70.032C57.3002 69.872 56.9762 69.792 56.6162 69.792C56.2482 69.792 55.9202 69.872 55.6322 70.032C55.3522 70.192 55.1282 70.424 54.9602 70.728C54.7922 71.024 54.7082 71.38 54.7082 71.796C54.7082 72.204 54.7922 72.56 54.9602 72.864C55.1282 73.168 55.3522 73.4 55.6322 73.56C55.9202 73.72 56.2442 73.8 56.6042 73.8ZM66.102 75L63.786 71.928L65.01 71.172L67.866 75H66.102ZM61.506 75V68.592H63.006V75H61.506ZM62.562 72.432V71.184H64.734V72.432H62.562ZM65.154 71.976L63.75 71.808L66.102 68.592H67.71L65.154 71.976ZM14.8889 90V83.592H16.3889V86.196H19.6169V83.592H21.1169V90H19.6169V87.468H16.3889V90H14.8889ZM27.0151 90V88.704L26.9311 88.428V86.16C26.9311 85.72 26.7991 85.38 26.5351 85.14C26.2711 84.892 25.8711 84.768 25.3351 84.768C24.9751 84.768 24.6191 84.824 24.2671 84.936C23.9231 85.048 23.6311 85.204 23.3911 85.404L22.8031 84.312C23.1471 84.048 23.5551 83.852 24.0271 83.724C24.5071 83.588 25.0031 83.52 25.5151 83.52C26.4431 83.52 27.1591 83.744 27.6631 84.192C28.1751 84.632 28.4311 85.316 28.4311 86.244V90H27.0151ZM24.9991 90.084C24.5191 90.084 24.0991 90.004 23.7391 89.844C23.3791 89.676 23.0991 89.448 22.8991 89.16C22.7071 88.864 22.6111 88.532 22.6111 88.164C22.6111 87.804 22.6951 87.48 22.8631 87.192C23.0391 86.904 23.3231 86.676 23.7151 86.508C24.1071 86.34 24.6271 86.256 25.2751 86.256H27.1351V87.252H25.3831C24.8711 87.252 24.5271 87.336 24.3511 87.504C24.1751 87.664 24.0871 87.864 24.0871 88.104C24.0871 88.376 24.1951 88.592 24.4111 88.752C24.6271 88.912 24.9271 88.992 25.3111 88.992C25.6791 88.992 26.0071 88.908 26.2951 88.74C26.5911 88.572 26.8031 88.324 26.9311 87.996L27.1831 88.896C27.0391 89.272 26.7791 89.564 26.4031 89.772C26.0351 89.98 25.5671 90.084 24.9991 90.084ZM33.6037 90V83.592H38.5237V84.864H34.7557L35.1037 84.528V90H33.6037ZM42.1902 90.084C41.5342 90.084 40.9502 89.944 40.4382 89.664C39.9262 89.376 39.5222 88.984 39.2262 88.488C38.9302 87.992 38.7822 87.428 38.7822 86.796C38.7822 86.156 38.9302 85.592 39.2262 85.104C39.5222 84.608 39.9262 84.22 40.4382 83.94C40.9502 83.66 41.5342 83.52 42.1902 83.52C42.8542 83.52 43.4422 83.66 43.9542 83.94C44.4742 84.22 44.8782 84.604 45.1662 85.092C45.4622 85.58 45.6102 86.148 45.6102 86.796C45.6102 87.428 45.4622 87.992 45.1662 88.488C44.8782 88.984 44.4742 89.376 43.9542 89.664C43.4422 89.944 42.8542 90.084 42.1902 90.084ZM42.1902 88.8C42.5582 88.8 42.8862 88.72 43.1742 88.56C43.4622 88.4 43.6862 88.168 43.8462 87.864C44.0142 87.56 44.0982 87.204 44.0982 86.796C44.0982 86.38 44.0142 86.024 43.8462 85.728C43.6862 85.424 43.4622 85.192 43.1742 85.032C42.8862 84.872 42.5622 84.792 42.2022 84.792C41.8342 84.792 41.5062 84.872 41.2182 85.032C40.9382 85.192 40.7142 85.424 40.5462 85.728C40.3782 86.024 40.2942 86.38 40.2942 86.796C40.2942 87.204 40.3782 87.56 40.5462 87.864C40.7142 88.168 40.9382 88.4 41.2182 88.56C41.5062 88.72 41.8302 88.8 42.1902 88.8ZM46.0857 89.988L46.1577 88.728C46.2137 88.736 46.2657 88.744 46.3137 88.752C46.3617 88.76 46.4057 88.764 46.4457 88.764C46.6937 88.764 46.8857 88.688 47.0217 88.536C47.1577 88.384 47.2577 88.18 47.3217 87.924C47.3937 87.66 47.4417 87.368 47.4657 87.048C47.4977 86.72 47.5217 86.392 47.5377 86.064L47.6457 83.592H52.8297V90H51.3297V84.456L51.6777 84.864H48.6297L48.9537 84.444L48.8697 86.136C48.8457 86.704 48.7977 87.232 48.7257 87.72C48.6617 88.2 48.5577 88.62 48.4137 88.98C48.2777 89.34 48.0857 89.62 47.8377 89.82C47.5977 90.02 47.2897 90.12 46.9137 90.12C46.7937 90.12 46.6617 90.108 46.5177 90.084C46.3817 90.06 46.2377 90.028 46.0857 89.988ZM57.7058 90.084C57.0498 90.084 56.4658 89.944 55.9538 89.664C55.4418 89.376 55.0378 88.984 54.7418 88.488C54.4458 87.992 54.2978 87.428 54.2978 86.796C54.2978 86.156 54.4458 85.592 54.7418 85.104C55.0378 84.608 55.4418 84.22 55.9538 83.94C56.4658 83.66 57.0498 83.52 57.7058 83.52C58.3698 83.52 58.9578 83.66 59.4698 83.94C59.9898 84.22 60.3938 84.604 60.6818 85.092C60.9778 85.58 61.1258 86.148 61.1258 86.796C61.1258 87.428 60.9778 87.992 60.6818 88.488C60.3938 88.984 59.9898 89.376 59.4698 89.664C58.9578 89.944 58.3698 90.084 57.7058 90.084ZM57.7058 88.8C58.0738 88.8 58.4018 88.72 58.6898 88.56C58.9778 88.4 59.2018 88.168 59.3618 87.864C59.5298 87.56 59.6138 87.204 59.6138 86.796C59.6138 86.38 59.5298 86.024 59.3618 85.728C59.2018 85.424 58.9778 85.192 58.6898 85.032C58.4018 84.872 58.0778 84.792 57.7178 84.792C57.3498 84.792 57.0218 84.872 56.7338 85.032C56.4538 85.192 56.2298 85.424 56.0618 85.728C55.8938 86.024 55.8098 86.38 55.8098 86.796C55.8098 87.204 55.8938 87.56 56.0618 87.864C56.2298 88.168 56.4538 88.4 56.7338 88.56C57.0218 88.72 57.3458 88.8 57.7058 88.8ZM62.6076 90V83.592H65.7396C66.5156 83.592 67.1236 83.736 67.5636 84.024C68.0116 84.312 68.2356 84.72 68.2356 85.248C68.2356 85.768 68.0276 86.176 67.6116 86.472C67.1956 86.76 66.6436 86.904 65.9556 86.904L66.1356 86.532C66.9116 86.532 67.4876 86.676 67.8636 86.964C68.2476 87.244 68.4396 87.656 68.4396 88.2C68.4396 88.768 68.2276 89.212 67.8036 89.532C67.3796 89.844 66.7356 90 65.8716 90H62.6076ZM64.0356 88.908H65.7516C66.1596 88.908 66.4676 88.844 66.6756 88.716C66.8836 88.58 66.9876 88.376 66.9876 88.104C66.9876 87.816 66.8916 87.604 66.6996 87.468C66.5076 87.332 66.2076 87.264 65.7996 87.264H64.0356V88.908ZM64.0356 86.268H65.6076C65.9916 86.268 66.2796 86.2 66.4716 86.064C66.6716 85.92 66.7716 85.72 66.7716 85.464C66.7716 85.2 66.6716 85.004 66.4716 84.876C66.2796 84.748 65.9916 84.684 65.6076 84.684H64.0356V86.268ZM70.6133 92.412C70.3013 92.412 69.9893 92.36 69.6773 92.256C69.3653 92.152 69.1053 92.008 68.8973 91.824L69.4973 90.72C69.6493 90.856 69.8213 90.964 70.0133 91.044C70.2053 91.124 70.4013 91.164 70.6013 91.164C70.8733 91.164 71.0933 91.096 71.2613 90.96C71.4293 90.824 71.5853 90.596 71.7293 90.276L72.1013 89.436L72.2213 89.256L74.6453 83.592H76.0853L73.0853 90.516C72.8853 90.996 72.6613 91.376 72.4133 91.656C72.1733 91.936 71.9013 92.132 71.5973 92.244C71.3013 92.356 70.9733 92.412 70.6133 92.412ZM71.9333 90.228L69.0413 83.592H70.6013L72.9533 89.124L71.9333 90.228Z" fill="white"/>
<g clip-path="url(#clip0_1548_41)">
<path d="M45 16.1666C48.5695 16.1665 52.0648 17.1852 55.0752 19.1031C58.0856 21.0209 60.4861 23.7582 61.9944 26.9933C63.5028 30.2284 64.0564 33.8268 63.5902 37.3656C63.1239 40.9045 61.6573 44.2367 59.3625 46.9708C61.9771 48.7 63.5979 50.9083 63.7396 53.3229L63.75 53.6666L45 57.8333L26.25 53.6666L26.2604 53.3229C26.4 50.9062 28.0229 48.6979 30.6354 46.9687C27.7969 43.5949 26.2434 39.3257 26.25 34.9166C26.25 29.9438 28.2255 25.1747 31.7418 21.6584C35.2581 18.1421 40.0272 16.1666 45 16.1666ZM45 20.3333C41.1323 20.3333 37.423 21.8697 34.688 24.6047C31.9531 27.3396 30.4167 31.0489 30.4167 34.9166C30.4167 38.1812 31.4875 41.2708 33.4271 43.7937L33.8271 44.2916L36.8334 47.8687L32.7459 50.575L32.4604 50.777L45 53.5645L57.5375 50.777L57.4354 50.702L57.0646 50.4458L53.1667 47.8687L56.1729 44.2895C58.3819 41.6665 59.5901 38.3458 59.5834 34.9166C59.5834 31.0489 58.0469 27.3396 55.312 24.6047C52.5771 21.8697 48.8678 20.3333 45 20.3333ZM45 39.0833C47.875 39.0833 50.2084 40.4833 50.2084 42.2083C50.2084 43.9333 47.875 45.3333 45 45.3333C42.125 45.3333 39.7917 43.9333 39.7917 42.2083C39.7917 40.4833 42.125 39.0833 45 39.0833ZM38.75 28.6666C41.0521 28.6666 42.9167 30.0666 42.9167 31.7916C42.9167 33.5166 41.0521 34.9166 38.75 34.9166C36.4479 34.9166 34.5834 33.5166 34.5834 31.7916C34.5834 30.0666 36.4479 28.6666 38.75 28.6666ZM51.25 28.6666C53.5521 28.6666 55.4167 30.0666 55.4167 31.7916C55.4167 33.5166 53.5521 34.9166 51.25 34.9166C48.9479 34.9166 47.0834 33.5166 47.0834 31.7916C47.0834 30.0666 48.9479 28.6666 51.25 28.6666Z" fill="white"/>
</g>
<defs>
<clipPath id="clip0_1548_41">
<rect width="50" height="50" fill="white" transform="translate(20 12)"/>
</clipPath>
</defs>
</svg>
