<svg width="90" height="90" viewBox="0 0 90 90" fill="none" xmlns="http://www.w3.org/2000/svg">
<path d="M29.9616 25.786C32.0535 25.786 33.7494 23.8731 33.7494 21.5134C33.7494 19.1536 32.0535 17.2407 29.9616 17.2407C27.8696 17.2407 26.1737 19.1536 26.1737 21.5134C26.1737 23.8731 27.8696 25.786 29.9616 25.786Z" fill="white"/>
<path d="M42.2194 30.7114C43.1664 30.7114 43.9029 29.8806 43.9029 28.8125C43.9029 28.3377 43.7451 27.863 43.482 27.5663H44.6394C44.9551 27.5663 45.2181 27.3289 45.3759 27.0322L45.7442 25.9047H48.2694C48.4273 25.9047 48.5325 25.786 48.5325 25.608V25.1333C48.5325 25.0739 48.5851 25.0146 48.6377 25.0146H48.6903C48.7429 25.0146 48.7955 24.9553 48.7955 24.8959V23.8278C48.7955 23.7684 48.7429 23.7091 48.6903 23.7091H48.322C48.2694 23.7091 48.2694 23.7091 48.2168 23.6497C48.1642 23.4717 47.9012 23.531 47.9012 23.531L47.796 23.6497C47.7433 23.7091 47.6907 23.7684 47.5855 23.7684H41.9564C41.9037 23.7684 41.9037 23.7684 41.8511 23.7684L41.325 23.531C41.1672 23.4717 41.0094 23.531 40.9568 23.7091V23.7684H40.799C40.6937 23.7684 40.5885 23.8871 40.5359 24.0058C40.4833 24.3618 40.3255 25.0739 40.115 25.252C39.852 25.4893 39.9572 25.7267 40.2203 25.8454C40.4833 25.9641 41.062 25.7267 40.7463 26.7355C40.7463 26.7949 40.7463 26.7949 40.6937 26.8542H29.9615C24.2271 26.8542 20.5445 31.6016 20.3867 31.8389C20.0184 32.3137 19.9132 32.9664 20.071 33.6192L21.0706 37.5358C21.281 38.3666 21.9649 38.9006 22.7015 38.9006C22.8593 38.9006 23.0171 38.9006 23.175 38.8413C24.0693 38.5446 24.5954 37.4764 24.3323 36.4676L23.5958 33.6192C24.1219 33.0851 24.911 32.4323 25.9632 31.8389L25.9106 40.0875L21.2284 53.9735C20.8602 55.0417 21.3336 56.2879 22.3332 56.7032C22.5436 56.8219 22.7541 56.8219 23.0171 56.8219C23.7537 56.8219 24.4902 56.2879 24.7532 55.4571L29.5406 41.2743H30.3298L30.3824 54.8043C30.3824 55.9911 31.2241 56.8813 32.2763 56.8813C33.3285 56.8813 34.1702 55.9318 34.1176 54.745L33.9598 30.7114H42.2194ZM43.4294 26.0828C43.482 25.9641 43.5872 25.8454 43.6925 25.8454H43.7451C43.8503 26.2014 44.0081 26.6762 44.2185 26.7949C44.5868 26.7949 44.0607 26.3795 44.2185 25.8454H45.2181L44.9025 26.7949C44.8498 26.9135 44.7446 27.0322 44.5868 27.0322H43.1138L43.4294 26.0828Z" fill="white"/>
<path d="M60.6326 26.1419C62.7245 26.1419 64.4204 24.229 64.4204 21.8693C64.4204 19.5096 62.7245 17.5967 60.6326 17.5967C58.5406 17.5967 56.8447 19.5096 56.8447 21.8693C56.8447 24.229 58.5406 26.1419 60.6326 26.1419Z" fill="white"/>
<path d="M68.5766 17.0035C67.7348 16.9441 67.0509 17.6562 66.9983 18.6057L66.7878 23.175C66.7352 23.8278 66.4722 24.3619 65.9987 24.7179L63.8944 26.3202C61.9478 27.8037 59.3174 27.8037 57.3708 26.3202L55.2665 24.7179C54.793 24.3619 54.53 23.7684 54.4773 23.175L54.2669 18.6057C54.2143 17.6562 53.5304 16.9441 52.6886 17.0035C51.8469 17.0628 51.2156 17.8342 51.2682 18.7837L51.4786 23.3531C51.5312 25.0146 52.3204 26.6169 53.583 27.5663L55.6874 29.1686C56.1082 29.5246 56.5817 29.762 57.0552 29.9994L56.7395 36.1709H64.5257L64.21 29.9994C64.6835 29.762 65.157 29.4653 65.5778 29.1686L67.6822 27.5663C68.8922 26.6169 69.6813 25.074 69.7866 23.3531L69.997 18.7837C70.0496 17.8936 69.4183 17.0628 68.5766 17.0035Z" fill="white"/>
<path d="M67.2087 38.3667H50.8999C52.373 40.2063 53.5304 42.6393 53.5304 45.013C53.5304 49.701 50.4265 52.7868 45.7969 52.7868V54.8638C45.7969 56.0506 46.6386 57.0001 47.6908 57.0001H67.2087C68.2609 57.0001 69.1027 56.0506 69.1027 54.8638V40.503C69.1027 39.3162 68.2609 38.3667 67.2087 38.3667Z" fill="white"/>
<path d="M51.6363 45.0129C51.6363 42.3425 49.4268 39.3754 47.6381 37.8325C48.1642 36.5864 48.7428 35.1622 48.7428 34.5687C48.7428 33.8566 47.9537 33.5006 47.4802 34.2127C46.8489 35.2215 46.5859 33.7379 45.8494 33.7379C45.1128 33.7379 44.7446 35.1028 44.1659 34.1533C43.6398 33.3226 42.798 33.8566 42.798 34.45C42.798 35.2215 43.3241 36.6457 43.8502 37.7732C42.0615 39.3161 39.9045 42.2239 39.9045 44.8942C39.9045 48.7515 42.535 50.5911 45.7967 50.5911C49.0585 50.7098 51.6363 48.8702 51.6363 45.0129ZM45.218 47.9207V47.2679C44.5341 47.1492 43.9554 46.5558 43.9028 45.725C43.9028 45.6657 43.9028 45.6064 43.9554 45.547C44.008 45.4877 44.0606 45.4877 44.1133 45.4877H44.7972C44.9024 45.4877 45.0076 45.547 45.0076 45.6657C45.0602 45.8437 45.218 46.0217 45.3759 46.0217H45.9546C46.2702 46.0217 46.5333 45.7844 46.5859 45.4283C46.5859 45.2503 46.5333 45.0723 46.4281 44.8942C46.3228 44.7756 46.165 44.6569 46.0072 44.6569H45.5863C44.692 44.6569 43.9028 43.8854 43.7976 42.8766C43.6924 41.8678 44.3237 40.9777 45.218 40.7996V40.0875C45.218 39.9689 45.3233 39.8502 45.4285 39.8502H46.1124C46.2176 39.8502 46.3228 39.9689 46.3228 40.0875V40.7403C47.0068 40.859 47.5855 41.4524 47.6381 42.2832C47.6381 42.3425 47.6381 42.4019 47.5855 42.4612C47.5328 42.5206 47.4802 42.5206 47.4276 42.5206H46.7437C46.6385 42.5206 46.5333 42.4612 46.5333 42.3425C46.4807 42.1645 46.3228 41.9865 46.165 41.9865H45.5863C45.2707 41.9865 45.0076 42.2239 44.955 42.5799C44.955 42.7579 45.0076 42.936 45.1128 43.114C45.218 43.2327 45.3759 43.3514 45.5337 43.3514H46.0598C46.5333 43.3514 47.0068 43.5887 47.3224 44.0041C47.6381 44.4195 47.7959 44.9536 47.7433 45.4877C47.6907 46.3185 47.112 47.0306 46.3228 47.2086V47.9207C46.3228 48.0394 46.2176 48.1581 46.1124 48.1581H45.4285C45.3233 48.2174 45.218 48.0987 45.218 47.9207Z" fill="white"/>
<path d="M15.2316 80.14C14.4662 80.14 13.7616 80.014 13.1176 79.762C12.4736 79.51 11.9136 79.16 11.4376 78.712C10.9616 78.2547 10.5929 77.7227 10.3316 77.116C10.0702 76.5 9.93957 75.828 9.93957 75.1C9.93957 74.372 10.0702 73.7047 10.3316 73.098C10.5929 72.482 10.9616 71.95 11.4376 71.502C11.9136 71.0447 12.4736 70.69 13.1176 70.438C13.7616 70.186 14.4616 70.06 15.2176 70.06C15.9829 70.06 16.6829 70.186 17.3176 70.438C17.9616 70.69 18.5216 71.0447 18.9976 71.502C19.4736 71.95 19.8422 72.482 20.1036 73.098C20.3649 73.7047 20.4956 74.372 20.4956 75.1C20.4956 75.828 20.3649 76.5 20.1036 77.116C19.8422 77.732 19.4736 78.264 18.9976 78.712C18.5216 79.16 17.9616 79.51 17.3176 79.762C16.6829 80.014 15.9876 80.14 15.2316 80.14ZM15.2176 78.544C15.7122 78.544 16.1696 78.46 16.5896 78.292C17.0096 78.124 17.3736 77.886 17.6816 77.578C17.9896 77.2607 18.2276 76.8967 18.3956 76.486C18.5729 76.066 18.6616 75.604 18.6616 75.1C18.6616 74.596 18.5729 74.1387 18.3956 73.728C18.2276 73.308 17.9896 72.944 17.6816 72.636C17.3736 72.3187 17.0096 72.076 16.5896 71.908C16.1696 71.74 15.7122 71.656 15.2176 71.656C14.7229 71.656 14.2656 71.74 13.8456 71.908C13.4349 72.076 13.0709 72.3187 12.7536 72.636C12.4456 72.944 12.2029 73.308 12.0256 73.728C11.8576 74.1387 11.7736 74.596 11.7736 75.1C11.7736 75.5947 11.8576 76.052 12.0256 76.472C12.2029 76.892 12.4456 77.2607 12.7536 77.578C13.0616 77.886 13.4256 78.124 13.8456 78.292C14.2656 78.46 14.7229 78.544 15.2176 78.544ZM22.3117 80V72.524H28.0517V74.008H23.6557L24.0617 73.616V80H22.3117ZM33.4694 80.098C32.8627 80.098 32.3074 79.958 31.8034 79.678C31.3087 79.398 30.9121 78.978 30.6134 78.418C30.3241 77.8487 30.1794 77.13 30.1794 76.262C30.1794 75.3847 30.3194 74.666 30.5994 74.106C30.8887 73.546 31.2807 73.1307 31.7754 72.86C32.2701 72.58 32.8347 72.44 33.4694 72.44C34.2067 72.44 34.8554 72.5987 35.4154 72.916C35.9847 73.2333 36.4327 73.6767 36.7594 74.246C37.0954 74.8153 37.2634 75.4873 37.2634 76.262C37.2634 77.0367 37.0954 77.7133 36.7594 78.292C36.4327 78.8613 35.9847 79.3047 35.4154 79.622C34.8554 79.9393 34.2067 80.098 33.4694 80.098ZM29.3254 82.716V72.524H30.9914V74.288L30.9354 76.276L31.0754 78.264V82.716H29.3254ZM33.2734 78.6C33.6934 78.6 34.0667 78.5067 34.3934 78.32C34.7294 78.1333 34.9954 77.8627 35.1914 77.508C35.3874 77.1533 35.4854 76.738 35.4854 76.262C35.4854 75.7767 35.3874 75.3613 35.1914 75.016C34.9954 74.6613 34.7294 74.3907 34.3934 74.204C34.0667 74.0173 33.6934 73.924 33.2734 73.924C32.8534 73.924 32.4754 74.0173 32.1394 74.204C31.8034 74.3907 31.5374 74.6613 31.3414 75.016C31.1454 75.3613 31.0474 75.7767 31.0474 76.262C31.0474 76.738 31.1454 77.1533 31.3414 77.508C31.5374 77.8627 31.8034 78.1333 32.1394 78.32C32.4754 78.5067 32.8534 78.6 33.2734 78.6ZM43.4454 80V78.488L43.3474 78.166V75.52C43.3474 75.0067 43.1934 74.61 42.8854 74.33C42.5774 74.0407 42.1107 73.896 41.4854 73.896C41.0654 73.896 40.6501 73.9613 40.2394 74.092C39.8381 74.2227 39.4974 74.4047 39.2174 74.638L38.5314 73.364C38.9327 73.056 39.4087 72.8273 39.9594 72.678C40.5194 72.5193 41.0981 72.44 41.6954 72.44C42.7781 72.44 43.6134 72.7013 44.2014 73.224C44.7987 73.7373 45.0974 74.5353 45.0974 75.618V80H43.4454ZM41.0934 80.098C40.5334 80.098 40.0434 80.0047 39.6234 79.818C39.2034 79.622 38.8767 79.356 38.6434 79.02C38.4194 78.6747 38.3074 78.2873 38.3074 77.858C38.3074 77.438 38.4054 77.06 38.6014 76.724C38.8067 76.388 39.1381 76.122 39.5954 75.926C40.0527 75.73 40.6594 75.632 41.4154 75.632H43.5854V76.794H41.5414C40.9441 76.794 40.5427 76.892 40.3374 77.088C40.1321 77.2747 40.0294 77.508 40.0294 77.788C40.0294 78.1053 40.1554 78.3573 40.4074 78.544C40.6594 78.7307 41.0094 78.824 41.4574 78.824C41.8867 78.824 42.2694 78.726 42.6054 78.53C42.9507 78.334 43.1981 78.0447 43.3474 77.662L43.6414 78.712C43.4734 79.1507 43.1701 79.4913 42.7314 79.734C42.3021 79.9767 41.7561 80.098 41.0934 80.098ZM50.8329 80.14C50.2169 80.14 49.6662 80.0467 49.1809 79.86C48.6956 79.6733 48.2756 79.3887 47.9209 79.006C47.5756 78.614 47.3096 78.1193 47.1229 77.522C46.9362 76.9247 46.8429 76.2153 46.8429 75.394C46.8429 74.7967 46.8942 74.2507 46.9969 73.756C47.0996 73.2613 47.2536 72.818 47.4589 72.426C47.6642 72.0247 47.9209 71.67 48.2289 71.362C48.5462 71.054 48.9149 70.7973 49.3349 70.592C49.7549 70.3867 50.2309 70.228 50.7629 70.116L54.2349 69.374L54.4869 70.942L51.3369 71.586C51.1596 71.6233 50.9449 71.6793 50.6929 71.754C50.4502 71.8193 50.1982 71.922 49.9369 72.062C49.6849 72.1927 49.4469 72.384 49.2229 72.636C49.0082 72.8787 48.8309 73.196 48.6909 73.588C48.5602 73.9707 48.4949 74.4513 48.4949 75.03C48.4949 75.2073 48.4996 75.3427 48.5089 75.436C48.5276 75.52 48.5416 75.6133 48.5509 75.716C48.5696 75.8093 48.5789 75.9493 48.5789 76.136L47.9209 75.45C48.1076 74.974 48.3642 74.568 48.6909 74.232C49.0269 73.8867 49.4142 73.6253 49.8529 73.448C50.3009 73.2613 50.7862 73.168 51.3089 73.168C52.0089 73.168 52.6296 73.3127 53.1709 73.602C53.7122 73.8913 54.1369 74.2973 54.4449 74.82C54.7529 75.3427 54.9069 75.9353 54.9069 76.598C54.9069 77.2887 54.7389 77.9 54.4029 78.432C54.0669 78.964 53.5909 79.384 52.9749 79.692C52.3682 79.9907 51.6542 80.14 50.8329 80.14ZM50.9729 78.726C51.3929 78.726 51.7616 78.6373 52.0789 78.46C52.4056 78.2733 52.6576 78.0213 52.8349 77.704C53.0216 77.3867 53.1149 77.032 53.1149 76.64C53.1149 76.248 53.0216 75.9073 52.8349 75.618C52.6576 75.3193 52.4056 75.0813 52.0789 74.904C51.7616 74.7267 51.3836 74.638 50.9449 74.638C50.5249 74.638 50.1469 74.722 49.8109 74.89C49.4842 75.058 49.2276 75.2913 49.0409 75.59C48.8636 75.8793 48.7749 76.2153 48.7749 76.598C48.7749 76.99 48.8682 77.3493 49.0549 77.676C49.2416 78.0027 49.4982 78.2593 49.8249 78.446C50.1609 78.6327 50.5436 78.726 50.9729 78.726ZM56.6008 80V72.524H58.3508V77.452L62.4808 72.524H64.0768V80H62.3268V75.072L58.2108 80H56.6008ZM67.9849 80V73.588L68.3909 74.008H65.3529V72.524H72.3529V74.008H69.3289L69.7349 73.588V80H67.9849ZM77.3743 74.988C78.3356 74.988 79.0683 75.2027 79.5723 75.632C80.0763 76.0613 80.3283 76.668 80.3283 77.452C80.3283 78.264 80.0483 78.8987 79.4883 79.356C78.9283 79.804 78.1396 80.0233 77.1223 80.014L73.6223 80V72.524H75.3723V74.974L77.3743 74.988ZM76.9683 78.726C77.4816 78.7353 77.8736 78.628 78.1443 78.404C78.415 78.18 78.5503 77.8533 78.5503 77.424C78.5503 76.9947 78.415 76.6867 78.1443 76.5C77.883 76.304 77.491 76.2013 76.9683 76.192L75.3723 76.178V78.712L76.9683 78.726Z" fill="white"/>
</svg>
