<svg width="90" height="93" viewBox="0 0 90 93" fill="none" xmlns="http://www.w3.org/2000/svg">
<path d="M22.6919 75V66.6H26.4479C27.3919 66.6 28.1279 66.788 28.6559 67.164C29.1839 67.532 29.4479 68.064 29.4479 68.76C29.4479 69.448 29.1959 69.98 28.6919 70.356C28.1879 70.724 27.5239 70.908 26.6999 70.908L26.9159 70.476C27.8519 70.476 28.5759 70.664 29.0879 71.04C29.5999 71.416 29.8559 71.96 29.8559 72.672C29.8559 73.4 29.5879 73.972 29.0519 74.388C28.5159 74.796 27.7239 75 26.6759 75H22.6919ZM24.2279 73.8H26.6279C27.1719 73.8 27.5839 73.7 27.8639 73.5C28.1439 73.292 28.2839 72.976 28.2839 72.552C28.2839 72.128 28.1439 71.82 27.8639 71.628C27.5839 71.428 27.1719 71.328 26.6279 71.328H24.2279V73.8ZM24.2279 70.188H26.3159C26.8199 70.188 27.2039 70.088 27.4679 69.888C27.7319 69.68 27.8639 69.384 27.8639 69C27.8639 68.6 27.7319 68.3 27.4679 68.1C27.2039 67.9 26.8199 67.8 26.3159 67.8H24.2279V70.188ZM33.493 75.108C33.005 75.108 32.521 75.052 32.041 74.94C31.569 74.82 31.141 74.652 30.757 74.436L31.177 73.32C31.489 73.496 31.841 73.632 32.233 73.728C32.625 73.824 33.017 73.872 33.409 73.872C33.745 73.872 34.033 73.84 34.273 73.776C34.513 73.704 34.697 73.6 34.825 73.464C34.961 73.328 35.029 73.172 35.029 72.996C35.029 72.74 34.917 72.548 34.693 72.42C34.477 72.284 34.165 72.216 33.757 72.216H32.521V71.208H33.637C33.893 71.208 34.109 71.18 34.285 71.124C34.469 71.068 34.609 70.984 34.705 70.872C34.801 70.76 34.849 70.628 34.849 70.476C34.849 70.324 34.789 70.192 34.669 70.08C34.557 69.96 34.393 69.872 34.177 69.816C33.961 69.752 33.701 69.72 33.397 69.72C33.077 69.72 32.745 69.76 32.401 69.84C32.065 69.92 31.721 70.036 31.369 70.188L30.985 69.084C31.393 68.9 31.789 68.76 32.173 68.664C32.565 68.56 32.953 68.504 33.337 68.496C33.921 68.472 34.441 68.532 34.897 68.676C35.353 68.82 35.713 69.028 35.977 69.3C36.241 69.572 36.373 69.892 36.373 70.26C36.373 70.564 36.277 70.84 36.085 71.088C35.901 71.328 35.645 71.516 35.317 71.652C34.997 71.788 34.629 71.856 34.213 71.856L34.261 71.532C34.973 71.532 35.533 71.676 35.941 71.964C36.349 72.244 36.553 72.628 36.553 73.116C36.553 73.508 36.421 73.856 36.157 74.16C35.893 74.456 35.529 74.688 35.065 74.856C34.609 75.024 34.085 75.108 33.493 75.108ZM42.1658 75V72.816L42.3818 73.068H40.4618C39.5818 73.068 38.8898 72.884 38.3858 72.516C37.8898 72.14 37.6418 71.6 37.6418 70.896C37.6418 70.144 37.9058 69.572 38.4338 69.18C38.9698 68.788 39.6818 68.592 40.5698 68.592H43.5098V75H42.1658ZM37.5578 75L39.2858 72.552H40.8218L39.1658 75H37.5578ZM42.1658 72.336V69.456L42.3818 69.852H40.6178C40.1538 69.852 39.7938 69.94 39.5378 70.116C39.2898 70.284 39.1658 70.56 39.1658 70.944C39.1658 71.664 39.6338 72.024 40.5698 72.024H42.3818L42.1658 72.336ZM46.8595 75V69.504L47.2075 69.864H44.6035V68.592H50.6035V69.864H48.0115L48.3595 69.504V75H46.8595ZM54.9076 70.704C55.7316 70.704 56.3596 70.888 56.7916 71.256C57.2236 71.624 57.4396 72.144 57.4396 72.816C57.4396 73.512 57.1996 74.056 56.7196 74.448C56.2396 74.832 55.5636 75.02 54.6916 75.012L51.6916 75V68.592H53.1916V70.692L54.9076 70.704ZM54.5596 73.908C54.9996 73.916 55.3356 73.824 55.5676 73.632C55.7996 73.44 55.9156 73.16 55.9156 72.792C55.9156 72.424 55.7996 72.16 55.5676 72C55.3436 71.832 55.0076 71.744 54.5596 71.736L53.1916 71.724V73.896L54.5596 73.908ZM62.0744 75V68.592H65.2064C65.9824 68.592 66.5904 68.736 67.0304 69.024C67.4784 69.312 67.7024 69.72 67.7024 70.248C67.7024 70.768 67.4944 71.176 67.0784 71.472C66.6624 71.76 66.1104 71.904 65.4224 71.904L65.6024 71.532C66.3784 71.532 66.9544 71.676 67.3304 71.964C67.7144 72.244 67.9064 72.656 67.9064 73.2C67.9064 73.768 67.6944 74.212 67.2704 74.532C66.8464 74.844 66.2024 75 65.3384 75H62.0744ZM63.5024 73.908H65.2184C65.6264 73.908 65.9344 73.844 66.1424 73.716C66.3504 73.58 66.4544 73.376 66.4544 73.104C66.4544 72.816 66.3584 72.604 66.1664 72.468C65.9744 72.332 65.6744 72.264 65.2664 72.264H63.5024V73.908ZM63.5024 71.268H65.0744C65.4584 71.268 65.7464 71.2 65.9384 71.064C66.1384 70.92 66.2384 70.72 66.2384 70.464C66.2384 70.2 66.1384 70.004 65.9384 69.876C65.7464 69.748 65.4584 69.684 65.0744 69.684H63.5024V71.268ZM11.9247 90.108C11.4367 90.108 10.9527 90.052 10.4727 89.94C10.0007 89.82 9.57267 89.652 9.18867 89.436L9.60867 88.32C9.92067 88.496 10.2727 88.632 10.6647 88.728C11.0567 88.824 11.4487 88.872 11.8407 88.872C12.1767 88.872 12.4647 88.84 12.7047 88.776C12.9447 88.704 13.1287 88.6 13.2567 88.464C13.3927 88.328 13.4607 88.172 13.4607 87.996C13.4607 87.74 13.3487 87.548 13.1247 87.42C12.9087 87.284 12.5967 87.216 12.1887 87.216H10.9527V86.208H12.0687C12.3247 86.208 12.5407 86.18 12.7167 86.124C12.9007 86.068 13.0407 85.984 13.1367 85.872C13.2327 85.76 13.2807 85.628 13.2807 85.476C13.2807 85.324 13.2207 85.192 13.1007 85.08C12.9887 84.96 12.8247 84.872 12.6087 84.816C12.3927 84.752 12.1327 84.72 11.8287 84.72C11.5087 84.72 11.1767 84.76 10.8327 84.84C10.4967 84.92 10.1527 85.036 9.80067 85.188L9.41667 84.084C9.82467 83.9 10.2207 83.76 10.6047 83.664C10.9967 83.56 11.3847 83.504 11.7687 83.496C12.3527 83.472 12.8727 83.532 13.3287 83.676C13.7847 83.82 14.1447 84.028 14.4087 84.3C14.6727 84.572 14.8047 84.892 14.8047 85.26C14.8047 85.564 14.7087 85.84 14.5167 86.088C14.3327 86.328 14.0767 86.516 13.7487 86.652C13.4287 86.788 13.0607 86.856 12.6447 86.856L12.6927 86.532C13.4047 86.532 13.9647 86.676 14.3727 86.964C14.7807 87.244 14.9847 87.628 14.9847 88.116C14.9847 88.508 14.8527 88.856 14.5887 89.16C14.3247 89.456 13.9607 89.688 13.4967 89.856C13.0407 90.024 12.5167 90.108 11.9247 90.108ZM20.4175 90V88.704L20.3335 88.428V86.16C20.3335 85.72 20.2015 85.38 19.9375 85.14C19.6735 84.892 19.2735 84.768 18.7375 84.768C18.3775 84.768 18.0215 84.824 17.6695 84.936C17.3255 85.048 17.0335 85.204 16.7935 85.404L16.2055 84.312C16.5495 84.048 16.9575 83.852 17.4295 83.724C17.9095 83.588 18.4055 83.52 18.9175 83.52C19.8455 83.52 20.5615 83.744 21.0655 84.192C21.5775 84.632 21.8335 85.316 21.8335 86.244V90H20.4175ZM18.4015 90.084C17.9215 90.084 17.5015 90.004 17.1415 89.844C16.7815 89.676 16.5015 89.448 16.3015 89.16C16.1095 88.864 16.0135 88.532 16.0135 88.164C16.0135 87.804 16.0975 87.48 16.2655 87.192C16.4415 86.904 16.7255 86.676 17.1175 86.508C17.5095 86.34 18.0295 86.256 18.6775 86.256H20.5375V87.252H18.7855C18.2735 87.252 17.9295 87.336 17.7535 87.504C17.5775 87.664 17.4895 87.864 17.4895 88.104C17.4895 88.376 17.5975 88.592 17.8135 88.752C18.0295 88.912 18.3295 88.992 18.7135 88.992C19.0815 88.992 19.4095 88.908 19.6975 88.74C19.9935 88.572 20.2055 88.324 20.3335 87.996L20.5855 88.896C20.4415 89.272 20.1815 89.564 19.8055 89.772C19.4375 89.98 18.9695 90.084 18.4015 90.084ZM22.7536 89.988L22.8256 88.728C22.8816 88.736 22.9336 88.744 22.9816 88.752C23.0296 88.76 23.0736 88.764 23.1136 88.764C23.3616 88.764 23.5536 88.688 23.6896 88.536C23.8256 88.384 23.9256 88.18 23.9896 87.924C24.0616 87.66 24.1096 87.368 24.1336 87.048C24.1656 86.72 24.1896 86.392 24.2056 86.064L24.3136 83.592H29.4976V90H27.9976V84.456L28.3456 84.864H25.2976L25.6216 84.444L25.5376 86.136C25.5136 86.704 25.4656 87.232 25.3936 87.72C25.3296 88.2 25.2256 88.62 25.0816 88.98C24.9456 89.34 24.7536 89.62 24.5056 89.82C24.2656 90.02 23.9576 90.12 23.5816 90.12C23.4616 90.12 23.3296 90.108 23.1856 90.084C23.0496 90.06 22.9056 90.028 22.7536 89.988ZM34.3738 90.084C33.7178 90.084 33.1338 89.944 32.6218 89.664C32.1098 89.376 31.7058 88.984 31.4098 88.488C31.1138 87.992 30.9658 87.428 30.9658 86.796C30.9658 86.156 31.1138 85.592 31.4098 85.104C31.7058 84.608 32.1098 84.22 32.6218 83.94C33.1338 83.66 33.7178 83.52 34.3738 83.52C35.0378 83.52 35.6258 83.66 36.1378 83.94C36.6578 84.22 37.0618 84.604 37.3498 85.092C37.6458 85.58 37.7938 86.148 37.7938 86.796C37.7938 87.428 37.6458 87.992 37.3498 88.488C37.0618 88.984 36.6578 89.376 36.1378 89.664C35.6258 89.944 35.0378 90.084 34.3738 90.084ZM34.3738 88.8C34.7418 88.8 35.0698 88.72 35.3578 88.56C35.6458 88.4 35.8698 88.168 36.0298 87.864C36.1978 87.56 36.2818 87.204 36.2818 86.796C36.2818 86.38 36.1978 86.024 36.0298 85.728C35.8698 85.424 35.6458 85.192 35.3578 85.032C35.0698 84.872 34.7458 84.792 34.3858 84.792C34.0178 84.792 33.6898 84.872 33.4018 85.032C33.1218 85.192 32.8978 85.424 32.7298 85.728C32.5618 86.024 32.4778 86.38 32.4778 86.796C32.4778 87.204 32.5618 87.56 32.7298 87.864C32.8978 88.168 33.1218 88.4 33.4018 88.56C33.6898 88.72 34.0138 88.8 34.3738 88.8ZM46.7086 90L44.8366 86.928L46.0606 86.172L48.4966 90H46.7086ZM43.6246 87.432V86.184H45.7726V87.432H43.6246ZM46.2046 86.976L44.7886 86.808L46.7326 83.592H48.3286L46.2046 86.976ZM39.9406 90H38.1646L40.5886 86.172L41.8126 86.928L39.9406 90ZM44.0686 90H42.5806V83.592H44.0686V90ZM43.0246 87.432H40.8886V86.184H43.0246V87.432ZM40.4446 86.976L38.3206 83.592H39.9166L41.8486 86.808L40.4446 86.976ZM49.6115 90V83.592H51.1115V86.196H54.3395V83.592H55.8395V90H54.3395V87.468H51.1115V90H49.6115ZM57.8498 90V83.592H59.3498V87.816L62.8898 83.592H64.2578V90H62.7578V85.776L59.2298 90H57.8498ZM70.8716 90L68.5556 86.928L69.7796 86.172L72.6356 90H70.8716ZM66.2756 90V83.592H67.7756V90H66.2756ZM67.3316 87.432V86.184H69.5036V87.432H67.3316ZM69.9236 86.976L68.5196 86.808L70.8716 83.592H72.4796L69.9236 86.976ZM73.6935 90V83.592H75.1935V87.816L78.7335 83.592H80.1015V90H78.6015V85.776L75.0735 90H73.6935Z" fill="white"/>
<path d="M60.8014 14.7273C61.1257 12.2339 59.3674 9.94964 56.874 9.62526C54.3805 9.30089 52.0963 11.0592 51.7719 13.5527C51.4475 16.0461 53.2059 18.3303 55.6993 18.6547C58.1927 18.9791 60.477 17.2207 60.8014 14.7273Z" fill="white"/>
<path d="M44.8792 20.012C44.8385 20.0205 44.7982 20.03 44.7576 20.0391C44.7916 20.05 44.8254 20.0615 44.8587 20.0743C44.8652 20.0536 44.8723 20.0328 44.8792 20.012Z" fill="white"/>
<path d="M54.2504 23.2409C53.734 24.694 52.6153 25.7574 51.2719 26.2449C51.8478 26.9262 52.3193 27.5221 52.7011 28.0517L52.9929 28.2245C53.0059 28.3227 53.017 28.4216 53.0265 28.5212C53.4244 29.1193 53.6593 29.5655 53.8169 30.0162C53.9462 30.428 54.0644 30.9077 53.8833 31.546C53.7558 31.9998 53.4102 32.4454 53.0039 32.6818C52.7586 32.8303 52.5247 32.9066 52.324 32.9477C52.1635 33.3765 51.9757 33.8231 51.7549 34.2925C51.6509 34.5924 51.4633 34.9799 51.3233 35.3567L41.1779 52.5694C40.4686 53.7726 40.8691 55.3234 42.0723 56.0327C42.4756 56.2702 42.9181 56.3833 43.3546 56.3833C44.2209 56.3833 45.0645 55.9382 45.536 55.1376L56.3888 36.7252C56.6379 36.72 56.8887 36.7262 57.141 36.7495L61.5282 43.6646L60.9655 53.9172C60.889 55.3121 61.9576 56.5049 63.3527 56.5814C63.3996 56.5841 63.4468 56.5853 63.4933 56.5853C64.8272 56.5853 65.9428 55.5421 66.0173 54.1945L66.6241 43.1324C66.6531 42.6042 66.5179 42.0852 66.234 41.6388L61.213 33.7241C61.3488 33.3279 61.4793 32.9418 61.6041 32.564C61.0559 32.7052 60.4762 32.8402 59.8548 32.9691C59.72 32.9974 59.5812 33.0112 59.4428 33.0112C58.4887 33.0112 57.6558 32.3325 57.4627 31.397C57.3531 30.8679 57.4567 30.3272 57.7535 29.8755C57.8452 29.7361 57.9535 29.6121 58.0728 29.5016L54.8192 24.7968L54.91 22.3518L59.304 28.9479C60.7132 28.646 61.8983 28.3065 62.8338 27.937C63.0376 26.7763 63.1495 25.5838 63.1501 24.275C63.5449 24.5394 63.9276 24.8252 64.2533 25.1186C64.6315 25.4557 64.9314 25.7993 65.1032 26.0785C65.2076 26.2459 65.2627 26.379 65.2906 26.4788C65.3098 26.548 65.3165 26.6014 65.3157 26.6372C65.3034 26.7326 65.3268 26.8232 65.0083 27.1583L65.0079 27.1581C64.7212 27.4455 64.1321 27.8455 63.1647 28.2419C62.1984 28.641 60.8645 29.041 59.1168 29.402C58.241 29.5829 57.6778 30.4393 57.8587 31.3153C58.0168 32.0804 58.6908 32.6069 59.4428 32.6069C59.5514 32.6069 59.6617 32.596 59.7722 32.5731C61.6624 32.1816 63.1754 31.7388 64.3984 31.2351C65.6107 30.7333 66.5474 30.1756 67.2628 29.4811C67.2684 29.4757 67.2749 29.4708 67.2806 29.4652C67.6458 29.1145 67.9459 28.7043 68.1634 28.2644C68.4188 27.7484 68.5599 27.1909 68.5534 26.6372C68.5429 25.4274 67.991 24.4603 67.3599 23.6857C66.3934 22.5204 65.121 21.6423 63.9686 20.9729C63.3919 20.6415 62.8466 20.3709 62.3739 20.1668C62.1365 20.0648 61.9182 19.9794 61.7108 19.909C61.5679 19.8624 61.4382 19.8218 61.2864 19.788C60.8906 19.6133 60.5051 19.5217 60.2287 19.5575C58.2707 19.7944 56.3132 20.0316 54.3558 20.2688C54.618 21.215 54.6035 22.2476 54.2504 23.2409Z" fill="white"/>
<path d="M22.9523 52.7436C23.1038 52.8381 23.2633 52.9104 23.4266 52.9607C24.2832 53.2262 25.2435 52.895 25.7403 52.0983C29.1925 46.5667 32.1183 43.5697 34.0998 41.978C34.8487 42.3264 35.6008 42.6625 36.355 42.9924C36.1668 43.4997 35.9641 44.0863 35.7587 44.7504C34.8734 47.6109 33.9423 51.8713 34.0338 57.0131C34.05 57.9089 34.6461 58.6586 35.458 58.91C35.6585 58.9719 35.8722 59.0036 36.0936 58.9996C37.211 58.9796 38.1001 58.0576 38.0803 56.9406C37.9965 52.3312 38.8371 48.4889 39.6249 45.9473C39.7874 45.4216 39.9472 44.9536 40.0961 44.5444C41.1547 44.9603 42.2166 45.3617 43.283 45.7411C43.8838 40.5176 45.2335 35.4559 47.2565 30.7022C47.3425 30.7526 47.4301 30.8038 47.5203 30.8558C48.5282 31.4319 49.7147 32.0766 50.7671 32.4096C51.1382 32.5181 51.4887 32.6118 51.9626 32.5891C52.1986 32.5725 52.4891 32.5215 52.8016 32.3321C53.1146 32.1504 53.3961 31.7874 53.4952 31.4361C53.6494 30.891 53.5438 30.4952 53.4351 30.1495C53.2544 29.6311 52.9659 29.1406 52.5339 28.5143C52.1204 27.9214 51.5708 27.2205 50.8529 26.3764C50.1404 26.5652 49.3789 26.597 48.6187 26.4446C48.3415 26.9153 48.3771 27.5289 48.7525 27.9672C49.0825 28.3518 49.3721 28.7023 49.6236 29.0178C49.3528 28.8725 49.0843 28.7221 48.8338 28.5764C48.4708 28.367 48.1377 28.1671 47.8661 28.0003C47.6233 27.837 47.3036 27.6177 46.9481 27.3625C46.9398 27.3718 46.9329 27.3817 46.9244 27.391C46.5421 27.8049 46.0004 28.042 45.4371 28.042C44.9272 28.042 44.4395 27.8514 44.0653 27.5062C43.2318 26.735 42.6389 26.066 42.1982 25.4005C41.857 24.875 41.405 24.0619 41.3959 23.036C41.3928 22.7606 41.4327 22.4813 41.5062 22.211C41.3902 22.0756 41.2747 21.9384 41.1611 21.801C41.2904 21.8678 41.4266 21.9396 41.5667 22.0143C41.661 21.7399 41.7911 21.4789 41.956 21.2486C42.2583 20.8192 42.6539 20.4726 43.1638 20.1911C43.2616 20.1368 43.3648 20.0946 43.4696 20.0573C41.9598 19.2149 40.8782 18.7103 40.0348 18.4442C39.5799 18.31 39.1926 18.2169 38.6926 18.2628C38.4447 18.29 38.1469 18.3669 37.8579 18.5696C37.5677 18.7677 37.3393 19.1024 37.2517 19.4074C37.076 20.0666 37.2399 20.4637 37.3591 20.8141C37.6013 21.4165 37.9678 21.9558 38.395 22.5386C38.9332 23.2616 39.5771 24.0154 40.1435 24.6469C35.7565 28.6677 31.7743 33.5278 28.4693 39.159C29.0296 39.4599 29.5915 39.7545 30.1549 40.0449C27.964 42.0777 25.2802 45.1915 22.3074 49.9558C21.7153 50.9034 22.0045 52.1519 22.9523 52.7436Z" fill="white"/>
<path d="M47.0446 25.8407C45.2107 24.7498 44.2625 22.5704 44.7511 20.4639C44.3143 20.2862 43.8041 20.2994 43.3589 20.545C42.9771 20.7561 42.5902 21.0503 42.2846 21.4846C41.9769 21.9138 41.7939 22.4872 41.8002 23.0322C41.8073 23.8402 42.112 24.5245 42.5358 25.1771C42.9686 25.832 43.5562 26.4839 44.3389 27.2084C44.6502 27.4957 45.0439 27.6376 45.4367 27.6376C45.8726 27.6376 46.3074 27.4625 46.6268 27.1171C46.9574 26.7583 47.0942 26.2905 47.0446 25.8407Z" fill="white"/>
<path d="M53.8684 23.104C54.7101 20.7351 53.4719 18.1324 51.1029 17.2907C48.7338 16.4489 46.1311 17.687 45.2894 20.0559C44.4477 22.4248 45.6859 25.0276 48.0549 25.8693C50.4239 26.711 53.0267 25.473 53.8684 23.104Z" fill="white"/>
<path d="M40.1658 16.212L42.1448 17.2461C42.1898 17.2697 42.2377 17.2809 42.2851 17.2809C42.3943 17.2809 42.5002 17.2216 42.5544 17.118C42.6319 16.9695 42.5744 16.7863 42.4261 16.7084L41.107 16.019L42.5609 15.5821C42.6499 15.5552 42.723 15.4882 42.7567 15.401C42.7903 15.3144 42.7818 15.2157 42.7343 15.1359L41.3641 12.8382L43.2764 13.5895C43.3727 13.6276 43.481 13.6138 43.5649 13.5535C43.6489 13.493 43.6957 13.3947 43.6904 13.2911L43.5645 10.8832L45.0612 12.4912C45.1287 12.5638 45.2279 12.599 45.3262 12.585C45.425 12.5709 45.51 12.5098 45.5549 12.4209L46.6363 10.2695L47.0483 12.7287C47.0651 12.8297 47.1327 12.9163 47.2266 12.957C47.3211 12.9976 47.4301 12.9881 47.5155 12.9315L49.0763 11.895L48.6641 13.4137C48.6204 13.5756 48.7157 13.7425 48.8776 13.786C49.0396 13.8301 49.2064 13.7346 49.2505 13.5725H49.2501L49.8737 11.275C49.9069 11.153 49.8612 11.0235 49.7586 10.9494C49.6558 10.8754 49.5186 10.8729 49.413 10.9425L47.5699 12.1664L47.0819 9.25328C47.0604 9.12418 46.9576 9.0228 46.8281 9.00337C46.6982 8.98395 46.5705 9.04971 46.5116 9.16708L45.2089 11.7576L43.4409 9.85832C43.3541 9.76483 43.2177 9.73569 43.1003 9.78547C42.983 9.83525 42.9091 9.95363 42.916 10.0807L43.0601 12.8513L40.7597 11.9476C40.6385 11.9001 40.5017 11.9343 40.4173 12.0338C40.3334 12.133 40.321 12.2738 40.3882 12.3855L42.0143 15.112L40.2192 15.6517C40.101 15.6877 40.0167 15.7907 40.0043 15.9138C39.9926 16.0376 40.0557 16.1546 40.1658 16.212Z" fill="white"/>
</svg>
