<svg width="90" height="93" viewBox="0 0 90 93" fill="none" xmlns="http://www.w3.org/2000/svg">
<path d="M19.0064 75V66.6H26.4344V75H24.8984V67.536L25.2584 67.92H20.1824L20.5424 67.536V75H19.0064ZM32.187 75.084C31.667 75.084 31.191 74.964 30.759 74.724C30.335 74.484 29.995 74.124 29.739 73.644C29.491 73.156 29.367 72.54 29.367 71.796C29.367 71.044 29.487 70.428 29.727 69.948C29.975 69.468 30.311 69.112 30.735 68.88C31.159 68.64 31.643 68.52 32.187 68.52C32.819 68.52 33.375 68.656 33.855 68.928C34.343 69.2 34.727 69.58 35.007 70.068C35.295 70.556 35.439 71.132 35.439 71.796C35.439 72.46 35.295 73.04 35.007 73.536C34.727 74.024 34.343 74.404 33.855 74.676C33.375 74.948 32.819 75.084 32.187 75.084ZM28.635 77.328V68.592H30.063V70.104L30.015 71.808L30.135 73.512V77.328H28.635ZM32.019 73.8C32.379 73.8 32.699 73.72 32.979 73.56C33.267 73.4 33.495 73.168 33.663 72.864C33.831 72.56 33.915 72.204 33.915 71.796C33.915 71.38 33.831 71.024 33.663 70.728C33.495 70.424 33.267 70.192 32.979 70.032C32.699 69.872 32.379 69.792 32.019 69.792C31.659 69.792 31.335 69.872 31.047 70.032C30.759 70.192 30.531 70.424 30.363 70.728C30.195 71.024 30.111 71.38 30.111 71.796C30.111 72.204 30.195 72.56 30.363 72.864C30.531 73.168 30.759 73.4 31.047 73.56C31.335 73.72 31.659 73.8 32.019 73.8ZM39.7878 75.084C39.1318 75.084 38.5478 74.944 38.0358 74.664C37.5238 74.376 37.1198 73.984 36.8238 73.488C36.5278 72.992 36.3798 72.428 36.3798 71.796C36.3798 71.156 36.5278 70.592 36.8238 70.104C37.1198 69.608 37.5238 69.22 38.0358 68.94C38.5478 68.66 39.1318 68.52 39.7878 68.52C40.4518 68.52 41.0398 68.66 41.5518 68.94C42.0718 69.22 42.4758 69.604 42.7638 70.092C43.0598 70.58 43.2078 71.148 43.2078 71.796C43.2078 72.428 43.0598 72.992 42.7638 73.488C42.4758 73.984 42.0718 74.376 41.5518 74.664C41.0398 74.944 40.4518 75.084 39.7878 75.084ZM39.7878 73.8C40.1558 73.8 40.4838 73.72 40.7718 73.56C41.0598 73.4 41.2838 73.168 41.4438 72.864C41.6118 72.56 41.6958 72.204 41.6958 71.796C41.6958 71.38 41.6118 71.024 41.4438 70.728C41.2838 70.424 41.0598 70.192 40.7718 70.032C40.4838 69.872 40.1598 69.792 39.7998 69.792C39.4318 69.792 39.1038 69.872 38.8158 70.032C38.5358 70.192 38.3118 70.424 38.1438 70.728C37.9758 71.024 37.8918 71.38 37.8918 71.796C37.8918 72.204 37.9758 72.56 38.1438 72.864C38.3118 73.168 38.5358 73.4 38.8158 73.56C39.1038 73.72 39.4278 73.8 39.7878 73.8ZM49.0113 74.304V69.864H46.5513L46.5153 70.896C46.4993 71.264 46.4753 71.62 46.4433 71.964C46.4113 72.3 46.3593 72.612 46.2873 72.9C46.2153 73.18 46.1113 73.412 45.9753 73.596C45.8393 73.78 45.6593 73.9 45.4353 73.956L43.9473 73.728C44.1873 73.728 44.3793 73.652 44.5233 73.5C44.6753 73.34 44.7913 73.124 44.8713 72.852C44.9593 72.572 45.0233 72.256 45.0633 71.904C45.1033 71.544 45.1313 71.172 45.1473 70.788L45.2313 68.592H50.5113V74.304H49.0113ZM43.7193 76.428V73.728H51.4593V76.428H50.0553V75H45.1113V76.428H43.7193ZM56.687 75V73.704L56.603 73.428V71.16C56.603 70.72 56.471 70.38 56.207 70.14C55.943 69.892 55.543 69.768 55.007 69.768C54.647 69.768 54.291 69.824 53.939 69.936C53.595 70.048 53.303 70.204 53.063 70.404L52.475 69.312C52.819 69.048 53.227 68.852 53.699 68.724C54.179 68.588 54.675 68.52 55.187 68.52C56.115 68.52 56.831 68.744 57.335 69.192C57.847 69.632 58.103 70.316 58.103 71.244V75H56.687ZM54.671 75.084C54.191 75.084 53.771 75.004 53.411 74.844C53.051 74.676 52.771 74.448 52.571 74.16C52.379 73.864 52.283 73.532 52.283 73.164C52.283 72.804 52.367 72.48 52.535 72.192C52.711 71.904 52.995 71.676 53.387 71.508C53.779 71.34 54.299 71.256 54.947 71.256H56.807V72.252H55.055C54.543 72.252 54.199 72.336 54.023 72.504C53.847 72.664 53.759 72.864 53.759 73.104C53.759 73.376 53.867 73.592 54.083 73.752C54.299 73.912 54.599 73.992 54.983 73.992C55.351 73.992 55.679 73.908 55.967 73.74C56.263 73.572 56.475 73.324 56.603 72.996L56.855 73.896C56.711 74.272 56.451 74.564 56.075 74.772C55.707 74.98 55.239 75.084 54.671 75.084ZM61.2912 75V69.504L61.6392 69.864H59.0352V68.592H65.0352V69.864H62.4432L62.7912 69.504V75H61.2912ZM69.3392 70.704C70.1632 70.704 70.7912 70.888 71.2232 71.256C71.6552 71.624 71.8712 72.144 71.8712 72.816C71.8712 73.512 71.6312 74.056 71.1512 74.448C70.6712 74.832 69.9952 75.02 69.1232 75.012L66.1232 75V68.592H67.6232V70.692L69.3392 70.704ZM68.9912 73.908C69.4312 73.916 69.7672 73.824 69.9992 73.632C70.2312 73.44 70.3472 73.16 70.3472 72.792C70.3472 72.424 70.2312 72.16 69.9992 72C69.7752 71.832 69.4392 71.744 68.9912 71.736L67.6232 71.724V73.896L68.9912 73.908ZM7.55484 90V84.504L7.90284 84.864H5.29884V83.592H11.2988V84.864H8.70684L9.05484 84.504V90H7.55484ZM15.0937 90.084C14.3817 90.084 13.7577 89.944 13.2217 89.664C12.6937 89.376 12.2817 88.984 11.9857 88.488C11.6977 87.992 11.5537 87.428 11.5537 86.796C11.5537 86.156 11.6937 85.592 11.9737 85.104C12.2617 84.608 12.6537 84.22 13.1497 83.94C13.6537 83.66 14.2257 83.52 14.8657 83.52C15.4897 83.52 16.0457 83.656 16.5337 83.928C17.0217 84.2 17.4057 84.584 17.6857 85.08C17.9657 85.576 18.1057 86.16 18.1057 86.832C18.1057 86.896 18.1017 86.968 18.0937 87.048C18.0937 87.128 18.0897 87.204 18.0817 87.276H12.7417V86.28H17.2897L16.7017 86.592C16.7097 86.224 16.6337 85.9 16.4737 85.62C16.3137 85.34 16.0937 85.12 15.8137 84.96C15.5417 84.8 15.2257 84.72 14.8657 84.72C14.4977 84.72 14.1737 84.8 13.8937 84.96C13.6217 85.12 13.4057 85.344 13.2457 85.632C13.0937 85.912 13.0177 86.244 13.0177 86.628V86.868C13.0177 87.252 13.1057 87.592 13.2817 87.888C13.4577 88.184 13.7057 88.412 14.0257 88.572C14.3457 88.732 14.7137 88.812 15.1297 88.812C15.4897 88.812 15.8137 88.756 16.1017 88.644C16.3897 88.532 16.6457 88.356 16.8697 88.116L17.6737 89.04C17.3857 89.376 17.0217 89.636 16.5817 89.82C16.1497 89.996 15.6537 90.084 15.0937 90.084ZM23.2983 90.084C22.7783 90.084 22.3023 89.964 21.8703 89.724C21.4463 89.484 21.1063 89.124 20.8503 88.644C20.6023 88.156 20.4783 87.54 20.4783 86.796C20.4783 86.044 20.5983 85.428 20.8383 84.948C21.0863 84.468 21.4223 84.112 21.8463 83.88C22.2703 83.64 22.7543 83.52 23.2983 83.52C23.9303 83.52 24.4863 83.656 24.9663 83.928C25.4543 84.2 25.8383 84.58 26.1183 85.068C26.4063 85.556 26.5503 86.132 26.5503 86.796C26.5503 87.46 26.4063 88.04 26.1183 88.536C25.8383 89.024 25.4543 89.404 24.9663 89.676C24.4863 89.948 23.9303 90.084 23.2983 90.084ZM19.7463 92.328V83.592H21.1743V85.104L21.1263 86.808L21.2463 88.512V92.328H19.7463ZM23.1303 88.8C23.4903 88.8 23.8103 88.72 24.0903 88.56C24.3783 88.4 24.6063 88.168 24.7743 87.864C24.9423 87.56 25.0263 87.204 25.0263 86.796C25.0263 86.38 24.9423 86.024 24.7743 85.728C24.6063 85.424 24.3783 85.192 24.0903 85.032C23.8103 84.872 23.4903 84.792 23.1303 84.792C22.7703 84.792 22.4463 84.872 22.1583 85.032C21.8703 85.192 21.6423 85.424 21.4743 85.728C21.3063 86.024 21.2223 86.38 21.2223 86.796C21.2223 87.204 21.3063 87.56 21.4743 87.864C21.6423 88.168 21.8703 88.4 22.1583 88.56C22.4463 88.72 22.7703 88.8 23.1303 88.8ZM31.5952 90.084C31.0752 90.084 30.5992 89.964 30.1672 89.724C29.7432 89.484 29.4032 89.124 29.1472 88.644C28.8992 88.156 28.7752 87.54 28.7752 86.796C28.7752 86.044 28.8952 85.428 29.1352 84.948C29.3832 84.468 29.7192 84.112 30.1432 83.88C30.5672 83.64 31.0512 83.52 31.5952 83.52C32.2272 83.52 32.7832 83.656 33.2632 83.928C33.7512 84.2 34.1352 84.58 34.4152 85.068C34.7032 85.556 34.8472 86.132 34.8472 86.796C34.8472 87.46 34.7032 88.04 34.4152 88.536C34.1352 89.024 33.7512 89.404 33.2632 89.676C32.7832 89.948 32.2272 90.084 31.5952 90.084ZM28.0432 92.328V83.592H29.4712V85.104L29.4232 86.808L29.5432 88.512V92.328H28.0432ZM31.4272 88.8C31.7872 88.8 32.1072 88.72 32.3872 88.56C32.6752 88.4 32.9032 88.168 33.0712 87.864C33.2392 87.56 33.3232 87.204 33.3232 86.796C33.3232 86.38 33.2392 86.024 33.0712 85.728C32.9032 85.424 32.6752 85.192 32.3872 85.032C32.1072 84.872 31.7872 84.792 31.4272 84.792C31.0672 84.792 30.7432 84.872 30.4552 85.032C30.1672 85.192 29.9392 85.424 29.7712 85.728C29.6032 86.024 29.5192 86.38 29.5192 86.796C29.5192 87.204 29.6032 87.56 29.7712 87.864C29.9392 88.168 30.1672 88.4 30.4552 88.56C30.7432 88.72 31.0672 88.8 31.4272 88.8ZM36.34 90V83.592H37.84V87.816L41.38 83.592H42.748V90H41.248V85.776L37.72 90H36.34ZM46.0978 90V84.504L46.4458 84.864H43.8418V83.592H49.8418V84.864H47.2498L47.5978 84.504V90H46.0978ZM53.5046 90.084C52.8486 90.084 52.2646 89.944 51.7526 89.664C51.2406 89.376 50.8366 88.984 50.5406 88.488C50.2446 87.992 50.0966 87.428 50.0966 86.796C50.0966 86.156 50.2446 85.592 50.5406 85.104C50.8366 84.608 51.2406 84.22 51.7526 83.94C52.2646 83.66 52.8486 83.52 53.5046 83.52C54.1686 83.52 54.7566 83.66 55.2686 83.94C55.7886 84.22 56.1926 84.604 56.4806 85.092C56.7766 85.58 56.9246 86.148 56.9246 86.796C56.9246 87.428 56.7766 87.992 56.4806 88.488C56.1926 88.984 55.7886 89.376 55.2686 89.664C54.7566 89.944 54.1686 90.084 53.5046 90.084ZM53.5046 88.8C53.8726 88.8 54.2006 88.72 54.4886 88.56C54.7766 88.4 55.0006 88.168 55.1606 87.864C55.3286 87.56 55.4126 87.204 55.4126 86.796C55.4126 86.38 55.3286 86.024 55.1606 85.728C55.0006 85.424 54.7766 85.192 54.4886 85.032C54.2006 84.872 53.8766 84.792 53.5166 84.792C53.1486 84.792 52.8206 84.872 52.5326 85.032C52.2526 85.192 52.0286 85.424 51.8606 85.728C51.6926 86.024 51.6086 86.38 51.6086 86.796C51.6086 87.204 51.6926 87.56 51.8606 87.864C52.0286 88.168 52.2526 88.4 52.5326 88.56C52.8206 88.72 53.1446 88.8 53.5046 88.8ZM61.9584 90.084C61.4384 90.084 60.9624 89.964 60.5304 89.724C60.1064 89.484 59.7664 89.124 59.5104 88.644C59.2624 88.156 59.1384 87.54 59.1384 86.796C59.1384 86.044 59.2584 85.428 59.4984 84.948C59.7464 84.468 60.0824 84.112 60.5064 83.88C60.9304 83.64 61.4144 83.52 61.9584 83.52C62.5904 83.52 63.1464 83.656 63.6264 83.928C64.1144 84.2 64.4984 84.58 64.7784 85.068C65.0664 85.556 65.2104 86.132 65.2104 86.796C65.2104 87.46 65.0664 88.04 64.7784 88.536C64.4984 89.024 64.1144 89.404 63.6264 89.676C63.1464 89.948 62.5904 90.084 61.9584 90.084ZM58.4064 92.328V83.592H59.8344V85.104L59.7864 86.808L59.9064 88.512V92.328H58.4064ZM61.7904 88.8C62.1504 88.8 62.4704 88.72 62.7504 88.56C63.0384 88.4 63.2664 88.168 63.4344 87.864C63.6024 87.56 63.6864 87.204 63.6864 86.796C63.6864 86.38 63.6024 86.024 63.4344 85.728C63.2664 85.424 63.0384 85.192 62.7504 85.032C62.4704 84.872 62.1504 84.792 61.7904 84.792C61.4304 84.792 61.1064 84.872 60.8184 85.032C60.5304 85.192 60.3024 85.424 60.1344 85.728C59.9664 86.024 59.8824 86.38 59.8824 86.796C59.8824 87.204 59.9664 87.56 60.1344 87.864C60.3024 88.168 60.5304 88.4 60.8184 88.56C61.1064 88.72 61.4304 88.8 61.7904 88.8ZM66.7033 90V83.592H68.2033V87.816L71.7433 83.592H73.1113V90H71.6113V85.776L68.0833 90H66.7033ZM75.1291 90V83.592H76.6291V86.076H78.5371V87.432H76.6291V90H75.1291ZM80.9851 90.084C80.3451 90.084 79.7731 89.944 79.2691 89.664C78.7731 89.376 78.3811 88.984 78.0931 88.488C77.8051 87.992 77.6611 87.428 77.6611 86.796C77.6611 86.156 77.8051 85.588 78.0931 85.092C78.3811 84.596 78.7731 84.212 79.2691 83.94C79.7731 83.66 80.3451 83.52 80.9851 83.52C81.6331 83.52 82.2051 83.66 82.7011 83.94C83.2051 84.212 83.6011 84.596 83.8891 85.092C84.1771 85.588 84.3211 86.156 84.3211 86.796C84.3211 87.428 84.1771 87.996 83.8891 88.5C83.6011 88.996 83.2051 89.384 82.7011 89.664C82.2051 89.944 81.6331 90.084 80.9851 90.084ZM80.9851 88.812C81.3451 88.812 81.6611 88.728 81.9331 88.56C82.2131 88.392 82.4331 88.16 82.5931 87.864C82.7531 87.568 82.8331 87.212 82.8331 86.796C82.8331 86.38 82.7531 86.024 82.5931 85.728C82.4331 85.424 82.2131 85.192 81.9331 85.032C81.6611 84.872 81.3491 84.792 80.9971 84.792C80.6451 84.792 80.3291 84.872 80.0491 85.032C79.7691 85.192 79.5491 85.424 79.3891 85.728C79.2291 86.024 79.1491 86.38 79.1491 86.796C79.1491 87.212 79.2291 87.568 79.3891 87.864C79.5491 88.16 79.7691 88.392 80.0491 88.56C80.3291 88.728 80.6411 88.812 80.9851 88.812Z" fill="white"/>
<g clip-path="url(#clip0_1551_146)">
<path fill-rule="evenodd" clip-rule="evenodd" d="M62.1053 20.5263V55.8683C62.1053 57.8764 59.4737 57.8606 59.4737 55.8683V20.5263H62.1053ZM30.5263 49.4737H55.5231C56.2516 49.4737 56.8421 50.084 56.8421 50.7895C56.8421 51.5162 56.2375 52.1053 55.5231 52.1053H29.2137C28.8494 52.1053 28.5196 51.9526 28.2809 51.7117C28.042 51.4826 27.8947 51.1543 27.8947 50.7919V13.945C27.8947 13.2196 28.5051 12.6316 29.2105 12.6316C29.9372 12.6316 30.5263 13.2203 30.5263 13.945V49.4737ZM34.6988 17.8947H60.7834C61.5134 17.8947 62.1053 18.5051 62.1053 19.2105V20.5263H34.6988C32.653 20.5263 32.6356 17.8947 34.6988 17.8947ZM20 19.2105C20 18.4838 20.5632 17.8947 21.3281 17.8947H23.9351C24.6686 17.8947 25.2632 18.5051 25.2632 19.2105C25.2632 19.9372 24.6999 20.5263 23.9351 20.5263H21.3281C20.5946 20.5263 20 19.916 20 19.2105ZM64.7368 50.7895C64.7368 50.0628 65.3001 49.4737 66.0649 49.4737H68.6719C69.4054 49.4737 70 50.084 70 50.7895C70 51.5162 69.4368 52.1053 68.6719 52.1053H66.0649C65.3314 52.1053 64.7368 51.4949 64.7368 50.7895Z" fill="white"/>
</g>
<defs>
<clipPath id="clip0_1551_146">
<rect width="50" height="50" fill="white" transform="translate(20 10)"/>
</clipPath>
</defs>
</svg>
