<svg width="90" height="90" viewBox="0 0 90 90" fill="none" xmlns="http://www.w3.org/2000/svg">
<path d="M24.9087 80L21.5907 75.226L23.0607 74.316L26.9667 80H24.9087ZM18.4267 80V70.2H20.2187V80H18.4267ZM19.6727 75.87V74.302H22.9767V75.87H19.6727ZM23.2287 75.31L21.5627 75.086L24.9087 70.2H26.8407L23.2287 75.31ZM31.2424 80.098C30.477 80.098 29.7957 79.9347 29.1984 79.608C28.601 79.272 28.1297 78.8147 27.7844 78.236C27.439 77.6573 27.2664 76.9993 27.2664 76.262C27.2664 75.5153 27.439 74.8573 27.7844 74.288C28.1297 73.7093 28.601 73.2567 29.1984 72.93C29.7957 72.6033 30.477 72.44 31.2424 72.44C32.017 72.44 32.703 72.6033 33.3004 72.93C33.907 73.2567 34.3784 73.7047 34.7144 74.274C35.0597 74.8433 35.2324 75.506 35.2324 76.262C35.2324 76.9993 35.0597 77.6573 34.7144 78.236C34.3784 78.8147 33.907 79.272 33.3004 79.608C32.703 79.9347 32.017 80.098 31.2424 80.098ZM31.2424 78.6C31.6717 78.6 32.0544 78.5067 32.3904 78.32C32.7264 78.1333 32.9877 77.8627 33.1744 77.508C33.3704 77.1533 33.4684 76.738 33.4684 76.262C33.4684 75.7767 33.3704 75.3613 33.1744 75.016C32.9877 74.6613 32.7264 74.3907 32.3904 74.204C32.0544 74.0173 31.6764 73.924 31.2564 73.924C30.827 73.924 30.4444 74.0173 30.1084 74.204C29.7817 74.3907 29.5204 74.6613 29.3244 75.016C29.1284 75.3613 29.0304 75.7767 29.0304 76.262C29.0304 76.738 29.1284 77.1533 29.3244 77.508C29.5204 77.8627 29.7817 78.1333 30.1084 78.32C30.4444 78.5067 30.8224 78.6 31.2424 78.6ZM36.9612 80V72.524H38.7112V75.562H42.4772V72.524H44.2272V80H42.4772V77.046H38.7112V80H36.9612ZM46.5725 80V72.524H50.2265C51.1318 72.524 51.8412 72.692 52.3545 73.028C52.8772 73.364 53.1385 73.84 53.1385 74.456C53.1385 75.0627 52.8958 75.5387 52.4105 75.884C51.9252 76.22 51.2812 76.388 50.4785 76.388L50.6885 75.954C51.5938 75.954 52.2658 76.122 52.7045 76.458C53.1525 76.7847 53.3765 77.2653 53.3765 77.9C53.3765 78.5627 53.1292 79.0807 52.6345 79.454C52.1398 79.818 51.3885 80 50.3805 80H46.5725ZM48.2385 78.726H50.2405C50.7165 78.726 51.0758 78.6513 51.3185 78.502C51.5612 78.3433 51.6825 78.1053 51.6825 77.788C51.6825 77.452 51.5705 77.2047 51.3465 77.046C51.1225 76.8873 50.7725 76.808 50.2965 76.808H48.2385V78.726ZM48.2385 75.646H50.0725C50.5205 75.646 50.8565 75.5667 51.0805 75.408C51.3138 75.24 51.4305 75.0067 51.4305 74.708C51.4305 74.4 51.3138 74.1713 51.0805 74.022C50.8565 73.8727 50.5205 73.798 50.0725 73.798H48.2385V75.646ZM58.5725 80.098C57.8071 80.098 57.1258 79.9347 56.5285 79.608C55.9311 79.272 55.4598 78.8147 55.1145 78.236C54.7691 77.6573 54.5965 76.9993 54.5965 76.262C54.5965 75.5153 54.7691 74.8573 55.1145 74.288C55.4598 73.7093 55.9311 73.2567 56.5285 72.93C57.1258 72.6033 57.8071 72.44 58.5725 72.44C59.3471 72.44 60.0331 72.6033 60.6305 72.93C61.2371 73.2567 61.7085 73.7047 62.0445 74.274C62.3898 74.8433 62.5625 75.506 62.5625 76.262C62.5625 76.9993 62.3898 77.6573 62.0445 78.236C61.7085 78.8147 61.2371 79.272 60.6305 79.608C60.0331 79.9347 59.3471 80.098 58.5725 80.098ZM58.5725 78.6C59.0018 78.6 59.3845 78.5067 59.7205 78.32C60.0565 78.1333 60.3178 77.8627 60.5045 77.508C60.7005 77.1533 60.7985 76.738 60.7985 76.262C60.7985 75.7767 60.7005 75.3613 60.5045 75.016C60.3178 74.6613 60.0565 74.3907 59.7205 74.204C59.3845 74.0173 59.0065 73.924 58.5865 73.924C58.1571 73.924 57.7745 74.0173 57.4385 74.204C57.1118 74.3907 56.8505 74.6613 56.6545 75.016C56.4585 75.3613 56.3605 75.7767 56.3605 76.262C56.3605 76.738 56.4585 77.1533 56.6545 77.508C56.8505 77.8627 57.1118 78.1333 57.4385 78.32C57.7745 78.5067 58.1525 78.6 58.5725 78.6ZM64.2912 80V72.524H66.0412V77.452L70.1712 72.524H71.7672V80H70.0172V75.072L65.9012 80H64.2912ZM67.9172 71.642C67.1706 71.642 66.5966 71.4693 66.1952 71.124C65.7939 70.7693 65.5886 70.256 65.5792 69.584H66.7412C66.7506 69.92 66.8532 70.186 67.0492 70.382C67.2546 70.578 67.5392 70.676 67.9032 70.676C68.2579 70.676 68.5379 70.578 68.7432 70.382C68.9579 70.186 69.0699 69.92 69.0792 69.584H70.2692C70.2599 70.256 70.0499 70.7693 69.6392 71.124C69.2379 71.4693 68.6639 71.642 67.9172 71.642Z" fill="white"/>
<path d="M35.6618 17.3448C38.5184 17.3448 40.8342 15.0291 40.8342 12.1724C40.8342 9.31577 38.5184 7 35.6618 7C32.8051 7 30.4894 9.31577 30.4894 12.1724C30.4894 15.0291 32.8051 17.3448 35.6618 17.3448Z" fill="white"/>
<path d="M52.9031 17.3448C55.7598 17.3448 58.0755 15.0291 58.0755 12.1724C58.0755 9.31577 55.7598 7 52.9031 7C50.0465 7 47.7307 9.31577 47.7307 12.1724C47.7307 15.0291 50.0465 17.3448 52.9031 17.3448Z" fill="white"/>
<path d="M50.6204 39.4047L50.2893 39.1841C49.602 38.7289 48.4043 37.9289 47.156 36.7427V54.1266C47.156 57.899 51.7537 57.899 51.7537 54.1266V39.968C51.3974 39.8438 51.0204 39.6691 50.6204 39.4047Z" fill="white"/>
<path d="M58.6204 36.738C57.2618 38.0277 55.94 38.8921 55.1928 39.3794L54.8572 39.607L54.8365 39.5771C54.7147 39.6645 54.6066 39.7702 54.4756 39.8392C54.3653 39.8967 54.2043 39.9518 54.0526 40.0047V54.1265C54.0526 56.0116 55.2089 57.0001 56.3515 57.0001C57.494 57.0001 58.6503 56.0116 58.6503 54.1082C58.6112 51.7771 58.6135 43.738 58.6204 36.738Z" fill="white"/>
<path d="M49.5032 27.7517C49.7951 29.2552 50.6066 30.5563 51.5698 31.5908C52.0342 31.1862 52.2733 30.6552 52.294 30.1425C52.3423 29.0988 51.4871 27.977 49.5032 27.7517Z" fill="white"/>
<path d="M43.9768 28.9679C44.1584 29.8276 44.4618 30.6644 44.8342 31.4897C46.7285 31.9839 48.363 32.2874 49.4342 32.2874C49.8503 32.2874 50.1997 32.2161 50.5216 32.1219C49.4411 30.8943 48.5538 29.3541 48.3055 27.5587C46.8273 27.3679 45.3055 27.0437 43.7515 26.6069C43.7561 27.4414 43.8342 28.2299 43.9768 28.9679Z" fill="white"/>
<path d="M54.4503 35.2644C54.3124 35.1287 54.1721 34.9977 53.9721 34.8828C53.3997 34.5839 52.7147 34.1356 52.0227 33.5724L51.9583 33.5379L51.9721 33.5264C51.7813 33.3701 51.5928 33.1977 51.4043 33.023C50.8526 33.2736 50.2043 33.4368 49.4388 33.4368C48.4802 33.4368 47.1215 33.2184 45.556 32.8506C45.9583 33.5219 46.3997 34.1839 46.9307 34.8184C48.4388 36.5494 50.0871 37.6667 50.9261 38.223L51.2641 38.4506C52.225 39.0851 53.1813 39.2184 53.9422 38.823C54.1147 38.731 54.271 38.6138 54.4112 38.4805C54.4158 38.4782 54.4204 38.4736 54.425 38.469C54.8503 38.0552 55.1147 37.4621 55.1284 36.8345C55.133 36.6253 55.0917 36.3333 54.979 36.0253C54.8434 35.7701 54.6687 35.5127 54.4503 35.2644Z" fill="white"/>
<path d="M57.7791 18.5471L57.7814 18.5402L57.6319 18.4873C57.3285 18.3471 56.94 18.1954 56.4549 18.0046L55.8894 17.7793L55.3837 18.1218C54.14 18.9724 51.6182 18.9586 50.4113 18.1241L49.9124 17.7816L46.9515 19.023C45.0733 19.823 44.0342 22.4598 43.809 25.4322C45.317 25.8667 46.7975 26.1862 48.232 26.3839V23.846C48.232 23.5287 48.4894 23.2713 48.8067 23.2713C49.1239 23.2713 49.3814 23.5287 49.3814 23.846V26.5632C49.4159 26.5655 49.4526 26.577 49.4871 26.5793C52.3101 26.8322 53.5193 28.6299 53.448 30.1931C53.4113 30.9885 53.0526 31.7839 52.3952 32.3885C52.5676 32.5379 52.74 32.6873 52.9124 32.8207C54.1285 31.8758 56.4756 29.6575 56.4756 26.5724V23.8345C56.4756 23.5172 56.7308 23.2598 57.0503 23.2598C57.3653 23.2598 57.6251 23.5172 57.6251 23.8345V26.5724C57.6251 29.7954 55.471 32.1655 54.048 33.3816C54.4388 33.6483 54.8113 33.9816 55.1538 34.3425C55.3032 34.4781 55.4273 34.6253 55.5492 34.7747C55.5768 34.8115 55.6021 34.8414 55.6297 34.8781C55.7676 35.0644 55.8779 35.2598 55.9699 35.469C56.1883 35.8827 56.3584 36.3172 56.3929 36.7839C56.3975 36.8942 56.4021 37.0092 56.3929 37.1287C58.163 35.7517 60.4228 33.5241 61.4917 30.3195C61.5446 30.1471 61.5952 29.9747 61.6388 29.8C61.7446 29.4345 61.8365 29.0621 61.9055 28.6736C62.0205 27.9655 62.0986 27.246 62.0986 26.4965C62.0986 24.1908 62.0986 20.3379 57.7791 18.5471Z" fill="white"/>
<path d="M29.9308 25.5426V25.5518C35.0273 28.5909 45.5147 32.2346 49.3514 32.2828C49.379 32.2828 49.4135 32.2874 49.4411 32.2874C49.5997 32.2874 49.7124 32.2392 49.8595 32.2231C50.1514 32.1932 50.4549 32.1748 50.6917 32.0897C50.7468 32.0714 50.7767 32.0346 50.8296 32.0139C51.117 31.8943 51.3813 31.7564 51.5836 31.5748C51.6595 31.5081 51.6986 31.4231 51.7606 31.3472C51.8917 31.1978 52.0227 31.0507 52.1055 30.8805C52.2089 30.6576 52.2641 30.4277 52.2825 30.1978C52.2848 30.1771 52.294 30.1564 52.2963 30.138C52.3399 29.0714 51.4595 27.9127 49.379 27.7265C49.2572 27.715 49.1262 27.6805 49.0043 27.6691C48.1767 27.6208 47.1147 27.453 45.9859 27.2001C45.8572 27.1748 45.733 27.1472 45.6066 27.1173C44.8273 26.9334 44.0365 26.7196 43.294 26.4851C40.4066 25.6369 37.4779 24.4484 34.7629 22.9104C34.4917 22.7541 34.3928 22.4024 34.5491 22.1265C34.7078 21.8484 35.0595 21.7541 35.333 21.9081C37.2779 23.0093 39.3399 23.9104 41.4089 24.6599V24.5196C41.8112 24.5978 42.2434 24.6714 42.6802 24.7449C42.8871 23.0966 43.5399 21.0851 44.4848 19.7702C43.3009 19.5035 42.3101 19.2392 41.7514 19.0093L38.6595 17.7771L38.156 18.1196C36.9055 18.9725 34.3859 18.9587 33.1813 18.1242L32.6917 17.784L32.1331 17.9909C31.6181 18.1794 31.4365 18.2507 31.0802 18.3909L30.6848 18.5449C29.4365 19.007 28.1147 20.3725 28.0066 22.0943C27.956 22.9081 28.1583 24.3702 29.9308 25.5426Z" fill="white"/>
<path d="M41.402 31.6851C37.3859 30.4001 32.9652 28.5932 29.9285 26.8828L29.9147 54.1265C29.9147 57.8989 34.5124 57.8989 34.5124 54.1265V39.184C34.5124 38.1242 35.1055 37.7472 35.6618 37.7472C36.2181 37.7472 36.8112 38.1242 36.8112 39.184V54.1265C36.8112 56.0115 37.9675 57.0001 39.1101 57.0001C40.2526 57.0001 41.4089 56.0115 41.4089 54.1081C41.3652 51.3012 41.3859 39.6736 41.402 31.6851Z" fill="white"/>
</svg>
