<svg width="90" height="90" viewBox="0 0 90 90" fill="none" xmlns="http://www.w3.org/2000/svg">
<path d="M22.6613 77.14C21.9146 77.14 21.2193 77.0187 20.5753 76.776C19.9406 76.524 19.3853 76.174 18.9093 75.726C18.4426 75.2687 18.0786 74.732 17.8173 74.116C17.5559 73.5 17.4253 72.828 17.4253 72.1C17.4253 71.372 17.5559 70.7 17.8173 70.084C18.0786 69.468 18.4473 68.936 18.9233 68.488C19.3993 68.0307 19.9546 67.6807 20.5893 67.438C21.2239 67.186 21.9193 67.06 22.6753 67.06C23.4779 67.06 24.2106 67.2 24.8733 67.48C25.5359 67.7507 26.0959 68.1567 26.5533 68.698L25.3773 69.804C25.0226 69.4213 24.6259 69.1367 24.1873 68.95C23.7486 68.754 23.2726 68.656 22.7593 68.656C22.2459 68.656 21.7746 68.74 21.3453 68.908C20.9253 69.076 20.5566 69.314 20.2393 69.622C19.9313 69.93 19.6886 70.294 19.5113 70.714C19.3433 71.134 19.2593 71.596 19.2593 72.1C19.2593 72.604 19.3433 73.066 19.5113 73.486C19.6886 73.906 19.9313 74.27 20.2393 74.578C20.5566 74.886 20.9253 75.124 21.3453 75.292C21.7746 75.46 22.2459 75.544 22.7593 75.544C23.2726 75.544 23.7486 75.4507 24.1873 75.264C24.6259 75.068 25.0226 74.774 25.3773 74.382L26.5533 75.502C26.0959 76.034 25.5359 76.44 24.8733 76.72C24.2106 77 23.4733 77.14 22.6613 77.14ZM29.396 77V70.588L29.802 71.008H26.764V69.524H33.764V71.008H30.74L31.146 70.588V77H29.396ZM39.6837 77V74.452L39.9357 74.746H37.6957C36.6691 74.746 35.8617 74.5313 35.2737 74.102C34.6951 73.6633 34.4057 73.0333 34.4057 72.212C34.4057 71.3347 34.7137 70.6673 35.3297 70.21C35.9551 69.7527 36.7857 69.524 37.8217 69.524H41.2517V77H39.6837ZM34.3077 77L36.3237 74.144H38.1157L36.1837 77H34.3077ZM39.6837 73.892V70.532L39.9357 70.994H37.8777C37.3364 70.994 36.9164 71.0967 36.6177 71.302C36.3284 71.498 36.1837 71.82 36.1837 72.268C36.1837 73.108 36.7297 73.528 37.8217 73.528H39.9357L39.6837 73.892ZM52.5237 77L50.3397 73.416L51.7677 72.534L54.6097 77H52.5237ZM48.9257 74.004V72.548H51.4317V74.004H48.9257ZM51.9357 73.472L50.2837 73.276L52.5517 69.524H54.4137L51.9357 73.472ZM44.6277 77H42.5557L45.3837 72.534L46.8117 73.416L44.6277 77ZM49.4437 77H47.7077V69.524H49.4437V77ZM48.2257 74.004H45.7337V72.548H48.2257V74.004ZM45.2157 73.472L42.7377 69.524H44.5997L46.8537 73.276L45.2157 73.472ZM61.2724 77L58.5704 73.416L59.9984 72.534L63.3304 77H61.2724ZM55.9104 77V69.524H57.6604V77H55.9104ZM57.1424 74.004V72.548H59.6764V74.004H57.1424ZM60.1664 73.472L58.5284 73.276L61.2724 69.524H63.1484L60.1664 73.472ZM64.5647 77V69.524H66.3147V74.452L70.4447 69.524H72.0407V77H70.2907V72.072L66.1747 77H64.5647Z" fill="white"/>
<path d="M63.4575 27.8873L55.3554 35.9896C54.5417 36.8031 53.2227 36.8031 52.409 35.9896C51.5954 35.176 51.5954 33.8569 52.409 33.0433L60.5113 24.941C62.5452 22.9071 62.5452 19.6093 60.5113 17.5753C58.4773 15.5413 55.1796 15.5413 53.1456 17.5753L45.0433 25.6776C44.2298 26.4912 42.9106 26.4912 42.0971 25.6776C41.2836 24.864 41.2836 23.5449 42.0971 22.7313L50.1994 14.6291C53.8604 10.9679 59.7965 10.9679 63.4575 14.6291C67.1188 18.2902 67.1188 24.2261 63.4575 27.8873Z" fill="white"/>
<path d="M26.6292 38.1994L34.7314 30.0971C35.545 29.2834 36.8641 29.2834 37.6777 30.0971C38.4913 30.9107 38.4913 32.2298 37.6777 33.0434L29.5754 41.1457C27.5415 43.1796 27.5415 46.4773 29.5754 48.5113C31.6094 50.5453 34.9072 50.5453 36.9411 48.5113L45.0434 40.409C45.8569 39.5955 47.1761 39.5955 47.9896 40.409C48.8034 41.2225 48.8034 42.5417 47.9896 43.3553L39.8874 51.4575C36.2263 55.1188 30.2903 55.1188 26.6292 51.4575C22.968 47.7965 22.968 41.8605 26.6292 38.1994Z" fill="white"/>
</svg>
