<svg width="90" height="90" viewBox="0 0 90 90" fill="none" xmlns="http://www.w3.org/2000/svg">
<path d="M11.1711 67.2H12.9911V77H11.1711V67.2ZM6.10313 77H4.28313V67.2H6.10313V77ZM11.3111 72.8H5.94913V71.246H11.3111V72.8ZM20.0802 77V75.488L19.9822 75.166V72.52C19.9822 72.0067 19.8282 71.61 19.5202 71.33C19.2122 71.0407 18.7455 70.896 18.1202 70.896C17.7002 70.896 17.2848 70.9613 16.8742 71.092C16.4728 71.2227 16.1322 71.4047 15.8522 71.638L15.1662 70.364C15.5675 70.056 16.0435 69.8273 16.5942 69.678C17.1542 69.5193 17.7328 69.44 18.3302 69.44C19.4128 69.44 20.2482 69.7013 20.8362 70.224C21.4335 70.7373 21.7322 71.5353 21.7322 72.618V77H20.0802ZM17.7282 77.098C17.1682 77.098 16.6782 77.0047 16.2582 76.818C15.8382 76.622 15.5115 76.356 15.2782 76.02C15.0542 75.6747 14.9422 75.2873 14.9422 74.858C14.9422 74.438 15.0402 74.06 15.2362 73.724C15.4415 73.388 15.7728 73.122 16.2302 72.926C16.6875 72.73 17.2942 72.632 18.0502 72.632H20.2202V73.794H18.1762C17.5788 73.794 17.1775 73.892 16.9722 74.088C16.7668 74.2747 16.6642 74.508 16.6642 74.788C16.6642 75.1053 16.7902 75.3573 17.0422 75.544C17.2942 75.7307 17.6442 75.824 18.0922 75.824C18.5215 75.824 18.9042 75.726 19.2402 75.53C19.5855 75.334 19.8328 75.0447 19.9822 74.662L20.2762 75.712C20.1082 76.1507 19.8048 76.4913 19.3662 76.734C18.9368 76.9767 18.3908 77.098 17.7282 77.098ZM28.0417 77.098C27.435 77.098 26.8797 76.958 26.3757 76.678C25.881 76.398 25.4843 75.978 25.1857 75.418C24.8963 74.8487 24.7517 74.13 24.7517 73.262C24.7517 72.3847 24.8917 71.666 25.1717 71.106C25.461 70.546 25.853 70.1307 26.3477 69.86C26.8423 69.58 27.407 69.44 28.0417 69.44C28.779 69.44 29.4277 69.5987 29.9877 69.916C30.557 70.2333 31.005 70.6767 31.3317 71.246C31.6677 71.8153 31.8357 72.4873 31.8357 73.262C31.8357 74.0367 31.6677 74.7133 31.3317 75.292C31.005 75.8613 30.557 76.3047 29.9877 76.622C29.4277 76.9393 28.779 77.098 28.0417 77.098ZM23.8977 79.716V69.524H25.5637V71.288L25.5077 73.276L25.6477 75.264V79.716H23.8977ZM27.8457 75.6C28.2657 75.6 28.639 75.5067 28.9657 75.32C29.3017 75.1333 29.5677 74.8627 29.7637 74.508C29.9597 74.1533 30.0577 73.738 30.0577 73.262C30.0577 72.7767 29.9597 72.3613 29.7637 72.016C29.5677 71.6613 29.3017 71.3907 28.9657 71.204C28.639 71.0173 28.2657 70.924 27.8457 70.924C27.4257 70.924 27.0477 71.0173 26.7117 71.204C26.3757 71.3907 26.1097 71.6613 25.9137 72.016C25.7177 72.3613 25.6197 72.7767 25.6197 73.262C25.6197 73.738 25.7177 74.1533 25.9137 74.508C26.1097 74.8627 26.3757 75.1333 26.7117 75.32C27.0477 75.5067 27.4257 75.6 27.8457 75.6ZM34.0443 79.814C33.6803 79.814 33.3163 79.7533 32.9523 79.632C32.5883 79.5107 32.285 79.3427 32.0423 79.128L32.7423 77.84C32.9196 77.9987 33.1203 78.1247 33.3443 78.218C33.5683 78.3113 33.797 78.358 34.0303 78.358C34.3476 78.358 34.6043 78.2787 34.8003 78.12C34.9963 77.9613 35.1783 77.6953 35.3463 77.322L35.7803 76.342L35.9203 76.132L38.7483 69.524H40.4283L36.9283 77.602C36.695 78.162 36.4336 78.6053 36.1443 78.932C35.8643 79.2587 35.547 79.4873 35.1923 79.618C34.847 79.7487 34.4643 79.814 34.0443 79.814ZM35.5843 77.266L32.2103 69.524H34.0303L36.7743 75.978L35.5843 77.266ZM46.3618 74.046C46.0071 74.214 45.6291 74.354 45.2278 74.466C44.8358 74.5687 44.4204 74.62 43.9818 74.62C43.0391 74.62 42.3064 74.4007 41.7838 73.962C41.2611 73.5233 40.9998 72.842 40.9998 71.918V69.524H42.7498V71.806C42.7498 72.3007 42.8898 72.66 43.1698 72.884C43.4591 73.108 43.8558 73.22 44.3598 73.22C44.6958 73.22 45.0318 73.178 45.3678 73.094C45.7038 73.01 46.0351 72.8933 46.3618 72.744V74.046ZM46.2358 77V69.524H47.9858V77H46.2358ZM50.3391 77V69.524H52.0891V72.562H55.8551V69.524H57.6051V77H55.8551V74.046H52.0891V77H50.3391ZM59.9504 77V69.524H61.7004V74.452L65.8304 69.524H67.4264V77H65.6764V72.072L61.5604 77H59.9504ZM75.1425 77L72.4405 73.416L73.8685 72.534L77.2005 77H75.1425ZM69.7805 77V69.524H71.5305V77H69.7805ZM71.0125 74.004V72.548H73.5465V74.004H71.0125ZM74.0365 73.472L72.3985 73.276L75.1425 69.524H77.0185L74.0365 73.472ZM78.4348 77V69.524H80.1848V74.452L84.3148 69.524H85.9108V77H84.1608V72.072L80.0448 77H78.4348Z" fill="white"/>
<g clip-path="url(#clip0_1357_11)">
<path d="M64.1405 21.9232C62.9946 19.1568 60.84 17.002 58.0735 15.8561C56.7025 15.2883 55.2607 15.0004 53.7881 15.0004C51.1488 15.0004 48.6319 15.9141 46.6188 17.5886L41.1806 15.336L39.6636 18.9984C36.6665 18.004 33.3331 18.7594 31.0447 21.0479C28.7563 23.3364 28.0008 26.6698 28.9952 29.6668L25.3327 31.1838L27.5855 36.6225C24.9427 39.8057 24.2541 44.2169 25.8529 48.0768C27.5948 52.282 31.6617 54.9994 36.2139 54.9997C36.2141 54.9997 36.2144 54.9997 36.2147 54.9997C37.687 54.9997 39.1289 54.7117 40.5001 54.1437C43.2666 52.9978 45.4213 50.8432 46.5672 48.0767C47.7131 45.3102 47.7131 42.2631 46.5672 39.4966C44.9683 35.6367 41.3622 33.0044 37.2426 32.6224L34.9899 27.1836L31.1993 28.7538C30.5667 26.6447 31.1232 24.3304 32.7252 22.7283C34.3272 21.1263 36.6416 20.5698 38.7507 21.2024L37.1805 24.9931L42.6192 27.2458C43.0013 31.3654 45.6336 34.9715 49.4934 36.5704C50.8646 37.1383 52.3066 37.4263 53.7794 37.4263C53.7797 37.4263 53.7794 37.4263 53.7797 37.4263C58.3315 37.4263 62.3986 34.7087 64.1405 30.5033C65.2865 27.7368 65.2865 24.6897 64.1405 21.9232ZM39.4568 35.5719C41.6426 36.4374 43.4399 38.1567 44.3715 40.4061C45.819 43.9004 44.849 47.8029 42.2365 50.2457C42.2183 50.1946 42.1989 50.1436 42.1779 50.093C42.0031 49.6709 41.7447 49.3086 41.4304 49.0156C42.1083 48.3377 42.6529 47.5257 43.0314 46.6122C43.7871 44.7877 43.788 42.7804 43.034 40.9601C42.2843 39.1501 40.8793 37.7591 39.1579 37.012C39.3377 36.6355 39.4409 36.2229 39.4571 35.7935C39.4598 35.7193 39.4591 35.6454 39.4568 35.5719ZM40.8385 41.8696C41.3496 43.1034 41.3486 44.4647 40.8358 45.7028C40.3231 46.9408 39.3611 47.9041 38.1272 48.4152C37.5162 48.6683 36.8739 48.7966 36.2181 48.7966C34.1797 48.7966 32.3597 47.5826 31.5815 45.7039C30.5244 43.1517 31.7407 40.2153 34.2929 39.1583C34.9039 38.9051 35.5462 38.7768 36.202 38.7768C38.2403 38.7768 40.0603 39.9908 40.8385 41.8696ZM33.7038 30.2886L35.6285 34.9357L36.3864 34.9527V34.9533C36.7852 34.9684 37.0975 35.3051 37.0825 35.704C37.0752 35.8972 36.9931 36.076 36.8513 36.2075C36.7095 36.3389 36.5244 36.4072 36.3319 36.4001L36.3318 36.4029C36.2886 36.4022 36.2455 36.4005 36.2021 36.4005C35.2326 36.4005 34.2843 36.5897 33.3836 36.9628C29.6207 38.5213 27.8274 42.8505 29.3861 46.6133C30.5334 49.3833 33.2151 51.173 36.2182 51.173C37.1876 51.173 38.1359 50.9839 39.0367 50.6108C39.0368 50.6107 39.037 50.6106 39.0372 50.6105C39.4058 50.458 39.8298 50.6338 39.9824 51.0024C40.0564 51.181 40.0564 51.3778 39.9824 51.5565C39.9084 51.7351 39.7693 51.8742 39.5907 51.9482C38.5091 52.3961 37.3734 52.6233 36.2147 52.6233C36.2145 52.6233 36.2142 52.6233 36.214 52.6233C32.6264 52.623 29.4212 50.4814 28.0486 47.1673C26.709 43.9333 27.4072 40.2081 29.8272 37.6769L30.3625 37.1168L28.4378 32.4698L33.7038 30.2886ZM53.7796 35.0498C52.6204 35.0498 51.4843 34.8227 50.4029 34.3748C48.1537 33.4432 46.4343 31.646 45.5689 29.4603C45.6027 29.4614 45.6365 29.4626 45.6704 29.4626C45.7103 29.4626 45.7503 29.4619 45.7903 29.4604C46.2222 29.444 46.6368 29.3398 47.015 29.1582C47.7826 30.9247 49.1768 32.3 50.9568 33.0373C51.8576 33.4104 52.8059 33.5996 53.7754 33.5996C55.7861 33.5996 57.6522 32.7963 59.0106 31.4344C59.3089 31.7538 59.674 32.009 60.0898 32.1812C60.1415 32.2026 60.1934 32.2222 60.2457 32.2408C58.6069 34.0026 56.2871 35.05 53.7796 35.0498ZM49.155 24.296C49.9332 22.4172 51.7531 21.2033 53.7915 21.2033C54.4474 21.2033 55.0897 21.3316 55.7007 21.5846C58.2528 22.6419 59.469 25.5782 58.4119 28.1304C57.6337 30.0091 55.8138 31.2231 53.7754 31.2231C53.1195 31.2231 52.4772 31.0947 51.8663 30.8417C50.6325 30.3306 49.6704 29.3673 49.1577 28.1293C48.6448 26.8912 48.6439 25.5299 49.155 24.296ZM61.945 29.5939C61.871 29.7724 61.7318 29.9116 61.5533 29.9856C61.3747 30.0597 61.1779 30.0597 60.9992 29.9856C60.8206 29.9116 60.6815 29.7725 60.6075 29.5939C60.5335 29.4154 60.5335 29.2187 60.6073 29.0401L60.6075 29.0398C62.1661 25.277 60.3729 20.9479 56.6101 19.3892C55.7092 19.0161 54.7609 18.8269 53.7915 18.8269C50.7885 18.8269 48.1068 20.6167 46.9594 23.3866C46.5662 24.336 46.3803 25.3363 46.3977 26.335H46.3968C46.404 26.5282 46.3357 26.7127 46.2042 26.8544C46.0727 26.9962 45.8939 27.0783 45.7007 27.0856C45.3023 27.1013 44.9651 26.7884 44.95 26.3895H44.9494L44.9324 25.6316L40.2854 23.7069L42.4667 18.4408L47.1136 20.3656L47.6737 19.8302C49.3047 18.2709 51.5333 17.3766 53.7882 17.3766C54.9471 17.3766 56.0829 17.6037 57.1641 18.0516C61.6643 19.9159 63.809 25.0936 61.945 29.5939Z" fill="white"/>
<path d="M44.0433 23.2985C44.6619 23.2985 45.1634 22.797 45.1634 22.1784C45.1634 21.5598 44.6619 21.0583 44.0433 21.0583C43.4247 21.0583 42.9232 21.5598 42.9232 22.1784C42.9232 22.797 43.4247 23.2985 44.0433 23.2985Z" fill="white"/>
<path d="M32.1753 35.1665C32.7939 35.1665 33.2953 34.6651 33.2953 34.0465C33.2953 33.4279 32.7939 32.9264 32.1753 32.9264C31.5567 32.9264 31.0552 33.4279 31.0552 34.0465C31.0552 34.6651 31.5567 35.1665 32.1753 35.1665Z" fill="white"/>
</g>
<defs>
<clipPath id="clip0_1357_11">
<rect width="40" height="40" fill="white" transform="translate(25 15)"/>
</clipPath>
</defs>
</svg>
