<svg width="90" height="90" viewBox="0 0 90 90" fill="none" xmlns="http://www.w3.org/2000/svg">
<path d="M20 34.3564V54.1491C20 57.9267 23.0854 61 26.8778 61H63.1221C66.9146 61 70 57.9267 70 54.1491V34.3564C70 30.5788 66.9146 27.5056 63.1221 27.5056H26.8778C23.0854 27.5056 20 30.579 20 34.3564ZM45 33.6982C50.8426 33.6982 55.5961 38.433 55.5961 44.2528C55.5961 50.0725 50.8428 54.8073 45 54.8073C39.1572 54.8073 34.404 50.0725 34.404 44.2528C34.404 38.433 39.1574 33.6982 45 33.6982Z" fill="white"/>
<path d="M35.8432 24.9609V20.0043C35.8432 19.0643 36.9655 18.2997 38.3452 18.2997H51.6548C53.0345 18.2997 54.1568 19.0643 54.1568 20.0043V24.9607H59V20.0043C59 17.2449 55.7051 15 51.6548 15H38.3452C34.2949 15 31 17.2449 31 20.0043V24.9607H35.8432V24.9609Z" fill="white"/>
<path d="M45 52.4195C49.5207 52.4195 53.1988 48.7559 53.1988 44.2528C53.1988 39.7496 49.5208 36.086 45 36.086C40.4791 36.086 36.8011 39.7496 36.8011 44.2528C36.8011 48.7559 40.4793 52.4195 45 52.4195ZM41.8675 43.0588H43.8013V41.1325C43.8013 40.4731 44.338 39.9385 45 39.9385C45.6619 39.9385 46.1986 40.4731 46.1986 41.1325V43.0588H48.1325C48.7944 43.0588 49.3311 43.5934 49.3311 44.2528C49.3311 44.9121 48.7944 45.4467 48.1325 45.4467H46.1986V47.373C46.1986 48.0324 45.6619 48.567 45 48.567C44.338 48.567 43.8013 48.0325 43.8013 47.373V45.4467H41.8675C41.2055 45.4467 40.6688 44.9123 40.6688 44.2528C40.6688 43.5934 41.2054 43.0588 41.8675 43.0588Z" fill="white"/>
<path d="M9.33522 77V67.2H13.7172C14.8186 67.2 15.6772 67.4193 16.2932 67.858C16.9092 68.2873 17.2172 68.908 17.2172 69.72C17.2172 70.5227 16.9232 71.1433 16.3352 71.582C15.7472 72.0113 14.9726 72.226 14.0112 72.226L14.2632 71.722C15.3552 71.722 16.1999 71.9413 16.7972 72.38C17.3946 72.8187 17.6932 73.4533 17.6932 74.284C17.6932 75.1333 17.3806 75.8007 16.7552 76.286C16.1299 76.762 15.2059 77 13.9832 77H9.33522ZM11.1272 75.6H13.9272C14.5619 75.6 15.0426 75.4833 15.3692 75.25C15.6959 75.0073 15.8592 74.6387 15.8592 74.144C15.8592 73.6493 15.6959 73.29 15.3692 73.066C15.0426 72.8327 14.5619 72.716 13.9272 72.716H11.1272V75.6ZM11.1272 71.386H13.5632C14.1512 71.386 14.5992 71.2693 14.9072 71.036C15.2152 70.7933 15.3692 70.448 15.3692 70C15.3692 69.5333 15.2152 69.1833 14.9072 68.95C14.5992 68.7167 14.1512 68.6 13.5632 68.6H11.1272V71.386ZM27.1165 77V69.524H28.8665V77H27.1165ZM23.2105 71.988C24.1719 71.988 24.8999 72.2027 25.3945 72.632C25.8985 73.0613 26.1505 73.668 26.1505 74.452C26.1505 75.264 25.8705 75.8987 25.3105 76.356C24.7599 76.804 23.9759 77.0233 22.9585 77.014L19.5705 77V69.524H21.3205V71.974L23.2105 71.988ZM22.8045 75.726C23.3179 75.7353 23.7099 75.628 23.9805 75.404C24.2512 75.18 24.3865 74.8533 24.3865 74.424C24.3865 73.9947 24.2512 73.6867 23.9805 73.5C23.7192 73.304 23.3272 73.2013 22.8045 73.192L21.3205 73.178V75.712L22.8045 75.726ZM30.127 76.986L30.211 75.516C30.2763 75.5253 30.337 75.5347 30.393 75.544C30.449 75.5533 30.5003 75.558 30.547 75.558C30.8363 75.558 31.0603 75.4693 31.219 75.292C31.3776 75.1147 31.4943 74.8767 31.569 74.578C31.653 74.27 31.709 73.9293 31.737 73.556C31.7743 73.1733 31.8023 72.7907 31.821 72.408L31.947 69.524H37.995V77H36.245V70.532L36.651 71.008H33.095L33.473 70.518L33.375 72.492C33.347 73.1547 33.291 73.7707 33.207 74.34C33.1323 74.9 33.011 75.39 32.843 75.81C32.6843 76.23 32.4603 76.5567 32.171 76.79C31.891 77.0233 31.5316 77.14 31.093 77.14C30.953 77.14 30.799 77.126 30.631 77.098C30.4723 77.07 30.3043 77.0327 30.127 76.986ZM43.8378 77.098C43.0071 77.098 42.2791 76.9347 41.6538 76.608C41.0378 76.272 40.5571 75.8147 40.2118 75.236C39.8758 74.6573 39.7078 73.9993 39.7078 73.262C39.7078 72.5153 39.8711 71.8573 40.1978 71.288C40.5338 70.7093 40.9911 70.2567 41.5698 69.93C42.1578 69.6033 42.8251 69.44 43.5718 69.44C44.2998 69.44 44.9484 69.5987 45.5178 69.916C46.0871 70.2333 46.5351 70.6813 46.8618 71.26C47.1884 71.8387 47.3518 72.52 47.3518 73.304C47.3518 73.3787 47.3471 73.4627 47.3378 73.556C47.3378 73.6493 47.3331 73.738 47.3238 73.822H41.0938V72.66H46.3998L45.7138 73.024C45.7231 72.5947 45.6344 72.2167 45.4478 71.89C45.2611 71.5633 45.0044 71.3067 44.6778 71.12C44.3604 70.9333 43.9918 70.84 43.5718 70.84C43.1424 70.84 42.7644 70.9333 42.4378 71.12C42.1204 71.3067 41.8684 71.568 41.6818 71.904C41.5044 72.2307 41.4158 72.618 41.4158 73.066V73.346C41.4158 73.794 41.5184 74.1907 41.7238 74.536C41.9291 74.8813 42.2184 75.1473 42.5918 75.334C42.9651 75.5207 43.3944 75.614 43.8798 75.614C44.2998 75.614 44.6778 75.5487 45.0138 75.418C45.3498 75.2873 45.6484 75.082 45.9098 74.802L46.8478 75.88C46.5118 76.272 46.0871 76.5753 45.5738 76.79C45.0698 76.9953 44.4911 77.098 43.8378 77.098ZM53.9838 74.046C53.6292 74.214 53.2512 74.354 52.8498 74.466C52.4578 74.5687 52.0425 74.62 51.6038 74.62C50.6612 74.62 49.9285 74.4007 49.4058 73.962C48.8832 73.5233 48.6218 72.842 48.6218 71.918V69.524H50.3718V71.806C50.3718 72.3007 50.5118 72.66 50.7918 72.884C51.0812 73.108 51.4778 73.22 51.9818 73.22C52.3178 73.22 52.6538 73.178 52.9898 73.094C53.3258 73.01 53.6572 72.8933 53.9838 72.744V74.046ZM53.8578 77V69.524H55.6078V77H53.8578ZM57.9612 77V69.524H59.7112V74.452L63.8412 69.524H65.4372V77H63.6872V72.072L59.5712 77H57.9612ZM69.3452 77V70.588L69.7512 71.008H66.7132V69.524H73.7132V71.008H70.6892L71.0952 70.588V77H69.3452ZM78.7346 71.988C79.696 71.988 80.4286 72.2027 80.9326 72.632C81.4366 73.0613 81.6886 73.668 81.6886 74.452C81.6886 75.264 81.4086 75.8987 80.8486 76.356C80.2886 76.804 79.5 77.0233 78.4826 77.014L74.9826 77V69.524H76.7326V71.974L78.7346 71.988ZM78.3286 75.726C78.842 75.7353 79.234 75.628 79.5046 75.404C79.7753 75.18 79.9106 74.8533 79.9106 74.424C79.9106 73.9947 79.7753 73.6867 79.5046 73.5C79.2433 73.304 78.8513 73.2013 78.3286 73.192L76.7326 73.178V75.712L78.3286 75.726Z" fill="white"/>
</svg>
