<svg width="90" height="90" viewBox="0 0 90 90" fill="none" xmlns="http://www.w3.org/2000/svg">
<path d="M10.13 76.16V68.74H6.29405L6.22405 70.476C6.19605 71.1293 6.15405 71.75 6.09805 72.338C6.05138 72.9167 5.97205 73.444 5.86005 73.92C5.75738 74.396 5.61271 74.7927 5.42605 75.11C5.23938 75.4273 5.01071 75.6373 4.74005 75.74L2.78005 75.46C3.13471 75.4787 3.42405 75.3573 3.64805 75.096C3.88138 74.8347 4.06338 74.4707 4.19405 74.004C4.32471 73.5373 4.42271 72.9913 4.48805 72.366C4.55338 71.7313 4.60005 71.0453 4.62805 70.308L4.74005 67.2H11.922V76.16H10.13ZM2.44405 79.086L2.45805 75.46H13.336V79.086H11.656V77H4.13805V79.086H2.44405ZM18.0627 77.098C17.2974 77.098 16.616 76.9347 16.0187 76.608C15.4214 76.272 14.95 75.8147 14.6047 75.236C14.2594 74.6573 14.0867 73.9993 14.0867 73.262C14.0867 72.5153 14.2594 71.8573 14.6047 71.288C14.95 70.7093 15.4214 70.2567 16.0187 69.93C16.616 69.6033 17.2974 69.44 18.0627 69.44C18.8374 69.44 19.5234 69.6033 20.1207 69.93C20.7274 70.2567 21.1987 70.7047 21.5347 71.274C21.88 71.8433 22.0527 72.506 22.0527 73.262C22.0527 73.9993 21.88 74.6573 21.5347 75.236C21.1987 75.8147 20.7274 76.272 20.1207 76.608C19.5234 76.9347 18.8374 77.098 18.0627 77.098ZM18.0627 75.6C18.492 75.6 18.8747 75.5067 19.2107 75.32C19.5467 75.1333 19.808 74.8627 19.9947 74.508C20.1907 74.1533 20.2887 73.738 20.2887 73.262C20.2887 72.7767 20.1907 72.3613 19.9947 72.016C19.808 71.6613 19.5467 71.3907 19.2107 71.204C18.8747 71.0173 18.4967 70.924 18.0767 70.924C17.6474 70.924 17.2647 71.0173 16.9287 71.204C16.602 71.3907 16.3407 71.6613 16.1447 72.016C15.9487 72.3613 15.8507 72.7767 15.8507 73.262C15.8507 73.738 15.9487 74.1533 16.1447 74.508C16.3407 74.8627 16.602 75.1333 16.9287 75.32C17.2647 75.5067 17.6427 75.6 18.0627 75.6ZM29.1435 77L26.4415 73.416L27.8695 72.534L31.2015 77H29.1435ZM23.7815 77V69.524H25.5315V77H23.7815ZM25.0135 74.004V72.548H27.5475V74.004H25.0135ZM28.0375 73.472L26.3995 73.276L29.1435 69.524H31.0195L28.0375 73.472ZM32.6839 79.814C32.3199 79.814 31.9559 79.7533 31.5919 79.632C31.2279 79.5107 30.9246 79.3427 30.6819 79.128L31.3819 77.84C31.5593 77.9987 31.7599 78.1247 31.9839 78.218C32.2079 78.3113 32.4366 78.358 32.6699 78.358C32.9873 78.358 33.2439 78.2787 33.4399 78.12C33.6359 77.9613 33.8179 77.6953 33.9859 77.322L34.4199 76.342L34.5599 76.132L37.3879 69.524H39.0679L35.5679 77.602C35.3346 78.162 35.0733 78.6053 34.7839 78.932C34.5039 79.2587 34.1866 79.4873 33.8319 79.618C33.4866 79.7487 33.1039 79.814 32.6839 79.814ZM34.2239 77.266L30.8499 69.524H32.6699L35.4139 75.978L34.2239 77.266ZM40.2834 77V69.524H42.1174L45.1274 74.83H44.3994L47.5634 69.524H49.2014L49.2154 77H47.6334V71.4L47.9134 71.582L45.1134 76.216H44.3574L41.5434 71.456L41.8794 71.372V77H40.2834ZM55.0487 77.098C54.2181 77.098 53.4901 76.9347 52.8647 76.608C52.2487 76.272 51.7681 75.8147 51.4227 75.236C51.0867 74.6573 50.9187 73.9993 50.9187 73.262C50.9187 72.5153 51.0821 71.8573 51.4087 71.288C51.7447 70.7093 52.2021 70.2567 52.7807 69.93C53.3687 69.6033 54.0361 69.44 54.7827 69.44C55.5107 69.44 56.1594 69.5987 56.7287 69.916C57.2981 70.2333 57.7461 70.6813 58.0727 71.26C58.3994 71.8387 58.5627 72.52 58.5627 73.304C58.5627 73.3787 58.5581 73.4627 58.5487 73.556C58.5487 73.6493 58.5441 73.738 58.5347 73.822H52.3047V72.66H57.6107L56.9247 73.024C56.9341 72.5947 56.8454 72.2167 56.6587 71.89C56.4721 71.5633 56.2154 71.3067 55.8887 71.12C55.5714 70.9333 55.2027 70.84 54.7827 70.84C54.3534 70.84 53.9754 70.9333 53.6487 71.12C53.3314 71.3067 53.0794 71.568 52.8927 71.904C52.7154 72.2307 52.6267 72.618 52.6267 73.066V73.346C52.6267 73.794 52.7294 74.1907 52.9347 74.536C53.1401 74.8813 53.4294 75.1473 53.8027 75.334C54.1761 75.5207 54.6054 75.614 55.0907 75.614C55.5107 75.614 55.8887 75.5487 56.2247 75.418C56.5607 75.2873 56.8594 75.082 57.1207 74.802L58.0587 75.88C57.7227 76.272 57.2981 76.5753 56.7847 76.79C56.2807 76.9953 55.7021 77.098 55.0487 77.098ZM60.4768 77V69.524H62.2268V72.562H65.9928V69.524H67.7428V77H65.9928V74.046H62.2268V77H60.4768ZM71.6421 77V70.588L72.0481 71.008H69.0101V69.524H76.0101V71.008H72.9861L73.3921 70.588V77H71.6421ZM84.8255 77V69.524H86.5755V77H84.8255ZM80.9195 71.988C81.8808 71.988 82.6088 72.2027 83.1035 72.632C83.6075 73.0613 83.8595 73.668 83.8595 74.452C83.8595 75.264 83.5795 75.8987 83.0195 76.356C82.4688 76.804 81.6848 77.0233 80.6675 77.014L77.2795 77V69.524H79.0295V71.974L80.9195 71.988ZM80.5135 75.726C81.0268 75.7353 81.4188 75.628 81.6895 75.404C81.9602 75.18 82.0955 74.8533 82.0955 74.424C82.0955 73.9947 81.9602 73.6867 81.6895 73.5C81.4282 73.304 81.0362 73.2013 80.5135 73.192L79.0295 73.178V75.712L80.5135 75.726Z" fill="white"/>
<path d="M59.2669 7H30.7354C27.5671 7 25 9.70214 25 13.0342V53.9658C25 57.2979 27.5671 60 30.7354 60H59.2646C62.4329 60 65 57.2979 65 53.9658V13.0342C65.0023 9.70214 62.4317 7 59.2669 7ZM30.3753 27.3414C30.3753 25.927 31.4661 24.7817 32.8082 24.7817H33.6593C32.752 23.7269 32.1945 22.3318 32.1945 20.7943C32.1945 17.508 34.7284 14.8433 37.8519 14.8433C40.9778 14.8433 43.5093 17.5068 43.5093 20.7955C43.5093 22.3306 42.9519 23.7269 42.0422 24.7817H42.8555C44.1999 24.7817 45.2885 25.927 45.2885 27.3414V31.6596C45.2885 33.0136 44.2848 34.1095 43.023 34.2012H32.6407C31.3789 34.1095 30.3753 33.0136 30.3753 31.6596V27.3414ZM57.3317 52.1555H32.6694C31.403 52.1555 30.3753 51.0741 30.3753 49.7418C30.3753 48.4094 31.403 47.3281 32.6694 47.3281H57.3317C58.5981 47.3281 59.6259 48.4094 59.6259 49.7418C59.6259 51.0741 58.5981 52.1555 57.3317 52.1555ZM57.3317 43.1041H32.6694C31.403 43.1041 30.3753 42.0228 30.3753 40.6904C30.3753 39.358 31.403 38.2767 32.6694 38.2767H57.3317C58.5981 38.2767 59.6259 39.358 59.6259 40.6904C59.6259 42.0228 58.5981 43.1041 57.3317 43.1041ZM57.3317 34.0527H49.8757C48.6092 34.0527 47.5815 32.9714 47.5815 31.639C47.5815 30.3067 48.6092 29.2253 49.8757 29.2253H57.3317C58.5981 29.2253 59.6259 30.3067 59.6259 31.639C59.6259 32.9714 58.5981 34.0527 57.3317 34.0527Z" fill="white"/>
</svg>
