<svg width="90" height="90" viewBox="0 0 90 90" fill="none" xmlns="http://www.w3.org/2000/svg">
<path d="M28.6213 76.16V68.74H24.7853L24.7153 70.476C24.6873 71.1293 24.6453 71.75 24.5893 72.338C24.5426 72.9167 24.4633 73.444 24.3513 73.92C24.2486 74.396 24.1039 74.7927 23.9173 75.11C23.7306 75.4273 23.5019 75.6373 23.2313 75.74L21.2713 75.46C21.6259 75.4787 21.9153 75.3573 22.1393 75.096C22.3726 74.8347 22.5546 74.4707 22.6853 74.004C22.8159 73.5373 22.9139 72.9913 22.9793 72.366C23.0446 71.7313 23.0913 71.0453 23.1193 70.308L23.2313 67.2H30.4133V76.16H28.6213ZM20.9353 79.086L20.9493 75.46H31.8273V79.086H30.1473V77H22.6293V79.086H20.9353ZM33.3449 77V69.524H36.9989C37.9043 69.524 38.6136 69.692 39.1269 70.028C39.6496 70.364 39.9109 70.84 39.9109 71.456C39.9109 72.0627 39.6683 72.5387 39.1829 72.884C38.6976 73.22 38.0536 73.388 37.2509 73.388L37.4609 72.954C38.3663 72.954 39.0383 73.122 39.4769 73.458C39.9249 73.7847 40.1489 74.2653 40.1489 74.9C40.1489 75.5627 39.9016 76.0807 39.4069 76.454C38.9123 76.818 38.1609 77 37.1529 77H33.3449ZM35.0109 75.726H37.0129C37.4889 75.726 37.8483 75.6513 38.0909 75.502C38.3336 75.3433 38.4549 75.1053 38.4549 74.788C38.4549 74.452 38.3429 74.2047 38.1189 74.046C37.8949 73.8873 37.5449 73.808 37.0689 73.808H35.0109V75.726ZM35.0109 72.646H36.8449C37.2929 72.646 37.6289 72.5667 37.8529 72.408C38.0863 72.24 38.2029 72.0067 38.2029 71.708C38.2029 71.4 38.0863 71.1713 37.8529 71.022C37.6289 70.8727 37.2929 70.798 36.8449 70.798H35.0109V72.646ZM45.4989 77.098C44.6682 77.098 43.9402 76.9347 43.3149 76.608C42.6989 76.272 42.2182 75.8147 41.8729 75.236C41.5369 74.6573 41.3689 73.9993 41.3689 73.262C41.3689 72.5153 41.5322 71.8573 41.8589 71.288C42.1949 70.7093 42.6522 70.2567 43.2309 69.93C43.8189 69.6033 44.4862 69.44 45.2329 69.44C45.9609 69.44 46.6096 69.5987 47.1789 69.916C47.7482 70.2333 48.1962 70.6813 48.5229 71.26C48.8496 71.8387 49.0129 72.52 49.0129 73.304C49.0129 73.3787 49.0082 73.4627 48.9989 73.556C48.9989 73.6493 48.9942 73.738 48.9849 73.822H42.7549V72.66H48.0609L47.3749 73.024C47.3842 72.5947 47.2956 72.2167 47.1089 71.89C46.9222 71.5633 46.6656 71.3067 46.3389 71.12C46.0216 70.9333 45.6529 70.84 45.2329 70.84C44.8036 70.84 44.4256 70.9333 44.0989 71.12C43.7816 71.3067 43.5296 71.568 43.3429 71.904C43.1656 72.2307 43.0769 72.618 43.0769 73.066V73.346C43.0769 73.794 43.1796 74.1907 43.3849 74.536C43.5902 74.8813 43.8796 75.1473 44.2529 75.334C44.6262 75.5207 45.0556 75.614 45.5409 75.614C45.9609 75.614 46.3389 75.5487 46.6749 75.418C47.0109 75.2873 47.3096 75.082 47.5709 74.802L48.5089 75.88C48.1729 76.272 47.7482 76.5753 47.2349 76.79C46.7309 76.9953 46.1522 77.098 45.4989 77.098ZM55.071 77.098C54.4643 77.098 53.909 76.958 53.405 76.678C52.9103 76.398 52.5136 75.978 52.215 75.418C51.9256 74.8487 51.781 74.13 51.781 73.262C51.781 72.3847 51.921 71.666 52.201 71.106C52.4903 70.546 52.8823 70.1307 53.377 69.86C53.8716 69.58 54.4363 69.44 55.071 69.44C55.8083 69.44 56.457 69.5987 57.017 69.916C57.5863 70.2333 58.0343 70.6767 58.361 71.246C58.697 71.8153 58.865 72.4873 58.865 73.262C58.865 74.0367 58.697 74.7133 58.361 75.292C58.0343 75.8613 57.5863 76.3047 57.017 76.622C56.457 76.9393 55.8083 77.098 55.071 77.098ZM50.927 79.716V69.524H52.593V71.288L52.537 73.276L52.677 75.264V79.716H50.927ZM54.875 75.6C55.295 75.6 55.6683 75.5067 55.995 75.32C56.331 75.1333 56.597 74.8627 56.793 74.508C56.989 74.1533 57.087 73.738 57.087 73.262C57.087 72.7767 56.989 72.3613 56.793 72.016C56.597 71.6613 56.331 71.3907 55.995 71.204C55.6683 71.0173 55.295 70.924 54.875 70.924C54.455 70.924 54.077 71.0173 53.741 71.204C53.405 71.3907 53.139 71.6613 52.943 72.016C52.747 72.3613 52.649 72.7767 52.649 73.262C52.649 73.738 52.747 74.1533 52.943 74.508C53.139 74.8627 53.405 75.1333 53.741 75.32C54.077 75.5067 54.455 75.6 54.875 75.6ZM60.6067 77V69.524H62.3567V74.452L66.4867 69.524H68.0827V77H66.3327V72.072L62.2167 77H60.6067Z" fill="white"/>
<path d="M37.0167 41.9167V38.6042C37.0167 35.5125 33.925 33.0833 30.8333 33.0833C27.7417 33.0833 24.65 35.5125 24.65 38.6042V41.9167C23.325 41.9167 22 43.2417 22 44.5667V52.2958C22 53.8417 23.325 55.1667 24.65 55.1667H36.7958C38.3417 55.1667 39.6667 53.8417 39.6667 52.5167V44.7875C39.6667 43.2417 38.3417 41.9167 37.0167 41.9167ZM34.1458 41.9167H27.5208V38.6042C27.5208 36.8375 29.0667 35.7333 30.8333 35.7333C32.6 35.7333 34.1458 36.8375 34.1458 38.6042V41.9167ZM66.1667 11H44.0833L26.4167 28.6667V29.6383C27.7638 29.0421 29.2654 28.6667 30.8333 28.6667C36.575 28.6667 41.4333 33.2158 41.4333 38.6042V39.1562C43.0454 40.5033 44.0833 42.535 44.0833 44.7875V50.75H68.375V13.2083C68.375 11.9937 67.3813 11 66.1667 11ZM61.75 39.7083H55.125V35.2917H61.75V39.7083ZM63.9583 28.6667H32.6663L45.9163 15.4167H63.9583V28.6667Z" fill="white"/>
</svg>
