<svg width="90" height="90" viewBox="0 0 90 90" fill="none" xmlns="http://www.w3.org/2000/svg">
<path d="M10.7708 77V67.2H19.4368V77H17.6448V68.292L18.0648 68.74H12.1428L12.5628 68.292V77H10.7708ZM25.4061 77.098C24.6221 77.098 23.9221 76.9347 23.3061 76.608C22.6995 76.272 22.2235 75.8147 21.8781 75.236C21.5328 74.6573 21.3601 73.9993 21.3601 73.262C21.3601 72.5153 21.5328 71.8573 21.8781 71.288C22.2235 70.7093 22.6995 70.2567 23.3061 69.93C23.9221 69.6033 24.6221 69.44 25.4061 69.44C26.1341 69.44 26.7735 69.5893 27.3241 69.888C27.8841 70.1773 28.3088 70.6067 28.5981 71.176L27.2541 71.96C27.0301 71.6053 26.7548 71.344 26.4281 71.176C26.1108 71.008 25.7655 70.924 25.3921 70.924C24.9628 70.924 24.5755 71.0173 24.2301 71.204C23.8848 71.3907 23.6141 71.6613 23.4181 72.016C23.2221 72.3613 23.1241 72.7767 23.1241 73.262C23.1241 73.7473 23.2221 74.1673 23.4181 74.522C23.6141 74.8673 23.8848 75.1333 24.2301 75.32C24.5755 75.5067 24.9628 75.6 25.3921 75.6C25.7655 75.6 26.1108 75.516 26.4281 75.348C26.7548 75.18 27.0301 74.9187 27.2541 74.564L28.5981 75.348C28.3088 75.908 27.8841 76.342 27.3241 76.65C26.7735 76.9487 26.1341 77.098 25.4061 77.098ZM30.1389 77V69.524H31.8889V74.452L36.0189 69.524H37.6149V77H35.8649V72.072L31.7489 77H30.1389ZM38.863 77L42.153 72.716L42.125 73.654L38.989 69.524H40.935L43.133 72.464H42.391L44.603 69.524H46.493L43.329 73.654L43.343 72.716L46.619 77H44.645L42.335 73.878L43.063 73.976L40.795 77H38.863ZM50.9572 77.098C50.1919 77.098 49.5106 76.9347 48.9132 76.608C48.3159 76.272 47.8446 75.8147 47.4992 75.236C47.1539 74.6573 46.9812 73.9993 46.9812 73.262C46.9812 72.5153 47.1539 71.8573 47.4992 71.288C47.8446 70.7093 48.3159 70.2567 48.9132 69.93C49.5106 69.6033 50.1919 69.44 50.9572 69.44C51.7319 69.44 52.4179 69.6033 53.0152 69.93C53.6219 70.2567 54.0932 70.7047 54.4292 71.274C54.7746 71.8433 54.9472 72.506 54.9472 73.262C54.9472 73.9993 54.7746 74.6573 54.4292 75.236C54.0932 75.8147 53.6219 76.272 53.0152 76.608C52.4179 76.9347 51.7319 77.098 50.9572 77.098ZM50.9572 75.6C51.3866 75.6 51.7692 75.5067 52.1052 75.32C52.4412 75.1333 52.7026 74.8627 52.8892 74.508C53.0852 74.1533 53.1832 73.738 53.1832 73.262C53.1832 72.7767 53.0852 72.3613 52.8892 72.016C52.7026 71.6613 52.4412 71.3907 52.1052 71.204C51.7692 71.0173 51.3912 70.924 50.9712 70.924C50.5419 70.924 50.1592 71.0173 49.8232 71.204C49.4966 71.3907 49.2352 71.6613 49.0392 72.016C48.8432 72.3613 48.7452 72.7767 48.7452 73.262C48.7452 73.738 48.8432 74.1533 49.0392 74.508C49.2352 74.8627 49.4966 75.1333 49.8232 75.32C50.1592 75.5067 50.5372 75.6 50.9572 75.6ZM55.502 76.986L55.586 75.516C55.6513 75.5253 55.712 75.5347 55.768 75.544C55.824 75.5533 55.8753 75.558 55.922 75.558C56.2113 75.558 56.4353 75.4693 56.594 75.292C56.7526 75.1147 56.8693 74.8767 56.944 74.578C57.028 74.27 57.084 73.9293 57.112 73.556C57.1493 73.1733 57.1773 72.7907 57.196 72.408L57.322 69.524H63.37V77H61.62V70.532L62.026 71.008H58.47L58.848 70.518L58.75 72.492C58.722 73.1547 58.666 73.7707 58.582 74.34C58.5073 74.9 58.386 75.39 58.218 75.81C58.0593 76.23 57.8353 76.5567 57.546 76.79C57.266 77.0233 56.9066 77.14 56.468 77.14C56.328 77.14 56.174 77.126 56.006 77.098C55.8473 77.07 55.6793 77.0327 55.502 76.986ZM69.0588 77.098C68.2934 77.098 67.6121 76.9347 67.0148 76.608C66.4174 76.272 65.9461 75.8147 65.6008 75.236C65.2554 74.6573 65.0828 73.9993 65.0828 73.262C65.0828 72.5153 65.2554 71.8573 65.6008 71.288C65.9461 70.7093 66.4174 70.2567 67.0148 69.93C67.6121 69.6033 68.2934 69.44 69.0588 69.44C69.8334 69.44 70.5194 69.6033 71.1168 69.93C71.7234 70.2567 72.1948 70.7047 72.5308 71.274C72.8761 71.8433 73.0488 72.506 73.0488 73.262C73.0488 73.9993 72.8761 74.6573 72.5308 75.236C72.1948 75.8147 71.7234 76.272 71.1168 76.608C70.5194 76.9347 69.8334 77.098 69.0588 77.098ZM69.0588 75.6C69.4881 75.6 69.8708 75.5067 70.2068 75.32C70.5428 75.1333 70.8041 74.8627 70.9908 74.508C71.1868 74.1533 71.2848 73.738 71.2848 73.262C71.2848 72.7767 71.1868 72.3613 70.9908 72.016C70.8041 71.6613 70.5428 71.3907 70.2068 71.204C69.8708 71.0173 69.4928 70.924 69.0728 70.924C68.6434 70.924 68.2608 71.0173 67.9248 71.204C67.5981 71.3907 67.3368 71.6613 67.1408 72.016C66.9448 72.3613 66.8468 72.7767 66.8468 73.262C66.8468 73.738 66.9448 74.1533 67.1408 74.508C67.3368 74.8627 67.5981 75.1333 67.9248 75.32C68.2608 75.5067 68.6388 75.6 69.0588 75.6ZM74.7776 77V69.524H80.5176V71.008H76.1216L76.5276 70.616V77H74.7776Z" fill="white"/>
<path d="M65.8333 25.75V50.75C65.8321 51.1348 65.7245 51.5116 65.5222 51.8389C65.32 52.1662 65.031 52.4311 64.6875 52.6042C64.4 52.7602 64.077 52.8391 63.75 52.8334C63.2992 52.8334 62.8606 52.6872 62.5 52.4167L54.7291 46.5834H40.8333C39.7282 46.5834 38.6684 46.1444 37.887 45.363C37.1056 44.5816 36.6666 43.5218 36.6666 42.4167V25.75C36.6666 24.645 37.1056 23.5852 37.887 22.8038C38.6684 22.0224 39.7282 21.5834 40.8333 21.5834H61.6666C62.7717 21.5834 63.8315 22.0224 64.6129 22.8038C65.3943 23.5852 65.8333 24.645 65.8333 25.75Z" fill="white"/>
<path d="M53.8958 19.4999H40.8333C39.1757 19.4999 37.586 20.1584 36.4139 21.3305C35.2418 22.5026 34.5833 24.0923 34.5833 25.7499V40.3333L29.0416 42.4166C28.8073 42.457 28.5677 42.457 28.3333 42.4166C27.873 42.4152 27.4261 42.2613 27.0625 41.9791C26.7869 41.7685 26.5682 41.4924 26.4263 41.1759C26.2844 40.8594 26.2238 40.5125 26.25 40.1666L26.75 33.7916C25.0665 31.4485 24.1627 28.6351 24.1666 25.7499C24.3133 21.747 26.0397 17.9652 28.968 15.2321C31.8964 12.499 35.7881 11.0372 39.7916 11.1666C42.6831 11.1165 45.5318 11.8687 48.0216 13.3398C50.5113 14.8108 52.5446 16.9431 53.8958 19.4999Z" fill="white"/>
</svg>
