<svg width="90" height="90" viewBox="0 0 90 90" fill="none" xmlns="http://www.w3.org/2000/svg">
<path d="M17.2278 67.2H19.0478V77H17.2278V67.2ZM12.1598 77H10.3398V67.2H12.1598V77ZM17.3678 72.8H12.0058V71.246H17.3678V72.8ZM26.1368 77V75.488L26.0388 75.166V72.52C26.0388 72.0067 25.8848 71.61 25.5768 71.33C25.2688 71.0407 24.8021 70.896 24.1768 70.896C23.7568 70.896 23.3415 70.9613 22.9308 71.092C22.5295 71.2227 22.1888 71.4047 21.9088 71.638L21.2228 70.364C21.6241 70.056 22.1001 69.8273 22.6508 69.678C23.2108 69.5193 23.7895 69.44 24.3868 69.44C25.4695 69.44 26.3048 69.7013 26.8928 70.224C27.4901 70.7373 27.7888 71.5353 27.7888 72.618V77H26.1368ZM23.7848 77.098C23.2248 77.098 22.7348 77.0047 22.3148 76.818C21.8948 76.622 21.5681 76.356 21.3348 76.02C21.1108 75.6747 20.9988 75.2873 20.9988 74.858C20.9988 74.438 21.0968 74.06 21.2928 73.724C21.4981 73.388 21.8295 73.122 22.2868 72.926C22.7441 72.73 23.3508 72.632 24.1068 72.632H26.2768V73.794H24.2328C23.6355 73.794 23.2341 73.892 23.0288 74.088C22.8235 74.2747 22.7208 74.508 22.7208 74.788C22.7208 75.1053 22.8468 75.3573 23.0988 75.544C23.3508 75.7307 23.7008 75.824 24.1488 75.824C24.5781 75.824 24.9608 75.726 25.2968 75.53C25.6421 75.334 25.8895 75.0447 26.0388 74.662L26.3328 75.712C26.1648 76.1507 25.8615 76.4913 25.4228 76.734C24.9935 76.9767 24.4475 77.098 23.7848 77.098ZM34.0983 77.098C33.4917 77.098 32.9363 76.958 32.4323 76.678C31.9377 76.398 31.541 75.978 31.2423 75.418C30.953 74.8487 30.8083 74.13 30.8083 73.262C30.8083 72.3847 30.9483 71.666 31.2283 71.106C31.5177 70.546 31.9097 70.1307 32.4043 69.86C32.899 69.58 33.4637 69.44 34.0983 69.44C34.8357 69.44 35.4843 69.5987 36.0443 69.916C36.6137 70.2333 37.0617 70.6767 37.3883 71.246C37.7243 71.8153 37.8923 72.4873 37.8923 73.262C37.8923 74.0367 37.7243 74.7133 37.3883 75.292C37.0617 75.8613 36.6137 76.3047 36.0443 76.622C35.4843 76.9393 34.8357 77.098 34.0983 77.098ZM29.9543 79.716V69.524H31.6203V71.288L31.5643 73.276L31.7043 75.264V79.716H29.9543ZM33.9023 75.6C34.3223 75.6 34.6957 75.5067 35.0223 75.32C35.3583 75.1333 35.6243 74.8627 35.8203 74.508C36.0163 74.1533 36.1143 73.738 36.1143 73.262C36.1143 72.7767 36.0163 72.3613 35.8203 72.016C35.6243 71.6613 35.3583 71.3907 35.0223 71.204C34.6957 71.0173 34.3223 70.924 33.9023 70.924C33.4823 70.924 33.1043 71.0173 32.7683 71.204C32.4323 71.3907 32.1663 71.6613 31.9703 72.016C31.7743 72.3613 31.6763 72.7767 31.6763 73.262C31.6763 73.738 31.7743 74.1533 31.9703 74.508C32.1663 74.8627 32.4323 75.1333 32.7683 75.32C33.1043 75.5067 33.4823 75.6 33.9023 75.6ZM44.996 77L42.294 73.416L43.722 72.534L47.054 77H44.996ZM39.634 77V69.524H41.384V77H39.634ZM40.866 74.004V72.548H43.4V74.004H40.866ZM43.89 73.472L42.252 73.276L44.996 69.524H46.872L43.89 73.472ZM51.3742 77.098C50.6089 77.098 49.9275 76.9347 49.3302 76.608C48.7329 76.272 48.2615 75.8147 47.9162 75.236C47.5709 74.6573 47.3982 73.9993 47.3982 73.262C47.3982 72.5153 47.5709 71.8573 47.9162 71.288C48.2615 70.7093 48.7329 70.2567 49.3302 69.93C49.9275 69.6033 50.6089 69.44 51.3742 69.44C52.1489 69.44 52.8349 69.6033 53.4322 69.93C54.0389 70.2567 54.5102 70.7047 54.8462 71.274C55.1915 71.8433 55.3642 72.506 55.3642 73.262C55.3642 73.9993 55.1915 74.6573 54.8462 75.236C54.5102 75.8147 54.0389 76.272 53.4322 76.608C52.8349 76.9347 52.1489 77.098 51.3742 77.098ZM51.3742 75.6C51.8035 75.6 52.1862 75.5067 52.5222 75.32C52.8582 75.1333 53.1195 74.8627 53.3062 74.508C53.5022 74.1533 53.6002 73.738 53.6002 73.262C53.6002 72.7767 53.5022 72.3613 53.3062 72.016C53.1195 71.6613 52.8582 71.3907 52.5222 71.204C52.1862 71.0173 51.8082 70.924 51.3882 70.924C50.9589 70.924 50.5762 71.0173 50.2402 71.204C49.9135 71.3907 49.6522 71.6613 49.4562 72.016C49.2602 72.3613 49.1622 72.7767 49.1622 73.262C49.1622 73.738 49.2602 74.1533 49.4562 74.508C49.6522 74.8627 49.9135 75.1333 50.2402 75.32C50.5762 75.5067 50.9542 75.6 51.3742 75.6ZM55.919 76.986L56.003 75.516C56.0683 75.5253 56.129 75.5347 56.185 75.544C56.241 75.5533 56.2923 75.558 56.339 75.558C56.6283 75.558 56.8523 75.4693 57.011 75.292C57.1696 75.1147 57.2863 74.8767 57.361 74.578C57.445 74.27 57.501 73.9293 57.529 73.556C57.5663 73.1733 57.5943 72.7907 57.613 72.408L57.739 69.524H63.787V77H62.037V70.532L62.443 71.008H58.887L59.265 70.518L59.167 72.492C59.139 73.1547 59.083 73.7707 58.999 74.34C58.9243 74.9 58.803 75.39 58.635 75.81C58.4763 76.23 58.2523 76.5567 57.963 76.79C57.683 77.0233 57.3236 77.14 56.885 77.14C56.745 77.14 56.591 77.126 56.423 77.098C56.2643 77.07 56.0963 77.0327 55.919 76.986ZM69.4758 77.098C68.7104 77.098 68.0291 76.9347 67.4318 76.608C66.8344 76.272 66.3631 75.8147 66.0178 75.236C65.6724 74.6573 65.4998 73.9993 65.4998 73.262C65.4998 72.5153 65.6724 71.8573 66.0178 71.288C66.3631 70.7093 66.8344 70.2567 67.4318 69.93C68.0291 69.6033 68.7104 69.44 69.4758 69.44C70.2504 69.44 70.9364 69.6033 71.5338 69.93C72.1404 70.2567 72.6118 70.7047 72.9478 71.274C73.2931 71.8433 73.4658 72.506 73.4658 73.262C73.4658 73.9993 73.2931 74.6573 72.9478 75.236C72.6118 75.8147 72.1404 76.272 71.5338 76.608C70.9364 76.9347 70.2504 77.098 69.4758 77.098ZM69.4758 75.6C69.9051 75.6 70.2878 75.5067 70.6238 75.32C70.9598 75.1333 71.2211 74.8627 71.4078 74.508C71.6038 74.1533 71.7018 73.738 71.7018 73.262C71.7018 72.7767 71.6038 72.3613 71.4078 72.016C71.2211 71.6613 70.9598 71.3907 70.6238 71.204C70.2878 71.0173 69.9098 70.924 69.4898 70.924C69.0604 70.924 68.6778 71.0173 68.3418 71.204C68.0151 71.3907 67.7538 71.6613 67.5578 72.016C67.3618 72.3613 67.2638 72.7767 67.2638 73.262C67.2638 73.738 67.3618 74.1533 67.5578 74.508C67.7538 74.8627 68.0151 75.1333 68.3418 75.32C68.6778 75.5067 69.0558 75.6 69.4758 75.6ZM75.1946 77V69.524H80.9346V71.008H76.5386L76.9446 70.616V77H75.1946Z" fill="white"/>
<path fill-rule="evenodd" clip-rule="evenodd" d="M43.4516 28.6734C41.8156 27.8047 39.9484 27.3125 37.9688 27.3125C31.5016 27.3125 26.25 32.5641 26.25 39.0312C26.25 45.4984 31.5016 50.75 37.9688 50.75C41.1328 50.75 44.0047 49.4937 46.1141 47.4531C47.9687 49.4797 50.6359 50.75 53.5984 50.75C53.6 50.75 53.6016 50.75 53.6031 50.75C59.2078 50.75 63.75 46.2078 63.75 40.6031C63.75 35.35 63.75 28.65 63.75 23.3969C63.75 17.7922 59.2078 13.25 53.6031 13.25C53.6016 13.25 53.6 13.25 53.5984 13.25C47.9953 13.25 43.4516 17.7922 43.4516 23.3969V28.6734ZM48.3344 33.5625C49.1984 35.1953 49.6875 37.0562 49.6875 39.0312C49.6875 41.1891 49.1031 43.2125 48.0828 44.95C49.3703 46.5797 51.3625 47.625 53.5984 47.625C53.6 47.625 53.6016 47.625 53.6031 47.625C57.4813 47.625 60.625 44.4813 60.625 40.6031V33.5625H48.3344ZM45.0547 34.1703C46.0062 35.5531 46.5625 37.2281 46.5625 39.0312C46.5625 43.775 42.7125 47.625 37.9688 47.625C36.1656 47.625 34.4906 47.0687 33.1078 46.1172L45.0547 34.1703ZM42.8469 31.9578L30.8953 43.9094C29.9359 42.5234 29.375 40.8422 29.375 39.0312C29.375 34.2875 33.225 30.4375 37.9688 30.4375C39.7797 30.4375 41.4609 30.9984 42.8469 31.9578ZM60.625 30.4375V23.3969C60.625 19.5188 57.4813 16.375 53.6031 16.375C53.6016 16.375 53.6 16.375 53.5984 16.375C49.7203 16.375 46.5766 19.5188 46.5766 23.3969V30.4375H60.625Z" fill="white"/>
</svg>
