<svg width="90" height="90" viewBox="0 0 90 90" fill="none" xmlns="http://www.w3.org/2000/svg">
<path d="M9.23268 77V67.2H17.8987V77H16.1067V68.292L16.5267 68.74H10.6047L11.0247 68.292V77H9.23268ZM24.61 77.098C24.0034 77.098 23.448 76.958 22.944 76.678C22.4494 76.398 22.0527 75.978 21.754 75.418C21.4647 74.8487 21.32 74.13 21.32 73.262C21.32 72.3847 21.46 71.666 21.74 71.106C22.0294 70.546 22.4214 70.1307 22.916 69.86C23.4107 69.58 23.9754 69.44 24.61 69.44C25.3474 69.44 25.996 69.5987 26.556 69.916C27.1254 70.2333 27.5734 70.6767 27.9 71.246C28.236 71.8153 28.404 72.4873 28.404 73.262C28.404 74.0367 28.236 74.7133 27.9 75.292C27.5734 75.8613 27.1254 76.3047 26.556 76.622C25.996 76.9393 25.3474 77.098 24.61 77.098ZM20.466 79.716V69.524H22.132V71.288L22.076 73.276L22.216 75.264V79.716H20.466ZM24.414 75.6C24.834 75.6 25.2074 75.5067 25.534 75.32C25.87 75.1333 26.136 74.8627 26.332 74.508C26.528 74.1533 26.626 73.738 26.626 73.262C26.626 72.7767 26.528 72.3613 26.332 72.016C26.136 71.6613 25.87 71.3907 25.534 71.204C25.2074 71.0173 24.834 70.924 24.414 70.924C23.994 70.924 23.616 71.0173 23.28 71.204C22.944 71.3907 22.678 71.6613 22.482 72.016C22.286 72.3613 22.188 72.7767 22.188 73.262C22.188 73.738 22.286 74.1533 22.482 74.508C22.678 74.8627 22.944 75.1333 23.28 75.32C23.616 75.5067 23.994 75.6 24.414 75.6ZM33.4777 77.098C32.7124 77.098 32.0311 76.9347 31.4337 76.608C30.8364 76.272 30.3651 75.8147 30.0197 75.236C29.6744 74.6573 29.5017 73.9993 29.5017 73.262C29.5017 72.5153 29.6744 71.8573 30.0197 71.288C30.3651 70.7093 30.8364 70.2567 31.4337 69.93C32.0311 69.6033 32.7124 69.44 33.4777 69.44C34.2524 69.44 34.9384 69.6033 35.5357 69.93C36.1424 70.2567 36.6137 70.7047 36.9497 71.274C37.2951 71.8433 37.4677 72.506 37.4677 73.262C37.4677 73.9993 37.2951 74.6573 36.9497 75.236C36.6137 75.8147 36.1424 76.272 35.5357 76.608C34.9384 76.9347 34.2524 77.098 33.4777 77.098ZM33.4777 75.6C33.9071 75.6 34.2897 75.5067 34.6257 75.32C34.9617 75.1333 35.2231 74.8627 35.4097 74.508C35.6057 74.1533 35.7037 73.738 35.7037 73.262C35.7037 72.7767 35.6057 72.3613 35.4097 72.016C35.2231 71.6613 34.9617 71.3907 34.6257 71.204C34.2897 71.0173 33.9117 70.924 33.4917 70.924C33.0624 70.924 32.6797 71.0173 32.3437 71.204C32.0171 71.3907 31.7557 71.6613 31.5597 72.016C31.3637 72.3613 31.2657 72.7767 31.2657 73.262C31.2657 73.738 31.3637 74.1533 31.5597 74.508C31.7557 74.8627 32.0171 75.1333 32.3437 75.32C32.6797 75.5067 33.0577 75.6 33.4777 75.6ZM39.1965 77V69.524H42.8505C43.7558 69.524 44.4652 69.692 44.9785 70.028C45.5012 70.364 45.7625 70.84 45.7625 71.456C45.7625 72.0627 45.5198 72.5387 45.0345 72.884C44.5492 73.22 43.9052 73.388 43.1025 73.388L43.3125 72.954C44.2178 72.954 44.8898 73.122 45.3285 73.458C45.7765 73.7847 46.0005 74.2653 46.0005 74.9C46.0005 75.5627 45.7532 76.0807 45.2585 76.454C44.7638 76.818 44.0125 77 43.0045 77H39.1965ZM40.8625 75.726H42.8645C43.3405 75.726 43.6998 75.6513 43.9425 75.502C44.1852 75.3433 44.3065 75.1053 44.3065 74.788C44.3065 74.452 44.1945 74.2047 43.9705 74.046C43.7465 73.8873 43.3965 73.808 42.9205 73.808H40.8625V75.726ZM40.8625 72.646H42.6965C43.1445 72.646 43.4805 72.5667 43.7045 72.408C43.9378 72.24 44.0545 72.0067 44.0545 71.708C44.0545 71.4 43.9378 71.1713 43.7045 71.022C43.4805 70.8727 43.1445 70.798 42.6965 70.798H40.8625V72.646ZM51.3505 77.098C50.5198 77.098 49.7918 76.9347 49.1665 76.608C48.5505 76.272 48.0698 75.8147 47.7245 75.236C47.3885 74.6573 47.2205 73.9993 47.2205 73.262C47.2205 72.5153 47.3838 71.8573 47.7105 71.288C48.0465 70.7093 48.5038 70.2567 49.0825 69.93C49.6705 69.6033 50.3378 69.44 51.0845 69.44C51.8125 69.44 52.4611 69.5987 53.0305 69.916C53.5998 70.2333 54.0478 70.6813 54.3745 71.26C54.7011 71.8387 54.8645 72.52 54.8645 73.304C54.8645 73.3787 54.8598 73.4627 54.8505 73.556C54.8505 73.6493 54.8458 73.738 54.8365 73.822H48.6065V72.66H53.9125L53.2265 73.024C53.2358 72.5947 53.1471 72.2167 52.9605 71.89C52.7738 71.5633 52.5171 71.3067 52.1905 71.12C51.8731 70.9333 51.5045 70.84 51.0845 70.84C50.6551 70.84 50.2771 70.9333 49.9505 71.12C49.6331 71.3067 49.3811 71.568 49.1945 71.904C49.0171 72.2307 48.9285 72.618 48.9285 73.066V73.346C48.9285 73.794 49.0311 74.1907 49.2365 74.536C49.4418 74.8813 49.7311 75.1473 50.1045 75.334C50.4778 75.5207 50.9071 75.614 51.3925 75.614C51.8125 75.614 52.1905 75.5487 52.5265 75.418C52.8625 75.2873 53.1611 75.082 53.4225 74.802L54.3605 75.88C54.0245 76.272 53.5998 76.5753 53.0865 76.79C52.5825 76.9953 52.0038 77.098 51.3505 77.098ZM60.9225 77.098C60.3159 77.098 59.7605 76.958 59.2565 76.678C58.7619 76.398 58.3652 75.978 58.0665 75.418C57.7772 74.8487 57.6325 74.13 57.6325 73.262C57.6325 72.3847 57.7725 71.666 58.0525 71.106C58.3419 70.546 58.7339 70.1307 59.2285 69.86C59.7232 69.58 60.2879 69.44 60.9225 69.44C61.6599 69.44 62.3085 69.5987 62.8685 69.916C63.4379 70.2333 63.8859 70.6767 64.2125 71.246C64.5485 71.8153 64.7165 72.4873 64.7165 73.262C64.7165 74.0367 64.5485 74.7133 64.2125 75.292C63.8859 75.8613 63.4379 76.3047 62.8685 76.622C62.3085 76.9393 61.6599 77.098 60.9225 77.098ZM56.7785 79.716V69.524H58.4445V71.288L58.3885 73.276L58.5285 75.264V79.716H56.7785ZM60.7265 75.6C61.1465 75.6 61.5199 75.5067 61.8465 75.32C62.1825 75.1333 62.4485 74.8627 62.6445 74.508C62.8405 74.1533 62.9385 73.738 62.9385 73.262C62.9385 72.7767 62.8405 72.3613 62.6445 72.016C62.4485 71.6613 62.1825 71.3907 61.8465 71.204C61.5199 71.0173 61.1465 70.924 60.7265 70.924C60.3065 70.924 59.9285 71.0173 59.5925 71.204C59.2565 71.3907 58.9905 71.6613 58.7945 72.016C58.5985 72.3613 58.5005 72.7767 58.5005 73.262C58.5005 73.738 58.5985 74.1533 58.7945 74.508C58.9905 74.8627 59.2565 75.1333 59.5925 75.32C59.9285 75.5067 60.3065 75.6 60.7265 75.6ZM71.8202 77L69.1182 73.416L70.5462 72.534L73.8782 77H71.8202ZM66.4582 77V69.524H68.2082V77H66.4582ZM67.6902 74.004V72.548H70.2242V74.004H67.6902ZM70.7142 73.472L69.0762 73.276L71.8202 69.524H73.6962L70.7142 73.472ZM79.5118 77V75.488L79.4138 75.166V72.52C79.4138 72.0067 79.2598 71.61 78.9518 71.33C78.6438 71.0407 78.1771 70.896 77.5518 70.896C77.1318 70.896 76.7165 70.9613 76.3058 71.092C75.9045 71.2227 75.5638 71.4047 75.2838 71.638L74.5978 70.364C74.9991 70.056 75.4751 69.8273 76.0258 69.678C76.5858 69.5193 77.1645 69.44 77.7618 69.44C78.8445 69.44 79.6798 69.7013 80.2678 70.224C80.8651 70.7373 81.1638 71.5353 81.1638 72.618V77H79.5118ZM77.1598 77.098C76.5998 77.098 76.1098 77.0047 75.6898 76.818C75.2698 76.622 74.9431 76.356 74.7098 76.02C74.4858 75.6747 74.3738 75.2873 74.3738 74.858C74.3738 74.438 74.4718 74.06 74.6678 73.724C74.8731 73.388 75.2045 73.122 75.6618 72.926C76.1191 72.73 76.7258 72.632 77.4818 72.632H79.6518V73.794H77.6078C77.0105 73.794 76.6091 73.892 76.4038 74.088C76.1985 74.2747 76.0958 74.508 76.0958 74.788C76.0958 75.1053 76.2218 75.3573 76.4738 75.544C76.7258 75.7307 77.0758 75.824 77.5238 75.824C77.9531 75.824 78.3358 75.726 78.6718 75.53C79.0171 75.334 79.2645 75.0447 79.4138 74.662L79.7078 75.712C79.5398 76.1507 79.2365 76.4913 78.7978 76.734C78.3685 76.9767 77.8225 77.098 77.1598 77.098Z" fill="white"/>
<path d="M63.75 31.6917V38.3334C63.75 42.2011 62.2136 45.9104 59.4787 48.6453C56.7438 51.3803 53.0344 52.9167 49.1667 52.9167C45.299 52.9167 41.5896 51.3803 38.8547 48.6453C36.1198 45.9104 34.5834 42.2011 34.5834 38.3334V36.0834C31.1165 35.5804 27.9463 33.8472 25.6514 31.2005C23.3565 28.5537 22.0901 25.1698 22.0834 21.6667V9.16671C22.0834 8.61417 22.3029 8.08427 22.6936 7.69357C23.0843 7.30287 23.6142 7.08337 24.1667 7.08337H30.4167C30.9692 7.08337 31.4991 7.30287 31.8898 7.69357C32.2805 8.08427 32.5 8.61417 32.5 9.16671C32.5 9.71924 32.2805 10.2491 31.8898 10.6398C31.4991 11.0305 30.9692 11.25 30.4167 11.25H26.25V21.6667C26.25 24.4294 27.3475 27.0789 29.301 29.0324C31.2545 30.9859 33.904 32.0834 36.6667 32.0834C39.4294 32.0834 42.0789 30.9859 44.0324 29.0324C45.9859 27.0789 47.0834 24.4294 47.0834 21.6667V11.25H42.9167C42.3642 11.25 41.8343 11.0305 41.4436 10.6398C41.0529 10.2491 40.8334 9.71924 40.8334 9.16671C40.8334 8.61417 41.0529 8.08427 41.4436 7.69357C41.8343 7.30287 42.3642 7.08337 42.9167 7.08337H49.1667C49.7192 7.08337 50.2491 7.30287 50.6398 7.69357C51.0305 8.08427 51.25 8.61417 51.25 9.16671V21.6667C51.2433 25.1698 49.9769 28.5537 47.682 31.2005C45.3872 33.8472 42.2169 35.5804 38.75 36.0834V38.3334C38.75 41.096 39.8475 43.7456 41.801 45.6991C43.7545 47.6526 46.404 48.75 49.1667 48.75C51.9294 48.75 54.5789 47.6526 56.5324 45.6991C58.4859 43.7456 59.5834 41.096 59.5834 38.3334V31.6917C58.1933 31.2003 57.0218 30.2332 56.2758 28.9615C55.5298 27.6899 55.2574 26.1954 55.5067 24.7423C55.756 23.2891 56.511 21.971 57.6382 21.0207C58.7655 20.0704 60.1924 19.5492 61.6667 19.5492C63.1411 19.5492 64.5679 20.0704 65.6952 21.0207C66.8224 21.971 67.5774 23.2891 67.8267 24.7423C68.076 26.1954 67.8036 27.6899 67.0576 28.9615C66.3116 30.2332 65.1401 31.2003 63.75 31.6917Z" fill="white"/>
</svg>
