<svg width="90" height="93" viewBox="0 0 90 93" fill="none" xmlns="http://www.w3.org/2000/svg">
<path d="M22.4341 75V66.6H26.1901C27.1341 66.6 27.8701 66.788 28.3981 67.164C28.9261 67.532 29.1901 68.064 29.1901 68.76C29.1901 69.448 28.9381 69.98 28.4341 70.356C27.9301 70.724 27.2661 70.908 26.4421 70.908L26.6581 70.476C27.5941 70.476 28.3181 70.664 28.8301 71.04C29.3421 71.416 29.5981 71.96 29.5981 72.672C29.5981 73.4 29.3301 73.972 28.7941 74.388C28.2581 74.796 27.4661 75 26.4181 75H22.4341ZM23.9701 73.8H26.3701C26.9141 73.8 27.3261 73.7 27.6061 73.5C27.8861 73.292 28.0261 72.976 28.0261 72.552C28.0261 72.128 27.8861 71.82 27.6061 71.628C27.3261 71.428 26.9141 71.328 26.3701 71.328H23.9701V73.8ZM23.9701 70.188H26.0581C26.5621 70.188 26.9461 70.088 27.2101 69.888C27.4741 69.68 27.6061 69.384 27.6061 69C27.6061 68.6 27.4741 68.3 27.2101 68.1C26.9461 67.9 26.5621 67.8 26.0581 67.8H23.9701V70.188ZM37.6752 75V68.592H39.1752V75H37.6752ZM34.3272 70.704C35.1512 70.704 35.7752 70.888 36.1992 71.256C36.6312 71.624 36.8472 72.144 36.8472 72.816C36.8472 73.512 36.6072 74.056 36.1272 74.448C35.6552 74.832 34.9832 75.02 34.1112 75.012L31.2072 75V68.592H32.7072V70.692L34.3272 70.704ZM33.9792 73.908C34.4192 73.916 34.7552 73.824 34.9872 73.632C35.2192 73.44 35.3352 73.16 35.3352 72.792C35.3352 72.424 35.2192 72.16 34.9872 72C34.7632 71.832 34.4272 71.744 33.9792 71.736L32.7072 71.724V73.896L33.9792 73.908ZM45.5836 74.304V69.864H43.1236L43.0876 70.896C43.0716 71.264 43.0476 71.62 43.0156 71.964C42.9836 72.3 42.9316 72.612 42.8596 72.9C42.7876 73.18 42.6836 73.412 42.5476 73.596C42.4116 73.78 42.2316 73.9 42.0076 73.956L40.5196 73.728C40.7596 73.728 40.9516 73.652 41.0956 73.5C41.2476 73.34 41.3636 73.124 41.4436 72.852C41.5316 72.572 41.5956 72.256 41.6356 71.904C41.6756 71.544 41.7036 71.172 41.7196 70.788L41.8036 68.592H47.0836V74.304H45.5836ZM40.2916 76.428V73.728H48.0316V76.428H46.6276V75H41.6836V76.428H40.2916ZM53.2593 75V73.704L53.1753 73.428V71.16C53.1753 70.72 53.0433 70.38 52.7793 70.14C52.5153 69.892 52.1153 69.768 51.5793 69.768C51.2193 69.768 50.8633 69.824 50.5113 69.936C50.1673 70.048 49.8753 70.204 49.6353 70.404L49.0473 69.312C49.3913 69.048 49.7993 68.852 50.2713 68.724C50.7513 68.588 51.2473 68.52 51.7593 68.52C52.6873 68.52 53.4033 68.744 53.9073 69.192C54.4193 69.632 54.6753 70.316 54.6753 71.244V75H53.2593ZM51.2433 75.084C50.7633 75.084 50.3433 75.004 49.9833 74.844C49.6233 74.676 49.3433 74.448 49.1433 74.16C48.9513 73.864 48.8553 73.532 48.8553 73.164C48.8553 72.804 48.9393 72.48 49.1073 72.192C49.2833 71.904 49.5673 71.676 49.9593 71.508C50.3513 71.34 50.8713 71.256 51.5193 71.256H53.3793V72.252H51.6273C51.1153 72.252 50.7713 72.336 50.5953 72.504C50.4193 72.664 50.3313 72.864 50.3313 73.104C50.3313 73.376 50.4393 73.592 50.6553 73.752C50.8713 73.912 51.1713 73.992 51.5553 73.992C51.9233 73.992 52.2513 73.908 52.5393 73.74C52.8353 73.572 53.0473 73.324 53.1753 72.996L53.4273 73.896C53.2833 74.272 53.0233 74.564 52.6473 74.772C52.2793 74.98 51.8113 75.084 51.2433 75.084ZM57.8634 75V69.504L58.2114 69.864H55.6074V68.592H61.6074V69.864H59.0154L59.3634 69.504V75H57.8634ZM65.9115 70.704C66.7355 70.704 67.3635 70.888 67.7955 71.256C68.2275 71.624 68.4435 72.144 68.4435 72.816C68.4435 73.512 68.2035 74.056 67.7235 74.448C67.2435 74.832 66.5675 75.02 65.6955 75.012L62.6955 75V68.592H64.1955V70.692L65.9115 70.704ZM65.5635 73.908C66.0035 73.916 66.3395 73.824 66.5715 73.632C66.8035 73.44 66.9195 73.16 66.9195 72.792C66.9195 72.424 66.8035 72.16 66.5715 72C66.3475 71.832 66.0115 71.744 65.5635 71.736L64.1955 71.724V73.896L65.5635 73.908ZM12.2873 90V83.592H13.8593L16.4393 88.14H15.8153L18.5273 83.592H19.9313L19.9433 90H18.5873V85.2L18.8273 85.356L16.4273 89.328H15.7793L13.3673 85.248L13.6553 85.176V90H12.2873ZM24.9433 90.084C24.2313 90.084 23.6073 89.944 23.0713 89.664C22.5433 89.376 22.1313 88.984 21.8353 88.488C21.5473 87.992 21.4033 87.428 21.4033 86.796C21.4033 86.156 21.5433 85.592 21.8233 85.104C22.1113 84.608 22.5033 84.22 22.9993 83.94C23.5033 83.66 24.0753 83.52 24.7153 83.52C25.3393 83.52 25.8953 83.656 26.3833 83.928C26.8713 84.2 27.2553 84.584 27.5353 85.08C27.8153 85.576 27.9553 86.16 27.9553 86.832C27.9553 86.896 27.9513 86.968 27.9433 87.048C27.9433 87.128 27.9393 87.204 27.9313 87.276H22.5913V86.28H27.1393L26.5513 86.592C26.5593 86.224 26.4833 85.9 26.3233 85.62C26.1633 85.34 25.9433 85.12 25.6633 84.96C25.3913 84.8 25.0753 84.72 24.7153 84.72C24.3473 84.72 24.0233 84.8 23.7433 84.96C23.4713 85.12 23.2553 85.344 23.0953 85.632C22.9433 85.912 22.8673 86.244 22.8673 86.628V86.868C22.8673 87.252 22.9553 87.592 23.1313 87.888C23.3073 88.184 23.5553 88.412 23.8753 88.572C24.1953 88.732 24.5633 88.812 24.9793 88.812C25.3393 88.812 25.6633 88.756 25.9513 88.644C26.2393 88.532 26.4953 88.356 26.7193 88.116L27.5233 89.04C27.2353 89.376 26.8713 89.636 26.4313 89.82C25.9993 89.996 25.5033 90.084 24.9433 90.084ZM33.9059 89.304V84.864H31.4459L31.4099 85.896C31.3939 86.264 31.3699 86.62 31.3379 86.964C31.3059 87.3 31.2539 87.612 31.1819 87.9C31.1099 88.18 31.0059 88.412 30.8699 88.596C30.7339 88.78 30.5539 88.9 30.3299 88.956L28.8419 88.728C29.0819 88.728 29.2739 88.652 29.4179 88.5C29.5699 88.34 29.6859 88.124 29.7659 87.852C29.8539 87.572 29.9179 87.256 29.9579 86.904C29.9979 86.544 30.0259 86.172 30.0419 85.788L30.1259 83.592H35.4059V89.304H33.9059ZM28.6139 91.428V88.728H36.3539V91.428H34.9499V90H30.0059V91.428H28.6139ZM38.1495 90.084C37.8775 90.084 37.6455 89.992 37.4535 89.808C37.2615 89.616 37.1655 89.376 37.1655 89.088C37.1655 88.784 37.2615 88.544 37.4535 88.368C37.6455 88.184 37.8775 88.092 38.1495 88.092C38.4215 88.092 38.6535 88.184 38.8455 88.368C39.0375 88.544 39.1335 88.784 39.1335 89.088C39.1335 89.376 39.0375 89.616 38.8455 89.808C38.6535 89.992 38.4215 90.084 38.1495 90.084ZM48.5356 90L46.2196 86.928L47.4436 86.172L50.2996 90H48.5356ZM43.9396 90V83.592H45.4396V90H43.9396ZM44.9956 87.432V86.184H47.1676V87.432H44.9956ZM47.5876 86.976L46.1836 86.808L48.5356 83.592H50.1436L47.5876 86.976ZM55.1284 90V88.704L55.0444 88.428V86.16C55.0444 85.72 54.9124 85.38 54.6484 85.14C54.3844 84.892 53.9844 84.768 53.4484 84.768C53.0884 84.768 52.7324 84.824 52.3804 84.936C52.0364 85.048 51.7444 85.204 51.5044 85.404L50.9164 84.312C51.2604 84.048 51.6684 83.852 52.1404 83.724C52.6204 83.588 53.1164 83.52 53.6284 83.52C54.5564 83.52 55.2724 83.744 55.7764 84.192C56.2884 84.632 56.5444 85.316 56.5444 86.244V90H55.1284ZM53.1124 90.084C52.6324 90.084 52.2124 90.004 51.8524 89.844C51.4924 89.676 51.2124 89.448 51.0124 89.16C50.8204 88.864 50.7244 88.532 50.7244 88.164C50.7244 87.804 50.8084 87.48 50.9764 87.192C51.1524 86.904 51.4364 86.676 51.8284 86.508C52.2204 86.34 52.7404 86.256 53.3884 86.256H55.2484V87.252H53.4964C52.9844 87.252 52.6404 87.336 52.4644 87.504C52.2884 87.664 52.2004 87.864 52.2004 88.104C52.2004 88.376 52.3084 88.592 52.5244 88.752C52.7404 88.912 53.0404 88.992 53.4244 88.992C53.7924 88.992 54.1204 88.908 54.4084 88.74C54.7044 88.572 54.9164 88.324 55.0444 87.996L55.2964 88.896C55.1524 89.272 54.8924 89.564 54.5164 89.772C54.1484 89.98 53.6804 90.084 53.1124 90.084ZM61.9526 90.084C61.4326 90.084 60.9566 89.964 60.5246 89.724C60.1006 89.484 59.7606 89.124 59.5046 88.644C59.2566 88.156 59.1326 87.54 59.1326 86.796C59.1326 86.044 59.2526 85.428 59.4926 84.948C59.7406 84.468 60.0766 84.112 60.5006 83.88C60.9246 83.64 61.4086 83.52 61.9526 83.52C62.5846 83.52 63.1406 83.656 63.6206 83.928C64.1086 84.2 64.4926 84.58 64.7726 85.068C65.0606 85.556 65.2046 86.132 65.2046 86.796C65.2046 87.46 65.0606 88.04 64.7726 88.536C64.4926 89.024 64.1086 89.404 63.6206 89.676C63.1406 89.948 62.5846 90.084 61.9526 90.084ZM58.4006 92.328V83.592H59.8286V85.104L59.7806 86.808L59.9006 88.512V92.328H58.4006ZM61.7846 88.8C62.1446 88.8 62.4646 88.72 62.7446 88.56C63.0326 88.4 63.2606 88.168 63.4286 87.864C63.5966 87.56 63.6806 87.204 63.6806 86.796C63.6806 86.38 63.5966 86.024 63.4286 85.728C63.2606 85.424 63.0326 85.192 62.7446 85.032C62.4646 84.872 62.1446 84.792 61.7846 84.792C61.4246 84.792 61.1006 84.872 60.8126 85.032C60.5246 85.192 60.2966 85.424 60.1286 85.728C59.9606 86.024 59.8766 86.38 59.8766 86.796C59.8766 87.204 59.9606 87.56 60.1286 87.864C60.2966 88.168 60.5246 88.4 60.8126 88.56C61.1006 88.72 61.4246 88.8 61.7846 88.8ZM67.7951 90V84.504L68.1431 84.864H65.5391V83.592H71.5391V84.864H68.9471L69.2951 84.504V90H67.7951ZM73.2149 92.412C72.9029 92.412 72.5909 92.36 72.2789 92.256C71.9669 92.152 71.7069 92.008 71.4989 91.824L72.0989 90.72C72.2509 90.856 72.4229 90.964 72.6149 91.044C72.8069 91.124 73.0029 91.164 73.2029 91.164C73.4749 91.164 73.6949 91.096 73.8629 90.96C74.0309 90.824 74.1869 90.596 74.3309 90.276L74.7029 89.436L74.8229 89.256L77.2469 83.592H78.6869L75.6869 90.516C75.4869 90.996 75.2629 91.376 75.0149 91.656C74.7749 91.936 74.5029 92.132 74.1989 92.244C73.9029 92.356 73.5749 92.412 73.2149 92.412ZM74.5349 90.228L71.6429 83.592H73.2029L75.5549 89.124L74.5349 90.228Z" fill="white"/>
<g clip-path="url(#clip0_1552_171)">
<path d="M61.6667 14.1666C62.8167 14.1666 63.75 15.1 63.75 16.25V53.75C63.75 54.9 62.8167 55.8333 61.6667 55.8333H32.5C31.35 55.8333 30.4167 54.9 30.4167 53.75V49.5833H26.25V45.4166H30.4167V41.25H26.25V37.0833H30.4167V32.9166H26.25V28.75H30.4167V24.5833H26.25V20.4166H30.4167V16.25C30.4167 15.1 31.35 14.1666 32.5 14.1666H61.6667ZM49.1667 26.6666H45V32.9166H38.75V37.0833H44.9979L45 43.3333H49.1667L49.1646 37.0833H55.4167V32.9166H49.1667V26.6666Z" fill="white"/>
</g>
<defs>
<clipPath id="clip0_1552_171">
<rect width="50" height="50" fill="white" transform="translate(20 10)"/>
</clipPath>
</defs>
</svg>
