<svg width="90" height="90" viewBox="0 0 90 90" fill="none" xmlns="http://www.w3.org/2000/svg">
<path d="M14.5648 77V68.292L14.9988 68.74H11.3308V67.2H19.6188V68.74H15.9508L16.3708 68.292V77H14.5648ZM25.1319 77V75.488L25.0339 75.166V72.52C25.0339 72.0067 24.8799 71.61 24.5719 71.33C24.2639 71.0407 23.7973 70.896 23.1719 70.896C22.7519 70.896 22.3366 70.9613 21.9259 71.092C21.5246 71.2227 21.1839 71.4047 20.9039 71.638L20.2179 70.364C20.6193 70.056 21.0953 69.8273 21.6459 69.678C22.2059 69.5193 22.7846 69.44 23.3819 69.44C24.4646 69.44 25.2999 69.7013 25.8879 70.224C26.4853 70.7373 26.7839 71.5353 26.7839 72.618V77H25.1319ZM22.7799 77.098C22.2199 77.098 21.7299 77.0047 21.3099 76.818C20.8899 76.622 20.5633 76.356 20.3299 76.02C20.1059 75.6747 19.9939 75.2873 19.9939 74.858C19.9939 74.438 20.0919 74.06 20.2879 73.724C20.4933 73.388 20.8246 73.122 21.2819 72.926C21.7393 72.73 22.3459 72.632 23.1019 72.632H25.2719V73.794H23.2279C22.6306 73.794 22.2293 73.892 22.0239 74.088C21.8186 74.2747 21.7159 74.508 21.7159 74.788C21.7159 75.1053 21.8419 75.3573 22.0939 75.544C22.3459 75.7307 22.6959 75.824 23.1439 75.824C23.5733 75.824 23.9559 75.726 24.2919 75.53C24.6373 75.334 24.8846 75.0447 25.0339 74.662L25.3279 75.712C25.1599 76.1507 24.8566 76.4913 24.4179 76.734C23.9886 76.9767 23.4426 77.098 22.7799 77.098ZM32.5194 77.14C31.9034 77.14 31.3528 77.0467 30.8674 76.86C30.3821 76.6733 29.9621 76.3887 29.6074 76.006C29.2621 75.614 28.9961 75.1193 28.8094 74.522C28.6228 73.9247 28.5294 73.2153 28.5294 72.394C28.5294 71.7967 28.5808 71.2507 28.6834 70.756C28.7861 70.2613 28.9401 69.818 29.1454 69.426C29.3508 69.0247 29.6074 68.67 29.9154 68.362C30.2328 68.054 30.6014 67.7973 31.0214 67.592C31.4414 67.3867 31.9174 67.228 32.4494 67.116L35.9214 66.374L36.1734 67.942L33.0234 68.586C32.8461 68.6233 32.6314 68.6793 32.3794 68.754C32.1368 68.8193 31.8848 68.922 31.6234 69.062C31.3714 69.1927 31.1334 69.384 30.9094 69.636C30.6948 69.8787 30.5174 70.196 30.3774 70.588C30.2468 70.9707 30.1814 71.4513 30.1814 72.03C30.1814 72.2073 30.1861 72.3427 30.1954 72.436C30.2141 72.52 30.2281 72.6133 30.2374 72.716C30.2561 72.8093 30.2654 72.9493 30.2654 73.136L29.6074 72.45C29.7941 71.974 30.0508 71.568 30.3774 71.232C30.7134 70.8867 31.1008 70.6253 31.5394 70.448C31.9874 70.2613 32.4728 70.168 32.9954 70.168C33.6954 70.168 34.3161 70.3127 34.8574 70.602C35.3988 70.8913 35.8234 71.2973 36.1314 71.82C36.4394 72.3427 36.5934 72.9353 36.5934 73.598C36.5934 74.2887 36.4254 74.9 36.0894 75.432C35.7534 75.964 35.2774 76.384 34.6614 76.692C34.0548 76.9907 33.3408 77.14 32.5194 77.14ZM32.6594 75.726C33.0794 75.726 33.4481 75.6373 33.7654 75.46C34.0921 75.2733 34.3441 75.0213 34.5214 74.704C34.7081 74.3867 34.8014 74.032 34.8014 73.64C34.8014 73.248 34.7081 72.9073 34.5214 72.618C34.3441 72.3193 34.0921 72.0813 33.7654 71.904C33.4481 71.7267 33.0701 71.638 32.6314 71.638C32.2114 71.638 31.8334 71.722 31.4974 71.89C31.1708 72.058 30.9141 72.2913 30.7274 72.59C30.5501 72.8793 30.4614 73.2153 30.4614 73.598C30.4614 73.99 30.5548 74.3493 30.7414 74.676C30.9281 75.0027 31.1848 75.2593 31.5114 75.446C31.8474 75.6327 32.2301 75.726 32.6594 75.726ZM37.1133 76.986L37.1973 75.516C37.2626 75.5253 37.3233 75.5347 37.3793 75.544C37.4353 75.5533 37.4866 75.558 37.5333 75.558C37.8226 75.558 38.0466 75.4693 38.2053 75.292C38.364 75.1147 38.4806 74.8767 38.5553 74.578C38.6393 74.27 38.6953 73.9293 38.7233 73.556C38.7606 73.1733 38.7886 72.7907 38.8073 72.408L38.9333 69.524H44.9813V77H43.2313V70.532L43.6373 71.008H40.0813L40.4593 70.518L40.3613 72.492C40.3333 73.1547 40.2773 73.7707 40.1933 74.34C40.1186 74.9 39.9973 75.39 39.8293 75.81C39.6706 76.23 39.4466 76.5567 39.1573 76.79C38.8773 77.0233 38.518 77.14 38.0793 77.14C37.9393 77.14 37.7853 77.126 37.6173 77.098C37.4586 77.07 37.2906 77.0327 37.1133 76.986ZM50.8241 77.098C49.9934 77.098 49.2654 76.9347 48.6401 76.608C48.0241 76.272 47.5434 75.8147 47.1981 75.236C46.8621 74.6573 46.6941 73.9993 46.6941 73.262C46.6941 72.5153 46.8574 71.8573 47.1841 71.288C47.5201 70.7093 47.9774 70.2567 48.5561 69.93C49.1441 69.6033 49.8114 69.44 50.5581 69.44C51.2861 69.44 51.9348 69.5987 52.5041 69.916C53.0734 70.2333 53.5214 70.6813 53.8481 71.26C54.1748 71.8387 54.3381 72.52 54.3381 73.304C54.3381 73.3787 54.3334 73.4627 54.3241 73.556C54.3241 73.6493 54.3194 73.738 54.3101 73.822H48.0801V72.66H53.3861L52.7001 73.024C52.7094 72.5947 52.6208 72.2167 52.4341 71.89C52.2474 71.5633 51.9908 71.3067 51.6641 71.12C51.3468 70.9333 50.9781 70.84 50.5581 70.84C50.1288 70.84 49.7508 70.9333 49.4241 71.12C49.1068 71.3067 48.8548 71.568 48.6681 71.904C48.4908 72.2307 48.4021 72.618 48.4021 73.066V73.346C48.4021 73.794 48.5048 74.1907 48.7101 74.536C48.9154 74.8813 49.2048 75.1473 49.5781 75.334C49.9514 75.5207 50.3808 75.614 50.8661 75.614C51.2861 75.614 51.6641 75.5487 52.0001 75.418C52.3361 75.2873 52.6348 75.082 52.8961 74.802L53.8341 75.88C53.4981 76.272 53.0734 76.5753 52.5601 76.79C52.0561 76.9953 51.4774 77.098 50.8241 77.098ZM57.5327 77V70.588L57.9387 71.008H54.9007V69.524H61.9007V71.008H58.8767L59.2827 70.588V77H57.5327ZM68.5321 77L65.8301 73.416L67.2581 72.534L70.5901 77H68.5321ZM63.1701 77V69.524H64.9201V77H63.1701ZM64.4021 74.004V72.548H66.9361V74.004H64.4021ZM67.4261 73.472L65.7881 73.276L68.5321 69.524H70.4081L67.4261 73.472ZM76.2237 77V75.488L76.1257 75.166V72.52C76.1257 72.0067 75.9717 71.61 75.6637 71.33C75.3557 71.0407 74.8891 70.896 74.2637 70.896C73.8437 70.896 73.4284 70.9613 73.0177 71.092C72.6164 71.2227 72.2757 71.4047 71.9957 71.638L71.3097 70.364C71.7111 70.056 72.1871 69.8273 72.7377 69.678C73.2977 69.5193 73.8764 69.44 74.4737 69.44C75.5564 69.44 76.3917 69.7013 76.9797 70.224C77.5771 70.7373 77.8757 71.5353 77.8757 72.618V77H76.2237ZM73.8717 77.098C73.3117 77.098 72.8217 77.0047 72.4017 76.818C71.9817 76.622 71.6551 76.356 71.4217 76.02C71.1977 75.6747 71.0857 75.2873 71.0857 74.858C71.0857 74.438 71.1837 74.06 71.3797 73.724C71.5851 73.388 71.9164 73.122 72.3737 72.926C72.8311 72.73 73.4377 72.632 74.1937 72.632H76.3637V73.794H74.3197C73.7224 73.794 73.3211 73.892 73.1157 74.088C72.9104 74.2747 72.8077 74.508 72.8077 74.788C72.8077 75.1053 72.9337 75.3573 73.1857 75.544C73.4377 75.7307 73.7877 75.824 74.2357 75.824C74.6651 75.824 75.0477 75.726 75.3837 75.53C75.7291 75.334 75.9764 75.0447 76.1257 74.662L76.4197 75.712C76.2517 76.1507 75.9484 76.4913 75.5097 76.734C75.0804 76.9767 74.5344 77.098 73.8717 77.098Z" fill="white"/>
<g clip-path="url(#clip0_1552_191)">
<path d="M66.25 9.375L65.625 8.75C63.4375 6.25 60 5 56.875 5C53.75 5 50.3125 6.25 47.8125 8.75L23.75 32.8125C18.75 37.8125 18.75 45.625 23.75 50.625L24.375 51.25C26.5625 53.75 30 55 33.125 55C36.25 55 39.6875 53.75 42.1875 51.25L66.5625 26.875C71.25 22.1875 71.25 14.0625 66.25 9.375ZM64.0625 25L51.875 37.1875L40.9375 25.9375L29.0625 37.8125C25.625 41.25 25.625 45.625 25.9375 48.75C22.1875 45 22.1875 39.0625 25.9375 35.3125L50.3125 10.9375C51.875 9.0625 54.375 8.125 56.875 8.125C59.375 8.125 61.875 9.0625 63.75 10.9375L64.375 11.5625C65.9375 13.125 66.875 15.625 66.875 18.125C66.875 20.625 65.9375 23.125 64.0625 25Z" fill="white"/>
</g>
<defs>
<clipPath id="clip0_1552_191">
<rect width="50" height="50" fill="white" transform="translate(20 5)"/>
</clipPath>
</defs>
</svg>
