<svg width="90" height="90" viewBox="0 0 90 90" fill="none" xmlns="http://www.w3.org/2000/svg">
<path d="M26.1647 75.46L25.7588 75.908V67.2H27.5508V75.908L27.1168 75.46H31.5828L31.1488 75.908V67.2H32.9408V77H20.3548V67.2H22.1468V75.908L21.7268 75.46H26.1647ZM37.0523 77V70.588L37.4583 71.008H34.4203V69.524H41.4203V71.008H38.3963L38.8023 70.588V77H37.0523ZM46.8337 77.098C46.227 77.098 45.6717 76.958 45.1677 76.678C44.673 76.398 44.2763 75.978 43.9777 75.418C43.6883 74.8487 43.5437 74.13 43.5437 73.262C43.5437 72.3847 43.6837 71.666 43.9637 71.106C44.253 70.546 44.645 70.1307 45.1397 69.86C45.6343 69.58 46.199 69.44 46.8337 69.44C47.571 69.44 48.2197 69.5987 48.7797 69.916C49.349 70.2333 49.797 70.6767 50.1237 71.246C50.4597 71.8153 50.6277 72.4873 50.6277 73.262C50.6277 74.0367 50.4597 74.7133 50.1237 75.292C49.797 75.8613 49.349 76.3047 48.7797 76.622C48.2197 76.9393 47.571 77.098 46.8337 77.098ZM42.6897 79.716V69.524H44.3557V71.288L44.2997 73.276L44.4397 75.264V79.716H42.6897ZM46.6377 75.6C47.0577 75.6 47.431 75.5067 47.7577 75.32C48.0937 75.1333 48.3597 74.8627 48.5557 74.508C48.7517 74.1533 48.8497 73.738 48.8497 73.262C48.8497 72.7767 48.7517 72.3613 48.5557 72.016C48.3597 71.6613 48.0937 71.3907 47.7577 71.204C47.431 71.0173 47.0577 70.924 46.6377 70.924C46.2177 70.924 45.8397 71.0173 45.5037 71.204C45.1677 71.3907 44.9017 71.6613 44.7057 72.016C44.5097 72.3613 44.4117 72.7767 44.4117 73.262C44.4117 73.738 44.5097 74.1533 44.7057 74.508C44.9017 74.8627 45.1677 75.1333 45.5037 75.32C45.8397 75.5067 46.2177 75.6 46.6377 75.6ZM56.8097 77V75.488L56.7117 75.166V72.52C56.7117 72.0067 56.5577 71.61 56.2497 71.33C55.9417 71.0407 55.475 70.896 54.8497 70.896C54.4297 70.896 54.0143 70.9613 53.6037 71.092C53.2023 71.2227 52.8617 71.4047 52.5817 71.638L51.8957 70.364C52.297 70.056 52.773 69.8273 53.3237 69.678C53.8837 69.5193 54.4623 69.44 55.0597 69.44C56.1423 69.44 56.9777 69.7013 57.5657 70.224C58.163 70.7373 58.4617 71.5353 58.4617 72.618V77H56.8097ZM54.4577 77.098C53.8977 77.098 53.4077 77.0047 52.9877 76.818C52.5677 76.622 52.241 76.356 52.0077 76.02C51.7837 75.6747 51.6717 75.2873 51.6717 74.858C51.6717 74.438 51.7697 74.06 51.9657 73.724C52.171 73.388 52.5023 73.122 52.9597 72.926C53.417 72.73 54.0237 72.632 54.7797 72.632H56.9497V73.794H54.9057C54.3083 73.794 53.907 73.892 53.7017 74.088C53.4963 74.2747 53.3937 74.508 53.3937 74.788C53.3937 75.1053 53.5197 75.3573 53.7717 75.544C54.0237 75.7307 54.3737 75.824 54.8217 75.824C55.251 75.824 55.6337 75.726 55.9697 75.53C56.315 75.334 56.5623 75.0447 56.7117 74.662L57.0057 75.712C56.8377 76.1507 56.5343 76.4913 56.0957 76.734C55.6663 76.9767 55.1203 77.098 54.4577 77.098ZM65.3732 77.14C65.3638 77.14 65.3218 77.14 65.2472 77.14C65.1818 77.14 65.1165 77.14 65.0512 77.14C64.9952 77.14 64.9578 77.14 64.9392 77.14C63.3618 77.1213 62.1392 76.7807 61.2712 76.118C60.4032 75.446 59.9692 74.4893 59.9692 73.248C59.9692 72.016 60.4032 71.0733 61.2712 70.42C62.1392 69.7667 63.3758 69.4307 64.9812 69.412C64.9998 69.412 65.0372 69.412 65.0932 69.412C65.1585 69.412 65.2192 69.412 65.2752 69.412C65.3405 69.412 65.3778 69.412 65.3872 69.412C67.0018 69.412 68.2572 69.7433 69.1532 70.406C70.0585 71.0593 70.5112 72.0067 70.5112 73.248C70.5112 74.4987 70.0585 75.46 69.1532 76.132C68.2572 76.804 66.9972 77.14 65.3732 77.14ZM65.3172 75.684C66.1105 75.684 66.7638 75.5953 67.2772 75.418C67.7905 75.2313 68.1732 74.9607 68.4252 74.606C68.6772 74.242 68.8032 73.7893 68.8032 73.248C68.8032 72.716 68.6772 72.2773 68.4252 71.932C68.1732 71.5773 67.7905 71.316 67.2772 71.148C66.7638 70.9707 66.1105 70.882 65.3172 70.882C65.2985 70.882 65.2518 70.882 65.1772 70.882C65.1118 70.882 65.0698 70.882 65.0512 70.882C64.2765 70.882 63.6418 70.9753 63.1472 71.162C62.6525 71.3393 62.2838 71.6007 62.0412 71.946C61.8078 72.2913 61.6912 72.7253 61.6912 73.248C61.6912 73.78 61.8078 74.2233 62.0412 74.578C62.2838 74.9327 62.6525 75.2033 63.1472 75.39C63.6512 75.5767 64.2858 75.6747 65.0512 75.684C65.0698 75.684 65.1118 75.684 65.1772 75.684C65.2518 75.684 65.2985 75.684 65.3172 75.684ZM64.4072 79.716V66.612H66.0592V79.716H64.4072Z" fill="white"/>
<path d="M35.235 22.0378H21.9742C20.8839 22.0378 20 22.9217 20 24.0121V31.5619C20 32.6628 20.9013 33.527 22.0022 33.5338C24.4521 33.549 26.4404 35.5465 26.4404 38C26.4404 40.4534 24.4521 42.451 22.0022 42.4661C20.9013 42.473 20 43.3372 20 44.438V51.9878C20 53.0781 20.8839 53.9621 21.9742 53.9621H35.2351C35.5984 53.9621 35.8932 53.6675 35.8932 53.304V22.6959C35.8931 22.3324 35.5983 22.0378 35.235 22.0378Z" fill="white"/>
<path d="M68.0723 33.5382C69.1439 33.5018 70 32.6369 70 31.5646V24.0121C70 22.9218 69.1161 22.0378 68.0258 22.0378H40.4994C40.136 22.0378 39.8413 22.3324 39.8413 22.6959V53.304C39.8413 53.6674 40.136 53.9621 40.4994 53.9621H68.0258C69.116 53.9621 70 53.0782 70 51.9878V44.4353C70 43.363 69.1438 42.4981 68.0723 42.4617C62.3677 42.2675 62.3541 33.7329 68.0723 33.5382ZM58.7201 43.5983H46.4117C45.3215 43.5983 44.4375 42.7144 44.4375 41.6241C44.4375 40.5337 45.3214 39.6499 46.4117 39.6499H58.72C59.8103 39.6499 60.6942 40.5337 60.6942 41.6241C60.6942 42.7144 59.8104 43.5983 58.7201 43.5983ZM58.7201 36.35H46.4117C45.3215 36.35 44.4375 35.4661 44.4375 34.3757C44.4375 33.2854 45.3214 32.4015 46.4117 32.4015H58.72C59.8103 32.4015 60.6942 33.2854 60.6942 34.3757C60.6942 35.4661 59.8104 36.35 58.7201 36.35Z" fill="white"/>
</svg>
