<svg width="90" height="90" viewBox="0 0 90 90" fill="none" xmlns="http://www.w3.org/2000/svg">
<path d="M24.9412 73.192C24.4278 73.4067 23.9285 73.5653 23.4432 73.668C22.9578 73.7707 22.4865 73.822 22.0292 73.822C20.7785 73.822 19.8125 73.5233 19.1312 72.926C18.4592 72.3193 18.1232 71.4513 18.1232 70.322V67.2H19.9292V70.126C19.9292 70.8167 20.1298 71.344 20.5312 71.708C20.9325 72.072 21.5065 72.254 22.2532 72.254C22.7012 72.254 23.1492 72.2027 23.5972 72.1C24.0545 71.9973 24.4932 71.8387 24.9132 71.624L24.9412 73.192ZM24.6612 77V67.2H26.4672V77H24.6612ZM29.0178 77V69.524H30.7678V74.452L34.8978 69.524H36.4938V77H34.7438V72.072L30.6278 77H29.0178ZM38.8479 77V69.524H40.5979V72.562H44.3639V69.524H46.1139V77H44.3639V74.046H40.5979V77H38.8479ZM48.4592 77V69.524H50.2092V74.452L54.3392 69.524H55.9352V77H54.1852V72.072L50.0692 77H48.4592ZM59.8433 77V70.588L60.2493 71.008H57.2113V69.524H64.2113V71.008H61.1873L61.5933 70.588V77H59.8433ZM69.2327 71.988C70.194 71.988 70.9267 72.2027 71.4307 72.632C71.9347 73.0613 72.1867 73.668 72.1867 74.452C72.1867 75.264 71.9067 75.8987 71.3467 76.356C70.7867 76.804 69.998 77.0233 68.9807 77.014L65.4807 77V69.524H67.2307V71.974L69.2327 71.988ZM68.8267 75.726C69.34 75.7353 69.732 75.628 70.0027 75.404C70.2734 75.18 70.4087 74.8533 70.4087 74.424C70.4087 73.9947 70.2734 73.6867 70.0027 73.5C69.7414 73.304 69.3494 73.2013 68.8267 73.192L67.2307 73.178V75.712L68.8267 75.726Z" fill="white"/>
<path d="M63.6667 44.2709C63.6875 43.9584 63.75 43.6459 63.75 43.3334V44.375L63.6667 44.2709ZM42.9167 43.3334C42.9167 44.8125 43.2292 46.2292 43.7917 47.5H32.5V49.5834C32.5 50.7292 31.5625 51.6667 30.4167 51.6667H28.3333C27.1875 51.6667 26.25 50.7292 26.25 49.5834V32.9167L30.5833 20.4167C31 19.2084 32.1667 18.3334 33.5417 18.3334H56.4583C57.8333 18.3334 59 19.2084 59.4167 20.4167L63.75 32.9167V43.3334C63.75 37.5834 59.0833 32.9167 53.3333 32.9167C47.5833 32.9167 42.9167 37.5834 42.9167 43.3334ZM36.6667 38.125C36.6667 36.3959 35.2708 35 33.5417 35C31.8125 35 30.4167 36.3959 30.4167 38.125C30.4167 39.8542 31.8125 41.25 33.5417 41.25C35.2708 41.25 36.6667 39.8542 36.6667 38.125ZM59.5833 30.8334L56.4583 21.4584H33.5417L30.4167 30.8334H59.5833ZM67.6458 54.1459L59.0833 45.5834C59.9375 43.4167 59.4583 40.875 57.6667 39.1042C55.7917 37.2084 52.9792 36.8334 50.7083 37.875L54.75 41.9167L51.9375 44.75L47.7917 40.6875C46.6667 42.9584 47.1875 45.7709 49.0208 47.6667C49.8482 48.5108 50.9043 49.0945 52.0592 49.3462C53.214 49.5979 54.4172 49.5066 55.5208 49.0834L64.0833 57.625C64.4583 58.0209 65.0208 58.0209 65.3958 57.625L67.5625 55.4792C68.0208 55.1042 68.0208 54.4375 67.6458 54.1459Z" fill="white"/>
</svg>
