<svg width="90" height="93" viewBox="0 0 90 93" fill="none" xmlns="http://www.w3.org/2000/svg">
<path d="M8.54991 73.68C8.98991 73.832 9.37791 73.872 9.71391 73.8C10.0499 73.728 10.3499 73.484 10.6139 73.068L11.0219 72.432L11.1779 72.264L14.1059 66.6H15.6419L11.9939 73.38C11.6979 73.948 11.3459 74.38 10.9379 74.676C10.5299 74.972 10.0899 75.136 9.61791 75.168C9.15391 75.208 8.66991 75.12 8.16591 74.904L8.54991 73.68ZM11.1419 73.608L7.39791 66.6H9.06591L11.9939 72.408L11.1419 73.608ZM20.6461 74.304V69.864H18.1861L18.1501 70.896C18.1341 71.264 18.1101 71.62 18.0781 71.964C18.0461 72.3 17.9941 72.612 17.9221 72.9C17.8501 73.18 17.7461 73.412 17.6101 73.596C17.4741 73.78 17.2941 73.9 17.0701 73.956L15.5821 73.728C15.8221 73.728 16.0141 73.652 16.1581 73.5C16.3101 73.34 16.4261 73.124 16.5061 72.852C16.5941 72.572 16.6581 72.256 16.6981 71.904C16.7381 71.544 16.7661 71.172 16.7821 70.788L16.8661 68.592H22.1461V74.304H20.6461ZM15.3541 76.428V73.728H23.0941V76.428H21.6901V75H16.7461V76.428H15.3541ZM27.2898 75.084C26.6338 75.084 26.0498 74.944 25.5378 74.664C25.0258 74.376 24.6218 73.984 24.3258 73.488C24.0298 72.992 23.8818 72.428 23.8818 71.796C23.8818 71.156 24.0298 70.592 24.3258 70.104C24.6218 69.608 25.0258 69.22 25.5378 68.94C26.0498 68.66 26.6338 68.52 27.2898 68.52C27.9538 68.52 28.5418 68.66 29.0538 68.94C29.5738 69.22 29.9778 69.604 30.2658 70.092C30.5618 70.58 30.7098 71.148 30.7098 71.796C30.7098 72.428 30.5618 72.992 30.2658 73.488C29.9778 73.984 29.5738 74.376 29.0538 74.664C28.5418 74.944 27.9538 75.084 27.2898 75.084ZM27.2898 73.8C27.6578 73.8 27.9858 73.72 28.2738 73.56C28.5618 73.4 28.7858 73.168 28.9458 72.864C29.1138 72.56 29.1978 72.204 29.1978 71.796C29.1978 71.38 29.1138 71.024 28.9458 70.728C28.7858 70.424 28.5618 70.192 28.2738 70.032C27.9858 69.872 27.6618 69.792 27.3018 69.792C26.9338 69.792 26.6058 69.872 26.3178 70.032C26.0378 70.192 25.8138 70.424 25.6458 70.728C25.4778 71.024 25.3938 71.38 25.3938 71.796C25.3938 72.204 25.4778 72.56 25.6458 72.864C25.8138 73.168 26.0378 73.4 26.3178 73.56C26.6058 73.72 26.9298 73.8 27.2898 73.8ZM35.1076 75.084C34.4356 75.084 33.8356 74.944 33.3076 74.664C32.7876 74.376 32.3796 73.984 32.0836 73.488C31.7876 72.992 31.6396 72.428 31.6396 71.796C31.6396 71.156 31.7876 70.592 32.0836 70.104C32.3796 69.608 32.7876 69.22 33.3076 68.94C33.8356 68.66 34.4356 68.52 35.1076 68.52C35.7316 68.52 36.2796 68.648 36.7516 68.904C37.2316 69.152 37.5956 69.52 37.8436 70.008L36.6916 70.68C36.4996 70.376 36.2636 70.152 35.9836 70.008C35.7116 69.864 35.4156 69.792 35.0956 69.792C34.7276 69.792 34.3956 69.872 34.0996 70.032C33.8036 70.192 33.5716 70.424 33.4036 70.728C33.2356 71.024 33.1516 71.38 33.1516 71.796C33.1516 72.212 33.2356 72.572 33.4036 72.876C33.5716 73.172 33.8036 73.4 34.0996 73.56C34.3956 73.72 34.7276 73.8 35.0956 73.8C35.4156 73.8 35.7116 73.728 35.9836 73.584C36.2636 73.44 36.4996 73.216 36.6916 72.912L37.8436 73.584C37.5956 74.064 37.2316 74.436 36.7516 74.7C36.2796 74.956 35.7316 75.084 35.1076 75.084ZM40.4377 75V69.504L40.7857 69.864H38.1817V68.592H44.1817V69.864H41.5897L41.9377 69.504V75H40.4377ZM47.8445 75.084C47.1885 75.084 46.6045 74.944 46.0925 74.664C45.5805 74.376 45.1765 73.984 44.8805 73.488C44.5845 72.992 44.4365 72.428 44.4365 71.796C44.4365 71.156 44.5845 70.592 44.8805 70.104C45.1765 69.608 45.5805 69.22 46.0925 68.94C46.6045 68.66 47.1885 68.52 47.8445 68.52C48.5085 68.52 49.0965 68.66 49.6085 68.94C50.1285 69.22 50.5325 69.604 50.8205 70.092C51.1165 70.58 51.2645 71.148 51.2645 71.796C51.2645 72.428 51.1165 72.992 50.8205 73.488C50.5325 73.984 50.1285 74.376 49.6085 74.664C49.0965 74.944 48.5085 75.084 47.8445 75.084ZM47.8445 73.8C48.2125 73.8 48.5405 73.72 48.8285 73.56C49.1165 73.4 49.3405 73.168 49.5005 72.864C49.6685 72.56 49.7525 72.204 49.7525 71.796C49.7525 71.38 49.6685 71.024 49.5005 70.728C49.3405 70.424 49.1165 70.192 48.8285 70.032C48.5405 69.872 48.2165 69.792 47.8565 69.792C47.4885 69.792 47.1605 69.872 46.8725 70.032C46.5925 70.192 46.3685 70.424 46.2005 70.728C46.0325 71.024 45.9485 71.38 45.9485 71.796C45.9485 72.204 46.0325 72.56 46.2005 72.864C46.3685 73.168 46.5925 73.4 46.8725 73.56C47.1605 73.72 47.4845 73.8 47.8445 73.8ZM52.7463 75V68.592H55.8783C56.6543 68.592 57.2623 68.736 57.7023 69.024C58.1503 69.312 58.3743 69.72 58.3743 70.248C58.3743 70.768 58.1663 71.176 57.7503 71.472C57.3343 71.76 56.7823 71.904 56.0943 71.904L56.2743 71.532C57.0503 71.532 57.6263 71.676 58.0023 71.964C58.3863 72.244 58.5783 72.656 58.5783 73.2C58.5783 73.768 58.3663 74.212 57.9423 74.532C57.5183 74.844 56.8743 75 56.0103 75H52.7463ZM54.1743 73.908H55.8903C56.2983 73.908 56.6063 73.844 56.8143 73.716C57.0223 73.58 57.1263 73.376 57.1263 73.104C57.1263 72.816 57.0303 72.604 56.8383 72.468C56.6463 72.332 56.3463 72.264 55.9383 72.264H54.1743V73.908ZM54.1743 71.268H55.7463C56.1303 71.268 56.4183 71.2 56.6103 71.064C56.8103 70.92 56.9103 70.72 56.9103 70.464C56.9103 70.2 56.8103 70.004 56.6103 69.876C56.4183 69.748 56.1303 69.684 55.7463 69.684H54.1743V71.268ZM63.164 75.084C62.452 75.084 61.828 74.944 61.292 74.664C60.764 74.376 60.352 73.984 60.056 73.488C59.768 72.992 59.624 72.428 59.624 71.796C59.624 71.156 59.764 70.592 60.044 70.104C60.332 69.608 60.724 69.22 61.22 68.94C61.724 68.66 62.296 68.52 62.936 68.52C63.56 68.52 64.116 68.656 64.604 68.928C65.092 69.2 65.476 69.584 65.756 70.08C66.036 70.576 66.176 71.16 66.176 71.832C66.176 71.896 66.172 71.968 66.164 72.048C66.164 72.128 66.16 72.204 66.152 72.276H60.812V71.28H65.36L64.772 71.592C64.78 71.224 64.704 70.9 64.544 70.62C64.384 70.34 64.164 70.12 63.884 69.96C63.612 69.8 63.296 69.72 62.936 69.72C62.568 69.72 62.244 69.8 61.964 69.96C61.692 70.12 61.476 70.344 61.316 70.632C61.164 70.912 61.088 71.244 61.088 71.628V71.868C61.088 72.252 61.176 72.592 61.352 72.888C61.528 73.184 61.776 73.412 62.096 73.572C62.416 73.732 62.784 73.812 63.2 73.812C63.56 73.812 63.884 73.756 64.172 73.644C64.46 73.532 64.716 73.356 64.94 73.116L65.744 74.04C65.456 74.376 65.092 74.636 64.652 74.82C64.22 74.996 63.724 75.084 63.164 75.084ZM71.3686 75.084C70.8486 75.084 70.3726 74.964 69.9406 74.724C69.5166 74.484 69.1766 74.124 68.9206 73.644C68.6726 73.156 68.5486 72.54 68.5486 71.796C68.5486 71.044 68.6686 70.428 68.9086 69.948C69.1566 69.468 69.4926 69.112 69.9166 68.88C70.3406 68.64 70.8246 68.52 71.3686 68.52C72.0006 68.52 72.5566 68.656 73.0366 68.928C73.5246 69.2 73.9086 69.58 74.1886 70.068C74.4766 70.556 74.6206 71.132 74.6206 71.796C74.6206 72.46 74.4766 73.04 74.1886 73.536C73.9086 74.024 73.5246 74.404 73.0366 74.676C72.5566 74.948 72.0006 75.084 71.3686 75.084ZM67.8166 77.328V68.592H69.2446V70.104L69.1966 71.808L69.3166 73.512V77.328H67.8166ZM71.2006 73.8C71.5606 73.8 71.8806 73.72 72.1606 73.56C72.4486 73.4 72.6766 73.168 72.8446 72.864C73.0126 72.56 73.0966 72.204 73.0966 71.796C73.0966 71.38 73.0126 71.024 72.8446 70.728C72.6766 70.424 72.4486 70.192 72.1606 70.032C71.8806 69.872 71.5606 69.792 71.2006 69.792C70.8406 69.792 70.5166 69.872 70.2286 70.032C69.9406 70.192 69.7126 70.424 69.5446 70.728C69.3766 71.024 69.2926 71.38 69.2926 71.796C69.2926 72.204 69.3766 72.56 69.5446 72.864C69.7126 73.168 69.9406 73.4 70.2286 73.56C70.5166 73.72 70.8406 73.8 71.2006 73.8ZM79.1015 75.084C78.3895 75.084 77.7655 74.944 77.2295 74.664C76.7015 74.376 76.2895 73.984 75.9935 73.488C75.7055 72.992 75.5615 72.428 75.5615 71.796C75.5615 71.156 75.7015 70.592 75.9815 70.104C76.2695 69.608 76.6615 69.22 77.1575 68.94C77.6615 68.66 78.2335 68.52 78.8735 68.52C79.4975 68.52 80.0535 68.656 80.5415 68.928C81.0295 69.2 81.4135 69.584 81.6935 70.08C81.9735 70.576 82.1135 71.16 82.1135 71.832C82.1135 71.896 82.1095 71.968 82.1015 72.048C82.1015 72.128 82.0975 72.204 82.0895 72.276H76.7495V71.28H81.2975L80.7095 71.592C80.7175 71.224 80.6415 70.9 80.4815 70.62C80.3215 70.34 80.1015 70.12 79.8215 69.96C79.5495 69.8 79.2335 69.72 78.8735 69.72C78.5055 69.72 78.1815 69.8 77.9015 69.96C77.6295 70.12 77.4135 70.344 77.2535 70.632C77.1015 70.912 77.0255 71.244 77.0255 71.628V71.868C77.0255 72.252 77.1135 72.592 77.2895 72.888C77.4655 73.184 77.7135 73.412 78.0335 73.572C78.3535 73.732 78.7215 73.812 79.1375 73.812C79.4975 73.812 79.8215 73.756 80.1095 73.644C80.3975 73.532 80.6535 73.356 80.8775 73.116L81.6815 74.04C81.3935 74.376 81.0295 74.636 80.5895 74.82C80.1575 74.996 79.6615 75.084 79.1015 75.084ZM33.8557 90V83.592H35.3557V86.196H38.5837V83.592H40.0837V90H38.5837V87.468H35.3557V90H33.8557ZM42.0939 90V83.592H43.5939V87.816L47.1339 83.592H48.5019V90H47.0019V85.776L43.4739 90H42.0939ZM53.5077 90.084C52.7957 90.084 52.1717 89.944 51.6357 89.664C51.1077 89.376 50.6957 88.984 50.3997 88.488C50.1117 87.992 49.9677 87.428 49.9677 86.796C49.9677 86.156 50.1077 85.592 50.3877 85.104C50.6757 84.608 51.0677 84.22 51.5637 83.94C52.0677 83.66 52.6397 83.52 53.2797 83.52C53.9037 83.52 54.4597 83.656 54.9477 83.928C55.4357 84.2 55.8197 84.584 56.0997 85.08C56.3797 85.576 56.5197 86.16 56.5197 86.832C56.5197 86.896 56.5157 86.968 56.5077 87.048C56.5077 87.128 56.5037 87.204 56.4957 87.276H51.1557V86.28H55.7037L55.1157 86.592C55.1237 86.224 55.0477 85.9 54.8877 85.62C54.7277 85.34 54.5077 85.12 54.2277 84.96C53.9557 84.8 53.6397 84.72 53.2797 84.72C52.9117 84.72 52.5877 84.8 52.3077 84.96C52.0357 85.12 51.8197 85.344 51.6597 85.632C51.5077 85.912 51.4317 86.244 51.4317 86.628V86.868C51.4317 87.252 51.5197 87.592 51.6957 87.888C51.8717 88.184 52.1197 88.412 52.4397 88.572C52.7597 88.732 53.1277 88.812 53.5437 88.812C53.9037 88.812 54.2277 88.756 54.5157 88.644C54.8037 88.532 55.0597 88.356 55.2837 88.116L56.0877 89.04C55.7997 89.376 55.4357 89.636 54.9957 89.82C54.5637 89.996 54.0677 90.084 53.5077 90.084Z" fill="white"/>
<path d="M59.2669 5H30.7354C27.5671 5 25 7.70214 25 11.0342V51.9658C25 55.2979 27.5671 58 30.7354 58H59.2646C62.4329 58 65 55.2979 65 51.9658V11.0342C65.0023 7.70214 62.4317 5 59.2669 5ZM30.3753 25.3414C30.3753 23.927 31.4661 22.7817 32.8082 22.7817H33.6593C32.752 21.7269 32.1945 20.3318 32.1945 18.7943C32.1945 15.508 34.7284 12.8433 37.8519 12.8433C40.9778 12.8433 43.5093 15.5068 43.5093 18.7955C43.5093 20.3306 42.9519 21.7269 42.0422 22.7817H42.8555C44.1999 22.7817 45.2885 23.927 45.2885 25.3414V29.6596C45.2885 31.0136 44.2848 32.1095 43.023 32.2012H32.6407C31.3789 32.1095 30.3753 31.0136 30.3753 29.6596V25.3414ZM57.3317 50.1555H32.6694C31.403 50.1555 30.3753 49.0741 30.3753 47.7418C30.3753 46.4094 31.403 45.3281 32.6694 45.3281H57.3317C58.5981 45.3281 59.6259 46.4094 59.6259 47.7418C59.6259 49.0741 58.5981 50.1555 57.3317 50.1555ZM57.3317 41.1041H32.6694C31.403 41.1041 30.3753 40.0228 30.3753 38.6904C30.3753 37.358 31.403 36.2767 32.6694 36.2767H57.3317C58.5981 36.2767 59.6259 37.358 59.6259 38.6904C59.6259 40.0228 58.5981 41.1041 57.3317 41.1041ZM57.3317 32.0527H49.8757C48.6092 32.0527 47.5815 30.9714 47.5815 29.639C47.5815 28.3067 48.6092 27.2253 49.8757 27.2253H57.3317C58.5981 27.2253 59.6259 28.3067 59.6259 29.639C59.6259 30.9714 58.5981 32.0527 57.3317 32.0527Z" fill="white"/>
</svg>
