<svg width="90" height="90" viewBox="0 0 90 90" fill="none" xmlns="http://www.w3.org/2000/svg">
<path d="M2.21217 77V67.2H10.8782V77H9.08617V68.292L9.50617 68.74H3.58417L4.00417 68.292V77H2.21217ZM17.5895 77.098C16.9829 77.098 16.4275 76.958 15.9235 76.678C15.4289 76.398 15.0322 75.978 14.7335 75.418C14.4442 74.8487 14.2995 74.13 14.2995 73.262C14.2995 72.3847 14.4395 71.666 14.7195 71.106C15.0089 70.546 15.4009 70.1307 15.8955 69.86C16.3902 69.58 16.9549 69.44 17.5895 69.44C18.3269 69.44 18.9755 69.5987 19.5355 69.916C20.1049 70.2333 20.5529 70.6767 20.8795 71.246C21.2155 71.8153 21.3835 72.4873 21.3835 73.262C21.3835 74.0367 21.2155 74.7133 20.8795 75.292C20.5529 75.8613 20.1049 76.3047 19.5355 76.622C18.9755 76.9393 18.3269 77.098 17.5895 77.098ZM13.4455 79.716V69.524H15.1115V71.288L15.0555 73.276L15.1955 75.264V79.716H13.4455ZM17.3935 75.6C17.8135 75.6 18.1869 75.5067 18.5135 75.32C18.8495 75.1333 19.1155 74.8627 19.3115 74.508C19.5075 74.1533 19.6055 73.738 19.6055 73.262C19.6055 72.7767 19.5075 72.3613 19.3115 72.016C19.1155 71.6613 18.8495 71.3907 18.5135 71.204C18.1869 71.0173 17.8135 70.924 17.3935 70.924C16.9735 70.924 16.5955 71.0173 16.2595 71.204C15.9235 71.3907 15.6575 71.6613 15.4615 72.016C15.2655 72.3613 15.1675 72.7767 15.1675 73.262C15.1675 73.738 15.2655 74.1533 15.4615 74.508C15.6575 74.8627 15.9235 75.1333 16.2595 75.32C16.5955 75.5067 16.9735 75.6 17.3935 75.6ZM23.1252 77V69.524H24.8752V74.452L29.0052 69.524H30.6012V77H28.8512V72.072L24.7352 77H23.1252ZM32.9553 77V69.524H38.6953V71.008H34.2993L34.7053 70.616V77H32.9553ZM38.3711 76.986L38.4551 75.516C38.5204 75.5253 38.5811 75.5347 38.6371 75.544C38.6931 75.5533 38.7444 75.558 38.7911 75.558C39.0804 75.558 39.3044 75.4693 39.4631 75.292C39.6218 75.1147 39.7384 74.8767 39.8131 74.578C39.8971 74.27 39.9531 73.9293 39.9811 73.556C40.0184 73.1733 40.0464 72.7907 40.0651 72.408L40.1911 69.524H46.2391V77H44.4891V70.532L44.8951 71.008H41.3391L41.7171 70.518L41.6191 72.492C41.5911 73.1547 41.5351 73.7707 41.4511 74.34C41.3764 74.9 41.2551 75.39 41.0871 75.81C40.9284 76.23 40.7044 76.5567 40.4151 76.79C40.1351 77.0233 39.7758 77.14 39.3371 77.14C39.1971 77.14 39.0431 77.126 38.8751 77.098C38.7164 77.07 38.5484 77.0327 38.3711 76.986ZM53.1319 77V75.488L53.0339 75.166V72.52C53.0339 72.0067 52.8799 71.61 52.5719 71.33C52.2639 71.0407 51.7973 70.896 51.1719 70.896C50.7519 70.896 50.3366 70.9613 49.9259 71.092C49.5246 71.2227 49.1839 71.4047 48.9039 71.638L48.2179 70.364C48.6193 70.056 49.0953 69.8273 49.6459 69.678C50.2059 69.5193 50.7846 69.44 51.3819 69.44C52.4646 69.44 53.2999 69.7013 53.8879 70.224C54.4853 70.7373 54.7839 71.5353 54.7839 72.618V77H53.1319ZM50.7799 77.098C50.2199 77.098 49.7299 77.0047 49.3099 76.818C48.8899 76.622 48.5633 76.356 48.3299 76.02C48.1059 75.6747 47.9939 75.2873 47.9939 74.858C47.9939 74.438 48.0919 74.06 48.2879 73.724C48.4933 73.388 48.8246 73.122 49.2819 72.926C49.7393 72.73 50.3459 72.632 51.1019 72.632H53.2719V73.794H51.2279C50.6306 73.794 50.2293 73.892 50.0239 74.088C49.8186 74.2747 49.7159 74.508 49.7159 74.788C49.7159 75.1053 49.8419 75.3573 50.0939 75.544C50.3459 75.7307 50.6959 75.824 51.1439 75.824C51.5733 75.824 51.9559 75.726 52.2919 75.53C52.6373 75.334 52.8846 75.0447 53.0339 74.662L53.3279 75.712C53.1599 76.1507 52.8566 76.4913 52.4179 76.734C51.9886 76.9767 51.4426 77.098 50.7799 77.098ZM60.3514 77.098C59.5674 77.098 58.8674 76.9347 58.2514 76.608C57.6448 76.272 57.1688 75.8147 56.8234 75.236C56.4781 74.6573 56.3054 73.9993 56.3054 73.262C56.3054 72.5153 56.4781 71.8573 56.8234 71.288C57.1688 70.7093 57.6448 70.2567 58.2514 69.93C58.8674 69.6033 59.5674 69.44 60.3514 69.44C61.0794 69.44 61.7188 69.5893 62.2694 69.888C62.8294 70.1773 63.2541 70.6067 63.5434 71.176L62.1994 71.96C61.9754 71.6053 61.7001 71.344 61.3734 71.176C61.0561 71.008 60.7108 70.924 60.3374 70.924C59.9081 70.924 59.5208 71.0173 59.1754 71.204C58.8301 71.3907 58.5594 71.6613 58.3634 72.016C58.1674 72.3613 58.0694 72.7767 58.0694 73.262C58.0694 73.7473 58.1674 74.1673 58.3634 74.522C58.5594 74.8673 58.8301 75.1333 59.1754 75.32C59.5208 75.5067 59.9081 75.6 60.3374 75.6C60.7108 75.6 61.0561 75.516 61.3734 75.348C61.7001 75.18 61.9754 74.9187 62.1994 74.564L63.5434 75.348C63.2541 75.908 62.8294 76.342 62.2694 76.65C61.7188 76.9487 61.0794 77.098 60.3514 77.098ZM65.0842 77V69.524H66.8342V74.452L70.9642 69.524H72.5602V77H70.8102V72.072L66.6942 77H65.0842ZM76.4683 77V70.588L76.8743 71.008H73.8363V69.524H80.8363V71.008H77.8123L78.2183 70.588V77H76.4683ZM85.8577 71.988C86.819 71.988 87.5517 72.2027 88.0557 72.632C88.5597 73.0613 88.8117 73.668 88.8117 74.452C88.8117 75.264 88.5317 75.8987 87.9717 76.356C87.4117 76.804 86.623 77.0233 85.6057 77.014L82.1057 77V69.524H83.8557V71.974L85.8577 71.988ZM85.4517 75.726C85.965 75.7353 86.357 75.628 86.6277 75.404C86.8984 75.18 87.0337 74.8533 87.0337 74.424C87.0337 73.9947 86.8984 73.6867 86.6277 73.5C86.3664 73.304 85.9744 73.2013 85.4517 73.192L83.8557 73.178V75.712L85.4517 75.726Z" fill="white"/>
<path d="M38.75 29.9167C40.3981 29.9167 42.0093 29.4279 43.3797 28.5122C44.7501 27.5966 45.8182 26.2951 46.449 24.7724C47.0797 23.2496 47.2447 21.5741 46.9232 19.9576C46.6016 18.3411 45.808 16.8562 44.6425 15.6908C43.4771 14.5253 41.9922 13.7317 40.3757 13.4101C38.7592 13.0886 37.0836 13.2536 35.5609 13.8843C34.0382 14.5151 32.7367 15.5832 31.821 16.9536C30.9054 18.324 30.4166 19.9352 30.4166 21.5833C30.4166 23.7935 31.2946 25.9131 32.8574 27.4759C34.4202 29.0387 36.5398 29.9167 38.75 29.9167Z" fill="white"/>
<path d="M55.4166 34.0834C56.6528 34.0834 57.8611 33.7168 58.8889 33.0301C59.9167 32.3433 60.7178 31.3672 61.1909 30.2251C61.6639 29.0831 61.7877 27.8264 61.5465 26.6141C61.3054 25.4017 60.7101 24.288 59.836 23.414C58.962 22.5399 57.8483 21.9446 56.6359 21.7035C55.4236 21.4623 54.1669 21.5861 53.0249 22.0591C51.8828 22.5322 50.9067 23.3333 50.2199 24.3611C49.5332 25.3889 49.1666 26.5972 49.1666 27.8334C49.1666 29.491 49.8251 31.0807 50.9972 32.2528C52.1693 33.4249 53.759 34.0834 55.4166 34.0834Z" fill="white"/>
<path d="M63.75 48.6666C64.3025 48.6666 64.8324 48.4471 65.2231 48.0564C65.6138 47.6657 65.8333 47.1358 65.8333 46.5833C65.8316 44.6362 65.2843 42.7286 64.2533 41.0768C63.2224 39.425 61.7491 38.0953 60.0007 37.2384C58.2523 36.3816 56.2987 36.0319 54.3616 36.2291C52.4245 36.4263 50.5815 37.1625 49.0416 38.3541C47.001 36.3215 44.4042 34.9387 41.5788 34.38C38.7533 33.8213 35.8256 34.1118 33.165 35.2148C30.5044 36.3179 28.23 38.184 26.6286 40.578C25.0272 42.9719 24.1705 45.7865 24.1666 48.6666C24.1666 49.2192 24.3861 49.7491 24.7768 50.1398C25.1675 50.5305 25.6974 50.75 26.25 50.75H51.25C51.8025 50.75 52.3324 50.5305 52.7231 50.1398C53.1138 49.7491 53.3333 49.2192 53.3333 48.6666" fill="white"/>
</svg>
