<svg width="90" height="90" viewBox="0 0 90 90" fill="none" xmlns="http://www.w3.org/2000/svg">
<path d="M10.1804 76.034L10.7684 74.704C11.1884 74.9933 11.6457 75.2173 12.1404 75.376C12.6444 75.5253 13.1437 75.6047 13.6384 75.614C14.1331 75.6233 14.5811 75.5673 14.9824 75.446C15.3931 75.3247 15.7197 75.1427 15.9624 74.9C16.2051 74.6573 16.3264 74.354 16.3264 73.99C16.3264 73.5513 16.1444 73.2247 15.7804 73.01C15.4257 72.786 14.9404 72.674 14.3244 72.674H12.0424V71.246H14.1844C14.7351 71.246 15.1597 71.134 15.4584 70.91C15.7664 70.686 15.9204 70.3827 15.9204 70C15.9204 69.6827 15.8177 69.4213 15.6124 69.216C15.4164 69.0107 15.1457 68.8567 14.8004 68.754C14.4644 68.6513 14.0817 68.6047 13.6524 68.614C13.2324 68.614 12.7937 68.6793 12.3364 68.81C11.8791 68.9313 11.4451 69.1133 11.0344 69.356L10.4604 67.886C11.0764 67.5593 11.7204 67.3307 12.3924 67.2C13.0737 67.0693 13.7317 67.032 14.3664 67.088C15.0011 67.144 15.5704 67.2887 16.0744 67.522C16.5877 67.7553 16.9984 68.0633 17.3064 68.446C17.6144 68.8193 17.7684 69.2627 17.7684 69.776C17.7684 70.2427 17.6424 70.658 17.3904 71.022C17.1477 71.3767 16.8117 71.652 16.3824 71.848C15.9531 72.044 15.4537 72.142 14.8844 72.142L14.9544 71.694C15.5984 71.694 16.1584 71.806 16.6344 72.03C17.1197 72.2447 17.4931 72.5433 17.7544 72.926C18.0251 73.3087 18.1604 73.752 18.1604 74.256C18.1604 74.732 18.0391 75.1567 17.7964 75.53C17.5537 75.894 17.2224 76.202 16.8024 76.454C16.3824 76.6967 15.9017 76.8787 15.3604 77C14.8191 77.112 14.2497 77.154 13.6524 77.126C13.0551 77.098 12.4577 76.9953 11.8604 76.818C11.2724 76.6407 10.7124 76.3793 10.1804 76.034ZM24.5782 77V75.488L24.4802 75.166V72.52C24.4802 72.0067 24.3262 71.61 24.0182 71.33C23.7102 71.0407 23.2435 70.896 22.6182 70.896C22.1982 70.896 21.7829 70.9613 21.3722 71.092C20.9709 71.2227 20.6302 71.4047 20.3502 71.638L19.6642 70.364C20.0655 70.056 20.5415 69.8273 21.0922 69.678C21.6522 69.5193 22.2309 69.44 22.8282 69.44C23.9109 69.44 24.7462 69.7013 25.3342 70.224C25.9315 70.7373 26.2302 71.5353 26.2302 72.618V77H24.5782ZM22.2262 77.098C21.6662 77.098 21.1762 77.0047 20.7562 76.818C20.3362 76.622 20.0095 76.356 19.7762 76.02C19.5522 75.6747 19.4402 75.2873 19.4402 74.858C19.4402 74.438 19.5382 74.06 19.7342 73.724C19.9395 73.388 20.2709 73.122 20.7282 72.926C21.1855 72.73 21.7922 72.632 22.5482 72.632H24.7182V73.794H22.6742C22.0769 73.794 21.6755 73.892 21.4702 74.088C21.2649 74.2747 21.1622 74.508 21.1622 74.788C21.1622 75.1053 21.2882 75.3573 21.5402 75.544C21.7922 75.7307 22.1422 75.824 22.5902 75.824C23.0195 75.824 23.4022 75.726 23.7382 75.53C24.0835 75.334 24.3309 75.0447 24.4802 74.662L24.7742 75.712C24.6062 76.1507 24.3029 76.4913 23.8642 76.734C23.4349 76.9767 22.8889 77.098 22.2262 77.098ZM28.3957 77V69.524H35.5637V77H33.8277V70.602L34.2337 71.008H29.7397L30.1457 70.602V77H28.3957ZM42.069 77.098C41.4624 77.098 40.907 76.958 40.403 76.678C39.9084 76.398 39.5117 75.978 39.213 75.418C38.9237 74.8487 38.779 74.13 38.779 73.262C38.779 72.3847 38.919 71.666 39.199 71.106C39.4884 70.546 39.8804 70.1307 40.375 69.86C40.8697 69.58 41.4344 69.44 42.069 69.44C42.8064 69.44 43.455 69.5987 44.015 69.916C44.5844 70.2333 45.0324 70.6767 45.359 71.246C45.695 71.8153 45.863 72.4873 45.863 73.262C45.863 74.0367 45.695 74.7133 45.359 75.292C45.0324 75.8613 44.5844 76.3047 44.015 76.622C43.455 76.9393 42.8064 77.098 42.069 77.098ZM37.925 79.716V69.524H39.591V71.288L39.535 73.276L39.675 75.264V79.716H37.925ZM41.873 75.6C42.293 75.6 42.6664 75.5067 42.993 75.32C43.329 75.1333 43.595 74.8627 43.791 74.508C43.987 74.1533 44.085 73.738 44.085 73.262C44.085 72.7767 43.987 72.3613 43.791 72.016C43.595 71.6613 43.329 71.3907 42.993 71.204C42.6664 71.0173 42.293 70.924 41.873 70.924C41.453 70.924 41.075 71.0173 40.739 71.204C40.403 71.3907 40.137 71.6613 39.941 72.016C39.745 72.3613 39.647 72.7767 39.647 73.262C39.647 73.738 39.745 74.1533 39.941 74.508C40.137 74.8627 40.403 75.1333 40.739 75.32C41.075 75.5067 41.453 75.6 41.873 75.6ZM52.045 77V75.488L51.947 75.166V72.52C51.947 72.0067 51.793 71.61 51.485 71.33C51.177 71.0407 50.7103 70.896 50.085 70.896C49.665 70.896 49.2497 70.9613 48.839 71.092C48.4377 71.2227 48.097 71.4047 47.817 71.638L47.131 70.364C47.5323 70.056 48.0083 69.8273 48.559 69.678C49.119 69.5193 49.6977 69.44 50.295 69.44C51.3777 69.44 52.213 69.7013 52.801 70.224C53.3983 70.7373 53.697 71.5353 53.697 72.618V77H52.045ZM49.693 77.098C49.133 77.098 48.643 77.0047 48.223 76.818C47.803 76.622 47.4763 76.356 47.243 76.02C47.019 75.6747 46.907 75.2873 46.907 74.858C46.907 74.438 47.005 74.06 47.201 73.724C47.4063 73.388 47.7377 73.122 48.195 72.926C48.6523 72.73 49.259 72.632 50.015 72.632H52.185V73.794H50.141C49.5437 73.794 49.1423 73.892 48.937 74.088C48.7317 74.2747 48.629 74.508 48.629 74.788C48.629 75.1053 48.755 75.3573 49.007 75.544C49.259 75.7307 49.609 75.824 50.057 75.824C50.4863 75.824 50.869 75.726 51.205 75.53C51.5503 75.334 51.7977 75.0447 51.947 74.662L52.241 75.712C52.073 76.1507 51.7697 76.4913 51.331 76.734C50.9017 76.9767 50.3557 77.098 49.693 77.098ZM55.8625 77V69.524H59.5165C60.4219 69.524 61.1312 69.692 61.6445 70.028C62.1672 70.364 62.4285 70.84 62.4285 71.456C62.4285 72.0627 62.1859 72.5387 61.7005 72.884C61.2152 73.22 60.5712 73.388 59.7685 73.388L59.9785 72.954C60.8839 72.954 61.5559 73.122 61.9945 73.458C62.4425 73.7847 62.6665 74.2653 62.6665 74.9C62.6665 75.5627 62.4192 76.0807 61.9245 76.454C61.4299 76.818 60.6785 77 59.6705 77H55.8625ZM57.5285 75.726H59.5305C60.0065 75.726 60.3659 75.6513 60.6085 75.502C60.8512 75.3433 60.9725 75.1053 60.9725 74.788C60.9725 74.452 60.8605 74.2047 60.6365 74.046C60.4125 73.8873 60.0625 73.808 59.5865 73.808H57.5285V75.726ZM57.5285 72.646H59.3625C59.8105 72.646 60.1465 72.5667 60.3705 72.408C60.6039 72.24 60.7205 72.0067 60.7205 71.708C60.7205 71.4 60.6039 71.1713 60.3705 71.022C60.1465 70.8727 59.8105 70.798 59.3625 70.798H57.5285V72.646ZM69.8925 77L67.1905 73.416L68.6185 72.534L71.9505 77H69.8925ZM64.5305 77V69.524H66.2805V77H64.5305ZM65.7625 74.004V72.548H68.2965V74.004H65.7625ZM68.7865 73.472L67.1485 73.276L69.8925 69.524H71.7685L68.7865 73.472ZM77.5841 77V75.488L77.4861 75.166V72.52C77.4861 72.0067 77.3321 71.61 77.0241 71.33C76.7161 71.0407 76.2494 70.896 75.6241 70.896C75.2041 70.896 74.7887 70.9613 74.3781 71.092C73.9767 71.2227 73.6361 71.4047 73.3561 71.638L72.6701 70.364C73.0714 70.056 73.5474 69.8273 74.0981 69.678C74.6581 69.5193 75.2367 69.44 75.8341 69.44C76.9167 69.44 77.7521 69.7013 78.3401 70.224C78.9374 70.7373 79.2361 71.5353 79.2361 72.618V77H77.5841ZM75.2321 77.098C74.6721 77.098 74.1821 77.0047 73.7621 76.818C73.3421 76.622 73.0154 76.356 72.7821 76.02C72.5581 75.6747 72.4461 75.2873 72.4461 74.858C72.4461 74.438 72.5441 74.06 72.7401 73.724C72.9454 73.388 73.2767 73.122 73.7341 72.926C74.1914 72.73 74.7981 72.632 75.5541 72.632H77.7241V73.794H75.6801C75.0827 73.794 74.6814 73.892 74.4761 74.088C74.2707 74.2747 74.1681 74.508 74.1681 74.788C74.1681 75.1053 74.2941 75.3573 74.5461 75.544C74.7981 75.7307 75.1481 75.824 75.5961 75.824C76.0254 75.824 76.4081 75.726 76.7441 75.53C77.0894 75.334 77.3367 75.0447 77.4861 74.662L77.7801 75.712C77.6121 76.1507 77.3087 76.4913 76.8701 76.734C76.4407 76.9767 75.8947 77.098 75.2321 77.098Z" fill="white"/>
<path d="M36.6979 21.125C36.2918 21.125 35.9023 21.2863 35.6152 21.5735C35.328 21.8607 35.1667 22.2501 35.1667 22.6563V31.8438C35.1667 32.689 35.8527 33.375 36.6979 33.375H47.9271C48.3332 33.375 48.7227 33.2137 49.0098 32.9265C49.297 32.6393 49.4583 32.2499 49.4583 31.8438V22.6563C49.4583 22.2501 49.297 21.8607 49.0098 21.5735C48.7227 21.2863 48.3332 21.125 47.9271 21.125H36.6979ZM38.2292 30.3125V24.1875H46.3958V30.3125H38.2292ZM34.6563 15C33.1672 15 31.7391 15.5915 30.6861 16.6445C29.6332 17.6974 29.0417 19.1255 29.0417 20.6146V50.7292H28.5312C28.1251 50.7292 27.7357 50.8905 27.4485 51.1777C27.1613 51.4648 27 51.8543 27 52.2604C27 52.6665 27.1613 53.056 27.4485 53.3432C27.7357 53.6303 28.1251 53.7917 28.5312 53.7917H56.0938C56.4999 53.7917 56.8893 53.6303 57.1765 53.3432C57.4637 53.056 57.625 52.6665 57.625 52.2604C57.625 51.8543 57.4637 51.4648 57.1765 51.1777C56.8893 50.8905 56.4999 50.7292 56.0938 50.7292H55.5833V47.048C56.4378 47.4873 57.3908 47.6995 58.3509 47.6643C59.311 47.6291 60.2459 47.3477 61.0659 46.8471C61.8859 46.3465 62.5634 45.6435 63.0335 44.8056C63.5035 43.9677 63.7502 43.023 63.75 42.0623V30.143C63.75 28.9282 63.356 27.7462 62.6271 26.7743L60.3813 23.7792C60.1376 23.4543 59.7748 23.2395 59.3728 23.1821C58.9708 23.1246 58.5624 23.2292 58.2375 23.4729C57.9126 23.7166 57.6978 24.0793 57.6404 24.4814C57.583 24.8834 57.6876 25.2918 57.9312 25.6167L60.1771 28.6118C60.5078 29.0528 60.6875 29.5918 60.6875 30.143V42.0623C60.6875 42.3961 60.6218 42.7266 60.494 43.035C60.3663 43.3434 60.179 43.6236 59.943 43.8597C59.707 44.0957 59.4268 44.2829 59.1184 44.4107C58.81 44.5384 58.4794 44.6042 58.1456 44.6042C57.8118 44.6042 57.4813 44.5384 57.1729 44.4107C56.8645 44.2829 56.5843 44.0957 56.3483 43.8597C56.1122 43.6236 55.925 43.3434 55.7972 43.035C55.6695 42.7266 55.6038 42.3961 55.6038 42.0623V38.4792C55.6036 38.3964 55.5967 38.3138 55.5833 38.2321V20.6146C55.5833 19.8773 55.4381 19.1472 55.1559 18.466C54.8738 17.7848 54.4602 17.1658 53.9389 16.6445C53.4175 16.1231 52.7986 15.7095 52.1174 15.4274C51.4362 15.1452 50.7061 15 49.9688 15H34.6563ZM52.5208 50.7292H32.1042V20.6146C32.1042 19.2058 33.2475 18.0625 34.6563 18.0625H49.9688C51.3775 18.0625 52.5208 19.2058 52.5208 20.6146V50.7292Z" fill="white"/>
</svg>