<svg width="90" height="93" viewBox="0 0 90 93" fill="none" xmlns="http://www.w3.org/2000/svg">
<path d="M22.4341 75V66.6H26.1901C27.1341 66.6 27.8701 66.788 28.3981 67.164C28.9261 67.532 29.1901 68.064 29.1901 68.76C29.1901 69.448 28.9381 69.98 28.4341 70.356C27.9301 70.724 27.2661 70.908 26.4421 70.908L26.6581 70.476C27.5941 70.476 28.3181 70.664 28.8301 71.04C29.3421 71.416 29.5981 71.96 29.5981 72.672C29.5981 73.4 29.3301 73.972 28.7941 74.388C28.2581 74.796 27.4661 75 26.4181 75H22.4341ZM23.9701 73.8H26.3701C26.9141 73.8 27.3261 73.7 27.6061 73.5C27.8861 73.292 28.0261 72.976 28.0261 72.552C28.0261 72.128 27.8861 71.82 27.6061 71.628C27.3261 71.428 26.9141 71.328 26.3701 71.328H23.9701V73.8ZM23.9701 70.188H26.0581C26.5621 70.188 26.9461 70.088 27.2101 69.888C27.4741 69.68 27.6061 69.384 27.6061 69C27.6061 68.6 27.4741 68.3 27.2101 68.1C26.9461 67.9 26.5621 67.8 26.0581 67.8H23.9701V70.188ZM37.6752 75V68.592H39.1752V75H37.6752ZM34.3272 70.704C35.1512 70.704 35.7752 70.888 36.1992 71.256C36.6312 71.624 36.8472 72.144 36.8472 72.816C36.8472 73.512 36.6072 74.056 36.1272 74.448C35.6552 74.832 34.9832 75.02 34.1112 75.012L31.2072 75V68.592H32.7072V70.692L34.3272 70.704ZM33.9792 73.908C34.4192 73.916 34.7552 73.824 34.9872 73.632C35.2192 73.44 35.3352 73.16 35.3352 72.792C35.3352 72.424 35.2192 72.16 34.9872 72C34.7632 71.832 34.4272 71.744 33.9792 71.736L32.7072 71.724V73.896L33.9792 73.908ZM45.5836 74.304V69.864H43.1236L43.0876 70.896C43.0716 71.264 43.0476 71.62 43.0156 71.964C42.9836 72.3 42.9316 72.612 42.8596 72.9C42.7876 73.18 42.6836 73.412 42.5476 73.596C42.4116 73.78 42.2316 73.9 42.0076 73.956L40.5196 73.728C40.7596 73.728 40.9516 73.652 41.0956 73.5C41.2476 73.34 41.3636 73.124 41.4436 72.852C41.5316 72.572 41.5956 72.256 41.6356 71.904C41.6756 71.544 41.7036 71.172 41.7196 70.788L41.8036 68.592H47.0836V74.304H45.5836ZM40.2916 76.428V73.728H48.0316V76.428H46.6276V75H41.6836V76.428H40.2916ZM53.2593 75V73.704L53.1753 73.428V71.16C53.1753 70.72 53.0433 70.38 52.7793 70.14C52.5153 69.892 52.1153 69.768 51.5793 69.768C51.2193 69.768 50.8633 69.824 50.5113 69.936C50.1673 70.048 49.8753 70.204 49.6353 70.404L49.0473 69.312C49.3913 69.048 49.7993 68.852 50.2713 68.724C50.7513 68.588 51.2473 68.52 51.7593 68.52C52.6873 68.52 53.4033 68.744 53.9073 69.192C54.4193 69.632 54.6753 70.316 54.6753 71.244V75H53.2593ZM51.2433 75.084C50.7633 75.084 50.3433 75.004 49.9833 74.844C49.6233 74.676 49.3433 74.448 49.1433 74.16C48.9513 73.864 48.8553 73.532 48.8553 73.164C48.8553 72.804 48.9393 72.48 49.1073 72.192C49.2833 71.904 49.5673 71.676 49.9593 71.508C50.3513 71.34 50.8713 71.256 51.5193 71.256H53.3793V72.252H51.6273C51.1153 72.252 50.7713 72.336 50.5953 72.504C50.4193 72.664 50.3313 72.864 50.3313 73.104C50.3313 73.376 50.4393 73.592 50.6553 73.752C50.8713 73.912 51.1713 73.992 51.5553 73.992C51.9233 73.992 52.2513 73.908 52.5393 73.74C52.8353 73.572 53.0473 73.324 53.1753 72.996L53.4273 73.896C53.2833 74.272 53.0233 74.564 52.6473 74.772C52.2793 74.98 51.8113 75.084 51.2433 75.084ZM57.8634 75V69.504L58.2114 69.864H55.6074V68.592H61.6074V69.864H59.0154L59.3634 69.504V75H57.8634ZM65.9115 70.704C66.7355 70.704 67.3635 70.888 67.7955 71.256C68.2275 71.624 68.4435 72.144 68.4435 72.816C68.4435 73.512 68.2035 74.056 67.7235 74.448C67.2435 74.832 66.5675 75.02 65.6955 75.012L62.6955 75V68.592H64.1955V70.692L65.9115 70.704ZM65.5635 73.908C66.0035 73.916 66.3395 73.824 66.5715 73.632C66.8035 73.44 66.9195 73.16 66.9195 72.792C66.9195 72.424 66.8035 72.16 66.5715 72C66.3475 71.832 66.0115 71.744 65.5635 71.736L64.1955 71.724V73.896L65.5635 73.908ZM12.0017 89.988L12.0737 88.728C12.1297 88.736 12.1817 88.744 12.2297 88.752C12.2777 88.76 12.3217 88.764 12.3617 88.764C12.6097 88.764 12.8017 88.688 12.9377 88.536C13.0737 88.384 13.1737 88.18 13.2377 87.924C13.3097 87.66 13.3577 87.368 13.3817 87.048C13.4137 86.72 13.4377 86.392 13.4537 86.064L13.5617 83.592H18.7457V90H17.2457V84.456L17.5937 84.864H14.5457L14.8697 84.444L14.7857 86.136C14.7617 86.704 14.7137 87.232 14.6417 87.72C14.5777 88.2 14.4737 88.62 14.3297 88.98C14.1937 89.34 14.0017 89.62 13.7537 89.82C13.5137 90.02 13.2057 90.12 12.8297 90.12C12.7097 90.12 12.5777 90.108 12.4337 90.084C12.2977 90.06 12.1537 90.028 12.0017 89.988ZM20.7658 90V83.592H22.2658V87.816L25.8058 83.592H27.1738V90H25.6738V85.776L22.1458 90H20.7658ZM29.1916 90V83.592H30.6916V88.728H33.7516V83.592H35.2516V90H29.1916ZM34.8196 91.428V89.964L35.1676 90H33.7516V88.728H36.2236V91.428H34.8196ZM40.5468 90.084C39.8348 90.084 39.2108 89.944 38.6748 89.664C38.1468 89.376 37.7348 88.984 37.4388 88.488C37.1508 87.992 37.0068 87.428 37.0068 86.796C37.0068 86.156 37.1468 85.592 37.4268 85.104C37.7148 84.608 38.1068 84.22 38.6028 83.94C39.1068 83.66 39.6788 83.52 40.3188 83.52C40.9428 83.52 41.4988 83.656 41.9868 83.928C42.4748 84.2 42.8588 84.584 43.1388 85.08C43.4188 85.576 43.5588 86.16 43.5588 86.832C43.5588 86.896 43.5548 86.968 43.5468 87.048C43.5468 87.128 43.5428 87.204 43.5348 87.276H38.1948V86.28H42.7428L42.1548 86.592C42.1628 86.224 42.0868 85.9 41.9268 85.62C41.7668 85.34 41.5468 85.12 41.2668 84.96C40.9948 84.8 40.6788 84.72 40.3188 84.72C39.9508 84.72 39.6268 84.8 39.3468 84.96C39.0748 85.12 38.8588 85.344 38.6988 85.632C38.5468 85.912 38.4708 86.244 38.4708 86.628V86.868C38.4708 87.252 38.5588 87.592 38.7348 87.888C38.9108 88.184 39.1588 88.412 39.4788 88.572C39.7988 88.732 40.1668 88.812 40.5828 88.812C40.9428 88.812 41.2668 88.756 41.5548 88.644C41.8428 88.532 42.0988 88.356 42.3228 88.116L43.1268 89.04C42.8388 89.376 42.4748 89.636 42.0348 89.82C41.6028 89.996 41.1068 90.084 40.5468 90.084ZM45.1994 90V83.592H46.6994V86.196H49.9274V83.592H51.4274V90H49.9274V87.468H46.6994V90H45.1994ZM55.3837 90.108C54.8957 90.108 54.4117 90.052 53.9317 89.94C53.4597 89.82 53.0317 89.652 52.6477 89.436L53.0677 88.32C53.3797 88.496 53.7317 88.632 54.1237 88.728C54.5157 88.824 54.9077 88.872 55.2997 88.872C55.6357 88.872 55.9237 88.84 56.1637 88.776C56.4037 88.704 56.5877 88.6 56.7157 88.464C56.8517 88.328 56.9197 88.172 56.9197 87.996C56.9197 87.74 56.8077 87.548 56.5837 87.42C56.3677 87.284 56.0557 87.216 55.6477 87.216H54.4117V86.208H55.5277C55.7837 86.208 55.9997 86.18 56.1757 86.124C56.3597 86.068 56.4997 85.984 56.5957 85.872C56.6917 85.76 56.7397 85.628 56.7397 85.476C56.7397 85.324 56.6797 85.192 56.5597 85.08C56.4477 84.96 56.2837 84.872 56.0677 84.816C55.8517 84.752 55.5917 84.72 55.2877 84.72C54.9677 84.72 54.6357 84.76 54.2917 84.84C53.9557 84.92 53.6117 85.036 53.2597 85.188L52.8757 84.084C53.2837 83.9 53.6797 83.76 54.0637 83.664C54.4557 83.56 54.8437 83.504 55.2277 83.496C55.8117 83.472 56.3317 83.532 56.7877 83.676C57.2437 83.82 57.6037 84.028 57.8677 84.3C58.1317 84.572 58.2637 84.892 58.2637 85.26C58.2637 85.564 58.1677 85.84 57.9757 86.088C57.7917 86.328 57.5357 86.516 57.2077 86.652C56.8877 86.788 56.5197 86.856 56.1037 86.856L56.1517 86.532C56.8637 86.532 57.4237 86.676 57.8317 86.964C58.2397 87.244 58.4437 87.628 58.4437 88.116C58.4437 88.508 58.3117 88.856 58.0477 89.16C57.7837 89.456 57.4197 89.688 56.9557 89.856C56.4997 90.024 55.9757 90.108 55.3837 90.108ZM59.9885 90V83.592H61.4885V87.816L65.0285 83.592H66.3965V90H64.8965V85.776L61.3685 90H59.9885ZM68.4143 90V83.592H69.9143V86.076H71.8223V87.432H69.9143V90H68.4143ZM74.2703 90.084C73.6303 90.084 73.0583 89.944 72.5543 89.664C72.0583 89.376 71.6663 88.984 71.3783 88.488C71.0903 87.992 70.9463 87.428 70.9463 86.796C70.9463 86.156 71.0903 85.588 71.3783 85.092C71.6663 84.596 72.0583 84.212 72.5543 83.94C73.0583 83.66 73.6303 83.52 74.2703 83.52C74.9183 83.52 75.4903 83.66 75.9863 83.94C76.4903 84.212 76.8863 84.596 77.1743 85.092C77.4623 85.588 77.6063 86.156 77.6063 86.796C77.6063 87.428 77.4623 87.996 77.1743 88.5C76.8863 88.996 76.4903 89.384 75.9863 89.664C75.4903 89.944 74.9183 90.084 74.2703 90.084ZM74.2703 88.812C74.6303 88.812 74.9463 88.728 75.2183 88.56C75.4983 88.392 75.7183 88.16 75.8783 87.864C76.0383 87.568 76.1183 87.212 76.1183 86.796C76.1183 86.38 76.0383 86.024 75.8783 85.728C75.7183 85.424 75.4983 85.192 75.2183 85.032C74.9463 84.872 74.6343 84.792 74.2823 84.792C73.9303 84.792 73.6143 84.872 73.3343 85.032C73.0543 85.192 72.8343 85.424 72.6743 85.728C72.5143 86.024 72.4343 86.38 72.4343 86.796C72.4343 87.212 72.5143 87.568 72.6743 87.864C72.8343 88.16 73.0543 88.392 73.3343 88.56C73.6143 88.728 73.9263 88.812 74.2703 88.812Z" fill="white"/>
<path d="M40.4375 37.2329V42.9998H45.5C46.6935 42.9998 47.8381 43.4739 48.682 44.3178C49.5259 45.1618 50 46.3064 50 47.4999H23C23 46.3064 23.4741 45.1618 24.318 44.3178C25.1619 43.4739 26.3065 42.9998 27.5 42.9998H32.5625V37.2329C31.4021 36.3995 30.5361 35.2194 30.089 33.8625C29.642 32.5056 29.6369 31.0418 30.0747 29.6819C30.5124 28.3219 31.3703 27.136 32.525 26.2946C33.6796 25.4533 35.0714 25 36.5 25C37.9286 25 39.3204 25.4533 40.475 26.2946C41.6297 27.136 42.4876 28.3219 42.9253 29.6819C43.3631 31.0418 43.358 32.5056 42.911 33.8625C42.4639 35.2194 41.5979 36.3995 40.4375 37.2329ZM23 52V49.7499H50V52H23Z" fill="white"/>
<g clip-path="url(#clip0_1552_261)">
<path fill-rule="evenodd" clip-rule="evenodd" d="M69.3915 46.1C68.594 45.285 67.3015 45.285 66.504 46.1L59.2845 53.4601L57.48 51.62C56.6825 50.81 55.3895 50.81 54.5925 51.62C53.795 52.435 53.795 53.755 54.5925 54.565L57.841 57.88C58.6385 58.695 59.931 58.695 60.7285 57.88L69.3915 49.045C70.189 48.23 70.189 46.91 69.3915 46.1Z" fill="white"/>
</g>
<defs>
<clipPath id="clip0_1552_261">
<rect width="16" height="16" fill="white" transform="translate(54 44)"/>
</clipPath>
</defs>
</svg>
