<svg width="90" height="93" viewBox="0 0 90 93" fill="none" xmlns="http://www.w3.org/2000/svg">
<path d="M37.2903 75.12C36.6343 75.12 36.0303 75.016 35.4783 74.808C34.9343 74.592 34.4583 74.292 34.0503 73.908C33.6423 73.516 33.3263 73.056 33.1023 72.528C32.8783 72 32.7663 71.424 32.7663 70.8C32.7663 70.176 32.8783 69.6 33.1023 69.072C33.3263 68.544 33.6423 68.088 34.0503 67.704C34.4663 67.312 34.9503 67.012 35.5023 66.804C36.0543 66.588 36.6583 66.48 37.3143 66.48C38.0263 66.48 38.6663 66.596 39.2343 66.828C39.8103 67.06 40.2943 67.4 40.6863 67.848L39.7023 68.808C39.3743 68.48 39.0183 68.24 38.6343 68.088C38.2583 67.928 37.8423 67.848 37.3863 67.848C36.9463 67.848 36.5383 67.92 36.1623 68.064C35.7863 68.208 35.4623 68.412 35.1903 68.676C34.9183 68.94 34.7063 69.252 34.5543 69.612C34.4103 69.972 34.3383 70.368 34.3383 70.8C34.3383 71.224 34.4103 71.616 34.5543 71.976C34.7063 72.336 34.9183 72.652 35.1903 72.924C35.4623 73.188 35.7823 73.392 36.1503 73.536C36.5183 73.68 36.9263 73.752 37.3743 73.752C37.7903 73.752 38.1903 73.688 38.5743 73.56C38.9663 73.424 39.3383 73.2 39.6903 72.888L40.5783 74.052C40.1383 74.404 39.6263 74.672 39.0423 74.856C38.4663 75.032 37.8823 75.12 37.2903 75.12ZM39.1023 73.848V70.704H40.5783V74.052L39.1023 73.848ZM42.6358 75V66.6H46.0918C46.8358 66.6 47.4718 66.72 47.9998 66.96C48.5358 67.2 48.9478 67.544 49.2358 67.992C49.5238 68.44 49.6678 68.972 49.6678 69.588C49.6678 70.204 49.5238 70.736 49.2358 71.184C48.9478 71.632 48.5358 71.976 47.9998 72.216C47.4718 72.456 46.8358 72.576 46.0918 72.576H43.4998L44.1958 71.844V75H42.6358ZM44.1958 72.012L43.4998 71.256H46.0198C46.7078 71.256 47.2238 71.112 47.5678 70.824C47.9198 70.528 48.0958 70.116 48.0958 69.588C48.0958 69.052 47.9198 68.64 47.5678 68.352C47.2238 68.064 46.7078 67.92 46.0198 67.92H43.4998L44.1958 67.152V72.012ZM53.9468 75.12C53.2908 75.12 52.6628 75.028 52.0628 74.844C51.4628 74.652 50.9868 74.408 50.6348 74.112L51.1748 72.9C51.5108 73.164 51.9268 73.384 52.4228 73.56C52.9188 73.736 53.4268 73.824 53.9468 73.824C54.3868 73.824 54.7428 73.776 55.0148 73.68C55.2868 73.584 55.4868 73.456 55.6148 73.296C55.7428 73.128 55.8068 72.94 55.8068 72.732C55.8068 72.476 55.7148 72.272 55.5308 72.12C55.3468 71.96 55.1068 71.836 54.8108 71.748C54.5228 71.652 54.1988 71.564 53.8388 71.484C53.4868 71.404 53.1308 71.312 52.7708 71.208C52.4188 71.096 52.0948 70.956 51.7988 70.788C51.5108 70.612 51.2748 70.38 51.0908 70.092C50.9068 69.804 50.8148 69.436 50.8148 68.988C50.8148 68.532 50.9348 68.116 51.1748 67.74C51.4228 67.356 51.7948 67.052 52.2908 66.828C52.7948 66.596 53.4308 66.48 54.1988 66.48C54.7028 66.48 55.2028 66.544 55.6988 66.672C56.1948 66.8 56.6268 66.984 56.9948 67.224L56.5028 68.436C56.1268 68.212 55.7388 68.048 55.3388 67.944C54.9388 67.832 54.5548 67.776 54.1868 67.776C53.7548 67.776 53.4028 67.828 53.1308 67.932C52.8668 68.036 52.6708 68.172 52.5428 68.34C52.4228 68.508 52.3628 68.7 52.3628 68.916C52.3628 69.172 52.4508 69.38 52.6268 69.54C52.8108 69.692 53.0468 69.812 53.3348 69.9C53.6308 69.988 53.9588 70.076 54.3188 70.164C54.6788 70.244 55.0348 70.336 55.3868 70.44C55.7468 70.544 56.0708 70.68 56.3588 70.848C56.6548 71.016 56.8908 71.244 57.0668 71.532C57.2508 71.82 57.3428 72.184 57.3428 72.624C57.3428 73.072 57.2188 73.488 56.9708 73.872C56.7308 74.248 56.3588 74.552 55.8548 74.784C55.3508 75.008 54.7148 75.12 53.9468 75.12ZM24.717 90V84.504L25.065 84.864H22.461V83.592H28.461V84.864H25.869L26.217 84.504V90H24.717ZM33.101 90.084C32.581 90.084 32.105 89.964 31.673 89.724C31.249 89.484 30.909 89.124 30.653 88.644C30.405 88.156 30.281 87.54 30.281 86.796C30.281 86.044 30.401 85.428 30.641 84.948C30.889 84.468 31.225 84.112 31.649 83.88C32.073 83.64 32.557 83.52 33.101 83.52C33.733 83.52 34.289 83.656 34.769 83.928C35.257 84.2 35.641 84.58 35.921 85.068C36.209 85.556 36.353 86.132 36.353 86.796C36.353 87.46 36.209 88.04 35.921 88.536C35.641 89.024 35.257 89.404 34.769 89.676C34.289 89.948 33.733 90.084 33.101 90.084ZM29.549 92.328V83.592H30.977V85.104L30.929 86.808L31.049 88.512V92.328H29.549ZM32.933 88.8C33.293 88.8 33.613 88.72 33.893 88.56C34.181 88.4 34.409 88.168 34.577 87.864C34.745 87.56 34.829 87.204 34.829 86.796C34.829 86.38 34.745 86.024 34.577 85.728C34.409 85.424 34.181 85.192 33.893 85.032C33.613 84.872 33.293 84.792 32.933 84.792C32.573 84.792 32.249 84.872 31.961 85.032C31.673 85.192 31.445 85.424 31.277 85.728C31.109 86.024 31.025 86.38 31.025 86.796C31.025 87.204 31.109 87.56 31.277 87.864C31.445 88.168 31.673 88.4 31.961 88.56C32.249 88.72 32.573 88.8 32.933 88.8ZM40.8339 90.084C40.1219 90.084 39.4979 89.944 38.9619 89.664C38.4339 89.376 38.0219 88.984 37.7259 88.488C37.4379 87.992 37.2939 87.428 37.2939 86.796C37.2939 86.156 37.4339 85.592 37.7139 85.104C38.0019 84.608 38.3939 84.22 38.8899 83.94C39.3939 83.66 39.9659 83.52 40.6059 83.52C41.2299 83.52 41.7859 83.656 42.2739 83.928C42.7619 84.2 43.1459 84.584 43.4259 85.08C43.7059 85.576 43.8459 86.16 43.8459 86.832C43.8459 86.896 43.8419 86.968 43.8339 87.048C43.8339 87.128 43.8299 87.204 43.8219 87.276H38.4819V86.28H43.0299L42.4419 86.592C42.4499 86.224 42.3739 85.9 42.2139 85.62C42.0539 85.34 41.8339 85.12 41.5539 84.96C41.2819 84.8 40.9659 84.72 40.6059 84.72C40.2379 84.72 39.9139 84.8 39.6339 84.96C39.3619 85.12 39.1459 85.344 38.9859 85.632C38.8339 85.912 38.7579 86.244 38.7579 86.628V86.868C38.7579 87.252 38.8459 87.592 39.0219 87.888C39.1979 88.184 39.4459 88.412 39.7659 88.572C40.0859 88.732 40.4539 88.812 40.8699 88.812C41.2299 88.812 41.5539 88.756 41.8419 88.644C42.1299 88.532 42.3859 88.356 42.6099 88.116L43.4139 89.04C43.1259 89.376 42.7619 89.636 42.3219 89.82C41.8899 89.996 41.3939 90.084 40.8339 90.084ZM50.0825 90L47.7665 86.928L48.9905 86.172L51.8465 90H50.0825ZM45.4865 90V83.592H46.9865V90H45.4865ZM46.5425 87.432V86.184H48.7145V87.432H46.5425ZM49.1345 86.976L47.7305 86.808L50.0825 83.592H51.6905L49.1345 86.976ZM55.6815 90.084C54.9695 90.084 54.3455 89.944 53.8095 89.664C53.2815 89.376 52.8695 88.984 52.5735 88.488C52.2855 87.992 52.1415 87.428 52.1415 86.796C52.1415 86.156 52.2815 85.592 52.5615 85.104C52.8495 84.608 53.2415 84.22 53.7375 83.94C54.2415 83.66 54.8135 83.52 55.4535 83.52C56.0775 83.52 56.6335 83.656 57.1215 83.928C57.6095 84.2 57.9935 84.584 58.2735 85.08C58.5535 85.576 58.6935 86.16 58.6935 86.832C58.6935 86.896 58.6895 86.968 58.6815 87.048C58.6815 87.128 58.6775 87.204 58.6695 87.276H53.3295V86.28H57.8775L57.2895 86.592C57.2975 86.224 57.2215 85.9 57.0615 85.62C56.9015 85.34 56.6815 85.12 56.4015 84.96C56.1295 84.8 55.8135 84.72 55.4535 84.72C55.0855 84.72 54.7615 84.8 54.4815 84.96C54.2095 85.12 53.9935 85.344 53.8335 85.632C53.6815 85.912 53.6055 86.244 53.6055 86.628V86.868C53.6055 87.252 53.6935 87.592 53.8695 87.888C54.0455 88.184 54.2935 88.412 54.6135 88.572C54.9335 88.732 55.3015 88.812 55.7175 88.812C56.0775 88.812 56.4015 88.756 56.6895 88.644C56.9775 88.532 57.2335 88.356 57.4575 88.116L58.2615 89.04C57.9735 89.376 57.6095 89.636 57.1695 89.82C56.7375 89.996 56.2415 90.084 55.6815 90.084ZM63.8862 90.084C63.3662 90.084 62.8902 89.964 62.4582 89.724C62.0342 89.484 61.6942 89.124 61.4382 88.644C61.1902 88.156 61.0662 87.54 61.0662 86.796C61.0662 86.044 61.1862 85.428 61.4262 84.948C61.6742 84.468 62.0102 84.112 62.4342 83.88C62.8582 83.64 63.3422 83.52 63.8862 83.52C64.5182 83.52 65.0742 83.656 65.5542 83.928C66.0422 84.2 66.4262 84.58 66.7062 85.068C66.9942 85.556 67.1382 86.132 67.1382 86.796C67.1382 87.46 66.9942 88.04 66.7062 88.536C66.4262 89.024 66.0422 89.404 65.5542 89.676C65.0742 89.948 64.5182 90.084 63.8862 90.084ZM60.3342 92.328V83.592H61.7622V85.104L61.7142 86.808L61.8342 88.512V92.328H60.3342ZM63.7182 88.8C64.0782 88.8 64.3982 88.72 64.6782 88.56C64.9662 88.4 65.1942 88.168 65.3622 87.864C65.5302 87.56 65.6142 87.204 65.6142 86.796C65.6142 86.38 65.5302 86.024 65.3622 85.728C65.1942 85.424 64.9662 85.192 64.6782 85.032C64.3982 84.872 64.0782 84.792 63.7182 84.792C63.3582 84.792 63.0342 84.872 62.7462 85.032C62.4582 85.192 62.2302 85.424 62.0622 85.728C61.8942 86.024 61.8102 86.38 61.8102 86.796C61.8102 87.204 61.8942 87.56 62.0622 87.864C62.2302 88.168 62.4582 88.4 62.7462 88.56C63.0342 88.72 63.3582 88.8 63.7182 88.8Z" fill="white"/>
<path fill-rule="evenodd" clip-rule="evenodd" d="M45 9.16667C46.1506 9.16667 47.0833 10.0994 47.0833 11.25L47.0853 13.4625C54.6235 14.4034 60.5979 20.3785 61.5377 27.9171L63.75 27.9167C64.9006 27.9167 65.8333 28.8494 65.8333 30C65.8333 31.1506 64.9006 32.0833 63.75 32.0833L61.5375 32.085C60.5968 39.6226 54.6228 45.5966 47.0853 46.5375L47.0833 48.75C47.0833 49.9006 46.1506 50.8333 45 50.8333C43.8494 50.8333 42.9166 49.9006 42.9166 48.75L42.9167 46.5377C35.3783 45.5978 29.4033 39.6234 28.4625 32.0852L26.25 32.0833C25.0994 32.0833 24.1666 31.1506 24.1666 30C24.1666 28.8494 25.0994 27.9167 26.25 27.9167L28.4622 27.9169C29.4022 20.3778 35.3776 14.4023 42.9167 13.4623L42.9166 11.25C42.9166 10.0994 43.8494 9.16667 45 9.16667ZM45 17.5C38.0964 17.5 32.5 23.0964 32.5 30C32.5 36.9036 38.0964 42.5 45 42.5C51.9035 42.5 57.5 36.9036 57.5 30C57.5 23.0964 51.9035 17.5 45 17.5ZM45 21.6667C49.6023 21.6667 53.3333 25.3976 53.3333 30C53.3333 34.6024 49.6023 38.3333 45 38.3333C40.3976 38.3333 36.6666 34.6024 36.6666 30C36.6666 25.3976 40.3976 21.6667 45 21.6667Z" fill="white"/>
</svg>
