<svg width="90" height="90" viewBox="0 0 90 90" fill="none" xmlns="http://www.w3.org/2000/svg">
<path d="M54.6778 10.375H47.43C46.755 10.375 46.1053 10.627 45.6075 11.0805L37.3134 18.6391C37.305 18.6475 37.2966 18.6643 37.2881 18.6727C35.8875 19.9828 35.9128 22.074 37.1109 23.3758C38.1825 24.5432 40.4353 24.8539 41.8444 23.6025C41.8528 23.5941 41.8697 23.5941 41.8781 23.5857L48.6197 17.4381C49.1681 16.9426 50.0288 16.9762 50.5266 17.5221C51.0328 18.068 50.9906 18.9162 50.4422 19.4201L48.24 21.4273L60.525 31.3543C60.7697 31.5559 60.9891 31.7742 61.1916 32.001V15.75L56.5847 11.1645C56.0869 10.6605 55.395 10.375 54.6778 10.375V10.375ZM63.9 15.7668V34.5709C63.9 36.0574 65.1066 37.2584 66.6 37.2584H72V15.7668H63.9ZM67.95 34.5709C67.2075 34.5709 66.6 33.9662 66.6 33.2272C66.6 32.4881 67.2075 31.8834 67.95 31.8834C68.6925 31.8834 69.3 32.4881 69.3 33.2272C69.3 33.9662 68.6925 34.5709 67.95 34.5709ZM18 37.25H23.4C24.8934 37.25 26.1 36.049 26.1 34.5625V15.7668H18V37.25ZM22.05 31.8834C22.7925 31.8834 23.4 32.4881 23.4 33.2272C23.4 33.9662 22.7925 34.5709 22.05 34.5709C21.3075 34.5709 20.7 33.9662 20.7 33.2272C20.7 32.4797 21.3075 31.8834 22.05 31.8834ZM58.8291 33.4455L46.2319 23.2666L43.7006 25.5762C41.1947 27.8522 37.3556 27.6338 35.1197 25.2066C32.85 22.7375 33.0272 18.9162 35.4909 16.6654L42.3928 10.375H35.3222C34.605 10.375 33.9216 10.6605 33.4153 11.1645L28.8 15.75V34.5541H30.3441L37.98 41.4324C40.2919 43.3053 43.6922 42.9525 45.5737 40.6514L45.5906 40.6346L47.1009 41.9363C48.4425 43.0281 50.4253 42.8182 51.5138 41.4828L54.1631 38.241L54.6188 38.6106C55.7747 39.5428 57.4791 39.3748 58.4156 38.2158L59.2172 37.2332C60.1622 36.0742 59.985 34.3861 58.8291 33.4455V33.4455Z" fill="white"/>
<path d="M18.2835 65V55.2H26.9495V65H25.1575V56.292L25.5775 56.74H19.6555L20.0755 56.292V65H18.2835ZM32.8488 65.098C32.0835 65.098 31.4022 64.9347 30.8048 64.608C30.2075 64.272 29.7362 63.8147 29.3908 63.236C29.0455 62.6573 28.8728 61.9993 28.8728 61.262C28.8728 60.5153 29.0455 59.8573 29.3908 59.288C29.7362 58.7093 30.2075 58.2567 30.8048 57.93C31.4022 57.6033 32.0835 57.44 32.8488 57.44C33.6235 57.44 34.3095 57.6033 34.9068 57.93C35.5135 58.2567 35.9848 58.7047 36.3208 59.274C36.6662 59.8433 36.8388 60.506 36.8388 61.262C36.8388 61.9993 36.6662 62.6573 36.3208 63.236C35.9848 63.8147 35.5135 64.272 34.9068 64.608C34.3095 64.9347 33.6235 65.098 32.8488 65.098ZM32.8488 63.6C33.2782 63.6 33.6608 63.5067 33.9968 63.32C34.3328 63.1333 34.5942 62.8627 34.7808 62.508C34.9768 62.1533 35.0748 61.738 35.0748 61.262C35.0748 60.7767 34.9768 60.3613 34.7808 60.016C34.5942 59.6613 34.3328 59.3907 33.9968 59.204C33.6608 59.0173 33.2828 58.924 32.8628 58.924C32.4335 58.924 32.0508 59.0173 31.7148 59.204C31.3882 59.3907 31.1268 59.6613 30.9308 60.016C30.7348 60.3613 30.6368 60.7767 30.6368 61.262C30.6368 61.738 30.7348 62.1533 30.9308 62.508C31.1268 62.8627 31.3882 63.1333 31.7148 63.32C32.0508 63.5067 32.4288 63.6 32.8488 63.6ZM47.2395 65L45.0555 61.416L46.4835 60.534L49.3255 65H47.2395ZM43.6415 62.004V60.548H46.1475V62.004H43.6415ZM46.6515 61.472L44.9995 61.276L47.2675 57.524H49.1295L46.6515 61.472ZM39.3435 65H37.2715L40.0995 60.534L41.5275 61.416L39.3435 65ZM44.1595 65H42.4235V57.524H44.1595V65ZM42.9415 62.004H40.4495V60.548H42.9415V62.004ZM39.9315 61.472L37.4535 57.524H39.3155L41.5695 61.276L39.9315 61.472ZM55.0255 65V63.488L54.9275 63.166V60.52C54.9275 60.0067 54.7735 59.61 54.4655 59.33C54.1575 59.0407 53.6908 58.896 53.0655 58.896C52.6455 58.896 52.2301 58.9613 51.8195 59.092C51.4181 59.2227 51.0775 59.4047 50.7975 59.638L50.1115 58.364C50.5128 58.056 50.9888 57.8273 51.5395 57.678C52.0995 57.5193 52.6781 57.44 53.2755 57.44C54.3581 57.44 55.1935 57.7013 55.7815 58.224C56.3788 58.7373 56.6775 59.5353 56.6775 60.618V65H55.0255ZM52.6735 65.098C52.1135 65.098 51.6235 65.0047 51.2035 64.818C50.7835 64.622 50.4568 64.356 50.2235 64.02C49.9995 63.6747 49.8875 63.2873 49.8875 62.858C49.8875 62.438 49.9855 62.06 50.1815 61.724C50.3868 61.388 50.7181 61.122 51.1755 60.926C51.6328 60.73 52.2395 60.632 52.9955 60.632H55.1655V61.794H53.1215C52.5241 61.794 52.1228 61.892 51.9175 62.088C51.7121 62.2747 51.6095 62.508 51.6095 62.788C51.6095 63.1053 51.7355 63.3573 51.9875 63.544C52.2395 63.7307 52.5895 63.824 53.0375 63.824C53.4668 63.824 53.8495 63.726 54.1855 63.53C54.5308 63.334 54.7781 63.0447 54.9275 62.662L55.2215 63.712C55.0535 64.1507 54.7501 64.4913 54.3115 64.734C53.8821 64.9767 53.3361 65.098 52.6735 65.098ZM60.397 65V58.588L60.803 59.008H57.765V57.524H64.765V59.008H61.741L62.147 58.588V65H60.397ZM69.7864 59.988C70.7477 59.988 71.4804 60.2027 71.9844 60.632C72.4884 61.0613 72.7404 61.668 72.7404 62.452C72.7404 63.264 72.4604 63.8987 71.9004 64.356C71.3404 64.804 70.5517 65.0233 69.5344 65.014L66.0344 65V57.524H67.7844V59.974L69.7864 59.988ZM69.3804 63.726C69.8937 63.7353 70.2857 63.628 70.5564 63.404C70.8271 63.18 70.9624 62.8533 70.9624 62.424C70.9624 61.9947 70.8271 61.6867 70.5564 61.5C70.2951 61.304 69.9031 61.2013 69.3804 61.192L67.7844 61.178V63.712L69.3804 63.726ZM33.196 82.098C32.5893 82.098 32.034 81.958 31.53 81.678C31.0353 81.398 30.6386 80.978 30.34 80.418C30.0506 79.8487 29.906 79.13 29.906 78.262C29.906 77.3847 30.046 76.666 30.326 76.106C30.6153 75.546 31.0073 75.1307 31.502 74.86C31.9966 74.58 32.5613 74.44 33.196 74.44C33.9333 74.44 34.582 74.5987 35.142 74.916C35.7113 75.2333 36.1593 75.6767 36.486 76.246C36.822 76.8153 36.99 77.4873 36.99 78.262C36.99 79.0367 36.822 79.7133 36.486 80.292C36.1593 80.8613 35.7113 81.3047 35.142 81.622C34.582 81.9393 33.9333 82.098 33.196 82.098ZM29.052 84.716V74.524H30.718V76.288L30.662 78.276L30.802 80.264V84.716H29.052ZM33 80.6C33.42 80.6 33.7933 80.5067 34.12 80.32C34.456 80.1333 34.722 79.8627 34.918 79.508C35.114 79.1533 35.212 78.738 35.212 78.262C35.212 77.7767 35.114 77.3613 34.918 77.016C34.722 76.6613 34.456 76.3907 34.12 76.204C33.7933 76.0173 33.42 75.924 33 75.924C32.58 75.924 32.202 76.0173 31.866 76.204C31.53 76.3907 31.264 76.6613 31.068 77.016C30.872 77.3613 30.774 77.7767 30.774 78.262C30.774 78.738 30.872 79.1533 31.068 79.508C31.264 79.8627 31.53 80.1333 31.866 80.32C32.202 80.5067 32.58 80.6 33 80.6ZM39.1986 84.814C38.8346 84.814 38.4706 84.7533 38.1066 84.632C37.7426 84.5107 37.4393 84.3427 37.1966 84.128L37.8966 82.84C38.0739 82.9987 38.2746 83.1247 38.4986 83.218C38.7226 83.3113 38.9513 83.358 39.1846 83.358C39.5019 83.358 39.7586 83.2787 39.9546 83.12C40.1506 82.9613 40.3326 82.6953 40.5006 82.322L40.9346 81.342L41.0746 81.132L43.9026 74.524H45.5826L42.0826 82.602C41.8493 83.162 41.5879 83.6053 41.2986 83.932C41.0186 84.2587 40.7013 84.4873 40.3466 84.618C40.0013 84.7487 39.6186 84.814 39.1986 84.814ZM40.7386 82.266L37.3646 74.524H39.1846L41.9286 80.978L40.7386 82.266ZM52.1601 82L49.4581 78.416L50.8861 77.534L54.2181 82H52.1601ZM46.7981 82V74.524H48.5481V82H46.7981ZM48.0301 79.004V77.548H50.5641V79.004H48.0301ZM51.0541 78.472L49.4161 78.276L52.1601 74.524H54.0361L51.0541 78.472ZM55.7005 84.814C55.3365 84.814 54.9725 84.7533 54.6085 84.632C54.2445 84.5107 53.9412 84.3427 53.6985 84.128L54.3985 82.84C54.5759 82.9987 54.7765 83.1247 55.0005 83.218C55.2245 83.3113 55.4532 83.358 55.6865 83.358C56.0039 83.358 56.2605 83.2787 56.4565 83.12C56.6525 82.9613 56.8345 82.6953 57.0025 82.322L57.4365 81.342L57.5765 81.132L60.4045 74.524H62.0845L58.5845 82.602C58.3512 83.162 58.0899 83.6053 57.8005 83.932C57.5205 84.2587 57.2032 84.4873 56.8485 84.618C56.5032 84.7487 56.1205 84.814 55.7005 84.814ZM57.2405 82.266L53.8665 74.524H55.6865L58.4305 80.978L57.2405 82.266Z" fill="white"/>
</svg>
