<svg width="90" height="90" viewBox="0 0 90 90" fill="none" xmlns="http://www.w3.org/2000/svg">
<path d="M57.8925 53.0449L66.8475 44.0899C67.0561 43.8817 67.2216 43.6345 67.3345 43.3623C67.4474 43.0901 67.5055 42.7983 67.5055 42.5036C67.5055 42.209 67.4474 41.9172 67.3345 41.645C67.2216 41.3728 67.0561 41.1255 66.8475 40.9174L57.0825 31.1524C56.8744 30.9438 56.6271 30.7783 56.3549 30.6654C56.0828 30.5525 55.791 30.4944 55.4963 30.4944C55.2016 30.4944 54.9098 30.5525 54.6376 30.6654C54.3654 30.7783 54.1182 30.9438 53.91 31.1524L44.955 40.1074L36 31.1524C35.5782 30.7339 35.008 30.499 34.4138 30.499C33.8196 30.499 33.2494 30.7339 32.8275 31.1524L23.0625 40.9174C22.854 41.1255 22.6885 41.3728 22.5756 41.645C22.4627 41.9172 22.4045 42.209 22.4045 42.5036C22.4045 42.7983 22.4627 43.0901 22.5756 43.3623C22.6885 43.6345 22.854 43.8817 23.0625 44.0899L32.0175 53.0449L23.0625 61.9999C22.854 62.208 22.6885 62.4553 22.5756 62.7275C22.4627 62.9997 22.4045 63.2915 22.4045 63.5861C22.4045 63.8808 22.4627 64.1726 22.5756 64.4448C22.6885 64.717 22.854 64.9642 23.0625 65.1724L32.8275 74.9374C33.705 75.8149 35.1225 75.8149 36 74.9374L44.955 65.9824L53.91 74.9374C54.36 75.3874 54.9225 75.5899 55.5075 75.5899C56.0925 75.5899 56.655 75.3649 57.105 74.9374L66.87 65.1724C67.0786 64.9642 67.2441 64.717 67.357 64.4448C67.4699 64.1726 67.528 63.8808 67.528 63.5861C67.528 63.2915 67.4699 62.9997 67.357 62.7275C67.2441 62.4553 67.0786 62.208 66.87 61.9999L57.8925 53.0449V53.0449ZM45 46.2499C46.2375 46.2499 47.25 47.2624 47.25 48.4999C47.25 49.7374 46.2375 50.7499 45 50.7499C43.7625 50.7499 42.75 49.7374 42.75 48.4999C42.75 47.2624 43.7625 46.2499 45 46.2499ZM34.4025 50.6599L26.235 42.5149L34.4025 34.3474L42.5475 42.4924L34.4025 50.6599ZM40.5 55.2499C39.2625 55.2499 38.25 54.2374 38.25 52.9999C38.25 51.7624 39.2625 50.7499 40.5 50.7499C41.7375 50.7499 42.75 51.7624 42.75 52.9999C42.75 54.2374 41.7375 55.2499 40.5 55.2499ZM45 59.7499C43.7625 59.7499 42.75 58.7374 42.75 57.4999C42.75 56.2624 43.7625 55.2499 45 55.2499C46.2375 55.2499 47.25 56.2624 47.25 57.4999C47.25 58.7374 46.2375 59.7499 45 59.7499ZM49.5 50.7499C50.7375 50.7499 51.75 51.7624 51.75 52.9999C51.75 54.2374 50.7375 55.2499 49.5 55.2499C48.2625 55.2499 47.25 54.2374 47.25 52.9999C47.25 51.7624 48.2625 50.7499 49.5 50.7499ZM55.485 71.7649L47.3175 63.6199L55.485 55.4524L63.63 63.5974L55.485 71.7649Z" fill="white"/>
<path d="M13.1861 24.14C13.0274 24.14 12.8688 24.126 12.7101 24.098C12.5514 24.07 12.3788 24.0373 12.1921 24L12.3181 22.418C12.4488 22.4553 12.5888 22.474 12.7381 22.474C13.1301 22.474 13.4428 22.3153 13.6761 21.998C13.9094 21.6713 14.0774 21.1953 14.1801 20.57C14.2828 19.9447 14.3528 19.1747 14.3901 18.26L14.5301 14.2H21.7401V24H19.9481V15.292L20.3681 15.74H15.7061L16.0981 15.278L16.0001 18.19C15.9721 19.1607 15.9068 20.0147 15.8041 20.752C15.7014 21.4893 15.5428 22.11 15.3281 22.614C15.1228 23.1087 14.8474 23.4867 14.5021 23.748C14.1568 24.0093 13.7181 24.14 13.1861 24.14ZM27.787 24.098C26.9563 24.098 26.2283 23.9347 25.603 23.608C24.987 23.272 24.5063 22.8147 24.161 22.236C23.825 21.6573 23.657 20.9993 23.657 20.262C23.657 19.5153 23.8203 18.8573 24.147 18.288C24.483 17.7093 24.9403 17.2567 25.519 16.93C26.107 16.6033 26.7743 16.44 27.521 16.44C28.249 16.44 28.8977 16.5987 29.467 16.916C30.0363 17.2333 30.4843 17.6813 30.811 18.26C31.1377 18.8387 31.301 19.52 31.301 20.304C31.301 20.3787 31.2963 20.4627 31.287 20.556C31.287 20.6493 31.2823 20.738 31.273 20.822H25.043V19.66H30.349L29.663 20.024C29.6723 19.5947 29.5837 19.2167 29.397 18.89C29.2103 18.5633 28.9537 18.3067 28.627 18.12C28.3097 17.9333 27.941 17.84 27.521 17.84C27.0917 17.84 26.7137 17.9333 26.387 18.12C26.0697 18.3067 25.8177 18.568 25.631 18.904C25.4537 19.2307 25.365 19.618 25.365 20.066V20.346C25.365 20.794 25.4677 21.1907 25.673 21.536C25.8783 21.8813 26.1677 22.1473 26.541 22.334C26.9143 22.5207 27.3437 22.614 27.829 22.614C28.249 22.614 28.627 22.5487 28.963 22.418C29.299 22.2873 29.5977 22.082 29.859 21.802L30.797 22.88C30.461 23.272 30.0363 23.5753 29.523 23.79C29.019 23.9953 28.4403 24.098 27.787 24.098ZM37.9331 21.046C37.5784 21.214 37.2004 21.354 36.7991 21.466C36.4071 21.5687 35.9917 21.62 35.5531 21.62C34.6104 21.62 33.8777 21.4007 33.3551 20.962C32.8324 20.5233 32.5711 19.842 32.5711 18.918V16.524H34.3211V18.806C34.3211 19.3007 34.4611 19.66 34.7411 19.884C35.0304 20.108 35.4271 20.22 35.9311 20.22C36.2671 20.22 36.6031 20.178 36.9391 20.094C37.2751 20.01 37.6064 19.8933 37.9331 19.744V21.046ZM37.8071 24V16.524H39.5571V24H37.8071ZM45.3964 24.098C44.5657 24.098 43.8377 23.9347 43.2124 23.608C42.5964 23.272 42.1157 22.8147 41.7704 22.236C41.4344 21.6573 41.2664 20.9993 41.2664 20.262C41.2664 19.5153 41.4297 18.8573 41.7564 18.288C42.0924 17.7093 42.5497 17.2567 43.1284 16.93C43.7164 16.6033 44.3837 16.44 45.1304 16.44C45.8584 16.44 46.507 16.5987 47.0764 16.916C47.6457 17.2333 48.0937 17.6813 48.4204 18.26C48.747 18.8387 48.9104 19.52 48.9104 20.304C48.9104 20.3787 48.9057 20.4627 48.8964 20.556C48.8964 20.6493 48.8917 20.738 48.8824 20.822H42.6524V19.66H47.9584L47.2724 20.024C47.2817 19.5947 47.193 19.2167 47.0064 18.89C46.8197 18.5633 46.563 18.3067 46.2364 18.12C45.919 17.9333 45.5504 17.84 45.1304 17.84C44.701 17.84 44.323 17.9333 43.9964 18.12C43.679 18.3067 43.427 18.568 43.2404 18.904C43.063 19.2307 42.9744 19.618 42.9744 20.066V20.346C42.9744 20.794 43.077 21.1907 43.2824 21.536C43.4877 21.8813 43.777 22.1473 44.1504 22.334C44.5237 22.5207 44.953 22.614 45.4384 22.614C45.8584 22.614 46.2364 22.5487 46.5724 22.418C46.9084 22.2873 47.207 22.082 47.4684 21.802L48.4064 22.88C48.0704 23.272 47.6457 23.5753 47.1324 23.79C46.6284 23.9953 46.0497 24.098 45.3964 24.098ZM50.8244 24V16.524H52.5744V19.562H56.3404V16.524H58.0904V24H56.3404V21.046H52.5744V24H50.8244ZM60.4358 24V16.524H62.1858V21.452L66.3158 16.524H67.9118V24H66.1618V19.072L62.0458 24H60.4358ZM73.7518 24.098C72.9212 24.098 72.1932 23.9347 71.5678 23.608C70.9518 23.272 70.4712 22.8147 70.1258 22.236C69.7898 21.6573 69.6218 20.9993 69.6218 20.262C69.6218 19.5153 69.7852 18.8573 70.1118 18.288C70.4478 17.7093 70.9052 17.2567 71.4838 16.93C72.0718 16.6033 72.7392 16.44 73.4858 16.44C74.2138 16.44 74.8625 16.5987 75.4318 16.916C76.0012 17.2333 76.4492 17.6813 76.7758 18.26C77.1025 18.8387 77.2658 19.52 77.2658 20.304C77.2658 20.3787 77.2612 20.4627 77.2518 20.556C77.2518 20.6493 77.2472 20.738 77.2378 20.822H71.0078V19.66H76.3138L75.6278 20.024C75.6372 19.5947 75.5485 19.2167 75.3618 18.89C75.1752 18.5633 74.9185 18.3067 74.5918 18.12C74.2745 17.9333 73.9058 17.84 73.4858 17.84C73.0565 17.84 72.6785 17.9333 72.3518 18.12C72.0345 18.3067 71.7825 18.568 71.5958 18.904C71.4185 19.2307 71.3298 19.618 71.3298 20.066V20.346C71.3298 20.794 71.4325 21.1907 71.6378 21.536C71.8432 21.8813 72.1325 22.1473 72.5058 22.334C72.8792 22.5207 73.3085 22.614 73.7938 22.614C74.2138 22.614 74.5918 22.5487 74.9278 22.418C75.2638 22.2873 75.5625 22.082 75.8238 21.802L76.7618 22.88C76.4258 23.272 76.0012 23.5753 75.4878 23.79C74.9838 23.9953 74.4052 24.098 73.7518 24.098Z" fill="white"/>
</svg>