<svg width="90" height="90" viewBox="0 0 90 90" fill="none" xmlns="http://www.w3.org/2000/svg">
<path d="M20.0695 45.4812H27.7202L30.5964 37.9604C30.7868 37.4624 31.2605 37.1342 31.7885 37.1342H51.8974C52.3475 37.1342 52.7643 37.3735 52.9949 37.7641L57.0812 44.6865L65.2978 36.3786C65.5375 36.1362 65.8626 36 66.2015 36H68.9419C69.6478 36 70.22 36.5786 70.22 37.2923C70.22 38.006 69.6478 38.5846 68.9419 38.5846H66.731L59.9104 45.481H67.3457C67.9785 45.481 68.5163 45.9495 68.6096 46.5824L70.206 57.3884C70.2609 57.7604 70.1529 58.1379 69.9102 58.4229C69.6674 58.7077 69.3139 58.8716 68.9419 58.8716H64.2198C63.1578 61.1958 60.8203 62.7488 58.2356 62.7488C55.6518 62.7488 53.3155 61.1956 52.2543 58.8716H35.8194C34.7579 61.1958 32.4208 62.7488 29.8365 62.7488C27.2529 62.7488 24.9167 61.1956 23.8556 58.8716H20.0693C19.3635 58.8716 18.7913 58.293 18.7913 57.5793V46.7733C18.7914 46.0598 19.3637 45.4812 20.0695 45.4812ZM21.3476 56.2872H24.7395C25.309 56.2872 25.8099 56.6681 25.9675 57.2214C26.4615 58.9541 28.0525 60.1644 29.8365 60.1644C31.6213 60.1644 33.2132 58.9541 33.7078 57.2212C33.8656 56.6681 34.3664 56.2873 34.9358 56.2873H53.1382C53.7077 56.2873 54.2085 56.6683 54.3664 57.2216C54.8604 58.9544 56.4515 60.1646 58.2356 60.1646C60.021 60.1646 61.6134 58.9543 62.1082 57.2212C62.2662 56.6681 62.7669 56.2875 63.3362 56.2875H67.4586L66.2443 48.0661H56.8249C56.3749 48.0661 55.958 47.8268 55.7275 47.4361L51.172 39.7191H32.6645L29.7883 47.2399C29.598 47.7379 29.1243 48.0661 28.5963 48.0661H21.3476V56.2872Z" fill="white"/>
<path d="M30.4982 24L27.1802 19.226L28.6502 18.316L32.5562 24H30.4982ZM24.0162 24V14.2H25.8082V24H24.0162ZM25.2622 19.87V18.302H28.5662V19.87H25.2622ZM28.8182 19.31L27.1522 19.086L30.4982 14.2H32.4302L28.8182 19.31ZM38.2273 24V22.488L38.1293 22.166V19.52C38.1293 19.0067 37.9753 18.61 37.6673 18.33C37.3593 18.0407 36.8926 17.896 36.2673 17.896C35.8473 17.896 35.4319 17.9613 35.0213 18.092C34.6199 18.2227 34.2793 18.4047 33.9993 18.638L33.3133 17.364C33.7146 17.056 34.1906 16.8273 34.7413 16.678C35.3013 16.5193 35.8799 16.44 36.4773 16.44C37.5599 16.44 38.3953 16.7013 38.9833 17.224C39.5806 17.7373 39.8793 18.5353 39.8793 19.618V24H38.2273ZM35.8753 24.098C35.3153 24.098 34.8253 24.0047 34.4053 23.818C33.9853 23.622 33.6586 23.356 33.4253 23.02C33.2013 22.6747 33.0893 22.2873 33.0893 21.858C33.0893 21.438 33.1873 21.06 33.3833 20.724C33.5886 20.388 33.9199 20.122 34.3773 19.926C34.8346 19.73 35.4413 19.632 36.1973 19.632H38.3673V20.794H36.3233C35.7259 20.794 35.3246 20.892 35.1193 21.088C34.9139 21.2747 34.8113 21.508 34.8113 21.788C34.8113 22.1053 34.9373 22.3573 35.1893 22.544C35.4413 22.7307 35.7913 22.824 36.2393 22.824C36.6686 22.824 37.0513 22.726 37.3873 22.53C37.7326 22.334 37.9799 22.0447 38.1293 21.662L38.4233 22.712C38.2553 23.1507 37.9519 23.4913 37.5133 23.734C37.0839 23.9767 36.5379 24.098 35.8753 24.098ZM42.0448 24V16.524H49.2128V24H47.4768V17.602L47.8828 18.008H43.3888L43.7948 17.602V24H42.0448ZM54.9061 24.098C54.1407 24.098 53.4594 23.9347 52.8621 23.608C52.2647 23.272 51.7934 22.8147 51.4481 22.236C51.1027 21.6573 50.9301 20.9993 50.9301 20.262C50.9301 19.5153 51.1027 18.8573 51.4481 18.288C51.7934 17.7093 52.2647 17.2567 52.8621 16.93C53.4594 16.6033 54.1407 16.44 54.9061 16.44C55.6807 16.44 56.3667 16.6033 56.9641 16.93C57.5707 17.2567 58.0421 17.7047 58.3781 18.274C58.7234 18.8433 58.8961 19.506 58.8961 20.262C58.8961 20.9993 58.7234 21.6573 58.3781 22.236C58.0421 22.8147 57.5707 23.272 56.9641 23.608C56.3667 23.9347 55.6807 24.098 54.9061 24.098ZM54.9061 22.6C55.3354 22.6 55.7181 22.5067 56.0541 22.32C56.3901 22.1333 56.6514 21.8627 56.8381 21.508C57.0341 21.1533 57.1321 20.738 57.1321 20.262C57.1321 19.7767 57.0341 19.3613 56.8381 19.016C56.6514 18.6613 56.3901 18.3907 56.0541 18.204C55.7181 18.0173 55.3401 17.924 54.9201 17.924C54.4907 17.924 54.1081 18.0173 53.7721 18.204C53.4454 18.3907 53.1841 18.6613 52.9881 19.016C52.7921 19.3613 52.6941 19.7767 52.6941 20.262C52.6941 20.738 52.7921 21.1533 52.9881 21.508C53.1841 21.8627 53.4454 22.1333 53.7721 22.32C54.1081 22.5067 54.4861 22.6 54.9061 22.6ZM61.9054 24V17.588L62.3114 18.008H59.2734V16.524H66.2734V18.008H63.2494L63.6554 17.588V24H61.9054Z" fill="white"/>
</svg>
