<svg width="130" height="90" viewBox="0 0 130 90" fill="none" xmlns="http://www.w3.org/2000/svg">
<path d="M2.59303 77V67.2H6.97503C8.07637 67.2 8.93503 67.4193 9.55103 67.858C10.167 68.2873 10.475 68.908 10.475 69.72C10.475 70.5227 10.181 71.1433 9.59303 71.582C9.00503 72.0113 8.23036 72.226 7.26903 72.226L7.52103 71.722C8.61303 71.722 9.4577 71.9413 10.055 72.38C10.6524 72.8187 10.951 73.4533 10.951 74.284C10.951 75.1333 10.6384 75.8007 10.013 76.286C9.3877 76.762 8.4637 77 7.24103 77H2.59303ZM4.38503 75.6H7.18503C7.8197 75.6 8.30037 75.4833 8.62703 75.25C8.9537 75.0073 9.11703 74.6387 9.11703 74.144C9.11703 73.6493 8.9537 73.29 8.62703 73.066C8.30037 72.8327 7.8197 72.716 7.18503 72.716H4.38503V75.6ZM4.38503 71.386H6.82103C7.40903 71.386 7.85703 71.2693 8.16503 71.036C8.47303 70.7933 8.62703 70.448 8.62703 70C8.62703 69.5333 8.47303 69.1833 8.16503 68.95C7.85703 68.7167 7.40903 68.6 6.82103 68.6H4.38503V71.386ZM15.1943 77.126C15.885 77.126 16.4963 77.028 17.0283 76.832C17.5697 76.636 17.9943 76.3653 18.3023 76.02C18.6103 75.6653 18.7643 75.2593 18.7643 74.802C18.7643 74.2327 18.5263 73.7847 18.0503 73.458C17.5743 73.122 16.921 72.954 16.0903 72.954L16.0343 73.332C16.5197 73.332 16.949 73.2527 17.3223 73.094C17.705 72.9353 18.0037 72.716 18.2183 72.436C18.4423 72.1467 18.5543 71.8247 18.5543 71.47C18.5543 71.0407 18.4003 70.6673 18.0923 70.35C17.7843 70.0327 17.3643 69.79 16.8323 69.622C16.3003 69.454 15.6937 69.384 15.0123 69.412C14.5643 69.4213 14.1117 69.4867 13.6543 69.608C13.2063 69.72 12.7443 69.8833 12.2683 70.098L12.7163 71.386C13.127 71.2087 13.5283 71.0733 13.9203 70.98C14.3217 70.8867 14.709 70.84 15.0823 70.84C15.437 70.84 15.7403 70.8773 15.9923 70.952C16.2443 71.0173 16.4357 71.12 16.5663 71.26C16.7063 71.3907 16.7763 71.5447 16.7763 71.722C16.7763 71.8993 16.7203 72.0533 16.6083 72.184C16.4963 72.3147 16.333 72.4127 16.1183 72.478C15.913 72.5433 15.661 72.576 15.3623 72.576H14.0603V73.752H15.5023C15.9783 73.752 16.3423 73.8313 16.5943 73.99C16.8557 74.1393 16.9863 74.3633 16.9863 74.662C16.9863 74.8673 16.907 75.0493 16.7483 75.208C16.599 75.3667 16.3843 75.488 16.1043 75.572C15.8243 75.6467 15.4883 75.684 15.0963 75.684C14.639 75.684 14.1817 75.628 13.7243 75.516C13.267 75.404 12.8563 75.2453 12.4923 75.04L12.0023 76.342C12.4503 76.594 12.9497 76.79 13.5003 76.93C14.0603 77.0607 14.625 77.126 15.1943 77.126ZM25.1026 77V75.488L25.0046 75.166V72.52C25.0046 72.0067 24.8506 71.61 24.5426 71.33C24.2346 71.0407 23.768 70.896 23.1426 70.896C22.7226 70.896 22.3073 70.9613 21.8966 71.092C21.4953 71.2227 21.1546 71.4047 20.8746 71.638L20.1886 70.364C20.59 70.056 21.066 69.8273 21.6166 69.678C22.1766 69.5193 22.7553 69.44 23.3526 69.44C24.4353 69.44 25.2706 69.7013 25.8586 70.224C26.456 70.7373 26.7546 71.5353 26.7546 72.618V77H25.1026ZM22.7506 77.098C22.1906 77.098 21.7006 77.0047 21.2806 76.818C20.8606 76.622 20.534 76.356 20.3006 76.02C20.0766 75.6747 19.9646 75.2873 19.9646 74.858C19.9646 74.438 20.0626 74.06 20.2586 73.724C20.464 73.388 20.7953 73.122 21.2526 72.926C21.71 72.73 22.3166 72.632 23.0726 72.632H25.2426V73.794H23.1986C22.6013 73.794 22.2 73.892 21.9946 74.088C21.7893 74.2747 21.6866 74.508 21.6866 74.788C21.6866 75.1053 21.8126 75.3573 22.0646 75.544C22.3166 75.7307 22.6666 75.824 23.1146 75.824C23.544 75.824 23.9266 75.726 24.2626 75.53C24.608 75.334 24.8553 75.0447 25.0046 74.662L25.2986 75.712C25.1306 76.1507 24.8273 76.4913 24.3886 76.734C23.9593 76.9767 23.4133 77.098 22.7506 77.098ZM28.9201 77V69.524H30.6701V74.452L34.8001 69.524H36.3961V77H34.6461V72.072L30.5301 77H28.9201ZM38.7502 77V69.524H40.5842L43.5942 74.83H42.8662L46.0302 69.524H47.6682L47.6822 77H46.1002V71.4L46.3802 71.582L43.5802 76.216H42.8242L40.0102 71.456L40.3462 71.372V77H38.7502ZM53.3615 77.098C52.5962 77.098 51.9148 76.9347 51.3175 76.608C50.7202 76.272 50.2488 75.8147 49.9035 75.236C49.5582 74.6573 49.3855 73.9993 49.3855 73.262C49.3855 72.5153 49.5582 71.8573 49.9035 71.288C50.2488 70.7093 50.7202 70.2567 51.3175 69.93C51.9148 69.6033 52.5962 69.44 53.3615 69.44C54.1362 69.44 54.8222 69.6033 55.4195 69.93C56.0262 70.2567 56.4975 70.7047 56.8335 71.274C57.1788 71.8433 57.3515 72.506 57.3515 73.262C57.3515 73.9993 57.1788 74.6573 56.8335 75.236C56.4975 75.8147 56.0262 76.272 55.4195 76.608C54.8222 76.9347 54.1362 77.098 53.3615 77.098ZM53.3615 75.6C53.7908 75.6 54.1735 75.5067 54.5095 75.32C54.8455 75.1333 55.1068 74.8627 55.2935 74.508C55.4895 74.1533 55.5875 73.738 55.5875 73.262C55.5875 72.7767 55.4895 72.3613 55.2935 72.016C55.1068 71.6613 54.8455 71.3907 54.5095 71.204C54.1735 71.0173 53.7955 70.924 53.3755 70.924C52.9462 70.924 52.5635 71.0173 52.2275 71.204C51.9008 71.3907 51.6395 71.6613 51.4435 72.016C51.2475 72.3613 51.1495 72.7767 51.1495 73.262C51.1495 73.738 51.2475 74.1533 51.4435 74.508C51.6395 74.8627 51.9008 75.1333 52.2275 75.32C52.5635 75.5067 52.9415 75.6 53.3615 75.6ZM64.1223 76.188V71.008H61.2523L61.2103 72.212C61.1916 72.6413 61.1636 73.0567 61.1263 73.458C61.0889 73.85 61.0283 74.214 60.9443 74.55C60.8603 74.8767 60.7389 75.1473 60.5803 75.362C60.4216 75.5767 60.2116 75.7167 59.9503 75.782L58.2143 75.516C58.4943 75.516 58.7183 75.4273 58.8863 75.25C59.0636 75.0633 59.1989 74.8113 59.2923 74.494C59.3949 74.1673 59.4696 73.7987 59.5163 73.388C59.5629 72.968 59.5956 72.534 59.6143 72.086L59.7123 69.524H65.8723V76.188H64.1223ZM57.9483 78.666V75.516H66.9783V78.666H65.3403V77H59.5723V78.666H57.9483ZM72.0272 77.098C71.1966 77.098 70.4686 76.9347 69.8432 76.608C69.2272 76.272 68.7466 75.8147 68.4012 75.236C68.0652 74.6573 67.8972 73.9993 67.8972 73.262C67.8972 72.5153 68.0606 71.8573 68.3872 71.288C68.7232 70.7093 69.1806 70.2567 69.7592 69.93C70.3472 69.6033 71.0146 69.44 71.7612 69.44C72.4892 69.44 73.1379 69.5987 73.7072 69.916C74.2766 70.2333 74.7246 70.6813 75.0512 71.26C75.3779 71.8387 75.5412 72.52 75.5412 73.304C75.5412 73.3787 75.5366 73.4627 75.5272 73.556C75.5272 73.6493 75.5226 73.738 75.5132 73.822H69.2832V72.66H74.5892L73.9032 73.024C73.9126 72.5947 73.8239 72.2167 73.6372 71.89C73.4506 71.5633 73.1939 71.3067 72.8672 71.12C72.5499 70.9333 72.1812 70.84 71.7612 70.84C71.3319 70.84 70.9539 70.9333 70.6272 71.12C70.3099 71.3067 70.0579 71.568 69.8712 71.904C69.6939 72.2307 69.6052 72.618 69.6052 73.066V73.346C69.6052 73.794 69.7079 74.1907 69.9132 74.536C70.1186 74.8813 70.4079 75.1473 70.7812 75.334C71.1546 75.5207 71.5839 75.614 72.0692 75.614C72.4892 75.614 72.8672 75.5487 73.2032 75.418C73.5392 75.2873 73.8379 75.082 74.0992 74.802L75.0372 75.88C74.7012 76.272 74.2766 76.5753 73.7632 76.79C73.2592 76.9953 72.6806 77.098 72.0272 77.098ZM77.4553 77V69.524H79.2053V74.452L83.3353 69.524H84.9313V77H83.1813V72.072L79.0653 77H77.4553ZM81.0813 68.642C80.3346 68.642 79.7606 68.4693 79.3593 68.124C78.958 67.7693 78.7526 67.256 78.7433 66.584H79.9053C79.9146 66.92 80.0173 67.186 80.2133 67.382C80.4186 67.578 80.7033 67.676 81.0673 67.676C81.422 67.676 81.702 67.578 81.9073 67.382C82.122 67.186 82.234 66.92 82.2433 66.584H83.4333C83.424 67.256 83.214 67.7693 82.8033 68.124C82.402 68.4693 81.828 68.642 81.0813 68.642ZM90.6874 77.098C89.9034 77.098 89.2034 76.9347 88.5874 76.608C87.9807 76.272 87.5047 75.8147 87.1594 75.236C86.814 74.6573 86.6414 73.9993 86.6414 73.262C86.6414 72.5153 86.814 71.8573 87.1594 71.288C87.5047 70.7093 87.9807 70.2567 88.5874 69.93C89.2034 69.6033 89.9034 69.44 90.6874 69.44C91.4154 69.44 92.0547 69.5893 92.6054 69.888C93.1654 70.1773 93.59 70.6067 93.8794 71.176L92.5354 71.96C92.3114 71.6053 92.036 71.344 91.7094 71.176C91.392 71.008 91.0467 70.924 90.6734 70.924C90.244 70.924 89.8567 71.0173 89.5114 71.204C89.166 71.3907 88.8954 71.6613 88.6994 72.016C88.5034 72.3613 88.4054 72.7767 88.4054 73.262C88.4054 73.7473 88.5034 74.1673 88.6994 74.522C88.8954 74.8673 89.166 75.1333 89.5114 75.32C89.8567 75.5067 90.244 75.6 90.6734 75.6C91.0467 75.6 91.392 75.516 91.7094 75.348C92.036 75.18 92.3114 74.9187 92.5354 74.564L93.8794 75.348C93.59 75.908 93.1654 76.342 92.6054 76.65C92.0547 76.9487 91.4154 77.098 90.6874 77.098ZM96.9195 77V70.588L97.3255 71.008H94.2875V69.524H101.287V71.008H98.2635L98.6695 70.588V77H96.9195ZM102.557 77V69.524H106.211C107.116 69.524 107.826 69.692 108.339 70.028C108.862 70.364 109.123 70.84 109.123 71.456C109.123 72.0627 108.88 72.5387 108.395 72.884C107.91 73.22 107.266 73.388 106.463 73.388L106.673 72.954C107.578 72.954 108.25 73.122 108.689 73.458C109.137 73.7847 109.361 74.2653 109.361 74.9C109.361 75.5627 109.114 76.0807 108.619 76.454C108.124 76.818 107.373 77 106.365 77H102.557ZM104.223 75.726H106.225C106.701 75.726 107.06 75.6513 107.303 75.502C107.546 75.3433 107.667 75.1053 107.667 74.788C107.667 74.452 107.555 74.2047 107.331 74.046C107.107 73.8873 106.757 73.808 106.281 73.808H104.223V75.726ZM104.223 72.646H106.057C106.505 72.646 106.841 72.5667 107.065 72.408C107.298 72.24 107.415 72.0067 107.415 71.708C107.415 71.4 107.298 71.1713 107.065 71.022C106.841 70.8727 106.505 70.798 106.057 70.798H104.223V72.646ZM111.225 77V69.524H112.975V74.452L117.105 69.524H118.701V77H116.951V72.072L112.835 77H111.225ZM124.541 77.098C123.71 77.098 122.982 76.9347 122.357 76.608C121.741 76.272 121.26 75.8147 120.915 75.236C120.579 74.6573 120.411 73.9993 120.411 73.262C120.411 72.5153 120.574 71.8573 120.901 71.288C121.237 70.7093 121.694 70.2567 122.273 69.93C122.861 69.6033 123.528 69.44 124.275 69.44C125.003 69.44 125.652 69.5987 126.221 69.916C126.79 70.2333 127.238 70.6813 127.565 71.26C127.892 71.8387 128.055 72.52 128.055 73.304C128.055 73.3787 128.05 73.4627 128.041 73.556C128.041 73.6493 128.036 73.738 128.027 73.822H121.797V72.66H127.103L126.417 73.024C126.426 72.5947 126.338 72.2167 126.151 71.89C125.964 71.5633 125.708 71.3067 125.381 71.12C125.064 70.9333 124.695 70.84 124.275 70.84C123.846 70.84 123.468 70.9333 123.141 71.12C122.824 71.3067 122.572 71.568 122.385 71.904C122.208 72.2307 122.119 72.618 122.119 73.066V73.346C122.119 73.794 122.222 74.1907 122.427 74.536C122.632 74.8813 122.922 75.1473 123.295 75.334C123.668 75.5207 124.098 75.614 124.583 75.614C125.003 75.614 125.381 75.5487 125.717 75.418C126.053 75.2873 126.352 75.082 126.613 74.802L127.551 75.88C127.215 76.272 126.79 76.5753 126.277 76.79C125.773 76.9953 125.194 77.098 124.541 77.098Z" fill="white"/>
<path d="M62.0625 58.125C62.0625 58.125 58.625 58.125 58.625 54.6875C58.625 51.25 62.0625 40.9375 75.8125 40.9375C89.5625 40.9375 93 51.25 93 54.6875C93 58.125 89.5625 58.125 89.5625 58.125H62.0625ZM75.8125 37.5C78.5475 37.5 81.1706 36.4135 83.1045 34.4795C85.0385 32.5456 86.125 29.9225 86.125 27.1875C86.125 24.4525 85.0385 21.8294 83.1045 19.8955C81.1706 17.9615 78.5475 16.875 75.8125 16.875C73.0775 16.875 70.4544 17.9615 68.5205 19.8955C66.5865 21.8294 65.5 24.4525 65.5 27.1875C65.5 29.9225 66.5865 32.5456 68.5205 34.4795C70.4544 36.4135 73.0775 37.5 75.8125 37.5V37.5Z" fill="white"/>
<path fill-rule="evenodd" clip-rule="evenodd" d="M55.93 58.125C55.4204 57.0519 55.1663 55.8753 55.1875 54.6875C55.1875 50.0297 57.525 45.2344 61.8425 41.9C59.6875 41.236 57.4423 40.9113 55.1875 40.9375C41.4375 40.9375 38 51.25 38 54.6875C38 58.125 41.4375 58.125 41.4375 58.125H55.93Z" fill="white"/>
<path d="M53.4688 37.5C55.748 37.5 57.9338 36.5946 59.5454 34.9829C61.1571 33.3713 62.0625 31.1855 62.0625 28.9062C62.0625 26.627 61.1571 24.4412 59.5454 22.8296C57.9338 21.2179 55.748 20.3125 53.4688 20.3125C51.1895 20.3125 49.0037 21.2179 47.3921 22.8296C45.7804 24.4412 44.875 26.627 44.875 28.9062C44.875 31.1855 45.7804 33.3713 47.3921 34.9829C49.0037 36.5946 51.1895 37.5 53.4688 37.5V37.5Z" fill="white"/>
</svg>