<svg width="90" height="90" viewBox="0 0 90 90" fill="none" xmlns="http://www.w3.org/2000/svg">
<path d="M20.4365 77V67.2H24.4685C25.3365 67.2 26.0785 67.34 26.6945 67.62C27.3198 67.9 27.8005 68.3013 28.1365 68.824C28.4725 69.3467 28.6405 69.9673 28.6405 70.686C28.6405 71.4047 28.4725 72.0253 28.1365 72.548C27.8005 73.0707 27.3198 73.472 26.6945 73.752C26.0785 74.032 25.3365 74.172 24.4685 74.172H21.4445L22.2565 73.318V77H20.4365ZM22.2565 73.514L21.4445 72.632H24.3845C25.1871 72.632 25.7891 72.464 26.1905 72.128C26.6011 71.7827 26.8065 71.302 26.8065 70.686C26.8065 70.0607 26.6011 69.58 26.1905 69.244C25.7891 68.908 25.1871 68.74 24.3845 68.74H21.4445L22.2565 67.844V73.514ZM34.6339 77V75.488L34.5359 75.166V72.52C34.5359 72.0067 34.3819 71.61 34.0739 71.33C33.7659 71.0407 33.2992 70.896 32.6739 70.896C32.2539 70.896 31.8385 70.9613 31.4279 71.092C31.0265 71.2227 30.6859 71.4047 30.4059 71.638L29.7199 70.364C30.1212 70.056 30.5972 69.8273 31.1479 69.678C31.7079 69.5193 32.2865 69.44 32.8839 69.44C33.9665 69.44 34.8019 69.7013 35.3899 70.224C35.9872 70.7373 36.2859 71.5353 36.2859 72.618V77H34.6339ZM32.2819 77.098C31.7219 77.098 31.2319 77.0047 30.8119 76.818C30.3919 76.622 30.0652 76.356 29.8319 76.02C29.6079 75.6747 29.4959 75.2873 29.4959 74.858C29.4959 74.438 29.5939 74.06 29.7899 73.724C29.9952 73.388 30.3265 73.122 30.7839 72.926C31.2412 72.73 31.8479 72.632 32.6039 72.632H34.7739V73.794H32.7299C32.1325 73.794 31.7312 73.892 31.5259 74.088C31.3205 74.2747 31.2179 74.508 31.2179 74.788C31.2179 75.1053 31.3439 75.3573 31.5959 75.544C31.8479 75.7307 32.1979 75.824 32.6459 75.824C33.0752 75.824 33.4579 75.726 33.7939 75.53C34.1392 75.334 34.3865 75.0447 34.5359 74.662L34.8299 75.712C34.6619 76.1507 34.3585 76.4913 33.9199 76.734C33.4905 76.9767 32.9445 77.098 32.2819 77.098ZM42.0214 77.14C41.4054 77.14 40.8547 77.0467 40.3694 76.86C39.8841 76.6733 39.4641 76.3887 39.1094 76.006C38.7641 75.614 38.4981 75.1193 38.3114 74.522C38.1247 73.9247 38.0314 73.2153 38.0314 72.394C38.0314 71.7967 38.0827 71.2507 38.1854 70.756C38.2881 70.2613 38.4421 69.818 38.6474 69.426C38.8527 69.0247 39.1094 68.67 39.4174 68.362C39.7347 68.054 40.1034 67.7973 40.5234 67.592C40.9434 67.3867 41.4194 67.228 41.9514 67.116L45.4234 66.374L45.6754 67.942L42.5254 68.586C42.3481 68.6233 42.1334 68.6793 41.8814 68.754C41.6387 68.8193 41.3867 68.922 41.1254 69.062C40.8734 69.1927 40.6354 69.384 40.4114 69.636C40.1967 69.8787 40.0194 70.196 39.8794 70.588C39.7487 70.9707 39.6834 71.4513 39.6834 72.03C39.6834 72.2073 39.6881 72.3427 39.6974 72.436C39.7161 72.52 39.7301 72.6133 39.7394 72.716C39.7581 72.8093 39.7674 72.9493 39.7674 73.136L39.1094 72.45C39.2961 71.974 39.5527 71.568 39.8794 71.232C40.2154 70.8867 40.6027 70.6253 41.0414 70.448C41.4894 70.2613 41.9747 70.168 42.4974 70.168C43.1974 70.168 43.8181 70.3127 44.3594 70.602C44.9007 70.8913 45.3254 71.2973 45.6334 71.82C45.9414 72.3427 46.0954 72.9353 46.0954 73.598C46.0954 74.2887 45.9274 74.9 45.5914 75.432C45.2554 75.964 44.7794 76.384 44.1634 76.692C43.5567 76.9907 42.8427 77.14 42.0214 77.14ZM42.1614 75.726C42.5814 75.726 42.9501 75.6373 43.2674 75.46C43.5941 75.2733 43.8461 75.0213 44.0234 74.704C44.2101 74.3867 44.3034 74.032 44.3034 73.64C44.3034 73.248 44.2101 72.9073 44.0234 72.618C43.8461 72.3193 43.5941 72.0813 43.2674 71.904C42.9501 71.7267 42.5721 71.638 42.1334 71.638C41.7134 71.638 41.3354 71.722 40.9994 71.89C40.6727 72.058 40.4161 72.2913 40.2294 72.59C40.0521 72.8793 39.9634 73.2153 39.9634 73.598C39.9634 73.99 40.0567 74.3493 40.2434 74.676C40.4301 75.0027 40.6867 75.2593 41.0134 75.446C41.3494 75.6327 41.7321 75.726 42.1614 75.726ZM51.1213 77.098C50.3559 77.098 49.6746 76.9347 49.0773 76.608C48.4799 76.272 48.0086 75.8147 47.6633 75.236C47.3179 74.6573 47.1453 73.9993 47.1453 73.262C47.1453 72.5153 47.3179 71.8573 47.6633 71.288C48.0086 70.7093 48.4799 70.2567 49.0773 69.93C49.6746 69.6033 50.3559 69.44 51.1213 69.44C51.8959 69.44 52.5819 69.6033 53.1793 69.93C53.7859 70.2567 54.2573 70.7047 54.5933 71.274C54.9386 71.8433 55.1113 72.506 55.1113 73.262C55.1113 73.9993 54.9386 74.6573 54.5933 75.236C54.2573 75.8147 53.7859 76.272 53.1793 76.608C52.5819 76.9347 51.8959 77.098 51.1213 77.098ZM51.1213 75.6C51.5506 75.6 51.9333 75.5067 52.2693 75.32C52.6053 75.1333 52.8666 74.8627 53.0533 74.508C53.2493 74.1533 53.3473 73.738 53.3473 73.262C53.3473 72.7767 53.2493 72.3613 53.0533 72.016C52.8666 71.6613 52.6053 71.3907 52.2693 71.204C51.9333 71.0173 51.5553 70.924 51.1353 70.924C50.7059 70.924 50.3233 71.0173 49.9873 71.204C49.6606 71.3907 49.3993 71.6613 49.2033 72.016C49.0073 72.3613 48.9093 72.7767 48.9093 73.262C48.9093 73.738 49.0073 74.1533 49.2033 74.508C49.3993 74.8627 49.6606 75.1333 49.9873 75.32C50.3233 75.5067 50.7013 75.6 51.1213 75.6ZM58.1206 77V70.588L58.5266 71.008H55.4886V69.524H62.4886V71.008H59.4646L59.8706 70.588V77H58.1206ZM68.294 77V75.488L68.196 75.166V72.52C68.196 72.0067 68.042 71.61 67.734 71.33C67.426 71.0407 66.9594 70.896 66.334 70.896C65.914 70.896 65.4987 70.9613 65.088 71.092C64.6867 71.2227 64.346 71.4047 64.066 71.638L63.38 70.364C63.7814 70.056 64.2574 69.8273 64.808 69.678C65.368 69.5193 65.9467 69.44 66.544 69.44C67.6267 69.44 68.462 69.7013 69.05 70.224C69.6474 70.7373 69.946 71.5353 69.946 72.618V77H68.294ZM65.942 77.098C65.382 77.098 64.892 77.0047 64.472 76.818C64.052 76.622 63.7254 76.356 63.492 76.02C63.268 75.6747 63.156 75.2873 63.156 74.858C63.156 74.438 63.254 74.06 63.45 73.724C63.6554 73.388 63.9867 73.122 64.444 72.926C64.9014 72.73 65.508 72.632 66.264 72.632H68.434V73.794H66.39C65.7927 73.794 65.3914 73.892 65.186 74.088C64.9807 74.2747 64.878 74.508 64.878 74.788C64.878 75.1053 65.004 75.3573 65.256 75.544C65.508 75.7307 65.858 75.824 66.306 75.824C66.7354 75.824 67.118 75.726 67.454 75.53C67.7994 75.334 68.0467 75.0447 68.196 74.662L68.49 75.712C68.322 76.1507 68.0187 76.4913 67.58 76.734C67.1507 76.9767 66.6047 77.098 65.942 77.098Z" fill="white"/>
<path d="M40.5 15C39.3065 15 38.1619 15.4741 37.318 16.318C36.4741 17.1619 36 18.3065 36 19.5V21H25.5C24.3065 21 23.1619 21.4741 22.318 22.318C21.4741 23.1619 21 24.3065 21 25.5V29.652L43.842 35.742C44.6008 35.9441 45.3992 35.9441 46.158 35.742L69 29.652V25.5C69 24.3065 68.5259 23.1619 67.682 22.318C66.8381 21.4741 65.6935 21 64.5 21H54V19.5C54 18.3065 53.5259 17.1619 52.682 16.318C51.8381 15.4741 50.6935 15 49.5 15H40.5ZM40.5 18H49.5C49.8978 18 50.2794 18.158 50.5607 18.4393C50.842 18.7206 51 19.1022 51 19.5V21H39V19.5C39 19.1022 39.158 18.7206 39.4393 18.4393C39.7206 18.158 40.1022 18 40.5 18V18Z" fill="white"/>
<path d="M21 49.5C21 50.6935 21.4741 51.8381 22.318 52.682C23.1619 53.5259 24.3065 54 25.5 54H64.5C65.6935 54 66.8381 53.5259 67.682 52.682C68.5259 51.8381 69 50.6935 69 49.5V32.55L45.387 38.841C45.1334 38.9088 44.8666 38.9088 44.613 38.841L21 32.55V49.5Z" fill="white"/>
</svg>
