<svg width="90" height="90" viewBox="0 0 90 90" fill="none" xmlns="http://www.w3.org/2000/svg">
<path d="M24.3224 77.14C23.5757 77.14 22.8804 77.0187 22.2364 76.776C21.6017 76.524 21.0464 76.174 20.5704 75.726C20.1037 75.2687 19.7397 74.732 19.4784 74.116C19.217 73.5 19.0864 72.828 19.0864 72.1C19.0864 71.372 19.217 70.7 19.4784 70.084C19.7397 69.468 20.1084 68.936 20.5844 68.488C21.0604 68.0307 21.6157 67.6807 22.2504 67.438C22.885 67.186 23.5804 67.06 24.3364 67.06C25.139 67.06 25.8717 67.2 26.5344 67.48C27.197 67.7507 27.757 68.1567 28.2144 68.698L27.0384 69.804C26.6837 69.4213 26.2871 69.1367 25.8484 68.95C25.4097 68.754 24.9337 68.656 24.4204 68.656C23.907 68.656 23.4357 68.74 23.0064 68.908C22.5864 69.076 22.2177 69.314 21.9004 69.622C21.5924 69.93 21.3497 70.294 21.1724 70.714C21.0044 71.134 20.9204 71.596 20.9204 72.1C20.9204 72.604 21.0044 73.066 21.1724 73.486C21.3497 73.906 21.5924 74.27 21.9004 74.578C22.2177 74.886 22.5864 75.124 23.0064 75.292C23.4357 75.46 23.907 75.544 24.4204 75.544C24.9337 75.544 25.4097 75.4507 25.8484 75.264C26.2871 75.068 26.6837 74.774 27.0384 74.382L28.2144 75.502C27.757 76.034 27.197 76.44 26.5344 76.72C25.8717 77 25.1344 77.14 24.3224 77.14ZM29.7082 77V69.524H33.3622C34.2676 69.524 34.9769 69.692 35.4902 70.028C36.0129 70.364 36.2742 70.84 36.2742 71.456C36.2742 72.0627 36.0316 72.5387 35.5462 72.884C35.0609 73.22 34.4169 73.388 33.6142 73.388L33.8242 72.954C34.7296 72.954 35.4016 73.122 35.8402 73.458C36.2882 73.7847 36.5122 74.2653 36.5122 74.9C36.5122 75.5627 36.2649 76.0807 35.7702 76.454C35.2756 76.818 34.5242 77 33.5162 77H29.7082ZM31.3742 75.726H33.3762C33.8522 75.726 34.2116 75.6513 34.4542 75.502C34.6969 75.3433 34.8182 75.1053 34.8182 74.788C34.8182 74.452 34.7062 74.2047 34.4822 74.046C34.2582 73.8873 33.9082 73.808 33.4322 73.808H31.3742V75.726ZM31.3742 72.646H33.2082C33.6562 72.646 33.9922 72.5667 34.2162 72.408C34.4496 72.24 34.5662 72.0067 34.5662 71.708C34.5662 71.4 34.4496 71.1713 34.2162 71.022C33.9922 70.8727 33.6562 70.798 33.2082 70.798H31.3742V72.646ZM42.9122 77V75.488L42.8142 75.166V72.52C42.8142 72.0067 42.6602 71.61 42.3522 71.33C42.0442 71.0407 41.5775 70.896 40.9522 70.896C40.5322 70.896 40.1169 70.9613 39.7062 71.092C39.3049 71.2227 38.9642 71.4047 38.6842 71.638L37.9982 70.364C38.3995 70.056 38.8755 69.8273 39.4262 69.678C39.9862 69.5193 40.5649 69.44 41.1622 69.44C42.2449 69.44 43.0802 69.7013 43.6682 70.224C44.2655 70.7373 44.5642 71.5353 44.5642 72.618V77H42.9122ZM40.5602 77.098C40.0002 77.098 39.5102 77.0047 39.0902 76.818C38.6702 76.622 38.3435 76.356 38.1102 76.02C37.8862 75.6747 37.7742 75.2873 37.7742 74.858C37.7742 74.438 37.8722 74.06 38.0682 73.724C38.2735 73.388 38.6049 73.122 39.0622 72.926C39.5195 72.73 40.1262 72.632 40.8822 72.632H43.0522V73.794H41.0082C40.4109 73.794 40.0095 73.892 39.8042 74.088C39.5989 74.2747 39.4962 74.508 39.4962 74.788C39.4962 75.1053 39.6222 75.3573 39.8742 75.544C40.1262 75.7307 40.4762 75.824 40.9242 75.824C41.3535 75.824 41.7362 75.726 42.0722 75.53C42.4175 75.334 42.6649 75.0447 42.8142 74.662L43.1082 75.712C42.9402 76.1507 42.6369 76.4913 42.1982 76.734C41.7689 76.9767 41.2229 77.098 40.5602 77.098ZM45.6377 76.986L45.7217 75.516C45.787 75.5253 45.8477 75.5347 45.9037 75.544C45.9597 75.5533 46.011 75.558 46.0577 75.558C46.347 75.558 46.571 75.4693 46.7297 75.292C46.8884 75.1147 47.005 74.8767 47.0797 74.578C47.1637 74.27 47.2197 73.9293 47.2477 73.556C47.285 73.1733 47.313 72.7907 47.3317 72.408L47.4577 69.524H53.5057V77H51.7557V70.532L52.1617 71.008H48.6057L48.9837 70.518L48.8857 72.492C48.8577 73.1547 48.8017 73.7707 48.7177 74.34C48.643 74.9 48.5217 75.39 48.3537 75.81C48.195 76.23 47.971 76.5567 47.6817 76.79C47.4017 77.0233 47.0424 77.14 46.6037 77.14C46.4637 77.14 46.3097 77.126 46.1417 77.098C45.983 77.07 45.815 77.0327 45.6377 76.986ZM61.2245 77L58.5225 73.416L59.9505 72.534L63.2825 77H61.2245ZM55.8625 77V69.524H57.6125V77H55.8625ZM57.0945 74.004V72.548H59.6285V74.004H57.0945ZM60.1185 73.472L58.4805 73.276L61.2245 69.524H63.1005L60.1185 73.472ZM68.9161 77V75.488L68.8181 75.166V72.52C68.8181 72.0067 68.6641 71.61 68.3561 71.33C68.0481 71.0407 67.5814 70.896 66.9561 70.896C66.5361 70.896 66.1208 70.9613 65.7101 71.092C65.3088 71.2227 64.9681 71.4047 64.6881 71.638L64.0021 70.364C64.4034 70.056 64.8794 69.8273 65.4301 69.678C65.9901 69.5193 66.5688 69.44 67.1661 69.44C68.2488 69.44 69.0841 69.7013 69.6721 70.224C70.2694 70.7373 70.5681 71.5353 70.5681 72.618V77H68.9161ZM66.5641 77.098C66.0041 77.098 65.5141 77.0047 65.0941 76.818C64.6741 76.622 64.3474 76.356 64.1141 76.02C63.8901 75.6747 63.7781 75.2873 63.7781 74.858C63.7781 74.438 63.8761 74.06 64.0721 73.724C64.2774 73.388 64.6088 73.122 65.0661 72.926C65.5234 72.73 66.1301 72.632 66.8861 72.632H69.0561V73.794H67.0121C66.4148 73.794 66.0134 73.892 65.8081 74.088C65.6028 74.2747 65.5001 74.508 65.5001 74.788C65.5001 75.1053 65.6261 75.3573 65.8781 75.544C66.1301 75.7307 66.4801 75.824 66.9281 75.824C67.3574 75.824 67.7401 75.726 68.0761 75.53C68.4214 75.334 68.6688 75.0447 68.8181 74.662L69.1121 75.712C68.9441 76.1507 68.6408 76.4913 68.2021 76.734C67.7728 76.9767 67.2268 77.098 66.5641 77.098Z" fill="white"/>
<path d="M57.5 15.0834C51.75 15.0834 47.0833 19.75 47.0833 25.5C47.0833 31.25 51.75 35.9167 57.5 35.9167C63.25 35.9167 67.9167 31.25 67.9167 25.5C67.9167 19.75 63.25 15.0834 57.5 15.0834ZM58.5417 27.5834H56.4583V19.25H58.5417V27.5834ZM58.5417 29.6667V31.75H56.4583V29.6667H58.5417ZM57.3125 40.0834C57.4375 40.4167 57.5 40.7709 57.5 41.125C57.5 42.8542 56.1042 44.25 54.375 44.25C52.6458 44.25 51.25 42.8542 51.25 41.125C51.25 40.3125 51.5625 39.5834 52.0625 39.0209C48.668 37.6483 45.9106 35.0544 44.3333 31.75H32.1042L34.2708 25.5H42.9167C42.9167 24.0625 43.125 22.6459 43.5208 21.3334H33.5417C32.1667 21.3334 31.0208 22.2084 30.5833 23.4375L26.25 35.9167V52.5834C26.25 53.7292 27.1875 54.6667 28.3333 54.6667H30.4167C31.5625 54.6667 32.5 53.7292 32.5 52.5834V50.5H57.5V52.5834C57.5 53.7292 58.4375 54.6667 59.5833 54.6667H61.6667C62.8125 54.6667 63.75 53.7292 63.75 52.5834V38.6667C61.5625 39.7292 59.25 40.1042 57.3125 40.0834ZM35.625 44.25C33.8958 44.25 32.5 42.8542 32.5 41.125C32.5 39.3959 33.8958 38 35.625 38C37.3542 38 38.75 39.3959 38.75 41.125C38.75 42.8542 37.3542 44.25 35.625 44.25Z" fill="white"/>
</svg>
