<svg width="90" height="90" viewBox="0 0 90 90" fill="none" xmlns="http://www.w3.org/2000/svg">
<path d="M51 50.1531H39C37.4167 50.1531 35.7917 49.9365 34.125 49.5033C32.4583 49.0701 30.9688 48.544 29.6562 47.9251C28.3438 47.3062 26.8646 46.4604 25.2188 45.3876C23.5729 44.3149 22.2188 43.3762 21.1562 42.5717C20.0938 41.7671 18.6979 40.6944 16.9688 39.3534C15.2396 38.0125 13.9167 36.9913 13 36.2899C14.5833 35.0934 16.5625 33.3502 18.9375 31.0603C21.3125 28.7704 23.3542 26.7693 25.0625 25.057C26.7708 23.3448 28.7292 21.8182 30.9375 20.4772C33.1458 19.1363 35.1667 18.4658 37 18.4658C38.625 18.4658 40.1354 18.8165 41.5312 19.5179C42.9271 20.2193 44.0833 21.1889 45 22.4267C45.9167 21.1889 47.0729 20.2193 48.4688 19.5179C49.8646 18.8165 51.375 18.4658 53 18.4658C54.8333 18.4658 56.8542 19.1363 59.0625 20.4772C61.2708 21.8182 63.2292 23.3448 64.9375 25.057C66.6458 26.7693 68.6875 28.7704 71.0625 31.0603C73.4375 33.3502 75.4167 35.0934 77 36.2899C76.0833 36.9913 74.7604 38.0125 73.0312 39.3534C71.3021 40.6944 69.9062 41.7671 68.8438 42.5717C67.7812 43.3762 66.4271 44.3149 64.7812 45.3876C63.1354 46.4604 61.6562 47.3062 60.3438 47.9251C59.0312 48.544 57.5417 49.0701 55.875 49.5033C54.2083 49.9365 52.5833 50.1531 51 50.1531ZM49 30.3486H43C42.0417 30.3486 41.0729 30.5342 40.0938 30.9056C39.1146 31.2769 37.8854 31.8339 36.4062 32.5766C34.9271 33.3192 33.6042 33.9175 32.4375 34.3714H33C33.0417 35.4441 34.2292 36.3621 36.5625 37.1254C38.8958 37.8887 41.7083 38.2704 45 38.2704C48.2917 38.2704 51.1042 37.8887 53.4375 37.1254C55.7708 36.3621 56.9583 35.4441 57 34.3714H58.5C57.5 33.9588 56.3542 33.3811 55.0625 32.6385C53.7708 31.8958 52.6771 31.3285 51.7812 30.9365C50.8854 30.5445 49.9583 30.3486 49 30.3486Z" fill="white"/>
<path d="M10.1946 67.2V77H8.40258V68.74H3.32058V77H1.52858V67.2H10.1946ZM16.0939 77.098C15.3379 77.098 14.6566 76.9347 14.0499 76.608C13.4433 76.2813 12.9673 75.8287 12.6219 75.25C12.2859 74.662 12.1179 73.9993 12.1179 73.262C12.1179 72.5247 12.2859 71.8667 12.6219 71.288C12.9673 70.7093 13.4433 70.2567 14.0499 69.93C14.6566 69.6033 15.3379 69.44 16.0939 69.44C16.8593 69.44 17.5453 69.6033 18.1519 69.93C18.7586 70.2567 19.2299 70.7093 19.5659 71.288C19.9113 71.8667 20.0839 72.5247 20.0839 73.262C20.0839 73.9993 19.9113 74.662 19.5659 75.25C19.2299 75.8287 18.7586 76.2813 18.1519 76.608C17.5453 76.9347 16.8593 77.098 16.0939 77.098ZM16.0939 75.6C16.7379 75.6 17.2699 75.3853 17.6899 74.956C18.1099 74.5267 18.3199 73.962 18.3199 73.262C18.3199 72.562 18.1099 71.9973 17.6899 71.568C17.2699 71.1387 16.7379 70.924 16.0939 70.924C15.4499 70.924 14.9179 71.1387 14.4979 71.568C14.0873 71.9973 13.8819 72.562 13.8819 73.262C13.8819 73.962 14.0873 74.5267 14.4979 74.956C14.9179 75.3853 15.4499 75.6 16.0939 75.6ZM30.0167 75.516V78.722H28.3787V77H21.8127V69.524H23.5627V75.516H27.1327V69.524H28.8827V75.516H30.0167ZM38.5744 73.304C38.5744 73.4253 38.5651 73.598 38.5464 73.822H32.6804C32.7831 74.3727 33.0491 74.8113 33.4784 75.138C33.9171 75.4553 34.4584 75.614 35.1024 75.614C35.9238 75.614 36.6004 75.3433 37.1324 74.802L38.0704 75.88C37.7344 76.2813 37.3098 76.5847 36.7964 76.79C36.2831 76.9953 35.7044 77.098 35.0604 77.098C34.2391 77.098 33.5158 76.9347 32.8904 76.608C32.2651 76.2813 31.7798 75.8287 31.4344 75.25C31.0984 74.662 30.9304 73.9993 30.9304 73.262C30.9304 72.534 31.0938 71.8807 31.4204 71.302C31.7564 70.714 32.2184 70.2567 32.8064 69.93C33.3944 69.6033 34.0571 69.44 34.7944 69.44C35.5224 69.44 36.1711 69.6033 36.7404 69.93C37.3191 70.2473 37.7671 70.7 38.0844 71.288C38.4111 71.8667 38.5744 72.5387 38.5744 73.304ZM34.7944 70.84C34.2344 70.84 33.7584 71.008 33.3664 71.344C32.9838 71.6707 32.7504 72.1093 32.6664 72.66H36.9084C36.8338 72.1187 36.6051 71.68 36.2224 71.344C35.8398 71.008 35.3638 70.84 34.7944 70.84ZM47.1688 69.524V77H45.4188V71.008H42.6188L42.5488 72.492C42.5021 73.4813 42.4088 74.312 42.2688 74.984C42.1381 75.6467 41.9095 76.174 41.5828 76.566C41.2655 76.9487 40.8268 77.14 40.2668 77.14C40.0055 77.14 39.6835 77.0887 39.3008 76.986L39.3848 75.516C39.5155 75.544 39.6275 75.558 39.7208 75.558C40.0755 75.558 40.3415 75.418 40.5188 75.138C40.6961 74.8487 40.8081 74.508 40.8548 74.116C40.9108 73.7147 40.9575 73.1453 40.9948 72.408L41.1208 69.524H47.1688ZM52.8576 77.098C52.1016 77.098 51.4203 76.9347 50.8136 76.608C50.2069 76.2813 49.7309 75.8287 49.3856 75.25C49.0496 74.662 48.8816 73.9993 48.8816 73.262C48.8816 72.5247 49.0496 71.8667 49.3856 71.288C49.7309 70.7093 50.2069 70.2567 50.8136 69.93C51.4203 69.6033 52.1016 69.44 52.8576 69.44C53.6229 69.44 54.3089 69.6033 54.9156 69.93C55.5223 70.2567 55.9936 70.7093 56.3296 71.288C56.6749 71.8667 56.8476 72.5247 56.8476 73.262C56.8476 73.9993 56.6749 74.662 56.3296 75.25C55.9936 75.8287 55.5223 76.2813 54.9156 76.608C54.3089 76.9347 53.6229 77.098 52.8576 77.098ZM52.8576 75.6C53.5016 75.6 54.0336 75.3853 54.4536 74.956C54.8736 74.5267 55.0836 73.962 55.0836 73.262C55.0836 72.562 54.8736 71.9973 54.4536 71.568C54.0336 71.1387 53.5016 70.924 52.8576 70.924C52.2136 70.924 51.6816 71.1387 51.2616 71.568C50.8509 71.9973 50.6456 72.562 50.6456 73.262C50.6456 73.962 50.8509 74.5267 51.2616 74.956C51.6816 75.3853 52.2136 75.6 52.8576 75.6ZM63.9944 73.108C64.9184 73.388 65.3804 73.9853 65.3804 74.9C65.3804 75.572 65.1284 76.09 64.6244 76.454C64.1204 76.818 63.3737 77 62.3844 77H58.5764V69.524H62.2304C63.1451 69.524 63.8591 69.692 64.3724 70.028C64.8857 70.364 65.1424 70.84 65.1424 71.456C65.1424 71.8387 65.0397 72.17 64.8344 72.45C64.6384 72.73 64.3584 72.9493 63.9944 73.108ZM60.2424 72.646H62.0764C62.9817 72.646 63.4344 72.3333 63.4344 71.708C63.4344 71.1013 62.9817 70.798 62.0764 70.798H60.2424V72.646ZM62.2444 75.726C63.2057 75.726 63.6864 75.4133 63.6864 74.788C63.6864 74.4613 63.5744 74.2187 63.3504 74.06C63.1264 73.892 62.7764 73.808 62.3004 73.808H60.2424V75.726H62.2444ZM70.0304 69.44C71.1317 69.44 71.9717 69.706 72.5504 70.238C73.1384 70.7607 73.4324 71.554 73.4324 72.618V77H71.7804V76.09C71.5657 76.4167 71.2577 76.6687 70.8564 76.846C70.4644 77.014 69.9884 77.098 69.4284 77.098C68.8684 77.098 68.3784 77.0047 67.9584 76.818C67.5384 76.622 67.2117 76.356 66.9784 76.02C66.7544 75.6747 66.6424 75.2873 66.6424 74.858C66.6424 74.186 66.8897 73.6493 67.3844 73.248C67.8884 72.8373 68.677 72.632 69.7504 72.632H71.6824V72.52C71.6824 71.9973 71.5237 71.596 71.2064 71.316C70.8984 71.036 70.4364 70.896 69.8204 70.896C69.4004 70.896 68.985 70.9613 68.5744 71.092C68.173 71.2227 67.8324 71.4047 67.5524 71.638L66.8664 70.364C67.2584 70.0653 67.7297 69.8367 68.2804 69.678C68.831 69.5193 69.4144 69.44 70.0304 69.44ZM69.7924 75.824C70.231 75.824 70.6184 75.726 70.9544 75.53C71.2997 75.3247 71.5424 75.0353 71.6824 74.662V73.794H69.8764C68.8684 73.794 68.3644 74.1253 68.3644 74.788C68.3644 75.1053 68.4904 75.3573 68.7424 75.544C68.9944 75.7307 69.3444 75.824 69.7924 75.824ZM81.5199 71.008H78.9019V77H77.1519V71.008H74.5199V69.524H81.5199V71.008ZM86.5413 71.988C87.4933 71.988 88.2213 72.2027 88.7253 72.632C89.2386 73.0613 89.4953 73.668 89.4953 74.452C89.4953 75.2733 89.2153 75.908 88.6553 76.356C88.0953 76.804 87.3066 77.0233 86.2893 77.014L82.7893 77V69.524H84.5393V71.974L86.5413 71.988ZM86.1353 75.726C86.6486 75.7353 87.0406 75.628 87.3113 75.404C87.5819 75.18 87.7173 74.8533 87.7173 74.424C87.7173 74.004 87.5866 73.696 87.3253 73.5C87.0639 73.304 86.6673 73.2013 86.1353 73.192L84.5393 73.178V75.712L86.1353 75.726Z" fill="white"/>
</svg>
