<svg width="90" height="90" viewBox="0 0 90 90" fill="none" xmlns="http://www.w3.org/2000/svg">
<path d="M7.91559 77.14C7.75692 77.14 7.59825 77.126 7.43959 77.098C7.28092 77.07 7.10825 77.0373 6.92159 77L7.04759 75.418C7.17825 75.4553 7.31825 75.474 7.46759 75.474C7.85959 75.474 8.17225 75.3153 8.40559 74.998C8.63892 74.6713 8.80692 74.1953 8.90959 73.57C9.01225 72.9447 9.08225 72.1747 9.11959 71.26L9.25959 67.2H16.4696V77H14.6776V68.292L15.0976 68.74H10.4356L10.8276 68.278L10.7296 71.19C10.7016 72.1607 10.6363 73.0147 10.5336 73.752C10.4309 74.4893 10.2723 75.11 10.0576 75.614C9.85225 76.1087 9.57692 76.4867 9.23159 76.748C8.88625 77.0093 8.44759 77.14 7.91559 77.14ZM19.0305 77V69.524H20.7805V74.452L24.9105 69.524H26.5065V77H24.7565V72.072L20.6405 77H19.0305ZM28.8606 77V69.524H30.6106V75.516H34.1806V69.524H35.9306V77H28.8606ZM35.4266 78.666V76.958L35.8326 77H34.1806V75.516H37.0646V78.666H35.4266ZM42.1083 77.098C41.2776 77.098 40.5496 76.9347 39.9243 76.608C39.3083 76.272 38.8276 75.8147 38.4823 75.236C38.1463 74.6573 37.9783 73.9993 37.9783 73.262C37.9783 72.5153 38.1416 71.8573 38.4683 71.288C38.8043 70.7093 39.2616 70.2567 39.8403 69.93C40.4283 69.6033 41.0956 69.44 41.8423 69.44C42.5703 69.44 43.219 69.5987 43.7883 69.916C44.3576 70.2333 44.8056 70.6813 45.1323 71.26C45.459 71.8387 45.6223 72.52 45.6223 73.304C45.6223 73.3787 45.6176 73.4627 45.6083 73.556C45.6083 73.6493 45.6036 73.738 45.5943 73.822H39.3643V72.66H44.6703L43.9843 73.024C43.9936 72.5947 43.905 72.2167 43.7183 71.89C43.5316 71.5633 43.275 71.3067 42.9483 71.12C42.631 70.9333 42.2623 70.84 41.8423 70.84C41.413 70.84 41.035 70.9333 40.7083 71.12C40.391 71.3067 40.139 71.568 39.9523 71.904C39.775 72.2307 39.6863 72.618 39.6863 73.066V73.346C39.6863 73.794 39.789 74.1907 39.9943 74.536C40.1996 74.8813 40.489 75.1473 40.8623 75.334C41.2356 75.5207 41.665 75.614 42.1503 75.614C42.5703 75.614 42.9483 75.5487 43.2843 75.418C43.6203 75.2873 43.919 75.082 44.1803 74.802L45.1183 75.88C44.7823 76.272 44.3576 76.5753 43.8443 76.79C43.3403 76.9953 42.7616 77.098 42.1083 77.098ZM47.5364 77V69.524H49.2864V72.562H53.0524V69.524H54.8024V77H53.0524V74.046H49.2864V77H47.5364ZM59.418 77.126C60.1086 77.126 60.72 77.028 61.252 76.832C61.7933 76.636 62.218 76.3653 62.526 76.02C62.834 75.6653 62.988 75.2593 62.988 74.802C62.988 74.2327 62.75 73.7847 62.274 73.458C61.798 73.122 61.1446 72.954 60.314 72.954L60.258 73.332C60.7433 73.332 61.1726 73.2527 61.546 73.094C61.9286 72.9353 62.2273 72.716 62.442 72.436C62.666 72.1467 62.778 71.8247 62.778 71.47C62.778 71.0407 62.624 70.6673 62.316 70.35C62.008 70.0327 61.588 69.79 61.056 69.622C60.524 69.454 59.9173 69.384 59.236 69.412C58.788 69.4213 58.3353 69.4867 57.878 69.608C57.43 69.72 56.968 69.8833 56.492 70.098L56.94 71.386C57.3506 71.2087 57.752 71.0733 58.144 70.98C58.5453 70.8867 58.9326 70.84 59.306 70.84C59.6606 70.84 59.964 70.8773 60.216 70.952C60.468 71.0173 60.6593 71.12 60.79 71.26C60.93 71.3907 61 71.5447 61 71.722C61 71.8993 60.944 72.0533 60.832 72.184C60.72 72.3147 60.5566 72.4127 60.342 72.478C60.1366 72.5433 59.8846 72.576 59.586 72.576H58.284V73.752H59.726C60.202 73.752 60.566 73.8313 60.818 73.99C61.0793 74.1393 61.21 74.3633 61.21 74.662C61.21 74.8673 61.1306 75.0493 60.972 75.208C60.8226 75.3667 60.608 75.488 60.328 75.572C60.048 75.6467 59.712 75.684 59.32 75.684C58.8626 75.684 58.4053 75.628 57.948 75.516C57.4906 75.404 57.08 75.2453 56.716 75.04L56.226 76.342C56.674 76.594 57.1733 76.79 57.724 76.93C58.284 77.0607 58.8486 77.126 59.418 77.126ZM64.7903 77V69.524H66.5403V74.452L70.6703 69.524H72.2663V77H70.5163V72.072L66.4003 77H64.7903ZM74.6203 77V69.524H76.3703V74.452L80.5003 69.524H82.0963V77H80.3463V72.072L76.2303 77H74.6203Z" fill="white"/>
<g clip-path="url(#clip0_1337_461)">
<path d="M41.875 41.112C41.875 40.2448 41.814 39.4378 41.6919 38.6911C41.5698 37.9443 41.3704 37.2217 41.0938 36.5231C40.8171 35.8245 40.402 35.2745 39.8486 34.873C39.2952 34.4716 38.6361 34.2708 37.8711 34.2708C36.8294 35.2986 35.5599 35.8125 34.0625 35.8125C32.5651 35.8125 31.2956 35.2986 30.2539 34.2708C29.4889 34.2708 28.8298 34.4716 28.2764 34.873C27.723 35.2745 27.3079 35.8245 27.0312 36.5231C26.7546 37.2217 26.5552 37.9443 26.4331 38.6911C26.311 39.4378 26.25 40.2448 26.25 41.112C26.25 41.9952 26.5063 42.746 27.019 43.3643C27.5317 43.9825 28.1462 44.2917 28.8623 44.2917H39.2627C39.9788 44.2917 40.5933 43.9825 41.106 43.3643C41.6187 42.746 41.875 41.9952 41.875 41.112ZM38.75 30.4167C38.75 29.1319 38.2943 28.0399 37.3828 27.1406C36.4714 26.2413 35.3646 25.7917 34.0625 25.7917C32.7604 25.7917 31.6536 26.2413 30.7422 27.1406C29.8307 28.0399 29.375 29.1319 29.375 30.4167C29.375 31.7014 29.8307 32.7934 30.7422 33.6927C31.6536 34.592 32.7604 35.0417 34.0625 35.0417C35.3646 35.0417 36.4714 34.592 37.3828 33.6927C38.2943 32.7934 38.75 31.7014 38.75 30.4167ZM63.75 41.9792V40.4375C63.75 40.2127 63.6768 40.028 63.5303 39.8835C63.3838 39.7389 63.1966 39.6667 62.9688 39.6667H45.7812C45.5534 39.6667 45.3662 39.7389 45.2197 39.8835C45.0732 40.028 45 40.2127 45 40.4375V41.9792C45 42.204 45.0732 42.3887 45.2197 42.5332C45.3662 42.6777 45.5534 42.75 45.7812 42.75H62.9688C63.1966 42.75 63.3838 42.6777 63.5303 42.5332C63.6768 42.3887 63.75 42.204 63.75 41.9792ZM54.375 35.8125V34.2708C54.375 34.046 54.3018 33.8613 54.1553 33.7168C54.0088 33.5723 53.8216 33.5 53.5938 33.5H45.7812C45.5534 33.5 45.3662 33.5723 45.2197 33.7168C45.0732 33.8613 45 34.046 45 34.2708V35.8125C45 36.0373 45.0732 36.222 45.2197 36.3665C45.3662 36.5111 45.5534 36.5833 45.7812 36.5833H53.5938C53.8216 36.5833 54.0088 36.5111 54.1553 36.3665C54.3018 36.222 54.375 36.0373 54.375 35.8125ZM63.75 35.8125V34.2708C63.75 34.046 63.6768 33.8613 63.5303 33.7168C63.3838 33.5723 63.1966 33.5 62.9688 33.5H58.2812C58.0534 33.5 57.8662 33.5723 57.7197 33.7168C57.5732 33.8613 57.5 34.046 57.5 34.2708V35.8125C57.5 36.0373 57.5732 36.222 57.7197 36.3665C57.8662 36.5111 58.0534 36.5833 58.2812 36.5833H62.9688C63.1966 36.5833 63.3838 36.5111 63.5303 36.3665C63.6768 36.222 63.75 36.0373 63.75 35.8125ZM63.75 29.6458V28.1042C63.75 27.8793 63.6768 27.6947 63.5303 27.5501C63.3838 27.4056 63.1966 27.3333 62.9688 27.3333H45.7812C45.5534 27.3333 45.3662 27.4056 45.2197 27.5501C45.0732 27.6947 45 27.8793 45 28.1042V29.6458C45 29.8707 45.0732 30.0553 45.2197 30.1999C45.3662 30.3444 45.5534 30.4167 45.7812 30.4167H62.9688C63.1966 30.4167 63.3838 30.3444 63.5303 30.1999C63.6768 30.0553 63.75 29.8707 63.75 29.6458ZM23.125 21.1667H66.875V18.8542C66.875 18.6293 66.8018 18.4447 66.6553 18.3001C66.5088 18.1556 66.3216 18.0833 66.0938 18.0833H23.9062C23.6784 18.0833 23.4912 18.1556 23.3447 18.3001C23.1982 18.4447 23.125 18.6293 23.125 18.8542V21.1667ZM70 18.8542V48.1458C70 49.2057 69.6175 50.1131 68.8525 50.8678C68.0876 51.6226 67.168 52 66.0938 52H23.9062C22.832 52 21.9124 51.6226 21.1475 50.8678C20.3825 50.1131 20 49.2057 20 48.1458V18.8542C20 17.7943 20.3825 16.8869 21.1475 16.1322C21.9124 15.3774 22.832 15 23.9062 15H66.0938C67.168 15 68.0876 15.3774 68.8525 16.1322C69.6175 16.8869 70 17.7943 70 18.8542Z" fill="white"/>
</g>
<defs>
<clipPath id="clip0_1337_461">
<rect width="50" height="37" fill="white" transform="translate(20 15)"/>
</clipPath>
</defs>
</svg>
