<svg width="90" height="90" viewBox="0 0 90 90" fill="none" xmlns="http://www.w3.org/2000/svg">
<path d="M15.34 77.14C14.5933 77.14 13.898 77.0187 13.254 76.776C12.6193 76.524 12.064 76.174 11.588 75.726C11.1213 75.2687 10.7573 74.732 10.496 74.116C10.2346 73.5 10.104 72.828 10.104 72.1C10.104 71.372 10.2346 70.7 10.496 70.084C10.7573 69.468 11.126 68.936 11.602 68.488C12.078 68.0307 12.6333 67.6807 13.268 67.438C13.9026 67.186 14.598 67.06 15.354 67.06C16.1566 67.06 16.8893 67.2 17.552 67.48C18.2146 67.7507 18.7746 68.1567 19.232 68.698L18.056 69.804C17.7013 69.4213 17.3046 69.1367 16.866 68.95C16.4273 68.754 15.9513 68.656 15.438 68.656C14.9246 68.656 14.4533 68.74 14.024 68.908C13.604 69.076 13.2353 69.314 12.918 69.622C12.61 69.93 12.3673 70.294 12.19 70.714C12.022 71.134 11.938 71.596 11.938 72.1C11.938 72.604 12.022 73.066 12.19 73.486C12.3673 73.906 12.61 74.27 12.918 74.578C13.2353 74.886 13.604 75.124 14.024 75.292C14.4533 75.46 14.9246 75.544 15.438 75.544C15.9513 75.544 16.4273 75.4507 16.866 75.264C17.3046 75.068 17.7013 74.774 18.056 74.382L19.232 75.502C18.7746 76.034 18.2146 76.44 17.552 76.72C16.8893 77 16.152 77.14 15.34 77.14ZM20.7258 77V69.524H22.5598L25.5698 74.83H24.8418L28.0058 69.524H29.6438L29.6578 77H28.0758V71.4L28.3558 71.582L25.5558 76.216H24.7998L21.9858 71.456L22.3218 71.372V77H20.7258ZM35.3371 77.098C34.5718 77.098 33.8904 76.9347 33.2931 76.608C32.6958 76.272 32.2244 75.8147 31.8791 75.236C31.5338 74.6573 31.3611 73.9993 31.3611 73.262C31.3611 72.5153 31.5338 71.8573 31.8791 71.288C32.2244 70.7093 32.6958 70.2567 33.2931 69.93C33.8904 69.6033 34.5718 69.44 35.3371 69.44C36.1118 69.44 36.7978 69.6033 37.3951 69.93C38.0018 70.2567 38.4731 70.7047 38.8091 71.274C39.1544 71.8433 39.3271 72.506 39.3271 73.262C39.3271 73.9993 39.1544 74.6573 38.8091 75.236C38.4731 75.8147 38.0018 76.272 37.3951 76.608C36.7978 76.9347 36.1118 77.098 35.3371 77.098ZM35.3371 75.6C35.7664 75.6 36.1491 75.5067 36.4851 75.32C36.8211 75.1333 37.0824 74.8627 37.2691 74.508C37.4651 74.1533 37.5631 73.738 37.5631 73.262C37.5631 72.7767 37.4651 72.3613 37.2691 72.016C37.0824 71.6613 36.8211 71.3907 36.4851 71.204C36.1491 71.0173 35.7711 70.924 35.3511 70.924C34.9218 70.924 34.5391 71.0173 34.2031 71.204C33.8764 71.3907 33.6151 71.6613 33.4191 72.016C33.2231 72.3613 33.1251 72.7767 33.1251 73.262C33.1251 73.738 33.2231 74.1533 33.4191 74.508C33.6151 74.8627 33.8764 75.1333 34.2031 75.32C34.5391 75.5067 34.9171 75.6 35.3371 75.6ZM42.3364 77V70.588L42.7424 71.008H39.7044V69.524H46.7044V71.008H43.6804L44.0864 70.588V77H42.3364ZM52.1179 77.098C51.5112 77.098 50.9559 76.958 50.4519 76.678C49.9572 76.398 49.5605 75.978 49.2619 75.418C48.9725 74.8487 48.8279 74.13 48.8279 73.262C48.8279 72.3847 48.9679 71.666 49.2479 71.106C49.5372 70.546 49.9292 70.1307 50.4239 69.86C50.9185 69.58 51.4832 69.44 52.1179 69.44C52.8552 69.44 53.5039 69.5987 54.0639 69.916C54.6332 70.2333 55.0812 70.6767 55.4079 71.246C55.7439 71.8153 55.9119 72.4873 55.9119 73.262C55.9119 74.0367 55.7439 74.7133 55.4079 75.292C55.0812 75.8613 54.6332 76.3047 54.0639 76.622C53.5039 76.9393 52.8552 77.098 52.1179 77.098ZM47.9739 79.716V69.524H49.6399V71.288L49.5839 73.276L49.7239 75.264V79.716H47.9739ZM51.9219 75.6C52.3419 75.6 52.7152 75.5067 53.0419 75.32C53.3779 75.1333 53.6439 74.8627 53.8399 74.508C54.0359 74.1533 54.1339 73.738 54.1339 73.262C54.1339 72.7767 54.0359 72.3613 53.8399 72.016C53.6439 71.6613 53.3779 71.3907 53.0419 71.204C52.7152 71.0173 52.3419 70.924 51.9219 70.924C51.5019 70.924 51.1239 71.0173 50.7879 71.204C50.4519 71.3907 50.1859 71.6613 49.9899 72.016C49.7939 72.3613 49.6959 72.7767 49.6959 73.262C49.6959 73.738 49.7939 74.1533 49.9899 74.508C50.1859 74.8627 50.4519 75.1333 50.7879 75.32C51.1239 75.5067 51.5019 75.6 51.9219 75.6ZM61.1395 77.098C60.3089 77.098 59.5809 76.9347 58.9555 76.608C58.3395 76.272 57.8589 75.8147 57.5135 75.236C57.1775 74.6573 57.0095 73.9993 57.0095 73.262C57.0095 72.5153 57.1729 71.8573 57.4995 71.288C57.8355 70.7093 58.2929 70.2567 58.8715 69.93C59.4595 69.6033 60.1269 69.44 60.8735 69.44C61.6015 69.44 62.2502 69.5987 62.8195 69.916C63.3889 70.2333 63.8369 70.6813 64.1635 71.26C64.4902 71.8387 64.6535 72.52 64.6535 73.304C64.6535 73.3787 64.6489 73.4627 64.6395 73.556C64.6395 73.6493 64.6349 73.738 64.6255 73.822H58.3955V72.66H63.7015L63.0155 73.024C63.0249 72.5947 62.9362 72.2167 62.7495 71.89C62.5629 71.5633 62.3062 71.3067 61.9795 71.12C61.6622 70.9333 61.2935 70.84 60.8735 70.84C60.4442 70.84 60.0662 70.9333 59.7395 71.12C59.4222 71.3067 59.1702 71.568 58.9835 71.904C58.8062 72.2307 58.7175 72.618 58.7175 73.066V73.346C58.7175 73.794 58.8202 74.1907 59.0255 74.536C59.2309 74.8813 59.5202 75.1473 59.8935 75.334C60.2669 75.5207 60.6962 75.614 61.1815 75.614C61.6015 75.614 61.9795 75.5487 62.3155 75.418C62.6515 75.2873 62.9502 75.082 63.2115 74.802L64.1495 75.88C63.8135 76.272 63.3889 76.5753 62.8755 76.79C62.3715 76.9953 61.7929 77.098 61.1395 77.098ZM67.8345 77V70.588L68.2405 71.008H65.2025V69.524H72.2025V71.008H69.1785L69.5845 70.588V77H67.8345ZM77.2239 71.988C78.1852 71.988 78.9179 72.2027 79.4219 72.632C79.9259 73.0613 80.1779 73.668 80.1779 74.452C80.1779 75.264 79.8979 75.8987 79.3379 76.356C78.7779 76.804 77.9892 77.0233 76.9719 77.014L73.4719 77V69.524H75.2219V71.974L77.2239 71.988ZM76.8179 75.726C77.3312 75.7353 77.7232 75.628 77.9939 75.404C78.2646 75.18 78.3999 74.8533 78.3999 74.424C78.3999 73.9947 78.2646 73.6867 77.9939 73.5C77.7326 73.304 77.3406 73.2013 76.8179 73.192L75.2219 73.178V75.712L76.8179 75.726Z" fill="white"/>
<path d="M71.623 36.2848C66.6384 26.5717 56.7705 20 45.4715 20C34.1723 20 24.3016 26.5763 19.3198 36.2857C19.1096 36.7011 19 37.16 19 37.6255C19 38.0909 19.1096 38.5498 19.3198 38.9652C24.3044 48.6783 34.1723 55.25 45.4715 55.25C56.7705 55.25 66.6412 48.6737 71.623 38.9643C71.8332 38.5489 71.9428 38.09 71.9428 37.6245C71.9428 37.1591 71.8332 36.7002 71.623 36.2848ZM45.4715 50.8438C42.8536 50.8438 40.2946 50.0685 38.118 48.616C35.9414 47.1635 34.245 45.099 33.2431 42.6836C32.2414 40.2682 31.9793 37.6103 32.49 35.0462C33.0007 32.482 34.2612 30.1266 36.1123 28.2779C37.9634 26.4293 40.3218 25.1703 42.8892 24.6602C45.4568 24.1502 48.118 24.412 50.5365 25.4125C52.955 26.413 55.0222 28.1072 56.4765 30.2811C57.9309 32.4549 58.7072 35.0106 58.7072 37.625C58.708 39.3611 58.3663 41.0804 57.7014 42.6846C57.0365 44.2888 56.0616 45.7463 54.8324 46.974C53.6032 48.2016 52.1438 49.1752 50.5375 49.8393C48.9313 50.5033 47.2098 50.8446 45.4715 50.8438ZM45.4715 28.8125C44.6838 28.8235 43.9014 28.9405 43.1451 29.1604C43.7684 30.0065 44.0676 31.0476 43.9883 32.0951C43.9089 33.1426 43.4563 34.1269 42.7126 34.8697C41.9688 35.6125 40.9832 36.0645 39.9344 36.1437C38.8857 36.223 37.8431 35.9242 36.9959 35.3016C36.5135 37.0766 36.6006 38.958 37.2449 40.6809C37.8892 42.4039 39.0583 43.8817 40.5876 44.9063C42.117 45.9309 43.9294 46.4508 45.7701 46.3927C47.6107 46.3346 49.3868 45.7016 50.8484 44.5826C52.3098 43.4636 53.3831 41.915 53.9172 40.1549C54.4515 38.3948 54.4194 36.5117 53.8258 34.7706C53.2322 33.0296 52.1069 31.5183 50.6082 30.4495C49.1095 29.3807 47.313 28.8082 45.4715 28.8125Z" fill="white"/>
</svg>
