<svg width="90" height="93" viewBox="0 0 90 93" fill="none" xmlns="http://www.w3.org/2000/svg">
<path d="M23.8955 75.12C23.2555 75.12 22.6595 75.016 22.1075 74.808C21.5635 74.592 21.0875 74.292 20.6795 73.908C20.2795 73.516 19.9675 73.056 19.7435 72.528C19.5195 72 19.4075 71.424 19.4075 70.8C19.4075 70.176 19.5195 69.6 19.7435 69.072C19.9675 68.544 20.2835 68.088 20.6915 67.704C21.0995 67.312 21.5755 67.012 22.1195 66.804C22.6635 66.588 23.2595 66.48 23.9075 66.48C24.5955 66.48 25.2235 66.6 25.7915 66.84C26.3595 67.072 26.8395 67.42 27.2315 67.884L26.2235 68.832C25.9195 68.504 25.5795 68.26 25.2035 68.1C24.8275 67.932 24.4195 67.848 23.9795 67.848C23.5395 67.848 23.1355 67.92 22.7675 68.064C22.4075 68.208 22.0915 68.412 21.8195 68.676C21.5555 68.94 21.3475 69.252 21.1955 69.612C21.0515 69.972 20.9795 70.368 20.9795 70.8C20.9795 71.232 21.0515 71.628 21.1955 71.988C21.3475 72.348 21.5555 72.66 21.8195 72.924C22.0915 73.188 22.4075 73.392 22.7675 73.536C23.1355 73.68 23.5395 73.752 23.9795 73.752C24.4195 73.752 24.8275 73.672 25.2035 73.512C25.5795 73.344 25.9195 73.092 26.2235 72.756L27.2315 73.716C26.8395 74.172 26.3595 74.52 25.7915 74.76C25.2235 75 24.5915 75.12 23.8955 75.12ZM31.1335 75.084C30.4775 75.084 29.8935 74.944 29.3815 74.664C28.8695 74.376 28.4655 73.984 28.1695 73.488C27.8735 72.992 27.7255 72.428 27.7255 71.796C27.7255 71.156 27.8735 70.592 28.1695 70.104C28.4655 69.608 28.8695 69.22 29.3815 68.94C29.8935 68.66 30.4775 68.52 31.1335 68.52C31.7975 68.52 32.3855 68.66 32.8975 68.94C33.4175 69.22 33.8215 69.604 34.1095 70.092C34.4055 70.58 34.5535 71.148 34.5535 71.796C34.5535 72.428 34.4055 72.992 34.1095 73.488C33.8215 73.984 33.4175 74.376 32.8975 74.664C32.3855 74.944 31.7975 75.084 31.1335 75.084ZM31.1335 73.8C31.5015 73.8 31.8295 73.72 32.1175 73.56C32.4055 73.4 32.6295 73.168 32.7895 72.864C32.9575 72.56 33.0415 72.204 33.0415 71.796C33.0415 71.38 32.9575 71.024 32.7895 70.728C32.6295 70.424 32.4055 70.192 32.1175 70.032C31.8295 69.872 31.5055 69.792 31.1455 69.792C30.7775 69.792 30.4495 69.872 30.1615 70.032C29.8815 70.192 29.6575 70.424 29.4895 70.728C29.3215 71.024 29.2375 71.38 29.2375 71.796C29.2375 72.204 29.3215 72.56 29.4895 72.864C29.6575 73.168 29.8815 73.4 30.1615 73.56C30.4495 73.72 30.7735 73.8 31.1335 73.8ZM39.5873 75.084C39.0673 75.084 38.5913 74.964 38.1593 74.724C37.7353 74.484 37.3953 74.124 37.1393 73.644C36.8913 73.156 36.7673 72.54 36.7673 71.796C36.7673 71.044 36.8873 70.428 37.1273 69.948C37.3753 69.468 37.7113 69.112 38.1353 68.88C38.5593 68.64 39.0433 68.52 39.5873 68.52C40.2193 68.52 40.7753 68.656 41.2553 68.928C41.7433 69.2 42.1273 69.58 42.4073 70.068C42.6953 70.556 42.8393 71.132 42.8393 71.796C42.8393 72.46 42.6953 73.04 42.4073 73.536C42.1273 74.024 41.7433 74.404 41.2553 74.676C40.7753 74.948 40.2193 75.084 39.5873 75.084ZM36.0353 77.328V68.592H37.4633V70.104L37.4153 71.808L37.5353 73.512V77.328H36.0353ZM39.4193 73.8C39.7793 73.8 40.0993 73.72 40.3793 73.56C40.6673 73.4 40.8953 73.168 41.0633 72.864C41.2313 72.56 41.3153 72.204 41.3153 71.796C41.3153 71.38 41.2313 71.024 41.0633 70.728C40.8953 70.424 40.6673 70.192 40.3793 70.032C40.0993 69.872 39.7793 69.792 39.4193 69.792C39.0593 69.792 38.7353 69.872 38.4473 70.032C38.1593 70.192 37.9313 70.424 37.7633 70.728C37.5953 71.024 37.5113 71.38 37.5113 71.796C37.5113 72.204 37.5953 72.56 37.7633 72.864C37.9313 73.168 38.1593 73.4 38.4473 73.56C38.7353 73.72 39.0593 73.8 39.4193 73.8ZM44.3322 75V68.592H47.4642C48.2402 68.592 48.8482 68.736 49.2882 69.024C49.7362 69.312 49.9602 69.72 49.9602 70.248C49.9602 70.768 49.7522 71.176 49.3362 71.472C48.9202 71.76 48.3682 71.904 47.6802 71.904L47.8602 71.532C48.6362 71.532 49.2122 71.676 49.5882 71.964C49.9722 72.244 50.1642 72.656 50.1642 73.2C50.1642 73.768 49.9522 74.212 49.5282 74.532C49.1042 74.844 48.4602 75 47.5962 75H44.3322ZM45.7602 73.908H47.4762C47.8842 73.908 48.1922 73.844 48.4002 73.716C48.6082 73.58 48.7122 73.376 48.7122 73.104C48.7122 72.816 48.6162 72.604 48.4242 72.468C48.2322 72.332 47.9322 72.264 47.5242 72.264H45.7602V73.908ZM45.7602 71.268H47.3322C47.7162 71.268 48.0042 71.2 48.1962 71.064C48.3962 70.92 48.4962 70.72 48.4962 70.464C48.4962 70.2 48.3962 70.004 48.1962 69.876C48.0042 69.748 47.7162 69.684 47.3322 69.684H45.7602V71.268ZM55.6499 75V73.704L55.5659 73.428V71.16C55.5659 70.72 55.4339 70.38 55.1699 70.14C54.9059 69.892 54.5059 69.768 53.9699 69.768C53.6099 69.768 53.2539 69.824 52.9019 69.936C52.5579 70.048 52.2659 70.204 52.0259 70.404L51.4379 69.312C51.7819 69.048 52.1899 68.852 52.6619 68.724C53.1419 68.588 53.6379 68.52 54.1499 68.52C55.0779 68.52 55.7939 68.744 56.2979 69.192C56.8099 69.632 57.0659 70.316 57.0659 71.244V75H55.6499ZM53.6339 75.084C53.1539 75.084 52.7339 75.004 52.3739 74.844C52.0139 74.676 51.7339 74.448 51.5339 74.16C51.3419 73.864 51.2459 73.532 51.2459 73.164C51.2459 72.804 51.3299 72.48 51.4979 72.192C51.6739 71.904 51.9579 71.676 52.3499 71.508C52.7419 71.34 53.2619 71.256 53.9099 71.256H55.7699V72.252H54.0179C53.5059 72.252 53.1619 72.336 52.9859 72.504C52.8099 72.664 52.7219 72.864 52.7219 73.104C52.7219 73.376 52.8299 73.592 53.0459 73.752C53.2619 73.912 53.5619 73.992 53.9459 73.992C54.3139 73.992 54.6419 73.908 54.9299 73.74C55.2259 73.572 55.4379 73.324 55.5659 72.996L55.8179 73.896C55.6739 74.272 55.4139 74.564 55.0379 74.772C54.6699 74.98 54.2019 75.084 53.6339 75.084ZM60.2541 75V69.504L60.6021 69.864H57.9981V68.592H63.9981V69.864H61.4061L61.7541 69.504V75H60.2541ZM68.3021 70.704C69.1261 70.704 69.7541 70.888 70.1861 71.256C70.6181 71.624 70.8341 72.144 70.8341 72.816C70.8341 73.512 70.5941 74.056 70.1141 74.448C69.6341 74.832 68.9581 75.02 68.0861 75.012L65.0861 75V68.592H66.5861V70.692L68.3021 70.704ZM67.9541 73.908C68.3941 73.916 68.7301 73.824 68.9621 73.632C69.1941 73.44 69.3101 73.16 69.3101 72.792C69.3101 72.424 69.1941 72.16 68.9621 72C68.7381 71.832 68.4021 71.744 67.9541 71.736L66.5861 71.724V73.896L67.9541 73.908ZM27.0353 90V83.592H28.6073L31.1873 88.14H30.5633L33.2753 83.592H34.6793L34.6913 90H33.3353V85.2L33.5753 85.356L31.1753 89.328H30.5273L28.1153 85.248L28.4033 85.176V90H27.0353ZM40.5913 90V88.704L40.5073 88.428V86.16C40.5073 85.72 40.3753 85.38 40.1113 85.14C39.8473 84.892 39.4473 84.768 38.9113 84.768C38.5513 84.768 38.1953 84.824 37.8433 84.936C37.4993 85.048 37.2073 85.204 36.9673 85.404L36.3793 84.312C36.7233 84.048 37.1313 83.852 37.6033 83.724C38.0833 83.588 38.5793 83.52 39.0913 83.52C40.0193 83.52 40.7353 83.744 41.2393 84.192C41.7513 84.632 42.0073 85.316 42.0073 86.244V90H40.5913ZM38.5753 90.084C38.0953 90.084 37.6753 90.004 37.3153 89.844C36.9553 89.676 36.6753 89.448 36.4753 89.16C36.2833 88.864 36.1873 88.532 36.1873 88.164C36.1873 87.804 36.2713 87.48 36.4393 87.192C36.6153 86.904 36.8993 86.676 37.2913 86.508C37.6833 86.34 38.2033 86.256 38.8513 86.256H40.7113V87.252H38.9593C38.4473 87.252 38.1033 87.336 37.9273 87.504C37.7513 87.664 37.6633 87.864 37.6633 88.104C37.6633 88.376 37.7713 88.592 37.9873 88.752C38.2033 88.912 38.5033 88.992 38.8873 88.992C39.2553 88.992 39.5833 88.908 39.8713 88.74C40.1673 88.572 40.3793 88.324 40.5073 87.996L40.7593 88.896C40.6153 89.272 40.3553 89.564 39.9793 89.772C39.6113 89.98 39.1433 90.084 38.5753 90.084ZM46.7795 90.084C46.1075 90.084 45.5075 89.944 44.9795 89.664C44.4595 89.376 44.0515 88.984 43.7555 88.488C43.4595 87.992 43.3115 87.428 43.3115 86.796C43.3115 86.156 43.4595 85.592 43.7555 85.104C44.0515 84.608 44.4595 84.22 44.9795 83.94C45.5075 83.66 46.1075 83.52 46.7795 83.52C47.4035 83.52 47.9515 83.648 48.4235 83.904C48.9035 84.152 49.2675 84.52 49.5155 85.008L48.3635 85.68C48.1715 85.376 47.9355 85.152 47.6555 85.008C47.3835 84.864 47.0875 84.792 46.7675 84.792C46.3995 84.792 46.0675 84.872 45.7715 85.032C45.4755 85.192 45.2435 85.424 45.0755 85.728C44.9075 86.024 44.8235 86.38 44.8235 86.796C44.8235 87.212 44.9075 87.572 45.0755 87.876C45.2435 88.172 45.4755 88.4 45.7715 88.56C46.0675 88.72 46.3995 88.8 46.7675 88.8C47.0875 88.8 47.3835 88.728 47.6555 88.584C47.9355 88.44 48.1715 88.216 48.3635 87.912L49.5155 88.584C49.2675 89.064 48.9035 89.436 48.4235 89.7C47.9515 89.956 47.4035 90.084 46.7795 90.084ZM55.4321 90L53.1161 86.928L54.3401 86.172L57.1961 90H55.4321ZM50.8361 90V83.592H52.3361V90H50.8361ZM51.8921 87.432V86.184H54.0641V87.432H51.8921ZM54.4841 86.976L53.0801 86.808L55.4321 83.592H57.0401L54.4841 86.976ZM58.4668 92.412C58.1548 92.412 57.8428 92.36 57.5308 92.256C57.2188 92.152 56.9588 92.008 56.7508 91.824L57.3508 90.72C57.5028 90.856 57.6748 90.964 57.8668 91.044C58.0588 91.124 58.2548 91.164 58.4548 91.164C58.7268 91.164 58.9468 91.096 59.1148 90.96C59.2828 90.824 59.4388 90.596 59.5828 90.276L59.9548 89.436L60.0748 89.256L62.4988 83.592H63.9388L60.9388 90.516C60.7388 90.996 60.5148 91.376 60.2668 91.656C60.0268 91.936 59.7548 92.132 59.4508 92.244C59.1548 92.356 58.8268 92.412 58.4668 92.412ZM59.7868 90.228L56.8948 83.592H58.4548L60.8068 89.124L59.7868 90.228Z" fill="white"/>
<g clip-path="url(#clip0_1357_56)">
<path d="M45 16.1667C48.5695 16.1665 52.0648 17.1853 55.0752 19.1031C58.0856 21.021 60.4861 23.7583 61.9944 26.9934C63.5028 30.2284 64.0564 33.8269 63.5902 37.3657C63.1239 40.9046 61.6573 44.2368 59.3625 46.9709C61.9771 48.7 63.5979 50.9084 63.7396 53.3229L63.75 53.6667L45 57.8334L26.25 53.6667L26.2604 53.3229C26.4 50.9063 28.0229 48.6979 30.6354 46.9688C27.7969 43.595 26.2434 39.3257 26.25 34.9167C26.25 29.9439 28.2255 25.1747 31.7418 21.6584C35.2581 18.1421 40.0272 16.1667 45 16.1667ZM45 20.3334C41.1323 20.3334 37.423 21.8698 34.688 24.6047C31.9531 27.3396 30.4167 31.0489 30.4167 34.9167C30.4167 38.1813 31.4875 41.2709 33.4271 43.7938L33.8271 44.2917L36.8334 47.8688L32.7459 50.575L32.4604 50.7771L45 53.5646L57.5375 50.7771L57.4354 50.7021L57.0646 50.4459L53.1667 47.8688L56.1729 44.2896C58.3819 41.6666 59.5901 38.3459 59.5834 34.9167C59.5834 31.0489 58.0469 27.3396 55.312 24.6047C52.5771 21.8698 48.8678 20.3334 45 20.3334ZM45 39.0834C47.875 39.0834 50.2084 40.4834 50.2084 42.2084C50.2084 43.9334 47.875 45.3334 45 45.3334C42.125 45.3334 39.7917 43.9334 39.7917 42.2084C39.7917 40.4834 42.125 39.0834 45 39.0834ZM38.75 28.6667C41.0521 28.6667 42.9167 30.0667 42.9167 31.7917C42.9167 33.5167 41.0521 34.9167 38.75 34.9167C36.4479 34.9167 34.5834 33.5167 34.5834 31.7917C34.5834 30.0667 36.4479 28.6667 38.75 28.6667ZM51.25 28.6667C53.5521 28.6667 55.4167 30.0667 55.4167 31.7917C55.4167 33.5167 53.5521 34.9167 51.25 34.9167C48.9479 34.9167 47.0834 33.5167 47.0834 31.7917C47.0834 30.0667 48.9479 28.6667 51.25 28.6667Z" fill="white"/>
</g>
<defs>
<clipPath id="clip0_1357_56">
<rect width="50" height="50" fill="white" transform="translate(20 12)"/>
</clipPath>
</defs>
</svg>
