<svg width="90" height="90" viewBox="0 0 90 90" fill="none" xmlns="http://www.w3.org/2000/svg">
<path d="M9.55397 77V67.2H11.038L15.336 74.354H14.538L18.766 67.2H20.25L20.278 77H18.542L18.528 69.902H18.892L15.308 75.88H14.496L10.856 69.902H11.276V77H9.55397ZM26.3104 77.098C25.4798 77.098 24.7518 76.9347 24.1264 76.608C23.5104 76.272 23.0298 75.8147 22.6844 75.236C22.3484 74.6573 22.1804 73.9993 22.1804 73.262C22.1804 72.5153 22.3438 71.8573 22.6704 71.288C23.0064 70.7093 23.4638 70.2567 24.0424 69.93C24.6304 69.6033 25.2978 69.44 26.0444 69.44C26.7724 69.44 27.4211 69.5987 27.9904 69.916C28.5598 70.2333 29.0078 70.6813 29.3344 71.26C29.6611 71.8387 29.8244 72.52 29.8244 73.304C29.8244 73.3787 29.8198 73.4627 29.8104 73.556C29.8104 73.6493 29.8058 73.738 29.7964 73.822H23.5664V72.66H28.8724L28.1864 73.024C28.1958 72.5947 28.1071 72.2167 27.9204 71.89C27.7338 71.5633 27.4771 71.3067 27.1504 71.12C26.8331 70.9333 26.4644 70.84 26.0444 70.84C25.6151 70.84 25.2371 70.9333 24.9104 71.12C24.5931 71.3067 24.3411 71.568 24.1544 71.904C23.9771 72.2307 23.8884 72.618 23.8884 73.066V73.346C23.8884 73.794 23.9911 74.1907 24.1964 74.536C24.4018 74.8813 24.6911 75.1473 25.0644 75.334C25.4378 75.5207 25.8671 75.614 26.3524 75.614C26.7724 75.614 27.1504 75.5487 27.4864 75.418C27.8224 75.2873 28.1211 75.082 28.3824 74.802L29.3204 75.88C28.9844 76.272 28.5598 76.5753 28.0464 76.79C27.5424 76.9953 26.9638 77.098 26.3104 77.098ZM36.7668 76.188V71.008H33.8968L33.8548 72.212C33.8361 72.6413 33.8081 73.0567 33.7708 73.458C33.7335 73.85 33.6728 74.214 33.5888 74.55C33.5048 74.8767 33.3835 75.1473 33.2248 75.362C33.0661 75.5767 32.8561 75.7167 32.5948 75.782L30.8588 75.516C31.1388 75.516 31.3628 75.4273 31.5308 75.25C31.7081 75.0633 31.8435 74.8113 31.9368 74.494C32.0395 74.1673 32.1141 73.7987 32.1608 73.388C32.2075 72.968 32.2401 72.534 32.2588 72.086L32.3568 69.524H38.5168V76.188H36.7668ZM30.5928 78.666V75.516H39.6228V78.666H37.9848V77H32.2168V78.666H30.5928ZM46.5478 77L43.8458 73.416L45.2738 72.534L48.6058 77H46.5478ZM41.1858 77V69.524H42.9358V77H41.1858ZM42.4178 74.004V72.548H44.9518V74.004H42.4178ZM45.4418 73.472L43.8038 73.276L46.5478 69.524H48.4238L45.4418 73.472ZM54.2393 77V75.488L54.1413 75.166V72.52C54.1413 72.0067 53.9873 71.61 53.6793 71.33C53.3713 71.0407 52.9047 70.896 52.2793 70.896C51.8593 70.896 51.444 70.9613 51.0333 71.092C50.632 71.2227 50.2913 71.4047 50.0113 71.638L49.3253 70.364C49.7267 70.056 50.2027 69.8273 50.7533 69.678C51.3133 69.5193 51.892 69.44 52.4893 69.44C53.572 69.44 54.4073 69.7013 54.9953 70.224C55.5927 70.7373 55.8913 71.5353 55.8913 72.618V77H54.2393ZM51.8873 77.098C51.3273 77.098 50.8373 77.0047 50.4173 76.818C49.9973 76.622 49.6707 76.356 49.4373 76.02C49.2133 75.6747 49.1013 75.2873 49.1013 74.858C49.1013 74.438 49.1993 74.06 49.3953 73.724C49.6007 73.388 49.932 73.122 50.3893 72.926C50.8467 72.73 51.4533 72.632 52.2093 72.632H54.3793V73.794H52.3353C51.738 73.794 51.3367 73.892 51.1313 74.088C50.926 74.2747 50.8233 74.508 50.8233 74.788C50.8233 75.1053 50.9493 75.3573 51.2013 75.544C51.4533 75.7307 51.8033 75.824 52.2513 75.824C52.6807 75.824 53.0633 75.726 53.3993 75.53C53.7447 75.334 53.992 75.0447 54.1413 74.662L54.4353 75.712C54.2673 76.1507 53.964 76.4913 53.5253 76.734C53.096 76.9767 52.55 77.098 51.8873 77.098ZM62.2009 77.098C61.5942 77.098 61.0389 76.958 60.5349 76.678C60.0402 76.398 59.6435 75.978 59.3449 75.418C59.0555 74.8487 58.9109 74.13 58.9109 73.262C58.9109 72.3847 59.0509 71.666 59.3309 71.106C59.6202 70.546 60.0122 70.1307 60.5069 69.86C61.0015 69.58 61.5662 69.44 62.2009 69.44C62.9382 69.44 63.5869 69.5987 64.1469 69.916C64.7162 70.2333 65.1642 70.6767 65.4909 71.246C65.8269 71.8153 65.9949 72.4873 65.9949 73.262C65.9949 74.0367 65.8269 74.7133 65.4909 75.292C65.1642 75.8613 64.7162 76.3047 64.1469 76.622C63.5869 76.9393 62.9382 77.098 62.2009 77.098ZM58.0569 79.716V69.524H59.7229V71.288L59.6669 73.276L59.8069 75.264V79.716H58.0569ZM62.0049 75.6C62.4249 75.6 62.7982 75.5067 63.1249 75.32C63.4609 75.1333 63.7269 74.8627 63.9229 74.508C64.1189 74.1533 64.2169 73.738 64.2169 73.262C64.2169 72.7767 64.1189 72.3613 63.9229 72.016C63.7269 71.6613 63.4609 71.3907 63.1249 71.204C62.7982 71.0173 62.4249 70.924 62.0049 70.924C61.5849 70.924 61.2069 71.0173 60.8709 71.204C60.5349 71.3907 60.2689 71.6613 60.0729 72.016C59.8769 72.3613 59.7789 72.7767 59.7789 73.262C59.7789 73.738 59.8769 74.1533 60.0729 74.508C60.2689 74.8627 60.5349 75.1333 60.8709 75.32C61.2069 75.5067 61.5849 75.6 62.0049 75.6ZM69.0171 77V70.588L69.4231 71.008H66.3851V69.524H73.3851V71.008H70.3611L70.7671 70.588V77H69.0171ZM79.1905 77V75.488L79.0925 75.166V72.52C79.0925 72.0067 78.9385 71.61 78.6305 71.33C78.3225 71.0407 77.8558 70.896 77.2305 70.896C76.8105 70.896 76.3952 70.9613 75.9845 71.092C75.5832 71.2227 75.2425 71.4047 74.9625 71.638L74.2765 70.364C74.6778 70.056 75.1538 69.8273 75.7045 69.678C76.2645 69.5193 76.8432 69.44 77.4405 69.44C78.5232 69.44 79.3585 69.7013 79.9465 70.224C80.5438 70.7373 80.8425 71.5353 80.8425 72.618V77H79.1905ZM76.8385 77.098C76.2785 77.098 75.7885 77.0047 75.3685 76.818C74.9485 76.622 74.6218 76.356 74.3885 76.02C74.1645 75.6747 74.0525 75.2873 74.0525 74.858C74.0525 74.438 74.1505 74.06 74.3465 73.724C74.5518 73.388 74.8832 73.122 75.3405 72.926C75.7978 72.73 76.4045 72.632 77.1605 72.632H79.3305V73.794H77.2865C76.6892 73.794 76.2878 73.892 76.0825 74.088C75.8772 74.2747 75.7745 74.508 75.7745 74.788C75.7745 75.1053 75.9005 75.3573 76.1525 75.544C76.4045 75.7307 76.7545 75.824 77.2025 75.824C77.6318 75.824 78.0145 75.726 78.3505 75.53C78.6958 75.334 78.9432 75.0447 79.0925 74.662L79.3865 75.712C79.2185 76.1507 78.9152 76.4913 78.4765 76.734C78.0472 76.9767 77.5012 77.098 76.8385 77.098Z" fill="white"/>
<g clip-path="url(#clip0_1337_475)">
<path d="M61.6667 14.1667C62.8167 14.1667 63.75 15.1 63.75 16.25V53.75C63.75 54.9 62.8167 55.8334 61.6667 55.8334H32.5C31.35 55.8334 30.4167 54.9 30.4167 53.75V49.5834H26.25V45.4167H30.4167V41.25H26.25V37.0834H30.4167V32.9167H26.25V28.75H30.4167V24.5834H26.25V20.4167H30.4167V16.25C30.4167 15.1 31.35 14.1667 32.5 14.1667H61.6667ZM49.1667 26.6667H45V32.9167H38.75V37.0834H44.9979L45 43.3334H49.1667L49.1646 37.0834H55.4167V32.9167H49.1667V26.6667Z" fill="white"/>
</g>
<defs>
<clipPath id="clip0_1337_475">
<rect width="50" height="50" fill="white" transform="translate(20 10)"/>
</clipPath>
</defs>
</svg>
