<svg width="90" height="90" viewBox="0 0 90 90" fill="none" xmlns="http://www.w3.org/2000/svg">
<path d="M23.2427 75V66.6H26.9987C27.9427 66.6 28.6787 66.788 29.2067 67.164C29.7347 67.532 29.9987 68.064 29.9987 68.76C29.9987 69.448 29.7467 69.98 29.2427 70.356C28.7387 70.724 28.0747 70.908 27.2507 70.908L27.4667 70.476C28.4027 70.476 29.1267 70.664 29.6387 71.04C30.1507 71.416 30.4067 71.96 30.4067 72.672C30.4067 73.4 30.1387 73.972 29.6027 74.388C29.0667 74.796 28.2747 75 27.2267 75H23.2427ZM24.7787 73.8H27.1787C27.7227 73.8 28.1347 73.7 28.4147 73.5C28.6947 73.292 28.8347 72.976 28.8347 72.552C28.8347 72.128 28.6947 71.82 28.4147 71.628C28.1347 71.428 27.7227 71.328 27.1787 71.328H24.7787V73.8ZM24.7787 70.188H26.8667C27.3707 70.188 27.7547 70.088 28.0187 69.888C28.2827 69.68 28.4147 69.384 28.4147 69C28.4147 68.6 28.2827 68.3 28.0187 68.1C27.7547 67.9 27.3707 67.8 26.8667 67.8H24.7787V70.188ZM36.4482 72.3V71.22H39.9282V72.3H36.4482ZM37.3242 68.496C38.0122 68.496 38.6202 68.64 39.1482 68.928C39.6762 69.208 40.0922 69.596 40.3962 70.092C40.7002 70.58 40.8522 71.148 40.8522 71.796C40.8522 72.436 40.7002 73.008 40.3962 73.512C40.0922 74.008 39.6762 74.4 39.1482 74.688C38.6202 74.968 38.0122 75.108 37.3242 75.108C36.7482 75.108 36.2202 75.012 35.7402 74.82C35.2602 74.628 34.8602 74.352 34.5402 73.992L35.4042 73.152C35.6602 73.4 35.9402 73.588 36.2442 73.716C36.5562 73.844 36.8962 73.908 37.2642 73.908C37.6962 73.908 38.0762 73.82 38.4042 73.644C38.7322 73.46 38.9922 73.208 39.1842 72.888C39.3762 72.568 39.4722 72.204 39.4722 71.796C39.4722 71.38 39.3762 71.016 39.1842 70.704C38.9922 70.384 38.7322 70.136 38.4042 69.96C38.0762 69.776 37.6962 69.684 37.2642 69.684C36.8962 69.684 36.5562 69.748 36.2442 69.876C35.9402 70.004 35.6602 70.196 35.4042 70.452L34.5402 69.612C34.8602 69.252 35.2602 68.976 35.7402 68.784C36.2202 68.592 36.7482 68.496 37.3242 68.496ZM46.3729 75.12C46.3649 75.12 46.3289 75.12 46.2649 75.12C46.2089 75.12 46.1529 75.12 46.0969 75.12C46.0489 75.12 46.0169 75.12 46.0009 75.12C44.6489 75.104 43.6009 74.812 42.8569 74.244C42.1129 73.668 41.7409 72.848 41.7409 71.784C41.7409 70.728 42.1129 69.92 42.8569 69.36C43.6009 68.8 44.6609 68.512 46.0369 68.496C46.0529 68.496 46.0849 68.496 46.1329 68.496C46.1889 68.496 46.2409 68.496 46.2889 68.496C46.3449 68.496 46.3769 68.496 46.3849 68.496C47.7689 68.496 48.8449 68.78 49.6129 69.348C50.3889 69.908 50.7769 70.72 50.7769 71.784C50.7769 72.856 50.3889 73.68 49.6129 74.256C48.8449 74.832 47.7649 75.12 46.3729 75.12ZM46.3249 73.872C47.0049 73.872 47.5649 73.796 48.0049 73.644C48.4449 73.484 48.7729 73.252 48.9889 72.948C49.2049 72.636 49.3129 72.248 49.3129 71.784C49.3129 71.328 49.2049 70.952 48.9889 70.656C48.7729 70.352 48.4449 70.128 48.0049 69.984C47.5649 69.832 47.0049 69.756 46.3249 69.756C46.3089 69.756 46.2689 69.756 46.2049 69.756C46.1489 69.756 46.1129 69.756 46.0969 69.756C45.4329 69.756 44.8889 69.836 44.4649 69.996C44.0409 70.148 43.7249 70.372 43.5169 70.668C43.3169 70.964 43.2169 71.336 43.2169 71.784C43.2169 72.24 43.3169 72.62 43.5169 72.924C43.7249 73.228 44.0409 73.46 44.4649 73.62C44.8969 73.78 45.4409 73.864 46.0969 73.872C46.1129 73.872 46.1489 73.872 46.2049 73.872C46.2689 73.872 46.3089 73.872 46.3249 73.872ZM45.5449 77.328V66.096H46.9609V77.328H45.5449ZM52.2307 75V68.592H53.7307V72.816L57.2707 68.592H58.6387V75H57.1387V70.776L53.6107 75H52.2307ZM64.2084 75.084C63.6884 75.084 63.2124 74.964 62.7804 74.724C62.3564 74.484 62.0164 74.124 61.7604 73.644C61.5124 73.156 61.3884 72.54 61.3884 71.796C61.3884 71.044 61.5084 70.428 61.7484 69.948C61.9964 69.468 62.3324 69.112 62.7564 68.88C63.1804 68.64 63.6644 68.52 64.2084 68.52C64.8404 68.52 65.3964 68.656 65.8764 68.928C66.3644 69.2 66.7484 69.58 67.0284 70.068C67.3164 70.556 67.4604 71.132 67.4604 71.796C67.4604 72.46 67.3164 73.04 67.0284 73.536C66.7484 74.024 66.3644 74.404 65.8764 74.676C65.3964 74.948 64.8404 75.084 64.2084 75.084ZM60.6564 77.328V68.592H62.0844V70.104L62.0364 71.808L62.1564 73.512V77.328H60.6564ZM64.0404 73.8C64.4004 73.8 64.7204 73.72 65.0004 73.56C65.2884 73.4 65.5164 73.168 65.6844 72.864C65.8524 72.56 65.9364 72.204 65.9364 71.796C65.9364 71.38 65.8524 71.024 65.6844 70.728C65.5164 70.424 65.2884 70.192 65.0004 70.032C64.7204 69.872 64.4004 69.792 64.0404 69.792C63.6804 69.792 63.3564 69.872 63.0684 70.032C62.7804 70.192 62.5524 70.424 62.3844 70.728C62.2164 71.024 62.1324 71.38 62.1324 71.796C62.1324 72.204 62.2164 72.56 62.3844 72.864C62.5524 73.168 62.7804 73.4 63.0684 73.56C63.3564 73.72 63.6804 73.8 64.0404 73.8Z" fill="white"/>
<path d="M33.2141 23.2889C34.0277 24.1025 34.0277 25.4216 33.2141 26.2352C26.7033 32.746 26.7033 43.3022 33.2141 49.813C34.0277 50.6266 34.0277 51.9457 33.2141 52.7593C32.4005 53.5729 31.0814 53.5729 30.2678 52.7593C22.1298 44.6213 22.1298 31.4269 30.2678 23.2889C31.0814 22.4753 32.4005 22.4753 33.2141 23.2889ZM59.7382 23.2889C67.8762 31.4269 67.8762 44.6213 59.7382 52.7593C58.9246 53.5729 57.6055 53.5729 56.7919 52.7593C55.9783 51.9457 55.9783 50.6266 56.7919 49.813C63.3028 43.3022 63.3028 32.746 56.7919 26.2352C55.9783 25.4216 55.9783 24.1025 56.7919 23.2889C57.6055 22.4753 58.9246 22.4753 59.7382 23.2889ZM39.3946 29.2751C40.2082 30.0887 40.2082 31.4078 39.3946 32.2214C36.2051 35.4109 36.2051 40.5821 39.3946 43.7716C40.2082 44.5852 40.2082 45.9043 39.3946 46.7179C38.581 47.5315 37.2619 47.5315 36.4483 46.7179C31.6317 41.9012 31.6317 34.0918 36.4483 29.2751C37.2619 28.4615 38.581 28.4615 39.3946 29.2751ZM53.8911 29.2751C58.7078 34.0918 58.7078 41.9012 53.8911 46.7179C53.0775 47.5315 51.7584 47.5315 50.9448 46.7179C50.1312 45.9043 50.1312 44.5852 50.9448 43.7716C54.1343 40.5821 54.1343 35.4109 50.9448 32.2214C50.1312 31.4078 50.1312 30.0887 50.9448 29.2751C51.7584 28.4615 53.0775 28.4615 53.8911 29.2751ZM45.1697 35.0447C46.8956 35.0447 48.2947 36.4438 48.2947 38.1697C48.2947 39.8956 46.8956 41.2947 45.1697 41.2947C43.4438 41.2947 42.0447 39.8956 42.0447 38.1697C42.0447 36.4438 43.4438 35.0447 45.1697 35.0447Z" fill="white"/>
</svg>
