<svg width="90" height="97" viewBox="0 0 90 97" fill="none" xmlns="http://www.w3.org/2000/svg">
<path d="M20.6965 77V67.2H29.3625V77H27.5705V68.292L27.9905 68.74H22.0685L22.4885 68.292V77H20.6965ZM36.0739 77.098C35.4672 77.098 34.9119 76.958 34.4079 76.678C33.9132 76.398 33.5166 75.978 33.2179 75.418C32.9286 74.8487 32.7839 74.13 32.7839 73.262C32.7839 72.3847 32.9239 71.666 33.2039 71.106C33.4932 70.546 33.8852 70.1307 34.3799 69.86C34.8746 69.58 35.4392 69.44 36.0739 69.44C36.8112 69.44 37.4599 69.5987 38.0199 69.916C38.5892 70.2333 39.0372 70.6767 39.3639 71.246C39.6999 71.8153 39.8679 72.4873 39.8679 73.262C39.8679 74.0367 39.6999 74.7133 39.3639 75.292C39.0372 75.8613 38.5892 76.3047 38.0199 76.622C37.4599 76.9393 36.8112 77.098 36.0739 77.098ZM31.9299 79.716V69.524H33.5959V71.288L33.5399 73.276L33.6799 75.264V79.716H31.9299ZM35.8779 75.6C36.2979 75.6 36.6712 75.5067 36.9979 75.32C37.3339 75.1333 37.5999 74.8627 37.7959 74.508C37.9919 74.1533 38.0899 73.738 38.0899 73.262C38.0899 72.7767 37.9919 72.3613 37.7959 72.016C37.5999 71.6613 37.3339 71.3907 36.9979 71.204C36.6712 71.0173 36.2979 70.924 35.8779 70.924C35.4579 70.924 35.0799 71.0173 34.7439 71.204C34.4079 71.3907 34.1419 71.6613 33.9459 72.016C33.7499 72.3613 33.6519 72.7767 33.6519 73.262C33.6519 73.738 33.7499 74.1533 33.9459 74.508C34.1419 74.8627 34.4079 75.1333 34.7439 75.32C35.0799 75.5067 35.4579 75.6 35.8779 75.6ZM45.0956 77.098C44.2649 77.098 43.5369 76.9347 42.9116 76.608C42.2956 76.272 41.8149 75.8147 41.4696 75.236C41.1336 74.6573 40.9656 73.9993 40.9656 73.262C40.9656 72.5153 41.1289 71.8573 41.4556 71.288C41.7916 70.7093 42.2489 70.2567 42.8276 69.93C43.4156 69.6033 44.0829 69.44 44.8296 69.44C45.5576 69.44 46.2063 69.5987 46.7756 69.916C47.3449 70.2333 47.7929 70.6813 48.1196 71.26C48.4463 71.8387 48.6096 72.52 48.6096 73.304C48.6096 73.3787 48.6049 73.4627 48.5956 73.556C48.5956 73.6493 48.5909 73.738 48.5816 73.822H42.3516V72.66H47.6576L46.9716 73.024C46.9809 72.5947 46.8923 72.2167 46.7056 71.89C46.5189 71.5633 46.2623 71.3067 45.9356 71.12C45.6183 70.9333 45.2496 70.84 44.8296 70.84C44.4003 70.84 44.0223 70.9333 43.6956 71.12C43.3783 71.3067 43.1263 71.568 42.9396 71.904C42.7623 72.2307 42.6736 72.618 42.6736 73.066V73.346C42.6736 73.794 42.7763 74.1907 42.9816 74.536C43.1869 74.8813 43.4763 75.1473 43.8496 75.334C44.2229 75.5207 44.6523 75.614 45.1376 75.614C45.5576 75.614 45.9356 75.5487 46.2716 75.418C46.6076 75.2873 46.9063 75.082 47.1676 74.802L48.1056 75.88C47.7696 76.272 47.3449 76.5753 46.8316 76.79C46.3276 76.9953 45.7489 77.098 45.0956 77.098ZM53.9257 77.098C53.1417 77.098 52.4417 76.9347 51.8257 76.608C51.219 76.272 50.743 75.8147 50.3977 75.236C50.0523 74.6573 49.8797 73.9993 49.8797 73.262C49.8797 72.5153 50.0523 71.8573 50.3977 71.288C50.743 70.7093 51.219 70.2567 51.8257 69.93C52.4417 69.6033 53.1417 69.44 53.9257 69.44C54.6537 69.44 55.293 69.5893 55.8437 69.888C56.4037 70.1773 56.8283 70.6067 57.1177 71.176L55.7737 71.96C55.5497 71.6053 55.2743 71.344 54.9477 71.176C54.6303 71.008 54.285 70.924 53.9117 70.924C53.4823 70.924 53.095 71.0173 52.7497 71.204C52.4043 71.3907 52.1337 71.6613 51.9377 72.016C51.7417 72.3613 51.6437 72.7767 51.6437 73.262C51.6437 73.7473 51.7417 74.1673 51.9377 74.522C52.1337 74.8673 52.4043 75.1333 52.7497 75.32C53.095 75.5067 53.4823 75.6 53.9117 75.6C54.285 75.6 54.6303 75.516 54.9477 75.348C55.2743 75.18 55.5497 74.9187 55.7737 74.564L57.1177 75.348C56.8283 75.908 56.4037 76.342 55.8437 76.65C55.293 76.9487 54.6537 77.098 53.9257 77.098ZM61.951 77.098C61.167 77.098 60.467 76.9347 59.851 76.608C59.2444 76.272 58.7684 75.8147 58.423 75.236C58.0777 74.6573 57.905 73.9993 57.905 73.262C57.905 72.5153 58.0777 71.8573 58.423 71.288C58.7684 70.7093 59.2444 70.2567 59.851 69.93C60.467 69.6033 61.167 69.44 61.951 69.44C62.679 69.44 63.3184 69.5893 63.869 69.888C64.429 70.1773 64.8537 70.6067 65.143 71.176L63.799 71.96C63.575 71.6053 63.2997 71.344 62.973 71.176C62.6557 71.008 62.3104 70.924 61.937 70.924C61.5077 70.924 61.1204 71.0173 60.775 71.204C60.4297 71.3907 60.159 71.6613 59.963 72.016C59.767 72.3613 59.669 72.7767 59.669 73.262C59.669 73.7473 59.767 74.1673 59.963 74.522C60.159 74.8673 60.4297 75.1333 60.775 75.32C61.1204 75.5067 61.5077 75.6 61.937 75.6C62.3104 75.6 62.6557 75.516 62.973 75.348C63.2997 75.18 63.575 74.9187 63.799 74.564L65.143 75.348C64.8537 75.908 64.429 76.342 63.869 76.65C63.3184 76.9487 62.679 77.098 61.951 77.098ZM66.0727 73.836V72.38H69.9227V73.836H66.0727ZM30.6269 94L27.9249 90.416L29.3529 89.534L32.6849 94H30.6269ZM25.2649 94V86.524H27.0149V94H25.2649ZM26.4969 91.004V89.548H29.0309V91.004H26.4969ZM29.5209 90.472L27.8829 90.276L30.6269 86.524H32.5029L29.5209 90.472ZM38.3184 94V92.488L38.2204 92.166V89.52C38.2204 89.0067 38.0664 88.61 37.7584 88.33C37.4504 88.0407 36.9838 87.896 36.3584 87.896C35.9384 87.896 35.5231 87.9613 35.1124 88.092C34.7111 88.2227 34.3704 88.4047 34.0904 88.638L33.4044 87.364C33.8058 87.056 34.2818 86.8273 34.8324 86.678C35.3924 86.5193 35.9711 86.44 36.5684 86.44C37.6511 86.44 38.4864 86.7013 39.0744 87.224C39.6718 87.7373 39.9704 88.5353 39.9704 89.618V94H38.3184ZM35.9664 94.098C35.4064 94.098 34.9164 94.0047 34.4964 93.818C34.0764 93.622 33.7498 93.356 33.5164 93.02C33.2924 92.6747 33.1804 92.2873 33.1804 91.858C33.1804 91.438 33.2784 91.06 33.4744 90.724C33.6798 90.388 34.0111 90.122 34.4684 89.926C34.9258 89.73 35.5324 89.632 36.2884 89.632H38.4584V90.794H36.4144C35.8171 90.794 35.4158 90.892 35.2104 91.088C35.0051 91.2747 34.9024 91.508 34.9024 91.788C34.9024 92.1053 35.0284 92.3573 35.2804 92.544C35.5324 92.7307 35.8824 92.824 36.3304 92.824C36.7598 92.824 37.1424 92.726 37.4784 92.53C37.8238 92.334 38.0711 92.0447 38.2204 91.662L38.5144 92.712C38.3464 93.1507 38.0431 93.4913 37.6044 93.734C37.1751 93.9767 36.6291 94.098 35.9664 94.098ZM46.28 94.098C45.6733 94.098 45.118 93.958 44.614 93.678C44.1193 93.398 43.7226 92.978 43.424 92.418C43.1346 91.8487 42.99 91.13 42.99 90.262C42.99 89.3847 43.13 88.666 43.41 88.106C43.6993 87.546 44.0913 87.1307 44.586 86.86C45.0806 86.58 45.6453 86.44 46.28 86.44C47.0173 86.44 47.666 86.5987 48.226 86.916C48.7953 87.2333 49.2433 87.6767 49.57 88.246C49.906 88.8153 50.074 89.4873 50.074 90.262C50.074 91.0367 49.906 91.7133 49.57 92.292C49.2433 92.8613 48.7953 93.3047 48.226 93.622C47.666 93.9393 47.0173 94.098 46.28 94.098ZM42.136 96.716V86.524H43.802V88.288L43.746 90.276L43.886 92.264V96.716H42.136ZM46.084 92.6C46.504 92.6 46.8773 92.5067 47.204 92.32C47.54 92.1333 47.806 91.8627 48.002 91.508C48.198 91.1533 48.296 90.738 48.296 90.262C48.296 89.7767 48.198 89.3613 48.002 89.016C47.806 88.6613 47.54 88.3907 47.204 88.204C46.8773 88.0173 46.504 87.924 46.084 87.924C45.664 87.924 45.286 88.0173 44.95 88.204C44.614 88.3907 44.348 88.6613 44.152 89.016C43.956 89.3613 43.858 89.7767 43.858 90.262C43.858 90.738 43.956 91.1533 44.152 91.508C44.348 91.8627 44.614 92.1333 44.95 92.32C45.286 92.5067 45.664 92.6 46.084 92.6ZM53.0962 94V87.588L53.5022 88.008H50.4642V86.524H57.4642V88.008H54.4402L54.8462 87.588V94H53.0962ZM63.2696 94V92.488L63.1716 92.166V89.52C63.1716 89.0067 63.0176 88.61 62.7096 88.33C62.4016 88.0407 61.935 87.896 61.3096 87.896C60.8896 87.896 60.4743 87.9613 60.0636 88.092C59.6623 88.2227 59.3216 88.4047 59.0416 88.638L58.3556 87.364C58.757 87.056 59.233 86.8273 59.7836 86.678C60.3436 86.5193 60.9223 86.44 61.5196 86.44C62.6023 86.44 63.4376 86.7013 64.0256 87.224C64.623 87.7373 64.9216 88.5353 64.9216 89.618V94H63.2696ZM60.9176 94.098C60.3576 94.098 59.8676 94.0047 59.4476 93.818C59.0276 93.622 58.701 93.356 58.4676 93.02C58.2436 92.6747 58.1316 92.2873 58.1316 91.858C58.1316 91.438 58.2296 91.06 58.4256 90.724C58.631 90.388 58.9623 90.122 59.4196 89.926C59.877 89.73 60.4836 89.632 61.2396 89.632H63.4096V90.794H61.3656C60.7683 90.794 60.367 90.892 60.1616 91.088C59.9563 91.2747 59.8536 91.508 59.8536 91.788C59.8536 92.1053 59.9796 92.3573 60.2316 92.544C60.4836 92.7307 60.8336 92.824 61.2816 92.824C61.711 92.824 62.0936 92.726 62.4296 92.53C62.775 92.334 63.0223 92.0447 63.1716 91.662L63.4656 92.712C63.2976 93.1507 62.9943 93.4913 62.5556 93.734C62.1263 93.9767 61.5803 94.098 60.9176 94.098Z" fill="white"/>
<path d="M59.2669 5H30.7354C27.5671 5 25 7.70214 25 11.0342V51.9658C25 55.2979 27.5671 58 30.7354 58H59.2646C62.4329 58 65 55.2979 65 51.9658V11.0342C65.0023 7.70214 62.4317 5 59.2669 5ZM30.3753 25.3414C30.3753 23.927 31.4661 22.7817 32.8082 22.7817H33.6593C32.752 21.7269 32.1945 20.3318 32.1945 18.7943C32.1945 15.508 34.7284 12.8433 37.8519 12.8433C40.9778 12.8433 43.5093 15.5068 43.5093 18.7955C43.5093 20.3306 42.9519 21.7269 42.0422 22.7817H42.8555C44.1999 22.7817 45.2885 23.927 45.2885 25.3414V29.6596C45.2885 31.0136 44.2848 32.1095 43.023 32.2012H32.6407C31.3789 32.1095 30.3753 31.0136 30.3753 29.6596V25.3414ZM57.3317 50.1555H32.6694C31.403 50.1555 30.3753 49.0741 30.3753 47.7418C30.3753 46.4094 31.403 45.3281 32.6694 45.3281H57.3317C58.5981 45.3281 59.6259 46.4094 59.6259 47.7418C59.6259 49.0741 58.5981 50.1555 57.3317 50.1555ZM57.3317 41.1041H32.6694C31.403 41.1041 30.3753 40.0228 30.3753 38.6904C30.3753 37.358 31.403 36.2767 32.6694 36.2767H57.3317C58.5981 36.2767 59.6259 37.358 59.6259 38.6904C59.6259 40.0228 58.5981 41.1041 57.3317 41.1041ZM57.3317 32.0527H49.8757C48.6092 32.0527 47.5815 30.9714 47.5815 29.639C47.5815 28.3067 48.6092 27.2253 49.8757 27.2253H57.3317C58.5981 27.2253 59.6259 28.3067 59.6259 29.639C59.6259 30.9714 58.5981 32.0527 57.3317 32.0527Z" fill="white"/>
</svg>
