<svg width="90" height="90" viewBox="0 0 90 90" fill="none" xmlns="http://www.w3.org/2000/svg">
<path d="M11.34 23.16V15.74H7.50401L7.43401 17.476C7.40601 18.1293 7.36401 18.75 7.30801 19.338C7.26134 19.9167 7.18201 20.444 7.07001 20.92C6.96734 21.396 6.82267 21.7927 6.63601 22.11C6.44934 22.4273 6.22067 22.6373 5.95001 22.74L3.99001 22.46C4.34467 22.4787 4.63401 22.3573 4.85801 22.096C5.09134 21.8347 5.27334 21.4707 5.40401 21.004C5.53467 20.5373 5.63267 19.9913 5.69801 19.366C5.76334 18.7313 5.81001 18.0453 5.83801 17.308L5.95001 14.2H13.132V23.16H11.34ZM3.65401 26.086L3.66801 22.46H14.546V26.086H12.866V24H5.34801V26.086H3.65401ZM20.5997 24V22.488L20.5017 22.166V19.52C20.5017 19.0067 20.3477 18.61 20.0397 18.33C19.7317 18.0407 19.265 17.896 18.6397 17.896C18.2197 17.896 17.8044 17.9613 17.3937 18.092C16.9924 18.2227 16.6517 18.4047 16.3717 18.638L15.6857 17.364C16.087 17.056 16.563 16.8273 17.1137 16.678C17.6737 16.5193 18.2524 16.44 18.8497 16.44C19.9324 16.44 20.7677 16.7013 21.3557 17.224C21.953 17.7373 22.2517 18.5353 22.2517 19.618V24H20.5997ZM18.2477 24.098C17.6877 24.098 17.1977 24.0047 16.7777 23.818C16.3577 23.622 16.031 23.356 15.7977 23.02C15.5737 22.6747 15.4617 22.2873 15.4617 21.858C15.4617 21.438 15.5597 21.06 15.7557 20.724C15.961 20.388 16.2924 20.122 16.7497 19.926C17.207 19.73 17.8137 19.632 18.5697 19.632H20.7397V20.794H18.6957C18.0984 20.794 17.697 20.892 17.4917 21.088C17.2864 21.2747 17.1837 21.508 17.1837 21.788C17.1837 22.1053 17.3097 22.3573 17.5617 22.544C17.8137 22.7307 18.1637 22.824 18.6117 22.824C19.041 22.824 19.4237 22.726 19.7597 22.53C20.105 22.334 20.3524 22.0447 20.5017 21.662L20.7957 22.712C20.6277 23.1507 20.3244 23.4913 19.8857 23.734C19.4564 23.9767 18.9104 24.098 18.2477 24.098ZM25.9712 24V17.588L26.3772 18.008H23.3392V16.524H30.3392V18.008H27.3152L27.7212 17.588V24H25.9712ZM35.3606 18.988C36.322 18.988 37.0546 19.2027 37.5586 19.632C38.0626 20.0613 38.3146 20.668 38.3146 21.452C38.3146 22.264 38.0346 22.8987 37.4746 23.356C36.9146 23.804 36.126 24.0233 35.1086 24.014L31.6086 24V16.524H33.3586V18.974L35.3606 18.988ZM34.9546 22.726C35.468 22.7353 35.86 22.628 36.1306 22.404C36.4013 22.18 36.5366 21.8533 36.5366 21.424C36.5366 20.9947 36.4013 20.6867 36.1306 20.5C35.8693 20.304 35.4773 20.2013 34.9546 20.192L33.3586 20.178V22.712L34.9546 22.726ZM48.8459 23.188V18.008H45.9759L45.9339 19.212C45.9152 19.6413 45.8872 20.0567 45.8499 20.458C45.8126 20.85 45.7519 21.214 45.6679 21.55C45.5839 21.8767 45.4626 22.1473 45.3039 22.362C45.1452 22.5767 44.9352 22.7167 44.6739 22.782L42.9379 22.516C43.2179 22.516 43.4419 22.4273 43.6099 22.25C43.7872 22.0633 43.9226 21.8113 44.0159 21.494C44.1186 21.1673 44.1932 20.7987 44.2399 20.388C44.2866 19.968 44.3192 19.534 44.3379 19.086L44.4359 16.524H50.5959V23.188H48.8459ZM42.6719 25.666V22.516H51.7019V25.666H50.0639V24H44.2959V25.666H42.6719ZM56.7509 24.098C55.9202 24.098 55.1922 23.9347 54.5669 23.608C53.9509 23.272 53.4702 22.8147 53.1249 22.236C52.7889 21.6573 52.6209 20.9993 52.6209 20.262C52.6209 19.5153 52.7842 18.8573 53.1109 18.288C53.4469 17.7093 53.9042 17.2567 54.4829 16.93C55.0709 16.6033 55.7382 16.44 56.4849 16.44C57.2129 16.44 57.8615 16.5987 58.4309 16.916C59.0002 17.2333 59.4482 17.6813 59.7749 18.26C60.1015 18.8387 60.2649 19.52 60.2649 20.304C60.2649 20.3787 60.2602 20.4627 60.2509 20.556C60.2509 20.6493 60.2462 20.738 60.2369 20.822H54.0069V19.66H59.3129L58.6269 20.024C58.6362 19.5947 58.5475 19.2167 58.3609 18.89C58.1742 18.5633 57.9175 18.3067 57.5909 18.12C57.2735 17.9333 56.9049 17.84 56.4849 17.84C56.0555 17.84 55.6775 17.9333 55.3509 18.12C55.0335 18.3067 54.7815 18.568 54.5949 18.904C54.4175 19.2307 54.3289 19.618 54.3289 20.066V20.346C54.3289 20.794 54.4315 21.1907 54.6369 21.536C54.8422 21.8813 55.1315 22.1473 55.5049 22.334C55.8782 22.5207 56.3075 22.614 56.7929 22.614C57.2129 22.614 57.5909 22.5487 57.9269 22.418C58.2629 22.2873 58.5615 22.082 58.8229 21.802L59.7609 22.88C59.4249 23.272 59.0002 23.5753 58.4869 23.79C57.9829 23.9953 57.4042 24.098 56.7509 24.098ZM62.1789 24V16.524H63.9289V19.562H67.6949V16.524H69.4449V24H67.6949V21.046H63.9289V24H62.1789ZM75.2763 24.098C74.4456 24.098 73.7176 23.9347 73.0923 23.608C72.4763 23.272 71.9956 22.8147 71.6503 22.236C71.3143 21.6573 71.1463 20.9993 71.1463 20.262C71.1463 19.5153 71.3096 18.8573 71.6363 18.288C71.9723 17.7093 72.4296 17.2567 73.0083 16.93C73.5963 16.6033 74.2636 16.44 75.0103 16.44C75.7383 16.44 76.3869 16.5987 76.9563 16.916C77.5256 17.2333 77.9736 17.6813 78.3003 18.26C78.6269 18.8387 78.7903 19.52 78.7903 20.304C78.7903 20.3787 78.7856 20.4627 78.7763 20.556C78.7763 20.6493 78.7716 20.738 78.7623 20.822H72.5323V19.66H77.8383L77.1523 20.024C77.1616 19.5947 77.0729 19.2167 76.8863 18.89C76.6996 18.5633 76.4429 18.3067 76.1163 18.12C75.7989 17.9333 75.4303 17.84 75.0103 17.84C74.5809 17.84 74.2029 17.9333 73.8763 18.12C73.5589 18.3067 73.3069 18.568 73.1203 18.904C72.9429 19.2307 72.8543 19.618 72.8543 20.066V20.346C72.8543 20.794 72.9569 21.1907 73.1623 21.536C73.3676 21.8813 73.6569 22.1473 74.0303 22.334C74.4036 22.5207 74.8329 22.614 75.3183 22.614C75.7383 22.614 76.1163 22.5487 76.4523 22.418C76.7883 22.2873 77.0869 22.082 77.3483 21.802L78.2863 22.88C77.9503 23.272 77.5256 23.5753 77.0123 23.79C76.5083 23.9953 75.9296 24.098 75.2763 24.098ZM80.7043 24V16.524H86.4443V18.008H82.0483L82.4543 17.616V24H80.7043Z" fill="white"/>
<path d="M68.6686 67.5755C67.9585 66.9908 67.0671 66.7213 66.1591 66.8176C64.6344 66.9786 62.6379 67.3588 60.5241 67.7612C57.6697 68.3047 54.7184 68.8667 52.4586 68.9971C50.5067 69.1094 46.9519 68.6399 45.8988 68.1306C45.1884 67.7871 44.791 67.3658 44.5684 66.9933H48.9493C50.7566 66.9933 52.2269 65.636 52.2269 63.9676V61.5914C52.2269 59.923 50.7566 58.5658 48.9493 58.5658H36.9406C36.4304 58.5513 30.3035 58.4448 26.0607 61.7859C25.3097 62.3772 24.7125 62.9359 24.2362 63.4437C23.7323 62.8624 22.9581 62.489 22.0908 62.489H18.1761C17.5266 62.489 17 62.9751 17 63.5748V78.9141C17 79.2021 17.124 79.4783 17.3444 79.6819C17.5651 79.8855 17.8643 79.9999 18.1761 79.9999L22.0907 79.9998C23.6057 79.9998 24.8381 78.862 24.8381 77.4635V76.629C26.0088 76.6968 28.6618 76.9642 34.2765 77.9374C40.907 79.0868 45.0444 79.4763 48.3041 79.4762C50.6402 79.4762 52.526 79.2762 54.5545 79.0124C57.0622 78.6866 60.2161 77.8629 62.9988 77.1363C64.2869 76.7999 65.5036 76.4822 66.5803 76.2316C69.4815 75.556 69.9148 73.8671 69.9148 72.9204V70.1543C69.9148 69.1823 69.4488 68.2182 68.6686 67.5755ZM22.486 77.4635C22.486 77.6646 22.3087 77.8282 22.0908 77.8282L19.3523 77.8283V64.6607H22.0907C22.3085 64.6607 22.4859 64.8243 22.4859 65.0254L22.486 77.4635ZM67.5625 72.9205C67.5625 73.1511 67.5625 73.7633 66.0052 74.1258C64.8959 74.3842 63.6635 74.706 62.3586 75.0467C59.6481 75.7545 56.5759 76.5568 54.2267 76.8621C49.5986 77.4637 45.7398 77.715 34.7106 75.8032C29.0383 74.82 26.223 74.5228 24.8381 74.4547V66.3928C24.8801 66.3443 24.919 66.2927 24.9525 66.2363C25.2538 65.7288 25.9968 64.6905 27.5872 63.4382C31.2134 60.5828 36.8193 60.7349 36.8745 60.7366C36.8898 60.7372 36.905 60.7375 36.9202 60.7375H48.9494C49.4596 60.7375 49.8747 61.1206 49.8747 61.5915V63.9677C49.8747 64.4387 49.4596 64.8218 48.9494 64.8218H36.9202C36.2707 64.8218 35.7441 65.3079 35.7441 65.9076C35.7441 66.5073 36.2707 66.9934 36.9202 66.9934H42.0703C42.3121 67.8838 42.9794 69.1704 44.8073 70.0543C46.4791 70.8629 50.6258 71.2793 52.6053 71.1645C55.0308 71.0247 58.065 70.447 60.9993 69.8881C63.0599 69.4957 65.0063 69.1251 66.4265 68.9751C66.7258 68.9439 66.9592 69.0778 67.1027 69.1961C67.3863 69.4297 67.5626 69.797 67.5626 70.1545L67.5625 72.9205Z" fill="white"/>
<path d="M67.9838 34H26.6738C25.0106 34 23.6575 35.2492 23.6575 36.7846V54.6637C23.6575 56.1992 25.0106 57.4485 26.6738 57.4485H67.9838C69.647 57.4485 71.0001 56.1992 71.0001 54.6637V36.7845C71.0001 35.2492 69.647 34 67.9838 34ZM62.149 55.2768H32.5111C32.1994 52.0395 29.473 49.4353 26.0099 49.012V42.1402C29.3666 41.7298 32.0307 39.2703 32.4751 36.1715H62.185C62.6293 39.2697 65.2922 41.7288 68.6478 42.14V49.0122C65.1859 49.4364 62.4606 52.0403 62.149 55.2768ZM68.6478 36.7845V39.9414C66.5914 39.57 64.9677 38.0704 64.5663 36.1715H67.9838C68.35 36.1716 68.6478 36.4466 68.6478 36.7845ZM26.6738 36.1716H30.0937C29.6922 38.0712 28.0675 39.5712 26.0098 39.9419V36.7845C26.0099 36.4466 26.3077 36.1716 26.6738 36.1716ZM26.0099 54.6637V51.2104C28.1733 51.6001 29.8578 53.2383 30.1453 55.2768H26.6738C26.3077 55.2768 26.0099 55.0018 26.0099 54.6637ZM67.9838 55.2768H64.5148C64.8022 53.2391 66.4854 51.6012 68.6477 51.2108V54.6637C68.6478 55.0018 68.35 55.2768 67.9838 55.2768Z" fill="white"/>
<path d="M47.3922 37.9563C42.7525 37.9563 38.9778 41.4409 38.9778 45.7241C38.9778 50.0074 42.7525 53.4921 47.3922 53.4921C52.0318 53.4921 55.8064 50.0074 55.8064 45.7241C55.8064 41.441 52.0318 37.9563 47.3922 37.9563ZM47.3922 51.3206C44.0495 51.3206 41.3301 48.8102 41.3301 45.7242C41.3301 42.6385 44.0495 40.128 47.3922 40.128C50.7348 40.128 53.4541 42.6385 53.4541 45.7242C53.4541 48.81 50.7348 51.3206 47.3922 51.3206Z" fill="white"/>
<path d="M33.8512 42.3843C31.8562 42.3843 30.2334 43.8825 30.2334 45.7242C30.2334 47.5658 31.8562 49.064 33.8512 49.064C35.846 49.064 37.4689 47.5658 37.4689 45.7242C37.4689 43.8825 35.846 42.3843 33.8512 42.3843ZM33.8512 46.8923C33.1534 46.8923 32.5857 46.3683 32.5857 45.7241C32.5857 45.0799 33.1533 44.5558 33.8512 44.5558C34.549 44.5558 35.1166 45.0799 35.1166 45.7241C35.1166 46.3683 34.549 46.8923 33.8512 46.8923Z" fill="white"/>
<path d="M60.9326 42.3843C58.9377 42.3843 57.3149 43.8825 57.3149 45.7242C57.3149 47.5658 58.9377 49.064 60.9326 49.064C62.9275 49.064 64.5505 47.5658 64.5505 45.7242C64.5505 43.8825 62.9275 42.3843 60.9326 42.3843ZM60.9326 46.8923C60.2347 46.8923 59.6672 46.3683 59.6672 45.7241C59.6672 45.0799 60.2347 44.5558 60.9326 44.5558C61.6304 44.5558 62.1982 45.0799 62.1982 45.7241C62.1982 46.3683 61.6305 46.8923 60.9326 46.8923Z" fill="white"/>
</svg>