<svg width="90" height="90" viewBox="0 0 90 90" fill="none" xmlns="http://www.w3.org/2000/svg">
<path d="M45 41.25C46.6576 41.25 48.2473 40.5915 49.4194 39.4194C50.5915 38.2473 51.25 36.6576 51.25 35C51.25 33.3424 50.5915 31.7527 49.4194 30.5806C48.2473 29.4085 46.6576 28.75 45 28.75C43.3424 28.75 41.7527 29.4085 40.5806 30.5806C39.4085 31.7527 38.75 33.3424 38.75 35C38.75 36.6576 39.4085 38.2473 40.5806 39.4194C41.7527 40.5915 43.3424 41.25 45 41.25V41.25Z" fill="white"/>
<path d="M20 22.5C20 21.6712 20.3292 20.8763 20.9153 20.2903C21.5013 19.7042 22.2962 19.375 23.125 19.375H66.875C67.7038 19.375 68.4987 19.7042 69.0847 20.2903C69.6708 20.8763 70 21.6712 70 22.5V47.5C70 48.3288 69.6708 49.1237 69.0847 49.7097C68.4987 50.2958 67.7038 50.625 66.875 50.625H23.125C22.2962 50.625 21.5013 50.2958 20.9153 49.7097C20.3292 49.1237 20 48.3288 20 47.5V22.5ZM29.375 22.5C29.375 24.1576 28.7165 25.7473 27.5444 26.9194C26.3723 28.0915 24.7826 28.75 23.125 28.75V41.25C24.7826 41.25 26.3723 41.9085 27.5444 43.0806C28.7165 44.2527 29.375 45.8424 29.375 47.5H60.625C60.625 45.8424 61.2835 44.2527 62.4556 43.0806C63.6277 41.9085 65.2174 41.25 66.875 41.25V28.75C65.2174 28.75 63.6277 28.0915 62.4556 26.9194C61.2835 25.7473 60.625 24.1576 60.625 22.5H29.375Z" fill="white"/>
<path d="M33.1221 78.68V65.52H34.2701V78.68H33.1221ZM33.5561 77.14C32.7908 77.14 32.0581 77.0327 31.3581 76.818C30.6581 76.594 30.1028 76.3093 29.6921 75.964L30.3221 74.55C30.7141 74.858 31.1995 75.1147 31.7781 75.32C32.3568 75.5253 32.9495 75.628 33.5561 75.628C34.0695 75.628 34.4848 75.572 34.8021 75.46C35.1195 75.348 35.3528 75.1987 35.5021 75.012C35.6515 74.816 35.7261 74.5967 35.7261 74.354C35.7261 74.0553 35.6188 73.8173 35.4041 73.64C35.1895 73.4533 34.9095 73.3087 34.5641 73.206C34.2281 73.094 33.8501 72.9913 33.4301 72.898C33.0195 72.8047 32.6041 72.6973 32.1841 72.576C31.7735 72.4453 31.3955 72.282 31.0501 72.086C30.7141 71.8807 30.4388 71.61 30.2241 71.274C30.0095 70.938 29.9021 70.5087 29.9021 69.986C29.9021 69.454 30.0421 68.9687 30.3221 68.53C30.6115 68.082 31.0455 67.7273 31.6241 67.466C32.2121 67.1953 32.9541 67.06 33.8501 67.06C34.4381 67.06 35.0215 67.1347 35.6001 67.284C36.1788 67.4333 36.6828 67.648 37.1121 67.928L36.5381 69.342C36.0995 69.0807 35.6468 68.8893 35.1801 68.768C34.7135 68.6373 34.2655 68.572 33.8361 68.572C33.3321 68.572 32.9215 68.6327 32.6041 68.754C32.2961 68.8753 32.0675 69.034 31.9181 69.23C31.7781 69.426 31.7081 69.65 31.7081 69.902C31.7081 70.2007 31.8108 70.4433 32.0161 70.63C32.2308 70.8073 32.5061 70.9473 32.8421 71.05C33.1875 71.1527 33.5701 71.2553 33.9901 71.358C34.4101 71.4513 34.8255 71.5587 35.2361 71.68C35.6561 71.8013 36.0341 71.96 36.3701 72.156C36.7155 72.352 36.9908 72.618 37.1961 72.954C37.4108 73.29 37.5181 73.7147 37.5181 74.228C37.5181 74.7507 37.3735 75.236 37.0841 75.684C36.8041 76.1227 36.3701 76.4773 35.7821 76.748C35.1941 77.0093 34.4521 77.14 33.5561 77.14ZM40.0541 77V67.9L40.8521 68.726H37.9821V67.2H41.8741V77H40.0541ZM47.0661 77.14C46.3755 77.14 45.6988 77.042 45.0361 76.846C44.3828 76.6407 43.8321 76.3607 43.3841 76.006L44.1541 74.592C44.5088 74.8813 44.9381 75.1147 45.4421 75.292C45.9555 75.4693 46.4875 75.558 47.0381 75.558C47.6821 75.558 48.1861 75.4227 48.5501 75.152C48.9235 74.8813 49.1101 74.5173 49.1101 74.06C49.1101 73.752 49.0308 73.4813 48.8721 73.248C48.7228 73.0147 48.4521 72.8373 48.0601 72.716C47.6775 72.5947 47.1501 72.534 46.4781 72.534H44.1121L44.6161 67.2H50.3701V68.726H45.2881L46.2401 67.858L45.8621 71.848L44.9101 70.994H46.8841C47.8548 70.994 48.6341 71.1247 49.2221 71.386C49.8195 71.638 50.2535 71.9927 50.5241 72.45C50.8041 72.898 50.9441 73.4113 50.9441 73.99C50.9441 74.5593 50.8041 75.082 50.5241 75.558C50.2441 76.034 49.8148 76.4167 49.2361 76.706C48.6668 76.9953 47.9435 77.14 47.0661 77.14ZM56.0819 77.14C55.3073 77.14 54.6073 76.944 53.9819 76.552C53.3659 76.16 52.8806 75.5907 52.5259 74.844C52.1713 74.088 51.9939 73.1733 51.9939 72.1C51.9939 71.0267 52.1713 70.1167 52.5259 69.37C52.8806 68.614 53.3659 68.04 53.9819 67.648C54.6073 67.256 55.3073 67.06 56.0819 67.06C56.8659 67.06 57.5659 67.256 58.1819 67.648C58.7979 68.04 59.2833 68.614 59.6379 69.37C60.0019 70.1167 60.1839 71.0267 60.1839 72.1C60.1839 73.1733 60.0019 74.088 59.6379 74.844C59.2833 75.5907 58.7979 76.16 58.1819 76.552C57.5659 76.944 56.8659 77.14 56.0819 77.14ZM56.0819 75.558C56.5393 75.558 56.9359 75.4367 57.2719 75.194C57.6079 74.942 57.8693 74.5593 58.0559 74.046C58.2519 73.5327 58.3499 72.884 58.3499 72.1C58.3499 71.3067 58.2519 70.658 58.0559 70.154C57.8693 69.6407 57.6079 69.2627 57.2719 69.02C56.9359 68.768 56.5393 68.642 56.0819 68.642C55.6433 68.642 55.2513 68.768 54.9059 69.02C54.5699 69.2627 54.3039 69.6407 54.1079 70.154C53.9213 70.658 53.8279 71.3067 53.8279 72.1C53.8279 72.884 53.9213 73.5327 54.1079 74.046C54.3039 74.5593 54.5699 74.942 54.9059 75.194C55.2513 75.4367 55.6433 75.558 56.0819 75.558Z" fill="white"/>
</svg>
