<svg width="90" height="90" viewBox="0 0 90 90" fill="none" xmlns="http://www.w3.org/2000/svg">
<path d="M45 41.25C46.6576 41.25 48.2473 40.5915 49.4194 39.4194C50.5915 38.2473 51.25 36.6576 51.25 35C51.25 33.3424 50.5915 31.7527 49.4194 30.5806C48.2473 29.4085 46.6576 28.75 45 28.75C43.3424 28.75 41.7527 29.4085 40.5806 30.5806C39.4085 31.7527 38.75 33.3424 38.75 35C38.75 36.6576 39.4085 38.2473 40.5806 39.4194C41.7527 40.5915 43.3424 41.25 45 41.25V41.25Z" fill="white"/>
<path d="M20 22.5C20 21.6712 20.3292 20.8763 20.9153 20.2903C21.5013 19.7042 22.2962 19.375 23.125 19.375H66.875C67.7038 19.375 68.4987 19.7042 69.0847 20.2903C69.6708 20.8763 70 21.6712 70 22.5V47.5C70 48.3288 69.6708 49.1237 69.0847 49.7097C68.4987 50.2958 67.7038 50.625 66.875 50.625H23.125C22.2962 50.625 21.5013 50.2958 20.9153 49.7097C20.3292 49.1237 20 48.3288 20 47.5V22.5ZM29.375 22.5C29.375 24.1576 28.7165 25.7473 27.5444 26.9194C26.3723 28.0915 24.7826 28.75 23.125 28.75V41.25C24.7826 41.25 26.3723 41.9085 27.5444 43.0806C28.7165 44.2527 29.375 45.8424 29.375 47.5H60.625C60.625 45.8424 61.2835 44.2527 62.4556 43.0806C63.6277 41.9085 65.2174 41.25 66.875 41.25V28.75C65.2174 28.75 63.6277 28.0915 62.4556 26.9194C61.2835 25.7473 60.625 24.1576 60.625 22.5H29.375Z" fill="white"/>
<path d="M31.0577 78.68V65.52H32.2057V78.68H31.0577ZM31.4917 77.14C30.7264 77.14 29.9937 77.0327 29.2937 76.818C28.5937 76.594 28.0384 76.3093 27.6277 75.964L28.2577 74.55C28.6497 74.858 29.135 75.1147 29.7137 75.32C30.2924 75.5253 30.885 75.628 31.4917 75.628C32.005 75.628 32.4204 75.572 32.7377 75.46C33.055 75.348 33.2884 75.1987 33.4377 75.012C33.587 74.816 33.6617 74.5967 33.6617 74.354C33.6617 74.0553 33.5544 73.8173 33.3397 73.64C33.125 73.4533 32.845 73.3087 32.4997 73.206C32.1637 73.094 31.7857 72.9913 31.3657 72.898C30.955 72.8047 30.5397 72.6973 30.1197 72.576C29.709 72.4453 29.331 72.282 28.9857 72.086C28.6497 71.8807 28.3744 71.61 28.1597 71.274C27.945 70.938 27.8377 70.5087 27.8377 69.986C27.8377 69.454 27.9777 68.9687 28.2577 68.53C28.547 68.082 28.981 67.7273 29.5597 67.466C30.1477 67.1953 30.8897 67.06 31.7857 67.06C32.3737 67.06 32.957 67.1347 33.5357 67.284C34.1144 67.4333 34.6184 67.648 35.0477 67.928L34.4737 69.342C34.035 69.0807 33.5824 68.8893 33.1157 68.768C32.649 68.6373 32.201 68.572 31.7717 68.572C31.2677 68.572 30.857 68.6327 30.5397 68.754C30.2317 68.8753 30.003 69.034 29.8537 69.23C29.7137 69.426 29.6437 69.65 29.6437 69.902C29.6437 70.2007 29.7464 70.4433 29.9517 70.63C30.1664 70.8073 30.4417 70.9473 30.7777 71.05C31.123 71.1527 31.5057 71.2553 31.9257 71.358C32.3457 71.4513 32.761 71.5587 33.1717 71.68C33.5917 71.8013 33.9697 71.96 34.3057 72.156C34.651 72.352 34.9264 72.618 35.1317 72.954C35.3464 73.29 35.4537 73.7147 35.4537 74.228C35.4537 74.7507 35.309 75.236 35.0197 75.684C34.7397 76.1227 34.3057 76.4773 33.7177 76.748C33.1297 77.0093 32.3877 77.14 31.4917 77.14ZM39.57 77.14C38.8794 77.14 38.2027 77.042 37.54 76.846C36.8867 76.6407 36.336 76.3607 35.888 76.006L36.672 74.592C37.0267 74.8813 37.456 75.1147 37.96 75.292C38.464 75.4693 38.9914 75.558 39.542 75.558C40.1954 75.558 40.704 75.4273 41.068 75.166C41.432 74.8953 41.614 74.5313 41.614 74.074C41.614 73.626 41.446 73.2713 41.11 73.01C40.774 72.7487 40.2327 72.618 39.486 72.618H38.59V71.372L41.39 68.04L41.628 68.726H36.364V67.2H43.042V68.418L40.242 71.75L39.29 71.19H39.836C41.04 71.19 41.9407 71.4607 42.538 72.002C43.1447 72.534 43.448 73.22 43.448 74.06C43.448 74.6107 43.308 75.1193 43.028 75.586C42.748 76.0527 42.3187 76.4307 41.74 76.72C41.1707 77 40.4474 77.14 39.57 77.14ZM48.7265 77.14C47.9518 77.14 47.2518 76.944 46.6265 76.552C46.0105 76.16 45.5251 75.5907 45.1705 74.844C44.8158 74.088 44.6385 73.1733 44.6385 72.1C44.6385 71.0267 44.8158 70.1167 45.1705 69.37C45.5251 68.614 46.0105 68.04 46.6265 67.648C47.2518 67.256 47.9518 67.06 48.7265 67.06C49.5105 67.06 50.2105 67.256 50.8265 67.648C51.4425 68.04 51.9278 68.614 52.2825 69.37C52.6465 70.1167 52.8285 71.0267 52.8285 72.1C52.8285 73.1733 52.6465 74.088 52.2825 74.844C51.9278 75.5907 51.4425 76.16 50.8265 76.552C50.2105 76.944 49.5105 77.14 48.7265 77.14ZM48.7265 75.558C49.1838 75.558 49.5805 75.4367 49.9165 75.194C50.2525 74.942 50.5138 74.5593 50.7005 74.046C50.8965 73.5327 50.9945 72.884 50.9945 72.1C50.9945 71.3067 50.8965 70.658 50.7005 70.154C50.5138 69.6407 50.2525 69.2627 49.9165 69.02C49.5805 68.768 49.1838 68.642 48.7265 68.642C48.2878 68.642 47.8958 68.768 47.5505 69.02C47.2145 69.2627 46.9485 69.6407 46.7525 70.154C46.5658 70.658 46.4725 71.3067 46.4725 72.1C46.4725 72.884 46.5658 73.5327 46.7525 74.046C46.9485 74.5593 47.2145 74.942 47.5505 75.194C47.8958 75.4367 48.2878 75.558 48.7265 75.558ZM58.1464 77.14C57.3717 77.14 56.6717 76.944 56.0464 76.552C55.4304 76.16 54.945 75.5907 54.5904 74.844C54.2357 74.088 54.0584 73.1733 54.0584 72.1C54.0584 71.0267 54.2357 70.1167 54.5904 69.37C54.945 68.614 55.4304 68.04 56.0464 67.648C56.6717 67.256 57.3717 67.06 58.1464 67.06C58.9304 67.06 59.6304 67.256 60.2464 67.648C60.8624 68.04 61.3477 68.614 61.7024 69.37C62.0664 70.1167 62.2484 71.0267 62.2484 72.1C62.2484 73.1733 62.0664 74.088 61.7024 74.844C61.3477 75.5907 60.8624 76.16 60.2464 76.552C59.6304 76.944 58.9304 77.14 58.1464 77.14ZM58.1464 75.558C58.6037 75.558 59.0004 75.4367 59.3364 75.194C59.6724 74.942 59.9337 74.5593 60.1204 74.046C60.3164 73.5327 60.4144 72.884 60.4144 72.1C60.4144 71.3067 60.3164 70.658 60.1204 70.154C59.9337 69.6407 59.6724 69.2627 59.3364 69.02C59.0004 68.768 58.6037 68.642 58.1464 68.642C57.7077 68.642 57.3157 68.768 56.9704 69.02C56.6344 69.2627 56.3684 69.6407 56.1724 70.154C55.9857 70.658 55.8924 71.3067 55.8924 72.1C55.8924 72.884 55.9857 73.5327 56.1724 74.046C56.3684 74.5593 56.6344 74.942 56.9704 75.194C57.3157 75.4367 57.7077 75.558 58.1464 75.558Z" fill="white"/>
</svg>
