<svg width="90" height="90" viewBox="0 0 90 90" fill="none" xmlns="http://www.w3.org/2000/svg">
<path d="M45 41.25C46.6576 41.25 48.2473 40.5915 49.4194 39.4194C50.5915 38.2473 51.25 36.6576 51.25 35C51.25 33.3424 50.5915 31.7527 49.4194 30.5806C48.2473 29.4085 46.6576 28.75 45 28.75C43.3424 28.75 41.7527 29.4085 40.5806 30.5806C39.4085 31.7527 38.75 33.3424 38.75 35C38.75 36.6576 39.4085 38.2473 40.5806 39.4194C41.7527 40.5915 43.3424 41.25 45 41.25V41.25Z" fill="white"/>
<path d="M20 22.5C20 21.6712 20.3292 20.8763 20.9153 20.2903C21.5013 19.7042 22.2962 19.375 23.125 19.375H66.875C67.7038 19.375 68.4987 19.7042 69.0847 20.2903C69.6708 20.8763 70 21.6712 70 22.5V47.5C70 48.3288 69.6708 49.1237 69.0847 49.7097C68.4987 50.2958 67.7038 50.625 66.875 50.625H23.125C22.2962 50.625 21.5013 50.2958 20.9153 49.7097C20.3292 49.1237 20 48.3288 20 47.5V22.5ZM29.375 22.5C29.375 24.1576 28.7165 25.7473 27.5444 26.9194C26.3723 28.0915 24.7826 28.75 23.125 28.75V41.25C24.7826 41.25 26.3723 41.9085 27.5444 43.0806C28.7165 44.2527 29.375 45.8424 29.375 47.5H60.625C60.625 45.8424 61.2835 44.2527 62.4556 43.0806C63.6277 41.9085 65.2174 41.25 66.875 41.25V28.75C65.2174 28.75 63.6277 28.0915 62.4556 26.9194C61.2835 25.7473 60.625 24.1576 60.625 22.5H29.375Z" fill="white"/>
<path d="M27.7901 78.68V65.52H28.9381V78.68H27.7901ZM28.2241 77.14C27.4588 77.14 26.7261 77.0327 26.0261 76.818C25.3261 76.594 24.7708 76.3093 24.3601 75.964L24.9901 74.55C25.3821 74.858 25.8675 75.1147 26.4461 75.32C27.0248 75.5253 27.6175 75.628 28.2241 75.628C28.7375 75.628 29.1528 75.572 29.4701 75.46C29.7875 75.348 30.0208 75.1987 30.1701 75.012C30.3195 74.816 30.3941 74.5967 30.3941 74.354C30.3941 74.0553 30.2868 73.8173 30.0721 73.64C29.8575 73.4533 29.5775 73.3087 29.2321 73.206C28.8961 73.094 28.5181 72.9913 28.0981 72.898C27.6875 72.8047 27.2721 72.6973 26.8521 72.576C26.4415 72.4453 26.0635 72.282 25.7181 72.086C25.3821 71.8807 25.1068 71.61 24.8921 71.274C24.6775 70.938 24.5701 70.5087 24.5701 69.986C24.5701 69.454 24.7101 68.9687 24.9901 68.53C25.2795 68.082 25.7135 67.7273 26.2921 67.466C26.8801 67.1953 27.6221 67.06 28.5181 67.06C29.1061 67.06 29.6895 67.1347 30.2681 67.284C30.8468 67.4333 31.3508 67.648 31.7801 67.928L31.2061 69.342C30.7675 69.0807 30.3148 68.8893 29.8481 68.768C29.3815 68.6373 28.9335 68.572 28.5041 68.572C28.0001 68.572 27.5895 68.6327 27.2721 68.754C26.9641 68.8753 26.7355 69.034 26.5861 69.23C26.4461 69.426 26.3761 69.65 26.3761 69.902C26.3761 70.2007 26.4788 70.4433 26.6841 70.63C26.8988 70.8073 27.1741 70.9473 27.5101 71.05C27.8555 71.1527 28.2381 71.2553 28.6581 71.358C29.0781 71.4513 29.4935 71.5587 29.9041 71.68C30.3241 71.8013 30.7021 71.96 31.0381 72.156C31.3835 72.352 31.6588 72.618 31.8641 72.954C32.0788 73.29 32.1861 73.7147 32.1861 74.228C32.1861 74.7507 32.0415 75.236 31.7521 75.684C31.4721 76.1227 31.0381 76.4773 30.4501 76.748C29.8621 77.0093 29.1201 77.14 28.2241 77.14ZM34.7221 77V67.9L35.5201 68.726H32.6501V67.2H36.5421V77H34.7221ZM42.5741 77.14C41.7995 77.14 41.0995 76.944 40.4741 76.552C39.8581 76.16 39.3728 75.5907 39.0181 74.844C38.6635 74.088 38.4861 73.1733 38.4861 72.1C38.4861 71.0267 38.6635 70.1167 39.0181 69.37C39.3728 68.614 39.8581 68.04 40.4741 67.648C41.0995 67.256 41.7995 67.06 42.5741 67.06C43.3581 67.06 44.0581 67.256 44.6741 67.648C45.2901 68.04 45.7755 68.614 46.1301 69.37C46.4941 70.1167 46.6761 71.0267 46.6761 72.1C46.6761 73.1733 46.4941 74.088 46.1301 74.844C45.7755 75.5907 45.2901 76.16 44.6741 76.552C44.0581 76.944 43.3581 77.14 42.5741 77.14ZM42.5741 75.558C43.0315 75.558 43.4281 75.4367 43.7641 75.194C44.1001 74.942 44.3615 74.5593 44.5481 74.046C44.7441 73.5327 44.8421 72.884 44.8421 72.1C44.8421 71.3067 44.7441 70.658 44.5481 70.154C44.3615 69.6407 44.1001 69.2627 43.7641 69.02C43.4281 68.768 43.0315 68.642 42.5741 68.642C42.1355 68.642 41.7435 68.768 41.3981 69.02C41.0621 69.2627 40.7961 69.6407 40.6001 70.154C40.4135 70.658 40.3201 71.3067 40.3201 72.1C40.3201 72.884 40.4135 73.5327 40.6001 74.046C40.7961 74.5593 41.0621 74.942 41.3981 75.194C41.7435 75.4367 42.1355 75.558 42.5741 75.558ZM51.994 77.14C51.2194 77.14 50.5194 76.944 49.894 76.552C49.278 76.16 48.7927 75.5907 48.438 74.844C48.0834 74.088 47.906 73.1733 47.906 72.1C47.906 71.0267 48.0834 70.1167 48.438 69.37C48.7927 68.614 49.278 68.04 49.894 67.648C50.5194 67.256 51.2194 67.06 51.994 67.06C52.778 67.06 53.478 67.256 54.094 67.648C54.71 68.04 55.1954 68.614 55.55 69.37C55.914 70.1167 56.096 71.0267 56.096 72.1C56.096 73.1733 55.914 74.088 55.55 74.844C55.1954 75.5907 54.71 76.16 54.094 76.552C53.478 76.944 52.778 77.14 51.994 77.14ZM51.994 75.558C52.4514 75.558 52.848 75.4367 53.184 75.194C53.52 74.942 53.7814 74.5593 53.968 74.046C54.164 73.5327 54.262 72.884 54.262 72.1C54.262 71.3067 54.164 70.658 53.968 70.154C53.7814 69.6407 53.52 69.2627 53.184 69.02C52.848 68.768 52.4514 68.642 51.994 68.642C51.5554 68.642 51.1634 68.768 50.818 69.02C50.482 69.2627 50.216 69.6407 50.02 70.154C49.8334 70.658 49.74 71.3067 49.74 72.1C49.74 72.884 49.8334 73.5327 50.02 74.046C50.216 74.5593 50.482 74.942 50.818 75.194C51.1634 75.4367 51.5554 75.558 51.994 75.558ZM61.414 77.14C60.6393 77.14 59.9393 76.944 59.314 76.552C58.698 76.16 58.2126 75.5907 57.858 74.844C57.5033 74.088 57.326 73.1733 57.326 72.1C57.326 71.0267 57.5033 70.1167 57.858 69.37C58.2126 68.614 58.698 68.04 59.314 67.648C59.9393 67.256 60.6393 67.06 61.414 67.06C62.198 67.06 62.898 67.256 63.514 67.648C64.13 68.04 64.6153 68.614 64.97 69.37C65.334 70.1167 65.516 71.0267 65.516 72.1C65.516 73.1733 65.334 74.088 64.97 74.844C64.6153 75.5907 64.13 76.16 63.514 76.552C62.898 76.944 62.198 77.14 61.414 77.14ZM61.414 75.558C61.8713 75.558 62.268 75.4367 62.604 75.194C62.94 74.942 63.2013 74.5593 63.388 74.046C63.584 73.5327 63.682 72.884 63.682 72.1C63.682 71.3067 63.584 70.658 63.388 70.154C63.2013 69.6407 62.94 69.2627 62.604 69.02C62.268 68.768 61.8713 68.642 61.414 68.642C60.9753 68.642 60.5833 68.768 60.238 69.02C59.902 69.2627 59.636 69.6407 59.44 70.154C59.2533 70.658 59.16 71.3067 59.16 72.1C59.16 72.884 59.2533 73.5327 59.44 74.046C59.636 74.5593 59.902 74.942 60.238 75.194C60.5833 75.4367 60.9753 75.558 61.414 75.558Z" fill="white"/>
</svg>
