<svg width="90" height="90" viewBox="0 0 90 90" fill="none" xmlns="http://www.w3.org/2000/svg">
<path d="M45 41.25C46.6576 41.25 48.2473 40.5915 49.4194 39.4194C50.5915 38.2473 51.25 36.6576 51.25 35C51.25 33.3424 50.5915 31.7527 49.4194 30.5806C48.2473 29.4085 46.6576 28.75 45 28.75C43.3424 28.75 41.7527 29.4085 40.5806 30.5806C39.4085 31.7527 38.75 33.3424 38.75 35C38.75 36.6576 39.4085 38.2473 40.5806 39.4194C41.7527 40.5915 43.3424 41.25 45 41.25V41.25Z" fill="white"/>
<path d="M20 22.5C20 21.6712 20.3292 20.8763 20.9153 20.2903C21.5013 19.7042 22.2962 19.375 23.125 19.375H66.875C67.7038 19.375 68.4987 19.7042 69.0847 20.2903C69.6708 20.8763 70 21.6712 70 22.5V47.5C70 48.3288 69.6708 49.1237 69.0847 49.7097C68.4987 50.2958 67.7038 50.625 66.875 50.625H23.125C22.2962 50.625 21.5013 50.2958 20.9153 49.7097C20.3292 49.1237 20 48.3288 20 47.5V22.5ZM29.375 22.5C29.375 24.1576 28.7165 25.7473 27.5444 26.9194C26.3723 28.0915 24.7826 28.75 23.125 28.75V41.25C24.7826 41.25 26.3723 41.9085 27.5444 43.0806C28.7165 44.2527 29.375 45.8424 29.375 47.5H60.625C60.625 45.8424 61.2835 44.2527 62.4556 43.0806C63.6277 41.9085 65.2174 41.25 66.875 41.25V28.75C65.2174 28.75 63.6277 28.0915 62.4556 26.9194C61.2835 25.7473 60.625 24.1576 60.625 22.5H29.375Z" fill="white"/>
<path d="M35.7198 78.68V65.52H36.8678V78.68H35.7198ZM36.1538 77.14C35.3885 77.14 34.6558 77.0327 33.9558 76.818C33.2558 76.594 32.7005 76.3093 32.2898 75.964L32.9198 74.55C33.3118 74.858 33.7971 75.1147 34.3758 75.32C34.9545 75.5253 35.5471 75.628 36.1538 75.628C36.6671 75.628 37.0825 75.572 37.3998 75.46C37.7171 75.348 37.9505 75.1987 38.0998 75.012C38.2491 74.816 38.3238 74.5967 38.3238 74.354C38.3238 74.0553 38.2165 73.8173 38.0018 73.64C37.7871 73.4533 37.5071 73.3087 37.1618 73.206C36.8258 73.094 36.4478 72.9913 36.0278 72.898C35.6171 72.8047 35.2018 72.6973 34.7818 72.576C34.3711 72.4453 33.9931 72.282 33.6478 72.086C33.3118 71.8807 33.0365 71.61 32.8218 71.274C32.6071 70.938 32.4998 70.5087 32.4998 69.986C32.4998 69.454 32.6398 68.9687 32.9198 68.53C33.2091 68.082 33.6431 67.7273 34.2218 67.466C34.8098 67.1953 35.5518 67.06 36.4478 67.06C37.0358 67.06 37.6191 67.1347 38.1978 67.284C38.7765 67.4333 39.2805 67.648 39.7098 67.928L39.1358 69.342C38.6971 69.0807 38.2445 68.8893 37.7778 68.768C37.3111 68.6373 36.8631 68.572 36.4338 68.572C35.9298 68.572 35.5191 68.6327 35.2018 68.754C34.8938 68.8753 34.6651 69.034 34.5158 69.23C34.3758 69.426 34.3058 69.65 34.3058 69.902C34.3058 70.2007 34.4085 70.4433 34.6138 70.63C34.8285 70.8073 35.1038 70.9473 35.4398 71.05C35.7851 71.1527 36.1678 71.2553 36.5878 71.358C37.0078 71.4513 37.4231 71.5587 37.8338 71.68C38.2538 71.8013 38.6318 71.96 38.9678 72.156C39.3131 72.352 39.5885 72.618 39.7938 72.954C40.0085 73.29 40.1158 73.7147 40.1158 74.228C40.1158 74.7507 39.9711 75.236 39.6818 75.684C39.4018 76.1227 38.9678 76.4773 38.3798 76.748C37.7918 77.0093 37.0498 77.14 36.1538 77.14ZM44.4685 77.14C43.7778 77.14 43.1012 77.042 42.4385 76.846C41.7852 76.6407 41.2345 76.3607 40.7865 76.006L41.5565 74.592C41.9112 74.8813 42.3405 75.1147 42.8445 75.292C43.3578 75.4693 43.8898 75.558 44.4405 75.558C45.0845 75.558 45.5885 75.4227 45.9525 75.152C46.3258 74.8813 46.5125 74.5173 46.5125 74.06C46.5125 73.752 46.4332 73.4813 46.2745 73.248C46.1252 73.0147 45.8545 72.8373 45.4625 72.716C45.0798 72.5947 44.5525 72.534 43.8805 72.534H41.5145L42.0185 67.2H47.7725V68.726H42.6905L43.6425 67.858L43.2645 71.848L42.3125 70.994H44.2865C45.2572 70.994 46.0365 71.1247 46.6245 71.386C47.2218 71.638 47.6558 71.9927 47.9265 72.45C48.2065 72.898 48.3465 73.4113 48.3465 73.99C48.3465 74.5593 48.2065 75.082 47.9265 75.558C47.6465 76.034 47.2172 76.4167 46.6385 76.706C46.0692 76.9953 45.3458 77.14 44.4685 77.14ZM53.4843 77.14C52.7096 77.14 52.0096 76.944 51.3843 76.552C50.7683 76.16 50.2829 75.5907 49.9283 74.844C49.5736 74.088 49.3963 73.1733 49.3963 72.1C49.3963 71.0267 49.5736 70.1167 49.9283 69.37C50.2829 68.614 50.7683 68.04 51.3843 67.648C52.0096 67.256 52.7096 67.06 53.4843 67.06C54.2683 67.06 54.9683 67.256 55.5843 67.648C56.2003 68.04 56.6856 68.614 57.0403 69.37C57.4043 70.1167 57.5863 71.0267 57.5863 72.1C57.5863 73.1733 57.4043 74.088 57.0403 74.844C56.6856 75.5907 56.2003 76.16 55.5843 76.552C54.9683 76.944 54.2683 77.14 53.4843 77.14ZM53.4843 75.558C53.9416 75.558 54.3383 75.4367 54.6743 75.194C55.0103 74.942 55.2716 74.5593 55.4583 74.046C55.6543 73.5327 55.7523 72.884 55.7523 72.1C55.7523 71.3067 55.6543 70.658 55.4583 70.154C55.2716 69.6407 55.0103 69.2627 54.6743 69.02C54.3383 68.768 53.9416 68.642 53.4843 68.642C53.0456 68.642 52.6536 68.768 52.3083 69.02C51.9723 69.2627 51.7063 69.6407 51.5103 70.154C51.3236 70.658 51.2303 71.3067 51.2303 72.1C51.2303 72.884 51.3236 73.5327 51.5103 74.046C51.7063 74.5593 51.9723 74.942 52.3083 75.194C52.6536 75.4367 53.0456 75.558 53.4843 75.558Z" fill="white"/>
</svg>
