<svg width="90" height="90" viewBox="0 0 90 90" fill="none" xmlns="http://www.w3.org/2000/svg">
<path d="M5.58229 23V13.2H7.06629L11.3643 20.354H10.5663L14.7943 13.2H16.2783L16.3063 23H14.5703L14.5563 15.902H14.9203L11.3363 21.88H10.5243L6.88429 15.902H7.30429V23H5.58229ZM23.3888 23V21.488L23.2908 21.166V18.52C23.2908 18.0067 23.1368 17.61 22.8288 17.33C22.5208 17.0407 22.0541 16.896 21.4288 16.896C21.0088 16.896 20.5934 16.9613 20.1828 17.092C19.7814 17.2227 19.4408 17.4047 19.1608 17.638L18.4748 16.364C18.8761 16.056 19.3521 15.8273 19.9028 15.678C20.4628 15.5193 21.0414 15.44 21.6388 15.44C22.7214 15.44 23.5568 15.7013 24.1448 16.224C24.7421 16.7373 25.0408 17.5353 25.0408 18.618V23H23.3888ZM21.0368 23.098C20.4768 23.098 19.9868 23.0047 19.5668 22.818C19.1468 22.622 18.8201 22.356 18.5868 22.02C18.3628 21.6747 18.2508 21.2873 18.2508 20.858C18.2508 20.438 18.3488 20.06 18.5448 19.724C18.7501 19.388 19.0814 19.122 19.5388 18.926C19.9961 18.73 20.6028 18.632 21.3588 18.632H23.5288V19.794H21.4848C20.8874 19.794 20.4861 19.892 20.2808 20.088C20.0754 20.2747 19.9728 20.508 19.9728 20.788C19.9728 21.1053 20.0988 21.3573 20.3508 21.544C20.6028 21.7307 20.9528 21.824 21.4008 21.824C21.8301 21.824 22.2128 21.726 22.5488 21.53C22.8941 21.334 23.1414 21.0447 23.2908 20.662L23.5848 21.712C23.4168 22.1507 23.1134 22.4913 22.6748 22.734C22.2454 22.9767 21.6994 23.098 21.0368 23.098ZM27.2063 23V15.524H32.9463V17.008H28.5503L28.9563 16.616V23H27.2063ZM34.2199 23V15.524H35.9699V18.562H39.7359V15.524H41.4859V23H39.7359V20.046H35.9699V23H34.2199ZM43.8313 23V15.524H45.5813V20.452L49.7113 15.524H51.3073V23H49.5573V18.072L45.4413 23H43.8313ZM55.2154 23V16.588L55.6214 17.008H52.5834V15.524H59.5834V17.008H56.5594L56.9654 16.588V23H55.2154ZM63.8566 23.098C63.0913 23.098 62.41 22.9347 61.8126 22.608C61.2153 22.272 60.744 21.8147 60.3986 21.236C60.0533 20.6573 59.8806 19.9993 59.8806 19.262C59.8806 18.5153 60.0533 17.8573 60.3986 17.288C60.744 16.7093 61.2153 16.2567 61.8126 15.93C62.41 15.6033 63.0913 15.44 63.8566 15.44C64.6313 15.44 65.3173 15.6033 65.9146 15.93C66.5213 16.2567 66.9926 16.7047 67.3286 17.274C67.674 17.8433 67.8466 18.506 67.8466 19.262C67.8466 19.9993 67.674 20.6573 67.3286 21.236C66.9926 21.8147 66.5213 22.272 65.9146 22.608C65.3173 22.9347 64.6313 23.098 63.8566 23.098ZM63.8566 21.6C64.286 21.6 64.6686 21.5067 65.0046 21.32C65.3406 21.1333 65.602 20.8627 65.7886 20.508C65.9846 20.1533 66.0826 19.738 66.0826 19.262C66.0826 18.7767 65.9846 18.3613 65.7886 18.016C65.602 17.6613 65.3406 17.3907 65.0046 17.204C64.6686 17.0173 64.2906 16.924 63.8706 16.924C63.4413 16.924 63.0586 17.0173 62.7226 17.204C62.396 17.3907 62.1346 17.6613 61.9386 18.016C61.7426 18.3613 61.6446 18.7767 61.6446 19.262C61.6446 19.738 61.7426 20.1533 61.9386 20.508C62.1346 20.8627 62.396 21.1333 62.7226 21.32C63.0586 21.5067 63.4366 21.6 63.8566 21.6ZM68.4014 22.986L68.4854 21.516C68.5507 21.5253 68.6114 21.5347 68.6674 21.544C68.7234 21.5533 68.7747 21.558 68.8214 21.558C69.1107 21.558 69.3347 21.4693 69.4934 21.292C69.652 21.1147 69.7687 20.8767 69.8434 20.578C69.9274 20.27 69.9834 19.9293 70.0114 19.556C70.0487 19.1733 70.0767 18.7907 70.0954 18.408L70.2214 15.524H76.2694V23H74.5194V16.532L74.9254 17.008H71.3694L71.7474 16.518L71.6494 18.492C71.6214 19.1547 71.5654 19.7707 71.4814 20.34C71.4067 20.9 71.2854 21.39 71.1174 21.81C70.9587 22.23 70.7347 22.5567 70.4454 22.79C70.1654 23.0233 69.806 23.14 69.3674 23.14C69.2274 23.14 69.0734 23.126 68.9054 23.098C68.7467 23.07 68.5787 23.0327 68.4014 22.986ZM83.1622 23V21.488L83.0642 21.166V18.52C83.0642 18.0067 82.9102 17.61 82.6022 17.33C82.2942 17.0407 81.8275 16.896 81.2022 16.896C80.7822 16.896 80.3669 16.9613 79.9562 17.092C79.5549 17.2227 79.2142 17.4047 78.9342 17.638L78.2482 16.364C78.6495 16.056 79.1255 15.8273 79.6762 15.678C80.2362 15.5193 80.8149 15.44 81.4122 15.44C82.4949 15.44 83.3302 15.7013 83.9182 16.224C84.5155 16.7373 84.8142 17.5353 84.8142 18.618V23H83.1622ZM80.8102 23.098C80.2502 23.098 79.7602 23.0047 79.3402 22.818C78.9202 22.622 78.5935 22.356 78.3602 22.02C78.1362 21.6747 78.0242 21.2873 78.0242 20.858C78.0242 20.438 78.1222 20.06 78.3182 19.724C78.5235 19.388 78.8549 19.122 79.3122 18.926C79.7695 18.73 80.3762 18.632 81.1322 18.632H83.3022V19.794H81.2582C80.6609 19.794 80.2595 19.892 80.0542 20.088C79.8489 20.2747 79.7462 20.508 79.7462 20.788C79.7462 21.1053 79.8722 21.3573 80.1242 21.544C80.3762 21.7307 80.7262 21.824 81.1742 21.824C81.6035 21.824 81.9862 21.726 82.3222 21.53C82.6675 21.334 82.9149 21.0447 83.0642 20.662L83.3582 21.712C83.1902 22.1507 82.8869 22.4913 82.4482 22.734C82.0189 22.9767 81.4729 23.098 80.8102 23.098Z" fill="white"/>
<path d="M57.7662 38.1308C57.7051 37.7713 57.5661 37.4287 57.3586 37.1263C57.1511 36.8239 56.8799 36.5686 56.5633 36.3777C56.2466 36.1868 55.892 36.0647 55.5231 36.0196C55.1543 35.9745 54.7799 36.0075 54.4252 36.1163L36.2252 41.6932C35.696 41.8552 35.2335 42.1789 34.9051 42.617C34.5767 43.0551 34.3998 43.5847 34.4 44.1284V64.865C33.2286 64.0034 31.7949 63.5549 30.3311 63.5922C28.8674 63.6295 27.4593 64.1504 26.3351 65.0706C25.211 65.9908 24.4365 67.2563 24.1372 68.6621C23.8379 70.0678 24.0314 71.5315 24.6862 72.816C25.3411 74.1005 26.4189 75.1305 27.7452 75.7392C29.0714 76.3478 30.5683 76.4994 31.9934 76.1695C33.4185 75.8396 34.6882 75.0474 35.5969 73.9213C36.5056 72.7952 37 71.4011 37 69.965V51.7784L55.2 46.199V53.4487C56.0918 53.5252 56.9628 53.6858 57.8 53.9179V38.549C57.8 38.4062 57.787 38.2685 57.7662 38.1308ZM65.6 67.415C65.6 70.4584 64.3673 73.3771 62.1732 75.5291C59.979 77.6811 57.003 78.89 53.9 78.89C50.797 78.89 47.821 77.6811 45.6269 75.5291C43.4327 73.3771 42.2 70.4584 42.2 67.415C42.2 64.3717 43.4327 61.453 45.6269 59.301C47.821 57.149 50.797 55.94 53.9 55.94C57.003 55.94 59.979 57.149 62.1732 59.301C64.3673 61.453 65.6 64.3717 65.6 67.415V67.415ZM59.7162 66.3058L51.9318 62.0983C51.734 61.991 51.5111 61.9361 51.285 61.9391C51.059 61.9421 50.8377 62.0029 50.6429 62.1154C50.4481 62.2279 50.2866 62.3883 50.1743 62.5807C50.062 62.7731 50.0028 62.9909 50.0026 63.2126V71.6276C50.0024 71.8496 50.0612 72.0677 50.1733 72.2605C50.2854 72.4533 50.4469 72.614 50.6418 72.7268C50.8366 72.8396 51.0581 72.9006 51.2844 72.9037C51.5106 72.9068 51.7338 72.852 51.9318 72.7445L59.7162 68.537C59.9194 68.4268 60.0888 68.2651 60.2067 68.069C60.3246 67.8728 60.3868 67.6492 60.3868 67.4214C60.3868 67.1937 60.3246 66.9701 60.2067 66.7739C60.0888 66.5777 59.9194 66.416 59.7162 66.3058V66.3058Z" fill="white"/>
</svg>
