<svg width="90" height="90" viewBox="0 0 90 90" fill="none" xmlns="http://www.w3.org/2000/svg">
<path d="M56.4167 33.6666H38.7917V27.7916C38.7917 24.5526 41.4276 21.9167 44.6667 21.9167C47.9058 21.9167 50.5417 24.5526 50.5417 27.7916H54.4584C54.4584 22.3925 50.0658 18 44.6667 18C39.2676 18 34.875 22.3925 34.875 27.7916V33.6666H32.9167C31.8779 33.6666 30.8817 34.0793 30.1472 34.8138C29.4127 35.5483 29 36.5445 29 37.5833V53.25C29 54.2887 29.4127 55.285 30.1472 56.0195C30.8817 56.754 31.8779 57.1666 32.9167 57.1666H56.4167C57.4555 57.1666 58.4517 56.754 59.1862 56.0195C59.9207 55.285 60.3334 54.2887 60.3334 53.25V37.5833C60.3334 36.5445 59.9207 35.5483 59.1862 34.8138C58.4517 34.0793 57.4555 33.6666 56.4167 33.6666ZM40.8695 44.4355C41.1102 43.514 41.6782 42.7116 42.4673 42.1782C43.2564 41.6448 44.2126 41.417 45.1575 41.5371C46.1023 41.6573 46.9711 42.1173 47.6016 42.8312C48.232 43.5452 48.581 44.4642 48.5834 45.4166C48.5822 46.1016 48.4006 46.7741 48.0568 47.3664C47.713 47.9588 47.2192 48.4501 46.625 48.7908V53.25H42.7084V48.7908C41.9674 48.3663 41.3862 47.7102 41.054 46.9235C40.7218 46.1367 40.657 45.2627 40.8695 44.4355Z" fill="white"/>
<path d="M18.7658 77.14C18.0004 77.14 17.2958 77.014 16.6518 76.762C16.0078 76.51 15.4478 76.16 14.9718 75.712C14.4958 75.2547 14.1271 74.7227 13.8658 74.116C13.6044 73.5 13.4738 72.828 13.4738 72.1C13.4738 71.372 13.6044 70.7047 13.8658 70.098C14.1271 69.482 14.4958 68.95 14.9718 68.502C15.4478 68.0447 16.0078 67.69 16.6518 67.438C17.2958 67.186 17.9958 67.06 18.7518 67.06C19.5171 67.06 20.2171 67.186 20.8518 67.438C21.4958 67.69 22.0558 68.0447 22.5318 68.502C23.0078 68.95 23.3764 69.482 23.6378 70.098C23.8991 70.7047 24.0298 71.372 24.0298 72.1C24.0298 72.828 23.8991 73.5 23.6378 74.116C23.3764 74.732 23.0078 75.264 22.5318 75.712C22.0558 76.16 21.4958 76.51 20.8518 76.762C20.2171 77.014 19.5218 77.14 18.7658 77.14ZM18.7518 75.544C19.2464 75.544 19.7038 75.46 20.1238 75.292C20.5438 75.124 20.9078 74.886 21.2158 74.578C21.5238 74.2607 21.7618 73.8967 21.9298 73.486C22.1071 73.066 22.1958 72.604 22.1958 72.1C22.1958 71.596 22.1071 71.1387 21.9298 70.728C21.7618 70.308 21.5238 69.944 21.2158 69.636C20.9078 69.3187 20.5438 69.076 20.1238 68.908C19.7038 68.74 19.2464 68.656 18.7518 68.656C18.2571 68.656 17.7998 68.74 17.3798 68.908C16.9691 69.076 16.6051 69.3187 16.2878 69.636C15.9798 69.944 15.7371 70.308 15.5598 70.728C15.3918 71.1387 15.3078 71.596 15.3078 72.1C15.3078 72.5947 15.3918 73.052 15.5598 73.472C15.7371 73.892 15.9798 74.2607 16.2878 74.578C16.5958 74.886 16.9598 75.124 17.3798 75.292C17.7998 75.46 18.2571 75.544 18.7518 75.544ZM27.2769 77V70.588L27.6829 71.008H24.6449V69.524H31.6449V71.008H28.6209L29.0269 70.588V77H27.2769ZM38.2763 77L35.5743 73.416L37.0023 72.534L40.3343 77H38.2763ZM32.9143 77V69.524H34.6643V77H32.9143ZM34.1463 74.004V72.548H36.6803V74.004H34.1463ZM37.1703 73.472L35.5323 73.276L38.2763 69.524H40.1523L37.1703 73.472ZM45.7126 77.098C45.1059 77.098 44.5506 76.958 44.0466 76.678C43.5519 76.398 43.1552 75.978 42.8566 75.418C42.5672 74.8487 42.4226 74.13 42.4226 73.262C42.4226 72.3847 42.5626 71.666 42.8426 71.106C43.1319 70.546 43.5239 70.1307 44.0186 69.86C44.5132 69.58 45.0779 69.44 45.7126 69.44C46.4499 69.44 47.0986 69.5987 47.6586 69.916C48.2279 70.2333 48.6759 70.6767 49.0026 71.246C49.3386 71.8153 49.5066 72.4873 49.5066 73.262C49.5066 74.0367 49.3386 74.7133 49.0026 75.292C48.6759 75.8613 48.2279 76.3047 47.6586 76.622C47.0986 76.9393 46.4499 77.098 45.7126 77.098ZM41.5686 79.716V69.524H43.2346V71.288L43.1786 73.276L43.3186 75.264V79.716H41.5686ZM45.5166 75.6C45.9366 75.6 46.3099 75.5067 46.6366 75.32C46.9726 75.1333 47.2386 74.8627 47.4346 74.508C47.6306 74.1533 47.7286 73.738 47.7286 73.262C47.7286 72.7767 47.6306 72.3613 47.4346 72.016C47.2386 71.6613 46.9726 71.3907 46.6366 71.204C46.3099 71.0173 45.9366 70.924 45.5166 70.924C45.0966 70.924 44.7186 71.0173 44.3826 71.204C44.0466 71.3907 43.7806 71.6613 43.5846 72.016C43.3886 72.3613 43.2906 72.7767 43.2906 73.262C43.2906 73.738 43.3886 74.1533 43.5846 74.508C43.7806 74.8627 44.0466 75.1333 44.3826 75.32C44.7186 75.5067 45.0966 75.6 45.5166 75.6ZM58.7943 77V69.524H60.5443V77H58.7943ZM54.8883 71.988C55.8496 71.988 56.5776 72.2027 57.0723 72.632C57.5763 73.0613 57.8283 73.668 57.8283 74.452C57.8283 75.264 57.5483 75.8987 56.9883 76.356C56.4376 76.804 55.6536 77.0233 54.6363 77.014L51.2483 77V69.524H52.9983V71.974L54.8883 71.988ZM54.4823 75.726C54.9956 75.7353 55.3876 75.628 55.6583 75.404C55.9289 75.18 56.0643 74.8533 56.0643 74.424C56.0643 73.9947 55.9289 73.6867 55.6583 73.5C55.3969 73.304 55.0049 73.2013 54.4823 73.192L52.9983 73.178V75.712L54.4823 75.726ZM64.4507 77V70.588L64.8567 71.008H61.8187V69.524H68.8187V71.008H65.7947L66.2007 70.588V77H64.4507ZM73.8401 71.988C74.8014 71.988 75.5341 72.2027 76.0381 72.632C76.5421 73.0613 76.7941 73.668 76.7941 74.452C76.7941 75.264 76.5141 75.8987 75.9541 76.356C75.3941 76.804 74.6054 77.0233 73.5881 77.014L70.0881 77V69.524H71.8381V71.974L73.8401 71.988ZM73.4341 75.726C73.9474 75.7353 74.3394 75.628 74.6101 75.404C74.8808 75.18 75.0161 74.8533 75.0161 74.424C75.0161 73.9947 74.8808 73.6867 74.6101 73.5C74.3488 73.304 73.9568 73.2013 73.4341 73.192L71.8381 73.178V75.712L73.4341 75.726Z" fill="white"/>
</svg>