<svg width="90" height="90" viewBox="0 0 90 90" fill="none" xmlns="http://www.w3.org/2000/svg">
<path d="M18.0374 77V67.2H26.7034V77H24.9114V68.292L25.3314 68.74H19.4094L19.8294 68.292V77H18.0374ZM33.4147 77.098C32.8081 77.098 32.2527 76.958 31.7487 76.678C31.2541 76.398 30.8574 75.978 30.5587 75.418C30.2694 74.8487 30.1247 74.13 30.1247 73.262C30.1247 72.3847 30.2647 71.666 30.5447 71.106C30.8341 70.546 31.2261 70.1307 31.7207 69.86C32.2154 69.58 32.7801 69.44 33.4147 69.44C34.1521 69.44 34.8007 69.5987 35.3607 69.916C35.9301 70.2333 36.3781 70.6767 36.7047 71.246C37.0407 71.8153 37.2087 72.4873 37.2087 73.262C37.2087 74.0367 37.0407 74.7133 36.7047 75.292C36.3781 75.8613 35.9301 76.3047 35.3607 76.622C34.8007 76.9393 34.1521 77.098 33.4147 77.098ZM29.2707 79.716V69.524H30.9367V71.288L30.8807 73.276L31.0207 75.264V79.716H29.2707ZM33.2187 75.6C33.6387 75.6 34.0121 75.5067 34.3387 75.32C34.6747 75.1333 34.9407 74.8627 35.1367 74.508C35.3327 74.1533 35.4307 73.738 35.4307 73.262C35.4307 72.7767 35.3327 72.3613 35.1367 72.016C34.9407 71.6613 34.6747 71.3907 34.3387 71.204C34.0121 71.0173 33.6387 70.924 33.2187 70.924C32.7987 70.924 32.4207 71.0173 32.0847 71.204C31.7487 71.3907 31.4827 71.6613 31.2867 72.016C31.0907 72.3613 30.9927 72.7767 30.9927 73.262C30.9927 73.738 31.0907 74.1533 31.2867 74.508C31.4827 74.8627 31.7487 75.1333 32.0847 75.32C32.4207 75.5067 32.7987 75.6 33.2187 75.6ZM42.2824 77.098C41.5171 77.098 40.8357 76.9347 40.2384 76.608C39.6411 76.272 39.1697 75.8147 38.8244 75.236C38.4791 74.6573 38.3064 73.9993 38.3064 73.262C38.3064 72.5153 38.4791 71.8573 38.8244 71.288C39.1697 70.7093 39.6411 70.2567 40.2384 69.93C40.8357 69.6033 41.5171 69.44 42.2824 69.44C43.0571 69.44 43.7431 69.6033 44.3404 69.93C44.9471 70.2567 45.4184 70.7047 45.7544 71.274C46.0997 71.8433 46.2724 72.506 46.2724 73.262C46.2724 73.9993 46.0997 74.6573 45.7544 75.236C45.4184 75.8147 44.9471 76.272 44.3404 76.608C43.7431 76.9347 43.0571 77.098 42.2824 77.098ZM42.2824 75.6C42.7117 75.6 43.0944 75.5067 43.4304 75.32C43.7664 75.1333 44.0277 74.8627 44.2144 74.508C44.4104 74.1533 44.5084 73.738 44.5084 73.262C44.5084 72.7767 44.4104 72.3613 44.2144 72.016C44.0277 71.6613 43.7664 71.3907 43.4304 71.204C43.0944 71.0173 42.7164 70.924 42.2964 70.924C41.8671 70.924 41.4844 71.0173 41.1484 71.204C40.8217 71.3907 40.5604 71.6613 40.3644 72.016C40.1684 72.3613 40.0704 72.7767 40.0704 73.262C40.0704 73.738 40.1684 74.1533 40.3644 74.508C40.5604 74.8627 40.8217 75.1333 41.1484 75.32C41.4844 75.5067 41.8624 75.6 42.2824 75.6ZM52.7192 74.046C52.3645 74.214 51.9865 74.354 51.5852 74.466C51.1932 74.5687 50.7779 74.62 50.3392 74.62C49.3965 74.62 48.6639 74.4007 48.1412 73.962C47.6185 73.5233 47.3572 72.842 47.3572 71.918V69.524H49.1072V71.806C49.1072 72.3007 49.2472 72.66 49.5272 72.884C49.8165 73.108 50.2132 73.22 50.7172 73.22C51.0532 73.22 51.3892 73.178 51.7252 73.094C52.0612 73.01 52.3925 72.8933 52.7192 72.744V74.046ZM52.5932 77V69.524H54.3432V77H52.5932ZM60.1825 77.098C59.3518 77.098 58.6238 76.9347 57.9985 76.608C57.3825 76.272 56.9018 75.8147 56.5565 75.236C56.2205 74.6573 56.0525 73.9993 56.0525 73.262C56.0525 72.5153 56.2158 71.8573 56.5425 71.288C56.8785 70.7093 57.3358 70.2567 57.9145 69.93C58.5025 69.6033 59.1698 69.44 59.9165 69.44C60.6445 69.44 61.2932 69.5987 61.8625 69.916C62.4318 70.2333 62.8798 70.6813 63.2065 71.26C63.5332 71.8387 63.6965 72.52 63.6965 73.304C63.6965 73.3787 63.6918 73.4627 63.6825 73.556C63.6825 73.6493 63.6778 73.738 63.6685 73.822H57.4385V72.66H62.7445L62.0585 73.024C62.0678 72.5947 61.9792 72.2167 61.7925 71.89C61.6058 71.5633 61.3492 71.3067 61.0225 71.12C60.7052 70.9333 60.3365 70.84 59.9165 70.84C59.4872 70.84 59.1092 70.9333 58.7825 71.12C58.4652 71.3067 58.2132 71.568 58.0265 71.904C57.8492 72.2307 57.7605 72.618 57.7605 73.066V73.346C57.7605 73.794 57.8632 74.1907 58.0685 74.536C58.2738 74.8813 58.5632 75.1473 58.9365 75.334C59.3098 75.5207 59.7392 75.614 60.2245 75.614C60.6445 75.614 61.0225 75.5487 61.3585 75.418C61.6945 75.2873 61.9932 75.082 62.2545 74.802L63.1925 75.88C62.8565 76.272 62.4318 76.5753 61.9185 76.79C61.4145 76.9953 60.8358 77.098 60.1825 77.098ZM69.0966 77.098C68.2659 77.098 67.5379 76.9347 66.9126 76.608C66.2966 76.272 65.8159 75.8147 65.4706 75.236C65.1346 74.6573 64.9666 73.9993 64.9666 73.262C64.9666 72.5153 65.1299 71.8573 65.4566 71.288C65.7926 70.7093 66.2499 70.2567 66.8286 69.93C67.4166 69.6033 68.0839 69.44 68.8306 69.44C69.5586 69.44 70.2072 69.5987 70.7766 69.916C71.3459 70.2333 71.7939 70.6813 72.1206 71.26C72.4472 71.8387 72.6106 72.52 72.6106 73.304C72.6106 73.3787 72.6059 73.4627 72.5966 73.556C72.5966 73.6493 72.5919 73.738 72.5826 73.822H66.3526V72.66H71.6586L70.9726 73.024C70.9819 72.5947 70.8932 72.2167 70.7066 71.89C70.5199 71.5633 70.2632 71.3067 69.9366 71.12C69.6192 70.9333 69.2506 70.84 68.8306 70.84C68.4012 70.84 68.0232 70.9333 67.6966 71.12C67.3792 71.3067 67.1272 71.568 66.9406 71.904C66.7632 72.2307 66.6746 72.618 66.6746 73.066V73.346C66.6746 73.794 66.7772 74.1907 66.9826 74.536C67.1879 74.8813 67.4772 75.1473 67.8506 75.334C68.2239 75.5207 68.6532 75.614 69.1386 75.614C69.5586 75.614 69.9366 75.5487 70.2726 75.418C70.6086 75.2873 70.9072 75.082 71.1686 74.802L72.1066 75.88C71.7706 76.272 71.3459 76.5753 70.8326 76.79C70.3286 76.9953 69.7499 77.098 69.0966 77.098Z" fill="white"/>
<path d="M63.0313 32.7113V31.5V30.2728L66.0913 27.5953C66.6553 27.0982 67.0255 26.4176 67.1363 25.6739C67.2471 24.9302 67.0915 24.1713 66.6969 23.5313L62.9356 17.1563C62.6562 16.6722 62.2543 16.2701 61.7703 15.9904C61.2864 15.7106 60.7374 15.5631 60.1784 15.5625C59.832 15.5599 59.4875 15.6137 59.1584 15.7219L55.2856 17.0288C54.617 16.5844 53.9195 16.1851 53.1978 15.8334L52.385 11.8172C52.2393 11.0834 51.8401 10.4243 51.2574 9.95522C50.6746 9.48612 49.9455 9.23692 49.1975 9.25126H41.7388C40.9908 9.23692 40.2616 9.48612 39.6789 9.95522C39.0962 10.4243 38.697 11.0834 38.5513 11.8172L37.7384 15.8334C37.0116 16.185 36.3088 16.5843 35.6347 17.0288L31.8416 15.6581C31.5089 15.5715 31.1645 15.5392 30.8216 15.5625C30.2626 15.5631 29.7136 15.7106 29.2297 15.9904C28.7457 16.2701 28.3439 16.6722 28.0644 17.1563L24.3031 23.5313C23.9311 24.1703 23.7929 24.9189 23.9121 25.6487C24.0313 26.3784 24.4005 27.0441 24.9566 27.5316L27.9688 30.2888V32.7272L24.9566 35.4047C24.3848 35.8956 24.0055 36.5731 23.8859 37.3171C23.7663 38.0611 23.9141 38.8234 24.3031 39.4688L28.0644 45.8438C28.3439 46.3278 28.7457 46.7299 29.2297 47.0097C29.7136 47.2894 30.2626 47.4369 30.8216 47.4375C31.168 47.4402 31.5125 47.3863 31.8416 47.2781L35.7144 45.9713C36.383 46.4156 37.0805 46.8149 37.8022 47.1666L38.615 51.1828C38.7607 51.9166 39.1599 52.5757 39.7427 53.0448C40.3254 53.5139 41.0546 53.7631 41.8025 53.7488H49.325C50.073 53.7631 50.8021 53.5139 51.3849 53.0448C51.9676 52.5757 52.3668 51.9166 52.5125 51.1828L53.3253 47.1666C54.0522 46.815 54.755 46.4157 55.4291 45.9713L59.2859 47.2781C59.615 47.3863 59.9595 47.4402 60.3059 47.4375C60.8649 47.4369 61.4139 47.2894 61.8978 47.0097C62.3818 46.7299 62.7836 46.3278 63.0631 45.8438L66.6969 39.4688C67.0689 38.8297 67.2071 38.0812 67.0879 37.3514C66.9687 36.6216 66.5995 35.9559 66.0434 35.4684L63.0313 32.7113ZM60.1784 44.25L54.7119 42.4013C53.4322 43.4852 51.9697 44.3325 50.3928 44.9034L49.2613 50.625H41.7388L40.6072 44.9672C39.0428 44.38 37.5882 43.5342 36.3041 42.465L30.8216 44.25L27.0603 37.875L31.3953 34.05C31.1006 32.4003 31.1006 30.7113 31.3953 29.0616L27.0603 25.125L30.8216 18.75L36.2881 20.5988C37.5678 19.5148 39.0303 18.6675 40.6072 18.0966L41.7388 12.375H49.2613L50.3928 18.0328C51.9572 18.62 53.4118 19.4658 54.6959 20.535L60.1784 18.75L63.9397 25.125L59.6047 28.95C59.8994 30.5998 59.8994 32.2887 59.6047 33.9384L63.9397 37.875L60.1784 44.25Z" fill="white"/>
<path d="M45.5 41.0625C43.6087 41.0625 41.7599 40.5017 40.1874 39.4509C38.6148 38.4002 37.3892 36.9067 36.6654 35.1594C35.9416 33.4121 35.7523 31.4894 36.1212 29.6345C36.4902 27.7795 37.401 26.0756 38.7383 24.7383C40.0756 23.401 41.7795 22.4902 43.6345 22.1212C45.4894 21.7523 47.4121 21.9416 49.1594 22.6654C50.9067 23.3892 52.4002 24.6148 53.4509 26.1874C54.5017 27.7599 55.0625 29.6087 55.0625 31.5C55.0753 32.7593 54.8367 34.0085 54.3606 35.1745C53.8846 36.3404 53.1807 37.3997 52.2902 38.2902C51.3997 39.1807 50.3404 39.8846 49.1745 40.3606C48.0085 40.8367 46.7593 41.0753 45.5 41.0625ZM45.5 25.125C44.6575 25.1054 43.8197 25.2569 43.0374 25.5703C42.255 25.8837 41.5444 26.3526 40.9485 26.9485C40.3526 27.5444 39.8837 28.255 39.5703 29.0374C39.2569 29.8197 39.1054 30.6575 39.125 31.5C39.1054 32.3425 39.2569 33.1803 39.5703 33.9626C39.8837 34.745 40.3526 35.4556 40.9485 36.0515C41.5444 36.6474 42.255 37.1163 43.0374 37.4297C43.8197 37.7432 44.6575 37.8946 45.5 37.875C46.3425 37.8946 47.1803 37.7432 47.9626 37.4297C48.745 37.1163 49.4556 36.6474 50.0515 36.0515C50.6474 35.4556 51.1163 34.745 51.4297 33.9626C51.7432 33.1803 51.8946 32.3425 51.875 31.5C51.8946 30.6575 51.7432 29.8197 51.4297 29.0374C51.1163 28.255 50.6474 27.5444 50.0515 26.9485C49.4556 26.3526 48.745 25.8837 47.9626 25.5703C47.1803 25.2569 46.3425 25.1054 45.5 25.125Z" fill="white"/>
</svg>
