<svg width="90" height="90" viewBox="0 0 90 90" fill="none" xmlns="http://www.w3.org/2000/svg">
<path d="M63.0313 59.7112V58.4999V57.2728L66.0913 54.5953C66.6553 54.0981 67.0255 53.4175 67.1363 52.6738C67.2471 51.9301 67.0915 51.1712 66.6969 50.5312L62.9356 44.1562C62.6561 43.6721 62.2543 43.27 61.7703 42.9903C61.2864 42.7106 60.7374 42.563 60.1784 42.5624C59.832 42.5598 59.4875 42.6136 59.1584 42.7218L55.2856 44.0287C54.617 43.5844 53.9195 43.1851 53.1978 42.8334L52.385 38.8171C52.2393 38.0834 51.8401 37.4243 51.2574 36.9552C50.6746 36.4861 49.9455 36.2369 49.1975 36.2512H41.7388C40.9908 36.2369 40.2616 36.4861 39.6789 36.9552C39.0962 37.4243 38.697 38.0834 38.5513 38.8171L37.7384 42.8334C37.0116 43.185 36.3088 43.5843 35.6347 44.0287L31.8416 42.6581C31.5089 42.5714 31.1645 42.5391 30.8216 42.5624C30.2626 42.563 29.7136 42.7106 29.2297 42.9903C28.7457 43.27 28.3439 43.6721 28.0644 44.1562L24.3031 50.5312C23.9311 51.1703 23.7929 51.9188 23.9121 52.6486C24.0313 53.3784 24.4005 54.044 24.9566 54.5315L27.9688 57.2887V59.7271L24.9566 62.4046C24.3848 62.8955 24.0055 63.5731 23.8859 64.317C23.7663 65.061 23.9141 65.8233 24.3031 66.4687L28.0644 72.8437C28.3439 73.3278 28.7457 73.7299 29.2297 74.0096C29.7136 74.2893 30.2626 74.4369 30.8216 74.4374C31.168 74.4401 31.5125 74.3863 31.8416 74.2781L35.7144 72.9712C36.383 73.4155 37.0805 73.8148 37.8022 74.1665L38.615 78.1828C38.7607 78.9165 39.1599 79.5756 39.7427 80.0447C40.3254 80.5138 41.0546 80.763 41.8025 80.7487H49.325C50.073 80.763 50.8021 80.5138 51.3849 80.0447C51.9676 79.5756 52.3668 78.9165 52.5125 78.1828L53.3253 74.1665C54.0522 73.8149 54.755 73.4156 55.4291 72.9712L59.2859 74.2781C59.615 74.3863 59.9595 74.4401 60.3059 74.4374C60.8649 74.4369 61.4139 74.2893 61.8978 74.0096C62.3818 73.7299 62.7836 73.3278 63.0631 72.8437L66.6969 66.4687C67.0689 65.8296 67.2071 65.0811 67.0879 64.3513C66.9687 63.6215 66.5995 62.9559 66.0434 62.4684L63.0313 59.7112ZM60.1784 71.2499L54.7119 69.4012C53.4322 70.4851 51.9697 71.3324 50.3928 71.9034L49.2613 77.6249H41.7388L40.6072 71.9671C39.0428 71.38 37.5882 70.5341 36.3041 69.4649L30.8216 71.2499L27.0603 64.8749L31.3953 61.0499C31.1006 59.4002 31.1006 57.7113 31.3953 56.0615L27.0603 52.1249L30.8216 45.7499L36.2881 47.5987C37.5678 46.5148 39.0303 45.6675 40.6072 45.0965L41.7388 39.3749H49.2613L50.3928 45.0328C51.9572 45.6199 53.4118 46.4658 54.6959 47.5349L60.1784 45.7499L63.9397 52.1249L59.6047 55.9499C59.8994 57.5997 59.8994 59.2886 59.6047 60.9384L63.9397 64.8749L60.1784 71.2499Z" fill="white"/>
<path d="M45.5 68.0625C43.6087 68.0625 41.7599 67.5017 40.1874 66.4509C38.6148 65.4002 37.3892 63.9067 36.6654 62.1594C35.9416 60.4121 35.7523 58.4894 36.1212 56.6345C36.4902 54.7795 37.401 53.0756 38.7383 51.7383C40.0756 50.401 41.7795 49.4902 43.6345 49.1212C45.4894 48.7523 47.4121 48.9416 49.1594 49.6654C50.9067 50.3892 52.4002 51.6148 53.4509 53.1874C54.5017 54.7599 55.0625 56.6087 55.0625 58.5C55.0753 59.7593 54.8367 61.0085 54.3606 62.1745C53.8846 63.3404 53.1807 64.3997 52.2902 65.2902C51.3997 66.1807 50.3404 66.8846 49.1745 67.3606C48.0085 67.8367 46.7593 68.0753 45.5 68.0625V68.0625ZM45.5 52.125C44.6575 52.1054 43.8197 52.2569 43.0374 52.5703C42.255 52.8837 41.5444 53.3526 40.9485 53.9485C40.3526 54.5444 39.8837 55.255 39.5703 56.0374C39.2569 56.8197 39.1054 57.6575 39.125 58.5C39.1054 59.3425 39.2569 60.1803 39.5703 60.9626C39.8837 61.745 40.3526 62.4556 40.9485 63.0515C41.5444 63.6474 42.255 64.1163 43.0374 64.4297C43.8197 64.7432 44.6575 64.8946 45.5 64.875C46.3425 64.8946 47.1803 64.7432 47.9626 64.4297C48.745 64.1163 49.4556 63.6474 50.0515 63.0515C50.6474 62.4556 51.1163 61.745 51.4297 60.9626C51.7432 60.1803 51.8946 59.3425 51.875 58.5C51.8946 57.6575 51.7432 56.8197 51.4297 56.0374C51.1163 55.255 50.6474 54.5444 50.0515 53.9485C49.4556 53.3526 48.745 52.8837 47.9626 52.5703C47.1803 52.2569 46.3425 52.1054 45.5 52.125Z" fill="white"/>
<path d="M18.0374 24V14.2H26.7034V24H24.9114V15.292L25.3314 15.74H19.4094L19.8294 15.292V24H18.0374ZM33.4147 24.098C32.8081 24.098 32.2527 23.958 31.7487 23.678C31.2541 23.398 30.8574 22.978 30.5587 22.418C30.2694 21.8487 30.1247 21.13 30.1247 20.262C30.1247 19.3847 30.2647 18.666 30.5447 18.106C30.8341 17.546 31.2261 17.1307 31.7207 16.86C32.2154 16.58 32.7801 16.44 33.4147 16.44C34.1521 16.44 34.8007 16.5987 35.3607 16.916C35.9301 17.2333 36.3781 17.6767 36.7047 18.246C37.0407 18.8153 37.2087 19.4873 37.2087 20.262C37.2087 21.0367 37.0407 21.7133 36.7047 22.292C36.3781 22.8613 35.9301 23.3047 35.3607 23.622C34.8007 23.9393 34.1521 24.098 33.4147 24.098ZM29.2707 26.716V16.524H30.9367V18.288L30.8807 20.276L31.0207 22.264V26.716H29.2707ZM33.2187 22.6C33.6387 22.6 34.0121 22.5067 34.3387 22.32C34.6747 22.1333 34.9407 21.8627 35.1367 21.508C35.3327 21.1533 35.4307 20.738 35.4307 20.262C35.4307 19.7767 35.3327 19.3613 35.1367 19.016C34.9407 18.6613 34.6747 18.3907 34.3387 18.204C34.0121 18.0173 33.6387 17.924 33.2187 17.924C32.7987 17.924 32.4207 18.0173 32.0847 18.204C31.7487 18.3907 31.4827 18.6613 31.2867 19.016C31.0907 19.3613 30.9927 19.7767 30.9927 20.262C30.9927 20.738 31.0907 21.1533 31.2867 21.508C31.4827 21.8627 31.7487 22.1333 32.0847 22.32C32.4207 22.5067 32.7987 22.6 33.2187 22.6ZM42.2824 24.098C41.5171 24.098 40.8357 23.9347 40.2384 23.608C39.6411 23.272 39.1697 22.8147 38.8244 22.236C38.4791 21.6573 38.3064 20.9993 38.3064 20.262C38.3064 19.5153 38.4791 18.8573 38.8244 18.288C39.1697 17.7093 39.6411 17.2567 40.2384 16.93C40.8357 16.6033 41.5171 16.44 42.2824 16.44C43.0571 16.44 43.7431 16.6033 44.3404 16.93C44.9471 17.2567 45.4184 17.7047 45.7544 18.274C46.0997 18.8433 46.2724 19.506 46.2724 20.262C46.2724 20.9993 46.0997 21.6573 45.7544 22.236C45.4184 22.8147 44.9471 23.272 44.3404 23.608C43.7431 23.9347 43.0571 24.098 42.2824 24.098ZM42.2824 22.6C42.7117 22.6 43.0944 22.5067 43.4304 22.32C43.7664 22.1333 44.0277 21.8627 44.2144 21.508C44.4104 21.1533 44.5084 20.738 44.5084 20.262C44.5084 19.7767 44.4104 19.3613 44.2144 19.016C44.0277 18.6613 43.7664 18.3907 43.4304 18.204C43.0944 18.0173 42.7164 17.924 42.2964 17.924C41.8671 17.924 41.4844 18.0173 41.1484 18.204C40.8217 18.3907 40.5604 18.6613 40.3644 19.016C40.1684 19.3613 40.0704 19.7767 40.0704 20.262C40.0704 20.738 40.1684 21.1533 40.3644 21.508C40.5604 21.8627 40.8217 22.1333 41.1484 22.32C41.4844 22.5067 41.8624 22.6 42.2824 22.6ZM52.7192 21.046C52.3645 21.214 51.9865 21.354 51.5852 21.466C51.1932 21.5687 50.7779 21.62 50.3392 21.62C49.3965 21.62 48.6639 21.4007 48.1412 20.962C47.6185 20.5233 47.3572 19.842 47.3572 18.918V16.524H49.1072V18.806C49.1072 19.3007 49.2472 19.66 49.5272 19.884C49.8165 20.108 50.2132 20.22 50.7172 20.22C51.0532 20.22 51.3892 20.178 51.7252 20.094C52.0612 20.01 52.3925 19.8933 52.7192 19.744V21.046ZM52.5932 24V16.524H54.3432V24H52.5932ZM60.1825 24.098C59.3518 24.098 58.6238 23.9347 57.9985 23.608C57.3825 23.272 56.9018 22.8147 56.5565 22.236C56.2205 21.6573 56.0525 20.9993 56.0525 20.262C56.0525 19.5153 56.2158 18.8573 56.5425 18.288C56.8785 17.7093 57.3358 17.2567 57.9145 16.93C58.5025 16.6033 59.1698 16.44 59.9165 16.44C60.6445 16.44 61.2932 16.5987 61.8625 16.916C62.4318 17.2333 62.8798 17.6813 63.2065 18.26C63.5332 18.8387 63.6965 19.52 63.6965 20.304C63.6965 20.3787 63.6918 20.4627 63.6825 20.556C63.6825 20.6493 63.6778 20.738 63.6685 20.822H57.4385V19.66H62.7445L62.0585 20.024C62.0678 19.5947 61.9792 19.2167 61.7925 18.89C61.6058 18.5633 61.3492 18.3067 61.0225 18.12C60.7052 17.9333 60.3365 17.84 59.9165 17.84C59.4872 17.84 59.1092 17.9333 58.7825 18.12C58.4652 18.3067 58.2132 18.568 58.0265 18.904C57.8492 19.2307 57.7605 19.618 57.7605 20.066V20.346C57.7605 20.794 57.8632 21.1907 58.0685 21.536C58.2738 21.8813 58.5632 22.1473 58.9365 22.334C59.3098 22.5207 59.7392 22.614 60.2245 22.614C60.6445 22.614 61.0225 22.5487 61.3585 22.418C61.6945 22.2873 61.9932 22.082 62.2545 21.802L63.1925 22.88C62.8565 23.272 62.4318 23.5753 61.9185 23.79C61.4145 23.9953 60.8358 24.098 60.1825 24.098ZM69.0966 24.098C68.2659 24.098 67.5379 23.9347 66.9126 23.608C66.2966 23.272 65.8159 22.8147 65.4706 22.236C65.1346 21.6573 64.9666 20.9993 64.9666 20.262C64.9666 19.5153 65.1299 18.8573 65.4566 18.288C65.7926 17.7093 66.2499 17.2567 66.8286 16.93C67.4166 16.6033 68.0839 16.44 68.8306 16.44C69.5586 16.44 70.2072 16.5987 70.7766 16.916C71.3459 17.2333 71.7939 17.6813 72.1206 18.26C72.4472 18.8387 72.6106 19.52 72.6106 20.304C72.6106 20.3787 72.6059 20.4627 72.5966 20.556C72.5966 20.6493 72.5919 20.738 72.5826 20.822H66.3526V19.66H71.6586L70.9726 20.024C70.9819 19.5947 70.8932 19.2167 70.7066 18.89C70.5199 18.5633 70.2632 18.3067 69.9366 18.12C69.6192 17.9333 69.2506 17.84 68.8306 17.84C68.4012 17.84 68.0232 17.9333 67.6966 18.12C67.3792 18.3067 67.1272 18.568 66.9406 18.904C66.7632 19.2307 66.6746 19.618 66.6746 20.066V20.346C66.6746 20.794 66.7772 21.1907 66.9826 21.536C67.1879 21.8813 67.4772 22.1473 67.8506 22.334C68.2239 22.5207 68.6532 22.614 69.1386 22.614C69.5586 22.614 69.9366 22.5487 70.2726 22.418C70.6086 22.2873 70.9072 22.082 71.1686 21.802L72.1066 22.88C71.7706 23.272 71.3459 23.5753 70.8326 23.79C70.3286 23.9953 69.7499 24.098 69.0966 24.098Z" fill="white"/>
</svg>
