<svg width="90" height="90" viewBox="0 0 90 90" fill="none" xmlns="http://www.w3.org/2000/svg">
<path d="M10.1487 24V14.2H18.8147V24H17.0227V15.292L17.4427 15.74H11.5207L11.9407 15.292V24H10.1487ZM25.9181 24V22.488L25.8201 22.166V19.52C25.8201 19.0067 25.6661 18.61 25.3581 18.33C25.0501 18.0407 24.5834 17.896 23.9581 17.896C23.5381 17.896 23.1227 17.9613 22.7121 18.092C22.3107 18.2227 21.9701 18.4047 21.6901 18.638L21.0041 17.364C21.4054 17.056 21.8814 16.8273 22.4321 16.678C22.9921 16.5193 23.5707 16.44 24.1681 16.44C25.2507 16.44 26.0861 16.7013 26.6741 17.224C27.2714 17.7373 27.5701 18.5353 27.5701 19.618V24H25.9181ZM23.5661 24.098C23.0061 24.098 22.5161 24.0047 22.0961 23.818C21.6761 23.622 21.3494 23.356 21.1161 23.02C20.8921 22.6747 20.7801 22.2873 20.7801 21.858C20.7801 21.438 20.8781 21.06 21.0741 20.724C21.2794 20.388 21.6107 20.122 22.0681 19.926C22.5254 19.73 23.1321 19.632 23.8881 19.632H26.0581V20.794H24.0141C23.4167 20.794 23.0154 20.892 22.8101 21.088C22.6047 21.2747 22.5021 21.508 22.5021 21.788C22.5021 22.1053 22.6281 22.3573 22.8801 22.544C23.1321 22.7307 23.4821 22.824 23.9301 22.824C24.3594 22.824 24.7421 22.726 25.0781 22.53C25.4234 22.334 25.6707 22.0447 25.8201 21.662L26.1141 22.712C25.9461 23.1507 25.6427 23.4913 25.2041 23.734C24.7747 23.9767 24.2287 24.098 23.5661 24.098ZM33.8796 24.098C33.2729 24.098 32.7176 23.958 32.2136 23.678C31.7189 23.398 31.3222 22.978 31.0236 22.418C30.7342 21.8487 30.5896 21.13 30.5896 20.262C30.5896 19.3847 30.7296 18.666 31.0096 18.106C31.2989 17.546 31.6909 17.1307 32.1856 16.86C32.6802 16.58 33.2449 16.44 33.8796 16.44C34.6169 16.44 35.2656 16.5987 35.8256 16.916C36.3949 17.2333 36.8429 17.6767 37.1696 18.246C37.5056 18.8153 37.6736 19.4873 37.6736 20.262C37.6736 21.0367 37.5056 21.7133 37.1696 22.292C36.8429 22.8613 36.3949 23.3047 35.8256 23.622C35.2656 23.9393 34.6169 24.098 33.8796 24.098ZM29.7356 26.716V16.524H31.4016V18.288L31.3456 20.276L31.4856 22.264V26.716H29.7356ZM33.6836 22.6C34.1036 22.6 34.4769 22.5067 34.8036 22.32C35.1396 22.1333 35.4056 21.8627 35.6016 21.508C35.7976 21.1533 35.8956 20.738 35.8956 20.262C35.8956 19.7767 35.7976 19.3613 35.6016 19.016C35.4056 18.6613 35.1396 18.3907 34.8036 18.204C34.4769 18.0173 34.1036 17.924 33.6836 17.924C33.2636 17.924 32.8856 18.0173 32.5496 18.204C32.2136 18.3907 31.9476 18.6613 31.7516 19.016C31.5556 19.3613 31.4576 19.7767 31.4576 20.262C31.4576 20.738 31.5556 21.1533 31.7516 21.508C31.9476 21.8627 32.2136 22.1333 32.5496 22.32C32.8856 22.5067 33.2636 22.6 33.6836 22.6ZM44.7773 24L42.0753 20.416L43.5033 19.534L46.8353 24H44.7773ZM39.4153 24V16.524H41.1653V24H39.4153ZM40.6473 21.004V19.548H43.1813V21.004H40.6473ZM43.6713 20.472L42.0333 20.276L44.7773 16.524H46.6533L43.6713 20.472ZM51.1555 24.098C50.3901 24.098 49.7088 23.9347 49.1115 23.608C48.5141 23.272 48.0428 22.8147 47.6975 22.236C47.3521 21.6573 47.1795 20.9993 47.1795 20.262C47.1795 19.5153 47.3521 18.8573 47.6975 18.288C48.0428 17.7093 48.5141 17.2567 49.1115 16.93C49.7088 16.6033 50.3901 16.44 51.1555 16.44C51.9301 16.44 52.6161 16.6033 53.2135 16.93C53.8201 17.2567 54.2915 17.7047 54.6275 18.274C54.9728 18.8433 55.1455 19.506 55.1455 20.262C55.1455 20.9993 54.9728 21.6573 54.6275 22.236C54.2915 22.8147 53.8201 23.272 53.2135 23.608C52.6161 23.9347 51.9301 24.098 51.1555 24.098ZM51.1555 22.6C51.5848 22.6 51.9675 22.5067 52.3035 22.32C52.6395 22.1333 52.9008 21.8627 53.0875 21.508C53.2835 21.1533 53.3815 20.738 53.3815 20.262C53.3815 19.7767 53.2835 19.3613 53.0875 19.016C52.9008 18.6613 52.6395 18.3907 52.3035 18.204C51.9675 18.0173 51.5895 17.924 51.1695 17.924C50.7401 17.924 50.3575 18.0173 50.0215 18.204C49.6948 18.3907 49.4335 18.6613 49.2375 19.016C49.0415 19.3613 48.9435 19.7767 48.9435 20.262C48.9435 20.738 49.0415 21.1533 49.2375 21.508C49.4335 21.8627 49.6948 22.1333 50.0215 22.32C50.3575 22.5067 50.7355 22.6 51.1555 22.6ZM56.8742 24V16.524H60.5282C61.4336 16.524 62.1429 16.692 62.6562 17.028C63.1789 17.364 63.4402 17.84 63.4402 18.456C63.4402 19.0627 63.1976 19.5387 62.7122 19.884C62.2269 20.22 61.5829 20.388 60.7802 20.388L60.9902 19.954C61.8956 19.954 62.5676 20.122 63.0062 20.458C63.4542 20.7847 63.6782 21.2653 63.6782 21.9C63.6782 22.5627 63.4309 23.0807 62.9362 23.454C62.4416 23.818 61.6902 24 60.6822 24H56.8742ZM58.5402 22.726H60.5422C61.0182 22.726 61.3776 22.6513 61.6202 22.502C61.8629 22.3433 61.9842 22.1053 61.9842 21.788C61.9842 21.452 61.8722 21.2047 61.6482 21.046C61.4242 20.8873 61.0742 20.808 60.5982 20.808H58.5402V22.726ZM58.5402 19.646H60.3742C60.8222 19.646 61.1582 19.5667 61.3822 19.408C61.6156 19.24 61.7322 19.0067 61.7322 18.708C61.7322 18.4 61.6156 18.1713 61.3822 18.022C61.1582 17.8727 60.8222 17.798 60.3742 17.798H58.5402V19.646ZM70.9042 24L68.2022 20.416L69.6302 19.534L72.9622 24H70.9042ZM65.5422 24V16.524H67.2922V24H65.5422ZM66.7742 21.004V19.548H69.3082V21.004H66.7742ZM69.7982 20.472L68.1602 20.276L70.9042 16.524H72.7802L69.7982 20.472ZM78.5958 24V22.488L78.4978 22.166V19.52C78.4978 19.0067 78.3438 18.61 78.0358 18.33C77.7278 18.0407 77.2611 17.896 76.6358 17.896C76.2158 17.896 75.8005 17.9613 75.3898 18.092C74.9885 18.2227 74.6478 18.4047 74.3678 18.638L73.6818 17.364C74.0831 17.056 74.5591 16.8273 75.1098 16.678C75.6698 16.5193 76.2485 16.44 76.8458 16.44C77.9285 16.44 78.7638 16.7013 79.3518 17.224C79.9491 17.7373 80.2478 18.5353 80.2478 19.618V24H78.5958ZM76.2438 24.098C75.6838 24.098 75.1938 24.0047 74.7738 23.818C74.3538 23.622 74.0271 23.356 73.7938 23.02C73.5698 22.6747 73.4578 22.2873 73.4578 21.858C73.4578 21.438 73.5558 21.06 73.7518 20.724C73.9571 20.388 74.2885 20.122 74.7458 19.926C75.2031 19.73 75.8098 19.632 76.5658 19.632H78.7358V20.794H76.6918C76.0945 20.794 75.6931 20.892 75.4878 21.088C75.2825 21.2747 75.1798 21.508 75.1798 21.788C75.1798 22.1053 75.3058 22.3573 75.5578 22.544C75.8098 22.7307 76.1598 22.824 76.6078 22.824C77.0371 22.824 77.4198 22.726 77.7558 22.53C78.1011 22.334 78.3485 22.0447 78.4978 21.662L78.7918 22.712C78.6238 23.1507 78.3205 23.4913 77.8818 23.734C77.4525 23.9767 76.9065 24.098 76.2438 24.098Z" fill="white"/>
<path d="M58.4643 37.3125H32.5357C30.5837 37.3125 29 38.8662 29 40.7812V66.2188C29 68.1338 30.5837 69.6875 32.5357 69.6875H58.4643C60.4163 69.6875 62 68.1338 62 66.2188V40.7812C62 38.8662 60.4163 37.3125 58.4643 37.3125ZM46.6786 58.125H43.1429V61.5938C43.1429 62.2297 42.6125 62.75 41.9643 62.75H39.6071C38.9589 62.75 38.4286 62.2297 38.4286 61.5938V45.4062C38.4286 44.7703 38.9589 44.25 39.6071 44.25H46.6786C50.5752 44.25 53.75 47.3646 53.75 51.1875C53.75 55.0104 50.5752 58.125 46.6786 58.125ZM46.6786 48.875H43.1429V53.5H46.6786C47.975 53.5 49.0357 52.4594 49.0357 51.1875C49.0357 49.9156 47.975 48.875 46.6786 48.875Z" fill="white"/>
</svg>
