<svg width="132" height="61" viewBox="0 0 132 61" fill="none" xmlns="http://www.w3.org/2000/svg"><path d="M0.90975 60V47.4H12.3938V60H9.49575V49.11L10.1618 49.776H3.14175L3.80775 49.11V60H0.90975ZM14.0952 60L19.7112 47.4H22.5912L28.2252 60H25.1652L20.5572 48.876H21.7092L17.0832 60H14.0952ZM16.9032 57.3L17.6772 55.086H24.1572L24.9492 57.3H16.9032ZM35.6783 60.216C34.7063 60.216 33.8003 60.06 32.9603 59.748C32.1323 59.424 31.4123 58.968 30.8003 58.38C30.1883 57.792 29.7083 57.102 29.3603 56.31C29.0243 55.518 28.8563 54.648 28.8563 53.7C28.8563 52.752 29.0243 51.882 29.3603 51.09C29.7083 50.298 30.1883 49.608 30.8003 49.02C31.4243 48.432 32.1503 47.982 32.9783 47.67C33.8063 47.346 34.7123 47.184 35.6963 47.184C36.7883 47.184 37.7723 47.376 38.6483 47.76C39.5363 48.132 40.2803 48.684 40.8803 49.416L39.0083 51.144C38.5763 50.652 38.0963 50.286 37.5683 50.046C37.0403 49.794 36.4643 49.668 35.8403 49.668C35.2523 49.668 34.7123 49.764 34.2203 49.956C33.7283 50.148 33.3023 50.424 32.9423 50.784C32.5823 51.144 32.3003 51.57 32.0963 52.062C31.9043 52.554 31.8083 53.1 31.8083 53.7C31.8083 54.3 31.9043 54.846 32.0963 55.338C32.3003 55.83 32.5823 56.256 32.9423 56.616C33.3023 56.976 33.7283 57.252 34.2203 57.444C34.7123 57.636 35.2523 57.732 35.8403 57.732C36.4643 57.732 37.0403 57.612 37.5683 57.372C38.0963 57.12 38.5763 56.742 39.0083 56.238L40.8803 57.966C40.2803 58.698 39.5363 59.256 38.6483 59.64C37.7723 60.024 36.7823 60.216 35.6783 60.216ZM48.4752 60.216C47.5032 60.216 46.5972 60.06 45.7572 59.748C44.9292 59.424 44.2092 58.968 43.5972 58.38C42.9852 57.792 42.5052 57.102 42.1572 56.31C41.8212 55.518 41.6532 54.648 41.6532 53.7C41.6532 52.752 41.8212 51.882 42.1572 51.09C42.5052 50.298 42.9852 49.608 43.5972 49.02C44.2212 48.432 44.9472 47.982 45.7752 47.67C46.6032 47.346 47.5092 47.184 48.4932 47.184C49.5852 47.184 50.5692 47.376 51.4452 47.76C52.3332 48.132 53.0772 48.684 53.6772 49.416L51.8052 51.144C51.3732 50.652 50.8932 50.286 50.3652 50.046C49.8372 49.794 49.2612 49.668 48.6372 49.668C48.0492 49.668 47.5092 49.764 47.0172 49.956C46.5252 50.148 46.0992 50.424 45.7392 50.784C45.3792 51.144 45.0972 51.57 44.8932 52.062C44.7012 52.554 44.6052 53.1 44.6052 53.7C44.6052 54.3 44.7012 54.846 44.8932 55.338C45.0972 55.83 45.3792 56.256 45.7392 56.616C46.0992 56.976 46.5252 57.252 47.0172 57.444C47.5092 57.636 48.0492 57.732 48.6372 57.732C49.2612 57.732 49.8372 57.612 50.3652 57.372C50.8932 57.12 51.3732 56.742 51.8052 56.238L53.6772 57.966C53.0772 58.698 52.3332 59.256 51.4452 59.64C50.5692 60.024 49.5792 60.216 48.4752 60.216ZM53.9272 60L59.5432 47.4H62.4232L68.0572 60H64.9972L60.3892 48.876H61.5412L56.9152 60H53.9272ZM56.7352 57.3L57.5092 55.086H63.9892L64.7812 57.3H56.7352ZM83.3161 60L79.9321 53.934L82.3981 52.512L86.6821 60H83.3161ZM77.7901 54.924V52.494H81.7141V54.924H77.7901ZM82.5601 54.024L79.8601 53.7L83.3701 47.4H86.4481L82.5601 54.024ZM71.0941 60H67.7281L72.0121 52.512L74.4781 53.934L71.0941 60ZM78.6541 60H75.7921V47.4H78.6541V60ZM76.6381 54.924H72.6961V52.494H76.6381V54.924ZM71.8681 54.024L67.9621 47.4H71.0401L74.5321 53.7L71.8681 54.024ZM88.0797 60V47.4H90.9777V55.608L96.9897 47.4H99.7257V60H96.8457V51.81L90.8337 60H88.0797ZM102.863 60V47.4H108.317C109.445 47.4 110.417 47.586 111.233 47.958C112.049 48.318 112.679 48.84 113.123 49.524C113.567 50.208 113.789 51.024 113.789 51.972C113.789 52.908 113.567 53.718 113.123 54.402C112.679 55.086 112.049 55.614 111.233 55.986C110.417 56.346 109.445 56.526 108.317 56.526H104.483L105.779 55.212V60H102.863ZM105.779 55.536L104.483 54.15H108.155C109.055 54.15 109.727 53.958 110.171 53.574C110.615 53.19 110.837 52.656 110.837 51.972C110.837 51.276 110.615 50.736 110.171 50.352C109.727 49.968 109.055 49.776 108.155 49.776H104.483L105.779 48.39V55.536ZM121.814 51.54C123.338 51.54 124.514 51.882 125.342 52.566C126.17 53.238 126.584 54.252 126.584 55.608C126.584 57.048 126.122 58.14 125.198 58.884C124.286 59.628 123.02 60 121.4 60H115.712V47.4H118.61V51.54H121.814ZM121.238 57.84C121.982 57.84 122.57 57.654 123.002 57.282C123.434 56.91 123.65 56.37 123.65 55.662C123.65 54.966 123.434 54.468 123.002 54.168C122.582 53.856 121.994 53.7 121.238 53.7H118.61V57.84H121.238ZM128.186 60V47.4H131.084V60H128.186Z" fill="white"/><path d="M80.2933 8.988L77.4 6.3L74.8333 1.16667C74.613 0.808243 74.304 0.51262 73.9362 0.30828C73.5683 0.10394 73.1541 -0.00222946 72.7333 7.13007e-08H58.2667C57.8459 -0.00222946 57.4317 0.10394 57.0639 0.30828C56.6961 0.51262 56.3871 0.808243 56.1667 1.16667L53.6 6.3L50.7067 8.988C50.5888 9.09732 50.4948 9.22981 50.4306 9.37717C50.3663 9.52453 50.3332 9.68358 50.3333 9.84433V19.8333C50.3333 20.1428 50.4563 20.4395 50.6751 20.6583C50.8938 20.8771 51.1906 21 51.5 21H56.1667C56.6333 21 57.3333 20.5333 57.3333 20.0667V18.6667H73.6667V19.8333C73.6667 20.3 74.1333 21 74.6 21H79.5C79.8094 21 80.1062 20.8771 80.325 20.6583C80.5438 20.4395 80.6667 20.1428 80.6667 19.8333V9.84433C80.6668 9.68358 80.6337 9.52453 80.5695 9.37717C80.5052 9.22981 80.4112 9.09732 80.2933 8.988ZM58.5 2.33333H72.5L74.8333 7H56.1667L58.5 2.33333ZM59.6667 13.0667C59.6667 13.5333 58.9667 14 58.5 14H53.6C53.1333 14 52.6667 13.3 52.6667 12.8333V10.2667C52.9 9.56667 53.3667 9.1 54.0667 9.33333L58.7333 10.2667C59.2 10.2667 59.6667 10.9667 59.6667 11.4333V13.0667ZM78.3333 12.8333C78.3333 13.3 77.8667 14 77.4 14H72.5C72.0333 14 71.3333 13.5333 71.3333 13.0667V11.4333C71.3333 10.9667 71.8 10.2667 72.2667 10.2667L76.9333 9.33333C77.6333 9.1 78.1 9.56667 78.3333 10.2667V12.8333Z" fill="white"/></svg>