<svg width="90" height="90" viewBox="0 0 90 90" fill="none" xmlns="http://www.w3.org/2000/svg">
<path d="M2.49928 24V14.2H11.1653V24H9.37328V15.292L9.79328 15.74H3.87128L4.29128 15.292V24H2.49928ZM18.2686 24V22.488L18.1706 22.166V19.52C18.1706 19.0067 18.0166 18.61 17.7086 18.33C17.4006 18.0407 16.934 17.896 16.3086 17.896C15.8886 17.896 15.4733 17.9613 15.0626 18.092C14.6613 18.2227 14.3206 18.4047 14.0406 18.638L13.3546 17.364C13.756 17.056 14.232 16.8273 14.7826 16.678C15.3426 16.5193 15.9213 16.44 16.5186 16.44C17.6013 16.44 18.4366 16.7013 19.0246 17.224C19.622 17.7373 19.9206 18.5353 19.9206 19.618V24H18.2686ZM15.9166 24.098C15.3566 24.098 14.8666 24.0047 14.4466 23.818C14.0266 23.622 13.7 23.356 13.4666 23.02C13.2426 22.6747 13.1306 22.2873 13.1306 21.858C13.1306 21.438 13.2286 21.06 13.4246 20.724C13.63 20.388 13.9613 20.122 14.4186 19.926C14.876 19.73 15.4826 19.632 16.2386 19.632H18.4086V20.794H16.3646C15.7673 20.794 15.366 20.892 15.1606 21.088C14.9553 21.2747 14.8526 21.508 14.8526 21.788C14.8526 22.1053 14.9786 22.3573 15.2306 22.544C15.4826 22.7307 15.8326 22.824 16.2806 22.824C16.71 22.824 17.0926 22.726 17.4286 22.53C17.774 22.334 18.0213 22.0447 18.1706 21.662L18.4646 22.712C18.2966 23.1507 17.9933 23.4913 17.5546 23.734C17.1253 23.9767 16.5793 24.098 15.9166 24.098ZM25.4882 24.098C24.7042 24.098 24.0042 23.9347 23.3882 23.608C22.7815 23.272 22.3055 22.8147 21.9602 22.236C21.6148 21.6573 21.4422 20.9993 21.4422 20.262C21.4422 19.5153 21.6148 18.8573 21.9602 18.288C22.3055 17.7093 22.7815 17.2567 23.3882 16.93C24.0042 16.6033 24.7042 16.44 25.4882 16.44C26.2162 16.44 26.8555 16.5893 27.4062 16.888C27.9662 17.1773 28.3908 17.6067 28.6802 18.176L27.3362 18.96C27.1122 18.6053 26.8368 18.344 26.5102 18.176C26.1928 18.008 25.8475 17.924 25.4742 17.924C25.0448 17.924 24.6575 18.0173 24.3122 18.204C23.9668 18.3907 23.6962 18.6613 23.5002 19.016C23.3042 19.3613 23.2062 19.7767 23.2062 20.262C23.2062 20.7473 23.3042 21.1673 23.5002 21.522C23.6962 21.8673 23.9668 22.1333 24.3122 22.32C24.6575 22.5067 25.0448 22.6 25.4742 22.6C25.8475 22.6 26.1928 22.516 26.5102 22.348C26.8368 22.18 27.1122 21.9187 27.3362 21.564L28.6802 22.348C28.3908 22.908 27.9662 23.342 27.4062 23.65C26.8555 23.9487 26.2162 24.098 25.4882 24.098ZM33.5135 24.098C32.7295 24.098 32.0295 23.9347 31.4135 23.608C30.8069 23.272 30.3309 22.8147 29.9855 22.236C29.6402 21.6573 29.4675 20.9993 29.4675 20.262C29.4675 19.5153 29.6402 18.8573 29.9855 18.288C30.3309 17.7093 30.8069 17.2567 31.4135 16.93C32.0295 16.6033 32.7295 16.44 33.5135 16.44C34.2415 16.44 34.8809 16.5893 35.4315 16.888C35.9915 17.1773 36.4162 17.6067 36.7055 18.176L35.3615 18.96C35.1375 18.6053 34.8622 18.344 34.5355 18.176C34.2182 18.008 33.8729 17.924 33.4995 17.924C33.0702 17.924 32.6829 18.0173 32.3375 18.204C31.9922 18.3907 31.7215 18.6613 31.5255 19.016C31.3295 19.3613 31.2315 19.7767 31.2315 20.262C31.2315 20.7473 31.3295 21.1673 31.5255 21.522C31.7215 21.8673 31.9922 22.1333 32.3375 22.32C32.6829 22.5067 33.0702 22.6 33.4995 22.6C33.8729 22.6 34.2182 22.516 34.5355 22.348C34.8622 22.18 35.1375 21.9187 35.3615 21.564L36.7055 22.348C36.4162 22.908 35.9915 23.342 35.4315 23.65C34.8809 23.9487 34.2415 24.098 33.5135 24.098ZM42.7823 24V22.488L42.6843 22.166V19.52C42.6843 19.0067 42.5303 18.61 42.2223 18.33C41.9143 18.0407 41.4476 17.896 40.8223 17.896C40.4023 17.896 39.987 17.9613 39.5763 18.092C39.175 18.2227 38.8343 18.4047 38.5543 18.638L37.8683 17.364C38.2696 17.056 38.7456 16.8273 39.2963 16.678C39.8563 16.5193 40.435 16.44 41.0323 16.44C42.115 16.44 42.9503 16.7013 43.5383 17.224C44.1356 17.7373 44.4343 18.5353 44.4343 19.618V24H42.7823ZM40.4303 24.098C39.8703 24.098 39.3803 24.0047 38.9603 23.818C38.5403 23.622 38.2136 23.356 37.9803 23.02C37.7563 22.6747 37.6443 22.2873 37.6443 21.858C37.6443 21.438 37.7423 21.06 37.9383 20.724C38.1436 20.388 38.475 20.122 38.9323 19.926C39.3896 19.73 39.9963 19.632 40.7523 19.632H42.9223V20.794H40.8783C40.281 20.794 39.8796 20.892 39.6743 21.088C39.469 21.2747 39.3663 21.508 39.3663 21.788C39.3663 22.1053 39.4923 22.3573 39.7443 22.544C39.9963 22.7307 40.3463 22.824 40.7943 22.824C41.2236 22.824 41.6063 22.726 41.9423 22.53C42.2876 22.334 42.535 22.0447 42.6843 21.662L42.9783 22.712C42.8103 23.1507 42.507 23.4913 42.0683 23.734C41.639 23.9767 41.093 24.098 40.4303 24.098ZM55.5178 24L53.3338 20.416L54.7618 19.534L57.6038 24H55.5178ZM51.9198 21.004V19.548H54.4258V21.004H51.9198ZM54.9298 20.472L53.2778 20.276L55.5458 16.524H57.4078L54.9298 20.472ZM47.6218 24H45.5498L48.3778 19.534L49.8058 20.416L47.6218 24ZM52.4378 24H50.7018V16.524H52.4378V24ZM51.2198 21.004H48.7278V19.548H51.2198V21.004ZM48.2098 20.472L45.7318 16.524H47.5938L49.8478 20.276L48.2098 20.472ZM58.9045 24V16.524H60.6545V21.452L64.7845 16.524H66.3805V24H64.6305V19.072L60.5145 24H58.9045ZM72.8786 24.098C72.2719 24.098 71.7166 23.958 71.2126 23.678C70.7179 23.398 70.3213 22.978 70.0226 22.418C69.7333 21.8487 69.5886 21.13 69.5886 20.262C69.5886 19.3847 69.7286 18.666 70.0086 18.106C70.2979 17.546 70.6899 17.1307 71.1846 16.86C71.6793 16.58 72.2439 16.44 72.8786 16.44C73.6159 16.44 74.2646 16.5987 74.8246 16.916C75.3939 17.2333 75.8419 17.6767 76.1686 18.246C76.5046 18.8153 76.6726 19.4873 76.6726 20.262C76.6726 21.0367 76.5046 21.7133 76.1686 22.292C75.8419 22.8613 75.3939 23.3047 74.8246 23.622C74.2646 23.9393 73.6159 24.098 72.8786 24.098ZM68.7346 26.716V16.524H70.4006V18.288L70.3446 20.276L70.4846 22.264V26.716H68.7346ZM72.6826 22.6C73.1026 22.6 73.4759 22.5067 73.8026 22.32C74.1386 22.1333 74.4046 21.8627 74.6006 21.508C74.7966 21.1533 74.8946 20.738 74.8946 20.262C74.8946 19.7767 74.7966 19.3613 74.6006 19.016C74.4046 18.6613 74.1386 18.3907 73.8026 18.204C73.4759 18.0173 73.1026 17.924 72.6826 17.924C72.2626 17.924 71.8846 18.0173 71.5486 18.204C71.2126 18.3907 70.9466 18.6613 70.7506 19.016C70.5546 19.3613 70.4566 19.7767 70.4566 20.262C70.4566 20.738 70.5546 21.1533 70.7506 21.508C70.9466 21.8627 71.2126 22.1333 71.5486 22.32C71.8846 22.5067 72.2626 22.6 72.6826 22.6ZM85.9603 24V16.524H87.7103V24H85.9603ZM82.0543 18.988C83.0156 18.988 83.7436 19.2027 84.2383 19.632C84.7423 20.0613 84.9943 20.668 84.9943 21.452C84.9943 22.264 84.7143 22.8987 84.1543 23.356C83.6036 23.804 82.8196 24.0233 81.8023 24.014L78.4143 24V16.524H80.1643V18.974L82.0543 18.988ZM81.6483 22.726C82.1616 22.7353 82.5536 22.628 82.8243 22.404C83.0949 22.18 83.2303 21.8533 83.2303 21.424C83.2303 20.9947 83.0949 20.6867 82.8243 20.5C82.5629 20.304 82.1709 20.2013 81.6483 20.192L80.1643 20.178V22.712L81.6483 22.726Z" fill="white"/>
<path d="M42.0625 76.25C42.0625 76.25 38.625 76.25 38.625 72.8125C38.625 69.375 42.0625 59.0625 55.8125 59.0625C69.5625 59.0625 73 69.375 73 72.8125C73 76.25 69.5625 76.25 69.5625 76.25H42.0625ZM55.8125 55.625C58.5475 55.625 61.1706 54.5385 63.1045 52.6045C65.0385 50.6706 66.125 48.0475 66.125 45.3125C66.125 42.5775 65.0385 39.9544 63.1045 38.0205C61.1706 36.0865 58.5475 35 55.8125 35C53.0775 35 50.4544 36.0865 48.5205 38.0205C46.5865 39.9544 45.5 42.5775 45.5 45.3125C45.5 48.0475 46.5865 50.6706 48.5205 52.6045C50.4544 54.5385 53.0775 55.625 55.8125 55.625V55.625Z" fill="white"/>
<path fill-rule="evenodd" clip-rule="evenodd" d="M35.93 76.25C35.4204 75.1769 35.1663 74.0003 35.1875 72.8125C35.1875 68.1547 37.525 63.3594 41.8425 60.025C39.6875 59.361 37.4423 59.0363 35.1875 59.0625C21.4375 59.0625 18 69.375 18 72.8125C18 76.25 21.4375 76.25 21.4375 76.25H35.93Z" fill="white"/>
<path d="M33.4688 55.625C35.748 55.625 37.9338 54.7196 39.5454 53.1079C41.1571 51.4963 42.0625 49.3105 42.0625 47.0312C42.0625 44.752 41.1571 42.5662 39.5454 40.9546C37.9338 39.3429 35.748 38.4375 33.4688 38.4375C31.1895 38.4375 29.0037 39.3429 27.3921 40.9546C25.7804 42.5662 24.875 44.752 24.875 47.0312C24.875 49.3105 25.7804 51.4963 27.3921 53.1079C29.0037 54.7196 31.1895 55.625 33.4688 55.625V55.625Z" fill="white"/>
</svg>
