<svg width="90" height="90" viewBox="0 0 90 90" fill="none" xmlns="http://www.w3.org/2000/svg">
<g clip-path="url(#clip0_1337_454)">
<path d="M39.9756 52.92C39.4122 52.92 39.0365 53.48 39.0365 54.4134C39.0365 55.16 39.4122 55.9067 40.1635 55.9067C40.7269 55.9067 41.1026 55.3467 41.1026 54.4134C41.1026 53.6667 40.7269 52.92 39.9756 52.92Z" fill="white"/>
<path d="M24.9495 52.92C24.9495 53.1067 24.7617 53.48 24.7617 53.6667L24.5739 54.6H25.513L25.3252 53.6667C25.1373 53.48 25.1373 53.2934 24.9495 52.92V52.92Z" fill="white"/>
<path d="M21.3809 52.92H21.0052V54.2267H21.3809C21.9444 54.2267 22.1322 54.04 22.1322 53.48C22.1322 52.92 21.9444 52.92 21.3809 52.92Z" fill="white"/>
<path d="M35.8435 52.92H35.4678V54.2267H35.8435C36.407 54.2267 36.5948 54.04 36.5948 53.48C36.5948 52.92 36.2191 52.92 35.8435 52.92Z" fill="white"/>
<path d="M44.1078 52.92H43.7322V54.04H44.1078C44.6713 54.04 44.8591 53.8534 44.8591 53.48C44.8591 53.1067 44.4835 52.92 44.1078 52.92V52.92Z" fill="white"/>
<path d="M72.2817 20.6267L44.8591 7.18666C44.7025 7.0888 44.5267 7.02526 44.3435 7.00027C44.1602 6.97529 43.9737 6.98944 43.7964 7.04178C43.6191 7.09411 43.4551 7.18343 43.3152 7.30378C43.1754 7.42412 43.063 7.57272 42.9856 7.73966L42.9832 7.74666V7.93332L42.4197 8.86666L39.2267 15.4H50.7216C52.3604 15.4 53.6893 16.7207 53.6893 18.3493V18.389V18.3867V61.32C53.8771 61.1333 54.0649 60.9467 54.0649 60.76L72.8476 22.4933C72.9402 22.3362 72.9993 22.1618 73.0214 21.9811C73.0434 21.8003 73.0279 21.6169 72.9757 21.4424C72.9236 21.2678 72.8359 21.1057 72.7181 20.9662C72.6004 20.8267 72.455 20.7127 72.2911 20.6313L72.2841 20.629L72.2817 20.6267Z" fill="white"/>
<path d="M39.6 41.16C38.3386 40.7305 37.0226 40.4799 35.6909 40.4157L35.6556 40.4133V45.8267C36.6161 45.3971 37.4678 44.7595 38.1482 43.9605C38.8287 43.1615 39.3207 42.2214 39.5882 41.209L39.6 41.16Z" fill="white"/>
<path d="M40.1635 29.5866C38.7879 30.0866 37.334 30.3402 35.8693 30.3356L35.6462 30.3333H35.658V33.32H40.7293C40.7131 32.0218 40.5147 30.7323 40.14 29.4886L40.1658 29.5866H40.1635Z" fill="white"/>
<path d="M35.6556 23.6133V28.6533L35.8317 28.6556C37.1911 28.6556 38.4871 28.3803 39.6634 27.8833L39.6 27.9066C39.3555 26.9286 38.8713 26.026 38.1904 25.2793C37.5095 24.5326 36.6532 23.965 35.6979 23.6273L35.6556 23.6133Z" fill="white"/>
<path d="M42.0418 40.0401C42.7226 40.4111 43.2485 40.9944 43.5373 41.6991L43.5444 41.7201C45.0512 40.0095 45.9713 37.8668 46.1716 35.6021L46.1739 35.5601H42.6052C42.6998 37.1062 42.4998 38.6562 42.0159 40.1287L42.0418 40.0424V40.0401Z" fill="white"/>
<path d="M27.2035 43.2134C27.7951 43.7361 28.476 44.1747 29.2203 44.5014L29.2696 44.5201C28.7507 43.8201 28.307 43.0197 27.9783 42.1634L27.9548 42.0934C27.6054 42.3832 27.3464 42.7661 27.2082 43.197L27.2035 43.2134Z" fill="white"/>
<path d="M42.2296 25.4801C41.5252 24.9317 40.7293 24.3787 39.9029 23.8677L39.7878 23.8C40.457 24.605 41.0251 25.5291 41.4501 26.5277L41.4783 26.6001C41.8539 26.6001 42.2296 26.0401 42.2296 25.4801Z" fill="white"/>
<path d="M40.1635 44.52C40.889 44.177 41.5088 43.7384 42.0418 43.2134C42.0106 42.9837 41.9275 42.7639 41.7986 42.5707C41.6697 42.3776 41.4983 42.2159 41.2975 42.0981L41.2905 42.0934C41.0979 43.0244 40.7035 43.841 40.1541 44.5317L40.1635 44.52Z" fill="white"/>
<path d="M42.793 33.5067H46.3617C46.1153 31.2008 45.2645 28.9995 43.8942 27.1227L43.92 27.16C43.563 27.8838 42.9764 28.4708 42.2507 28.8307L42.2296 28.84C42.4174 30.3333 42.6052 31.8267 42.793 33.5067V33.5067Z" fill="white"/>
<path d="M40.7269 35.5601H35.6556V38.3601C37.2328 38.3997 38.7893 38.7263 40.248 39.3237L40.1635 39.2934C40.5237 38.0839 40.7134 36.8307 40.7269 35.5694V35.5601Z" fill="white"/>
<path d="M29.0817 24.36C28.3909 24.6214 27.7525 25.003 27.1964 25.487L27.2035 25.48C27.2174 25.6941 27.2742 25.9032 27.3705 26.0951C27.4669 26.2871 27.6009 26.4579 27.7646 26.5977L27.7669 26.6C28.0675 25.7344 28.5159 24.9877 29.0864 24.353L29.0817 24.36Z" fill="white"/>
<path d="M27.2035 28.6534C26.6199 28.2566 26.1146 27.7567 25.7126 27.1787L25.7009 27.16C24.185 29.0102 23.269 31.2734 23.0736 33.6514L23.0713 33.6934H26.4522C26.4897 31.9388 26.7541 30.1963 27.2387 28.5087L27.2035 28.6534Z" fill="white"/>
<path d="M33.5896 45.4533V40.4133C32.2638 40.5576 30.9539 40.8208 29.6758 41.1997L29.8331 41.16C30.0649 42.1156 30.5228 43.0023 31.1688 43.7466C31.8148 44.4909 32.6303 45.0712 33.5473 45.4393L33.5896 45.4533Z" fill="white"/>
<path d="M51.433 18.9467V18.8907C51.433 18.5325 51.2988 18.1872 51.0566 17.9219C50.8144 17.6567 50.4816 17.4905 50.1229 17.4557H19.5002C19.4627 17.451 19.418 17.451 19.3734 17.451C19.1809 17.4515 18.9906 17.4919 18.8147 17.5695C18.6387 17.6471 18.481 17.7604 18.3515 17.902C18.2221 18.0436 18.1237 18.2105 18.0628 18.392C18.0019 18.5734 17.9797 18.7656 17.9976 18.956V18.9514V61.5324C17.9976 62.3467 18.662 63.0047 19.4791 63.0047H49.928C50.3168 62.9777 50.6827 62.8123 50.9587 62.5389C51.2347 62.2654 51.4022 61.9023 51.4307 61.516V61.5114L51.433 18.9467ZM21.193 33.1334C21.4763 29.9701 22.8664 27.0057 25.1215 24.7556C27.3765 22.5056 30.3538 21.1123 33.5355 20.818L33.5895 20.8134V20.6267H35.6556V20.8134C37.4191 20.9513 39.1379 21.433 40.714 22.2311C42.2901 23.0291 43.6926 24.1279 44.8415 25.4647C45.9903 26.8014 46.863 28.3499 47.4096 30.0219C47.9563 31.6938 48.1662 33.4563 48.0275 35.2089C47.8887 36.9614 47.404 38.6697 46.601 40.2361C45.798 41.8024 44.6924 43.1963 43.3473 44.338C42.0023 45.4798 40.4441 46.3471 38.7618 46.8903C37.0795 47.4336 35.306 47.6423 33.5426 47.5044L33.5895 47.5067C26.6 46.893 21.1625 41.104 21.1625 34.0504C21.1625 33.7284 21.1742 33.4064 21.1953 33.0914L21.193 33.1334ZM21.3808 54.9734H21.0052V56.4667H20.066V52.1734H21.3808C21.8532 52.1214 22.3273 52.2563 22.7003 52.549L22.6956 52.5467C23.0713 52.7334 23.0713 53.1067 23.0713 53.48C23.0657 53.8265 22.932 54.1587 22.6956 54.4134C22.5358 54.5901 22.3403 54.7313 22.1218 54.8278C21.9033 54.9243 21.6669 54.9739 21.4278 54.9734H21.3785H21.3808ZM25.8887 56.4667L25.513 55.3467H24.386L24.0104 56.4667H23.0713L24.386 52.1734H25.7008L27.0156 56.4667H25.8887ZM28.5182 56.4667C28.1276 56.4968 27.7356 56.4303 27.3772 56.273L27.3913 56.2801L27.5791 55.5334C27.9366 55.6878 28.327 55.752 28.7154 55.72H28.706C29.0817 55.72 29.2695 55.5334 29.2695 55.3467C29.2695 55.16 29.0817 54.9734 28.5182 54.7867C27.9547 54.4134 27.3913 54.04 27.3913 53.48C27.3913 52.7334 27.9547 52.1734 29.0817 52.1734C29.4723 52.1433 29.8643 52.2098 30.2227 52.3671L30.2087 52.36L30.0208 53.1067C29.7377 52.935 29.4023 52.8689 29.0747 52.92H29.0817C28.706 52.92 28.5182 53.1067 28.5182 53.2934C28.5182 53.48 28.706 53.6667 29.2695 53.8534C29.9034 53.97 30.38 54.5067 30.3965 55.1577V55.16C30.3965 55.9067 29.833 56.4667 28.5182 56.4667V56.4667ZM32.0869 56.4667C31.6963 56.4968 31.3043 56.4303 30.9459 56.273L30.96 56.2801V55.5334C31.3174 55.6878 31.7078 55.752 32.0963 55.72H32.0869C32.4626 55.72 32.8382 55.5334 32.8382 55.3467C32.8382 55.16 32.6504 54.9734 32.0869 54.7867C31.7782 54.7588 31.4912 54.6171 31.2823 54.3896C31.0733 54.1621 30.9575 53.8651 30.9576 53.557L30.96 53.4754V53.48C30.96 52.7334 31.5234 52.1734 32.6504 52.1734C33.041 52.1433 33.433 52.2098 33.7914 52.3671L33.7773 52.36L33.5895 53.1067C33.3064 52.935 32.971 52.8689 32.6434 52.92H32.6504C32.2747 52.92 32.0869 53.1067 32.0869 53.2934C32.0869 53.48 32.2747 53.6667 32.8382 53.8534C33.4721 53.97 33.9487 54.5067 33.9652 55.1577V55.16C33.8863 55.5806 33.644 55.9534 33.2908 56.1979C32.9376 56.4424 32.5018 56.5389 32.0775 56.4667L32.0869 56.469V56.4667ZM37.1582 54.6C36.9987 54.7844 36.7879 54.918 36.5524 54.984C36.3169 55.05 36.067 55.0455 35.834 54.971L35.8434 54.9734H35.4678V56.4667H34.5287V52.1734H35.8434C36.3159 52.1214 36.7899 52.2563 37.1629 52.549L37.1582 52.5467C37.5339 52.7334 37.5339 53.1067 37.5339 53.48C37.4916 53.9 37.3578 54.2804 37.1512 54.6117L37.1582 54.6ZM42.0417 54.2267C42.0799 54.4983 42.0606 54.7748 41.9851 55.0385C41.9095 55.3022 41.7794 55.5474 41.6031 55.7582C41.4267 55.9691 41.208 56.141 40.9609 56.263C40.7138 56.385 40.4438 56.4544 40.1681 56.4667H39.7878C39.2413 56.4618 38.7187 56.2439 38.3323 55.8599C37.9458 55.4759 37.7266 54.9565 37.7217 54.4134V54.2267C37.68 53.6854 37.8517 53.1491 38.2004 52.7311C38.5491 52.3132 39.0476 52.0463 39.5906 51.9867H39.7972C40.3114 51.9868 40.8071 52.1774 41.1874 52.5213C41.5677 52.8652 41.8054 53.3376 41.8539 53.8464V53.8557L42.0417 54.2267ZM44.8591 56.4667C44.6713 56.0934 44.6713 55.9067 44.4834 55.5334C44.2956 54.9734 44.1078 54.7867 43.7321 54.7867H43.3565V56.4667H42.4173V52.1734H43.7321C43.966 52.1334 44.2059 52.1464 44.4339 52.2114C44.662 52.2765 44.8724 52.3919 45.0493 52.549L45.0469 52.5467C45.2828 52.8008 45.4165 53.1321 45.4226 53.4777V53.48C45.4163 53.7169 45.3433 53.9473 45.2117 54.1449C45.0801 54.3425 44.8953 54.4994 44.6783 54.5977L44.6713 54.6C45.0469 54.7867 45.0469 54.9734 45.2347 55.3467C45.277 55.7667 45.4108 56.147 45.6174 56.4784L45.6104 56.4667H44.8591ZM49.5547 53.1067H48.4278V56.4667H47.4887V53.1067H46.1739V52.36H49.3669V53.1067H49.5547Z" fill="white"/>
<path d="M27.2035 40.04C26.85 38.5495 26.6029 37.036 26.4639 35.511L26.4522 35.3733H23.2592C23.5077 37.6197 24.3592 39.7585 25.7244 41.566L25.7009 41.5333C26.1094 40.943 26.6095 40.446 27.1847 40.0516L27.2035 40.04Z" fill="white"/>
<path d="M33.5896 35.5601H28.5183C28.5207 36.8924 28.7273 38.1781 29.1076 39.3844L29.0818 39.2934C30.5167 38.8058 32.006 38.4939 33.5168 38.3647L33.5896 38.3601V35.5601Z" fill="white"/>
<path d="M33.5896 23.24C31.5235 23.6133 30.2087 25.8533 29.6453 27.5333C30.798 27.9907 32.134 28.3197 33.5262 28.462L33.5896 28.4667V23.24Z" fill="white"/>
<path d="M33.5896 33.5066V30.5199C32.0124 30.4803 30.4559 30.1537 28.9973 29.5563L29.0818 29.5866C28.7066 30.859 28.5168 32.1783 28.5183 33.5043V33.5066H33.5896Z" fill="white"/>
</g>
<path d="M14.8313 77V67.2H23.4973V77H21.7053V68.292L22.1253 68.74H16.2033L16.6233 68.292V77H14.8313ZM30.6007 77V75.488L30.5027 75.166V72.52C30.5027 72.0067 30.3487 71.61 30.0407 71.33C29.7327 71.0407 29.266 70.896 28.6407 70.896C28.2207 70.896 27.8053 70.9613 27.3947 71.092C26.9933 71.2227 26.6527 71.4047 26.3727 71.638L25.6867 70.364C26.088 70.056 26.564 69.8273 27.1147 69.678C27.6747 69.5193 28.2533 69.44 28.8507 69.44C29.9333 69.44 30.7687 69.7013 31.3567 70.224C31.954 70.7373 32.2527 71.5353 32.2527 72.618V77H30.6007ZM28.2487 77.098C27.6887 77.098 27.1987 77.0047 26.7787 76.818C26.3587 76.622 26.032 76.356 25.7987 76.02C25.5747 75.6747 25.4627 75.2873 25.4627 74.858C25.4627 74.438 25.5607 74.06 25.7567 73.724C25.962 73.388 26.2933 73.122 26.7507 72.926C27.208 72.73 27.8147 72.632 28.5707 72.632H30.7407V73.794H28.6967C28.0993 73.794 27.698 73.892 27.4927 74.088C27.2873 74.2747 27.1847 74.508 27.1847 74.788C27.1847 75.1053 27.3107 75.3573 27.5627 75.544C27.8147 75.7307 28.1647 75.824 28.6127 75.824C29.042 75.824 29.4247 75.726 29.7607 75.53C30.106 75.334 30.3533 75.0447 30.5027 74.662L30.7967 75.712C30.6287 76.1507 30.3253 76.4913 29.8867 76.734C29.4573 76.9767 28.9113 77.098 28.2487 77.098ZM37.8202 77.098C37.0362 77.098 36.3362 76.9347 35.7202 76.608C35.1135 76.272 34.6375 75.8147 34.2922 75.236C33.9469 74.6573 33.7742 73.9993 33.7742 73.262C33.7742 72.5153 33.9469 71.8573 34.2922 71.288C34.6375 70.7093 35.1135 70.2567 35.7202 69.93C36.3362 69.6033 37.0362 69.44 37.8202 69.44C38.5482 69.44 39.1875 69.5893 39.7382 69.888C40.2982 70.1773 40.7229 70.6067 41.0122 71.176L39.6682 71.96C39.4442 71.6053 39.1689 71.344 38.8422 71.176C38.5249 71.008 38.1795 70.924 37.8062 70.924C37.3769 70.924 36.9895 71.0173 36.6442 71.204C36.2989 71.3907 36.0282 71.6613 35.8322 72.016C35.6362 72.3613 35.5382 72.7767 35.5382 73.262C35.5382 73.7473 35.6362 74.1673 35.8322 74.522C36.0282 74.8673 36.2989 75.1333 36.6442 75.32C36.9895 75.5067 37.3769 75.6 37.8062 75.6C38.1795 75.6 38.5249 75.516 38.8422 75.348C39.1689 75.18 39.4442 74.9187 39.6682 74.564L41.0122 75.348C40.7229 75.908 40.2982 76.342 39.7382 76.65C39.1875 76.9487 38.5482 77.098 37.8202 77.098ZM42.553 77V69.524H49.721V77H47.985V70.602L48.391 71.008H43.897L44.303 70.602V77H42.553ZM55.4143 77.098C54.6489 77.098 53.9676 76.9347 53.3703 76.608C52.7729 76.272 52.3016 75.8147 51.9563 75.236C51.6109 74.6573 51.4383 73.9993 51.4383 73.262C51.4383 72.5153 51.6109 71.8573 51.9563 71.288C52.3016 70.7093 52.7729 70.2567 53.3703 69.93C53.9676 69.6033 54.6489 69.44 55.4143 69.44C56.1889 69.44 56.8749 69.6033 57.4723 69.93C58.0789 70.2567 58.5503 70.7047 58.8863 71.274C59.2316 71.8433 59.4043 72.506 59.4043 73.262C59.4043 73.9993 59.2316 74.6573 58.8863 75.236C58.5503 75.8147 58.0789 76.272 57.4723 76.608C56.8749 76.9347 56.1889 77.098 55.4143 77.098ZM55.4143 75.6C55.8436 75.6 56.2263 75.5067 56.5623 75.32C56.8983 75.1333 57.1596 74.8627 57.3463 74.508C57.5423 74.1533 57.6403 73.738 57.6403 73.262C57.6403 72.7767 57.5423 72.3613 57.3463 72.016C57.1596 71.6613 56.8983 71.3907 56.5623 71.204C56.2263 71.0173 55.8483 70.924 55.4283 70.924C54.9989 70.924 54.6163 71.0173 54.2803 71.204C53.9536 71.3907 53.6923 71.6613 53.4963 72.016C53.3003 72.3613 53.2023 72.7767 53.2023 73.262C53.2023 73.738 53.3003 74.1533 53.4963 74.508C53.6923 74.8627 53.9536 75.1333 54.2803 75.32C54.6163 75.5067 54.9943 75.6 55.4143 75.6ZM65.277 77.098C64.6704 77.098 64.115 76.958 63.611 76.678C63.1164 76.398 62.7197 75.978 62.421 75.418C62.1317 74.8487 61.987 74.13 61.987 73.262C61.987 72.3847 62.127 71.666 62.407 71.106C62.6964 70.546 63.0884 70.1307 63.583 69.86C64.0777 69.58 64.6424 69.44 65.277 69.44C66.0144 69.44 66.663 69.5987 67.223 69.916C67.7924 70.2333 68.2404 70.6767 68.567 71.246C68.903 71.8153 69.071 72.4873 69.071 73.262C69.071 74.0367 68.903 74.7133 68.567 75.292C68.2404 75.8613 67.7924 76.3047 67.223 76.622C66.663 76.9393 66.0144 77.098 65.277 77.098ZM61.133 79.716V69.524H62.799V71.288L62.743 73.276L62.883 75.264V79.716H61.133ZM65.081 75.6C65.501 75.6 65.8744 75.5067 66.201 75.32C66.537 75.1333 66.803 74.8627 66.999 74.508C67.195 74.1533 67.293 73.738 67.293 73.262C67.293 72.7767 67.195 72.3613 66.999 72.016C66.803 71.6613 66.537 71.3907 66.201 71.204C65.8744 71.0173 65.501 70.924 65.081 70.924C64.661 70.924 64.283 71.0173 63.947 71.204C63.611 71.3907 63.345 71.6613 63.149 72.016C62.953 72.3613 62.855 72.7767 62.855 73.262C62.855 73.738 62.953 74.1533 63.149 74.508C63.345 74.8627 63.611 75.1333 63.947 75.32C64.283 75.5067 64.661 75.6 65.081 75.6ZM72.0933 77V70.588L72.4993 71.008H69.4613V69.524H76.4613V71.008H73.4373L73.8433 70.588V77H72.0933Z" fill="white"/>
<defs>
<clipPath id="clip0_1337_454">
<rect width="54" height="56" fill="white" transform="translate(18 7)"/>
</clipPath>
</defs>
</svg>
