<svg width="90" height="90" viewBox="0 0 90 90" fill="none" xmlns="http://www.w3.org/2000/svg">
<g clip-path="url(#clip0_1357_226)">
<path d="M64.4578 21.5168C65.6496 21.5168 66.6199 22.4871 66.6199 23.6789C66.6199 24.8707 65.6496 25.841 64.4578 25.841C63.266 25.841 62.2957 24.8707 62.2957 23.6789C62.2957 22.4871 63.266 21.5168 64.4578 21.5168ZM67.1789 26.4H61.7789C60.2812 26.4 59.0789 27.6023 59.0789 29.1V35.7023C59.0789 36.2191 59.4902 36.6516 60.0281 36.6516C60.566 36.6516 60.9773 36.2402 60.9773 35.7023V29.6379C60.9773 29.4902 61.1039 29.3637 61.2515 29.3637C61.3992 29.3637 61.5257 29.4902 61.5257 29.6379V46.0066C61.5257 46.8187 62.1269 47.4832 62.8757 47.4832C63.6246 47.4832 64.2257 46.8187 64.2257 46.0066V36.6726C64.2257 36.525 64.3523 36.3984 64.5 36.3984C64.6476 36.3984 64.7742 36.525 64.7742 36.6726V46.0066C64.7742 46.8187 65.3753 47.4832 66.1242 47.4832C66.873 47.4832 67.4742 46.8187 67.4742 46.0066V29.6379C67.4742 29.4902 67.6007 29.3637 67.7484 29.3637C67.896 29.3637 68.0226 29.4902 68.0226 29.6379V35.7129C68.0226 36.2297 68.4339 36.6621 68.9718 36.6621C69.5097 36.6621 69.921 36.2508 69.921 35.7129V29.1C69.8789 27.6023 68.6449 26.4 67.1789 26.4Z" fill="white"/>
<path d="M43.5167 32.6693H38.0359L44.6229 26.1688C45.1257 25.6726 45.1257 24.8681 44.6229 24.3721C44.1201 23.876 43.3049 23.876 42.8021 24.3721L35.4156 31.6617L32.913 25.2752C32.7213 24.7856 32.244 24.4629 31.7122 24.4629H11.4564C11.0031 24.4629 10.5832 24.6983 10.3509 25.0823L5.7622 32.6691H-4.1046C-4.7422 32.6691 -5.2837 33.1297 -5.3778 33.7519L-6.9859 44.3755C-7.0412 44.7413 -6.9323 45.1126 -6.6879 45.3926C-6.4433 45.6726 -6.0873 45.8337 -5.7125 45.8337H-0.955898C0.113701 48.1187 2.4683 49.6456 5.072 49.6456C7.6746 49.6456 10.028 48.1185 11.0969 45.8337H27.652C28.7213 48.1187 31.0752 49.6456 33.6786 49.6456C36.2811 49.6456 38.6345 48.1185 39.7032 45.8337H43.5171C44.2281 45.8337 44.8045 45.2649 44.8045 44.5632V33.9396C44.8042 33.2381 44.2278 32.6693 43.5167 32.6693ZM42.2293 43.293H38.8127C38.239 43.293 37.7345 43.6675 37.5757 44.2114C37.0781 45.9149 35.4755 47.1047 33.6784 47.1047C31.8805 47.1047 30.2772 45.9149 29.7791 44.2112C29.6201 43.6673 29.1156 43.293 28.5421 43.293H10.2066C9.6329 43.293 9.1284 43.6675 8.9694 44.2114C8.4718 45.9149 6.869 47.1047 5.072 47.1047C3.2735 47.1047 1.6696 45.9149 1.1711 44.211C1.0121 43.6673 0.507603 43.293 -0.0658989 43.293H-4.2184L-2.9952 35.2102H6.4929C6.9463 35.2102 7.3662 34.975 7.5984 34.5909L12.1871 27.0041H30.8298L33.727 34.398C33.9187 34.8875 34.3959 35.2102 34.9277 35.2102H42.2291L42.2293 43.293Z" fill="white"/>
<path d="M49.8295 29.1821L49.8295 28L47 30.3478L49.8295 32.6957V31.6483C53.2206 31.6484 54.898 34 54.898 34C54.9649 33.695 55 33.3796 55 33.0568C55 30.3887 52.7857 29.1821 49.8295 29.1821Z" fill="white"/>
</g>
<path d="M8.61183 67V58.6H12.3678C13.3118 58.6 14.0478 58.788 14.5758 59.164C15.1038 59.532 15.3678 60.064 15.3678 60.76C15.3678 61.448 15.1158 61.98 14.6118 62.356C14.1078 62.724 13.4438 62.908 12.6198 62.908L12.8358 62.476C13.7718 62.476 14.4958 62.664 15.0078 63.04C15.5198 63.416 15.7758 63.96 15.7758 64.672C15.7758 65.4 15.5078 65.972 14.9718 66.388C14.4358 66.796 13.6438 67 12.5958 67H8.61183ZM10.1478 65.8H12.5478C13.0918 65.8 13.5038 65.7 13.7838 65.5C14.0638 65.292 14.2038 64.976 14.2038 64.552C14.2038 64.128 14.0638 63.82 13.7838 63.628C13.5038 63.428 13.0918 63.328 12.5478 63.328H10.1478V65.8ZM10.1478 62.188H12.2358C12.7398 62.188 13.1238 62.088 13.3878 61.888C13.6518 61.68 13.7838 61.384 13.7838 61C13.7838 60.6 13.6518 60.3 13.3878 60.1C13.1238 59.9 12.7398 59.8 12.2358 59.8H10.1478V62.188ZM23.7614 67.12C23.2334 67.12 22.7614 67.04 22.3454 66.88C21.9294 66.72 21.5694 66.476 21.2654 66.148C20.9694 65.812 20.7414 65.388 20.5814 64.876C20.4214 64.364 20.3414 63.756 20.3414 63.052C20.3414 62.54 20.3854 62.072 20.4734 61.648C20.5614 61.224 20.6934 60.844 20.8694 60.508C21.0454 60.164 21.2654 59.86 21.5294 59.596C21.8014 59.332 22.1174 59.112 22.4774 58.936C22.8374 58.76 23.2454 58.624 23.7014 58.528L26.6774 57.892L26.8934 59.236L24.1934 59.788C24.0414 59.82 23.8574 59.868 23.6414 59.932C23.4334 59.988 23.2174 60.076 22.9934 60.196C22.7774 60.308 22.5734 60.472 22.3814 60.688C22.1974 60.896 22.0454 61.168 21.9254 61.504C21.8134 61.832 21.7574 62.244 21.7574 62.74C21.7574 62.892 21.7614 63.008 21.7694 63.088C21.7854 63.16 21.7974 63.24 21.8054 63.328C21.8214 63.408 21.8294 63.528 21.8294 63.688L21.2654 63.1C21.4254 62.692 21.6454 62.344 21.9254 62.056C22.2134 61.76 22.5454 61.536 22.9214 61.384C23.3054 61.224 23.7214 61.144 24.1694 61.144C24.7694 61.144 25.3014 61.268 25.7654 61.516C26.2294 61.764 26.5934 62.112 26.8574 62.56C27.1214 63.008 27.2534 63.516 27.2534 64.084C27.2534 64.676 27.1094 65.2 26.8214 65.656C26.5334 66.112 26.1254 66.472 25.5974 66.736C25.0774 66.992 24.4654 67.12 23.7614 67.12ZM23.8814 65.908C24.2414 65.908 24.5574 65.832 24.8294 65.68C25.1094 65.52 25.3254 65.304 25.4774 65.032C25.6374 64.76 25.7174 64.456 25.7174 64.12C25.7174 63.784 25.6374 63.492 25.4774 63.244C25.3254 62.988 25.1094 62.784 24.8294 62.632C24.5574 62.48 24.2334 62.404 23.8574 62.404C23.4974 62.404 23.1734 62.476 22.8854 62.62C22.6054 62.764 22.3854 62.964 22.2254 63.22C22.0734 63.468 21.9974 63.756 21.9974 64.084C21.9974 64.42 22.0774 64.728 22.2374 65.008C22.3974 65.288 22.6174 65.508 22.8974 65.668C23.1854 65.828 23.5134 65.908 23.8814 65.908ZM32.5112 67V65.704L32.4272 65.428V63.16C32.4272 62.72 32.2952 62.38 32.0312 62.14C31.7672 61.892 31.3672 61.768 30.8312 61.768C30.4712 61.768 30.1152 61.824 29.7632 61.936C29.4192 62.048 29.1272 62.204 28.8872 62.404L28.2992 61.312C28.6432 61.048 29.0512 60.852 29.5232 60.724C30.0032 60.588 30.4992 60.52 31.0112 60.52C31.9392 60.52 32.6552 60.744 33.1592 61.192C33.6712 61.632 33.9272 62.316 33.9272 63.244V67H32.5112ZM30.4952 67.084C30.0152 67.084 29.5952 67.004 29.2352 66.844C28.8752 66.676 28.5952 66.448 28.3952 66.16C28.2032 65.864 28.1072 65.532 28.1072 65.164C28.1072 64.804 28.1912 64.48 28.3592 64.192C28.5352 63.904 28.8192 63.676 29.2112 63.508C29.6032 63.34 30.1232 63.256 30.7712 63.256H32.6312V64.252H30.8792C30.3672 64.252 30.0232 64.336 29.8472 64.504C29.6712 64.664 29.5832 64.864 29.5832 65.104C29.5832 65.376 29.6912 65.592 29.9072 65.752C30.1232 65.912 30.4232 65.992 30.8072 65.992C31.1752 65.992 31.5032 65.908 31.7912 65.74C32.0872 65.572 32.2992 65.324 32.4272 64.996L32.6792 65.896C32.5352 66.272 32.2752 66.564 31.8992 66.772C31.5312 66.98 31.0632 67.084 30.4952 67.084ZM35.7834 67V60.592H40.7034V61.864H36.9354L37.2834 61.528V67H35.7834ZM45.6831 67V65.704L45.5991 65.428V63.16C45.5991 62.72 45.4671 62.38 45.2031 62.14C44.9391 61.892 44.5391 61.768 44.0031 61.768C43.6431 61.768 43.2871 61.824 42.9351 61.936C42.5911 62.048 42.2991 62.204 42.0591 62.404L41.4711 61.312C41.8151 61.048 42.2231 60.852 42.6951 60.724C43.1751 60.588 43.6711 60.52 44.1831 60.52C45.1111 60.52 45.8271 60.744 46.3311 61.192C46.8431 61.632 47.0991 62.316 47.0991 63.244V67H45.6831ZM43.6671 67.084C43.1871 67.084 42.7671 67.004 42.4071 66.844C42.0471 66.676 41.7671 66.448 41.5671 66.16C41.3751 65.864 41.2791 65.532 41.2791 65.164C41.2791 64.804 41.3631 64.48 41.5311 64.192C41.7071 63.904 41.9911 63.676 42.3831 63.508C42.7751 63.34 43.2951 63.256 43.9431 63.256H45.8031V64.252H44.0511C43.5391 64.252 43.1951 64.336 43.0191 64.504C42.8431 64.664 42.7551 64.864 42.7551 65.104C42.7551 65.376 42.8631 65.592 43.0791 65.752C43.2951 65.912 43.5951 65.992 43.9791 65.992C44.3471 65.992 44.6751 65.908 44.9631 65.74C45.2591 65.572 45.4711 65.324 45.5991 64.996L45.8511 65.896C45.7071 66.272 45.4471 66.564 45.0711 66.772C44.7031 66.98 44.2351 67.084 43.6671 67.084ZM56.5993 67L54.7273 63.928L55.9513 63.172L58.3873 67H56.5993ZM53.5153 64.432V63.184H55.6633V64.432H53.5153ZM56.0953 63.976L54.6793 63.808L56.6233 60.592H58.2193L56.0953 63.976ZM49.8313 67H48.0553L50.4793 63.172L51.7033 63.928L49.8313 67ZM53.9593 67H52.4713V60.592H53.9593V67ZM52.9153 64.432H50.7793V63.184H52.9153V64.432ZM50.3353 63.976L48.2113 60.592H49.8073L51.7393 63.808L50.3353 63.976ZM59.5021 67V60.592H61.0021V63.196H64.2301V60.592H65.7301V67H64.2301V64.468H61.0021V67H59.5021ZM67.7404 67V60.592H69.2404V64.816L72.7804 60.592H74.1484V67H72.6484V62.776L69.1204 67H67.7404ZM80.7622 67L78.4462 63.928L79.6702 63.172L82.5262 67H80.7622ZM76.1662 67V60.592H77.6662V67H76.1662ZM77.2222 64.432V63.184H79.3942V64.432H77.2222ZM79.8142 63.976L78.4102 63.808L80.7622 60.592H82.3702L79.8142 63.976Z" fill="white"/>
<defs>
<clipPath id="clip0_1357_226">
<rect width="49" height="49" fill="white" transform="translate(21 5)"/>
</clipPath>
</defs>
</svg>
