<svg width="90" height="90" viewBox="0 0 90 90" fill="none" xmlns="http://www.w3.org/2000/svg">
<g clip-path="url(#clip0_1357_218)">
<path d="M61.4578 21.5168C62.6496 21.5168 63.6199 22.4871 63.6199 23.6789C63.6199 24.8707 62.6496 25.841 61.4578 25.841C60.266 25.841 59.2957 24.8707 59.2957 23.6789C59.2957 22.4871 60.266 21.5168 61.4578 21.5168ZM64.1789 26.4H58.7789C57.2812 26.4 56.0789 27.6023 56.0789 29.1V35.7023C56.0789 36.2191 56.4902 36.6516 57.0281 36.6516C57.566 36.6516 57.9773 36.2402 57.9773 35.7023V29.6379C57.9773 29.4902 58.1039 29.3637 58.2515 29.3637C58.3992 29.3637 58.5257 29.4902 58.5257 29.6379V46.0066C58.5257 46.8187 59.1269 47.4832 59.8757 47.4832C60.6246 47.4832 61.2257 46.8187 61.2257 46.0066V36.6726C61.2257 36.525 61.3523 36.3984 61.5 36.3984C61.6476 36.3984 61.7742 36.525 61.7742 36.6726V46.0066C61.7742 46.8187 62.3753 47.4832 63.1242 47.4832C63.873 47.4832 64.4742 46.8187 64.4742 46.0066V29.6379C64.4742 29.4902 64.6007 29.3637 64.7484 29.3637C64.896 29.3637 65.0226 29.4902 65.0226 29.6379V35.7129C65.0226 36.2297 65.4339 36.6621 65.9718 36.6621C66.5097 36.6621 66.921 36.2508 66.921 35.7129V29.1C66.8789 27.6023 65.6449 26.4 64.1789 26.4Z" fill="white"/>
<path d="M34.7368 43.5C34.7368 38.535 38.8426 34.5 43.8947 34.5C45.5584 34.5 47.1305 34.95 48.4737 35.715V34.5L45.2989 25.5C44.9937 24.63 44.1389 24 43.1316 24H26.3421C25.3347 24 24.48 24.63 24.1747 25.5L21 34.5V46.5C21 47.325 21.6868 48 22.5263 48H24.0526C24.8921 48 25.5789 47.325 25.5789 46.5V45H34.8742C34.7979 44.505 34.7368 44.01 34.7368 43.5ZM26.3421 26.25H43.1316L45.4211 33H24.0526L26.3421 26.25ZM26.3421 40.5C25.0753 40.5 24.0526 39.495 24.0526 38.25C24.0526 37.005 25.0753 36 26.3421 36C27.6089 36 28.6316 37.005 28.6316 38.25C28.6316 39.495 27.6089 40.5 26.3421 40.5ZM43.8947 39V42H50V45H43.8947V48L39.3158 43.5L43.8947 39Z" fill="white"/>
</g>
<path d="M15.4204 67V58.6H22.8484V67H21.3124V59.536L21.6724 59.92H16.5964L16.9564 59.536V67H15.4204ZM27.905 67.084C27.249 67.084 26.665 66.944 26.153 66.664C25.641 66.376 25.237 65.984 24.941 65.488C24.645 64.992 24.497 64.428 24.497 63.796C24.497 63.156 24.645 62.592 24.941 62.104C25.237 61.608 25.641 61.22 26.153 60.94C26.665 60.66 27.249 60.52 27.905 60.52C28.569 60.52 29.157 60.66 29.669 60.94C30.189 61.22 30.593 61.604 30.881 62.092C31.177 62.58 31.325 63.148 31.325 63.796C31.325 64.428 31.177 64.992 30.881 65.488C30.593 65.984 30.189 66.376 29.669 66.664C29.157 66.944 28.569 67.084 27.905 67.084ZM27.905 65.8C28.273 65.8 28.601 65.72 28.889 65.56C29.177 65.4 29.401 65.168 29.561 64.864C29.729 64.56 29.813 64.204 29.813 63.796C29.813 63.38 29.729 63.024 29.561 62.728C29.401 62.424 29.177 62.192 28.889 62.032C28.601 61.872 28.277 61.792 27.917 61.792C27.549 61.792 27.221 61.872 26.933 62.032C26.653 62.192 26.429 62.424 26.261 62.728C26.093 63.024 26.009 63.38 26.009 63.796C26.009 64.204 26.093 64.56 26.261 64.864C26.429 65.168 26.653 65.4 26.933 65.56C27.221 65.72 27.545 65.8 27.905 65.8ZM35.7228 67.084C35.0508 67.084 34.4508 66.944 33.9228 66.664C33.4028 66.376 32.9948 65.984 32.6988 65.488C32.4028 64.992 32.2548 64.428 32.2548 63.796C32.2548 63.156 32.4028 62.592 32.6988 62.104C32.9948 61.608 33.4028 61.22 33.9228 60.94C34.4508 60.66 35.0508 60.52 35.7228 60.52C36.3468 60.52 36.8948 60.648 37.3668 60.904C37.8468 61.152 38.2108 61.52 38.4588 62.008L37.3068 62.68C37.1148 62.376 36.8788 62.152 36.5988 62.008C36.3268 61.864 36.0308 61.792 35.7108 61.792C35.3428 61.792 35.0108 61.872 34.7148 62.032C34.4188 62.192 34.1868 62.424 34.0188 62.728C33.8508 63.024 33.7668 63.38 33.7668 63.796C33.7668 64.212 33.8508 64.572 34.0188 64.876C34.1868 65.172 34.4188 65.4 34.7148 65.56C35.0108 65.72 35.3428 65.8 35.7108 65.8C36.0308 65.8 36.3268 65.728 36.5988 65.584C36.8788 65.44 37.1148 65.216 37.3068 64.912L38.4588 65.584C38.2108 66.064 37.8468 66.436 37.3668 66.7C36.8948 66.956 36.3468 67.084 35.7228 67.084ZM43.6675 67V65.704L43.5835 65.428V63.16C43.5835 62.72 43.4515 62.38 43.1875 62.14C42.9235 61.892 42.5235 61.768 41.9875 61.768C41.6275 61.768 41.2715 61.824 40.9195 61.936C40.5755 62.048 40.2835 62.204 40.0435 62.404L39.4555 61.312C39.7995 61.048 40.2075 60.852 40.6795 60.724C41.1595 60.588 41.6555 60.52 42.1675 60.52C43.0955 60.52 43.8115 60.744 44.3155 61.192C44.8275 61.632 45.0835 62.316 45.0835 63.244V67H43.6675ZM41.6515 67.084C41.1715 67.084 40.7515 67.004 40.3915 66.844C40.0315 66.676 39.7515 66.448 39.5515 66.16C39.3595 65.864 39.2635 65.532 39.2635 65.164C39.2635 64.804 39.3475 64.48 39.5155 64.192C39.6915 63.904 39.9755 63.676 40.3675 63.508C40.7595 63.34 41.2795 63.256 41.9275 63.256H43.7875V64.252H42.0355C41.5235 64.252 41.1795 64.336 41.0035 64.504C40.8275 64.664 40.7395 64.864 40.7395 65.104C40.7395 65.376 40.8475 65.592 41.0635 65.752C41.2795 65.912 41.5795 65.992 41.9635 65.992C42.3315 65.992 42.6595 65.908 42.9475 65.74C43.2435 65.572 43.4555 65.324 43.5835 64.996L43.8355 65.896C43.6915 66.272 43.4315 66.564 43.0555 66.772C42.6875 66.98 42.2195 67.084 41.6515 67.084ZM51.3316 66.304V61.864H48.8716L48.8356 62.896C48.8196 63.264 48.7956 63.62 48.7636 63.964C48.7316 64.3 48.6796 64.612 48.6076 64.9C48.5356 65.18 48.4316 65.412 48.2956 65.596C48.1596 65.78 47.9796 65.9 47.7556 65.956L46.2676 65.728C46.5076 65.728 46.6996 65.652 46.8436 65.5C46.9956 65.34 47.1116 65.124 47.1916 64.852C47.2796 64.572 47.3436 64.256 47.3836 63.904C47.4236 63.544 47.4516 63.172 47.4676 62.788L47.5516 60.592H52.8316V66.304H51.3316ZM46.0396 68.428V65.728H53.7796V68.428H52.3756V67H47.4316V68.428H46.0396ZM55.1193 67V60.592H56.6193V64.816L60.1593 60.592H61.5273V67H60.0273V62.776L56.4993 67H55.1193ZM64.8771 67V61.504L65.2251 61.864H62.6211V60.592H68.6211V61.864H66.0291L66.3771 61.504V67H64.8771ZM72.9252 62.704C73.7492 62.704 74.3772 62.888 74.8092 63.256C75.2412 63.624 75.4572 64.144 75.4572 64.816C75.4572 65.512 75.2172 66.056 74.7372 66.448C74.2572 66.832 73.5812 67.02 72.7092 67.012L69.7092 67V60.592H71.2092V62.692L72.9252 62.704ZM72.5772 65.908C73.0172 65.916 73.3532 65.824 73.5852 65.632C73.8172 65.44 73.9332 65.16 73.9332 64.792C73.9332 64.424 73.8172 64.16 73.5852 64C73.3612 63.832 73.0252 63.744 72.5772 63.736L71.2092 63.724V65.896L72.5772 65.908ZM19.9875 79.468C19.6835 79.612 19.3595 79.732 19.0155 79.828C18.6795 79.916 18.3235 79.96 17.9475 79.96C17.1395 79.96 16.5115 79.772 16.0635 79.396C15.6155 79.02 15.3915 78.436 15.3915 77.644V75.592H16.8915V77.548C16.8915 77.972 17.0115 78.28 17.2515 78.472C17.4995 78.664 17.8395 78.76 18.2715 78.76C18.5595 78.76 18.8475 78.724 19.1355 78.652C19.4235 78.58 19.7075 78.48 19.9875 78.352V79.468ZM19.8795 82V75.592H21.3795V82H19.8795ZM26.3847 82.084C25.6727 82.084 25.0487 81.944 24.5127 81.664C23.9847 81.376 23.5727 80.984 23.2767 80.488C22.9887 79.992 22.8447 79.428 22.8447 78.796C22.8447 78.156 22.9847 77.592 23.2647 77.104C23.5527 76.608 23.9447 76.22 24.4407 75.94C24.9447 75.66 25.5167 75.52 26.1567 75.52C26.7807 75.52 27.3367 75.656 27.8247 75.928C28.3127 76.2 28.6967 76.584 28.9767 77.08C29.2567 77.576 29.3967 78.16 29.3967 78.832C29.3967 78.896 29.3927 78.968 29.3847 79.048C29.3847 79.128 29.3807 79.204 29.3727 79.276H24.0327V78.28H28.5807L27.9927 78.592C28.0007 78.224 27.9247 77.9 27.7647 77.62C27.6047 77.34 27.3847 77.12 27.1047 76.96C26.8327 76.8 26.5167 76.72 26.1567 76.72C25.7887 76.72 25.4647 76.8 25.1847 76.96C24.9127 77.12 24.6967 77.344 24.5367 77.632C24.3847 77.912 24.3087 78.244 24.3087 78.628V78.868C24.3087 79.252 24.3967 79.592 24.5727 79.888C24.7487 80.184 24.9967 80.412 25.3167 80.572C25.6367 80.732 26.0047 80.812 26.4207 80.812C26.7807 80.812 27.1047 80.756 27.3927 80.644C27.6807 80.532 27.9367 80.356 28.1607 80.116L28.9647 81.04C28.6767 81.376 28.3127 81.636 27.8727 81.82C27.4407 81.996 26.9447 82.084 26.3847 82.084ZM30.0193 81.988L30.0913 80.728C30.1473 80.736 30.1993 80.744 30.2473 80.752C30.2953 80.76 30.3393 80.764 30.3793 80.764C30.6273 80.764 30.8193 80.688 30.9553 80.536C31.0913 80.384 31.1913 80.18 31.2553 79.924C31.3273 79.66 31.3753 79.368 31.3993 79.048C31.4313 78.72 31.4553 78.392 31.4713 78.064L31.5793 75.592H36.7633V82H35.2633V76.456L35.6113 76.864H32.5633L32.8873 76.444L32.8033 78.136C32.7793 78.704 32.7313 79.232 32.6593 79.72C32.5953 80.2 32.4913 80.62 32.3473 80.98C32.2113 81.34 32.0193 81.62 31.7713 81.82C31.5313 82.02 31.2233 82.12 30.8473 82.12C30.7273 82.12 30.5953 82.108 30.4513 82.084C30.3153 82.06 30.1713 82.028 30.0193 81.988ZM41.6394 82.084C40.9834 82.084 40.3994 81.944 39.8874 81.664C39.3754 81.376 38.9714 80.984 38.6754 80.488C38.3794 79.992 38.2314 79.428 38.2314 78.796C38.2314 78.156 38.3794 77.592 38.6754 77.104C38.9714 76.608 39.3754 76.22 39.8874 75.94C40.3994 75.66 40.9834 75.52 41.6394 75.52C42.3034 75.52 42.8914 75.66 43.4034 75.94C43.9234 76.22 44.3274 76.604 44.6154 77.092C44.9114 77.58 45.0594 78.148 45.0594 78.796C45.0594 79.428 44.9114 79.992 44.6154 80.488C44.3274 80.984 43.9234 81.376 43.4034 81.664C42.8914 81.944 42.3034 82.084 41.6394 82.084ZM41.6394 80.8C42.0074 80.8 42.3354 80.72 42.6234 80.56C42.9114 80.4 43.1354 80.168 43.2954 79.864C43.4634 79.56 43.5474 79.204 43.5474 78.796C43.5474 78.38 43.4634 78.024 43.2954 77.728C43.1354 77.424 42.9114 77.192 42.6234 77.032C42.3354 76.872 42.0114 76.792 41.6514 76.792C41.2834 76.792 40.9554 76.872 40.6674 77.032C40.3874 77.192 40.1634 77.424 39.9954 77.728C39.8274 78.024 39.7434 78.38 39.7434 78.796C39.7434 79.204 39.8274 79.56 39.9954 79.864C40.1634 80.168 40.3874 80.4 40.6674 80.56C40.9554 80.72 41.2794 80.8 41.6394 80.8ZM46.5412 82V75.592H49.6732C50.4492 75.592 51.0572 75.736 51.4972 76.024C51.9452 76.312 52.1692 76.72 52.1692 77.248C52.1692 77.768 51.9612 78.176 51.5452 78.472C51.1292 78.76 50.5772 78.904 49.8892 78.904L50.0692 78.532C50.8452 78.532 51.4212 78.676 51.7972 78.964C52.1812 79.244 52.3732 79.656 52.3732 80.2C52.3732 80.768 52.1612 81.212 51.7372 81.532C51.3132 81.844 50.6692 82 49.8052 82H46.5412ZM47.9692 80.908H49.6852C50.0932 80.908 50.4012 80.844 50.6092 80.716C50.8172 80.58 50.9212 80.376 50.9212 80.104C50.9212 79.816 50.8252 79.604 50.6332 79.468C50.4412 79.332 50.1412 79.264 49.7332 79.264H47.9692V80.908ZM47.9692 78.268H49.5412C49.9252 78.268 50.2132 78.2 50.4052 78.064C50.6052 77.92 50.7052 77.72 50.7052 77.464C50.7052 77.2 50.6052 77.004 50.4052 76.876C50.2132 76.748 49.9252 76.684 49.5412 76.684H47.9692V78.268ZM56.9589 82.084C56.2469 82.084 55.6229 81.944 55.0869 81.664C54.5589 81.376 54.1469 80.984 53.8509 80.488C53.5629 79.992 53.4189 79.428 53.4189 78.796C53.4189 78.156 53.5589 77.592 53.8389 77.104C54.1269 76.608 54.5189 76.22 55.0149 75.94C55.5189 75.66 56.0909 75.52 56.7309 75.52C57.3549 75.52 57.9109 75.656 58.3989 75.928C58.8869 76.2 59.2709 76.584 59.5509 77.08C59.8309 77.576 59.9709 78.16 59.9709 78.832C59.9709 78.896 59.9669 78.968 59.9589 79.048C59.9589 79.128 59.9549 79.204 59.9469 79.276H54.6069V78.28H59.1549L58.5669 78.592C58.5749 78.224 58.4989 77.9 58.3389 77.62C58.1789 77.34 57.9589 77.12 57.6789 76.96C57.4069 76.8 57.0909 76.72 56.7309 76.72C56.3629 76.72 56.0389 76.8 55.7589 76.96C55.4869 77.12 55.2709 77.344 55.1109 77.632C54.9589 77.912 54.8829 78.244 54.8829 78.628V78.868C54.8829 79.252 54.9709 79.592 55.1469 79.888C55.3229 80.184 55.5709 80.412 55.8909 80.572C56.2109 80.732 56.5789 80.812 56.9949 80.812C57.3549 80.812 57.6789 80.756 57.9669 80.644C58.2549 80.532 58.5109 80.356 58.7349 80.116L59.5389 81.04C59.2509 81.376 58.8869 81.636 58.4469 81.82C58.0149 81.996 57.5189 82.084 56.9589 82.084ZM66.2075 82L63.8915 78.928L65.1155 78.172L67.9715 82H66.2075ZM61.6115 82V75.592H63.1115V82H61.6115ZM62.6675 79.432V78.184H64.8395V79.432H62.6675ZM65.2595 78.976L63.8555 78.808L66.2075 75.592H67.8155L65.2595 78.976ZM72.8003 82V80.704L72.7163 80.428V78.16C72.7163 77.72 72.5843 77.38 72.3203 77.14C72.0563 76.892 71.6563 76.768 71.1203 76.768C70.7603 76.768 70.4043 76.824 70.0523 76.936C69.7083 77.048 69.4163 77.204 69.1763 77.404L68.5883 76.312C68.9323 76.048 69.3403 75.852 69.8123 75.724C70.2923 75.588 70.7883 75.52 71.3003 75.52C72.2283 75.52 72.9443 75.744 73.4483 76.192C73.9603 76.632 74.2163 77.316 74.2163 78.244V82H72.8003ZM70.7843 82.084C70.3043 82.084 69.8843 82.004 69.5243 81.844C69.1643 81.676 68.8843 81.448 68.6843 81.16C68.4923 80.864 68.3963 80.532 68.3963 80.164C68.3963 79.804 68.4803 79.48 68.6483 79.192C68.8243 78.904 69.1083 78.676 69.5003 78.508C69.8923 78.34 70.4123 78.256 71.0603 78.256H72.9203V79.252H71.1683C70.6563 79.252 70.3123 79.336 70.1363 79.504C69.9603 79.664 69.8723 79.864 69.8723 80.104C69.8723 80.376 69.9803 80.592 70.1963 80.752C70.4123 80.912 70.7123 80.992 71.0963 80.992C71.4643 80.992 71.7923 80.908 72.0803 80.74C72.3763 80.572 72.5883 80.324 72.7163 79.996L72.9683 80.896C72.8243 81.272 72.5643 81.564 72.1883 81.772C71.8203 81.98 71.3523 82.084 70.7843 82.084Z" fill="white"/>
<defs>
<clipPath id="clip0_1357_218">
<rect width="49" height="49" fill="white" transform="translate(21 5)"/>
</clipPath>
</defs>
</svg>
