<svg width="90" height="90" viewBox="0 0 90 90" fill="none" xmlns="http://www.w3.org/2000/svg">
<path d="M26.1212 77.14C25.3559 77.14 24.6512 77.014 24.0072 76.762C23.3632 76.51 22.8032 76.16 22.3272 75.712C21.8512 75.2547 21.4826 74.7227 21.2212 74.116C20.9599 73.5 20.8292 72.828 20.8292 72.1C20.8292 71.372 20.9599 70.7047 21.2212 70.098C21.4826 69.482 21.8512 68.95 22.3272 68.502C22.8032 68.0447 23.3632 67.69 24.0072 67.438C24.6512 67.186 25.3512 67.06 26.1072 67.06C26.8726 67.06 27.5726 67.186 28.2072 67.438C28.8512 67.69 29.4112 68.0447 29.8872 68.502C30.3632 68.95 30.7319 69.482 30.9932 70.098C31.2546 70.7047 31.3852 71.372 31.3852 72.1C31.3852 72.828 31.2546 73.5 30.9932 74.116C30.7319 74.732 30.3632 75.264 29.8872 75.712C29.4112 76.16 28.8512 76.51 28.2072 76.762C27.5726 77.014 26.8772 77.14 26.1212 77.14ZM26.1072 75.544C26.6019 75.544 27.0592 75.46 27.4792 75.292C27.8992 75.124 28.2632 74.886 28.5712 74.578C28.8792 74.2607 29.1172 73.8967 29.2852 73.486C29.4626 73.066 29.5512 72.604 29.5512 72.1C29.5512 71.596 29.4626 71.1387 29.2852 70.728C29.1172 70.308 28.8792 69.944 28.5712 69.636C28.2632 69.3187 27.8992 69.076 27.4792 68.908C27.0592 68.74 26.6019 68.656 26.1072 68.656C25.6126 68.656 25.1552 68.74 24.7352 68.908C24.3246 69.076 23.9606 69.3187 23.6432 69.636C23.3352 69.944 23.0926 70.308 22.9152 70.728C22.7472 71.1387 22.6632 71.596 22.6632 72.1C22.6632 72.5947 22.7472 73.052 22.9152 73.472C23.0926 73.892 23.3352 74.2607 23.6432 74.578C23.9512 74.886 24.3152 75.124 24.7352 75.292C25.1552 75.46 25.6126 75.544 26.1072 75.544ZM36.7714 77.14C36.1554 77.14 35.6047 77.0467 35.1194 76.86C34.6341 76.6733 34.2141 76.3887 33.8594 76.006C33.5141 75.614 33.2481 75.1193 33.0614 74.522C32.8747 73.9247 32.7814 73.2153 32.7814 72.394C32.7814 71.7967 32.8327 71.2507 32.9354 70.756C33.0381 70.2613 33.1921 69.818 33.3974 69.426C33.6027 69.0247 33.8594 68.67 34.1674 68.362C34.4847 68.054 34.8534 67.7973 35.2734 67.592C35.6934 67.3867 36.1694 67.228 36.7014 67.116L40.1734 66.374L40.4254 67.942L37.2754 68.586C37.0981 68.6233 36.8834 68.6793 36.6314 68.754C36.3887 68.8193 36.1367 68.922 35.8754 69.062C35.6234 69.1927 35.3854 69.384 35.1614 69.636C34.9467 69.8787 34.7694 70.196 34.6294 70.588C34.4987 70.9707 34.4334 71.4513 34.4334 72.03C34.4334 72.2073 34.4381 72.3427 34.4474 72.436C34.4661 72.52 34.4801 72.6133 34.4894 72.716C34.5081 72.8093 34.5174 72.9493 34.5174 73.136L33.8594 72.45C34.0461 71.974 34.3027 71.568 34.6294 71.232C34.9654 70.8867 35.3527 70.6253 35.7914 70.448C36.2394 70.2613 36.7247 70.168 37.2474 70.168C37.9474 70.168 38.5681 70.3127 39.1094 70.602C39.6507 70.8913 40.0754 71.2973 40.3834 71.82C40.6914 72.3427 40.8454 72.9353 40.8454 73.598C40.8454 74.2887 40.6774 74.9 40.3414 75.432C40.0054 75.964 39.5294 76.384 38.9134 76.692C38.3067 76.9907 37.5927 77.14 36.7714 77.14ZM36.9114 75.726C37.3314 75.726 37.7001 75.6373 38.0174 75.46C38.3441 75.2733 38.5961 75.0213 38.7734 74.704C38.9601 74.3867 39.0534 74.032 39.0534 73.64C39.0534 73.248 38.9601 72.9073 38.7734 72.618C38.5961 72.3193 38.3441 72.0813 38.0174 71.904C37.7001 71.7267 37.3221 71.638 36.8834 71.638C36.4634 71.638 36.0854 71.722 35.7494 71.89C35.4227 72.058 35.1661 72.2913 34.9794 72.59C34.8021 72.8793 34.7134 73.2153 34.7134 73.598C34.7134 73.99 34.8067 74.3493 34.9934 74.676C35.1801 75.0027 35.4367 75.2593 35.7634 75.446C36.0994 75.6327 36.4821 75.726 36.9114 75.726ZM50.0853 77V69.524H51.8353V77H50.0853ZM46.1793 71.988C47.1406 71.988 47.8686 72.2027 48.3633 72.632C48.8673 73.0613 49.1193 73.668 49.1193 74.452C49.1193 75.264 48.8393 75.8987 48.2793 76.356C47.7286 76.804 46.9446 77.0233 45.9273 77.014L42.5393 77V69.524H44.2893V71.974L46.1793 71.988ZM45.7733 75.726C46.2866 75.7353 46.6786 75.628 46.9493 75.404C47.2199 75.18 47.3553 74.8533 47.3553 74.424C47.3553 73.9947 47.2199 73.6867 46.9493 73.5C46.6879 73.304 46.2959 73.2013 45.7733 73.192L44.2893 73.178V75.712L45.7733 75.726ZM57.5897 77.098C56.8057 77.098 56.1057 76.9347 55.4897 76.608C54.8831 76.272 54.4071 75.8147 54.0617 75.236C53.7164 74.6573 53.5437 73.9993 53.5437 73.262C53.5437 72.5153 53.7164 71.8573 54.0617 71.288C54.4071 70.7093 54.8831 70.2567 55.4897 69.93C56.1057 69.6033 56.8057 69.44 57.5897 69.44C58.3177 69.44 58.9571 69.5893 59.5077 69.888C60.0677 70.1773 60.4924 70.6067 60.7817 71.176L59.4377 71.96C59.2137 71.6053 58.9384 71.344 58.6117 71.176C58.2944 71.008 57.9491 70.924 57.5757 70.924C57.1464 70.924 56.7591 71.0173 56.4137 71.204C56.0684 71.3907 55.7977 71.6613 55.6017 72.016C55.4057 72.3613 55.3077 72.7767 55.3077 73.262C55.3077 73.7473 55.4057 74.1673 55.6017 74.522C55.7977 74.8673 56.0684 75.1333 56.4137 75.32C56.7591 75.5067 57.1464 75.6 57.5757 75.6C57.9491 75.6 58.2944 75.516 58.6117 75.348C58.9384 75.18 59.2137 74.9187 59.4377 74.564L60.7817 75.348C60.4924 75.908 60.0677 76.342 59.5077 76.65C58.9571 76.9487 58.3177 77.098 57.5897 77.098ZM67.6845 77L64.9825 73.416L66.4105 72.534L69.7425 77H67.6845ZM62.3225 77V69.524H64.0725V77H62.3225ZM63.5545 74.004V72.548H66.0885V74.004H63.5545ZM66.5785 73.472L64.9405 73.276L67.6845 69.524H69.5605L66.5785 73.472Z" fill="white"/>
<path fill-rule="evenodd" clip-rule="evenodd" d="M70 25.9823C70 16.3088 62.1088 8.47058 52.3794 8.47058C42.6412 8.47058 34.7529 16.3088 34.7529 25.9823C34.7529 35.65 42.6441 43.4882 52.3794 43.4882C62.1088 43.4882 70 35.65 70 25.9823ZM37.4529 26.1735C37.4529 17.9206 44.1559 11.2441 52.4294 11.2441C60.697 11.2441 67.3941 17.9235 67.3941 26.1735C67.3941 34.4206 60.697 41.1 52.4294 41.1C44.1559 41.1 37.4529 34.4176 37.4529 26.1735Z" fill="white"/>
<path fill-rule="evenodd" clip-rule="evenodd" d="M28.3 55.4235L22.9412 50.0647L34.8147 38.1882C34.8147 38.1882 35.097 40.4382 36.5206 41.8559C37.9382 43.2794 40.1735 43.55 40.1735 43.55L28.3 55.4235Z" fill="white"/>
<path fill-rule="evenodd" clip-rule="evenodd" d="M62.347 23.3912C62.347 25.0736 63.6412 24.4383 63.6412 22.1C63.6412 18.0706 60.3794 14.8059 56.35 14.8059C54.0059 14.8059 53.3735 16.0971 55.0588 16.0971C59.0882 16.0971 62.347 19.3647 62.347 23.3912Z" fill="white"/>
</svg>
