<svg width="90" height="90" viewBox="0 0 90 90" fill="none" xmlns="http://www.w3.org/2000/svg">
<path d="M24.9087 77L21.5907 72.226L23.0607 71.316L26.9667 77H24.9087ZM18.4267 77V67.2H20.2187V77H18.4267ZM19.6727 72.87V71.302H22.9767V72.87H19.6727ZM23.2287 72.31L21.5627 72.086L24.9087 67.2H26.8407L23.2287 72.31ZM31.2424 77.098C30.477 77.098 29.7957 76.9347 29.1984 76.608C28.601 76.272 28.1297 75.8147 27.7844 75.236C27.439 74.6573 27.2664 73.9993 27.2664 73.262C27.2664 72.5153 27.439 71.8573 27.7844 71.288C28.1297 70.7093 28.601 70.2567 29.1984 69.93C29.7957 69.6033 30.477 69.44 31.2424 69.44C32.017 69.44 32.703 69.6033 33.3004 69.93C33.907 70.2567 34.3784 70.7047 34.7144 71.274C35.0597 71.8433 35.2324 72.506 35.2324 73.262C35.2324 73.9993 35.0597 74.6573 34.7144 75.236C34.3784 75.8147 33.907 76.272 33.3004 76.608C32.703 76.9347 32.017 77.098 31.2424 77.098ZM31.2424 75.6C31.6717 75.6 32.0544 75.5067 32.3904 75.32C32.7264 75.1333 32.9877 74.8627 33.1744 74.508C33.3704 74.1533 33.4684 73.738 33.4684 73.262C33.4684 72.7767 33.3704 72.3613 33.1744 72.016C32.9877 71.6613 32.7264 71.3907 32.3904 71.204C32.0544 71.0173 31.6764 70.924 31.2564 70.924C30.827 70.924 30.4444 71.0173 30.1084 71.204C29.7817 71.3907 29.5204 71.6613 29.3244 72.016C29.1284 72.3613 29.0304 72.7767 29.0304 73.262C29.0304 73.738 29.1284 74.1533 29.3244 74.508C29.5204 74.8627 29.7817 75.1333 30.1084 75.32C30.4444 75.5067 30.8224 75.6 31.2424 75.6ZM36.9612 77V69.524H38.7112V72.562H42.4772V69.524H44.2272V77H42.4772V74.046H38.7112V77H36.9612ZM46.5725 77V69.524H50.2265C51.1318 69.524 51.8412 69.692 52.3545 70.028C52.8772 70.364 53.1385 70.84 53.1385 71.456C53.1385 72.0627 52.8958 72.5387 52.4105 72.884C51.9252 73.22 51.2812 73.388 50.4785 73.388L50.6885 72.954C51.5938 72.954 52.2658 73.122 52.7045 73.458C53.1525 73.7847 53.3765 74.2653 53.3765 74.9C53.3765 75.5627 53.1292 76.0807 52.6345 76.454C52.1398 76.818 51.3885 77 50.3805 77H46.5725ZM48.2385 75.726H50.2405C50.7165 75.726 51.0758 75.6513 51.3185 75.502C51.5612 75.3433 51.6825 75.1053 51.6825 74.788C51.6825 74.452 51.5705 74.2047 51.3465 74.046C51.1225 73.8873 50.7725 73.808 50.2965 73.808H48.2385V75.726ZM48.2385 72.646H50.0725C50.5205 72.646 50.8565 72.5667 51.0805 72.408C51.3138 72.24 51.4305 72.0067 51.4305 71.708C51.4305 71.4 51.3138 71.1713 51.0805 71.022C50.8565 70.8727 50.5205 70.798 50.0725 70.798H48.2385V72.646ZM58.5725 77.098C57.8071 77.098 57.1258 76.9347 56.5285 76.608C55.9311 76.272 55.4598 75.8147 55.1145 75.236C54.7691 74.6573 54.5965 73.9993 54.5965 73.262C54.5965 72.5153 54.7691 71.8573 55.1145 71.288C55.4598 70.7093 55.9311 70.2567 56.5285 69.93C57.1258 69.6033 57.8071 69.44 58.5725 69.44C59.3471 69.44 60.0331 69.6033 60.6305 69.93C61.2371 70.2567 61.7085 70.7047 62.0445 71.274C62.3898 71.8433 62.5625 72.506 62.5625 73.262C62.5625 73.9993 62.3898 74.6573 62.0445 75.236C61.7085 75.8147 61.2371 76.272 60.6305 76.608C60.0331 76.9347 59.3471 77.098 58.5725 77.098ZM58.5725 75.6C59.0018 75.6 59.3845 75.5067 59.7205 75.32C60.0565 75.1333 60.3178 74.8627 60.5045 74.508C60.7005 74.1533 60.7985 73.738 60.7985 73.262C60.7985 72.7767 60.7005 72.3613 60.5045 72.016C60.3178 71.6613 60.0565 71.3907 59.7205 71.204C59.3845 71.0173 59.0065 70.924 58.5865 70.924C58.1571 70.924 57.7745 71.0173 57.4385 71.204C57.1118 71.3907 56.8505 71.6613 56.6545 72.016C56.4585 72.3613 56.3605 72.7767 56.3605 73.262C56.3605 73.738 56.4585 74.1533 56.6545 74.508C56.8505 74.8627 57.1118 75.1333 57.4385 75.32C57.7745 75.5067 58.1525 75.6 58.5725 75.6ZM64.2912 77V69.524H66.0412V74.452L70.1712 69.524H71.7672V77H70.0172V72.072L65.9012 77H64.2912ZM67.9172 68.642C67.1706 68.642 66.5966 68.4693 66.1952 68.124C65.7939 67.7693 65.5886 67.256 65.5792 66.584H66.7412C66.7506 66.92 66.8532 67.186 67.0492 67.382C67.2546 67.578 67.5392 67.676 67.9032 67.676C68.2579 67.676 68.5379 67.578 68.7432 67.382C68.9579 67.186 69.0699 66.92 69.0792 66.584H70.2692C70.2599 67.256 70.0499 67.7693 69.6392 68.124C69.2379 68.4693 68.6639 68.642 67.9172 68.642Z" fill="white"/>
<path d="M58.3399 16.8329C57.0613 16.8329 55.6868 16.4686 54.6595 15.7231C54.6128 17.7979 56.2818 19.4877 58.3399 19.4877C60.3926 19.4877 62.0667 17.8038 62.0203 15.7225C60.9895 16.4711 59.6142 16.8329 58.3399 16.8329Z" fill="white"/>
<path d="M67.4249 24.8446C67.4129 22.4803 65.4585 20.557 63.0945 20.557H58.3328H58.3175H53.8801C51.7715 20.557 49.8222 21.7866 48.9138 23.6893L47.2765 27.1188L47.2621 27.1234C47.8335 28.6 47.4411 30.3179 46.2122 31.394L49.1825 30.4651C49.6817 30.3091 50.0933 29.9521 50.3187 29.4802L52.3093 25.3105C52.5544 24.7969 52.788 24.6507 53.1496 24.483C53.2454 24.4385 53.3573 24.4463 53.446 24.5035C53.5348 24.5607 53.5275 24.6595 53.5265 24.7651C53.5049 27.0238 53.5265 38.2431 53.5265 54.7311C53.5265 55.978 54.477 56.9887 55.7239 56.9887C56.9707 56.9887 57.9815 55.978 57.9815 54.7311V37.6889H58.6511V54.7312C58.6511 55.9781 59.662 56.9888 60.9087 56.9888C62.1555 56.9888 63.0879 55.9781 63.0879 54.7312C63.0879 39.9094 63.0879 26.9104 63.0879 24.8278C63.0879 24.6674 63.2179 24.5373 63.3785 24.5373C63.5325 24.5373 63.6572 24.6621 63.6572 24.816C63.6572 26.4537 63.6572 34.8269 63.6572 37.0312C63.6572 38.0702 64.5154 38.9126 65.5544 38.9126C66.5934 38.9126 67.4251 38.0703 67.4251 37.0312C67.4249 34.5801 67.4249 27.328 67.4249 24.8446Z" fill="white"/>
<path d="M61.9913 8.23633C60.9547 7.43916 59.6579 7 58.3401 7C57.0218 7 55.7247 7.43916 54.6881 8.23643C53.6793 9.0124 53.077 10.0301 53.077 10.9588C53.077 11.3874 53.1877 11.7358 53.3812 12.0193C53.6716 12.4449 54.149 12.7237 54.7197 12.9062V13.5998C54.7211 14.4225 56.3407 15.4943 58.34 15.4943C60.3393 15.4943 61.9576 14.4224 61.959 13.5998V12.9068C62.5294 12.7245 63.0068 12.4463 63.2975 12.0214C63.4918 11.7376 63.6029 11.3884 63.6029 10.9588C63.6028 10.0302 63.0004 9.0124 61.9913 8.23633ZM58.3401 13.3659C58.0018 13.3658 57.6235 12.8191 57.6235 12.0874C57.6235 11.3556 58.0018 10.8088 58.3401 10.8088C58.6783 10.8088 59.0566 11.3556 59.0566 12.0874C59.0565 12.8191 58.6783 13.3659 58.3401 13.3659Z" fill="white"/>
<path d="M31.2873 37.4542C30.5193 37.4542 29.7454 37.2241 29.0741 36.7493V54.7332C29.0741 55.9851 30.0889 56.9999 31.3408 56.9999C32.5927 56.9999 33.6075 55.985 33.6075 54.7332V36.6755C32.932 37.1873 32.1136 37.4542 31.2873 37.4542Z" fill="white"/>
<path d="M36.856 37.4542C36.0506 37.4542 35.2519 37.2017 34.5863 36.7149V54.7332C34.5863 55.9851 35.6011 56.9999 36.853 56.9999C38.1049 56.9999 39.1197 55.985 39.1197 54.7332V36.7131C38.4372 37.2125 37.6434 37.4542 36.856 37.4542Z" fill="white"/>
<path d="M45.4293 27.7965C45.1314 27.0636 43.1707 22.2398 42.8495 21.4497C42.1243 19.6653 40.4111 18.5121 38.4849 18.5121H38.0265C37.0216 19.5039 35.6427 20.1175 34.1227 20.1175C32.6634 20.1175 31.267 19.5467 30.2189 18.5121H29.6589C27.7327 18.5121 26.0196 19.6651 25.2943 21.4496C24.9731 22.2399 23.0124 27.0636 22.7145 27.7967C22.391 28.5924 22.6452 29.5061 23.333 30.0206L30.1592 35.126C30.9951 35.7511 32.1787 35.5796 32.8033 34.7446C33.4281 33.9092 33.2575 32.7254 32.4219 32.1006L26.7633 27.8684C28.9616 22.4601 28.8039 22.7166 29.0735 22.4986V27.1588C34.0283 30.8645 33.7627 30.641 34.072 30.965C34.3811 30.6412 34.1114 30.8677 39.0791 27.1522V22.5052C39.3376 22.7194 39.171 22.4318 41.3807 27.8683L35.7222 32.1005C34.8934 32.7203 34.7127 33.9047 35.3408 34.7445C35.9658 35.5802 37.1497 35.7506 37.9849 35.1259L44.811 30.0205C45.4987 29.5058 45.7529 28.5922 45.4293 27.7965Z" fill="white"/>
<path d="M34.1229 18.4707C36.2849 18.4707 38.0375 16.7181 38.0375 14.5562C38.0375 12.3942 36.2849 10.6416 34.1229 10.6416C31.961 10.6416 30.2084 12.3942 30.2084 14.5562C30.2084 16.7181 31.961 18.4707 34.1229 18.4707Z" fill="white"/>
</svg>
