<svg width="90" height="90" viewBox="0 0 90 90" fill="none" xmlns="http://www.w3.org/2000/svg">
<path d="M2.16897 77L6.57897 67.2H8.37097L12.795 77H10.891L7.09697 68.166H7.82497L4.04497 77H2.16897ZM4.19897 74.732L4.68897 73.304H9.98097L10.471 74.732H4.19897ZM18.2458 77.098C17.6391 77.098 17.0838 76.958 16.5798 76.678C16.0851 76.398 15.6884 75.978 15.3898 75.418C15.1004 74.8487 14.9558 74.13 14.9558 73.262C14.9558 72.3847 15.0958 71.666 15.3758 71.106C15.6651 70.546 16.0571 70.1307 16.5518 69.86C17.0464 69.58 17.6111 69.44 18.2458 69.44C18.9831 69.44 19.6318 69.5987 20.1918 69.916C20.7611 70.2333 21.2091 70.6767 21.5358 71.246C21.8718 71.8153 22.0398 72.4873 22.0398 73.262C22.0398 74.0367 21.8718 74.7133 21.5358 75.292C21.2091 75.8613 20.7611 76.3047 20.1918 76.622C19.6318 76.9393 18.9831 77.098 18.2458 77.098ZM14.1018 79.716V69.524H15.7678V71.288L15.7118 73.276L15.8518 75.264V79.716H14.1018ZM18.0498 75.6C18.4698 75.6 18.8431 75.5067 19.1698 75.32C19.5058 75.1333 19.7718 74.8627 19.9678 74.508C20.1638 74.1533 20.2618 73.738 20.2618 73.262C20.2618 72.7767 20.1638 72.3613 19.9678 72.016C19.7718 71.6613 19.5058 71.3907 19.1698 71.204C18.8431 71.0173 18.4698 70.924 18.0498 70.924C17.6298 70.924 17.2518 71.0173 16.9158 71.204C16.5798 71.3907 16.3138 71.6613 16.1178 72.016C15.9218 72.3613 15.8238 72.7767 15.8238 73.262C15.8238 73.738 15.9218 74.1533 16.1178 74.508C16.3138 74.8627 16.5798 75.1333 16.9158 75.32C17.2518 75.5067 17.6298 75.6 18.0498 75.6ZM27.2675 77.098C26.4368 77.098 25.7088 76.9347 25.0835 76.608C24.4675 76.272 23.9868 75.8147 23.6415 75.236C23.3055 74.6573 23.1375 73.9993 23.1375 73.262C23.1375 72.5153 23.3008 71.8573 23.6275 71.288C23.9635 70.7093 24.4208 70.2567 24.9995 69.93C25.5875 69.6033 26.2548 69.44 27.0015 69.44C27.7295 69.44 28.3781 69.5987 28.9475 69.916C29.5168 70.2333 29.9648 70.6813 30.2915 71.26C30.6181 71.8387 30.7815 72.52 30.7815 73.304C30.7815 73.3787 30.7768 73.4627 30.7675 73.556C30.7675 73.6493 30.7628 73.738 30.7535 73.822H24.5235V72.66H29.8295L29.1435 73.024C29.1528 72.5947 29.0641 72.2167 28.8775 71.89C28.6908 71.5633 28.4341 71.3067 28.1075 71.12C27.7901 70.9333 27.4215 70.84 27.0015 70.84C26.5721 70.84 26.1941 70.9333 25.8675 71.12C25.5501 71.3067 25.2981 71.568 25.1115 71.904C24.9341 72.2307 24.8455 72.618 24.8455 73.066V73.346C24.8455 73.794 24.9481 74.1907 25.1535 74.536C25.3588 74.8813 25.6481 75.1473 26.0215 75.334C26.3948 75.5207 26.8241 75.614 27.3095 75.614C27.7295 75.614 28.1075 75.5487 28.4435 75.418C28.7795 75.2873 29.0781 75.082 29.3395 74.802L30.2775 75.88C29.9415 76.272 29.5168 76.5753 29.0035 76.79C28.4995 76.9953 27.9208 77.098 27.2675 77.098ZM36.0975 77.098C35.3135 77.098 34.6135 76.9347 33.9975 76.608C33.3909 76.272 32.9149 75.8147 32.5695 75.236C32.2242 74.6573 32.0515 73.9993 32.0515 73.262C32.0515 72.5153 32.2242 71.8573 32.5695 71.288C32.9149 70.7093 33.3909 70.2567 33.9975 69.93C34.6135 69.6033 35.3135 69.44 36.0975 69.44C36.8255 69.44 37.4649 69.5893 38.0155 69.888C38.5755 70.1773 39.0002 70.6067 39.2895 71.176L37.9455 71.96C37.7215 71.6053 37.4462 71.344 37.1195 71.176C36.8022 71.008 36.4569 70.924 36.0835 70.924C35.6542 70.924 35.2669 71.0173 34.9215 71.204C34.5762 71.3907 34.3055 71.6613 34.1095 72.016C33.9135 72.3613 33.8155 72.7767 33.8155 73.262C33.8155 73.7473 33.9135 74.1673 34.1095 74.522C34.3055 74.8673 34.5762 75.1333 34.9215 75.32C35.2669 75.5067 35.6542 75.6 36.0835 75.6C36.4569 75.6 36.8022 75.516 37.1195 75.348C37.4462 75.18 37.7215 74.9187 37.9455 74.564L39.2895 75.348C39.0002 75.908 38.5755 76.342 38.0155 76.65C37.4649 76.9487 36.8255 77.098 36.0975 77.098ZM42.3159 77V70.588L42.7219 71.008H39.6839V69.524H46.6839V71.008H43.6599L44.0659 70.588V77H42.3159ZM50.9572 77.098C50.1919 77.098 49.5106 76.9347 48.9132 76.608C48.3159 76.272 47.8446 75.8147 47.4992 75.236C47.1539 74.6573 46.9812 73.9993 46.9812 73.262C46.9812 72.5153 47.1539 71.8573 47.4992 71.288C47.8446 70.7093 48.3159 70.2567 48.9132 69.93C49.5106 69.6033 50.1919 69.44 50.9572 69.44C51.7319 69.44 52.4179 69.6033 53.0152 69.93C53.6219 70.2567 54.0932 70.7047 54.4292 71.274C54.7746 71.8433 54.9472 72.506 54.9472 73.262C54.9472 73.9993 54.7746 74.6573 54.4292 75.236C54.0932 75.8147 53.6219 76.272 53.0152 76.608C52.4179 76.9347 51.7319 77.098 50.9572 77.098ZM50.9572 75.6C51.3866 75.6 51.7692 75.5067 52.1052 75.32C52.4412 75.1333 52.7026 74.8627 52.8892 74.508C53.0852 74.1533 53.1832 73.738 53.1832 73.262C53.1832 72.7767 53.0852 72.3613 52.8892 72.016C52.7026 71.6613 52.4412 71.3907 52.1052 71.204C51.7692 71.0173 51.3912 70.924 50.9712 70.924C50.5419 70.924 50.1592 71.0173 49.8232 71.204C49.4966 71.3907 49.2352 71.6613 49.0392 72.016C48.8432 72.3613 48.7452 72.7767 48.7452 73.262C48.7452 73.738 48.8432 74.1533 49.0392 74.508C49.2352 74.8627 49.4966 75.1333 49.8232 75.32C50.1592 75.5067 50.5372 75.6 50.9572 75.6ZM56.676 77V69.524H60.33C61.2353 69.524 61.9447 69.692 62.458 70.028C62.9807 70.364 63.242 70.84 63.242 71.456C63.242 72.0627 62.9993 72.5387 62.514 72.884C62.0287 73.22 61.3847 73.388 60.582 73.388L60.792 72.954C61.6973 72.954 62.3693 73.122 62.808 73.458C63.256 73.7847 63.48 74.2653 63.48 74.9C63.48 75.5627 63.2327 76.0807 62.738 76.454C62.2433 76.818 61.492 77 60.484 77H56.676ZM58.342 75.726H60.344C60.82 75.726 61.1793 75.6513 61.422 75.502C61.6647 75.3433 61.786 75.1053 61.786 74.788C61.786 74.452 61.674 74.2047 61.45 74.046C61.226 73.8873 60.876 73.808 60.4 73.808H58.342V75.726ZM58.342 72.646H60.176C60.624 72.646 60.96 72.5667 61.184 72.408C61.4173 72.24 61.534 72.0067 61.534 71.708C61.534 71.4 61.4173 71.1713 61.184 71.022C60.96 70.8727 60.624 70.798 60.176 70.798H58.342V72.646ZM69.88 77V75.488L69.782 75.166V72.52C69.782 72.0067 69.628 71.61 69.32 71.33C69.012 71.0407 68.5453 70.896 67.92 70.896C67.5 70.896 67.0846 70.9613 66.674 71.092C66.2726 71.2227 65.932 71.4047 65.652 71.638L64.966 70.364C65.3673 70.056 65.8433 69.8273 66.394 69.678C66.954 69.5193 67.5326 69.44 68.13 69.44C69.2126 69.44 70.048 69.7013 70.636 70.224C71.2333 70.7373 71.532 71.5353 71.532 72.618V77H69.88ZM67.528 77.098C66.968 77.098 66.478 77.0047 66.058 76.818C65.638 76.622 65.3113 76.356 65.078 76.02C64.854 75.6747 64.742 75.2873 64.742 74.858C64.742 74.438 64.84 74.06 65.036 73.724C65.2413 73.388 65.5726 73.122 66.03 72.926C66.4873 72.73 67.094 72.632 67.85 72.632H70.02V73.794H67.976C67.3786 73.794 66.9773 73.892 66.772 74.088C66.5666 74.2747 66.464 74.508 66.464 74.788C66.464 75.1053 66.59 75.3573 66.842 75.544C67.094 75.7307 67.444 75.824 67.892 75.824C68.3213 75.824 68.704 75.726 69.04 75.53C69.3853 75.334 69.6326 75.0447 69.782 74.662L70.076 75.712C69.908 76.1507 69.6046 76.4913 69.166 76.734C68.7366 76.9767 68.1906 77.098 67.528 77.098ZM75.2515 77V70.588L75.6575 71.008H72.6195V69.524H79.6195V71.008H76.5955L77.0015 70.588V77H75.2515ZM84.6409 71.988C85.6022 71.988 86.3349 72.2027 86.8389 72.632C87.3429 73.0613 87.5949 73.668 87.5949 74.452C87.5949 75.264 87.3149 75.8987 86.7549 76.356C86.1949 76.804 85.4062 77.0233 84.3889 77.014L80.8889 77V69.524H82.6389V71.974L84.6409 71.988ZM84.2349 75.726C84.7482 75.7353 85.1402 75.628 85.4109 75.404C85.6816 75.18 85.8169 74.8533 85.8169 74.424C85.8169 73.9947 85.6816 73.6867 85.4109 73.5C85.1496 73.304 84.7576 73.2013 84.2349 73.192L82.6389 73.178V75.712L84.2349 75.726Z" fill="white"/>
<path d="M31.6666 8.33331V51.6666H60V8.33331H31.6666ZM51.6666 11.6666H56.6666V23.3333H51.6666V11.6666ZM35 11.849H40V28.3333H35V11.849ZM43.3333 11.849H48.3333V28.3333H43.3333V11.849ZM54.1666 26.6666C55.5473 26.6666 56.6666 27.786 56.6666 29.1666C56.6666 30.5473 55.5473 31.6666 54.1666 31.6666C52.786 31.6666 51.6666 30.5473 51.6666 29.1666C51.6666 27.786 52.786 26.6666 54.1666 26.6666ZM43.3333 31.6666H48.2423L48.3333 48.3333H43.4243L43.3333 31.6666ZM35 32.22H40V48.3333H35V32.22ZM51.6666 35H56.6666V48.3333H51.6666V35Z" fill="white"/>
</svg>
