<svg width="90" height="93" viewBox="0 0 90 93" fill="none" xmlns="http://www.w3.org/2000/svg">
<path d="M14.3364 75V66.6H15.8724V72.564L20.3844 66.6H21.8364V75H20.3004V69.048L15.7884 75H14.3364ZM26.0516 75.108C25.5636 75.108 25.0796 75.052 24.5996 74.94C24.1276 74.82 23.6996 74.652 23.3156 74.436L23.7356 73.32C24.0476 73.496 24.3996 73.632 24.7916 73.728C25.1836 73.824 25.5756 73.872 25.9676 73.872C26.3036 73.872 26.5916 73.84 26.8316 73.776C27.0716 73.704 27.2556 73.6 27.3836 73.464C27.5196 73.328 27.5876 73.172 27.5876 72.996C27.5876 72.74 27.4756 72.548 27.2516 72.42C27.0356 72.284 26.7236 72.216 26.3156 72.216H25.0796V71.208H26.1956C26.4516 71.208 26.6676 71.18 26.8436 71.124C27.0276 71.068 27.1676 70.984 27.2636 70.872C27.3596 70.76 27.4076 70.628 27.4076 70.476C27.4076 70.324 27.3476 70.192 27.2276 70.08C27.1156 69.96 26.9516 69.872 26.7356 69.816C26.5196 69.752 26.2596 69.72 25.9556 69.72C25.6356 69.72 25.3036 69.76 24.9596 69.84C24.6236 69.92 24.2796 70.036 23.9276 70.188L23.5436 69.084C23.9516 68.9 24.3476 68.76 24.7316 68.664C25.1236 68.56 25.5116 68.504 25.8956 68.496C26.4796 68.472 26.9996 68.532 27.4556 68.676C27.9116 68.82 28.2716 69.028 28.5356 69.3C28.7996 69.572 28.9316 69.892 28.9316 70.26C28.9316 70.564 28.8356 70.84 28.6436 71.088C28.4596 71.328 28.2036 71.516 27.8756 71.652C27.5556 71.788 27.1876 71.856 26.7716 71.856L26.8196 71.532C27.5316 71.532 28.0916 71.676 28.4996 71.964C28.9076 72.244 29.1116 72.628 29.1116 73.116C29.1116 73.508 28.9796 73.856 28.7156 74.16C28.4516 74.456 28.0876 74.688 27.6236 74.856C27.1676 75.024 26.6436 75.108 26.0516 75.108ZM30.6564 75V68.592H32.2284L34.8084 73.14H34.1844L36.8964 68.592H38.3004L38.3124 75H36.9564V70.2L37.1964 70.356L34.7964 74.328H34.1484L31.7364 70.248L32.0244 70.176V75H30.6564ZM43.3124 75.084C42.6004 75.084 41.9764 74.944 41.4404 74.664C40.9124 74.376 40.5004 73.984 40.2044 73.488C39.9164 72.992 39.7724 72.428 39.7724 71.796C39.7724 71.156 39.9124 70.592 40.1924 70.104C40.4804 69.608 40.8724 69.22 41.3684 68.94C41.8724 68.66 42.4444 68.52 43.0844 68.52C43.7084 68.52 44.2644 68.656 44.7524 68.928C45.2404 69.2 45.6244 69.584 45.9044 70.08C46.1844 70.576 46.3244 71.16 46.3244 71.832C46.3244 71.896 46.3204 71.968 46.3124 72.048C46.3124 72.128 46.3084 72.204 46.3004 72.276H40.9604V71.28H45.5084L44.9204 71.592C44.9284 71.224 44.8524 70.9 44.6924 70.62C44.5324 70.34 44.3124 70.12 44.0324 69.96C43.7604 69.8 43.4444 69.72 43.0844 69.72C42.7164 69.72 42.3924 69.8 42.1124 69.96C41.8404 70.12 41.6244 70.344 41.4644 70.632C41.3124 70.912 41.2364 71.244 41.2364 71.628V71.868C41.2364 72.252 41.3244 72.592 41.5004 72.888C41.6764 73.184 41.9244 73.412 42.2444 73.572C42.5644 73.732 42.9324 73.812 43.3484 73.812C43.7084 73.812 44.0324 73.756 44.3204 73.644C44.6084 73.532 44.8644 73.356 45.0884 73.116L45.8924 74.04C45.6044 74.376 45.2404 74.636 44.8004 74.82C44.3684 74.996 43.8724 75.084 43.3124 75.084ZM47.965 75V68.592H49.465V71.196H52.693V68.592H54.193V75H52.693V72.468H49.465V75H47.965ZM56.2033 75V68.592H57.7033V72.816L61.2433 68.592H62.6113V75H61.1113V70.776L57.5833 75H56.2033ZM65.9611 75V69.504L66.3091 69.864H63.7051V68.592H69.7051V69.864H67.1131L67.4611 69.504V75H65.9611ZM74.0092 70.704C74.8332 70.704 75.4612 70.888 75.8932 71.256C76.3252 71.624 76.5412 72.144 76.5412 72.816C76.5412 73.512 76.3012 74.056 75.8212 74.448C75.3412 74.832 74.6652 75.02 73.7932 75.012L70.7932 75V68.592H72.2932V70.692L74.0092 70.704ZM73.6612 73.908C74.1012 73.916 74.4372 73.824 74.6692 73.632C74.9012 73.44 75.0172 73.16 75.0172 72.792C75.0172 72.424 74.9012 72.16 74.6692 72C74.4452 71.832 74.1092 71.744 73.6612 71.736L72.2932 71.724V73.896L73.6612 73.908ZM33.7013 90.084C33.0293 90.084 32.4293 89.944 31.9013 89.664C31.3813 89.376 30.9733 88.984 30.6773 88.488C30.3813 87.992 30.2333 87.428 30.2333 86.796C30.2333 86.156 30.3813 85.592 30.6773 85.104C30.9733 84.608 31.3813 84.22 31.9013 83.94C32.4293 83.66 33.0293 83.52 33.7013 83.52C34.3253 83.52 34.8733 83.648 35.3453 83.904C35.8253 84.152 36.1893 84.52 36.4373 85.008L35.2853 85.68C35.0933 85.376 34.8573 85.152 34.5773 85.008C34.3053 84.864 34.0093 84.792 33.6893 84.792C33.3213 84.792 32.9893 84.872 32.6933 85.032C32.3973 85.192 32.1653 85.424 31.9973 85.728C31.8293 86.024 31.7453 86.38 31.7453 86.796C31.7453 87.212 31.8293 87.572 31.9973 87.876C32.1653 88.172 32.3973 88.4 32.6933 88.56C32.9893 88.72 33.3213 88.8 33.6893 88.8C34.0093 88.8 34.3053 88.728 34.5773 88.584C34.8573 88.44 35.0933 88.216 35.2853 87.912L36.4373 88.584C36.1893 89.064 35.8253 89.436 35.3453 89.7C34.8733 89.956 34.3253 90.084 33.7013 90.084ZM41.31 90.084C40.79 90.084 40.314 89.964 39.882 89.724C39.458 89.484 39.118 89.124 38.862 88.644C38.614 88.156 38.49 87.54 38.49 86.796C38.49 86.044 38.61 85.428 38.85 84.948C39.098 84.468 39.434 84.112 39.858 83.88C40.282 83.64 40.766 83.52 41.31 83.52C41.942 83.52 42.498 83.656 42.978 83.928C43.466 84.2 43.85 84.58 44.13 85.068C44.418 85.556 44.562 86.132 44.562 86.796C44.562 87.46 44.418 88.04 44.13 88.536C43.85 89.024 43.466 89.404 42.978 89.676C42.498 89.948 41.942 90.084 41.31 90.084ZM37.758 92.328V83.592H39.186V85.104L39.138 86.808L39.258 88.512V92.328H37.758ZM41.142 88.8C41.502 88.8 41.822 88.72 42.102 88.56C42.39 88.4 42.618 88.168 42.786 87.864C42.954 87.56 43.038 87.204 43.038 86.796C43.038 86.38 42.954 86.024 42.786 85.728C42.618 85.424 42.39 85.192 42.102 85.032C41.822 84.872 41.502 84.792 41.142 84.792C40.782 84.792 40.458 84.872 40.17 85.032C39.882 85.192 39.654 85.424 39.486 85.728C39.318 86.024 39.234 86.38 39.234 86.796C39.234 87.204 39.318 87.56 39.486 87.864C39.654 88.168 39.882 88.4 40.17 88.56C40.458 88.72 40.782 88.8 41.142 88.8ZM48.9109 90.084C48.2549 90.084 47.6709 89.944 47.1589 89.664C46.6469 89.376 46.2429 88.984 45.9469 88.488C45.6509 87.992 45.5029 87.428 45.5029 86.796C45.5029 86.156 45.6509 85.592 45.9469 85.104C46.2429 84.608 46.6469 84.22 47.1589 83.94C47.6709 83.66 48.2549 83.52 48.9109 83.52C49.5749 83.52 50.1629 83.66 50.6749 83.94C51.1949 84.22 51.5989 84.604 51.8869 85.092C52.1829 85.58 52.3309 86.148 52.3309 86.796C52.3309 87.428 52.1829 87.992 51.8869 88.488C51.5989 88.984 51.1949 89.376 50.6749 89.664C50.1629 89.944 49.5749 90.084 48.9109 90.084ZM48.9109 88.8C49.2789 88.8 49.6069 88.72 49.8949 88.56C50.1829 88.4 50.4069 88.168 50.5669 87.864C50.7349 87.56 50.8189 87.204 50.8189 86.796C50.8189 86.38 50.7349 86.024 50.5669 85.728C50.4069 85.424 50.1829 85.192 49.8949 85.032C49.6069 84.872 49.2829 84.792 48.9229 84.792C48.5549 84.792 48.2269 84.872 47.9389 85.032C47.6589 85.192 47.4349 85.424 47.2669 85.728C47.0989 86.024 47.0149 86.38 47.0149 86.796C47.0149 87.204 47.0989 87.56 47.2669 87.864C47.4349 88.168 47.6589 88.4 47.9389 88.56C48.2269 88.72 48.5509 88.8 48.9109 88.8ZM58.4087 90L56.0927 86.928L57.3167 86.172L60.1727 90H58.4087ZM53.8127 90V83.592H55.3127V90H53.8127ZM54.8687 87.432V86.184H57.0407V87.432H54.8687ZM57.4607 86.976L56.0567 86.808L58.4087 83.592H60.0167L57.4607 86.976Z" fill="white"/>
<path d="M17.6666 7.33337V50.6667H46V7.33337H17.6666ZM37.6666 10.6667H42.6666V22.3334H37.6666V10.6667ZM21 10.849H26V27.3334H21V10.849ZM29.3333 10.849H34.3333V27.3334H29.3333V10.849ZM40.1666 25.6667C41.5473 25.6667 42.6666 26.786 42.6666 28.1667C42.6666 29.5474 41.5473 30.6667 40.1666 30.6667C38.786 30.6667 37.6666 29.5474 37.6666 28.1667C37.6666 26.786 38.786 25.6667 40.1666 25.6667ZM29.3333 30.6667H34.2423L34.3333 47.3334H29.4243L29.3333 30.6667ZM21 31.22H26V47.3334H21V31.22ZM37.6666 34H42.6666V47.3334H37.6666V34Z" fill="white"/>
<g clip-path="url(#clip0_1552_293)">
<path d="M63.5 40C57.7014 40 53 44.7014 53 50.5C53 56.2986 57.7014 61 63.5 61C69.2986 61 74 56.2986 74 50.5C74 44.7014 69.2986 40 63.5 40ZM67.0582 54.0582C66.5443 54.572 65.6906 54.5464 65.1767 54.0326L62.5734 51.4293C62.4516 51.3088 62.3555 51.1628 62.2889 51.001C62.222 50.8409 62.1875 50.6716 62.1875 50.5V45.25C62.1875 44.5245 62.7745 43.9375 63.5 43.9375C64.2255 43.9375 64.8125 44.5245 64.8125 45.25V49.9566L67.0631 52.2072C67.5773 52.7214 67.5707 53.5453 67.0582 54.0582Z" fill="white"/>
</g>
<defs>
<clipPath id="clip0_1552_293">
<rect width="21" height="21" fill="white" transform="translate(53 40)"/>
</clipPath>
</defs>
</svg>
