<svg width="90" height="90" viewBox="0 0 90 90" fill="none" xmlns="http://www.w3.org/2000/svg">
<path d="M27.1251 75.9167C29.3709 75.9167 31.2084 74.0792 31.2084 71.8333V57.5417C31.2084 55.2958 29.3709 53.4583 27.1251 53.4583C24.8792 53.4583 23.0417 55.2958 23.0417 57.5417V71.8333C23.0417 74.0792 24.8792 75.9167 27.1251 75.9167ZM44.2138 64.5446L47.2151 65.5858C47.4397 65.6675 47.6642 65.7083 47.8888 65.7083H61.8334C64.0997 65.7083 65.9167 67.5254 65.9372 69.7917L50.8492 75.4471C50.0326 75.7533 49.1342 75.7942 48.2972 75.5492L35.2917 71.8742V53.4583H38.5584C39.0484 53.4583 39.5384 53.54 39.9876 53.7237L54.1363 59.0117C54.6666 59.2087 55.1108 59.5857 55.3914 60.0769C55.672 60.5681 55.771 61.1423 55.6714 61.6991C55.5717 62.256 55.2795 62.7601 54.8459 63.1234C54.4124 63.4868 53.8649 63.6863 53.2992 63.6871H47.9297C47.6847 63.6871 47.4397 63.6462 47.1947 63.5442L44.908 62.6662C44.3772 62.4621 43.7851 62.7479 43.6013 63.2787C43.4176 63.7892 43.683 64.3608 44.2138 64.5446V64.5446ZM62.1601 43.0458L51.9517 35.7571C50.5226 34.7362 48.6238 34.7362 47.2151 35.7571L37.0067 43.0458C35.9247 43.8217 35.2917 45.0467 35.2917 46.3737V49.375H38.5788C39.0892 49.375 39.6201 49.4771 40.0897 49.6608L55.9942 56.0104C58.2809 56.9496 59.7917 59.1546 59.7917 61.625H63.8751V46.3737C63.8751 45.0467 63.2422 43.8217 62.1601 43.0458ZM47.5417 51.4167C46.9701 51.4167 46.5209 50.9675 46.5209 50.3958C46.5209 49.8242 46.9701 49.375 47.5417 49.375C48.1134 49.375 48.5626 49.8242 48.5626 50.3958C48.5626 50.9675 48.1134 51.4167 47.5417 51.4167ZM47.5417 47.3333C46.9701 47.3333 46.5209 46.8842 46.5209 46.3125C46.5209 45.7408 46.9701 45.2917 47.5417 45.2917C48.1134 45.2917 48.5626 45.7408 48.5626 46.3125C48.5626 46.8842 48.1134 47.3333 47.5417 47.3333ZM51.6251 51.4167C51.0534 51.4167 50.6042 50.9675 50.6042 50.3958C50.6042 49.8242 51.0534 49.375 51.6251 49.375C52.1967 49.375 52.6459 49.8242 52.6459 50.3958C52.6459 50.9675 52.1967 51.4167 51.6251 51.4167ZM51.6251 47.3333C51.0534 47.3333 50.6042 46.8842 50.6042 46.3125C50.6042 45.7408 51.0534 45.2917 51.6251 45.2917C52.1967 45.2917 52.6459 45.7408 52.6459 46.3125C52.6459 46.8842 52.1967 47.3333 51.6251 47.3333Z" fill="white"/>
<path d="M3.21705 24V14.2H5.00905V21.158L10.2731 14.2H11.9671V24H10.1751V17.056L4.91105 24H3.21705ZM14.5188 24V16.524H16.3528L19.3628 21.83H18.6348L21.7988 16.524H23.4368L23.4508 24H21.8688V18.4L22.1488 18.582L19.3488 23.216H18.5928L15.7788 18.456L16.1148 18.372V24H14.5188ZM26.4701 26.814C26.1061 26.814 25.7421 26.7533 25.3781 26.632C25.0141 26.5107 24.7107 26.3427 24.4681 26.128L25.1681 24.84C25.3454 24.9987 25.5461 25.1247 25.7701 25.218C25.9941 25.3113 26.2227 25.358 26.4561 25.358C26.7734 25.358 27.0301 25.2787 27.2261 25.12C27.4221 24.9613 27.6041 24.6953 27.7721 24.322L28.2061 23.342L28.3461 23.132L31.1741 16.524H32.8541L29.3541 24.602C29.1207 25.162 28.8594 25.6053 28.5701 25.932C28.2901 26.2587 27.9727 26.4873 27.6181 26.618C27.2727 26.7487 26.8901 26.814 26.4701 26.814ZM28.0101 24.266L24.6361 16.524H26.4561L29.2001 22.978L28.0101 24.266ZM39.0956 22.516L38.7176 22.936V16.524H40.4676V22.936L40.0476 22.516H43.7436L43.3376 22.936V16.524H45.0876V24H34.0696V16.524H35.8196V22.936L35.4136 22.516H39.0956ZM44.5276 25.54V23.566L44.9336 24H43.2816V22.516H46.1656V25.54H44.5276ZM50.9266 24.098C50.096 24.098 49.368 23.9347 48.7426 23.608C48.1266 23.272 47.646 22.8147 47.3006 22.236C46.9646 21.6573 46.7966 20.9993 46.7966 20.262C46.7966 19.5153 46.96 18.8573 47.2866 18.288C47.6226 17.7093 48.08 17.2567 48.6586 16.93C49.2466 16.6033 49.914 16.44 50.6606 16.44C51.3886 16.44 52.0373 16.5987 52.6066 16.916C53.176 17.2333 53.624 17.6813 53.9506 18.26C54.2773 18.8387 54.4406 19.52 54.4406 20.304C54.4406 20.3787 54.436 20.4627 54.4266 20.556C54.4266 20.6493 54.422 20.738 54.4126 20.822H48.1826V19.66H53.4886L52.8026 20.024C52.812 19.5947 52.7233 19.2167 52.5366 18.89C52.35 18.5633 52.0933 18.3067 51.7666 18.12C51.4493 17.9333 51.0806 17.84 50.6606 17.84C50.2313 17.84 49.8533 17.9333 49.5266 18.12C49.2093 18.3067 48.9573 18.568 48.7706 18.904C48.5933 19.2307 48.5046 19.618 48.5046 20.066V20.346C48.5046 20.794 48.6073 21.1907 48.8126 21.536C49.018 21.8813 49.3073 22.1473 49.6806 22.334C50.054 22.5207 50.4833 22.614 50.9686 22.614C51.3886 22.614 51.7666 22.5487 52.1026 22.418C52.4386 22.2873 52.7373 22.082 52.9986 21.802L53.9366 22.88C53.6006 23.272 53.176 23.5753 52.6626 23.79C52.1586 23.9953 51.58 24.098 50.9266 24.098ZM59.7567 24.098C58.9727 24.098 58.2727 23.9347 57.6567 23.608C57.05 23.272 56.574 22.8147 56.2287 22.236C55.8834 21.6573 55.7107 20.9993 55.7107 20.262C55.7107 19.5153 55.8834 18.8573 56.2287 18.288C56.574 17.7093 57.05 17.2567 57.6567 16.93C58.2727 16.6033 58.9727 16.44 59.7567 16.44C60.4847 16.44 61.124 16.5893 61.6747 16.888C62.2347 17.1773 62.6594 17.6067 62.9487 18.176L61.6047 18.96C61.3807 18.6053 61.1054 18.344 60.7787 18.176C60.4614 18.008 60.116 17.924 59.7427 17.924C59.3134 17.924 58.926 18.0173 58.5807 18.204C58.2354 18.3907 57.9647 18.6613 57.7687 19.016C57.5727 19.3613 57.4747 19.7767 57.4747 20.262C57.4747 20.7473 57.5727 21.1673 57.7687 21.522C57.9647 21.8673 58.2354 22.1333 58.5807 22.32C58.926 22.5067 59.3134 22.6 59.7427 22.6C60.116 22.6 60.4614 22.516 60.7787 22.348C61.1054 22.18 61.3807 21.9187 61.6047 21.564L62.9487 22.348C62.6594 22.908 62.2347 23.342 61.6747 23.65C61.124 23.9487 60.4847 24.098 59.7567 24.098ZM65.9888 24V17.588L66.3948 18.008H63.3568V16.524H70.3568V18.008H67.3328L67.7388 17.588V24H65.9888ZM71.6262 24V16.524H75.2802C76.1855 16.524 76.8949 16.692 77.4082 17.028C77.9309 17.364 78.1922 17.84 78.1922 18.456C78.1922 19.0627 77.9495 19.5387 77.4642 19.884C76.9789 20.22 76.3349 20.388 75.5322 20.388L75.7422 19.954C76.6475 19.954 77.3195 20.122 77.7582 20.458C78.2062 20.7847 78.4302 21.2653 78.4302 21.9C78.4302 22.5627 78.1829 23.0807 77.6882 23.454C77.1935 23.818 76.4422 24 75.4342 24H71.6262ZM73.2922 22.726H75.2942C75.7702 22.726 76.1295 22.6513 76.3722 22.502C76.6149 22.3433 76.7362 22.1053 76.7362 21.788C76.7362 21.452 76.6242 21.2047 76.4002 21.046C76.1762 20.8873 75.8262 20.808 75.3502 20.808H73.2922V22.726ZM73.2922 19.646H75.1262C75.5742 19.646 75.9102 19.5667 76.1342 19.408C76.3675 19.24 76.4842 19.0067 76.4842 18.708C76.4842 18.4 76.3675 18.1713 76.1342 18.022C75.9102 17.8727 75.5742 17.798 75.1262 17.798H73.2922V19.646ZM83.6262 24.098C82.8608 24.098 82.1795 23.9347 81.5822 23.608C80.9848 23.272 80.5135 22.8147 80.1682 22.236C79.8228 21.6573 79.6502 20.9993 79.6502 20.262C79.6502 19.5153 79.8228 18.8573 80.1682 18.288C80.5135 17.7093 80.9848 17.2567 81.5822 16.93C82.1795 16.6033 82.8608 16.44 83.6262 16.44C84.4008 16.44 85.0868 16.6033 85.6842 16.93C86.2908 17.2567 86.7622 17.7047 87.0982 18.274C87.4435 18.8433 87.6162 19.506 87.6162 20.262C87.6162 20.9993 87.4435 21.6573 87.0982 22.236C86.7622 22.8147 86.2908 23.272 85.6842 23.608C85.0868 23.9347 84.4008 24.098 83.6262 24.098ZM83.6262 22.6C84.0555 22.6 84.4382 22.5067 84.7742 22.32C85.1102 22.1333 85.3715 21.8627 85.5582 21.508C85.7542 21.1533 85.8522 20.738 85.8522 20.262C85.8522 19.7767 85.7542 19.3613 85.5582 19.016C85.3715 18.6613 85.1102 18.3907 84.7742 18.204C84.4382 18.0173 84.0602 17.924 83.6402 17.924C83.2108 17.924 82.8282 18.0173 82.4922 18.204C82.1655 18.3907 81.9042 18.6613 81.7082 19.016C81.5122 19.3613 81.4142 19.7767 81.4142 20.262C81.4142 20.738 81.5122 21.1533 81.7082 21.508C81.9042 21.8627 82.1655 22.1333 82.4922 22.32C82.8282 22.5067 83.2062 22.6 83.6262 22.6Z" fill="white"/>
</svg>