<svg width="90" height="90" viewBox="0 0 90 90" fill="none" xmlns="http://www.w3.org/2000/svg">
<path d="M18.923 65.14C18.1576 65.14 17.453 65.014 16.809 64.762C16.165 64.51 15.605 64.16 15.129 63.712C14.653 63.2547 14.2843 62.7227 14.023 62.116C13.7616 61.5 13.631 60.828 13.631 60.1C13.631 59.372 13.7616 58.7047 14.023 58.098C14.2843 57.482 14.653 56.95 15.129 56.502C15.605 56.0447 16.165 55.69 16.809 55.438C17.453 55.186 18.153 55.06 18.909 55.06C19.6743 55.06 20.3743 55.186 21.009 55.438C21.653 55.69 22.213 56.0447 22.689 56.502C23.165 56.95 23.5336 57.482 23.795 58.098C24.0563 58.7047 24.187 59.372 24.187 60.1C24.187 60.828 24.0563 61.5 23.795 62.116C23.5336 62.732 23.165 63.264 22.689 63.712C22.213 64.16 21.653 64.51 21.009 64.762C20.3743 65.014 19.679 65.14 18.923 65.14ZM18.909 63.544C19.4036 63.544 19.861 63.46 20.281 63.292C20.701 63.124 21.065 62.886 21.373 62.578C21.681 62.2607 21.919 61.8967 22.087 61.486C22.2643 61.066 22.353 60.604 22.353 60.1C22.353 59.596 22.2643 59.1387 22.087 58.728C21.919 58.308 21.681 57.944 21.373 57.636C21.065 57.3187 20.701 57.076 20.281 56.908C19.861 56.74 19.4036 56.656 18.909 56.656C18.4143 56.656 17.957 56.74 17.537 56.908C17.1263 57.076 16.7623 57.3187 16.445 57.636C16.137 57.944 15.8943 58.308 15.717 58.728C15.549 59.1387 15.465 59.596 15.465 60.1C15.465 60.5947 15.549 61.052 15.717 61.472C15.8943 61.892 16.137 62.2607 16.445 62.578C16.753 62.886 17.117 63.124 17.537 63.292C17.957 63.46 18.4143 63.544 18.909 63.544ZM31.3651 65L28.6631 61.416L30.0911 60.534L33.4231 65H31.3651ZM26.0031 65V57.524H27.7531V65H26.0031ZM27.2351 62.004V60.548H29.7691V62.004H27.2351ZM30.2591 61.472L28.6211 61.276L31.3651 57.524H33.2411L30.2591 61.472ZM39.0567 65V63.488L38.9587 63.166V60.52C38.9587 60.0067 38.8047 59.61 38.4967 59.33C38.1887 59.0407 37.7221 58.896 37.0967 58.896C36.6767 58.896 36.2614 58.9613 35.8507 59.092C35.4494 59.2227 35.1087 59.4047 34.8287 59.638L34.1427 58.364C34.5441 58.056 35.0201 57.8273 35.5707 57.678C36.1307 57.5193 36.7094 57.44 37.3067 57.44C38.3894 57.44 39.2247 57.7013 39.8127 58.224C40.4101 58.7373 40.7087 59.5353 40.7087 60.618V65H39.0567ZM36.7047 65.098C36.1447 65.098 35.6547 65.0047 35.2347 64.818C34.8147 64.622 34.4881 64.356 34.2547 64.02C34.0307 63.6747 33.9187 63.2873 33.9187 62.858C33.9187 62.438 34.0167 62.06 34.2127 61.724C34.4181 61.388 34.7494 61.122 35.2067 60.926C35.6641 60.73 36.2707 60.632 37.0267 60.632H39.1967V61.794H37.1527C36.5554 61.794 36.1541 61.892 35.9487 62.088C35.7434 62.2747 35.6407 62.508 35.6407 62.788C35.6407 63.1053 35.7667 63.3573 36.0187 63.544C36.2707 63.7307 36.6207 63.824 37.0687 63.824C37.4981 63.824 37.8807 63.726 38.2167 63.53C38.5621 63.334 38.8094 63.0447 38.9587 62.662L39.2527 63.712C39.0847 64.1507 38.7814 64.4913 38.3427 64.734C37.9134 64.9767 37.3674 65.098 36.7047 65.098ZM45.1445 65.126C45.8352 65.126 46.4465 65.028 46.9785 64.832C47.5199 64.636 47.9445 64.3653 48.2525 64.02C48.5605 63.6653 48.7145 63.2593 48.7145 62.802C48.7145 62.2327 48.4765 61.7847 48.0005 61.458C47.5245 61.122 46.8712 60.954 46.0405 60.954L45.9845 61.332C46.4699 61.332 46.8992 61.2527 47.2725 61.094C47.6552 60.9353 47.9539 60.716 48.1685 60.436C48.3925 60.1467 48.5045 59.8247 48.5045 59.47C48.5045 59.0407 48.3505 58.6673 48.0425 58.35C47.7345 58.0327 47.3145 57.79 46.7825 57.622C46.2505 57.454 45.6439 57.384 44.9625 57.412C44.5145 57.4213 44.0619 57.4867 43.6045 57.608C43.1565 57.72 42.6945 57.8833 42.2185 58.098L42.6665 59.386C43.0772 59.2087 43.4785 59.0733 43.8705 58.98C44.2719 58.8867 44.6592 58.84 45.0325 58.84C45.3872 58.84 45.6905 58.8773 45.9425 58.952C46.1945 59.0173 46.3859 59.12 46.5165 59.26C46.6565 59.3907 46.7265 59.5447 46.7265 59.722C46.7265 59.8993 46.6705 60.0533 46.5585 60.184C46.4465 60.3147 46.2832 60.4127 46.0685 60.478C45.8632 60.5433 45.6112 60.576 45.3125 60.576H44.0105V61.752H45.4525C45.9285 61.752 46.2925 61.8313 46.5445 61.99C46.8059 62.1393 46.9365 62.3633 46.9365 62.662C46.9365 62.8673 46.8572 63.0493 46.6985 63.208C46.5492 63.3667 46.3345 63.488 46.0545 63.572C45.7745 63.6467 45.4385 63.684 45.0465 63.684C44.5892 63.684 44.1319 63.628 43.6745 63.516C43.2172 63.404 42.8065 63.2453 42.4425 63.04L41.9525 64.342C42.4005 64.594 42.8999 64.79 43.4505 64.93C44.0105 65.0607 44.5752 65.126 45.1445 65.126ZM55.0528 65V63.488L54.9548 63.166V60.52C54.9548 60.0067 54.8008 59.61 54.4928 59.33C54.1848 59.0407 53.7182 58.896 53.0928 58.896C52.6728 58.896 52.2575 58.9613 51.8468 59.092C51.4455 59.2227 51.1048 59.4047 50.8248 59.638L50.1388 58.364C50.5402 58.056 51.0162 57.8273 51.5668 57.678C52.1268 57.5193 52.7055 57.44 53.3028 57.44C54.3855 57.44 55.2208 57.7013 55.8088 58.224C56.4062 58.7373 56.7048 59.5353 56.7048 60.618V65H55.0528ZM52.7008 65.098C52.1408 65.098 51.6508 65.0047 51.2308 64.818C50.8108 64.622 50.4842 64.356 50.2508 64.02C50.0268 63.6747 49.9148 63.2873 49.9148 62.858C49.9148 62.438 50.0128 62.06 50.2088 61.724C50.4142 61.388 50.7455 61.122 51.2028 60.926C51.6602 60.73 52.2668 60.632 53.0228 60.632H55.1928V61.794H53.1488C52.5515 61.794 52.1502 61.892 51.9448 62.088C51.7395 62.2747 51.6368 62.508 51.6368 62.788C51.6368 63.1053 51.7628 63.3573 52.0148 63.544C52.2668 63.7307 52.6168 63.824 53.0648 63.824C53.4942 63.824 53.8768 63.726 54.2128 63.53C54.5582 63.334 54.8055 63.0447 54.9548 62.662L55.2488 63.712C55.0808 64.1507 54.7775 64.4913 54.3388 64.734C53.9095 64.9767 53.3635 65.098 52.7008 65.098ZM60.4243 65V58.588L60.8303 59.008H57.7923V57.524H64.7923V59.008H61.7683L62.1743 58.588V65H60.4243ZM69.8137 59.988C70.7751 59.988 71.5077 60.2027 72.0117 60.632C72.5157 61.0613 72.7677 61.668 72.7677 62.452C72.7677 63.264 72.4877 63.8987 71.9277 64.356C71.3677 64.804 70.5791 65.0233 69.5617 65.014L66.0617 65V57.524H67.8117V59.974L69.8137 59.988ZM69.4077 63.726C69.9211 63.7353 70.3131 63.628 70.5837 63.404C70.8544 63.18 70.9897 62.8533 70.9897 62.424C70.9897 61.9947 70.8544 61.6867 70.5837 61.5C70.3224 61.304 69.9304 61.2013 69.4077 61.192L67.8117 61.178V63.712L69.4077 63.726ZM28.2024 82V72.2H36.8684V82H35.0764V73.292L35.4964 73.74H29.5744L29.9944 73.292V82H28.2024ZM39.6458 82V72.2H41.1298L45.4278 79.354H44.6298L48.8578 72.2H50.3418L50.3698 82H48.6338L48.6198 74.902H48.9838L45.3998 80.88H44.5878L40.9478 74.902H41.3678V82H39.6458ZM53.1262 82V72.2H61.7922V82H60.0002V73.292L60.4202 73.74H54.4982L54.9182 73.292V82H53.1262Z" fill="white"/>
<path d="M66.4688 32.625C65.2866 32.6264 64.1339 32.9395 63.1688 33.5214C62.2036 34.1032 61.4732 34.9253 61.0776 35.875H56.4049L53.0273 27.2361C52.8985 26.9069 52.6495 26.6215 52.3167 26.4217C51.9839 26.2219 51.5848 26.1182 51.1779 26.1257C50.7709 26.1332 50.3774 26.2515 50.0551 26.4634C49.7327 26.6752 49.4984 26.9695 49.3864 27.3031L44.0834 43.1225L37.8488 11.2318C37.7765 10.8636 37.5577 10.5279 37.2291 10.281C36.9006 10.0342 36.4824 9.89131 36.0448 9.87642C35.6072 9.86152 35.1769 9.97552 34.8263 10.1992C34.4757 10.423 34.2262 10.7428 34.1197 11.1049L26.8557 35.875H20.7188C20.2132 35.875 19.7283 36.0462 19.3708 36.3509C19.0133 36.6557 18.8125 37.069 18.8125 37.5C18.8125 37.931 19.0133 38.3443 19.3708 38.649C19.7283 38.9538 20.2132 39.125 20.7188 39.125H28.3438C28.7688 39.1249 29.1817 39.0037 29.5167 38.7807C29.8518 38.5577 30.0897 38.2456 30.1928 37.894L35.5946 19.4736L41.7137 50.7671C41.7842 51.1315 41.9982 51.4645 42.3205 51.7113C42.6427 51.9582 43.054 52.104 43.4865 52.125C43.5223 52.125 43.558 52.125 43.5949 52.125C44.0088 52.1247 44.4114 52.0096 44.7417 51.797C45.0721 51.5845 45.3123 51.2861 45.4261 50.9468L51.3593 33.2465L53.2227 38.0139C53.3492 38.3374 53.592 38.6189 53.9166 38.8183C54.2412 39.0177 54.6311 39.125 55.0313 39.125H61.0776C61.4271 39.9676 62.0416 40.7122 62.854 41.2772C63.6663 41.8422 64.6453 42.206 65.6838 42.3288C66.7223 42.4515 67.7804 42.3286 68.7425 41.9733C69.7046 41.618 70.5336 41.0441 71.1388 40.3144C71.7441 39.5846 72.1024 38.727 72.1745 37.8353C72.2467 36.9437 72.0298 36.0523 71.5478 35.2586C71.0658 34.4649 70.337 33.7994 69.4413 33.335C68.5455 32.8705 67.5172 32.6249 66.4688 32.625Z" fill="white"/>
</svg>
