<svg width="90" height="90" viewBox="0 0 90 90" fill="none" xmlns="http://www.w3.org/2000/svg">
<path d="M50.5772 46.3861C51.3508 46.9244 52.2561 47.2089 53.1954 47.2089C54.6995 47.2089 56.1097 46.4727 56.9676 45.2396C58.4134 43.1617 57.8992 40.295 55.8212 38.8491C55.0475 38.3109 54.1421 38.0264 53.2028 38.0264C51.6988 38.0264 50.2886 38.7625 49.4306 39.9956C48.7302 41.0023 48.4638 42.2213 48.6803 43.4284C48.8969 44.6355 49.5706 45.6859 50.5772 46.3861Z" fill="white"/>
<path d="M64.801 35.1194H59.709C59.0479 35.1194 58.51 35.6572 58.51 36.3184V49.9657L51.1118 49.0599C50.8512 47.9865 50.2164 47.0563 49.3029 46.4207C47.2569 44.9971 44.4344 45.5035 43.011 47.5494L36.1526 57.4069C35.4835 58.3684 35.2181 59.527 35.3976 60.6805L25.8833 70.195C24.7055 71.3728 24.7056 73.2895 25.8835 74.4674C26.4725 75.0564 27.2461 75.3507 28.0199 75.3507C28.7935 75.3507 29.5671 75.0563 30.156 74.4673L40.1193 64.5041C40.8238 64.4637 41.5219 64.2573 42.1559 63.8834L45.4826 65.5525L42.3435 71.8093C42.0084 72.4772 41.9535 73.2354 42.1887 73.9444C42.424 74.6533 42.9213 75.2282 43.5892 75.5633C43.9826 75.7605 44.4038 75.8605 44.8411 75.8605C45.9067 75.8605 46.8653 75.2694 47.3427 74.3177L51.7313 65.5704L51.7319 65.5694C51.7333 65.5667 51.7347 65.5641 51.736 65.5614C51.9052 65.2241 52.0034 64.8634 52.0277 64.4893C52.1008 63.3653 51.4973 62.3123 50.4902 61.807C50.4881 61.8059 50.4859 61.8049 50.4838 61.8039L45.7566 59.4322L49.8864 53.4965L58.5099 54.5525V74.6815C58.5099 75.3426 59.0478 75.8805 59.7089 75.8805H64.8009C65.4621 75.8805 65.9999 75.3427 65.9999 74.6815V36.3184C66 35.6573 65.4621 35.1194 64.801 35.1194Z" fill="white"/>
<path d="M19.2679 24V15.292L19.7019 15.74H16.0339V14.2H24.3219V15.74H20.6539L21.0739 15.292V24H19.2679ZM28.2619 24.098C27.4966 24.098 26.8152 23.9347 26.2179 23.608C25.6206 23.272 25.1492 22.8147 24.8039 22.236C24.4586 21.6573 24.2859 20.9993 24.2859 20.262C24.2859 19.5153 24.4586 18.8573 24.8039 18.288C25.1492 17.7093 25.6206 17.2567 26.2179 16.93C26.8152 16.6033 27.4966 16.44 28.2619 16.44C29.0366 16.44 29.7226 16.6033 30.3199 16.93C30.9266 17.2567 31.3979 17.7047 31.7339 18.274C32.0792 18.8433 32.2519 19.506 32.2519 20.262C32.2519 20.9993 32.0792 21.6573 31.7339 22.236C31.3979 22.8147 30.9266 23.272 30.3199 23.608C29.7226 23.9347 29.0366 24.098 28.2619 24.098ZM28.2619 22.6C28.6912 22.6 29.0739 22.5067 29.4099 22.32C29.7459 22.1333 30.0072 21.8627 30.1939 21.508C30.3899 21.1533 30.4879 20.738 30.4879 20.262C30.4879 19.7767 30.3899 19.3613 30.1939 19.016C30.0072 18.6613 29.7459 18.3907 29.4099 18.204C29.0739 18.0173 28.6959 17.924 28.2759 17.924C27.8466 17.924 27.4639 18.0173 27.1279 18.204C26.8012 18.3907 26.5399 18.6613 26.3439 19.016C26.1479 19.3613 26.0499 19.7767 26.0499 20.262C26.0499 20.738 26.1479 21.1533 26.3439 21.508C26.5399 21.8627 26.8012 22.1333 27.1279 22.32C27.4639 22.5067 27.8419 22.6 28.2619 22.6ZM32.8067 23.986L32.8907 22.516C32.956 22.5253 33.0167 22.5347 33.0727 22.544C33.1287 22.5533 33.18 22.558 33.2267 22.558C33.516 22.558 33.74 22.4693 33.8987 22.292C34.0573 22.1147 34.174 21.8767 34.2487 21.578C34.3327 21.27 34.3887 20.9293 34.4167 20.556C34.454 20.1733 34.482 19.7907 34.5007 19.408L34.6267 16.524H40.6747V24H38.9247V17.532L39.3307 18.008H35.7747L36.1527 17.518L36.0547 19.492C36.0267 20.1547 35.9707 20.7707 35.8867 21.34C35.812 21.9 35.6907 22.39 35.5227 22.81C35.364 23.23 35.14 23.5567 34.8507 23.79C34.5707 24.0233 34.2113 24.14 33.7727 24.14C33.6327 24.14 33.4787 24.126 33.3107 24.098C33.152 24.07 32.984 24.0327 32.8067 23.986ZM48.3935 24L45.6915 20.416L47.1195 19.534L50.4515 24H48.3935ZM43.0315 24V16.524H44.7815V24H43.0315ZM44.2635 21.004V19.548H46.7975V21.004H44.2635ZM47.2875 20.472L45.6495 20.276L48.3935 16.524H50.2695L47.2875 20.472ZM56.085 24V22.488L55.987 22.166V19.52C55.987 19.0067 55.833 18.61 55.525 18.33C55.217 18.0407 54.7504 17.896 54.125 17.896C53.705 17.896 53.2897 17.9613 52.879 18.092C52.4777 18.2227 52.137 18.4047 51.857 18.638L51.171 17.364C51.5724 17.056 52.0484 16.8273 52.599 16.678C53.159 16.5193 53.7377 16.44 54.335 16.44C55.4177 16.44 56.253 16.7013 56.841 17.224C57.4384 17.7373 57.737 18.5353 57.737 19.618V24H56.085ZM53.733 24.098C53.173 24.098 52.683 24.0047 52.263 23.818C51.843 23.622 51.5164 23.356 51.283 23.02C51.059 22.6747 50.947 22.2873 50.947 21.858C50.947 21.438 51.045 21.06 51.241 20.724C51.4464 20.388 51.7777 20.122 52.235 19.926C52.6924 19.73 53.299 19.632 54.055 19.632H56.225V20.794H54.181C53.5837 20.794 53.1824 20.892 52.977 21.088C52.7717 21.2747 52.669 21.508 52.669 21.788C52.669 22.1053 52.795 22.3573 53.047 22.544C53.299 22.7307 53.649 22.824 54.097 22.824C54.5264 22.824 54.909 22.726 55.245 22.53C55.5904 22.334 55.8377 22.0447 55.987 21.662L56.281 22.712C56.113 23.1507 55.8097 23.4913 55.371 23.734C54.9417 23.9767 54.3957 24.098 53.733 24.098ZM61.4566 24V17.588L61.8626 18.008H58.8246V16.524H65.8246V18.008H62.8006L63.2066 17.588V24H61.4566ZM70.846 18.988C71.8073 18.988 72.54 19.2027 73.044 19.632C73.548 20.0613 73.8 20.668 73.8 21.452C73.8 22.264 73.52 22.8987 72.96 23.356C72.4 23.804 71.6113 24.0233 70.594 24.014L67.094 24V16.524H68.844V18.974L70.846 18.988ZM70.44 22.726C70.9533 22.7353 71.3453 22.628 71.616 22.404C71.8866 22.18 72.022 21.8533 72.022 21.424C72.022 20.9947 71.8866 20.6867 71.616 20.5C71.3546 20.304 70.9626 20.2013 70.44 20.192L68.844 20.178V22.712L70.44 22.726Z" fill="white"/>
</svg>
