<svg width="90" height="90" viewBox="0 0 90 90" fill="none" xmlns="http://www.w3.org/2000/svg">
<path d="M45.5 40.2501C45.5 33.768 50.7679 28.5001 57.25 28.5001C59.3846 28.5001 61.4017 29.0876 63.125 30.0863V28.5001L59.0517 16.7501C58.66 15.6142 57.5633 14.7917 56.2708 14.7917H34.7292C33.4367 14.7917 32.34 15.6142 31.9483 16.7501L27.875 28.5001V44.1667C27.875 45.2438 28.7563 46.1251 29.8333 46.1251H31.7917C32.8688 46.1251 33.75 45.2438 33.75 44.1667V42.2084H45.6763C45.5783 41.5622 45.5 40.9159 45.5 40.2501ZM34.7292 17.7292H56.2708L59.2083 26.5417H31.7917L34.7292 17.7292ZM34.7292 36.3334C33.1038 36.3334 31.7917 35.0213 31.7917 33.3959C31.7917 31.7705 33.1038 30.4584 34.7292 30.4584C36.3546 30.4584 37.6667 31.7705 37.6667 33.3959C37.6667 35.0213 36.3546 36.3334 34.7292 36.3334ZM57.25 34.3751V38.2917H65.0833V42.2084H57.25V46.1251L51.375 40.2501L57.25 34.3751Z" fill="white"/>
<path d="M15.5552 67V58.6H22.9832V67H21.4472V59.536L21.8072 59.92H16.7312L17.0912 59.536V67H15.5552ZM28.0398 67.084C27.3838 67.084 26.7998 66.944 26.2878 66.664C25.7758 66.376 25.3718 65.984 25.0758 65.488C24.7798 64.992 24.6318 64.428 24.6318 63.796C24.6318 63.156 24.7798 62.592 25.0758 62.104C25.3718 61.608 25.7758 61.22 26.2878 60.94C26.7998 60.66 27.3838 60.52 28.0398 60.52C28.7038 60.52 29.2918 60.66 29.8038 60.94C30.3238 61.22 30.7278 61.604 31.0158 62.092C31.3118 62.58 31.4598 63.148 31.4598 63.796C31.4598 64.428 31.3118 64.992 31.0158 65.488C30.7278 65.984 30.3238 66.376 29.8038 66.664C29.2918 66.944 28.7038 67.084 28.0398 67.084ZM28.0398 65.8C28.4078 65.8 28.7358 65.72 29.0238 65.56C29.3118 65.4 29.5358 65.168 29.6958 64.864C29.8638 64.56 29.9478 64.204 29.9478 63.796C29.9478 63.38 29.8638 63.024 29.6958 62.728C29.5358 62.424 29.3118 62.192 29.0238 62.032C28.7358 61.872 28.4118 61.792 28.0518 61.792C27.6838 61.792 27.3558 61.872 27.0678 62.032C26.7878 62.192 26.5638 62.424 26.3958 62.728C26.2278 63.024 26.1438 63.38 26.1438 63.796C26.1438 64.204 26.2278 64.56 26.3958 64.864C26.5638 65.168 26.7878 65.4 27.0678 65.56C27.3558 65.72 27.6798 65.8 28.0398 65.8ZM32.9416 67V60.592H36.0736C36.8496 60.592 37.4576 60.736 37.8976 61.024C38.3456 61.312 38.5696 61.72 38.5696 62.248C38.5696 62.768 38.3616 63.176 37.9456 63.472C37.5296 63.76 36.9776 63.904 36.2896 63.904L36.4696 63.532C37.2456 63.532 37.8216 63.676 38.1976 63.964C38.5816 64.244 38.7736 64.656 38.7736 65.2C38.7736 65.768 38.5616 66.212 38.1376 66.532C37.7136 66.844 37.0696 67 36.2056 67H32.9416ZM34.3696 65.908H36.0856C36.4936 65.908 36.8016 65.844 37.0096 65.716C37.2176 65.58 37.3216 65.376 37.3216 65.104C37.3216 64.816 37.2256 64.604 37.0336 64.468C36.8416 64.332 36.5416 64.264 36.1336 64.264H34.3696V65.908ZM34.3696 63.268H35.9416C36.3256 63.268 36.6136 63.2 36.8056 63.064C37.0056 62.92 37.1056 62.72 37.1056 62.464C37.1056 62.2 37.0056 62.004 36.8056 61.876C36.6136 61.748 36.3256 61.684 35.9416 61.684H34.3696V63.268ZM43.3593 67.084C42.6473 67.084 42.0233 66.944 41.4873 66.664C40.9593 66.376 40.5473 65.984 40.2513 65.488C39.9633 64.992 39.8193 64.428 39.8193 63.796C39.8193 63.156 39.9593 62.592 40.2393 62.104C40.5273 61.608 40.9193 61.22 41.4153 60.94C41.9193 60.66 42.4913 60.52 43.1313 60.52C43.7553 60.52 44.3113 60.656 44.7993 60.928C45.2873 61.2 45.6713 61.584 45.9513 62.08C46.2313 62.576 46.3713 63.16 46.3713 63.832C46.3713 63.896 46.3673 63.968 46.3593 64.048C46.3593 64.128 46.3553 64.204 46.3473 64.276H41.0073V63.28H45.5553L44.9673 63.592C44.9753 63.224 44.8993 62.9 44.7393 62.62C44.5793 62.34 44.3593 62.12 44.0793 61.96C43.8073 61.8 43.4913 61.72 43.1313 61.72C42.7633 61.72 42.4393 61.8 42.1593 61.96C41.8873 62.12 41.6713 62.344 41.5113 62.632C41.3593 62.912 41.2833 63.244 41.2833 63.628V63.868C41.2833 64.252 41.3713 64.592 41.5473 64.888C41.7233 65.184 41.9713 65.412 42.2913 65.572C42.6113 65.732 42.9793 65.812 43.3953 65.812C43.7553 65.812 44.0793 65.756 44.3673 65.644C44.6553 65.532 44.9113 65.356 45.1353 65.116L45.9393 66.04C45.6513 66.376 45.2873 66.636 44.8473 66.82C44.4153 66.996 43.9193 67.084 43.3593 67.084ZM50.9279 67.084C50.2559 67.084 49.6559 66.944 49.1279 66.664C48.6079 66.376 48.1999 65.984 47.9039 65.488C47.6079 64.992 47.4599 64.428 47.4599 63.796C47.4599 63.156 47.6079 62.592 47.9039 62.104C48.1999 61.608 48.6079 61.22 49.1279 60.94C49.6559 60.66 50.2559 60.52 50.9279 60.52C51.5519 60.52 52.0999 60.648 52.5719 60.904C53.0519 61.152 53.4159 61.52 53.6639 62.008L52.5119 62.68C52.3199 62.376 52.0839 62.152 51.8039 62.008C51.5319 61.864 51.2359 61.792 50.9159 61.792C50.5479 61.792 50.2159 61.872 49.9199 62.032C49.6239 62.192 49.3919 62.424 49.2239 62.728C49.0559 63.024 48.9719 63.38 48.9719 63.796C48.9719 64.212 49.0559 64.572 49.2239 64.876C49.3919 65.172 49.6239 65.4 49.9199 65.56C50.2159 65.72 50.5479 65.8 50.9159 65.8C51.2359 65.8 51.5319 65.728 51.8039 65.584C52.0839 65.44 52.3199 65.216 52.5119 64.912L53.6639 65.584C53.4159 66.064 53.0519 66.436 52.5719 66.7C52.0999 66.956 51.5519 67.084 50.9279 67.084ZM54.9846 67V60.592H56.4846V64.816L60.0246 60.592H61.3926V67H59.8926V62.776L56.3646 67H54.9846ZM64.7423 67V61.504L65.0903 61.864H62.4863V60.592H68.4863V61.864H65.8943L66.2423 61.504V67H64.7423ZM72.7904 62.704C73.6144 62.704 74.2424 62.888 74.6744 63.256C75.1064 63.624 75.3224 64.144 75.3224 64.816C75.3224 65.512 75.0824 66.056 74.6024 66.448C74.1224 66.832 73.4464 67.02 72.5744 67.012L69.5744 67V60.592H71.0744V62.692L72.7904 62.704ZM72.4424 65.908C72.8824 65.916 73.2184 65.824 73.4504 65.632C73.6824 65.44 73.7984 65.16 73.7984 64.792C73.7984 64.424 73.6824 64.16 73.4504 64C73.2264 63.832 72.8904 63.744 72.4424 63.736L71.0744 63.724V65.896L72.4424 65.908ZM21.6682 82V75.592H23.1682V78.196H26.3962V75.592H27.8962V82H26.3962V79.468H23.1682V82H21.6682ZM32.7624 82.084C32.1064 82.084 31.5224 81.944 31.0104 81.664C30.4984 81.376 30.0944 80.984 29.7984 80.488C29.5024 79.992 29.3544 79.428 29.3544 78.796C29.3544 78.156 29.5024 77.592 29.7984 77.104C30.0944 76.608 30.4984 76.22 31.0104 75.94C31.5224 75.66 32.1064 75.52 32.7624 75.52C33.4264 75.52 34.0144 75.66 34.5264 75.94C35.0464 76.22 35.4504 76.604 35.7384 77.092C36.0344 77.58 36.1824 78.148 36.1824 78.796C36.1824 79.428 36.0344 79.992 35.7384 80.488C35.4504 80.984 35.0464 81.376 34.5264 81.664C34.0144 81.944 33.4264 82.084 32.7624 82.084ZM32.7624 80.8C33.1304 80.8 33.4584 80.72 33.7464 80.56C34.0344 80.4 34.2584 80.168 34.4184 79.864C34.5864 79.56 34.6704 79.204 34.6704 78.796C34.6704 78.38 34.5864 78.024 34.4184 77.728C34.2584 77.424 34.0344 77.192 33.7464 77.032C33.4584 76.872 33.1344 76.792 32.7744 76.792C32.4064 76.792 32.0784 76.872 31.7904 77.032C31.5104 77.192 31.2864 77.424 31.1184 77.728C30.9504 78.024 30.8664 78.38 30.8664 78.796C30.8664 79.204 30.9504 79.56 31.1184 79.864C31.2864 80.168 31.5104 80.4 31.7904 80.56C32.0784 80.72 32.4024 80.8 32.7624 80.8ZM37.6643 82V75.592H39.2363L41.8163 80.14H41.1923L43.9043 75.592H45.3083L45.3203 82H43.9643V77.2L44.2043 77.356L41.8043 81.328H41.1563L38.7443 77.248L39.0323 77.176V82H37.6643ZM50.3202 82.084C49.6082 82.084 48.9842 81.944 48.4482 81.664C47.9202 81.376 47.5082 80.984 47.2122 80.488C46.9242 79.992 46.7802 79.428 46.7802 78.796C46.7802 78.156 46.9202 77.592 47.2002 77.104C47.4882 76.608 47.8802 76.22 48.3762 75.94C48.8802 75.66 49.4522 75.52 50.0922 75.52C50.7162 75.52 51.2722 75.656 51.7602 75.928C52.2482 76.2 52.6322 76.584 52.9122 77.08C53.1922 77.576 53.3322 78.16 53.3322 78.832C53.3322 78.896 53.3282 78.968 53.3202 79.048C53.3202 79.128 53.3162 79.204 53.3082 79.276H47.9682V78.28H52.5162L51.9282 78.592C51.9362 78.224 51.8602 77.9 51.7002 77.62C51.5402 77.34 51.3202 77.12 51.0402 76.96C50.7682 76.8 50.4522 76.72 50.0922 76.72C49.7242 76.72 49.4002 76.8 49.1202 76.96C48.8482 77.12 48.6322 77.344 48.4722 77.632C48.3202 77.912 48.2442 78.244 48.2442 78.628V78.868C48.2442 79.252 48.3322 79.592 48.5082 79.888C48.6842 80.184 48.9322 80.412 49.2522 80.572C49.5722 80.732 49.9402 80.812 50.3562 80.812C50.7162 80.812 51.0402 80.756 51.3282 80.644C51.6162 80.532 51.8722 80.356 52.0962 80.116L52.9002 81.04C52.6122 81.376 52.2482 81.636 51.8082 81.82C51.3762 81.996 50.8802 82.084 50.3202 82.084ZM58.5248 82.084C58.0048 82.084 57.5288 81.964 57.0968 81.724C56.6728 81.484 56.3328 81.124 56.0768 80.644C55.8288 80.156 55.7048 79.54 55.7048 78.796C55.7048 78.044 55.8248 77.428 56.0648 76.948C56.3128 76.468 56.6488 76.112 57.0728 75.88C57.4968 75.64 57.9808 75.52 58.5248 75.52C59.1568 75.52 59.7128 75.656 60.1928 75.928C60.6808 76.2 61.0648 76.58 61.3448 77.068C61.6328 77.556 61.7768 78.132 61.7768 78.796C61.7768 79.46 61.6328 80.04 61.3448 80.536C61.0648 81.024 60.6808 81.404 60.1928 81.676C59.7128 81.948 59.1568 82.084 58.5248 82.084ZM54.9728 84.328V75.592H56.4008V77.104L56.3528 78.808L56.4728 80.512V84.328H54.9728ZM58.3568 80.8C58.7168 80.8 59.0368 80.72 59.3168 80.56C59.6048 80.4 59.8328 80.168 60.0008 79.864C60.1688 79.56 60.2528 79.204 60.2528 78.796C60.2528 78.38 60.1688 78.024 60.0008 77.728C59.8328 77.424 59.6048 77.192 59.3168 77.032C59.0368 76.872 58.7168 76.792 58.3568 76.792C57.9968 76.792 57.6728 76.872 57.3848 77.032C57.0968 77.192 56.8688 77.424 56.7008 77.728C56.5328 78.024 56.4488 78.38 56.4488 78.796C56.4488 79.204 56.5328 79.56 56.7008 79.864C56.8688 80.168 57.0968 80.4 57.3848 80.56C57.6728 80.72 57.9968 80.8 58.3568 80.8ZM67.0757 82V80.704L66.9917 80.428V78.16C66.9917 77.72 66.8597 77.38 66.5957 77.14C66.3317 76.892 65.9317 76.768 65.3957 76.768C65.0357 76.768 64.6797 76.824 64.3277 76.936C63.9837 77.048 63.6917 77.204 63.4517 77.404L62.8637 76.312C63.2077 76.048 63.6157 75.852 64.0877 75.724C64.5677 75.588 65.0637 75.52 65.5757 75.52C66.5037 75.52 67.2197 75.744 67.7237 76.192C68.2357 76.632 68.4917 77.316 68.4917 78.244V82H67.0757ZM65.0597 82.084C64.5797 82.084 64.1597 82.004 63.7997 81.844C63.4397 81.676 63.1597 81.448 62.9597 81.16C62.7677 80.864 62.6717 80.532 62.6717 80.164C62.6717 79.804 62.7557 79.48 62.9237 79.192C63.0997 78.904 63.3837 78.676 63.7757 78.508C64.1677 78.34 64.6877 78.256 65.3357 78.256H67.1957V79.252H65.4437C64.9317 79.252 64.5877 79.336 64.4117 79.504C64.2357 79.664 64.1477 79.864 64.1477 80.104C64.1477 80.376 64.2557 80.592 64.4717 80.752C64.6877 80.912 64.9877 80.992 65.3717 80.992C65.7397 80.992 66.0677 80.908 66.3557 80.74C66.6517 80.572 66.8637 80.324 66.9917 79.996L67.2437 80.896C67.0997 81.272 66.8397 81.564 66.4637 81.772C66.0957 81.98 65.6277 82.084 65.0597 82.084Z" fill="white"/>
</svg>
