<svg width="90" height="80" viewBox="0 0 90 80" fill="none" xmlns="http://www.w3.org/2000/svg">
<path d="M45.5 36.75C45.5 29.9921 50.9921 24.5 57.75 24.5C59.9754 24.5 62.0783 25.1125 63.875 26.1538V24.5L59.6283 12.25C59.22 11.0659 58.0767 10.2084 56.7292 10.2084H34.2708C32.9233 10.2084 31.78 11.0659 31.3717 12.25L27.125 24.5V40.8334C27.125 41.9563 28.0438 42.875 29.1667 42.875H31.2083C32.3313 42.875 33.25 41.9563 33.25 40.8334V38.7917H45.6838C45.5817 38.118 45.5 37.4442 45.5 36.75ZM34.2708 13.2709H56.7292L59.7917 22.4584H31.2083L34.2708 13.2709ZM34.2708 32.6667C32.5763 32.6667 31.2083 31.2988 31.2083 29.6042C31.2083 27.9096 32.5763 26.5417 34.2708 26.5417C35.9654 26.5417 37.3333 27.9096 37.3333 29.6042C37.3333 31.2988 35.9654 32.6667 34.2708 32.6667ZM59.7917 42.875V38.7917H51.625V34.7084H59.7917V30.625L65.9167 36.75L59.7917 42.875Z" fill="white"/>
<path d="M31.2666 62.12C30.6266 62.12 30.0306 62.016 29.4786 61.808C28.9346 61.592 28.4586 61.292 28.0506 60.908C27.6506 60.516 27.3386 60.056 27.1146 59.528C26.8906 59 26.7786 58.424 26.7786 57.8C26.7786 57.176 26.8906 56.6 27.1146 56.072C27.3386 55.544 27.6546 55.088 28.0626 54.704C28.4706 54.312 28.9466 54.012 29.4906 53.804C30.0346 53.588 30.6306 53.48 31.2786 53.48C31.9666 53.48 32.5946 53.6 33.1626 53.84C33.7306 54.072 34.2106 54.42 34.6026 54.884L33.5946 55.832C33.2906 55.504 32.9506 55.26 32.5746 55.1C32.1986 54.932 31.7906 54.848 31.3506 54.848C30.9106 54.848 30.5066 54.92 30.1386 55.064C29.7786 55.208 29.4626 55.412 29.1906 55.676C28.9266 55.94 28.7186 56.252 28.5666 56.612C28.4226 56.972 28.3506 57.368 28.3506 57.8C28.3506 58.232 28.4226 58.628 28.5666 58.988C28.7186 59.348 28.9266 59.66 29.1906 59.924C29.4626 60.188 29.7786 60.392 30.1386 60.536C30.5066 60.68 30.9106 60.752 31.3506 60.752C31.7906 60.752 32.1986 60.672 32.5746 60.512C32.9506 60.344 33.2906 60.092 33.5946 59.756L34.6026 60.716C34.2106 61.172 33.7306 61.52 33.1626 61.76C32.5946 62 31.9626 62.12 31.2666 62.12ZM35.883 62V55.592H37.383V58.196H40.611V55.592H42.111V62H40.611V59.468H37.383V62H35.883ZM48.1893 62V59.816L48.4053 60.068H46.4853C45.6053 60.068 44.9133 59.884 44.4093 59.516C43.9133 59.14 43.6653 58.6 43.6653 57.896C43.6653 57.144 43.9293 56.572 44.4573 56.18C44.9933 55.788 45.7053 55.592 46.5933 55.592H49.5333V62H48.1893ZM43.5813 62L45.3093 59.552H46.8453L45.1893 62H43.5813ZM48.1893 59.336V56.456L48.4053 56.852H46.6413C46.1773 56.852 45.8173 56.94 45.5613 57.116C45.3133 57.284 45.1893 57.56 45.1893 57.944C45.1893 58.664 45.6573 59.024 46.5933 59.024H48.4053L48.1893 59.336ZM52.883 62V56.504L53.231 56.864H50.627V55.592H56.627V56.864H54.035L54.383 56.504V62H52.883ZM60.931 57.704C61.755 57.704 62.383 57.888 62.815 58.256C63.247 58.624 63.463 59.144 63.463 59.816C63.463 60.512 63.223 61.056 62.743 61.448C62.263 61.832 61.587 62.02 60.715 62.012L57.715 62V55.592H59.215V57.692L60.931 57.704ZM60.583 60.908C61.023 60.916 61.359 60.824 61.591 60.632C61.823 60.44 61.939 60.16 61.939 59.792C61.939 59.424 61.823 59.16 61.591 59C61.367 58.832 61.031 58.744 60.583 58.736L59.215 58.724V60.896L60.583 60.908ZM21.6682 77V70.592H23.1682V73.196H26.3962V70.592H27.8962V77H26.3962V74.468H23.1682V77H21.6682ZM32.7624 77.084C32.1064 77.084 31.5224 76.944 31.0104 76.664C30.4984 76.376 30.0944 75.984 29.7984 75.488C29.5024 74.992 29.3544 74.428 29.3544 73.796C29.3544 73.156 29.5024 72.592 29.7984 72.104C30.0944 71.608 30.4984 71.22 31.0104 70.94C31.5224 70.66 32.1064 70.52 32.7624 70.52C33.4264 70.52 34.0144 70.66 34.5264 70.94C35.0464 71.22 35.4504 71.604 35.7384 72.092C36.0344 72.58 36.1824 73.148 36.1824 73.796C36.1824 74.428 36.0344 74.992 35.7384 75.488C35.4504 75.984 35.0464 76.376 34.5264 76.664C34.0144 76.944 33.4264 77.084 32.7624 77.084ZM32.7624 75.8C33.1304 75.8 33.4584 75.72 33.7464 75.56C34.0344 75.4 34.2584 75.168 34.4184 74.864C34.5864 74.56 34.6704 74.204 34.6704 73.796C34.6704 73.38 34.5864 73.024 34.4184 72.728C34.2584 72.424 34.0344 72.192 33.7464 72.032C33.4584 71.872 33.1344 71.792 32.7744 71.792C32.4064 71.792 32.0784 71.872 31.7904 72.032C31.5104 72.192 31.2864 72.424 31.1184 72.728C30.9504 73.024 30.8664 73.38 30.8664 73.796C30.8664 74.204 30.9504 74.56 31.1184 74.864C31.2864 75.168 31.5104 75.4 31.7904 75.56C32.0784 75.72 32.4024 75.8 32.7624 75.8ZM37.6643 77V70.592H39.2363L41.8163 75.14H41.1923L43.9043 70.592H45.3083L45.3203 77H43.9643V72.2L44.2043 72.356L41.8043 76.328H41.1563L38.7443 72.248L39.0323 72.176V77H37.6643ZM50.3202 77.084C49.6082 77.084 48.9842 76.944 48.4482 76.664C47.9202 76.376 47.5082 75.984 47.2122 75.488C46.9242 74.992 46.7802 74.428 46.7802 73.796C46.7802 73.156 46.9202 72.592 47.2002 72.104C47.4882 71.608 47.8802 71.22 48.3762 70.94C48.8802 70.66 49.4522 70.52 50.0922 70.52C50.7162 70.52 51.2722 70.656 51.7602 70.928C52.2482 71.2 52.6322 71.584 52.9122 72.08C53.1922 72.576 53.3322 73.16 53.3322 73.832C53.3322 73.896 53.3282 73.968 53.3202 74.048C53.3202 74.128 53.3162 74.204 53.3082 74.276H47.9682V73.28H52.5162L51.9282 73.592C51.9362 73.224 51.8602 72.9 51.7002 72.62C51.5402 72.34 51.3202 72.12 51.0402 71.96C50.7682 71.8 50.4522 71.72 50.0922 71.72C49.7242 71.72 49.4002 71.8 49.1202 71.96C48.8482 72.12 48.6322 72.344 48.4722 72.632C48.3202 72.912 48.2442 73.244 48.2442 73.628V73.868C48.2442 74.252 48.3322 74.592 48.5082 74.888C48.6842 75.184 48.9322 75.412 49.2522 75.572C49.5722 75.732 49.9402 75.812 50.3562 75.812C50.7162 75.812 51.0402 75.756 51.3282 75.644C51.6162 75.532 51.8722 75.356 52.0962 75.116L52.9002 76.04C52.6122 76.376 52.2482 76.636 51.8082 76.82C51.3762 76.996 50.8802 77.084 50.3202 77.084ZM58.5248 77.084C58.0048 77.084 57.5288 76.964 57.0968 76.724C56.6728 76.484 56.3328 76.124 56.0768 75.644C55.8288 75.156 55.7048 74.54 55.7048 73.796C55.7048 73.044 55.8248 72.428 56.0648 71.948C56.3128 71.468 56.6488 71.112 57.0728 70.88C57.4968 70.64 57.9808 70.52 58.5248 70.52C59.1568 70.52 59.7128 70.656 60.1928 70.928C60.6808 71.2 61.0648 71.58 61.3448 72.068C61.6328 72.556 61.7768 73.132 61.7768 73.796C61.7768 74.46 61.6328 75.04 61.3448 75.536C61.0648 76.024 60.6808 76.404 60.1928 76.676C59.7128 76.948 59.1568 77.084 58.5248 77.084ZM54.9728 79.328V70.592H56.4008V72.104L56.3528 73.808L56.4728 75.512V79.328H54.9728ZM58.3568 75.8C58.7168 75.8 59.0368 75.72 59.3168 75.56C59.6048 75.4 59.8328 75.168 60.0008 74.864C60.1688 74.56 60.2528 74.204 60.2528 73.796C60.2528 73.38 60.1688 73.024 60.0008 72.728C59.8328 72.424 59.6048 72.192 59.3168 72.032C59.0368 71.872 58.7168 71.792 58.3568 71.792C57.9968 71.792 57.6728 71.872 57.3848 72.032C57.0968 72.192 56.8688 72.424 56.7008 72.728C56.5328 73.024 56.4488 73.38 56.4488 73.796C56.4488 74.204 56.5328 74.56 56.7008 74.864C56.8688 75.168 57.0968 75.4 57.3848 75.56C57.6728 75.72 57.9968 75.8 58.3568 75.8ZM67.0757 77V75.704L66.9917 75.428V73.16C66.9917 72.72 66.8597 72.38 66.5957 72.14C66.3317 71.892 65.9317 71.768 65.3957 71.768C65.0357 71.768 64.6797 71.824 64.3277 71.936C63.9837 72.048 63.6917 72.204 63.4517 72.404L62.8637 71.312C63.2077 71.048 63.6157 70.852 64.0877 70.724C64.5677 70.588 65.0637 70.52 65.5757 70.52C66.5037 70.52 67.2197 70.744 67.7237 71.192C68.2357 71.632 68.4917 72.316 68.4917 73.244V77H67.0757ZM65.0597 77.084C64.5797 77.084 64.1597 77.004 63.7997 76.844C63.4397 76.676 63.1597 76.448 62.9597 76.16C62.7677 75.864 62.6717 75.532 62.6717 75.164C62.6717 74.804 62.7557 74.48 62.9237 74.192C63.0997 73.904 63.3837 73.676 63.7757 73.508C64.1677 73.34 64.6877 73.256 65.3357 73.256H67.1957V74.252H65.4437C64.9317 74.252 64.5877 74.336 64.4117 74.504C64.2357 74.664 64.1477 74.864 64.1477 75.104C64.1477 75.376 64.2557 75.592 64.4717 75.752C64.6877 75.912 64.9877 75.992 65.3717 75.992C65.7397 75.992 66.0677 75.908 66.3557 75.74C66.6517 75.572 66.8637 75.324 66.9917 74.996L67.2437 75.896C67.0997 76.272 66.8397 76.564 66.4637 76.772C66.0957 76.98 65.6277 77.084 65.0597 77.084Z" fill="white"/>
</svg>
