<svg width="90" height="90" viewBox="0 0 90 90" fill="none" xmlns="http://www.w3.org/2000/svg">
<path d="M13.389 65V56.292L13.823 56.74H10.155V55.2H18.443V56.74H14.775L15.195 56.292V65H13.389ZM23.7829 65.098C23.1762 65.098 22.6209 64.958 22.1169 64.678C21.6222 64.398 21.2256 63.978 20.9269 63.418C20.6376 62.8487 20.4929 62.13 20.4929 61.262C20.4929 60.3847 20.6329 59.666 20.9129 59.106C21.2022 58.546 21.5942 58.1307 22.0889 57.86C22.5836 57.58 23.1482 57.44 23.7829 57.44C24.5202 57.44 25.1689 57.5987 25.7289 57.916C26.2982 58.2333 26.7462 58.6767 27.0729 59.246C27.4089 59.8153 27.5769 60.4873 27.5769 61.262C27.5769 62.0367 27.4089 62.7133 27.0729 63.292C26.7462 63.8613 26.2982 64.3047 25.7289 64.622C25.1689 64.9393 24.5202 65.098 23.7829 65.098ZM19.6389 67.716V57.524H21.3049V59.288L21.2489 61.276L21.3889 63.264V67.716H19.6389ZM23.5869 63.6C24.0069 63.6 24.3802 63.5067 24.7069 63.32C25.0429 63.1333 25.3089 62.8627 25.5049 62.508C25.7009 62.1533 25.7989 61.738 25.7989 61.262C25.7989 60.7767 25.7009 60.3613 25.5049 60.016C25.3089 59.6613 25.0429 59.3907 24.7069 59.204C24.3802 59.0173 24.0069 58.924 23.5869 58.924C23.1669 58.924 22.7889 59.0173 22.4529 59.204C22.1169 59.3907 21.8509 59.6613 21.6549 60.016C21.4589 60.3613 21.3609 60.7767 21.3609 61.262C21.3609 61.738 21.4589 62.1533 21.6549 62.508C21.8509 62.8627 22.1169 63.1333 22.4529 63.32C22.7889 63.5067 23.1669 63.6 23.5869 63.6ZM29.7855 67.814C29.4215 67.814 29.0575 67.7533 28.6935 67.632C28.3295 67.5107 28.0262 67.3427 27.7835 67.128L28.4835 65.84C28.6608 65.9987 28.8615 66.1247 29.0855 66.218C29.3095 66.3113 29.5382 66.358 29.7715 66.358C30.0888 66.358 30.3455 66.2787 30.5415 66.12C30.7375 65.9613 30.9195 65.6953 31.0875 65.322L31.5215 64.342L31.6615 64.132L34.4895 57.524H36.1695L32.6695 65.602C32.4362 66.162 32.1748 66.6053 31.8855 66.932C31.6055 67.2587 31.2882 67.4873 30.9335 67.618C30.5882 67.7487 30.2055 67.814 29.7855 67.814ZM31.3255 65.266L27.9515 57.524H29.7715L32.5155 63.978L31.3255 65.266ZM42.0578 64.188V59.008H39.1878L39.1458 60.212C39.1271 60.6413 39.0991 61.0567 39.0618 61.458C39.0245 61.85 38.9638 62.214 38.8798 62.55C38.7958 62.8767 38.6745 63.1473 38.5158 63.362C38.3571 63.5767 38.1471 63.7167 37.8858 63.782L36.1498 63.516C36.4298 63.516 36.6538 63.4273 36.8218 63.25C36.9991 63.0633 37.1345 62.8113 37.2278 62.494C37.3305 62.1673 37.4051 61.7987 37.4518 61.388C37.4985 60.968 37.5311 60.534 37.5498 60.086L37.6478 57.524H43.8078V64.188H42.0578ZM35.8838 66.666V63.516H44.9138V66.666H43.2758V65H37.5078V66.666H35.8838ZM49.8088 65.098C49.0434 65.098 48.3621 64.9347 47.7648 64.608C47.1674 64.272 46.6961 63.8147 46.3508 63.236C46.0054 62.6573 45.8328 61.9993 45.8328 61.262C45.8328 60.5153 46.0054 59.8573 46.3508 59.288C46.6961 58.7093 47.1674 58.2567 47.7648 57.93C48.3621 57.6033 49.0434 57.44 49.8088 57.44C50.5834 57.44 51.2694 57.6033 51.8668 57.93C52.4734 58.2567 52.9448 58.7047 53.2808 59.274C53.6261 59.8433 53.7988 60.506 53.7988 61.262C53.7988 61.9993 53.6261 62.6573 53.2808 63.236C52.9448 63.8147 52.4734 64.272 51.8668 64.608C51.2694 64.9347 50.5834 65.098 49.8088 65.098ZM49.8088 63.6C50.2381 63.6 50.6208 63.5067 50.9568 63.32C51.2928 63.1333 51.5541 62.8627 51.7408 62.508C51.9368 62.1533 52.0348 61.738 52.0348 61.262C52.0348 60.7767 51.9368 60.3613 51.7408 60.016C51.5541 59.6613 51.2928 59.3907 50.9568 59.204C50.6208 59.0173 50.2428 58.924 49.8228 58.924C49.3934 58.924 49.0108 59.0173 48.6748 59.204C48.3481 59.3907 48.0868 59.6613 47.8908 60.016C47.6948 60.3613 47.5968 60.7767 47.5968 61.262C47.5968 61.738 47.6948 62.1533 47.8908 62.508C48.0868 62.8627 48.3481 63.1333 48.6748 63.32C49.0108 63.5067 49.3888 63.6 49.8088 63.6ZM55.5276 65V57.524H59.1816C60.0869 57.524 60.7962 57.692 61.3096 58.028C61.8322 58.364 62.0936 58.84 62.0936 59.456C62.0936 60.0627 61.8509 60.5387 61.3656 60.884C60.8802 61.22 60.2362 61.388 59.4336 61.388L59.6436 60.954C60.5489 60.954 61.2209 61.122 61.6596 61.458C62.1076 61.7847 62.3316 62.2653 62.3316 62.9C62.3316 63.5627 62.0842 64.0807 61.5896 64.454C61.0949 64.818 60.3436 65 59.3356 65H55.5276ZM57.1936 63.726H59.1956C59.6716 63.726 60.0309 63.6513 60.2736 63.502C60.5162 63.3433 60.6376 63.1053 60.6376 62.788C60.6376 62.452 60.5256 62.2047 60.3016 62.046C60.0776 61.8873 59.7276 61.808 59.2516 61.808H57.1936V63.726ZM57.1936 60.646H59.0276C59.4756 60.646 59.8116 60.5667 60.0356 60.408C60.2689 60.24 60.3856 60.0067 60.3856 59.708C60.3856 59.4 60.2689 59.1713 60.0356 59.022C59.8116 58.8727 59.4756 58.798 59.0276 58.798H57.1936V60.646ZM68.7315 65V63.488L68.6335 63.166V60.52C68.6335 60.0067 68.4795 59.61 68.1715 59.33C67.8635 59.0407 67.3969 58.896 66.7715 58.896C66.3515 58.896 65.9362 58.9613 65.5255 59.092C65.1242 59.2227 64.7835 59.4047 64.5035 59.638L63.8175 58.364C64.2189 58.056 64.6949 57.8273 65.2455 57.678C65.8055 57.5193 66.3842 57.44 66.9815 57.44C68.0642 57.44 68.8995 57.7013 69.4875 58.224C70.0849 58.7373 70.3835 59.5353 70.3835 60.618V65H68.7315ZM66.3795 65.098C65.8195 65.098 65.3295 65.0047 64.9095 64.818C64.4895 64.622 64.1629 64.356 63.9295 64.02C63.7055 63.6747 63.5935 63.2873 63.5935 62.858C63.5935 62.438 63.6915 62.06 63.8875 61.724C64.0929 61.388 64.4242 61.122 64.8815 60.926C65.3389 60.73 65.9455 60.632 66.7015 60.632H68.8715V61.794H66.8275C66.2302 61.794 65.8289 61.892 65.6235 62.088C65.4182 62.2747 65.3155 62.508 65.3155 62.788C65.3155 63.1053 65.4415 63.3573 65.6935 63.544C65.9455 63.7307 66.2955 63.824 66.7435 63.824C67.1729 63.824 67.5555 63.726 67.8915 63.53C68.2369 63.334 68.4842 63.0447 68.6335 62.662L68.9275 63.712C68.7595 64.1507 68.4562 64.4913 68.0175 64.734C67.5882 64.9767 67.0422 65.098 66.3795 65.098ZM77.295 65V62.452L77.547 62.746H75.307C74.2804 62.746 73.473 62.5313 72.885 62.102C72.3064 61.6633 72.017 61.0333 72.017 60.212C72.017 59.3347 72.325 58.6673 72.941 58.21C73.5664 57.7527 74.397 57.524 75.433 57.524H78.863V65H77.295ZM71.919 65L73.935 62.144H75.727L73.795 65H71.919ZM77.295 61.892V58.532L77.547 58.994H75.489C74.9477 58.994 74.5277 59.0967 74.229 59.302C73.9397 59.498 73.795 59.82 73.795 60.268C73.795 61.108 74.341 61.528 75.433 61.528H77.547L77.295 61.892ZM22.9023 82L20.2003 78.416L21.6283 77.534L24.9603 82H22.9023ZM17.5403 82V74.524H19.2903V82H17.5403ZM18.7723 79.004V77.548H21.3063V79.004H18.7723ZM21.7963 78.472L20.1583 78.276L22.9023 74.524H24.7783L21.7963 78.472ZM26.1946 82V74.524H27.9446V77.562H31.7106V74.524H33.4606V82H31.7106V79.046H27.9446V82H26.1946ZM35.8059 82V74.524H37.5559V79.452L41.6859 74.524H43.2819V82H41.5319V77.072L37.4159 82H35.8059ZM54.554 82L52.37 78.416L53.798 77.534L56.64 82H54.554ZM50.956 79.004V77.548H53.462V79.004H50.956ZM53.966 78.472L52.314 78.276L54.582 74.524H56.444L53.966 78.472ZM46.658 82H44.586L47.414 77.534L48.842 78.416L46.658 82ZM51.474 82H49.738V74.524H51.474V82ZM50.256 79.004H47.764V77.548H50.256V79.004ZM47.246 78.472L44.768 74.524H46.63L48.884 78.276L47.246 78.472ZM63.3026 82L60.6006 78.416L62.0286 77.534L65.3606 82H63.3026ZM57.9406 82V74.524H59.6906V82H57.9406ZM59.1726 79.004V77.548H61.7066V79.004H59.1726ZM62.1966 78.472L60.5586 78.276L63.3026 74.524H65.1786L62.1966 78.472ZM70.9942 82V80.488L70.8962 80.166V77.52C70.8962 77.0067 70.7422 76.61 70.4342 76.33C70.1262 76.0407 69.6596 75.896 69.0342 75.896C68.6142 75.896 68.1989 75.9613 67.7882 76.092C67.3869 76.2227 67.0462 76.4047 66.7662 76.638L66.0802 75.364C66.4816 75.056 66.9576 74.8273 67.5082 74.678C68.0682 74.5193 68.6469 74.44 69.2442 74.44C70.3269 74.44 71.1622 74.7013 71.7502 75.224C72.3476 75.7373 72.6462 76.5353 72.6462 77.618V82H70.9942ZM68.6422 82.098C68.0822 82.098 67.5922 82.0047 67.1722 81.818C66.7522 81.622 66.4256 81.356 66.1922 81.02C65.9682 80.6747 65.8562 80.2873 65.8562 79.858C65.8562 79.438 65.9542 79.06 66.1502 78.724C66.3556 78.388 66.6869 78.122 67.1442 77.926C67.6016 77.73 68.2082 77.632 68.9642 77.632H71.1342V78.794H69.0902C68.4929 78.794 68.0916 78.892 67.8862 79.088C67.6809 79.2747 67.5782 79.508 67.5782 79.788C67.5782 80.1053 67.7042 80.3573 67.9562 80.544C68.2082 80.7307 68.5582 80.824 69.0062 80.824C69.4356 80.824 69.8182 80.726 70.1542 80.53C70.4996 80.334 70.7469 80.0447 70.8962 79.662L71.1902 80.712C71.0222 81.1507 70.7189 81.4913 70.2802 81.734C69.8509 81.9767 69.3049 82.098 68.6422 82.098Z" fill="white"/>
<g clip-path="url(#clip0_1337_468)">
<path d="M55.8082 46.343V40.1352L55.4872 40.5743C54.2941 42.2057 52.5636 43.3993 50.6149 43.935L49.1451 44.3392L47.4065 44.8288H40.4149V43.3795H47.3278L47.3127 42.999L47.2525 41.4759C47.1726 39.4564 47.7857 37.4457 48.9787 35.8144L55.8081 26.4767V7.65697C55.8081 6.1896 54.6185 5 53.1511 5H34.859V13.318C34.859 14.9162 33.5587 16.2165 31.9605 16.2165H23.6426V46.343C23.6426 47.8104 24.8321 49 26.2995 49H53.1513C54.6187 49 55.8082 47.8104 55.8082 46.343ZM42.1067 10.9946C42.1067 10.2766 42.6128 9.65834 43.3166 9.51675C44.4133 9.29613 45.9635 8.9883 46.675 8.86608C47.0315 8.80483 47.3572 9.07932 47.3572 9.44105V12.2314C47.3572 13.6813 46.1819 14.8566 44.732 14.8566C43.2821 14.8566 42.1067 13.6813 42.1067 12.2314V10.9946ZM40.4149 17.1503C40.4149 16.3499 41.0637 15.701 41.8642 15.701H47.5997C48.4001 15.701 49.049 16.3499 49.049 17.1503V21.4787C49.049 21.7245 48.8497 21.9238 48.6039 21.9238H40.8599C40.6141 21.9238 40.4149 21.7245 40.4149 21.4787L40.4149 17.1503ZM30.4019 26.0836H49.049V28.499H30.4019V26.0836V26.0836ZM30.4019 31.4458H49.049V32.8951H30.4019V31.4458V31.4458Z" fill="white"/>
<path d="M31.9603 14.7675C32.7607 14.7675 33.4096 14.1186 33.4096 13.3182V5.22623V5.00024L23.642 14.7675H23.8693H31.9603Z" fill="white"/>
<path d="M66.2027 21.6526C66.4993 21.1275 66.3627 20.4519 65.8639 20.0872L65.3582 19.7174C64.8597 19.3528 64.1749 19.4271 63.7643 19.8684C63.732 19.9031 63.7012 19.9397 63.6726 19.9789L63.3236 20.456L62.8848 21.0559C62.7193 20.9931 62.5461 20.9615 62.3737 20.9615C61.9271 20.9616 61.4865 21.1673 61.2027 21.5553L55.8081 28.9315L50.1485 36.6698C49.1435 38.0438 48.6332 39.7176 48.7003 41.4186L48.7606 42.9417L50.2304 42.5376C51.8719 42.0863 53.3122 41.0928 54.3172 39.7187L55.808 37.6803L65.3715 24.6043C65.765 24.0662 65.7328 23.3477 65.3381 22.8494L65.7764 22.2501L66.1255 21.7729C66.154 21.7339 66.1795 21.6936 66.2027 21.6526Z" fill="white"/>
</g>
<defs>
<clipPath id="clip0_1337_468">
<rect width="44" height="44" fill="white" transform="translate(23 5)"/>
</clipPath>
</defs>
</svg>
