<svg width="90" height="90" viewBox="0 0 90 90" fill="none" xmlns="http://www.w3.org/2000/svg">
<path d="M48.4185 41.8394C51.5321 42.2225 53.9074 43.2761 55.5445 45C57.1815 46.7239 58 48.8789 58 51.4648C58 53.4122 57.5025 55.184 56.5074 56.7803C55.5124 58.3765 54.0037 59.6535 51.9815 60.6113C49.9914 61.5371 47.5519 62 44.6629 62C42.2556 62 39.9284 61.6648 37.6815 60.9944C35.4667 60.292 33.5728 59.3343 32 58.1211L34.6963 53.2845C35.916 54.3061 37.3926 55.1202 39.1259 55.7268C40.8913 56.3014 42.705 56.5887 44.5667 56.5887C46.7815 56.5887 48.5148 56.1418 49.7667 55.2479C51.0506 54.3221 51.6926 53.077 51.6926 51.5127C51.6926 49.9484 51.0827 48.7352 49.863 47.8732C48.6753 46.9793 46.8457 46.5324 44.3741 46.5324H41.2926V42.2704L48.9482 33.2197H33.637V28H56.6037V32.1662L48.4185 41.8394Z" fill="white"/>
</svg>
