<svg width="90" height="90" viewBox="0 0 90 90" fill="none" xmlns="http://www.w3.org/2000/svg">
<path d="M20.4832 40.7848H25.9641L19.3771 34.1977C18.8743 33.6949 18.8743 32.8797 19.3771 32.3771C19.8799 31.8743 20.6951 31.8743 21.1979 32.3771L28.5844 39.7638L31.087 33.2922C31.2787 32.7961 31.756 32.4691 32.2878 32.4691H52.5436C52.9969 32.4691 53.4168 32.7075 53.6491 33.0967L58.2378 40.7847H68.1046C68.7422 40.7847 69.2837 41.2514 69.3778 41.8819L70.9859 52.6472C71.0412 53.0178 70.9323 53.3941 70.6879 53.6778C70.4433 53.9616 70.0873 54.1248 69.7125 54.1248H64.9559C63.8863 56.4403 61.5317 57.9874 58.928 57.9874C56.3254 57.9874 53.972 56.4401 52.9031 54.1248H36.348C35.2787 56.4403 32.9248 57.9874 30.3214 57.9874C27.7189 57.9874 25.3655 56.4401 24.2968 54.1248H20.4829C19.7719 54.1248 19.1955 53.5484 19.1955 52.8374V42.0721C19.1958 41.3613 19.7722 40.7848 20.4832 40.7848ZM21.7707 51.5501H25.1873C25.761 51.5501 26.2655 51.9297 26.4243 52.4808C26.9219 54.207 28.5245 55.4127 30.3216 55.4127C32.1195 55.4127 33.7228 54.207 34.2209 52.4807C34.3799 51.9295 34.8844 51.5501 35.4579 51.5501H53.7934C54.3671 51.5501 54.8716 51.9297 55.0306 52.4808C55.5282 54.207 57.131 55.4127 58.928 55.4127C60.7265 55.4127 62.3304 54.207 62.8289 52.4805C62.9879 51.9295 63.4924 51.5501 64.0659 51.5501H68.2184L66.9952 43.3597H57.5071C57.0537 43.3597 56.6338 43.1213 56.4016 42.7321L51.8129 35.0441H33.1702L30.273 42.5366C30.0813 43.0327 29.6041 43.3597 29.0723 43.3597H21.7708L21.7707 51.5501Z" fill="white"/>
</svg>
