<svg width="90" height="90" viewBox="0 0 90 90" fill="none" xmlns="http://www.w3.org/2000/svg">
<path d="M58 56.7324V62H33.2928V57.8338L46.6041 45.1916C48.1044 43.7549 49.11 42.5099 49.6207 41.4563C50.1634 40.3709 50.4347 39.3014 50.4347 38.2479C50.4347 36.6836 49.908 35.4864 48.8546 34.6563C47.8012 33.8263 46.253 33.4113 44.21 33.4113C40.7944 33.4113 38.1768 34.5765 36.3573 36.907L32 33.5549C33.3088 31.7991 35.0645 30.4423 37.267 29.4845C39.5015 28.4948 41.9915 28 44.7367 28C48.3758 28 51.2806 28.862 53.4513 30.5859C55.6219 32.3099 56.7073 34.6563 56.7073 37.6254C56.7073 39.4451 56.3242 41.1531 55.558 42.7493C54.792 44.3455 53.3236 46.1653 51.1529 48.2085L42.199 56.7324H58Z" fill="white"/>
</svg>
