<svg width="90" height="90" viewBox="0 0 90 90" fill="none" xmlns="http://www.w3.org/2000/svg">
<path d="M31.1187 22.7337C29.2062 21.3737 28.7388 18.7387 30.0775 16.8049C31.4375 14.8924 34.0725 14.4249 36.0063 15.7637C37.9188 17.1237 38.3863 19.7587 37.0475 21.6924C35.6875 23.6049 33.0525 24.0724 31.1187 22.7337V22.7337ZM53.75 51.1237H38.7263C35.5813 51.1237 32.9037 48.8287 32.4362 45.7262L28.25 25.6237H24L28.25 46.3637C28.6324 48.873 29.9019 51.1621 31.828 52.8153C33.7541 54.4685 36.2092 55.3762 38.7475 55.3737H53.75V51.1237ZM54.2387 42.6237H43.8688L41.68 33.9112C45.0375 35.8024 48.65 37.1837 52.6238 36.5037V31.9987C49.16 32.6362 45.3137 31.4037 42.6575 29.3212L39.1725 26.6224C38.6838 26.2399 38.1313 25.9849 37.5575 25.8149C36.875 25.6136 36.1556 25.57 35.4537 25.6874H35.4112C34.1599 25.9096 33.047 26.617 32.3147 27.6558C31.5824 28.6945 31.29 29.9804 31.5013 31.2337L34.37 43.8137C34.643 45.2749 35.4199 46.5941 36.5653 47.5415C37.7108 48.4889 39.1523 49.0046 40.6387 48.9987H55.195L63.3125 55.3737L66.5 52.1862" fill="white"/>
<path d="M29.7638 77.14C29.0171 77.14 28.3218 77.0187 27.6778 76.776C27.0431 76.524 26.4878 76.174 26.0118 75.726C25.5451 75.2687 25.1811 74.732 24.9198 74.116C24.6585 73.5 24.5278 72.828 24.5278 72.1C24.5278 71.372 24.6585 70.7 24.9198 70.084C25.1811 69.468 25.5498 68.936 26.0258 68.488C26.5018 68.0307 27.0571 67.6807 27.6918 67.438C28.3265 67.186 29.0218 67.06 29.7778 67.06C30.5805 67.06 31.3131 67.2 31.9758 67.48C32.6385 67.7507 33.1985 68.1567 33.6558 68.698L32.4798 69.804C32.1251 69.4213 31.7285 69.1367 31.2898 68.95C30.8511 68.754 30.3751 68.656 29.8618 68.656C29.3485 68.656 28.8771 68.74 28.4478 68.908C28.0278 69.076 27.6591 69.314 27.3418 69.622C27.0338 69.93 26.7911 70.294 26.6138 70.714C26.4458 71.134 26.3618 71.596 26.3618 72.1C26.3618 72.604 26.4458 73.066 26.6138 73.486C26.7911 73.906 27.0338 74.27 27.3418 74.578C27.6591 74.886 28.0278 75.124 28.4478 75.292C28.8771 75.46 29.3485 75.544 29.8618 75.544C30.3751 75.544 30.8511 75.4507 31.2898 75.264C31.7285 75.068 32.1251 74.774 32.4798 74.382L33.6558 75.502C33.1985 76.034 32.6385 76.44 31.9758 76.72C31.3131 77 30.5758 77.14 29.7638 77.14ZM38.3485 77.098C37.5179 77.098 36.7899 76.9347 36.1645 76.608C35.5485 76.272 35.0679 75.8147 34.7225 75.236C34.3865 74.6573 34.2185 73.9993 34.2185 73.262C34.2185 72.5153 34.3819 71.8573 34.7085 71.288C35.0445 70.7093 35.5019 70.2567 36.0805 69.93C36.6685 69.6033 37.3359 69.44 38.0825 69.44C38.8105 69.44 39.4592 69.5987 40.0285 69.916C40.5979 70.2333 41.0459 70.6813 41.3725 71.26C41.6992 71.8387 41.8625 72.52 41.8625 73.304C41.8625 73.3787 41.8579 73.4627 41.8485 73.556C41.8485 73.6493 41.8439 73.738 41.8345 73.822H35.6045V72.66H40.9105L40.2245 73.024C40.2339 72.5947 40.1452 72.2167 39.9585 71.89C39.7719 71.5633 39.5152 71.3067 39.1885 71.12C38.8712 70.9333 38.5025 70.84 38.0825 70.84C37.6532 70.84 37.2752 70.9333 36.9485 71.12C36.6312 71.3067 36.3792 71.568 36.1925 71.904C36.0152 72.2307 35.9265 72.618 35.9265 73.066V73.346C35.9265 73.794 36.0292 74.1907 36.2345 74.536C36.4399 74.8813 36.7292 75.1473 37.1025 75.334C37.4759 75.5207 37.9052 75.614 38.3905 75.614C38.8105 75.614 39.1885 75.5487 39.5245 75.418C39.8605 75.2873 40.1592 75.082 40.4205 74.802L41.3585 75.88C41.0225 76.272 40.5979 76.5753 40.0845 76.79C39.5805 76.9953 39.0019 77.098 38.3485 77.098ZM47.1786 77.098C46.3946 77.098 45.6946 76.9347 45.0786 76.608C44.4719 76.272 43.9959 75.8147 43.6506 75.236C43.3053 74.6573 43.1326 73.9993 43.1326 73.262C43.1326 72.5153 43.3053 71.8573 43.6506 71.288C43.9959 70.7093 44.4719 70.2567 45.0786 69.93C45.6946 69.6033 46.3946 69.44 47.1786 69.44C47.9066 69.44 48.5459 69.5893 49.0966 69.888C49.6566 70.1773 50.0813 70.6067 50.3706 71.176L49.0266 71.96C48.8026 71.6053 48.5273 71.344 48.2006 71.176C47.8833 71.008 47.5379 70.924 47.1646 70.924C46.7353 70.924 46.3479 71.0173 46.0026 71.204C45.6573 71.3907 45.3866 71.6613 45.1906 72.016C44.9946 72.3613 44.8966 72.7767 44.8966 73.262C44.8966 73.7473 44.9946 74.1673 45.1906 74.522C45.3866 74.8673 45.6573 75.1333 46.0026 75.32C46.3479 75.5067 46.7353 75.6 47.1646 75.6C47.5379 75.6 47.8833 75.516 48.2006 75.348C48.5273 75.18 48.8026 74.9187 49.0266 74.564L50.3706 75.348C50.0813 75.908 49.6566 76.342 49.0966 76.65C48.5459 76.9487 47.9066 77.098 47.1786 77.098ZM53.4107 77V70.588L53.8167 71.008H50.7787V69.524H57.7787V71.008H54.7547L55.1607 70.588V77H53.4107ZM62.8001 71.988C63.7614 71.988 64.4941 72.2027 64.9981 72.632C65.5021 73.0613 65.7541 73.668 65.7541 74.452C65.7541 75.264 65.4741 75.8987 64.9141 76.356C64.3541 76.804 63.5654 77.0233 62.5481 77.014L59.0481 77V69.524H60.7981V71.974L62.8001 71.988ZM62.3941 75.726C62.9074 75.7353 63.2994 75.628 63.5701 75.404C63.8407 75.18 63.9761 74.8533 63.9761 74.424C63.9761 73.9947 63.8407 73.6867 63.5701 73.5C63.3087 73.304 62.9167 73.2013 62.3941 73.192L60.7981 73.178V75.712L62.3941 75.726Z" fill="white"/>
</svg>
