<svg width="90" height="90" viewBox="0 0 90 90" fill="none" xmlns="http://www.w3.org/2000/svg">
<path d="M14.6741 77V67.2H23.3401V77H21.5481V68.292L21.9681 68.74H16.0461L16.4661 68.292V77H14.6741ZM30.0514 77.098C29.4448 77.098 28.8894 76.958 28.3854 76.678C27.8908 76.398 27.4941 75.978 27.1954 75.418C26.9061 74.8487 26.7614 74.13 26.7614 73.262C26.7614 72.3847 26.9014 71.666 27.1814 71.106C27.4708 70.546 27.8628 70.1307 28.3574 69.86C28.8521 69.58 29.4168 69.44 30.0514 69.44C30.7888 69.44 31.4374 69.5987 31.9974 69.916C32.5668 70.2333 33.0148 70.6767 33.3414 71.246C33.6774 71.8153 33.8454 72.4873 33.8454 73.262C33.8454 74.0367 33.6774 74.7133 33.3414 75.292C33.0148 75.8613 32.5668 76.3047 31.9974 76.622C31.4374 76.9393 30.7888 77.098 30.0514 77.098ZM25.9074 79.716V69.524H27.5734V71.288L27.5174 73.276L27.6574 75.264V79.716H25.9074ZM29.8554 75.6C30.2754 75.6 30.6488 75.5067 30.9754 75.32C31.3114 75.1333 31.5774 74.8627 31.7734 74.508C31.9694 74.1533 32.0674 73.738 32.0674 73.262C32.0674 72.7767 31.9694 72.3613 31.7734 72.016C31.5774 71.6613 31.3114 71.3907 30.9754 71.204C30.6488 71.0173 30.2754 70.924 29.8554 70.924C29.4354 70.924 29.0574 71.0173 28.7214 71.204C28.3854 71.3907 28.1194 71.6613 27.9234 72.016C27.7274 72.3613 27.6294 72.7767 27.6294 73.262C27.6294 73.738 27.7274 74.1533 27.9234 74.508C28.1194 74.8627 28.3854 75.1333 28.7214 75.32C29.0574 75.5067 29.4354 75.6 29.8554 75.6ZM38.9191 77.098C38.1538 77.098 37.4725 76.9347 36.8751 76.608C36.2778 76.272 35.8065 75.8147 35.4611 75.236C35.1158 74.6573 34.9431 73.9993 34.9431 73.262C34.9431 72.5153 35.1158 71.8573 35.4611 71.288C35.8065 70.7093 36.2778 70.2567 36.8751 69.93C37.4725 69.6033 38.1538 69.44 38.9191 69.44C39.6938 69.44 40.3798 69.6033 40.9771 69.93C41.5838 70.2567 42.0551 70.7047 42.3911 71.274C42.7365 71.8433 42.9091 72.506 42.9091 73.262C42.9091 73.9993 42.7365 74.6573 42.3911 75.236C42.0551 75.8147 41.5838 76.272 40.9771 76.608C40.3798 76.9347 39.6938 77.098 38.9191 77.098ZM38.9191 75.6C39.3485 75.6 39.7311 75.5067 40.0671 75.32C40.4031 75.1333 40.6645 74.8627 40.8511 74.508C41.0471 74.1533 41.1451 73.738 41.1451 73.262C41.1451 72.7767 41.0471 72.3613 40.8511 72.016C40.6645 71.6613 40.4031 71.3907 40.0671 71.204C39.7311 71.0173 39.3531 70.924 38.9331 70.924C38.5038 70.924 38.1211 71.0173 37.7851 71.204C37.4585 71.3907 37.1971 71.6613 37.0011 72.016C36.8051 72.3613 36.7071 72.7767 36.7071 73.262C36.7071 73.738 36.8051 74.1533 37.0011 74.508C37.1971 74.8627 37.4585 75.1333 37.7851 75.32C38.1211 75.5067 38.4991 75.6 38.9191 75.6ZM49.6799 76.188V71.008H46.8099L46.7679 72.212C46.7492 72.6413 46.7212 73.0567 46.6839 73.458C46.6465 73.85 46.5859 74.214 46.5019 74.55C46.4179 74.8767 46.2965 75.1473 46.1379 75.362C45.9792 75.5767 45.7692 75.7167 45.5079 75.782L43.7719 75.516C44.0519 75.516 44.2759 75.4273 44.4439 75.25C44.6212 75.0633 44.7565 74.8113 44.8499 74.494C44.9525 74.1673 45.0272 73.7987 45.0739 73.388C45.1205 72.968 45.1532 72.534 45.1719 72.086L45.2699 69.524H51.4299V76.188H49.6799ZM43.5059 78.666V75.516H52.5359V78.666H50.8979V77H45.1299V78.666H43.5059ZM58.6349 77V75.488L58.5369 75.166V72.52C58.5369 72.0067 58.3829 71.61 58.0749 71.33C57.7669 71.0407 57.3002 70.896 56.6749 70.896C56.2549 70.896 55.8395 70.9613 55.4289 71.092C55.0275 71.2227 54.6869 71.4047 54.4069 71.638L53.7209 70.364C54.1222 70.056 54.5982 69.8273 55.1489 69.678C55.7089 69.5193 56.2875 69.44 56.8849 69.44C57.9675 69.44 58.8029 69.7013 59.3909 70.224C59.9882 70.7373 60.2869 71.5353 60.2869 72.618V77H58.6349ZM56.2829 77.098C55.7229 77.098 55.2329 77.0047 54.8129 76.818C54.3929 76.622 54.0662 76.356 53.8329 76.02C53.6089 75.6747 53.4969 75.2873 53.4969 74.858C53.4969 74.438 53.5949 74.06 53.7909 73.724C53.9962 73.388 54.3275 73.122 54.7849 72.926C55.2422 72.73 55.8489 72.632 56.6049 72.632H58.7749V73.794H56.7309C56.1335 73.794 55.7322 73.892 55.5269 74.088C55.3215 74.2747 55.2189 74.508 55.2189 74.788C55.2189 75.1053 55.3449 75.3573 55.5969 75.544C55.8489 75.7307 56.1989 75.824 56.6469 75.824C57.0762 75.824 57.4589 75.726 57.7949 75.53C58.1402 75.334 58.3875 75.0447 58.5369 74.662L58.8309 75.712C58.6629 76.1507 58.3595 76.4913 57.9209 76.734C57.4915 76.9767 56.9455 77.098 56.2829 77.098ZM64.0064 77V70.588L64.4124 71.008H61.3744V69.524H68.3744V71.008H65.3504L65.7564 70.588V77H64.0064ZM73.3958 71.988C74.3571 71.988 75.0898 72.2027 75.5938 72.632C76.0978 73.0613 76.3498 73.668 76.3498 74.452C76.3498 75.264 76.0698 75.8987 75.5098 76.356C74.9498 76.804 74.1611 77.0233 73.1438 77.014L69.6438 77V69.524H71.3938V71.974L73.3958 71.988ZM72.9898 75.726C73.5031 75.7353 73.8951 75.628 74.1658 75.404C74.4364 75.18 74.5718 74.8533 74.5718 74.424C74.5718 73.9947 74.4364 73.6867 74.1658 73.5C73.9044 73.304 73.5124 73.2013 72.9898 73.192L71.3938 73.178V75.712L72.9898 75.726Z" fill="white"/>
<path d="M40.6 42.4444V40.3333H25.2221L25.2 48.7778C25.2 51.1211 27.1581 53 29.6 53H60.4C62.842 53 64.8 51.1211 64.8 48.7778V40.3333H49.4V42.4444H40.6ZM62.6 23.4444H53.7781V19.2222L49.3781 15H40.5781L36.1779 19.2222V23.4444H27.4C24.98 23.4444 23 25.3444 23 27.6667V34C23 36.3433 24.9581 38.2222 27.4 38.2222H40.6V34H49.4V38.2222H62.6C65.02 38.2222 67 36.3222 67 34V27.6667C67 25.3444 65.02 23.4444 62.6 23.4444ZM49.4 23.4444H40.6V19.2222H49.4V23.4444Z" fill="white"/>
</svg>
