<svg width="90" height="90" viewBox="0 0 90 90" fill="none" xmlns="http://www.w3.org/2000/svg">
<path d="M5.65748 77V67.2H14.3235V77H12.5315V68.292L12.9515 68.74H7.02948L7.44948 68.292V77H5.65748ZM21.0348 77.098C20.4282 77.098 19.8728 76.958 19.3688 76.678C18.8742 76.398 18.4775 75.978 18.1788 75.418C17.8895 74.8487 17.7448 74.13 17.7448 73.262C17.7448 72.3847 17.8848 71.666 18.1648 71.106C18.4542 70.546 18.8462 70.1307 19.3408 69.86C19.8355 69.58 20.4002 69.44 21.0348 69.44C21.7722 69.44 22.4208 69.5987 22.9808 69.916C23.5502 70.2333 23.9982 70.6767 24.3248 71.246C24.6608 71.8153 24.8288 72.4873 24.8288 73.262C24.8288 74.0367 24.6608 74.7133 24.3248 75.292C23.9982 75.8613 23.5502 76.3047 22.9808 76.622C22.4208 76.9393 21.7722 77.098 21.0348 77.098ZM16.8908 79.716V69.524H18.5568V71.288L18.5008 73.276L18.6408 75.264V79.716H16.8908ZM20.8388 75.6C21.2588 75.6 21.6322 75.5067 21.9588 75.32C22.2948 75.1333 22.5608 74.8627 22.7568 74.508C22.9528 74.1533 23.0508 73.738 23.0508 73.262C23.0508 72.7767 22.9528 72.3613 22.7568 72.016C22.5608 71.6613 22.2948 71.3907 21.9588 71.204C21.6322 71.0173 21.2588 70.924 20.8388 70.924C20.4188 70.924 20.0408 71.0173 19.7048 71.204C19.3688 71.3907 19.1028 71.6613 18.9068 72.016C18.7108 72.3613 18.6128 72.7767 18.6128 73.262C18.6128 73.738 18.7108 74.1533 18.9068 74.508C19.1028 74.8627 19.3688 75.1333 19.7048 75.32C20.0408 75.5067 20.4188 75.6 20.8388 75.6ZM29.9025 77.098C29.1372 77.098 28.4559 76.9347 27.8585 76.608C27.2612 76.272 26.7899 75.8147 26.4445 75.236C26.0992 74.6573 25.9265 73.9993 25.9265 73.262C25.9265 72.5153 26.0992 71.8573 26.4445 71.288C26.7899 70.7093 27.2612 70.2567 27.8585 69.93C28.4559 69.6033 29.1372 69.44 29.9025 69.44C30.6772 69.44 31.3632 69.6033 31.9605 69.93C32.5672 70.2567 33.0385 70.7047 33.3745 71.274C33.7199 71.8433 33.8925 72.506 33.8925 73.262C33.8925 73.9993 33.7199 74.6573 33.3745 75.236C33.0385 75.8147 32.5672 76.272 31.9605 76.608C31.3632 76.9347 30.6772 77.098 29.9025 77.098ZM29.9025 75.6C30.3319 75.6 30.7145 75.5067 31.0505 75.32C31.3865 75.1333 31.6479 74.8627 31.8345 74.508C32.0305 74.1533 32.1285 73.738 32.1285 73.262C32.1285 72.7767 32.0305 72.3613 31.8345 72.016C31.6479 71.6613 31.3865 71.3907 31.0505 71.204C30.7145 71.0173 30.3365 70.924 29.9165 70.924C29.4872 70.924 29.1045 71.0173 28.7685 71.204C28.4419 71.3907 28.1805 71.6613 27.9845 72.016C27.7885 72.3613 27.6905 72.7767 27.6905 73.262C27.6905 73.738 27.7885 74.1533 27.9845 74.508C28.1805 74.8627 28.4419 75.1333 28.7685 75.32C29.1045 75.5067 29.4825 75.6 29.9025 75.6ZM35.6213 77V69.524H42.7893V77H41.0533V70.602L41.4593 71.008H36.9653L37.3713 70.602V77H35.6213ZM45.1506 77V69.524H46.9006V74.452L51.0306 69.524H52.6266V77H50.8766V72.072L46.7606 77H45.1506ZM58.3827 77.098C57.5987 77.098 56.8987 76.9347 56.2827 76.608C55.676 76.272 55.2 75.8147 54.8547 75.236C54.5094 74.6573 54.3367 73.9993 54.3367 73.262C54.3367 72.5153 54.5094 71.8573 54.8547 71.288C55.2 70.7093 55.676 70.2567 56.2827 69.93C56.8987 69.6033 57.5987 69.44 58.3827 69.44C59.1107 69.44 59.75 69.5893 60.3007 69.888C60.8607 70.1773 61.2854 70.6067 61.5747 71.176L60.2307 71.96C60.0067 71.6053 59.7314 71.344 59.4047 71.176C59.0874 71.008 58.742 70.924 58.3687 70.924C57.9394 70.924 57.552 71.0173 57.2067 71.204C56.8614 71.3907 56.5907 71.6613 56.3947 72.016C56.1987 72.3613 56.1007 72.7767 56.1007 73.262C56.1007 73.7473 56.1987 74.1673 56.3947 74.522C56.5907 74.8673 56.8614 75.1333 57.2067 75.32C57.552 75.5067 57.9394 75.6 58.3687 75.6C58.742 75.6 59.0874 75.516 59.4047 75.348C59.7314 75.18 60.0067 74.9187 60.2307 74.564L61.5747 75.348C61.2854 75.908 60.8607 76.342 60.3007 76.65C59.75 76.9487 59.1107 77.098 58.3827 77.098ZM67.6515 77V75.488L67.5535 75.166V72.52C67.5535 72.0067 67.3995 71.61 67.0915 71.33C66.7835 71.0407 66.3168 70.896 65.6915 70.896C65.2715 70.896 64.8561 70.9613 64.4455 71.092C64.0441 71.2227 63.7035 71.4047 63.4235 71.638L62.7375 70.364C63.1388 70.056 63.6148 69.8273 64.1655 69.678C64.7255 69.5193 65.3041 69.44 65.9015 69.44C66.9841 69.44 67.8195 69.7013 68.4075 70.224C69.0048 70.7373 69.3035 71.5353 69.3035 72.618V77H67.6515ZM65.2995 77.098C64.7395 77.098 64.2495 77.0047 63.8295 76.818C63.4095 76.622 63.0828 76.356 62.8495 76.02C62.6255 75.6747 62.5135 75.2873 62.5135 74.858C62.5135 74.438 62.6115 74.06 62.8075 73.724C63.0128 73.388 63.3441 73.122 63.8015 72.926C64.2588 72.73 64.8655 72.632 65.6215 72.632H67.7915V73.794H65.7475C65.1501 73.794 64.7488 73.892 64.5435 74.088C64.3381 74.2747 64.2355 74.508 64.2355 74.788C64.2355 75.1053 64.3615 75.3573 64.6135 75.544C64.8655 75.7307 65.2155 75.824 65.6635 75.824C66.0928 75.824 66.4755 75.726 66.8115 75.53C67.1568 75.334 67.4041 75.0447 67.5535 74.662L67.8475 75.712C67.6795 76.1507 67.3761 76.4913 66.9375 76.734C66.5081 76.9767 65.9621 77.098 65.2995 77.098ZM73.023 77V70.588L73.429 71.008H70.391V69.524H77.391V71.008H74.367L74.773 70.588V77H73.023ZM82.4124 71.988C83.3737 71.988 84.1064 72.2027 84.6104 72.632C85.1144 73.0613 85.3664 73.668 85.3664 74.452C85.3664 75.264 85.0864 75.8987 84.5264 76.356C83.9664 76.804 83.1777 77.0233 82.1604 77.014L78.6604 77V69.524H80.4104V71.974L82.4124 71.988ZM82.0064 75.726C82.5197 75.7353 82.9117 75.628 83.1824 75.404C83.453 75.18 83.5884 74.8533 83.5884 74.424C83.5884 73.9947 83.453 73.6867 83.1824 73.5C82.921 73.304 82.529 73.2013 82.0064 73.192L80.4104 73.178V75.712L82.0064 75.726Z" fill="white"/>
<path d="M61.5587 15H39.4942C37.0381 15 35.0507 16.9328 35.0507 19.3215V31.4411L24.6562 41.4214C24.3447 41.721 24.1318 42.1037 24.0444 42.5212C23.957 42.9386 23.9992 43.372 24.1655 43.7661C24.3317 44.1603 24.6146 44.4975 24.9783 44.7349C25.342 44.9725 25.77 45.0995 26.208 45.1V55.8501C26.208 56.4202 26.4409 56.9671 26.8555 57.3703C27.2701 57.7736 27.8324 58 28.4187 58H63.7893C64.3757 58 64.938 57.7736 65.3525 57.3703C65.7671 56.9671 66 56.4202 66 55.8501V19.3193C66 16.9328 64.0148 15 61.5587 15ZM43.7209 43.1887V53.7H30.6293V41.7288L37.2327 35.3885L43.7209 41.8449V43.1887ZM48.3147 30.05H43.8933V25.75H48.3147V30.05ZM57.1573 47.25H52.736V42.9501H57.1573V47.25ZM57.1573 38.65H52.736V34.35H57.1573V38.65ZM57.1573 30.05H52.736V25.75H57.1573V30.05Z" fill="white"/>
<path d="M35.0505 42.95H39.4719V47.2499H35.0505V42.95Z" fill="white"/>
</svg>
