<svg width="90" height="93" viewBox="0 0 90 93" fill="none" xmlns="http://www.w3.org/2000/svg">
<path d="M19.5668 74.172L20.0708 73.032C20.4308 73.28 20.8228 73.472 21.2468 73.608C21.6788 73.736 22.1068 73.804 22.5308 73.812C22.9548 73.82 23.3388 73.772 23.6828 73.668C24.0348 73.564 24.3148 73.408 24.5228 73.2C24.7308 72.992 24.8348 72.732 24.8348 72.42C24.8348 72.044 24.6788 71.764 24.3668 71.58C24.0628 71.388 23.6468 71.292 23.1188 71.292H21.1628V70.068H22.9988C23.4708 70.068 23.8348 69.972 24.0908 69.78C24.3548 69.588 24.4868 69.328 24.4868 69C24.4868 68.728 24.3988 68.504 24.2228 68.328C24.0548 68.152 23.8228 68.02 23.5268 67.932C23.2388 67.844 22.9108 67.804 22.5428 67.812C22.1828 67.812 21.8068 67.868 21.4148 67.98C21.0228 68.084 20.6508 68.24 20.2988 68.448L19.8068 67.188C20.3348 66.908 20.8868 66.712 21.4628 66.6C22.0468 66.488 22.6108 66.456 23.1548 66.504C23.6988 66.552 24.1868 66.676 24.6188 66.876C25.0588 67.076 25.4108 67.34 25.6748 67.668C25.9388 67.988 26.0708 68.368 26.0708 68.808C26.0708 69.208 25.9628 69.564 25.7468 69.876C25.5388 70.18 25.2508 70.416 24.8828 70.584C24.5148 70.752 24.0868 70.836 23.5988 70.836L23.6588 70.452C24.2108 70.452 24.6908 70.548 25.0988 70.74C25.5148 70.924 25.8348 71.18 26.0588 71.508C26.2908 71.836 26.4068 72.216 26.4068 72.648C26.4068 73.056 26.3028 73.42 26.0948 73.74C25.8868 74.052 25.6028 74.316 25.2428 74.532C24.8828 74.74 24.4708 74.896 24.0068 75C23.5428 75.096 23.0548 75.132 22.5428 75.108C22.0308 75.084 21.5188 74.996 21.0068 74.844C20.5028 74.692 20.0228 74.468 19.5668 74.172ZM31.9077 75V73.704L31.8237 73.428V71.16C31.8237 70.72 31.6917 70.38 31.4277 70.14C31.1637 69.892 30.7637 69.768 30.2277 69.768C29.8677 69.768 29.5117 69.824 29.1597 69.936C28.8157 70.048 28.5237 70.204 28.2837 70.404L27.6957 69.312C28.0397 69.048 28.4477 68.852 28.9197 68.724C29.3997 68.588 29.8957 68.52 30.4077 68.52C31.3357 68.52 32.0517 68.744 32.5557 69.192C33.0677 69.632 33.3237 70.316 33.3237 71.244V75H31.9077ZM29.8917 75.084C29.4117 75.084 28.9917 75.004 28.6317 74.844C28.2717 74.676 27.9917 74.448 27.7917 74.16C27.5997 73.864 27.5037 73.532 27.5037 73.164C27.5037 72.804 27.5877 72.48 27.7557 72.192C27.9317 71.904 28.2157 71.676 28.6077 71.508C28.9997 71.34 29.5197 71.256 30.1677 71.256H32.0277V72.252H30.2757C29.7637 72.252 29.4197 72.336 29.2437 72.504C29.0677 72.664 28.9797 72.864 28.9797 73.104C28.9797 73.376 29.0877 73.592 29.3037 73.752C29.5197 73.912 29.8197 73.992 30.2037 73.992C30.5717 73.992 30.8997 73.908 31.1877 73.74C31.4837 73.572 31.6957 73.324 31.8237 72.996L32.0757 73.896C31.9317 74.272 31.6717 74.564 31.2957 74.772C30.9277 74.98 30.4597 75.084 29.8917 75.084ZM38.2399 75.12C37.7119 75.12 37.2399 75.04 36.8239 74.88C36.4079 74.72 36.0479 74.476 35.7439 74.148C35.4479 73.812 35.2199 73.388 35.0599 72.876C34.8999 72.364 34.8199 71.756 34.8199 71.052C34.8199 70.54 34.8639 70.072 34.9519 69.648C35.0399 69.224 35.1719 68.844 35.3479 68.508C35.5239 68.164 35.7439 67.86 36.0079 67.596C36.2799 67.332 36.5959 67.112 36.9559 66.936C37.3159 66.76 37.7239 66.624 38.1799 66.528L41.1559 65.892L41.3719 67.236L38.6719 67.788C38.5199 67.82 38.3359 67.868 38.1199 67.932C37.9119 67.988 37.6959 68.076 37.4719 68.196C37.2559 68.308 37.0519 68.472 36.8599 68.688C36.6759 68.896 36.5239 69.168 36.4039 69.504C36.2919 69.832 36.2359 70.244 36.2359 70.74C36.2359 70.892 36.2399 71.008 36.2479 71.088C36.2639 71.16 36.2759 71.24 36.2839 71.328C36.2999 71.408 36.3079 71.528 36.3079 71.688L35.7439 71.1C35.9039 70.692 36.1239 70.344 36.4039 70.056C36.6919 69.76 37.0239 69.536 37.3999 69.384C37.7839 69.224 38.1999 69.144 38.6479 69.144C39.2479 69.144 39.7799 69.268 40.2439 69.516C40.7079 69.764 41.0719 70.112 41.3359 70.56C41.5999 71.008 41.7319 71.516 41.7319 72.084C41.7319 72.676 41.5879 73.2 41.2999 73.656C41.0119 74.112 40.6039 74.472 40.0759 74.736C39.5559 74.992 38.9439 75.12 38.2399 75.12ZM38.3599 73.908C38.7199 73.908 39.0359 73.832 39.3079 73.68C39.5879 73.52 39.8039 73.304 39.9559 73.032C40.1159 72.76 40.1959 72.456 40.1959 72.12C40.1959 71.784 40.1159 71.492 39.9559 71.244C39.8039 70.988 39.5879 70.784 39.3079 70.632C39.0359 70.48 38.7119 70.404 38.3359 70.404C37.9759 70.404 37.6519 70.476 37.3639 70.62C37.0839 70.764 36.8639 70.964 36.7039 71.22C36.5519 71.468 36.4759 71.756 36.4759 72.084C36.4759 72.42 36.5559 72.728 36.7159 73.008C36.8759 73.288 37.0959 73.508 37.3759 73.668C37.6639 73.828 37.9919 73.908 38.3599 73.908ZM46.7358 75.084C46.2158 75.084 45.7398 74.964 45.3078 74.724C44.8838 74.484 44.5438 74.124 44.2878 73.644C44.0398 73.156 43.9158 72.54 43.9158 71.796C43.9158 71.044 44.0358 70.428 44.2758 69.948C44.5238 69.468 44.8598 69.112 45.2838 68.88C45.7078 68.64 46.1918 68.52 46.7358 68.52C47.3678 68.52 47.9238 68.656 48.4038 68.928C48.8918 69.2 49.2758 69.58 49.5558 70.068C49.8438 70.556 49.9878 71.132 49.9878 71.796C49.9878 72.46 49.8438 73.04 49.5558 73.536C49.2758 74.024 48.8918 74.404 48.4038 74.676C47.9238 74.948 47.3678 75.084 46.7358 75.084ZM43.1838 77.328V68.592H44.6118V70.104L44.5638 71.808L44.6838 73.512V77.328H43.1838ZM46.5678 73.8C46.9278 73.8 47.2478 73.72 47.5278 73.56C47.8158 73.4 48.0438 73.168 48.2118 72.864C48.3798 72.56 48.4638 72.204 48.4638 71.796C48.4638 71.38 48.3798 71.024 48.2118 70.728C48.0438 70.424 47.8158 70.192 47.5278 70.032C47.2478 69.872 46.9278 69.792 46.5678 69.792C46.2078 69.792 45.8838 69.872 45.5958 70.032C45.3078 70.192 45.0798 70.424 44.9118 70.728C44.7438 71.024 44.6598 71.38 44.6598 71.796C44.6598 72.204 44.7438 72.56 44.9118 72.864C45.0798 73.168 45.3078 73.4 45.5958 73.56C45.8838 73.72 46.2078 73.8 46.5678 73.8ZM55.2866 75V73.704L55.2026 73.428V71.16C55.2026 70.72 55.0706 70.38 54.8066 70.14C54.5426 69.892 54.1426 69.768 53.6066 69.768C53.2466 69.768 52.8906 69.824 52.5386 69.936C52.1946 70.048 51.9026 70.204 51.6626 70.404L51.0746 69.312C51.4186 69.048 51.8266 68.852 52.2986 68.724C52.7786 68.588 53.2746 68.52 53.7866 68.52C54.7146 68.52 55.4306 68.744 55.9346 69.192C56.4466 69.632 56.7026 70.316 56.7026 71.244V75H55.2866ZM53.2706 75.084C52.7906 75.084 52.3706 75.004 52.0106 74.844C51.6506 74.676 51.3706 74.448 51.1706 74.16C50.9786 73.864 50.8826 73.532 50.8826 73.164C50.8826 72.804 50.9666 72.48 51.1346 72.192C51.3106 71.904 51.5946 71.676 51.9866 71.508C52.3786 71.34 52.8986 71.256 53.5466 71.256H55.4066V72.252H53.6546C53.1426 72.252 52.7986 72.336 52.6226 72.504C52.4466 72.664 52.3586 72.864 52.3586 73.104C52.3586 73.376 52.4666 73.592 52.6826 73.752C52.8986 73.912 53.1986 73.992 53.5826 73.992C53.9506 73.992 54.2786 73.908 54.5666 73.74C54.8626 73.572 55.0746 73.324 55.2026 72.996L55.4546 73.896C55.3106 74.272 55.0506 74.564 54.6746 74.772C54.3066 74.98 53.8386 75.084 53.2706 75.084ZM59.8908 75V69.504L60.2388 69.864H57.6348V68.592H63.6348V69.864H61.0428L61.3908 69.504V75H59.8908ZM67.9388 70.704C68.7628 70.704 69.3908 70.888 69.8228 71.256C70.2548 71.624 70.4708 72.144 70.4708 72.816C70.4708 73.512 70.2308 74.056 69.7508 74.448C69.2708 74.832 68.5948 75.02 67.7228 75.012L64.7228 75V68.592H66.2228V70.692L67.9388 70.704ZM67.5908 73.908C68.0308 73.916 68.3668 73.824 68.5988 73.632C68.8308 73.44 68.9468 73.16 68.9468 72.792C68.9468 72.424 68.8308 72.16 68.5988 72C68.3748 71.832 68.0388 71.744 67.5908 71.736L66.2228 71.724V73.896L67.5908 73.908ZM12.0017 89.988L12.0737 88.728C12.1297 88.736 12.1817 88.744 12.2297 88.752C12.2777 88.76 12.3217 88.764 12.3617 88.764C12.6097 88.764 12.8017 88.688 12.9377 88.536C13.0737 88.384 13.1737 88.18 13.2377 87.924C13.3097 87.66 13.3577 87.368 13.3817 87.048C13.4137 86.72 13.4377 86.392 13.4537 86.064L13.5617 83.592H18.7457V90H17.2457V84.456L17.5937 84.864H14.5457L14.8697 84.444L14.7857 86.136C14.7617 86.704 14.7137 87.232 14.6417 87.72C14.5777 88.2 14.4737 88.62 14.3297 88.98C14.1937 89.34 14.0017 89.62 13.7537 89.82C13.5137 90.02 13.2057 90.12 12.8297 90.12C12.7097 90.12 12.5777 90.108 12.4337 90.084C12.2977 90.06 12.1537 90.028 12.0017 89.988ZM20.7658 90V83.592H22.2658V87.816L25.8058 83.592H27.1738V90H25.6738V85.776L22.1458 90H20.7658ZM29.1916 90V83.592H30.6916V88.728H33.7516V83.592H35.2516V90H29.1916ZM34.8196 91.428V89.964L35.1676 90H33.7516V88.728H36.2236V91.428H34.8196ZM40.5468 90.084C39.8348 90.084 39.2108 89.944 38.6748 89.664C38.1468 89.376 37.7348 88.984 37.4388 88.488C37.1508 87.992 37.0068 87.428 37.0068 86.796C37.0068 86.156 37.1468 85.592 37.4268 85.104C37.7148 84.608 38.1068 84.22 38.6028 83.94C39.1068 83.66 39.6788 83.52 40.3188 83.52C40.9428 83.52 41.4988 83.656 41.9868 83.928C42.4748 84.2 42.8588 84.584 43.1388 85.08C43.4188 85.576 43.5588 86.16 43.5588 86.832C43.5588 86.896 43.5548 86.968 43.5468 87.048C43.5468 87.128 43.5428 87.204 43.5348 87.276H38.1948V86.28H42.7428L42.1548 86.592C42.1628 86.224 42.0868 85.9 41.9268 85.62C41.7668 85.34 41.5468 85.12 41.2668 84.96C40.9948 84.8 40.6788 84.72 40.3188 84.72C39.9508 84.72 39.6268 84.8 39.3468 84.96C39.0748 85.12 38.8588 85.344 38.6988 85.632C38.5468 85.912 38.4708 86.244 38.4708 86.628V86.868C38.4708 87.252 38.5588 87.592 38.7348 87.888C38.9108 88.184 39.1588 88.412 39.4788 88.572C39.7988 88.732 40.1668 88.812 40.5828 88.812C40.9428 88.812 41.2668 88.756 41.5548 88.644C41.8428 88.532 42.0988 88.356 42.3228 88.116L43.1268 89.04C42.8388 89.376 42.4748 89.636 42.0348 89.82C41.6028 89.996 41.1068 90.084 40.5468 90.084ZM45.1994 90V83.592H46.6994V86.196H49.9274V83.592H51.4274V90H49.9274V87.468H46.6994V90H45.1994ZM55.3837 90.108C55.9757 90.108 56.4997 90.024 56.9557 89.856C57.4197 89.688 57.7837 89.456 58.0477 89.16C58.3117 88.856 58.4437 88.508 58.4437 88.116C58.4437 87.628 58.2397 87.244 57.8317 86.964C57.4237 86.676 56.8637 86.532 56.1517 86.532L56.1037 86.856C56.5197 86.856 56.8877 86.788 57.2077 86.652C57.5357 86.516 57.7917 86.328 57.9757 86.088C58.1677 85.84 58.2637 85.564 58.2637 85.26C58.2637 84.892 58.1317 84.572 57.8677 84.3C57.6037 84.028 57.2437 83.82 56.7877 83.676C56.3317 83.532 55.8117 83.472 55.2277 83.496C54.8437 83.504 54.4557 83.56 54.0637 83.664C53.6797 83.76 53.2837 83.9 52.8757 84.084L53.2597 85.188C53.6117 85.036 53.9557 84.92 54.2917 84.84C54.6357 84.76 54.9677 84.72 55.2877 84.72C55.5917 84.72 55.8517 84.752 56.0677 84.816C56.2837 84.872 56.4477 84.96 56.5597 85.08C56.6797 85.192 56.7397 85.324 56.7397 85.476C56.7397 85.628 56.6917 85.76 56.5957 85.872C56.4997 85.984 56.3597 86.068 56.1757 86.124C55.9997 86.18 55.7837 86.208 55.5277 86.208H54.4117V87.216H55.6477C56.0557 87.216 56.3677 87.284 56.5837 87.42C56.8077 87.548 56.9197 87.74 56.9197 87.996C56.9197 88.172 56.8517 88.328 56.7157 88.464C56.5877 88.6 56.4037 88.704 56.1637 88.776C55.9237 88.84 55.6357 88.872 55.2997 88.872C54.9077 88.872 54.5157 88.824 54.1237 88.728C53.7317 88.632 53.3797 88.496 53.0677 88.32L52.6477 89.436C53.0317 89.652 53.4597 89.82 53.9317 89.94C54.4117 90.052 54.8957 90.108 55.3837 90.108ZM59.9885 90V83.592H61.4885V87.816L65.0285 83.592H66.3965V90H64.8965V85.776L61.3685 90H59.9885ZM68.4143 90V83.592H69.9143V86.076H71.8223V87.432H69.9143V90H68.4143ZM74.2703 90.084C73.6303 90.084 73.0583 89.944 72.5543 89.664C72.0583 89.376 71.6663 88.984 71.3783 88.488C71.0903 87.992 70.9463 87.428 70.9463 86.796C70.9463 86.156 71.0903 85.588 71.3783 85.092C71.6663 84.596 72.0583 84.212 72.5543 83.94C73.0583 83.66 73.6303 83.52 74.2703 83.52C74.9183 83.52 75.4903 83.66 75.9863 83.94C76.4903 84.212 76.8863 84.596 77.1743 85.092C77.4623 85.588 77.6063 86.156 77.6063 86.796C77.6063 87.428 77.4623 87.996 77.1743 88.5C76.8863 88.996 76.4903 89.384 75.9863 89.664C75.4903 89.944 74.9183 90.084 74.2703 90.084ZM74.2703 88.812C74.6303 88.812 74.9463 88.728 75.2183 88.56C75.4983 88.392 75.7183 88.16 75.8783 87.864C76.0383 87.568 76.1183 87.212 76.1183 86.796C76.1183 86.38 76.0383 86.024 75.8783 85.728C75.7183 85.424 75.4983 85.192 75.2183 85.032C74.9463 84.872 74.6343 84.792 74.2823 84.792C73.9303 84.792 73.6143 84.872 73.3343 85.032C73.0543 85.192 72.8343 85.424 72.6743 85.728C72.5143 86.024 72.4343 86.38 72.4343 86.796C72.4343 87.212 72.5143 87.568 72.6743 87.864C72.8343 88.16 73.0543 88.392 73.3343 88.56C73.6143 88.728 73.9263 88.812 74.2703 88.812Z" fill="white"/>
<g clip-path="url(#clip0_1357_134)">
<path d="M40.4375 37.2329V42.9998H45.5C46.6935 42.9998 47.8381 43.4739 48.682 44.3178C49.5259 45.1618 50 46.3064 50 47.4999H23C23 46.3064 23.4741 45.1618 24.318 44.3178C25.1619 43.4739 26.3065 42.9998 27.5 42.9998H32.5625V37.2329C31.4021 36.3995 30.5361 35.2194 30.089 33.8625C29.642 32.5056 29.6369 31.0418 30.0747 29.6819C30.5124 28.3219 31.3703 27.136 32.525 26.2946C33.6796 25.4533 35.0714 25 36.5 25C37.9286 25 39.3204 25.4533 40.475 26.2946C41.6297 27.136 42.4876 28.3219 42.9253 29.6819C43.3631 31.0418 43.358 32.5056 42.911 33.8625C42.4639 35.2194 41.5979 36.3995 40.4375 37.2329ZM23 52V49.7499H50V52H23Z" fill="white"/>
<path d="M64.0375 51.5L69.0219 46.5156C69.7469 45.7906 69.7469 44.7031 69.0219 43.9781C68.75 43.6156 68.2969 43.3438 67.8438 43.3438C67.3906 43.3438 66.9375 43.525 66.575 43.8875L61.5 48.9625L56.5156 43.9781C55.7906 43.2531 54.6125 43.2531 53.9781 43.9781C53.6156 44.25 53.3438 44.7031 53.3438 45.2469C53.3438 45.7906 53.525 46.1531 53.8875 46.5156L58.8719 51.5L53.8875 56.4844C53.6156 56.8469 53.3438 57.3 53.3438 57.8438C53.3438 58.2969 53.525 58.75 53.8875 59.1125C54.25 59.475 54.7031 59.6562 55.1563 59.6562C55.6094 59.6562 56.0625 59.475 56.425 59.1125L61.4094 54.1281L66.3938 59.1125C67.1188 59.8375 68.2969 59.8375 68.9313 59.1125C69.6563 58.3875 69.6563 57.2094 68.9313 56.575L64.0375 51.5Z" fill="white"/>
</g>
<defs>
<clipPath id="clip0_1357_134">
<rect width="50" height="50" fill="white" transform="translate(20 13)"/>
</clipPath>
</defs>
</svg>
