<svg width="90" height="90" viewBox="0 0 90 90" fill="none" xmlns="http://www.w3.org/2000/svg">
<path fill-rule="evenodd" clip-rule="evenodd" d="M27.3184 33.0028C29.705 33.0028 31.2932 31.4187 31.2932 29.0382L31.2816 27.7876C31.2816 27.7876 30.6908 24.2427 35.4322 24.2427L54.6316 24.375V29.4321C55.0798 29.8763 55.6859 30.1256 56.3178 30.1256C56.9496 30.1256 57.5557 29.8763 58.0039 29.4321L65.4202 22.0376C65.8655 21.5905 66.1155 20.9859 66.1155 20.3557C66.1155 19.7255 65.8655 19.1209 65.4202 18.6738L58.0039 10.8395C57.5557 10.3953 56.9496 10.146 56.3178 10.146C55.6859 10.146 55.0798 10.3953 54.6316 10.8395V16.1438C54.1675 16.0087 36.0318 15.9311 36.0318 15.9311C25.3353 15.9311 22.9949 22.9145 22.9949 25.7262V28.6903C22.9949 29.8341 23.4504 30.931 24.2612 31.7397C25.072 32.5485 26.1717 33.0028 27.3184 33.0028V33.0028Z" fill="white"/>
<path fill-rule="evenodd" clip-rule="evenodd" d="M61.7942 33.1206C59.4076 33.1206 57.4706 34.7996 57.4706 37.1801L57.4764 39.9315C57.3467 40.9579 55.6173 41.6277 53.0808 41.6277H34.2331L34.2274 37.1456C33.7792 36.7014 33.173 36.4521 32.5412 36.4521C31.9094 36.4521 31.3032 36.7014 30.855 37.1456L23.4416 44.5401C22.9963 44.9872 22.7463 45.5918 22.7463 46.222C22.7463 46.8522 22.9963 47.4568 23.4416 47.9039L30.855 55.2984C31.0762 55.5197 31.339 55.6953 31.6283 55.8151C31.9177 55.9349 32.2279 55.9966 32.5412 55.9966C32.8545 55.9966 33.1647 55.9349 33.454 55.8151C33.7434 55.6953 34.0062 55.5197 34.2274 55.2984L34.2331 49.9767H53.0808C63.7772 49.9767 66.1177 42.956 66.1177 40.1414V37.1772C66.1177 34.7996 64.1808 33.1206 61.7942 33.1206Z" fill="white"/>
<path d="M25.4376 77.14C24.6723 77.14 23.9676 77.014 23.3236 76.762C22.6796 76.51 22.1196 76.16 21.6436 75.712C21.1676 75.2547 20.799 74.7227 20.5376 74.116C20.2763 73.5 20.1456 72.828 20.1456 72.1C20.1456 71.372 20.2763 70.7047 20.5376 70.098C20.799 69.482 21.1676 68.95 21.6436 68.502C22.1196 68.0447 22.6796 67.69 23.3236 67.438C23.9676 67.186 24.6676 67.06 25.4236 67.06C26.189 67.06 26.889 67.186 27.5236 67.438C28.1676 67.69 28.7276 68.0447 29.2036 68.502C29.6796 68.95 30.0483 69.482 30.3096 70.098C30.571 70.7047 30.7016 71.372 30.7016 72.1C30.7016 72.828 30.571 73.5 30.3096 74.116C30.0483 74.732 29.6796 75.264 29.2036 75.712C28.7276 76.16 28.1676 76.51 27.5236 76.762C26.889 77.014 26.1936 77.14 25.4376 77.14ZM25.4236 75.544C25.9183 75.544 26.3756 75.46 26.7956 75.292C27.2156 75.124 27.5796 74.886 27.8876 74.578C28.1956 74.2607 28.4336 73.8967 28.6016 73.486C28.779 73.066 28.8676 72.604 28.8676 72.1C28.8676 71.596 28.779 71.1387 28.6016 70.728C28.4336 70.308 28.1956 69.944 27.8876 69.636C27.5796 69.3187 27.2156 69.076 26.7956 68.908C26.3756 68.74 25.9183 68.656 25.4236 68.656C24.929 68.656 24.4716 68.74 24.0516 68.908C23.641 69.076 23.277 69.3187 22.9596 69.636C22.6516 69.944 22.409 70.308 22.2316 70.728C22.0636 71.1387 21.9796 71.596 21.9796 72.1C21.9796 72.5947 22.0636 73.052 22.2316 73.472C22.409 73.892 22.6516 74.2607 22.9596 74.578C23.2676 74.886 23.6316 75.124 24.0516 75.292C24.4716 75.46 24.929 75.544 25.4236 75.544ZM36.0878 77.14C35.4718 77.14 34.9211 77.0467 34.4358 76.86C33.9505 76.6733 33.5305 76.3887 33.1758 76.006C32.8305 75.614 32.5645 75.1193 32.3778 74.522C32.1911 73.9247 32.0978 73.2153 32.0978 72.394C32.0978 71.7967 32.1491 71.2507 32.2518 70.756C32.3545 70.2613 32.5085 69.818 32.7138 69.426C32.9191 69.0247 33.1758 68.67 33.4838 68.362C33.8011 68.054 34.1698 67.7973 34.5898 67.592C35.0098 67.3867 35.4858 67.228 36.0178 67.116L39.4898 66.374L39.7418 67.942L36.5918 68.586C36.4145 68.6233 36.1998 68.6793 35.9478 68.754C35.7051 68.8193 35.4531 68.922 35.1918 69.062C34.9398 69.1927 34.7018 69.384 34.4778 69.636C34.2631 69.8787 34.0858 70.196 33.9458 70.588C33.8151 70.9707 33.7498 71.4513 33.7498 72.03C33.7498 72.2073 33.7545 72.3427 33.7638 72.436C33.7825 72.52 33.7965 72.6133 33.8058 72.716C33.8245 72.8093 33.8338 72.9493 33.8338 73.136L33.1758 72.45C33.3625 71.974 33.6191 71.568 33.9458 71.232C34.2818 70.8867 34.6691 70.6253 35.1078 70.448C35.5558 70.2613 36.0411 70.168 36.5638 70.168C37.2638 70.168 37.8845 70.3127 38.4258 70.602C38.9671 70.8913 39.3918 71.2973 39.6998 71.82C40.0078 72.3427 40.1618 72.9353 40.1618 73.598C40.1618 74.2887 39.9938 74.9 39.6578 75.432C39.3218 75.964 38.8458 76.384 38.2298 76.692C37.6231 76.9907 36.9091 77.14 36.0878 77.14ZM36.2278 75.726C36.6478 75.726 37.0165 75.6373 37.3338 75.46C37.6605 75.2733 37.9125 75.0213 38.0898 74.704C38.2765 74.3867 38.3698 74.032 38.3698 73.64C38.3698 73.248 38.2765 72.9073 38.0898 72.618C37.9125 72.3193 37.6605 72.0813 37.3338 71.904C37.0165 71.7267 36.6385 71.638 36.1998 71.638C35.7798 71.638 35.4018 71.722 35.0658 71.89C34.7391 72.058 34.4825 72.2913 34.2958 72.59C34.1185 72.8793 34.0298 73.2153 34.0298 73.598C34.0298 73.99 34.1231 74.3493 34.3098 74.676C34.4965 75.0027 34.7531 75.2593 35.0798 75.446C35.4158 75.6327 35.7985 75.726 36.2278 75.726ZM41.8557 77V69.524H43.6897L46.6997 74.83H45.9717L49.1357 69.524H50.7737L50.7877 77H49.2057V71.4L49.4857 71.582L46.6857 76.216H45.9297L43.1157 71.456L43.4517 71.372V77H41.8557ZM56.621 77.098C55.7903 77.098 55.0623 76.9347 54.437 76.608C53.821 76.272 53.3403 75.8147 52.995 75.236C52.659 74.6573 52.491 73.9993 52.491 73.262C52.491 72.5153 52.6543 71.8573 52.981 71.288C53.317 70.7093 53.7743 70.2567 54.353 69.93C54.941 69.6033 55.6083 69.44 56.355 69.44C57.083 69.44 57.7317 69.5987 58.301 69.916C58.8703 70.2333 59.3183 70.6813 59.645 71.26C59.9717 71.8387 60.135 72.52 60.135 73.304C60.135 73.3787 60.1303 73.4627 60.121 73.556C60.121 73.6493 60.1163 73.738 60.107 73.822H53.877V72.66H59.183L58.497 73.024C58.5063 72.5947 58.4177 72.2167 58.231 71.89C58.0443 71.5633 57.7877 71.3067 57.461 71.12C57.1437 70.9333 56.775 70.84 56.355 70.84C55.9257 70.84 55.5477 70.9333 55.221 71.12C54.9037 71.3067 54.6517 71.568 54.465 71.904C54.2877 72.2307 54.199 72.618 54.199 73.066V73.346C54.199 73.794 54.3017 74.1907 54.507 74.536C54.7123 74.8813 55.0017 75.1473 55.375 75.334C55.7483 75.5207 56.1777 75.614 56.663 75.614C57.083 75.614 57.461 75.5487 57.797 75.418C58.133 75.2873 58.4317 75.082 58.693 74.802L59.631 75.88C59.295 76.272 58.8703 76.5753 58.357 76.79C57.853 76.9953 57.2743 77.098 56.621 77.098ZM62.049 77V69.524H63.799V72.562H67.565V69.524H69.315V77H67.565V74.046H63.799V77H62.049Z" fill="white"/>
</svg>