<svg width="90" height="90" viewBox="0 0 90 90" fill="none" xmlns="http://www.w3.org/2000/svg">
<path d="M16.8069 77V67.2H25.4729V77H23.6809V68.292L24.1009 68.74H18.1789L18.5989 68.292V77H16.8069ZM32.1843 77.098C31.5776 77.098 31.0223 76.958 30.5183 76.678C30.0236 76.398 29.6269 75.978 29.3283 75.418C29.0389 74.8487 28.8943 74.13 28.8943 73.262C28.8943 72.3847 29.0343 71.666 29.3143 71.106C29.6036 70.546 29.9956 70.1307 30.4903 69.86C30.9849 69.58 31.5496 69.44 32.1843 69.44C32.9216 69.44 33.5703 69.5987 34.1303 69.916C34.6996 70.2333 35.1476 70.6767 35.4743 71.246C35.8103 71.8153 35.9783 72.4873 35.9783 73.262C35.9783 74.0367 35.8103 74.7133 35.4743 75.292C35.1476 75.8613 34.6996 76.3047 34.1303 76.622C33.5703 76.9393 32.9216 77.098 32.1843 77.098ZM28.0403 79.716V69.524H29.7063V71.288L29.6503 73.276L29.7903 75.264V79.716H28.0403ZM31.9883 75.6C32.4083 75.6 32.7816 75.5067 33.1083 75.32C33.4443 75.1333 33.7103 74.8627 33.9063 74.508C34.1023 74.1533 34.2003 73.738 34.2003 73.262C34.2003 72.7767 34.1023 72.3613 33.9063 72.016C33.7103 71.6613 33.4443 71.3907 33.1083 71.204C32.7816 71.0173 32.4083 70.924 31.9883 70.924C31.5683 70.924 31.1903 71.0173 30.8543 71.204C30.5183 71.3907 30.2523 71.6613 30.0563 72.016C29.8603 72.3613 29.7623 72.7767 29.7623 73.262C29.7623 73.738 29.8603 74.1533 30.0563 74.508C30.2523 74.8627 30.5183 75.1333 30.8543 75.32C31.1903 75.5067 31.5683 75.6 31.9883 75.6ZM37.7199 77V69.524H39.4699V74.452L43.5999 69.524H45.1959V77H43.4459V72.072L39.3299 77H37.7199ZM47.55 77V69.524H49.3V75.516H52.87V69.524H54.62V77H47.55ZM54.116 78.666V76.958L54.522 77H52.87V75.516H55.754V78.666H54.116ZM60.7977 77.098C59.9671 77.098 59.2391 76.9347 58.6137 76.608C57.9977 76.272 57.5171 75.8147 57.1717 75.236C56.8357 74.6573 56.6677 73.9993 56.6677 73.262C56.6677 72.5153 56.8311 71.8573 57.1577 71.288C57.4937 70.7093 57.9511 70.2567 58.5297 69.93C59.1177 69.6033 59.7851 69.44 60.5317 69.44C61.2597 69.44 61.9084 69.5987 62.4777 69.916C63.0471 70.2333 63.4951 70.6813 63.8217 71.26C64.1484 71.8387 64.3117 72.52 64.3117 73.304C64.3117 73.3787 64.3071 73.4627 64.2977 73.556C64.2977 73.6493 64.2931 73.738 64.2837 73.822H58.0537V72.66H63.3597L62.6737 73.024C62.6831 72.5947 62.5944 72.2167 62.4077 71.89C62.2211 71.5633 61.9644 71.3067 61.6377 71.12C61.3204 70.9333 60.9517 70.84 60.5317 70.84C60.1024 70.84 59.7244 70.9333 59.3977 71.12C59.0804 71.3067 58.8284 71.568 58.6417 71.904C58.4644 72.2307 58.3757 72.618 58.3757 73.066V73.346C58.3757 73.794 58.4784 74.1907 58.6837 74.536C58.8891 74.8813 59.1784 75.1473 59.5517 75.334C59.9251 75.5207 60.3544 75.614 60.8397 75.614C61.2597 75.614 61.6377 75.5487 61.9737 75.418C62.3097 75.2873 62.6084 75.082 62.8697 74.802L63.8077 75.88C63.4717 76.272 63.0471 76.5753 62.5337 76.79C62.0297 76.9953 61.4511 77.098 60.7977 77.098ZM66.2258 77V69.524H73.3938V77H71.6578V70.602L72.0638 71.008H67.5698L67.9758 70.602V77H66.2258Z" fill="white"/>
<g clip-path="url(#clip0_1353_2)">
<path d="M68.75 43H62.5V24.25C62.5 23.9185 62.3683 23.6005 62.1339 23.3661C61.8995 23.1317 61.5815 23 61.25 23H21.25C20.9185 23 20.6005 23.1317 20.3661 23.3661C20.1317 23.6005 20 23.9185 20 24.25V46.75C20 47.0815 20.1317 47.3995 20.3661 47.6339C20.6005 47.8683 20.9185 48 21.25 48H25.1258C25.7375 43.7648 29.3445 40.5 33.75 40.5C38.1555 40.5 41.7625 43.7648 42.3742 48H68.75C69.0815 48 69.3995 47.8683 69.6339 47.6339C69.8683 47.3995 70 47.0815 70 46.75V44.25C70 43.9185 69.8683 43.6005 69.6339 43.3661C69.3995 43.1317 69.0815 43 68.75 43ZM27.5 37.0375C26.6106 37.4849 25.7724 38.0274 25 38.6555V28.625C25 28.4592 25.0658 28.3003 25.1831 28.1831C25.3003 28.0658 25.4592 28 25.625 28H26.875C27.0408 28 27.1997 28.0658 27.3169 28.1831C27.4342 28.3003 27.5 28.4592 27.5 28.625V37.0375ZM35 35.5891C34.5852 35.5508 34.1742 35.5 33.75 35.5C33.3258 35.5 32.9148 35.5508 32.5 35.5891V28.625C32.5 28.4592 32.5658 28.3003 32.6831 28.1831C32.8003 28.0658 32.9592 28 33.125 28H34.375C34.5408 28 34.6997 28.0658 34.8169 28.1831C34.9342 28.3003 35 28.4592 35 28.625V35.5891ZM42.5 38.6555C41.7276 38.0274 40.8894 37.4849 40 37.0375V28.625C40 28.4592 40.0658 28.3003 40.1831 28.1831C40.3003 28.0658 40.4592 28 40.625 28H41.875C42.0408 28 42.1997 28.0658 42.3169 28.1831C42.4342 28.3003 42.5 28.4592 42.5 28.625V38.6555ZM50 43H47.5V28.625C47.5 28.4592 47.5658 28.3003 47.6831 28.1831C47.8003 28.0658 47.9592 28 48.125 28H49.375C49.5408 28 49.6997 28.0658 49.8169 28.1831C49.9342 28.3003 50 28.4592 50 28.625V43ZM57.5 43H55V28.625C55 28.4592 55.0658 28.3003 55.1831 28.1831C55.3003 28.0658 55.4592 28 55.625 28H56.875C57.0408 28 57.1997 28.0658 57.3169 28.1831C57.4342 28.3003 57.5 28.4592 57.5 28.625V43ZM33.75 43C32.5139 43 31.3055 43.3666 30.2777 44.0533C29.2499 44.7401 28.4488 45.7162 27.9758 46.8582C27.5027 48.0003 27.3789 49.2569 27.6201 50.4693C27.8612 51.6817 28.4565 52.7953 29.3306 53.6694C30.2047 54.5435 31.3183 55.1388 32.5307 55.3799C33.7431 55.6211 34.9997 55.4973 36.1418 55.0242C37.2838 54.5512 38.2599 53.7501 38.9467 52.7223C39.6334 51.6945 40 50.4861 40 49.25C40 47.5924 39.3415 46.0027 38.1694 44.8306C36.9973 43.6585 35.4076 43 33.75 43ZM33.75 51.75C33.2555 51.75 32.7722 51.6034 32.3611 51.3287C31.95 51.054 31.6295 50.6635 31.4403 50.2067C31.2511 49.7499 31.2016 49.2472 31.298 48.7623C31.3945 48.2773 31.6326 47.8319 31.9822 47.4822C32.3319 47.1326 32.7773 46.8945 33.2623 46.798C33.7472 46.7016 34.2499 46.7511 34.7067 46.9403C35.1635 47.1295 35.554 47.45 35.8287 47.8611C36.1034 48.2722 36.25 48.7555 36.25 49.25C36.25 49.913 35.9866 50.5489 35.5178 51.0178C35.0489 51.4866 34.413 51.75 33.75 51.75Z" fill="white"/>
</g>
<defs>
<clipPath id="clip0_1353_2">
<rect width="50" height="50" fill="white" transform="translate(20 13)"/>
</clipPath>
</defs>
</svg>
