<svg width="91" height="90" viewBox="0 0 91 90" fill="none" xmlns="http://www.w3.org/2000/svg">
<path d="M9.17799 77V67.2H16.808V68.698H10.97V71.106H13.868C15.044 71.106 15.9353 71.3533 16.542 71.848C17.158 72.3333 17.466 73.0427 17.466 73.976C17.466 74.9373 17.1253 75.684 16.444 76.216C15.772 76.7387 14.82 77 13.588 77H9.17799ZM10.97 75.6H13.49C14.19 75.6 14.722 75.4647 15.086 75.194C15.45 74.9233 15.632 74.5313 15.632 74.018C15.632 73.01 14.918 72.506 13.49 72.506H10.97V75.6ZM23.7989 77V75.488L23.7009 75.166V72.52C23.7009 72.0067 23.5469 71.61 23.2389 71.33C22.9309 71.0407 22.4642 70.896 21.8389 70.896C21.4189 70.896 21.0036 70.9613 20.5929 71.092C20.1916 71.2227 19.8509 71.4047 19.5709 71.638L18.8849 70.364C19.2862 70.056 19.7622 69.8273 20.3129 69.678C20.8729 69.5193 21.4516 69.44 22.0489 69.44C23.1316 69.44 23.9669 69.7013 24.5549 70.224C25.1522 70.7373 25.4509 71.5353 25.4509 72.618V77H23.7989ZM21.4469 77.098C20.8869 77.098 20.3969 77.0047 19.9769 76.818C19.5569 76.622 19.2302 76.356 18.9969 76.02C18.7729 75.6747 18.6609 75.2873 18.6609 74.858C18.6609 74.438 18.7589 74.06 18.9549 73.724C19.1602 73.388 19.4916 73.122 19.9489 72.926C20.4062 72.73 21.0129 72.632 21.7689 72.632H23.9389V73.794H21.8949C21.2976 73.794 20.8962 73.892 20.6909 74.088C20.4856 74.2747 20.3829 74.508 20.3829 74.788C20.3829 75.1053 20.5089 75.3573 20.7609 75.544C21.0129 75.7307 21.3629 75.824 21.8109 75.824C22.2402 75.824 22.6229 75.726 22.9589 75.53C23.3042 75.334 23.5516 75.0447 23.7009 74.662L23.9949 75.712C23.8269 76.1507 23.5236 76.4913 23.0849 76.734C22.6556 76.9767 22.1096 77.098 21.4469 77.098ZM27.6164 77V69.524H33.3564V71.008H28.9604L29.3664 70.616V77H27.6164ZM39.1661 77V75.488L39.0681 75.166V72.52C39.0681 72.0067 38.9141 71.61 38.6061 71.33C38.2981 71.0407 37.8314 70.896 37.2061 70.896C36.7861 70.896 36.3708 70.9613 35.9601 71.092C35.5588 71.2227 35.2181 71.4047 34.9381 71.638L34.2521 70.364C34.6534 70.056 35.1294 69.8273 35.6801 69.678C36.2401 69.5193 36.8188 69.44 37.4161 69.44C38.4988 69.44 39.3341 69.7013 39.9221 70.224C40.5194 70.7373 40.8181 71.5353 40.8181 72.618V77H39.1661ZM36.8141 77.098C36.2541 77.098 35.7641 77.0047 35.3441 76.818C34.9241 76.622 34.5974 76.356 34.3641 76.02C34.1401 75.6747 34.0281 75.2873 34.0281 74.858C34.0281 74.438 34.1261 74.06 34.3221 73.724C34.5274 73.388 34.8588 73.122 35.3161 72.926C35.7734 72.73 36.3801 72.632 37.1361 72.632H39.3061V73.794H37.2621C36.6648 73.794 36.2634 73.892 36.0581 74.088C35.8528 74.2747 35.7501 74.508 35.7501 74.788C35.7501 75.1053 35.8761 75.3573 36.1281 75.544C36.3801 75.7307 36.7301 75.824 37.1781 75.824C37.6074 75.824 37.9901 75.726 38.3261 75.53C38.6714 75.334 38.9188 75.0447 39.0681 74.662L39.3621 75.712C39.1941 76.1507 38.8908 76.4913 38.4521 76.734C38.0228 76.9767 37.4768 77.098 36.8141 77.098ZM51.9016 77L49.7176 73.416L51.1456 72.534L53.9876 77H51.9016ZM48.3036 74.004V72.548H50.8096V74.004H48.3036ZM51.3136 73.472L49.6616 73.276L51.9296 69.524H53.7916L51.3136 73.472ZM44.0056 77H41.9336L44.7616 72.534L46.1896 73.416L44.0056 77ZM48.8216 77H47.0856V69.524H48.8216V77ZM47.6036 74.004H45.1116V72.548H47.6036V74.004ZM44.5936 73.472L42.1156 69.524H43.9776L46.2316 73.276L44.5936 73.472ZM55.2883 77V69.524H57.0383V72.562H60.8043V69.524H62.5543V77H60.8043V74.046H57.0383V77H55.2883ZM64.8996 77V69.524H66.6496V74.452L70.7796 69.524H72.3756V77H70.6256V72.072L66.5096 77H64.8996ZM80.0917 77L77.3897 73.416L78.8177 72.534L82.1497 77H80.0917ZM74.7297 77V69.524H76.4797V77H74.7297ZM75.9617 74.004V72.548H78.4957V74.004H75.9617ZM78.9857 73.472L77.3477 73.276L80.0917 69.524H81.9677L78.9857 73.472Z" fill="white"/>
<path d="M20.4833 40.6693H25.9641L19.3771 34.1688C18.8743 33.6726 18.8743 32.8681 19.3771 32.3721C19.8799 31.876 20.6951 31.876 21.1979 32.3721L28.5844 39.6617L31.087 33.2752C31.2787 32.7856 31.756 32.4629 32.2878 32.4629H52.5436C52.9969 32.4629 53.4168 32.6983 53.6491 33.0823L58.2378 40.6691H68.1046C68.7422 40.6691 69.2837 41.1297 69.3778 41.7519L70.9859 52.3755C71.0412 52.7413 70.9323 53.1126 70.6879 53.3926C70.4433 53.6726 70.0873 53.8337 69.7125 53.8337H64.9559C63.8863 56.1187 61.5317 57.6456 58.928 57.6456C56.3254 57.6456 53.972 56.1185 52.9031 53.8337H36.348C35.2787 56.1187 32.9248 57.6456 30.3214 57.6456C27.7189 57.6456 25.3655 56.1185 24.2968 53.8337H20.4829C19.7719 53.8337 19.1955 53.2649 19.1955 52.5632V41.9396C19.1958 41.2381 19.7722 40.6693 20.4833 40.6693ZM21.7707 51.293H25.1873C25.761 51.293 26.2655 51.6675 26.4243 52.2114C26.9219 53.9149 28.5245 55.1047 30.3216 55.1047C32.1195 55.1047 33.7228 53.9149 34.2209 52.2112C34.3799 51.6673 34.8844 51.293 35.4579 51.293H53.7934C54.3671 51.293 54.8716 51.6675 55.0306 52.2114C55.5282 53.9149 57.131 55.1047 58.928 55.1047C60.7265 55.1047 62.3304 53.9149 62.8289 52.211C62.9879 51.6673 63.4924 51.293 64.0659 51.293H68.2184L66.9952 43.2102H57.5071C57.0537 43.2102 56.6338 42.975 56.4016 42.5909L51.8129 35.0041H33.1702L30.273 42.398C30.0813 42.8875 29.6041 43.2102 29.0723 43.2102H21.7709L21.7707 51.293Z" fill="white"/>
</svg>
