<svg width="90" height="90" viewBox="0 0 90 90" fill="none" xmlns="http://www.w3.org/2000/svg">
<path d="M11.1639 75.12C10.5079 75.12 9.90389 75.012 9.35189 74.796C8.79989 74.58 8.31989 74.28 7.91189 73.896C7.50389 73.504 7.18789 73.048 6.96389 72.528C6.73989 72 6.62789 71.424 6.62789 70.8C6.62789 70.176 6.73989 69.604 6.96389 69.084C7.18789 68.556 7.50389 68.1 7.91189 67.716C8.31989 67.324 8.79989 67.02 9.35189 66.804C9.90389 66.588 10.5039 66.48 11.1519 66.48C11.8079 66.48 12.4079 66.588 12.9519 66.804C13.5039 67.02 13.9839 67.324 14.3919 67.716C14.7999 68.1 15.1159 68.556 15.3399 69.084C15.5639 69.604 15.6759 70.176 15.6759 70.8C15.6759 71.424 15.5639 72 15.3399 72.528C15.1159 73.056 14.7999 73.512 14.3919 73.896C13.9839 74.28 13.5039 74.58 12.9519 74.796C12.4079 75.012 11.8119 75.12 11.1639 75.12ZM11.1519 73.752C11.5759 73.752 11.9679 73.68 12.3279 73.536C12.6879 73.392 12.9999 73.188 13.2639 72.924C13.5279 72.652 13.7319 72.34 13.8759 71.988C14.0279 71.628 14.1039 71.232 14.1039 70.8C14.1039 70.368 14.0279 69.976 13.8759 69.624C13.7319 69.264 13.5279 68.952 13.2639 68.688C12.9999 68.416 12.6879 68.208 12.3279 68.064C11.9679 67.92 11.5759 67.848 11.1519 67.848C10.7279 67.848 10.3359 67.92 9.97589 68.064C9.62389 68.208 9.31189 68.416 9.03989 68.688C8.77589 68.952 8.56789 69.264 8.41589 69.624C8.27189 69.976 8.19989 70.368 8.19989 70.8C8.19989 71.224 8.27189 71.616 8.41589 71.976C8.56789 72.336 8.77589 72.652 9.03989 72.924C9.30389 73.188 9.61589 73.392 9.97589 73.536C10.3359 73.68 10.7279 73.752 11.1519 73.752ZM20.1486 75.084C19.4766 75.084 18.8766 74.944 18.3486 74.664C17.8286 74.376 17.4206 73.984 17.1246 73.488C16.8286 72.992 16.6806 72.428 16.6806 71.796C16.6806 71.156 16.8286 70.592 17.1246 70.104C17.4206 69.608 17.8286 69.22 18.3486 68.94C18.8766 68.66 19.4766 68.52 20.1486 68.52C20.7726 68.52 21.3206 68.648 21.7926 68.904C22.2726 69.152 22.6366 69.52 22.8846 70.008L21.7326 70.68C21.5406 70.376 21.3046 70.152 21.0246 70.008C20.7526 69.864 20.4566 69.792 20.1366 69.792C19.7686 69.792 19.4366 69.872 19.1406 70.032C18.8446 70.192 18.6126 70.424 18.4446 70.728C18.2766 71.024 18.1926 71.38 18.1926 71.796C18.1926 72.212 18.2766 72.572 18.4446 72.876C18.6126 73.172 18.8446 73.4 19.1406 73.56C19.4366 73.72 19.7686 73.8 20.1366 73.8C20.4566 73.8 20.7526 73.728 21.0246 73.584C21.3046 73.44 21.5406 73.216 21.7326 72.912L22.8846 73.584C22.6366 74.064 22.2726 74.436 21.7926 74.7C21.3206 74.956 20.7726 75.084 20.1486 75.084ZM24.2053 75V68.592H27.3373C28.1133 68.592 28.7213 68.736 29.1613 69.024C29.6093 69.312 29.8333 69.72 29.8333 70.248C29.8333 70.768 29.6253 71.176 29.2093 71.472C28.7933 71.76 28.2413 71.904 27.5533 71.904L27.7333 71.532C28.5093 71.532 29.0853 71.676 29.4613 71.964C29.8453 72.244 30.0373 72.656 30.0373 73.2C30.0373 73.768 29.8253 74.212 29.4013 74.532C28.9773 74.844 28.3333 75 27.4693 75H24.2053ZM25.6333 73.908H27.3493C27.7573 73.908 28.0653 73.844 28.2733 73.716C28.4813 73.58 28.5853 73.376 28.5853 73.104C28.5853 72.816 28.4893 72.604 28.2973 72.468C28.1053 72.332 27.8053 72.264 27.3973 72.264H25.6333V73.908ZM25.6333 71.268H27.2053C27.5893 71.268 27.8773 71.2 28.0693 71.064C28.2693 70.92 28.3693 70.72 28.3693 70.464C28.3693 70.2 28.2693 70.004 28.0693 69.876C27.8773 69.748 27.5893 69.684 27.2053 69.684H25.6333V71.268ZM34.491 75.084C33.835 75.084 33.251 74.944 32.739 74.664C32.227 74.376 31.823 73.984 31.527 73.488C31.231 72.992 31.083 72.428 31.083 71.796C31.083 71.156 31.231 70.592 31.527 70.104C31.823 69.608 32.227 69.22 32.739 68.94C33.251 68.66 33.835 68.52 34.491 68.52C35.155 68.52 35.743 68.66 36.255 68.94C36.775 69.22 37.179 69.604 37.467 70.092C37.763 70.58 37.911 71.148 37.911 71.796C37.911 72.428 37.763 72.992 37.467 73.488C37.179 73.984 36.775 74.376 36.255 74.664C35.743 74.944 35.155 75.084 34.491 75.084ZM34.491 73.8C34.859 73.8 35.187 73.72 35.475 73.56C35.763 73.4 35.987 73.168 36.147 72.864C36.315 72.56 36.399 72.204 36.399 71.796C36.399 71.38 36.315 71.024 36.147 70.728C35.987 70.424 35.763 70.192 35.475 70.032C35.187 69.872 34.863 69.792 34.503 69.792C34.135 69.792 33.807 69.872 33.519 70.032C33.239 70.192 33.015 70.424 32.847 70.728C32.679 71.024 32.595 71.38 32.595 71.796C32.595 72.204 32.679 72.56 32.847 72.864C33.015 73.168 33.239 73.4 33.519 73.56C33.807 73.72 34.131 73.8 34.491 73.8ZM42.4528 75.12C41.9248 75.12 41.4528 75.04 41.0368 74.88C40.6208 74.72 40.2608 74.476 39.9568 74.148C39.6608 73.812 39.4328 73.388 39.2728 72.876C39.1128 72.364 39.0328 71.756 39.0328 71.052C39.0328 70.54 39.0768 70.072 39.1648 69.648C39.2528 69.224 39.3848 68.844 39.5608 68.508C39.7368 68.164 39.9568 67.86 40.2208 67.596C40.4928 67.332 40.8088 67.112 41.1688 66.936C41.5288 66.76 41.9368 66.624 42.3928 66.528L45.3688 65.892L45.5848 67.236L42.8848 67.788C42.7328 67.82 42.5488 67.868 42.3328 67.932C42.1248 67.988 41.9088 68.076 41.6848 68.196C41.4688 68.308 41.2648 68.472 41.0728 68.688C40.8888 68.896 40.7368 69.168 40.6168 69.504C40.5048 69.832 40.4488 70.244 40.4488 70.74C40.4488 70.892 40.4528 71.008 40.4608 71.088C40.4768 71.16 40.4888 71.24 40.4968 71.328C40.5128 71.408 40.5208 71.528 40.5208 71.688L39.9568 71.1C40.1168 70.692 40.3368 70.344 40.6168 70.056C40.9048 69.76 41.2368 69.536 41.6128 69.384C41.9968 69.224 42.4128 69.144 42.8608 69.144C43.4608 69.144 43.9928 69.268 44.4568 69.516C44.9208 69.764 45.2848 70.112 45.5488 70.56C45.8128 71.008 45.9448 71.516 45.9448 72.084C45.9448 72.676 45.8008 73.2 45.5128 73.656C45.2248 74.112 44.8168 74.472 44.2888 74.736C43.7688 74.992 43.1568 75.12 42.4528 75.12ZM42.5728 73.908C42.9328 73.908 43.2488 73.832 43.5208 73.68C43.8008 73.52 44.0168 73.304 44.1688 73.032C44.3288 72.76 44.4088 72.456 44.4088 72.12C44.4088 71.784 44.3288 71.492 44.1688 71.244C44.0168 70.988 43.8008 70.784 43.5208 70.632C43.2488 70.48 42.9248 70.404 42.5488 70.404C42.1888 70.404 41.8648 70.476 41.5768 70.62C41.2968 70.764 41.0768 70.964 40.9168 71.22C40.7648 71.468 40.6888 71.756 40.6888 72.084C40.6888 72.42 40.7688 72.728 40.9288 73.008C41.0888 73.288 41.3088 73.508 41.5888 73.668C41.8768 73.828 42.2048 73.908 42.5728 73.908ZM50.2527 75.084C49.5967 75.084 49.0127 74.944 48.5007 74.664C47.9887 74.376 47.5847 73.984 47.2887 73.488C46.9927 72.992 46.8447 72.428 46.8447 71.796C46.8447 71.156 46.9927 70.592 47.2887 70.104C47.5847 69.608 47.9887 69.22 48.5007 68.94C49.0127 68.66 49.5967 68.52 50.2527 68.52C50.9167 68.52 51.5047 68.66 52.0167 68.94C52.5367 69.22 52.9407 69.604 53.2287 70.092C53.5247 70.58 53.6727 71.148 53.6727 71.796C53.6727 72.428 53.5247 72.992 53.2287 73.488C52.9407 73.984 52.5367 74.376 52.0167 74.664C51.5047 74.944 50.9167 75.084 50.2527 75.084ZM50.2527 73.8C50.6207 73.8 50.9487 73.72 51.2367 73.56C51.5247 73.4 51.7487 73.168 51.9087 72.864C52.0767 72.56 52.1607 72.204 52.1607 71.796C52.1607 71.38 52.0767 71.024 51.9087 70.728C51.7487 70.424 51.5247 70.192 51.2367 70.032C50.9487 69.872 50.6247 69.792 50.2647 69.792C49.8967 69.792 49.5687 69.872 49.2807 70.032C49.0007 70.192 48.7767 70.424 48.6087 70.728C48.4407 71.024 48.3567 71.38 48.3567 71.796C48.3567 72.204 48.4407 72.56 48.6087 72.864C48.7767 73.168 49.0007 73.4 49.2807 73.56C49.5687 73.72 49.8927 73.8 50.2527 73.8ZM59.4762 74.304V69.864H57.0162L56.9802 70.896C56.9642 71.264 56.9402 71.62 56.9082 71.964C56.8762 72.3 56.8242 72.612 56.7522 72.9C56.6802 73.18 56.5762 73.412 56.4402 73.596C56.3042 73.78 56.1242 73.9 55.9002 73.956L54.4122 73.728C54.6522 73.728 54.8442 73.652 54.9882 73.5C55.1402 73.34 55.2562 73.124 55.3362 72.852C55.4242 72.572 55.4882 72.256 55.5282 71.904C55.5682 71.544 55.5962 71.172 55.6122 70.788L55.6962 68.592H60.9762V74.304H59.4762ZM54.1842 76.428V73.728H61.9242V76.428H60.5202V75H55.5762V76.428H54.1842ZM63.2639 75V68.592H64.7639V72.816L68.3039 68.592H69.6719V75H68.1719V70.776L64.6439 75H63.2639ZM73.0216 75V69.504L73.3696 69.864H70.7656V68.592H76.7656V69.864H74.1736L74.5216 69.504V75H73.0216ZM81.0697 70.704C81.8937 70.704 82.5217 70.888 82.9537 71.256C83.3857 71.624 83.6017 72.144 83.6017 72.816C83.6017 73.512 83.3617 74.056 82.8817 74.448C82.4017 74.832 81.7257 75.02 80.8537 75.012L77.8537 75V68.592H79.3537V70.692L81.0697 70.704ZM80.7217 73.908C81.1617 73.916 81.4977 73.824 81.7297 73.632C81.9617 73.44 82.0777 73.16 82.0777 72.792C82.0777 72.424 81.9617 72.16 81.7297 72C81.5057 71.832 81.1697 71.744 80.7217 71.736L79.3537 71.724V73.896L80.7217 73.908Z" fill="white"/>
<g clip-path="url(#clip0_1548_20)">
<path d="M36.0079 8.10699C37.0994 7.74314 38.2792 8.33305 38.6431 9.4246L40.7264 15.6746C41.0902 16.7661 40.5004 17.946 39.4088 18.3098C38.3173 18.6737 37.1374 18.0838 36.7736 16.9922L34.6902 10.7422C34.3264 9.65067 34.9163 8.47084 36.0079 8.10699Z" fill="white"/>
<path d="M63.4575 27.8873L55.3554 35.9896C54.5417 36.8031 53.2227 36.8031 52.409 35.9896C51.5954 35.176 51.5954 33.8569 52.409 33.0433L60.5113 24.941C62.5452 22.9071 62.5452 19.6093 60.5113 17.5753C58.4773 15.5413 55.1796 15.5413 53.1456 17.5753L45.0433 25.6776C44.2298 26.4912 42.9106 26.4912 42.0971 25.6776C41.2836 24.864 41.2836 23.5449 42.0971 22.7313L50.1994 14.6291C53.8604 10.9679 59.7965 10.9679 63.4575 14.6291C67.1188 18.2902 67.1188 24.2261 63.4575 27.8873Z" fill="white"/>
<path d="M26.6292 38.1994L34.7314 30.0971C35.545 29.2834 36.8641 29.2834 37.6777 30.0971C38.4913 30.9107 38.4913 32.2298 37.6777 33.0434L29.5754 41.1457C27.5415 43.1796 27.5415 46.4773 29.5754 48.5113C31.6094 50.5453 34.9072 50.5453 36.9411 48.5113L45.0434 40.409C45.8569 39.5955 47.1761 39.5955 47.9896 40.409C48.8034 41.2225 48.8034 42.5417 47.9896 43.3553L39.8874 51.4575C36.2263 55.1188 30.2903 55.1188 26.6292 51.4575C22.968 47.7965 22.968 41.8605 26.6292 38.1994Z" fill="white"/>
<path d="M24.7768 12.7769C25.5904 11.9634 26.9095 11.9634 27.7231 12.7769L33.9731 19.0269C34.7867 19.8405 34.7867 21.1596 33.9731 21.9732C33.1595 22.7868 31.8404 22.7868 31.0268 21.9732L24.7768 15.7232C23.9632 14.9096 23.9632 13.5905 24.7768 12.7769Z" fill="white"/>
<path d="M62.2769 53.2232C63.0904 54.0369 64.4096 54.0369 65.2232 53.2232C66.0367 52.4096 66.0367 51.0904 65.2232 50.2769L58.9732 44.0269C58.1596 43.2134 56.8404 43.2134 56.0269 44.0269C55.2134 44.8404 55.2134 46.1596 56.0269 46.9732L62.2769 53.2232Z" fill="white"/>
<path d="M51.3569 56.5756C51.7209 57.6671 52.9007 58.2571 53.9921 57.8931C55.0838 57.5293 55.6736 56.3493 55.3098 55.2579L53.2265 49.0079C52.8625 47.9164 51.6827 47.3264 50.5913 47.6902C49.4996 48.0541 48.9098 49.2339 49.2736 50.3256L51.3569 56.5756Z" fill="white"/>
<path d="M20.1069 24.0079C19.743 25.0994 20.3329 26.2792 21.4245 26.6431L27.6745 28.7264C28.766 29.0904 29.9459 28.5004 30.3097 27.4088C30.6736 26.3173 30.0836 25.1374 28.9921 24.7736L22.7421 22.6902C21.6505 22.3264 20.4707 22.9163 20.1069 24.0079Z" fill="white"/>
<path d="M68.5754 39.3569C69.6671 39.7208 70.2569 40.9006 69.8931 41.9923C69.5292 43.0838 68.3494 43.6738 67.2579 43.3098L61.0079 41.2265C59.9162 40.8627 59.3265 39.6827 59.6902 38.5913C60.0542 37.4998 61.234 36.9098 62.3254 37.2736L68.5754 39.3569Z" fill="white"/>
</g>
<defs>
<clipPath id="clip0_1548_20">
<rect width="50" height="50" fill="white" transform="translate(20 8)"/>
</clipPath>
</defs>
</svg>
