<svg width="90" height="90" viewBox="0 0 90 90" fill="none" xmlns="http://www.w3.org/2000/svg">
<path d="M5.56867 24V15.292L6.00267 15.74H2.33467V14.2H10.6227V15.74H6.95467L7.37467 15.292V24H5.56867ZM14.7167 24.098C13.886 24.098 13.158 23.9347 12.5327 23.608C11.9167 23.272 11.436 22.8147 11.0907 22.236C10.7547 21.6573 10.5867 20.9993 10.5867 20.262C10.5867 19.5153 10.75 18.8573 11.0767 18.288C11.4127 17.7093 11.87 17.2567 12.4487 16.93C13.0367 16.6033 13.704 16.44 14.4507 16.44C15.1787 16.44 15.8274 16.5987 16.3967 16.916C16.966 17.2333 17.414 17.6813 17.7407 18.26C18.0674 18.8387 18.2307 19.52 18.2307 20.304C18.2307 20.3787 18.226 20.4627 18.2167 20.556C18.2167 20.6493 18.212 20.738 18.2027 20.822H11.9727V19.66H17.2787L16.5927 20.024C16.602 19.5947 16.5134 19.2167 16.3267 18.89C16.14 18.5633 15.8834 18.3067 15.5567 18.12C15.2394 17.9333 14.8707 17.84 14.4507 17.84C14.0214 17.84 13.6434 17.9333 13.3167 18.12C12.9994 18.3067 12.7474 18.568 12.5607 18.904C12.3834 19.2307 12.2947 19.618 12.2947 20.066V20.346C12.2947 20.794 12.3974 21.1907 12.6027 21.536C12.808 21.8813 13.0974 22.1473 13.4707 22.334C13.844 22.5207 14.2734 22.614 14.7587 22.614C15.1787 22.614 15.5567 22.5487 15.8927 22.418C16.2287 22.2873 16.5274 22.082 16.7887 21.802L17.7267 22.88C17.3907 23.272 16.966 23.5753 16.4527 23.79C15.9487 23.9953 15.37 24.098 14.7167 24.098ZM18.8337 24L22.1237 19.716L22.0957 20.654L18.9597 16.524H20.9057L23.1037 19.464H22.3617L24.5737 16.524H26.4637L23.2997 20.654L23.3137 19.716L26.5897 24H24.6157L22.3057 20.878L23.0337 20.976L20.7657 24H18.8337ZM27.842 24V16.524H35.01V24H33.274V17.602L33.68 18.008H29.186L29.592 17.602V24H27.842ZM41.9073 24V22.488L41.8093 22.166V19.52C41.8093 19.0067 41.6553 18.61 41.3473 18.33C41.0393 18.0407 40.5726 17.896 39.9473 17.896C39.5273 17.896 39.112 17.9613 38.7013 18.092C38.3 18.2227 37.9593 18.4047 37.6793 18.638L36.9933 17.364C37.3946 17.056 37.8706 16.8273 38.4213 16.678C38.9813 16.5193 39.56 16.44 40.1573 16.44C41.24 16.44 42.0753 16.7013 42.6633 17.224C43.2606 17.7373 43.5593 18.5353 43.5593 19.618V24H41.9073ZM39.5553 24.098C38.9953 24.098 38.5053 24.0047 38.0853 23.818C37.6653 23.622 37.3386 23.356 37.1053 23.02C36.8813 22.6747 36.7693 22.2873 36.7693 21.858C36.7693 21.438 36.8673 21.06 37.0633 20.724C37.2686 20.388 37.6 20.122 38.0573 19.926C38.5146 19.73 39.1213 19.632 39.8773 19.632H42.0473V20.794H40.0033C39.406 20.794 39.0046 20.892 38.7993 21.088C38.594 21.2747 38.4913 21.508 38.4913 21.788C38.4913 22.1053 38.6173 22.3573 38.8693 22.544C39.1213 22.7307 39.4713 22.824 39.9193 22.824C40.3486 22.824 40.7313 22.726 41.0673 22.53C41.4126 22.334 41.66 22.0447 41.8093 21.662L42.1033 22.712C41.9353 23.1507 41.632 23.4913 41.1933 23.734C40.764 23.9767 40.218 24.098 39.5553 24.098ZM49.1268 24.098C48.3428 24.098 47.6428 23.9347 47.0268 23.608C46.4202 23.272 45.9442 22.8147 45.5988 22.236C45.2535 21.6573 45.0808 20.9993 45.0808 20.262C45.0808 19.5153 45.2535 18.8573 45.5988 18.288C45.9442 17.7093 46.4202 17.2567 47.0268 16.93C47.6428 16.6033 48.3428 16.44 49.1268 16.44C49.8548 16.44 50.4942 16.5893 51.0448 16.888C51.6048 17.1773 52.0295 17.6067 52.3188 18.176L50.9748 18.96C50.7508 18.6053 50.4755 18.344 50.1488 18.176C49.8315 18.008 49.4862 17.924 49.1128 17.924C48.6835 17.924 48.2962 18.0173 47.9508 18.204C47.6055 18.3907 47.3348 18.6613 47.1388 19.016C46.9428 19.3613 46.8448 19.7767 46.8448 20.262C46.8448 20.7473 46.9428 21.1673 47.1388 21.522C47.3348 21.8673 47.6055 22.1333 47.9508 22.32C48.2962 22.5067 48.6835 22.6 49.1128 22.6C49.4862 22.6 49.8315 22.516 50.1488 22.348C50.4755 22.18 50.7508 21.9187 50.9748 21.564L52.3188 22.348C52.0295 22.908 51.6048 23.342 51.0448 23.65C50.4942 23.9487 49.8548 24.098 49.1268 24.098ZM53.8596 24V16.524H61.0276V24H59.2916V17.602L59.6976 18.008H55.2036L55.6096 17.602V24H53.8596ZM66.7209 24.098C65.9556 24.098 65.2742 23.9347 64.6769 23.608C64.0796 23.272 63.6082 22.8147 63.2629 22.236C62.9176 21.6573 62.7449 20.9993 62.7449 20.262C62.7449 19.5153 62.9176 18.8573 63.2629 18.288C63.6082 17.7093 64.0796 17.2567 64.6769 16.93C65.2742 16.6033 65.9556 16.44 66.7209 16.44C67.4956 16.44 68.1816 16.6033 68.7789 16.93C69.3856 17.2567 69.8569 17.7047 70.1929 18.274C70.5382 18.8433 70.7109 19.506 70.7109 20.262C70.7109 20.9993 70.5382 21.6573 70.1929 22.236C69.8569 22.8147 69.3856 23.272 68.7789 23.608C68.1816 23.9347 67.4956 24.098 66.7209 24.098ZM66.7209 22.6C67.1502 22.6 67.5329 22.5067 67.8689 22.32C68.2049 22.1333 68.4662 21.8627 68.6529 21.508C68.8489 21.1533 68.9469 20.738 68.9469 20.262C68.9469 19.7767 68.8489 19.3613 68.6529 19.016C68.4662 18.6613 68.2049 18.3907 67.8689 18.204C67.5329 18.0173 67.1549 17.924 66.7349 17.924C66.3056 17.924 65.9229 18.0173 65.5869 18.204C65.2602 18.3907 64.9989 18.6613 64.8029 19.016C64.6069 19.3613 64.5089 19.7767 64.5089 20.262C64.5089 20.738 64.6069 21.1533 64.8029 21.508C64.9989 21.8627 65.2602 22.1333 65.5869 22.32C65.9229 22.5067 66.3009 22.6 66.7209 22.6ZM76.5837 24.098C75.977 24.098 75.4217 23.958 74.9177 23.678C74.423 23.398 74.0263 22.978 73.7277 22.418C73.4383 21.8487 73.2937 21.13 73.2937 20.262C73.2937 19.3847 73.4337 18.666 73.7137 18.106C74.003 17.546 74.395 17.1307 74.8897 16.86C75.3843 16.58 75.949 16.44 76.5837 16.44C77.321 16.44 77.9697 16.5987 78.5297 16.916C79.099 17.2333 79.547 17.6767 79.8737 18.246C80.2097 18.8153 80.3777 19.4873 80.3777 20.262C80.3777 21.0367 80.2097 21.7133 79.8737 22.292C79.547 22.8613 79.099 23.3047 78.5297 23.622C77.9697 23.9393 77.321 24.098 76.5837 24.098ZM72.4397 26.716V16.524H74.1057V18.288L74.0497 20.276L74.1897 22.264V26.716H72.4397ZM76.3877 22.6C76.8077 22.6 77.181 22.5067 77.5077 22.32C77.8437 22.1333 78.1097 21.8627 78.3057 21.508C78.5017 21.1533 78.5997 20.738 78.5997 20.262C78.5997 19.7767 78.5017 19.3613 78.3057 19.016C78.1097 18.6613 77.8437 18.3907 77.5077 18.204C77.181 18.0173 76.8077 17.924 76.3877 17.924C75.9677 17.924 75.5897 18.0173 75.2537 18.204C74.9177 18.3907 74.6517 18.6613 74.4557 19.016C74.2597 19.3613 74.1617 19.7767 74.1617 20.262C74.1617 20.738 74.2597 21.1533 74.4557 21.508C74.6517 21.8627 74.9177 22.1333 75.2537 22.32C75.5897 22.5067 75.9677 22.6 76.3877 22.6ZM83.3999 24V17.588L83.8059 18.008H80.7679V16.524H87.7679V18.008H84.7439L85.1499 17.588V24H83.3999Z" fill="white"/>
<path d="M64.6726 34H26.3274C23.9414 34 22 36.1064 22 38.6953V64.3047C22 66.8936 23.9414 69 26.3274 69H64.6726C67.0586 69 69 66.8936 69 64.3047V38.6953C69 36.1062 67.0586 34 64.6726 34ZM66.2954 64.3047C66.2954 65.2755 65.5675 66.0654 64.6726 66.0654H26.3274C25.4325 66.0654 24.7046 65.2755 24.7046 64.3047V38.6953C24.7046 37.7246 25.4325 36.9346 26.3274 36.9346H64.6726C65.5675 36.9346 66.2954 37.7246 66.2954 38.6953V64.3047Z" fill="white"/>
<path d="M61.6597 46H52.3403C51.6002 46 51 46.8957 51 48C51 49.1043 51.6002 50 52.3403 50H61.6597C62.4 50 63 49.1043 63 48C63 46.8957 62.4 46 61.6597 46Z" fill="white"/>
<path d="M61.6597 53H52.3403C51.6002 53 51 53.8957 51 55C51 56.1047 51.6002 57 52.3403 57H61.6597C62.4 57 63 56.1047 63 55C63 53.8957 62.4 53 61.6597 53Z" fill="white"/>
<path d="M44.6921 52.599C44.6921 52.1888 44.6135 51.797 44.4716 51.4385C44.457 51.3474 44.4403 51.2564 44.4194 51.1641L42.8825 46.6745L42.8722 46.6341C42.3344 44.7468 41.5694 43 39.6293 43H32.2118C30.224 43 29.5215 44.79 28.972 46.6236L27.3645 51.1242C27.1321 51.5631 27 52.0652 27 52.599V53.9961C27 54.2121 27.0217 54.4234 27.0628 54.6269C27.0228 54.7498 27 54.8823 27 55.022V59.1771C27 59.7864 27.419 60.2805 27.9359 60.2805H29.8781C30.3947 60.2805 30.8137 59.7864 30.8137 59.1771V57.0993H40.9893V59.1771C40.9893 59.7864 41.4084 60.2805 41.9253 60.2805H43.7563C44.2734 60.2805 44.6923 59.7864 44.6923 59.1771V55.0215C44.6923 54.8824 44.6693 54.7493 44.6295 54.6267C44.6706 54.4229 44.6923 54.2118 44.6923 53.9959L44.6921 52.599ZM30.1126 47.0743C30.7245 45.0392 31.2166 44.4179 32.2118 44.4179H39.6289C40.6168 44.4179 41.1669 45.1108 41.7258 47.0656L42.8473 49.7446C42.4811 49.5848 42.0781 49.496 41.6548 49.496H30.0373C29.6561 49.496 29.2918 49.5683 28.9557 49.6991L30.1126 47.0743ZM31.076 54.5266H29.0268C28.6578 54.5266 28.3586 54.1736 28.3586 53.7387C28.3586 53.3037 28.6578 52.9509 29.0268 52.9509H31.076C31.4451 52.9509 31.7443 53.3037 31.7443 53.7387C31.7443 54.1736 31.4449 54.5266 31.076 54.5266ZM38.3148 54.3688H33.5483C33.3146 54.3688 33.1253 54.1455 33.1253 53.8701C33.1253 53.5943 33.3146 53.371 33.5483 53.371H38.3148C38.5488 53.371 38.7381 53.5943 38.7381 53.8701C38.7381 54.1455 38.5488 54.3688 38.3148 54.3688ZM42.6136 54.5266H40.5645C40.1953 54.5266 39.8962 54.1736 39.8962 53.7387C39.8962 53.3037 40.1955 52.9509 40.5645 52.9509H42.6136C42.9829 52.9509 43.2822 53.3037 43.2822 53.7387C43.2822 54.1736 42.9829 54.5266 42.6136 54.5266Z" fill="white"/>
</svg>
