<svg width="480" height="76" viewBox="0 0 480 76" fill="none" xmlns="http://www.w3.org/2000/svg">
<path fill-rule="evenodd" clip-rule="evenodd" d="M10.7158 10.5295H3C1.34315 10.5295 0 11.8727 0 13.5295V72.5801C0 74.2369 1.34316 75.5801 3.00001 75.5801H477C478.657 75.5801 480 74.2369 480 72.5801V13.5295C480 11.8727 478.657 10.5295 477 10.5295H81.0037L81.0179 12.5295H477C477.552 12.5295 478 12.9773 478 13.5295V72.5801C478 73.1323 477.552 73.5801 477 73.5801H3.00001C2.44772 73.5801 2 73.1323 2 72.5801V13.5295C2 12.9773 2.44771 12.5295 3 12.5295H10.7299L10.7158 10.5295Z" fill="white"/>
<path d="M17.0099 14.5801V4.78008H21.2239C22.2879 4.78008 23.1232 4.99474 23.7299 5.42408C24.3366 5.85341 24.6399 6.47874 24.6399 7.30008C24.6399 8.10274 24.3506 8.71874 23.7719 9.14808C23.1932 9.56808 22.4326 9.77808 21.4899 9.77808L21.7419 9.35808C22.8339 9.35808 23.6692 9.57741 24.2479 10.0161C24.8359 10.4454 25.1299 11.0754 25.1299 11.9061C25.1299 12.7461 24.8219 13.4041 24.2059 13.8801C23.5992 14.3467 22.6939 14.5801 21.4899 14.5801H17.0099ZM18.3959 13.4741H21.4619C22.2086 13.4741 22.7686 13.3387 23.1419 13.0681C23.5246 12.7881 23.7159 12.3634 23.7159 11.7941C23.7159 11.2247 23.5246 10.8094 23.1419 10.5481C22.7686 10.2867 22.2086 10.1561 21.4619 10.1561H18.3959V13.4741ZM18.3959 9.09208H21.1259C21.8072 9.09208 22.3252 8.95674 22.6799 8.68608C23.0439 8.41541 23.2259 8.01874 23.2259 7.49608C23.2259 6.96408 23.0439 6.56274 22.6799 6.29208C22.3252 6.02141 21.8072 5.88608 21.1259 5.88608H18.3959V9.09208ZM30.4229 14.6641C29.6762 14.6641 29.0135 14.5007 28.4349 14.1741C27.8562 13.8474 27.3989 13.3994 27.0629 12.8301C26.7269 12.2514 26.5589 11.5981 26.5589 10.8701C26.5589 10.1327 26.7269 9.47941 27.0629 8.91008C27.3989 8.34074 27.8562 7.89741 28.4349 7.58008C29.0135 7.25341 29.6762 7.09008 30.4229 7.09008C31.1602 7.09008 31.8182 7.25341 32.3969 7.58008C32.9849 7.89741 33.4422 8.34074 33.7689 8.91008C34.1049 9.47008 34.2729 10.1234 34.2729 10.8701C34.2729 11.6074 34.1049 12.2607 33.7689 12.8301C33.4422 13.3994 32.9849 13.8474 32.3969 14.1741C31.8182 14.5007 31.1602 14.6641 30.4229 14.6641ZM30.4229 13.4881C30.8989 13.4881 31.3235 13.3807 31.6969 13.1661C32.0795 12.9514 32.3782 12.6481 32.5929 12.2561C32.8075 11.8547 32.9149 11.3927 32.9149 10.8701C32.9149 10.3381 32.8075 9.88074 32.5929 9.49808C32.3782 9.10608 32.0795 8.80274 31.6969 8.58808C31.3235 8.37341 30.8989 8.26608 30.4229 8.26608C29.9469 8.26608 29.5222 8.37341 29.1489 8.58808C28.7755 8.80274 28.4769 9.10608 28.2529 9.49808C28.0289 9.88074 27.9169 10.3381 27.9169 10.8701C27.9169 11.3927 28.0289 11.8547 28.2529 12.2561C28.4769 12.6481 28.7755 12.9514 29.1489 13.1661C29.5222 13.3807 29.9469 13.4881 30.4229 13.4881ZM38.3016 14.6781C38.9549 14.6781 39.5336 14.5847 40.0376 14.3981C40.5509 14.2021 40.9569 13.9361 41.2556 13.6001C41.5543 13.2547 41.7036 12.8581 41.7036 12.4101C41.7036 11.8501 41.4656 11.4067 40.9896 11.0801C40.5136 10.7534 39.8603 10.5901 39.0296 10.5901L38.9736 10.9121C39.4589 10.9121 39.8883 10.8327 40.2616 10.6741C40.6349 10.5154 40.9336 10.3007 41.1576 10.0301C41.3816 9.75008 41.4936 9.43274 41.4936 9.07808C41.4936 8.65808 41.3443 8.29408 41.0456 7.98608C40.7563 7.67808 40.3596 7.44474 39.8556 7.28608C39.3516 7.11808 38.7776 7.04341 38.1336 7.06208C37.7043 7.07141 37.2703 7.13674 36.8316 7.25808C36.4023 7.37008 35.9636 7.53341 35.5156 7.74808L35.8796 8.79808C36.2809 8.60208 36.6729 8.45741 37.0556 8.36408C37.4476 8.27074 37.8303 8.21941 38.2036 8.21008C38.5863 8.21008 38.9176 8.25208 39.1976 8.33608C39.4869 8.42008 39.7109 8.54141 39.8696 8.70008C40.0283 8.85874 40.1076 9.05008 40.1076 9.27408C40.1076 9.47941 40.0376 9.66141 39.8976 9.82008C39.7669 9.96941 39.5803 10.0814 39.3376 10.1561C39.0949 10.2307 38.8103 10.2681 38.4836 10.2681H37.2236V11.2341H38.5676C39.1183 11.2341 39.5476 11.3274 39.8556 11.5141C40.1636 11.7007 40.3176 11.9667 40.3176 12.3121C40.3176 12.5547 40.2336 12.7694 40.0656 12.9561C39.8976 13.1334 39.6549 13.2734 39.3376 13.3761C39.0296 13.4787 38.6609 13.5301 38.2316 13.5301C37.7649 13.5301 37.3029 13.4694 36.8456 13.3481C36.3883 13.2174 35.9823 13.0401 35.6276 12.8161L35.2216 13.8381C35.6416 14.1087 36.1176 14.3187 36.6496 14.4681C37.1909 14.6081 37.7416 14.6781 38.3016 14.6781ZM47.6808 14.6641C47.0648 14.6641 46.5002 14.5241 45.9868 14.2441C45.4828 13.9547 45.0768 13.5301 44.7688 12.9701C44.4702 12.4101 44.3208 11.7101 44.3208 10.8701C44.3208 10.0301 44.4655 9.33008 44.7548 8.77008C45.0535 8.21008 45.4548 7.79008 45.9588 7.51008C46.4722 7.23008 47.0462 7.09008 47.6808 7.09008C48.4088 7.09008 49.0528 7.24874 49.6128 7.56608C50.1728 7.88341 50.6162 8.32674 50.9428 8.89608C51.2695 9.45608 51.4328 10.1141 51.4328 10.8701C51.4328 11.6261 51.2695 12.2887 50.9428 12.8581C50.6162 13.4274 50.1728 13.8707 49.6128 14.1881C49.0528 14.5054 48.4088 14.6641 47.6808 14.6641ZM43.7468 17.2961V7.16008H45.0348V9.16208L44.9508 10.8841L45.0908 12.6061V17.2961H43.7468ZM47.5688 13.4881C48.0448 13.4881 48.4695 13.3807 48.8428 13.1661C49.2255 12.9514 49.5242 12.6481 49.7388 12.2561C49.9628 11.8547 50.0748 11.3927 50.0748 10.8701C50.0748 10.3381 49.9628 9.88074 49.7388 9.49808C49.5242 9.10608 49.2255 8.80274 48.8428 8.58808C48.4695 8.37341 48.0448 8.26608 47.5688 8.26608C47.1022 8.26608 46.6775 8.37341 46.2948 8.58808C45.9215 8.80274 45.6228 9.10608 45.3988 9.49808C45.1842 9.88074 45.0768 10.3381 45.0768 10.8701C45.0768 11.3927 45.1842 11.8547 45.3988 12.2561C45.6228 12.6481 45.9215 12.9514 46.2948 13.1661C46.6775 13.3807 47.1022 13.4881 47.5688 13.4881ZM57.8671 14.5801V13.0121L57.7971 12.7181V10.0441C57.7971 9.47474 57.6291 9.03608 57.2931 8.72808C56.9665 8.41074 56.4718 8.25208 55.8091 8.25208C55.3705 8.25208 54.9411 8.32674 54.5211 8.47608C54.1011 8.61608 53.7465 8.80741 53.4571 9.05008L52.8971 8.04208C53.2798 7.73408 53.7371 7.50074 54.2691 7.34208C54.8105 7.17408 55.3751 7.09008 55.9631 7.09008C56.9805 7.09008 57.7645 7.33741 58.3151 7.83208C58.8658 8.32674 59.1411 9.08274 59.1411 10.1001V14.5801H57.8671ZM55.4311 14.6641C54.8805 14.6641 54.3951 14.5707 53.9751 14.3841C53.5645 14.1974 53.2471 13.9407 53.0231 13.6141C52.7991 13.2781 52.6871 12.9001 52.6871 12.4801C52.6871 12.0787 52.7805 11.7147 52.9671 11.3881C53.1631 11.0614 53.4758 10.8001 53.9051 10.6041C54.3438 10.4081 54.9318 10.3101 55.6691 10.3101H58.0211V11.2761H55.7251C55.0531 11.2761 54.6005 11.3881 54.3671 11.6121C54.1338 11.8361 54.0171 12.1067 54.0171 12.4241C54.0171 12.7881 54.1618 13.0821 54.4511 13.3061C54.7405 13.5207 55.1418 13.6281 55.6551 13.6281C56.1591 13.6281 56.5978 13.5161 56.9711 13.2921C57.3538 13.0681 57.6291 12.7414 57.7971 12.3121L58.0631 13.2361C57.8858 13.6747 57.5731 14.0247 57.1251 14.2861C56.6771 14.5381 56.1125 14.6641 55.4311 14.6641ZM64.7953 14.6641C64.0393 14.6641 63.3626 14.5007 62.7653 14.1741C62.1773 13.8474 61.7153 13.3994 61.3793 12.8301C61.0433 12.2607 60.8753 11.6074 60.8753 10.8701C60.8753 10.1327 61.0433 9.47941 61.3793 8.91008C61.7153 8.34074 62.1773 7.89741 62.7653 7.58008C63.3626 7.25341 64.0393 7.09008 64.7953 7.09008C65.4673 7.09008 66.0646 7.22541 66.5873 7.49608C67.1193 7.75741 67.5299 8.14941 67.8193 8.67208L66.7973 9.33008C66.5546 8.96608 66.2559 8.70008 65.9013 8.53208C65.5559 8.35474 65.1826 8.26608 64.7813 8.26608C64.2959 8.26608 63.8619 8.37341 63.4793 8.58808C63.0966 8.80274 62.7933 9.10608 62.5693 9.49808C62.3453 9.88074 62.2333 10.3381 62.2333 10.8701C62.2333 11.4021 62.3453 11.8641 62.5693 12.2561C62.7933 12.6481 63.0966 12.9514 63.4793 13.1661C63.8619 13.3807 64.2959 13.4881 64.7813 13.4881C65.1826 13.4881 65.5559 13.4041 65.9013 13.2361C66.2559 13.0587 66.5546 12.7881 66.7973 12.4241L67.8193 13.0681C67.5299 13.5814 67.1193 13.9781 66.5873 14.2581C66.0646 14.5287 65.4673 14.6641 64.7953 14.6641ZM70.9336 14.5801V7.98608L71.2696 8.33608H68.2176V7.16008H74.9936V8.33608H71.9556L72.2776 7.98608V14.5801H70.9336Z" fill="white"/>
</svg>
