<svg width="480" height="75" viewBox="0 0 480 75" fill="none" xmlns="http://www.w3.org/2000/svg">
<path fill-rule="evenodd" clip-rule="evenodd" d="M10.7161 8.71307H3C1.34315 8.71307 0 10.0562 0 11.7131V72C0 73.6568 1.34316 75 3.00001 75H477C478.657 75 480 73.6568 480 72V11.7131C480 10.0562 478.657 8.71307 477 8.71307H56.0061L56.0287 10.7131H477C477.552 10.7131 478 11.1608 478 11.7131V72C478 72.5523 477.552 73 477 73H3.00001C2.44772 73 2 72.5522 2 72V11.7131C2 11.1608 2.44771 10.7131 3 10.7131H10.7386L10.7161 8.71307Z" fill="white"/>
<path d="M19.0743 14V4.2H20.4603V11.76L26.2563 4.2H27.5443V14H26.1723V6.454L20.3623 14H19.0743ZM30.3757 14V6.58H31.7617L34.9537 12.068H34.3937L37.6697 6.58H38.9297V14H37.7117V8.092L37.9357 8.218L34.9397 13.16H34.3517L31.3417 8.12L31.6077 8.064V14H30.3757ZM46.2917 14V11.396L46.5017 11.648H44.1357C43.1463 11.648 42.3717 11.438 41.8117 11.018C41.261 10.598 40.9857 9.98667 40.9857 9.184C40.9857 8.32533 41.2797 7.67667 41.8677 7.238C42.465 6.79933 43.2583 6.58 44.2477 6.58H47.4957V14H46.2917ZM40.9157 14L42.9317 11.158H44.3177L42.3577 14H40.9157ZM46.2917 10.976V7.378L46.5017 7.756H44.2897C43.6737 7.756 43.1977 7.87267 42.8617 8.106C42.5257 8.33 42.3577 8.70333 42.3577 9.226C42.3577 10.1967 42.983 10.682 44.2337 10.682H46.5017L46.2917 10.976Z" fill="white"/>
</svg>
