<svg width="38" height="38" viewBox="0 0 38 38" fill="none" xmlns="http://www.w3.org/2000/svg">
<path d="M24.9375 27.9062V20.1875H14.1758C13.8608 20.1875 13.5588 20.0624 13.3361 19.8397C13.1134 19.617 12.9883 19.3149 12.9883 19C12.9883 18.6851 13.1134 18.383 13.3361 18.1603C13.5588 17.9376 13.8608 17.8125 14.1758 17.8125H24.9375V10.0938C24.9363 8.99181 24.4981 7.93533 23.7189 7.15614C22.9397 6.37695 21.8832 5.93868 20.7812 5.9375H6.53125C5.42931 5.93868 4.37283 6.37695 3.59364 7.15614C2.81445 7.93533 2.37618 8.99181 2.375 10.0938V27.9062C2.37618 29.0082 2.81445 30.0647 3.59364 30.8439C4.37283 31.6231 5.42931 32.0613 6.53125 32.0625H20.7812C21.8832 32.0613 22.9397 31.6231 23.7189 30.8439C24.4981 30.0647 24.9363 29.0082 24.9375 27.9062Z" fill="white"/>
<path d="M31.5704 20.1875L27.6606 24.0981C27.4473 24.3226 27.3301 24.6215 27.3341 24.9312C27.3381 25.2408 27.4628 25.5367 27.6818 25.7557C27.9008 25.9747 28.1966 26.0994 28.5063 26.1034C28.8159 26.1074 29.1149 25.9902 29.3394 25.7769L35.2769 19.8394C35.4994 19.6167 35.6245 19.3148 35.6245 19C35.6245 18.6852 35.4994 18.3833 35.2769 18.1606L29.3394 12.2231C29.1149 12.0098 28.8159 11.8926 28.5063 11.8966C28.1966 11.9005 27.9008 12.0253 27.6818 12.2443C27.4628 12.4633 27.3381 12.7591 27.3341 13.0688C27.3301 13.3784 27.4473 13.6774 27.6606 13.9019L31.5704 17.8125H24.9375V20.1875H31.5704Z" fill="white"/>
</svg>
