<svg width="46" height="46" viewBox="0 0 46 46" fill="none" xmlns="http://www.w3.org/2000/svg">
<path fill-rule="evenodd" clip-rule="evenodd" d="M4.47387 18.1317C4.47469 17.9432 4.51273 17.7567 4.5858 17.5829C4.65886 17.4091 4.76553 17.2514 4.89967 17.119C5.03381 16.9865 5.19279 16.8818 5.36748 16.8109C5.54217 16.74 5.72914 16.7043 5.91766 16.7059L20.2946 16.8178C21.0887 16.8239 21.7697 17.471 21.8159 18.2629L21.9088 19.8563L26.7028 12.239C26.8019 12.0797 26.9321 11.9419 27.0855 11.834C27.239 11.726 27.4126 11.6501 27.5961 11.6107C27.7796 11.5713 27.9691 11.5692 28.1533 11.6047C28.3376 11.6401 28.5128 11.7123 28.6686 11.817L40.707 19.7895C41.0256 20.0004 41.2476 20.3291 41.3243 20.7034C41.4009 21.0778 41.3259 21.4672 41.1157 21.7864L33.2515 33.7367C32.8145 34.4006 31.9134 34.5992 31.2396 34.1805L21.9088 28.3829V33.1428C21.9088 33.9368 21.2649 34.5803 20.4725 34.5803H5.83949C5.65103 34.5805 5.46438 34.5435 5.2903 34.4712C5.11622 34.399 4.95816 34.2931 4.82522 34.1595C4.69228 34.0259 4.58709 33.8673 4.51572 33.6929C4.44434 33.5184 4.4082 33.3316 4.40936 33.1432L4.47405 18.1317H4.47387ZM6.59921 19.3345L6.56525 32.2381L19.8849 32.2512L19.8787 26.9001L18.8088 26.16C18.4837 25.9354 18.382 25.4754 18.5829 25.1339L19.9453 22.8203L19.8616 19.2716L6.59921 19.3345ZM28.118 14.1953L21.2031 24.9388L32.1578 31.8244L38.9162 21.3057L28.118 14.1953Z" fill="white"/>
<path d="M24.7969 25.6953C25.5908 25.6953 26.2344 25.0517 26.2344 24.2578C26.2344 23.4639 25.5908 22.8203 24.7969 22.8203C24.003 22.8203 23.3594 23.4639 23.3594 24.2578C23.3594 25.0517 24.003 25.6953 24.7969 25.6953Z" fill="white"/>
<path d="M29.6484 24.7969C30.4423 24.7969 31.0859 24.1533 31.0859 23.3594C31.0859 22.5655 30.4423 21.9219 29.6484 21.9219C28.8545 21.9219 28.2109 22.5655 28.2109 23.3594C28.2109 24.1533 28.8545 24.7969 29.6484 24.7969Z" fill="white"/>
<path d="M34.6797 23.8984C35.4736 23.8984 36.1172 23.2548 36.1172 22.4609C36.1172 21.667 35.4736 21.0234 34.6797 21.0234C33.8858 21.0234 33.2422 21.667 33.2422 22.4609C33.2422 23.2548 33.8858 23.8984 34.6797 23.8984Z" fill="white"/>
<path d="M8.98438 23.7188C9.77828 23.7188 10.4219 23.0752 10.4219 22.2812C10.4219 21.4873 9.77828 20.8438 8.98438 20.8438C8.19047 20.8438 7.54688 21.4873 7.54688 22.2812C7.54688 23.0752 8.19047 23.7188 8.98438 23.7188Z" fill="white"/>
<path d="M13.1172 27.4922C13.9111 27.4922 14.5547 26.8486 14.5547 26.0547C14.5547 25.2608 13.9111 24.6172 13.1172 24.6172C12.3233 24.6172 11.6797 25.2608 11.6797 26.0547C11.6797 26.8486 12.3233 27.4922 13.1172 27.4922Z" fill="white"/>
<path d="M17.0703 23.5391C17.8642 23.5391 18.5078 22.8955 18.5078 22.1016C18.5078 21.3077 17.8642 20.6641 17.0703 20.6641C16.2764 20.6641 15.6328 21.3077 15.6328 22.1016C15.6328 22.8955 16.2764 23.5391 17.0703 23.5391Z" fill="white"/>
<path d="M9.16406 31.0859C9.95797 31.0859 10.6016 30.4423 10.6016 29.6484C10.6016 28.8545 9.95797 28.2109 9.16406 28.2109C8.37015 28.2109 7.72656 28.8545 7.72656 29.6484C7.72656 30.4423 8.37015 31.0859 9.16406 31.0859Z" fill="white"/>
<path d="M17.0703 31.0859C17.8642 31.0859 18.5078 30.4423 18.5078 29.6484C18.5078 28.8545 17.8642 28.2109 17.0703 28.2109C16.2764 28.2109 15.6328 28.8545 15.6328 29.6484C15.6328 30.4423 16.2764 31.0859 17.0703 31.0859Z" fill="white"/>
</svg>
