<svg width="480" height="75" viewBox="0 0 480 75" fill="none" xmlns="http://www.w3.org/2000/svg">
<path fill-rule="evenodd" clip-rule="evenodd" d="M10.7158 9.58527H3C1.34315 9.58527 0 10.9284 0 12.5853V72C0 73.6568 1.34316 75 3.00001 75H477C478.657 75 480 73.6569 480 72V12.5853C480 10.9284 478.657 9.58527 477 9.58527H93.0039L93.0173 11.5853H477C477.552 11.5853 478 12.033 478 12.5853V72C478 72.5523 477.552 73 477 73H3.00001C2.44772 73 2 72.5523 2 72V12.5853C2 12.033 2.44771 11.5853 3 11.5853H10.7292L10.7158 9.58527Z" fill="white"/>
<path d="M23.864 13.342C22.6694 13.342 21.6474 13.1787 20.798 12.852C19.9487 12.516 19.3 12.0307 18.852 11.396C18.404 10.7613 18.18 9.99133 18.18 9.086C18.18 8.18067 18.404 7.41067 18.852 6.776C19.3 6.14133 19.9487 5.656 20.798 5.32C21.6474 4.984 22.6694 4.816 23.864 4.816C23.8827 4.816 23.9154 4.816 23.962 4.816C24.018 4.816 24.0694 4.816 24.116 4.816C24.172 4.816 24.2047 4.816 24.214 4.816C25.4087 4.816 26.426 4.984 27.266 5.32C28.1154 5.656 28.764 6.14133 29.212 6.776C29.66 7.41067 29.884 8.18067 29.884 9.086C29.884 9.982 29.66 10.752 29.212 11.396C28.7734 12.0307 28.134 12.516 27.294 12.852C26.4634 13.1787 25.4554 13.342 24.27 13.342C24.2514 13.342 24.2094 13.342 24.144 13.342C24.088 13.342 24.032 13.342 23.976 13.342C23.92 13.342 23.8827 13.342 23.864 13.342ZM24.018 12.25C24.0367 12.25 24.06 12.25 24.088 12.25C24.116 12.25 24.13 12.25 24.13 12.25C25.082 12.2407 25.8847 12.1193 26.538 11.886C27.1914 11.6433 27.686 11.2887 28.022 10.822C28.3674 10.346 28.54 9.76267 28.54 9.072C28.54 8.39067 28.3674 7.81667 28.022 7.35C27.6767 6.88333 27.1774 6.52867 26.524 6.286C25.88 6.04333 25.0914 5.922 24.158 5.922C24.1487 5.922 24.1254 5.922 24.088 5.922C24.06 5.922 24.0367 5.922 24.018 5.922C23.0567 5.922 22.24 6.04333 21.568 6.286C20.9054 6.51933 20.4014 6.86933 20.056 7.336C19.7107 7.80267 19.538 8.386 19.538 9.086C19.538 9.786 19.7154 10.3693 20.07 10.836C20.4247 11.3027 20.9334 11.6573 21.596 11.9C22.268 12.1333 23.0754 12.25 24.018 12.25ZM23.388 14.364V3.836H24.69V14.364H23.388ZM36.363 14V12.432L36.293 12.138V9.464C36.293 8.89467 36.125 8.456 35.789 8.148C35.4623 7.83067 34.9677 7.672 34.305 7.672C33.8663 7.672 33.437 7.74667 33.017 7.896C32.597 8.036 32.2423 8.22733 31.953 8.47L31.393 7.462C31.7757 7.154 32.233 6.92067 32.765 6.762C33.3063 6.594 33.871 6.51 34.459 6.51C35.4763 6.51 36.2603 6.75733 36.811 7.252C37.3617 7.74667 37.637 8.50267 37.637 9.52V14H36.363ZM33.927 14.084C33.3763 14.084 32.891 13.9907 32.471 13.804C32.0603 13.6173 31.743 13.3607 31.519 13.034C31.295 12.698 31.183 12.32 31.183 11.9C31.183 11.4987 31.2763 11.1347 31.463 10.808C31.659 10.4813 31.9717 10.22 32.401 10.024C32.8397 9.828 33.4277 9.73 34.165 9.73H36.517V10.696H34.221C33.549 10.696 33.0963 10.808 32.863 11.032C32.6297 11.256 32.513 11.5267 32.513 11.844C32.513 12.208 32.6577 12.502 32.947 12.726C33.2363 12.9407 33.6377 13.048 34.151 13.048C34.655 13.048 35.0937 12.936 35.467 12.712C35.8497 12.488 36.125 12.1613 36.293 11.732L36.559 12.656C36.3817 13.0947 36.069 13.4447 35.621 13.706C35.173 13.958 34.6083 14.084 33.927 14.084ZM40.0571 14V6.58H41.4431L44.6351 12.068H44.0751L47.3511 6.58H48.6111V14H47.3931V8.092L47.6171 8.218L44.6211 13.16H44.0331L41.0231 8.12L41.2891 8.064V14H40.0571ZM51.227 14V6.58H52.571V11.984L57.121 6.58H58.339V14H56.995V8.596L52.459 14H51.227ZM59.7158 13.986L59.7998 12.852C59.8651 12.8613 59.9258 12.8707 59.9818 12.88C60.0378 12.8893 60.0891 12.894 60.1358 12.894C60.4344 12.894 60.6678 12.7913 60.8358 12.586C61.0131 12.3807 61.1438 12.11 61.2278 11.774C61.3118 11.4287 61.3724 11.0413 61.4098 10.612C61.4471 10.1827 61.4751 9.75333 61.4938 9.324L61.6198 6.58H67.3178V14H65.9738V7.364L66.2958 7.756H62.4878L62.7958 7.35L62.6978 9.408C62.6698 10.0613 62.6184 10.6727 62.5438 11.242C62.4691 11.8113 62.3524 12.3107 62.1938 12.74C62.0444 13.1693 61.8344 13.5053 61.5638 13.748C61.3024 13.9907 60.9618 14.112 60.5418 14.112C60.4204 14.112 60.2898 14.098 60.1498 14.07C60.0191 14.0513 59.8744 14.0233 59.7158 13.986ZM69.9165 14V6.58H71.2605V11.984L75.8105 6.58H77.0285V14H75.6845V8.596L71.1485 14H69.9165ZM84.3832 14V11.396L84.5932 11.648H82.2272C81.2379 11.648 80.4632 11.438 79.9032 11.018C79.3525 10.598 79.0772 9.98667 79.0772 9.184C79.0772 8.32533 79.3712 7.67667 79.9592 7.238C80.5565 6.79933 81.3499 6.58 82.3392 6.58H85.5872V14H84.3832ZM79.0072 14L81.0232 11.158H82.4092L80.4492 14H79.0072ZM84.3832 10.976V7.378L84.5932 7.756H82.3812C81.7652 7.756 81.2892 7.87267 80.9532 8.106C80.6172 8.33 80.4492 8.70333 80.4492 9.226C80.4492 10.1967 81.0745 10.682 82.3252 10.682H84.5932L84.3832 10.976Z" fill="white"/>
</svg>
