<svg width="50" height="50" viewBox="0 0 50 50" fill="none" xmlns="http://www.w3.org/2000/svg">
<circle cx="25" cy="25" r="25" fill="url(#paint0_linear_441_7)"/>
<path d="M24.5001 35.8333C24.1575 35.8333 23.829 35.6972 23.5867 35.455C23.3445 35.2127 23.2084 34.8842 23.2084 34.5416V26.7916H15.4584C15.1158 26.7916 14.7873 26.6555 14.5451 26.4133C14.3028 26.1711 14.1667 25.8425 14.1667 25.5C14.1667 25.1574 14.3028 24.8288 14.5451 24.5866C14.7873 24.3444 15.1158 24.2083 15.4584 24.2083H23.2084V16.4583C23.2084 16.1157 23.3445 15.7872 23.5867 15.5449C23.829 15.3027 24.1575 15.1666 24.5001 15.1666C24.8427 15.1666 25.1712 15.3027 25.4134 15.5449C25.6557 15.7872 25.7917 16.1157 25.7917 16.4583V24.2083H33.5417C33.8843 24.2083 34.2129 24.3444 34.4551 24.5866C34.6973 24.8288 34.8334 25.1574 34.8334 25.5C34.8334 25.8425 34.6973 26.1711 34.4551 26.4133C34.2129 26.6555 33.8843 26.7916 33.5417 26.7916H25.7917V34.5416C25.7917 34.8842 25.6557 35.2127 25.4134 35.455C25.1712 35.6972 24.8427 35.8333 24.5001 35.8333Z" fill="white"/>
<defs>
<linearGradient id="paint0_linear_441_7" x1="0" y1="0" x2="0" y2="50" gradientUnits="userSpaceOnUse">
<stop stop-color="#67FF81"/>
<stop offset="1" stop-color="#01B41F"/>
</linearGradient>
</defs>
</svg>
