<svg width="25" height="25" viewBox="0 0 25 25" fill="none" xmlns="http://www.w3.org/2000/svg">
<g clip-path="url(#clip0_15_277)">
<path d="M18.5308 8.47689H3.7272L6.75596 5.44813C7.18231 5.02178 7.18231 4.33064 6.75596 3.90428C6.32948 3.47781 5.63846 3.47793 5.21198 3.90428L0.319766 8.79674C-0.106589 9.2231 -0.106589 9.91424 0.319766 10.3406L5.21198 15.2328C5.42522 15.446 5.70456 15.5525 5.98391 15.5525C6.26325 15.5525 6.5426 15.4459 6.75583 15.2328C7.18219 14.8065 7.18219 14.1153 6.75583 13.689L3.72708 10.6602H18.5307C20.8939 10.6602 22.8166 12.5829 22.8166 14.9461C22.8166 17.3093 20.8939 19.2319 18.5307 19.2319H9.5255C8.92254 19.2319 8.43384 19.7206 8.43384 20.3236C8.43384 20.9265 8.92254 21.4152 9.5255 21.4152H18.5307C22.0978 21.4152 24.9999 18.5131 24.9999 14.9461C24.9999 11.379 22.0979 8.47689 18.5308 8.47689Z" fill="white"/>
</g>
<defs>
<clipPath id="clip0_15_277">
<rect width="25" height="25" fill="white"/>
</clipPath>
</defs>
</svg>
