<svg width="19" height="7" viewBox="0 0 19 7" fill="none" xmlns="http://www.w3.org/2000/svg">
<path fill-rule="evenodd" clip-rule="evenodd" d="M16.0347 -9.15527e-05H1.14735C0.513685 -9.15527e-05 0 0.492141 0 1.10523V5.89468C0 6.50513 0.514224 7 1.14735 7H16.0347C16.6684 7 17.182 6.50777 17.182 5.89468V1.10523C17.182 0.494778 16.6678 -9.15527e-05 16.0347 -9.15527e-05ZM0.381857 1.10524C0.381857 0.696809 0.72337 0.368348 1.14738 0.368348H16.0347C16.4573 0.368348 16.8003 0.698606 16.8003 1.10524V5.89469C16.8003 6.30313 16.4587 6.63159 16.0347 6.63159H1.14738C0.724783 6.63159 0.381857 6.30133 0.381857 5.89469V1.10524Z" fill="white"/>
<path fill-rule="evenodd" clip-rule="evenodd" d="M1.19995 0.699936C0.923808 0.699936 0.699951 0.923794 0.699951 1.19994V5.80001C0.699951 6.07615 0.923809 6.30001 1.19995 6.30001H10.5001V0.699936H1.19995Z" fill="white"/>
<path fill-rule="evenodd" clip-rule="evenodd" d="M18.4548 3.49997C18.4548 4.14772 18.0399 4.68359 17.5002 4.77271V2.22723C18.0399 2.31635 18.4548 2.85222 18.4548 3.49997Z" fill="white"/>
</svg>
