<svg width="50" height="50" viewBox="0 0 50 50" fill="none" xmlns="http://www.w3.org/2000/svg">
<circle cx="25" cy="25" r="25" fill="url(#paint0_linear_554_23)"/>
<circle cx="25" cy="25" r="25" fill="black" fill-opacity="0.2"/>
<path d="M24.4999 38.8299C22.0819 38.8299 19.8396 38.2203 17.7729 37.0009C15.7683 35.8229 14.1769 34.2316 12.9989 32.2269C11.7796 30.1603 11.1699 27.9179 11.1699 25.4999C11.1699 23.0819 11.7796 20.8396 12.9989 18.7729C14.1769 16.7683 15.7683 15.1769 17.7729 13.9989C19.8396 12.7796 22.0819 12.1699 24.4999 12.1699C26.9179 12.1699 29.1603 12.7796 31.2269 13.9989C33.2316 15.1769 34.8229 16.7683 36.0009 18.7729C37.2203 20.8396 37.8299 23.0819 37.8299 25.4999C37.8299 27.9179 37.2203 30.1603 36.0009 32.2269C34.8229 34.2316 33.2316 35.8229 31.2269 37.0009C29.1603 38.2203 26.9179 38.8299 24.4999 38.8299ZM18.9199 33.5599C19.7259 34.1386 20.6094 34.5778 21.5704 34.8774C22.5314 35.1771 23.5079 35.3269 24.4999 35.3269C26.2773 35.3269 27.9306 34.8723 29.4599 33.9629C30.9273 33.0949 32.0949 31.9273 32.9629 30.4599C33.8723 28.9306 34.3269 27.2773 34.3269 25.4999C34.3269 24.5079 34.1771 23.5314 33.8774 22.5704C33.5778 21.6094 33.1386 20.7259 32.5599 19.9199L18.9199 33.5599ZM24.4999 15.6729C22.7226 15.6729 21.0693 16.1276 19.5399 17.0369C18.0726 17.9049 16.9049 19.0726 16.0369 20.5399C15.1276 22.0693 14.6729 23.7226 14.6729 25.4999C14.6729 26.4919 14.8228 27.4684 15.1224 28.4294C15.4221 29.3904 15.8613 30.2739 16.4399 31.0799L30.0799 17.4399C29.2739 16.8613 28.3904 16.4221 27.4294 16.1224C26.4684 15.8228 25.4919 15.6729 24.4999 15.6729Z" fill="white"/>
<defs>
<linearGradient id="paint0_linear_554_23" x1="0" y1="0" x2="0" y2="50" gradientUnits="userSpaceOnUse">
<stop stop-color="#C81212"/>
<stop offset="1" stop-color="#851717"/>
</linearGradient>
</defs>
</svg>
