<svg width="50" height="50" viewBox="0 0 50 50" fill="none" xmlns="http://www.w3.org/2000/svg">
<circle cx="25" cy="25" r="25" fill="url(#paint0_linear_15_273)"/>
<path fill-rule="evenodd" clip-rule="evenodd" d="M14.005 22.0969C12.5534 19.4652 12 17.3436 12 15.9106C12 14.4776 12.3521 14.0666 12.7093 13.7346C13.0666 13.4025 14.6776 12.4093 14.9521 12.2241C15.2266 12.0388 16.2742 11.6789 16.9312 12.6239C17.5882 13.569 18.8254 15.4665 19.6783 16.7271C21.0168 18.5126 19.9505 19.2964 19.606 19.7662C18.9722 20.6306 18.6073 20.8438 18.6073 21.9053C18.6073 22.9668 21.5739 25.9825 22.2832 26.7256C22.9871 27.463 25.9431 30.0542 26.859 30.1928C27.7814 30.3323 29.0162 29.3558 29.2787 29.1082C30.6143 28.0828 31.3682 28.8602 31.9833 29.1981C32.5985 29.536 35.378 31.268 36.2394 31.8518C37.05 32.4356 36.9994 33.3379 36.9994 33.3379C36.9994 33.3379 36.4226 35.0216 35.1247 36.31C34.8056 36.6268 34.2634 37 32.8953 37C31.5273 37 30.0657 36.7501 26.592 34.8398C23.7497 33.2766 21.0402 30.8288 19.6215 29.3958C18.1522 27.9628 15.6631 25.1031 14.005 22.0969Z" fill="white"/>
<defs>
<linearGradient id="paint0_linear_15_273" x1="0" y1="0" x2="0" y2="50" gradientUnits="userSpaceOnUse">
<stop stop-color="#67FF81"/>
<stop offset="1" stop-color="#01B41F"/>
</linearGradient>
</defs>
</svg>
