<svg width="50" height="50" viewBox="0 0 50 50" fill="none" xmlns="http://www.w3.org/2000/svg">
<circle cx="25" cy="25" r="25" fill="url(#paint0_linear_414_1497)"/>
<path d="M39.52 17.3706L38.5373 16.388C38.2285 16.0789 37.8168 15.9089 37.3773 15.9089C36.9378 15.9089 36.5259 16.0789 36.2171 16.388L22.409 30.1958L13.782 21.5684C13.4732 21.2599 13.0612 21.0897 12.6217 21.0897C12.1824 21.0897 11.7707 21.2599 11.4617 21.5684L10.4788 22.5509C10.1698 22.8604 10 23.2726 10 23.7116C10 24.1509 10.1698 24.5628 10.4788 24.8719L20.2193 34.6119C20.2322 34.6302 20.2459 34.6472 20.2617 34.6628L21.2446 35.6294C21.5534 35.9372 21.9654 36.0911 22.4083 36.0911H22.4134C22.8532 36.0911 23.2651 35.9372 23.5734 35.6294L24.5566 34.6543C24.5724 34.6387 24.5859 34.6258 24.5939 34.6126L39.5198 19.6882C40.16 19.0494 40.16 18.0102 39.52 17.3706Z" fill="white"/>
<defs>
<linearGradient id="paint0_linear_414_1497" x1="0" y1="0" x2="0" y2="50" gradientUnits="userSpaceOnUse">
<stop stop-color="#67FF81"/>
<stop offset="1" stop-color="#01B41F"/>
</linearGradient>
</defs>
</svg>
