<svg width="12" height="12" viewBox="0 0 12 12" fill="none" xmlns="http://www.w3.org/2000/svg">
<g clip-path="url(#clip0_554_206)">
<path d="M6.00574 4.94426L9.96903 0.991697C10.2623 0.69915 10.7371 0.699701 11.0297 0.992927C11.3223 1.28615 11.3217 1.76103 11.0285 2.05359L7.06686 6.00446L11.0267 9.96098C11.3197 10.2538 11.3199 10.7286 11.0271 11.0216C10.7343 11.3146 10.2595 11.3148 9.96646 11.022L6.00475 7.06368L2.04168 11.016C1.74844 11.3086 1.27358 11.308 0.981018 11.0148C0.688459 10.7216 0.689021 10.2467 0.982248 9.95413L4.94363 6.00348L0.986115 2.04933C0.693111 1.75654 0.692947 1.28167 0.985729 0.988662C1.27851 0.695658 1.75339 0.695494 2.04639 0.988275L6.00572 4.94426H6.00574Z" fill="white"/>
</g>
<defs>
<clipPath id="clip0_554_206">
<rect width="12" height="12" fill="white"/>
</clipPath>
</defs>
</svg>
