<svg width="50" height="50" viewBox="0 0 50 50" fill="none" xmlns="http://www.w3.org/2000/svg">
<circle cx="25" cy="25" r="25" fill="url(#paint0_linear_414_1570)"/>
<circle cx="25" cy="25" r="25" fill="black" fill-opacity="0.2"/>
<path fill-rule="evenodd" clip-rule="evenodd" d="M33.798 21.9558C36.6853 22.7903 38.5768 23.8992 39.5901 24.9125C40.6034 25.9258 40.6451 26.4654 40.6272 26.9528C40.6094 27.4402 40.1726 29.2817 40.1095 29.6067C40.0464 29.9318 39.5601 30.9271 38.4273 30.7234C37.2944 30.5197 35.0779 30.0528 33.5834 29.7646C31.3744 29.4485 31.5742 28.1402 31.4856 27.5645C31.3225 26.5051 31.4297 26.0963 30.6792 25.3457C29.9286 24.5951 25.6985 24.5603 24.6715 24.5365C23.6523 24.5129 19.7299 24.7707 18.9842 25.3204C18.2333 25.8739 18.0507 27.4376 18.0401 27.7983C17.8208 29.4677 16.738 29.4511 16.0641 29.6472C15.3902 29.8433 12.2001 30.584 11.1782 30.7802C10.1921 30.9406 9.58996 30.2668 9.58996 30.2668C9.58996 30.2668 8.80724 28.6685 8.81393 26.8396C8.81557 26.3899 8.93511 25.7426 9.90244 24.7753C10.8698 23.808 12.08 22.9511 15.8871 21.8457C19.0022 20.9412 22.649 20.7561 24.6655 20.7663C26.7177 20.7406 30.4999 21.0026 33.798 21.9558Z" fill="white"/>
<defs>
<linearGradient id="paint0_linear_414_1570" x1="0" y1="0" x2="0" y2="50" gradientUnits="userSpaceOnUse">
<stop stop-color="#C81212"/>
<stop offset="1" stop-color="#851717"/>
</linearGradient>
</defs>
</svg>
