<svg width="25" height="25" viewBox="0 0 25 25" fill="none" xmlns="http://www.w3.org/2000/svg">
<path d="M12.6543 17.1517C12.6543 14.4286 14.8695 12.2134 17.5926 12.2134C18.142 12.2134 18.67 12.3049 19.164 12.4712L19.575 7.53967H3.96991L5.19196 22.2038C5.3226 23.7717 6.65745 25 8.23094 25H15.314C16.8874 25 18.2224 23.7717 18.353 22.2038L18.3676 22.0286C18.1149 22.0686 17.8562 22.09 17.5926 22.09C14.8696 22.09 12.6543 19.8748 12.6543 17.1517Z" fill="#C81212"/>
<path d="M17.5926 13.3597C15.5018 13.3597 13.8007 15.0608 13.8007 17.1517C13.8007 19.2425 15.5018 20.9436 17.5926 20.9436C19.6834 20.9436 21.3845 19.2425 21.3845 17.1517C21.3845 15.0608 19.6834 13.3597 17.5926 13.3597ZM19.4529 18.2013C19.6768 18.4252 19.6768 18.7881 19.4529 19.012C19.341 19.1239 19.1943 19.1799 19.0475 19.1799C18.9009 19.1799 18.7541 19.1239 18.6422 19.012L17.5926 17.9624L16.5429 19.012C16.431 19.1239 16.2842 19.1799 16.1375 19.1799C15.9909 19.1799 15.8441 19.1239 15.7321 19.012C15.5083 18.7881 15.5083 18.4252 15.7321 18.2013L16.7818 17.1517L15.7321 16.102C15.5083 15.8781 15.5083 15.5152 15.7321 15.2913C15.956 15.0676 16.3189 15.0676 16.5428 15.2913L17.5925 16.341L18.6422 15.2913C18.8661 15.0676 19.229 15.0676 19.4529 15.2913C19.6768 15.5152 19.6768 15.8781 19.4529 16.102L18.4033 17.1517L19.4529 18.2013Z" fill="#C81212"/>
<path d="M9.4356 2.19714C9.4356 1.61776 9.90698 1.14638 10.4864 1.14638H13.0584C13.6379 1.14638 14.1093 1.61776 14.1093 2.19714V2.91322H15.2556V2.19714C15.2557 0.98569 14.27 0 13.0585 0H10.4864C9.275 0 8.28931 0.98569 8.28931 2.19714V2.91322H9.4356V2.19714Z" fill="#C81212"/>
<path d="M19.9295 5.35713C19.9295 4.64164 19.3474 4.05957 18.6319 4.05957H4.91304C4.19755 4.05957 3.61548 4.64164 3.61548 5.35713V6.39332H19.9295V5.35713Z" fill="#C81212"/>
</svg>
