<svg width="10" height="10" viewBox="0 0 10 10" fill="none" xmlns="http://www.w3.org/2000/svg">
<g clip-path="url(#clip0_533_228)">
<path fill-rule="evenodd" clip-rule="evenodd" d="M3.93464 7.98725C4.12576 7.85909 4.38459 7.91013 4.51275 8.10125C4.55417 8.163 4.6185 8.22125 4.705 8.26438C4.79163 8.3075 4.89354 8.33184 5.00004 8.33184C5.10654 8.33184 5.20846 8.3075 5.29509 8.26438C5.38159 8.22125 5.44592 8.163 5.48734 8.10125C5.6155 7.91013 5.87434 7.85909 6.06546 7.98725C6.25659 8.11546 6.30759 8.37429 6.17942 8.56542C6.05146 8.75621 5.87271 8.90763 5.66671 9.01025C5.46079 9.11284 5.23113 9.16517 5.00004 9.16517C4.76896 9.16517 4.53929 9.11284 4.33338 9.01025C4.12739 8.90763 3.94862 8.75621 3.82065 8.56542C3.69249 8.37429 3.74352 8.11546 3.93464 7.98725Z" fill="white"/>
<path fill-rule="evenodd" clip-rule="evenodd" d="M0.955412 0.955366C1.11813 0.792649 1.38195 0.792649 1.54467 0.955366L9.04467 8.45537C9.20737 8.61808 9.20737 8.88191 9.04467 9.04462C8.88196 9.20733 8.61812 9.20733 8.45542 9.04462L0.955412 1.54462C0.792695 1.3819 0.792695 1.11809 0.955412 0.955366Z" fill="white"/>
<path fill-rule="evenodd" clip-rule="evenodd" d="M2.59362 2.34954C2.43591 2.72881 2.36111 3.15037 2.36111 3.58333V4.30554C2.36111 4.40724 2.31548 4.52954 2.19652 4.68741C2.08249 4.8387 1.93446 4.98058 1.77092 5.13733L1.74322 5.16391C1.45832 5.43724 1.25 5.83316 1.25 6.30554C1.25 6.94583 1.74927 7.49999 2.40741 7.49999H7.59258C7.64104 7.49999 7.68867 7.49699 7.73525 7.49116L2.59362 2.34954ZM8.32129 6.8987C8.40933 6.98674 8.556 6.97858 8.61325 6.86799C8.70092 6.69862 8.75 6.50633 8.75 6.30554C8.75 5.83316 8.54167 5.43724 8.25679 5.16391L8.22908 5.13733C8.06554 4.98058 7.9175 4.8387 7.80346 4.68741C7.6845 4.52954 7.63887 4.40724 7.63887 4.30554V3.58333C7.63887 2.86273 7.43167 2.17371 6.97992 1.65866C6.52125 1.13574 5.84604 0.833328 5 0.833328C4.25237 0.833328 3.63816 1.06947 3.18888 1.48524C3.10722 1.56082 3.11084 1.68824 3.18951 1.76692L8.32129 6.8987Z" fill="white"/>
</g>
<defs>
<clipPath id="clip0_533_228">
<rect width="10" height="10" fill="white"/>
</clipPath>
</defs>
</svg>
