<svg width="25" height="25" viewBox="0 0 25 25" fill="none" xmlns="http://www.w3.org/2000/svg">
<g clip-path="url(#clip0_15_274)">
<path d="M22.5 5H8.01792C7.68956 4.99993 7.3644 5.06459 7.06104 5.19026C6.75768 5.31593 6.48207 5.50017 6.24995 5.73242L0.365967 11.616C-0.122314 12.1043 -0.122314 12.8957 0.365967 13.3836L6.24995 19.2676C6.7187 19.7363 7.35464 20 8.01753 20H22.5C23.8808 20 25 18.8809 25 17.5V7.5C25 6.11914 23.8808 5 22.5 5ZM19.1917 14.9242C19.4359 15.1684 19.4359 15.5641 19.1917 15.8082L18.3082 16.6918C18.064 16.9359 17.6683 16.9359 17.4242 16.6918L15 14.2676L12.5757 16.6918C12.3316 16.9359 11.9359 16.9359 11.6917 16.6918L10.8082 15.8082C10.564 15.5641 10.564 15.1684 10.8082 14.9242L13.2324 12.5L10.8082 10.0758C10.564 9.83164 10.564 9.43594 10.8082 9.1918L11.6917 8.3082C11.9359 8.06406 12.3316 8.06406 12.5757 8.3082L15 10.7324L17.4242 8.3082C17.6683 8.06406 18.064 8.06406 18.3082 8.3082L19.1917 9.1918C19.4359 9.43594 19.4359 9.83164 19.1917 10.0758L16.7675 12.5L19.1917 14.9242Z" fill="white"/>
</g>
<defs>
<clipPath id="clip0_15_274">
<rect width="25" height="25" fill="white"/>
</clipPath>
</defs>
</svg>
