<svg width="19" height="19" viewBox="0 0 19 19" fill="none" xmlns="http://www.w3.org/2000/svg">
<path d="M3.16671 6.33341C4.04116 6.33341 4.75004 5.62453 4.75004 4.75008C4.75004 3.87563 4.04116 3.16675 3.16671 3.16675C2.29226 3.16675 1.58337 3.87563 1.58337 4.75008C1.58337 5.62453 2.29226 6.33341 3.16671 6.33341Z" fill="white"/>
<path d="M3.16671 11.0834C4.04116 11.0834 4.75004 10.3746 4.75004 9.50008C4.75004 8.62561 4.04116 7.91675 3.16671 7.91675C2.29226 7.91675 1.58337 8.62561 1.58337 9.50008C1.58337 10.3746 2.29226 11.0834 3.16671 11.0834Z" fill="white"/>
<path d="M4.75004 14.2501C4.75004 15.1246 4.04116 15.8334 3.16671 15.8334C2.29226 15.8334 1.58337 15.1246 1.58337 14.2501C1.58337 13.3756 2.29226 12.6667 3.16671 12.6667C4.04116 12.6667 4.75004 13.3756 4.75004 14.2501Z" fill="white"/>
<path d="M16.625 5.9375C17.0623 5.9375 17.4167 5.58306 17.4167 5.14583V4.35417C17.4167 3.91695 17.0623 3.5625 16.625 3.5625H7.12504C6.68782 3.5625 6.33337 3.91695 6.33337 4.35417V5.14583C6.33337 5.58306 6.68782 5.9375 7.12504 5.9375H16.625Z" fill="white"/>
<path d="M17.4167 9.89583C17.4167 10.3331 17.0623 10.6875 16.625 10.6875H7.12504C6.68782 10.6875 6.33337 10.3331 6.33337 9.89583V9.10417C6.33337 8.66693 6.68782 8.3125 7.12504 8.3125H16.625C17.0623 8.3125 17.4167 8.66693 17.4167 9.10417V9.89583Z" fill="white"/>
<path d="M16.625 15.4375C17.0623 15.4375 17.4167 15.0831 17.4167 14.6458V13.8542C17.4167 13.4169 17.0623 13.0625 16.625 13.0625H7.12504C6.68782 13.0625 6.33337 13.4169 6.33337 13.8542V14.6458C6.33337 15.0831 6.68782 15.4375 7.12504 15.4375H16.625Z" fill="white"/>
</svg>
