<svg width="25" height="25" viewBox="0 0 25 25" fill="none" xmlns="http://www.w3.org/2000/svg">
<path d="M12.5 1.38892C10.337 1.39072 8.2625 2.24842 6.72974 3.77468C5.19698 5.30093 4.33047 7.37172 4.31946 9.53475C4.31946 12.7778 6.1389 15.4931 7.47224 17.4722L7.71529 17.8334C9.04187 19.756 10.465 21.6102 11.9792 23.3889L12.507 24.007L13.0347 23.3889C14.5487 21.6101 15.9718 19.7559 17.2986 17.8334L17.5417 17.4653C18.8681 15.4861 20.6875 12.7778 20.6875 9.53475C20.6765 7.37052 19.809 5.29868 18.2748 3.77223C16.7405 2.24578 14.6643 1.38889 12.5 1.38892V1.38892ZM12.5 13.1945C11.599 13.1945 10.7182 12.9273 9.96908 12.4267C9.21993 11.9262 8.63603 11.2147 8.29123 10.3823C7.94643 9.54983 7.85621 8.63386 8.03199 7.75017C8.20777 6.86648 8.64164 6.05476 9.27875 5.41765C9.91586 4.78055 10.7276 4.34667 11.6113 4.17089C12.495 3.99512 13.4109 4.08533 14.2433 4.43013C15.0758 4.77493 15.7873 5.35883 16.2878 6.10799C16.7884 6.85714 17.0556 7.73791 17.0556 8.63892C17.0556 9.84712 16.5756 11.0058 15.7213 11.8602C14.8669 12.7145 13.7082 13.1945 12.5 13.1945V13.1945Z" fill="white"/>
<path d="M12.4999 11.2291C13.9305 11.2291 15.0902 10.0694 15.0902 8.63886C15.0902 7.20829 13.9305 6.04858 12.4999 6.04858C11.0694 6.04858 9.90967 7.20829 9.90967 8.63886C9.90967 10.0694 11.0694 11.2291 12.4999 11.2291Z" fill="white"/>
</svg>
