<svg width="50" height="50" viewBox="0 0 50 50" fill="none" xmlns="http://www.w3.org/2000/svg">
<circle cx="25" cy="25" r="25" fill="url(#paint0_linear_411_172)"/>
<path d="M34.5659 20.2617C34.0181 18.9544 33.2213 17.7662 32.2197 16.7632C31.2211 15.7585 30.0349 14.9597 28.7285 14.4121C27.3901 13.8485 25.9522 13.5596 24.5 13.5625H24.4511C22.9741 13.5698 21.5459 13.8628 20.2007 14.439C18.9054 14.9921 17.7304 15.7924 16.7412 16.7949C15.7493 17.7957 14.9616 18.9798 14.4218 20.2813C13.8616 21.6347 13.5777 23.0865 13.5869 24.5513C13.5942 26.2456 13.9995 27.9278 14.7563 29.4317V33.1426C14.7563 33.7627 15.2592 34.2656 15.8769 34.2656H19.583C21.0939 35.0281 22.7612 35.4292 24.4536 35.4375H24.5049C25.9648 35.4375 27.3784 35.1543 28.7114 34.6001C30.0112 34.0591 31.193 33.2696 32.1904 32.2759C33.1963 31.2774 33.9873 30.1104 34.5415 28.8091C35.1152 27.4614 35.4082 26.0283 35.4155 24.5489C35.4204 23.062 35.1323 21.6192 34.5659 20.2617ZM19.6269 25.6719C18.9824 25.6719 18.4575 25.147 18.4575 24.5C18.4575 23.853 18.9824 23.3281 19.6269 23.3281C20.2715 23.3281 20.7964 23.853 20.7964 24.5C20.7964 25.147 20.2739 25.6719 19.6269 25.6719ZM24.5 25.6719C23.8554 25.6719 23.3305 25.147 23.3305 24.5C23.3305 23.853 23.8554 23.3281 24.5 23.3281C25.1445 23.3281 25.6694 23.853 25.6694 24.5C25.6694 25.147 25.1445 25.6719 24.5 25.6719ZM29.373 25.6719C28.7285 25.6719 28.2036 25.147 28.2036 24.5C28.2036 23.853 28.7285 23.3281 29.373 23.3281C30.0175 23.3281 30.5425 23.853 30.5425 24.5C30.5425 25.147 30.0175 25.6719 29.373 25.6719Z" fill="white"/>
<defs>
<linearGradient id="paint0_linear_411_172" x1="0" y1="0" x2="0" y2="50" gradientUnits="userSpaceOnUse">
<stop stop-color="#67FF81"/>
<stop offset="1" stop-color="#01B41F"/>
</linearGradient>
</defs>
</svg>
