<svg width="11" height="8" viewBox="0 0 11 8" fill="none" xmlns="http://www.w3.org/2000/svg">
<path fill-rule="evenodd" clip-rule="evenodd" d="M5.1203 1.26998C6.77685 1.26998 8.28656 1.86666 9.44414 2.84506L10.2479 1.97743C8.87687 0.81372 7.0863 3.05176e-05 5.1203 3.05176e-05C3.15729 3.05176e-05 1.36928 0.81125 0 1.97125L0.802022 2.84012C1.95874 1.8646 3.46589 1.26998 5.1203 1.26998ZM5.12032 3.77443C6.11314 3.77443 7.02016 4.12692 7.71974 4.70754L8.57 3.78925C7.64462 3.01263 6.44095 2.5053 5.12032 2.5053C3.80226 2.5053 2.59944 3.01139 1.67492 3.78555L2.52389 4.70507C3.22304 4.12568 4.12879 3.77443 5.12032 3.77443ZM6.86904 5.62582C6.39568 5.24162 5.78616 4.97561 5.11987 4.97561C4.45487 4.97561 3.8462 5.24121 3.37284 5.62376L5.11987 7.51509L6.86904 5.62582Z" fill="white"/>
</svg>
