<svg width="18" height="18" viewBox="0 0 18 18" fill="none" xmlns="http://www.w3.org/2000/svg">
<g clip-path="url(#clip0_412_630)">
<path d="M16.7996 2.40018C16.4813 2.40029 16.176 2.52679 15.951 2.75185L8.1026 10.6002L6.18112 6.81872C5.71249 6.3501 4.95247 6.34988 4.48357 6.81822C4.01466 7.28657 4.01444 8.04613 4.48306 8.51476L7.25357 13.1453C7.72243 13.614 8.48278 13.614 8.95163 13.1453L17.6491 4.44788C18.1177 3.97925 18.1175 3.21964 17.6486 2.75129C17.4234 2.52637 17.118 2.40007 16.7996 2.40018ZM8.90886 -0.00108801C6.61017 0.0234593 4.34173 0.924907 2.63385 2.6333C-0.242584 5.5106 -0.83019 9.9761 1.20357 13.4997C3.23733 17.0234 7.39898 18.748 11.3289 17.6947C15.2588 16.6414 18 13.0672 18 8.99878C18 8.33624 17.4626 7.79916 16.7997 7.79915C16.1367 7.79912 15.5993 8.33622 15.5993 8.99878C15.5993 11.9938 13.5978 14.6025 10.707 15.3773C7.81618 16.1521 4.78 14.8944 3.28312 12.301C1.78624 9.7075 2.21554 6.4464 4.33218 4.32911C6.44883 2.21182 9.7067 1.78288 12.2987 3.27985C12.8727 3.61134 13.607 3.41501 13.9386 2.84135C14.2703 2.26772 14.0739 1.534 13.4999 1.2025C12.0686 0.375885 10.4817 -0.0178835 8.90886 -0.00108801Z" fill="white"/>
</g>
<defs>
<clipPath id="clip0_412_630">
<rect width="18" height="18" fill="white"/>
</clipPath>
</defs>
</svg>
