<svg width="45" height="45" viewBox="0 0 45 45" fill="none" xmlns="http://www.w3.org/2000/svg">
<path d="M26.3793 40.3448L22.5 45L18.6206 40.3448L19.3964 10.8618L22.5 8.53418L25.6034 10.8618L26.3793 40.3448Z" fill="#C03A2B"/>
<path d="M18.6661 38.6305L26.3022 37.4085L26.0989 29.6824L18.871 30.8392L18.6661 38.6305Z" fill="#F0C419"/>
<path d="M19.076 23.0477L25.8951 21.9568L25.6919 14.2307L19.2808 15.2564L19.076 23.0477Z" fill="#F0C419"/>
<path d="M18.6206 3.10303H26.3793L22.5 8.5341L18.6206 3.10303Z" fill="#E64C3C"/>
<path d="M25.1671 4.80027L32.5867 2.32683L28.7066 0L24.0521 3.10274H26.379L25.1671 4.80027Z" fill="#C03A2B"/>
<path d="M19.8329 4.80027L12.4133 2.32683L16.2935 0L20.9478 3.10274H18.621L19.8329 4.80027Z" fill="#C03A2B"/>
</svg>
