<svg width="45" height="45" viewBox="0 0 45 45" fill="none" xmlns="http://www.w3.org/2000/svg">
<path d="M32.9768 36.7669V35.0576H27.2792V36.7669H26.7095V39.0459H33.5465V36.7669H32.9768Z" fill="#FCC309"/>
<path d="M34.6858 36.7669V35.0576H32.9766V36.7669H33.5463V39.0459H35.2555V36.7669H34.6858Z" fill="#FD9808"/>
<path d="M27.279 36.7669V35.0576H25.5698V36.7669H25V39.0459H26.7093V36.7669H27.279Z" fill="white"/>
<path d="M26.7095 35.0575H33.5465V17.9648H26.7095V35.0575Z" fill="#FFDD09"/>
<path d="M25 35.0575H26.7093V17.9648H25V35.0575Z" fill="white"/>
<path d="M33.5464 35.0575H35.2556V17.9648H33.5464V35.0575Z" fill="#FD9808"/>
<path d="M32.9768 17.9649H27.2793V15.1161C27.2793 11.5266 28.3619 8.16507 30.1281 6C31.8943 8.16507 32.9768 11.5266 32.9768 15.1161V17.9649Z" fill="#FCC309"/>
<path d="M25.5698 15.1161V17.9649H27.2791V15.1161C27.2791 11.5266 28.3616 8.16507 30.1278 6C27.2791 8.16507 25.5698 11.5266 25.5698 15.1161Z" fill="white"/>
<path d="M30.1279 6C31.8942 8.16507 32.9767 11.5266 32.9767 15.1161V17.9649H34.6859V15.1161C34.686 11.5266 32.9768 8.16507 30.1279 6Z" fill="#FD9808"/>
<path d="M24.9768 36.7669V35.0576H19.2792V36.7669H18.7095V39.0459H25.5465V36.7669H24.9768Z" fill="#FCC309"/>
<path d="M26.6858 36.7669V35.0576H24.9766V36.7669H25.5463V39.0459H27.2555V36.7669H26.6858Z" fill="#FD9808"/>
<path d="M19.279 36.7669V35.0576H17.5698V36.7669H17V39.0459H18.7093V36.7669H19.279Z" fill="white"/>
<path d="M18.7095 35.0575H25.5465V17.9648H18.7095V35.0575Z" fill="#FFDD09"/>
<path d="M17 35.0575H18.7093V17.9648H17V35.0575Z" fill="white"/>
<path d="M25.5464 35.0575H27.2556V17.9648H25.5464V35.0575Z" fill="#FD9808"/>
<path d="M24.9768 17.9649H19.2793V15.1161C19.2793 11.5266 20.3619 8.16507 22.1281 6C23.8943 8.16507 24.9768 11.5266 24.9768 15.1161V17.9649Z" fill="#FCC309"/>
<path d="M17.5698 15.1161V17.9649H19.2791V15.1161C19.2791 11.5266 20.3616 8.16507 22.1278 6C19.2791 8.16507 17.5698 11.5266 17.5698 15.1161Z" fill="white"/>
<path d="M22.1279 6C23.8942 8.16507 24.9767 11.5266 24.9767 15.1161V17.9649H26.6859V15.1161C26.686 11.5266 24.9768 8.16507 22.1279 6Z" fill="#FD9808"/>
<path d="M16.9768 36.7669V35.0576H11.2792V36.7669H10.7095V39.0459H17.5465V36.7669H16.9768Z" fill="#FCC309"/>
<path d="M18.6858 36.7669V35.0576H16.9766V36.7669H17.5463V39.0459H19.2555V36.7669H18.6858Z" fill="#FD9808"/>
<path d="M11.279 36.7669V35.0576H9.56979V36.7669H9V39.0459H10.7093V36.7669H11.279Z" fill="white"/>
<path d="M10.7095 35.0575H17.5465V17.9648H10.7095V35.0575Z" fill="#FFDD09"/>
<path d="M9 35.0575H10.7093V17.9648H9V35.0575Z" fill="white"/>
<path d="M17.5464 35.0575H19.2556V17.9648H17.5464V35.0575Z" fill="#FD9808"/>
<path d="M16.9768 17.9649H11.2793V15.1161C11.2793 11.5266 12.3619 8.16507 14.1281 6C15.8943 8.16507 16.9768 11.5266 16.9768 15.1161V17.9649Z" fill="#FCC309"/>
<path d="M9.56982 15.1161V17.9649H11.2791V15.1161C11.2791 11.5266 12.3616 8.16507 14.1278 6C11.2791 8.16507 9.56982 11.5266 9.56982 15.1161Z" fill="white"/>
<path d="M14.1279 6C15.8942 8.16507 16.9767 11.5266 16.9767 15.1161V17.9649H18.6859V15.1161C18.686 11.5266 16.9768 8.16507 14.1279 6Z" fill="#FD9808"/>
</svg>
