<svg width="45" height="45" viewBox="0 0 45 45" fill="none" xmlns="http://www.w3.org/2000/svg">
<path d="M42.9639 35.6192V21.5865C41.3907 21.5865 39.9663 20.9493 38.9355 19.9185C37.9047 18.8877 37.2676 17.4645 37.2676 15.8913V2.69826C37.2676 2.4479 37.1096 2.22471 36.8733 2.14171L30.8807 0.0339183C30.4969 -0.101075 30.095 0.183685 30.095 0.590469V4.51215C30.095 8.7063 26.6948 12.1065 22.4995 12.1065C20.403 12.1065 18.5038 11.2562 17.1291 9.88256C15.7555 8.50782 14.9051 6.60866 14.9051 4.51215V0.590469C14.9051 0.183685 14.5031 -0.101075 14.1193 0.0339183L8.12673 2.14171C7.89058 2.22482 7.73246 2.4479 7.73246 2.69826V15.8913C7.73246 19.0366 5.18259 21.5865 2.03613 21.5865V35.6192V41.6167V45H42.9638V41.6167" fill="#4B4B4B"/>
<path d="M4.40432 35.6192V21.5865C7.55078 21.5865 10.1007 19.0366 10.1007 15.8913V2.28031L14.905 0.590469C14.905 0.183685 14.503 -0.101075 14.1193 0.0339183L8.12673 2.14159C7.89058 2.22471 7.73246 2.44778 7.73246 2.69815V15.8913C7.73246 19.0366 5.18259 21.5865 2.03613 21.5865V35.6192V41.6167V45H4.40432V41.6167V35.6192Z" fill="#4B4B4B"/>
<path d="M15.2681 6.8382L10.1007 8.56932L7.73355 9.36213H7.73242V2.69875C7.73242 2.44838 7.89042 2.22531 8.12657 2.1422L10.1007 1.44749L14.1193 0.0344065C14.5031 -0.100587 14.905 0.184173 14.905 0.590958V4.51275C14.905 5.32362 15.0324 6.10515 15.2681 6.8382Z" fill="#808080"/>
<path d="M37.2672 2.69875V9.36202L29.7314 6.83809C29.9671 6.10504 30.0946 5.3235 30.0946 4.51264V0.590958C30.0946 0.184173 30.4966 -0.100587 30.8803 0.0344065L36.8729 2.1422C37.1092 2.2252 37.2672 2.44838 37.2672 2.69875Z" fill="#808080"/>
<path d="M8.68795 35.6191H2.28553C1.65319 35.6191 1.14062 36.1317 1.14062 36.764V40.4713C1.14062 41.1037 1.65319 41.6162 2.28553 41.6162H8.68795V35.6191Z" fill="#666666"/>
<path d="M3.44115 35.6191H2.28553C1.65319 35.6191 1.14062 36.1317 1.14062 36.764V40.4713C1.14062 41.1037 1.65319 41.6162 2.28553 41.6162H3.44115V35.6191Z" fill="#4D4D4D"/>
<path d="M42.7144 35.6191H36.312V41.6162H42.7144C43.3468 41.6162 43.8593 41.1037 43.8593 40.4713V36.764C43.8593 36.1317 43.3468 35.6191 42.7144 35.6191Z" fill="#666666"/>
<path d="M18.4838 22.3401H12.789C12.4153 22.3401 12.1123 22.0372 12.1123 21.6635C12.1123 21.2897 12.4153 20.9868 12.789 20.9868H18.4838C18.8575 20.9868 19.1605 21.2897 19.1605 21.6635C19.1605 22.0372 18.8575 22.3401 18.4838 22.3401Z" fill="#666666"/>
<path d="M18.4838 19.2952H12.789C12.4153 19.2952 12.1123 18.9923 12.1123 18.6186C12.1123 18.2448 12.4153 17.9419 12.789 17.9419H18.4838C18.8575 17.9419 19.1605 18.2448 19.1605 18.6186C19.1605 18.9923 18.8575 19.2952 18.4838 19.2952Z" fill="#666666"/>
<path d="M32.9322 20.6033L33.2243 24.0227L30.0631 22.6885L28.8903 23.1836L26.902 24.0227L27.1941 20.6033L24.9487 18.0094L28.2903 17.2313L30.0631 14.2935L31.527 16.7204L31.836 17.2313L35.1775 18.0094L32.9322 20.6033Z" fill="#EAB96C"/>
<path d="M32.932 20.6036L33.2241 24.023L30.063 22.6888L28.8901 23.1839L31.5268 16.7207L31.8359 17.2316L35.1774 18.0097L32.932 20.6036Z" fill="#FCCC8B"/>
<path d="M10.1007 1.44727V8.56909L7.73355 9.36191H7.73242V2.69852C7.73242 2.44816 7.89042 2.22508 8.12657 2.14197L10.1007 1.44727Z" fill="#666666"/>
</svg>
