<svg width="45" height="45" viewBox="0 0 45 45" fill="none" xmlns="http://www.w3.org/2000/svg">
<g clip-path="url(#clip0_421_530)">
<path d="M33.2925 44.1001H12.1757C7.64952 44.1001 4.10618 40.2031 4.53553 35.6976L6.55879 14.4466C6.99886 9.82776 10.8788 6.2998 15.5183 6.2998H29.8051C34.423 6.2998 38.2912 9.79454 38.7593 14.3882L40.4999 36C40.8175 40.4425 37.7467 44.1001 33.2925 44.1001Z" fill="#7383BF"/>
<path d="M17.1905 6.29995H27.8097C27.3911 4.24883 25.5732 2.69992 23.3996 2.69992H21.5996C19.4269 2.69992 17.608 4.24883 17.1905 6.29995ZM28.7997 8.09996H16.1996C15.7028 8.09996 15.2996 7.69768 15.2996 7.19995C15.2996 3.72684 18.1265 0.899902 21.5996 0.899902H23.3996C26.8736 0.899902 29.6997 3.72684 29.6997 7.19995C29.6997 7.69768 29.2974 8.09996 28.7997 8.09996Z" fill="#7383BF"/>
<path d="M6.5791 14.3063C9.0659 20.6783 15.248 25.2 22.5003 25.2C29.9892 25.2 36.3379 20.3777 38.6518 13.6745C37.8768 9.43814 34.1796 6.2998 29.8056 6.2998H15.5189C10.9262 6.2998 7.08404 9.75675 6.5791 14.3063Z" fill="#424A60"/>
<path d="M14.3999 40.4999H30.6V36.8999H14.3999V40.4999Z" fill="#424A60"/>
<path d="M4.5351 35.6975L4.84923 32.3999H2.55148C1.14206 32.3999 0 33.542 0 34.9514V37.988C0 40.8672 2.33281 43.2 5.21195 43.2H8.58522C5.94277 41.796 4.23003 38.9052 4.5351 35.6975Z" fill="#424A60"/>
<path d="M40.4649 35.6975L40.2102 32.3999H42.4486C43.858 32.3999 45 33.542 45 34.9514V37.988C45 40.8672 42.6672 43.2 39.7881 43.2H36.855C39.4974 41.796 40.77 38.9052 40.4649 35.6975Z" fill="#424A60"/>
<path d="M13.5 32.4003H17.1V28.8003H13.5V32.4003Z" fill="#424A60"/>
<path d="M27.9001 32.4003H31.5002V28.8003H27.9001V32.4003Z" fill="#424A60"/>
</g>
<defs>
<clipPath id="clip0_421_530">
<rect width="45" height="45" fill="white"/>
</clipPath>
</defs>
</svg>
