<svg width="45" height="45" viewBox="0 0 45 45" fill="none" xmlns="http://www.w3.org/2000/svg">
<path d="M22.4333 13.7529C21.6247 16.6076 23.1856 18.9596 28.009 20.9143C30.3469 21.86 33.2051 22.9322 34.4883 25.2244C35.5254 27.0842 34.1473 30.6139 29.3977 29.8721C24.504 29.1092 19.9512 23.2592 13.2715 20.5873C7.19303 18.158 2.00397 19.4272 2.04615 23.5826C2.07779 26.7256 4.60553 27.5869 5.93443 27.4463C6.8274 27.3514 7.70279 26.8943 9.39733 26.6764C11.5102 26.4057 17.3356 30.5365 21.1782 32.9869C25.8294 35.9576 34.861 37.3322 38.352 32.1994C41.5196 27.5412 40.3559 22.9885 36.3727 19.9686C32.7622 17.2334 27.545 16.5232 28.009 14.9412C28.5786 12.99 34.1649 14.7689 38.1551 14.5721C42.2122 14.3752 43.0032 12.8916 43.0067 12.1955C43.0102 11.1795 40.9536 12.2447 38.1305 11.8721C33.17 11.2182 30.5825 9.67129 26.3919 10.2584C24.6376 10.515 22.9993 11.7525 22.4333 13.7529Z" fill="#E9938B"/>
<path d="M35.726 12.695C35.6873 13.2856 35.7084 13.936 35.7541 14.5126C36.5803 14.5794 37.3959 14.6146 38.1553 14.5759C38.4717 14.5618 38.76 14.5337 39.0377 14.5056C38.992 14.1048 38.9498 13.6407 38.9463 13.3067C38.9428 12.8356 38.9674 12.3364 38.992 11.9497C38.7143 11.9392 38.426 11.9181 38.1307 11.8794C37.3647 11.7769 36.6025 11.6479 35.8455 11.4927C35.7998 11.8337 35.7576 12.238 35.726 12.695Z" fill="#FFA9A8"/>
<path d="M25.2353 11.7248C27.6962 12.0201 28.4345 13.3736 28.4907 14.3509C29.0216 14.0451 30.0341 13.9958 30.9306 14.0416C30.8181 13.5248 30.7091 12.9025 30.6669 12.3013C30.6353 11.8619 30.6423 10.9654 30.6528 10.3501C29.3204 10.1287 27.9704 10.0478 26.3919 10.2693C25.3513 10.4169 24.1384 10.9021 23.2524 12.1044C23.7165 11.8443 24.5181 11.6369 25.2353 11.7248Z" fill="#FFA9A8"/>
<path d="M37.2798 23.1398C38.3873 23.1398 39.0798 23.4422 39.5052 23.7621C38.8724 22.3453 37.8072 21.0586 36.3728 19.9723C35.9966 19.6875 35.5994 19.4238 35.1986 19.1777C34.7134 19.2832 33.947 19.5539 33.3388 20.2676C32.6709 21.048 32.5548 22.4156 32.5408 23.1363C33.3107 23.6883 33.9787 24.3422 34.4462 25.1543C34.7205 24.532 35.5255 23.1398 37.2798 23.1398Z" fill="#FFA9A8"/>
<path d="M26.6308 20.2991C26.5219 19.6382 26.4656 18.4605 27.116 17.3179C27.5519 16.548 28.2937 16.2456 28.7789 16.1261C28.1883 15.7605 27.8789 15.3878 28.0055 14.9484C28.0265 14.878 27.9738 15.0081 28.0055 14.9484C27.7172 14.1362 27.1125 12.9691 25.1262 12.6913C23.9027 12.5191 22.95 13.0956 22.4086 13.8339C21.7336 16.3581 22.9359 18.4886 26.6308 20.2991Z" fill="#FFA9A8"/>
<path d="M32.3789 19.9091C33.0012 19.1075 33.7043 18.7665 34.193 18.6188C32.5617 17.7645 30.8953 17.1634 29.6965 16.6079C29.2008 16.7345 28.4274 17.0614 27.9563 17.9087C27.3657 18.9704 27.5028 20.1763 27.6223 20.7528C27.7489 20.8056 27.8719 20.8618 28.0055 20.9181C29.1692 21.3892 30.4594 21.8919 31.6231 22.5599C31.6512 21.913 31.7813 20.679 32.3789 19.9091Z" fill="#FFA9A8"/>
<path d="M34.8222 12.9129C34.8468 12.3926 34.9242 11.8125 35.0015 11.3168C33.7394 11.0355 32.6109 10.7402 31.507 10.5117C31.4859 11.0566 31.4824 11.7984 31.5527 12.4734C31.609 13.0043 31.7601 13.616 31.9043 14.1117C32.8218 14.1961 33.8238 14.3262 34.8363 14.4281C34.8082 13.9641 34.7941 13.4402 34.8222 12.9129Z" fill="#FFA9A8"/>
<path d="M39.8146 11.957C39.8111 12.3824 39.8111 12.9203 39.8216 13.2929C39.8287 13.6093 39.8638 14.0207 39.899 14.3828C42.4478 13.9117 43.0068 12.7832 43.0068 12.2031C43.0068 11.405 41.7306 11.8902 39.8146 11.957Z" fill="#FFA9A8"/>
<path d="M37.3677 24.047C36.0142 24.1841 35.1599 25.404 34.7802 26.1318C34.8751 26.8243 34.7239 27.5943 34.2915 28.2622C34.7942 28.329 35.87 28.5575 36.6856 29.3415C37.7896 30.4032 37.9829 31.813 37.9794 32.6954C38.1095 32.5372 38.2325 32.372 38.352 32.1997C40.0255 29.7388 40.4896 27.306 39.9657 25.1122C39.4771 24.5954 38.5981 23.9239 37.3677 24.047Z" fill="#FFA9A8"/>
<path d="M35.8595 30.2697C35.2688 29.5525 34.1192 29.215 33.5462 29.085C32.9169 29.5807 32.045 29.9217 30.9024 29.9674C31.1169 30.3717 31.4192 31.1873 31.4192 32.5795C31.4192 33.9611 30.9833 35.058 30.688 35.6381C32.9661 35.617 35.1423 35.0896 36.7911 33.8381C36.8228 33.0471 36.756 31.3596 35.8595 30.2697Z" fill="#FFA9A8"/>
<path d="M14.1153 24.511C14.4774 23.5231 14.5126 21.92 14.5056 21.129C14.1013 20.9391 13.6899 20.7563 13.2681 20.5876C7.19305 18.1547 1.64891 19.5047 1.69462 23.6602C1.72626 26.8032 4.60555 27.5872 5.93446 27.4465C6.82743 27.3516 7.70282 26.8946 9.39735 26.6766C10.0091 26.5993 10.9372 26.8911 12.0341 27.4043C12.5755 26.9579 13.5809 25.97 14.1153 24.511Z" fill="#FFA9A8"/>
<path d="M30.1676 32.6288C30.1008 31.3772 29.8547 30.3929 29.6825 29.9112C29.5875 29.9007 29.4891 29.8901 29.3907 29.8726C25.1579 29.2116 21.1782 24.7433 15.8555 21.8218C15.9293 22.4827 15.8696 23.7202 15.054 25.6995C14.6743 26.6171 13.7602 27.6085 13.3137 28.0585C15.8239 29.4261 18.8579 31.5108 21.1747 32.9909C23.2805 34.3339 26.2829 35.3499 29.2606 35.5855C29.6016 35.0089 30.2309 33.7608 30.1676 32.6288Z" fill="#FFA9A8"/>
<path d="M17.9121 26.7223C16.8539 28.3571 15.6094 28.8528 15.6023 29.5946C15.5953 30.1887 16.548 30.8321 19.3816 32.5618C22.398 34.404 23.2629 34.4919 23.8078 34.193C24.1769 33.9927 25.0312 33.4583 25.8469 32.1329C26.7539 30.6634 27.0844 29.0708 26.093 28.3536C25.4742 27.9071 24.9504 27.5415 23.3051 26.4059C21.1289 24.9012 19.8562 23.7727 19.3289 23.7833C18.7172 23.7973 18.8894 25.2141 17.9121 26.7223Z" fill="#E9938B"/>
</svg>
