<svg width="45" height="45" viewBox="0 0 45 45" fill="none" xmlns="http://www.w3.org/2000/svg">
<path d="M22.5 5.71289C16.7607 5.71289 11.5664 6.65244 7.87852 8.12988C6.03369 8.86816 4.57031 9.73828 3.60703 10.6523C2.64463 11.5576 2.19727 12.4629 2.19727 13.3594C2.19727 14.2559 2.64463 15.1611 3.60703 16.0664C4.57031 16.9805 6.03369 17.8506 7.87852 18.5889C11.5664 20.0654 16.7607 21.0059 22.5 21.0059C28.2393 21.0059 33.4336 20.0654 37.125 18.5889C38.9619 17.8506 40.4297 16.9805 41.3965 16.0664C42.3545 15.1611 42.8027 14.2559 42.8027 13.3594C42.8027 12.4629 42.3545 11.5576 41.3965 10.6523C40.4297 9.73828 38.9619 8.86816 37.125 8.12988C33.4336 6.65244 28.2393 5.71289 22.5 5.71289ZM22.5088 6.90205C27.0176 6.90205 31.1045 7.47949 34.1191 8.44629C35.6309 8.92969 36.8789 9.50098 37.8018 10.2041C38.7334 10.8984 39.3838 11.7861 39.3838 12.832C39.3838 13.8779 38.7334 14.7656 37.8018 15.46C36.8789 16.1631 35.6309 16.7344 34.1191 17.2178C31.1045 18.1846 27.0176 18.7646 22.5088 18.7646C18 18.7646 13.9131 18.1846 10.8984 17.2178C9.38672 16.7344 8.13604 16.1631 7.21143 15.46C6.2877 14.7656 5.63379 13.8779 5.63379 12.832C5.63379 11.7861 6.2877 10.8984 7.21143 10.2041C8.13604 9.50098 9.38672 8.92969 10.8984 8.44629C13.9131 7.47949 18 6.90205 22.5088 6.90205ZM22.5088 8.48145C18.1318 8.48145 14.1768 9.06152 11.373 9.94922C9.97559 10.3975 8.86816 10.9336 8.16592 11.4609C7.46191 11.9971 7.21582 12.4541 7.21582 12.832C7.21582 13.21 7.46191 13.667 8.16592 14.2031C8.86816 14.7305 9.97559 15.2666 11.373 15.7148C14.1768 16.6025 18.1318 17.1826 22.5088 17.1826C26.8857 17.1826 30.8408 16.6025 33.6445 15.7148C35.042 15.2666 36.1494 14.7305 36.8525 14.2031C37.5557 13.667 37.8018 13.21 37.8018 12.832C37.8018 12.4541 37.5557 11.9971 36.8525 11.4609C36.1494 10.9336 35.042 10.3975 33.6445 9.94922C30.8408 9.06152 26.8857 8.48145 22.5088 8.48145ZM2.19727 16.8926V31.6406C2.19727 32.8008 2.71406 33.8027 3.75293 34.752C4.79092 35.7012 6.35098 36.5449 8.26348 37.2217C12.085 38.584 17.2969 39.2871 22.5 39.2871C27.7031 39.2871 32.915 38.584 36.7383 37.2217C38.6455 36.5449 40.21 35.7012 41.2471 34.752C42.2842 33.8027 42.8027 32.8008 42.8027 31.6406V16.8926C42.6973 17.0068 42.5918 17.1123 42.4775 17.2178C41.3086 18.3252 39.6826 19.2744 37.7051 20.0566C33.7676 21.6387 28.4062 22.5879 22.5 22.5879C16.5938 22.5879 11.2324 21.6387 7.29053 20.0566C5.31738 19.2744 3.69229 18.3252 2.5207 17.2178C2.4082 17.1123 2.30098 17.0068 2.19727 16.8926V16.8926ZM8.4375 24.6094L14.0977 28.8457C17.0244 27.501 20.4082 25.8486 26.0244 25.8486C29.54 25.8486 36.5713 28.125 36.5713 29.8916C36.5713 31.6406 29.54 33.9258 26.0244 33.9258C20.4082 33.9258 17.0244 32.2646 14.0977 30.9199L8.4375 35.1562V24.6094Z" fill="#1250C8"/>
</svg>
