<svg width="45" height="45" viewBox="0 0 45 45" fill="none" xmlns="http://www.w3.org/2000/svg">
<g clip-path="url(#clip0_421_325)">
<path d="M41.5804 26.0226H39.9296C38.9528 26.0226 38.1609 25.2307 38.1609 24.2539V20.9523C38.1609 19.9755 38.9528 19.1836 39.9296 19.1836H41.5804C43.466 19.1836 45 20.7175 45 22.6032C45 24.4888 43.4659 26.0226 41.5804 26.0226Z" fill="#E87E04"/>
<path d="M20.8497 23.7858C14.6901 23.7858 0 22.5593 0 16.4308C0 6.63086 41.6982 6.63921 41.6982 16.4308C41.6982 22.5547 27.0295 23.7858 20.8497 23.7858ZM38.1622 16.4466H38.1633H38.1622Z" fill="#F2C500"/>
<path d="M20.8494 9.08398V23.7859C20.8495 23.7859 20.8496 23.7859 20.8497 23.7859C27.0295 23.7859 41.6983 22.5547 41.6983 16.4308C41.6981 11.5352 31.2737 9.08504 20.8494 9.08398ZM38.1621 16.4467H38.1632H38.1621Z" fill="#F59D00"/>
<path d="M36.5781 20.8021C29.7343 17.3391 11.9675 17.3375 5.12021 20.802C3.03088 21.8589 1.43865 18.7003 3.52307 17.6456C7.21491 15.7777 13.692 14.6626 20.8496 14.6626C28.0068 14.6626 34.4837 15.7778 38.1754 17.6456C40.2623 18.7018 38.6642 21.8573 36.5781 20.8021Z" fill="#F59D00"/>
<path d="M38.1754 17.6461C34.4838 15.7782 28.007 14.6631 20.8497 14.6631C20.8496 14.6631 20.8495 14.6631 20.8494 14.6631V18.2048C27.0029 18.2049 33.1561 19.0711 36.5781 20.8026C38.6643 21.8576 40.2624 18.7021 38.1754 17.6461Z" fill="#E87E04"/>
<path d="M20.8497 35.916C14.6946 35.916 0 34.6891 0 28.5623V16.4312C0 14.1007 3.52424 14.0866 3.53751 16.421C3.84882 17.585 9.83048 20.2487 20.8498 20.2487C31.6576 20.2487 37.8329 17.6468 38.1608 16.4209C38.174 14.0914 41.6983 14.0968 41.6983 16.4312V28.5623C41.6982 34.6877 27.0163 35.916 20.8497 35.916Z" fill="#FF5E5B"/>
<path d="M38.1607 16.421C37.8329 17.6469 31.6575 20.2488 20.8497 20.2488C20.8496 20.2488 20.8495 20.2488 20.8494 20.2488V35.9161C20.8495 35.9161 20.8496 35.9161 20.8497 35.9161C27.0163 35.9161 41.6983 34.6879 41.6983 28.5624V16.4313C41.6983 14.097 38.174 14.0916 38.1607 16.421Z" fill="#FF423D"/>
<path d="M20.849 29.9471C22.0043 29.9471 22.9407 29.0106 22.9407 27.8554C22.9407 26.7002 22.0043 25.7637 20.849 25.7637C19.6938 25.7637 18.7573 26.7002 18.7573 27.8554C18.7573 29.0106 19.6938 29.9471 20.849 29.9471Z" fill="#F2C500"/>
<path d="M14.953 29.9471C16.1083 29.9471 17.0447 29.0106 17.0447 27.8554C17.0447 26.7002 16.1083 25.7637 14.953 25.7637C13.7978 25.7637 12.8613 26.7002 12.8613 27.8554C12.8613 29.0106 13.7978 29.9471 14.953 29.9471Z" fill="#F2C500"/>
<path d="M22.9411 27.8559C22.9411 26.7007 22.0047 25.7642 20.8496 25.7642V29.9476C22.0047 29.9474 22.9411 29.011 22.9411 27.8559Z" fill="#F59D00"/>
<path d="M26.7448 29.9471C27.9 29.9471 28.8365 29.0106 28.8365 27.8554C28.8365 26.7002 27.9 25.7637 26.7448 25.7637C25.5896 25.7637 24.6531 26.7002 24.6531 27.8554C24.6531 29.0106 25.5896 29.9471 26.7448 29.9471Z" fill="#F59D00"/>
</g>
<defs>
<clipPath id="clip0_421_325">
<rect width="45" height="45" fill="white"/>
</clipPath>
</defs>
</svg>
