<svg width="55" height="45" viewBox="0 0 55 45" fill="none" xmlns="http://www.w3.org/2000/svg">
<path d="M48.4503 27.8531H4.27502C1.91397 27.8531 0 25.8714 0 23.4268C0 20.9821 1.91397 19.0005 4.27502 19.0005H48.4503C48.8437 19.0005 49.1629 19.3308 49.1628 19.7382V27.1154C49.1628 27.5229 48.8437 27.8531 48.4503 27.8531Z" fill="#57352E"/>
<path d="M48.4503 24.9021H4.27503C2.41441 24.9021 0.835962 23.6693 0.248512 21.9512C0.0904391 22.4133 5.75018e-05 22.9085 0 23.4266C0 25.8712 1.91398 27.853 4.27503 27.853H48.4503C48.8437 27.853 49.1629 27.5225 49.1627 27.1152V24.1644C49.1629 24.5718 48.8438 24.9021 48.4503 24.9021Z" fill="#57352E"/>
<path d="M45.6001 27.8527H41.3252C41.3252 23.4265 43.4628 24.1641 43.4627 19H45.6002L45.6001 27.8527Z" fill="#57352E"/>
<path d="M41.813 24.9019C41.5305 25.6103 41.3256 26.484 41.3257 27.8528H45.6006V24.902L41.813 24.9019Z" fill="#57352E"/>
<path d="M21.3762 27.8525H25.6511V19H21.3762V27.8525Z" fill="#424242"/>
<path d="M26.032 26.0347C27.4232 24.5941 27.4232 22.2587 26.032 20.8181C24.6408 19.3777 22.3852 19.3777 20.9938 20.8181C19.6026 22.2587 19.6026 24.5941 20.9938 26.0347C22.3852 27.4751 24.6408 27.4751 26.032 26.0347Z" fill="#607D8B"/>
<path d="M25.0246 24.9909C25.8593 24.1267 25.8593 22.7254 25.0246 21.8611C24.1899 20.9968 22.8365 20.9968 22.0018 21.8611C21.1671 22.7254 21.1671 24.1267 22.0018 24.9909C22.8365 25.8552 24.1899 25.8552 25.0246 24.9909Z" fill="#FFD782"/>
<path d="M46.3921 22.1649C46.6273 21.8662 47.0625 21.724 47.235 21.3924C47.4585 20.966 47.1448 20.4377 47.3173 19.9895C47.4938 19.5229 48.0896 19.3517 48.6071 19.2424C48.9285 19.1731 49.3167 19.1768 49.6303 19.2716C49.7519 19.308 49.8694 19.359 49.9949 19.3954C50.4967 19.5448 51.0141 19.3917 51.5277 19.4501C51.8453 19.4865 52.1706 19.5922 52.3667 19.8254C52.4725 19.953 52.5352 20.1096 52.6411 20.2373C52.841 20.4668 53.1742 20.4996 53.4252 20.6672C53.6643 20.8276 53.9309 20.9843 54.0524 21.2466C54.2484 21.6694 53.9818 22.1577 54.072 22.6096C54.1229 22.8611 54.2759 23.0797 54.366 23.3202C54.3778 23.353 54.3895 23.3858 54.3973 23.4186C54.5111 23.8158 54.4445 24.2567 54.2131 24.6066C54.0015 24.92 53.6682 25.1641 53.5349 25.5139C53.4173 25.8237 53.5427 26.1626 53.4212 26.4688C53.3114 26.7457 52.9939 26.8951 52.6959 26.9424C52.1001 27.0335 51.516 27.1138 50.9279 27.2705C50.5908 27.3616 50.2733 27.5109 49.9439 27.6166C49.2461 27.8425 48.3483 27.7224 47.6936 27.409C47.431 27.2813 47.2115 27.0445 47.2036 26.7712C47.1997 26.6911 47.2154 26.6073 47.188 26.5307C47.1566 26.4396 47.0742 26.3777 47.0076 26.3048C46.7764 26.0387 46.8117 25.6488 46.8939 25.3135C46.9762 24.9783 47.09 24.6248 46.9723 24.3004C46.9018 24.1 46.7528 23.9361 46.6234 23.7611C46.4431 23.5279 46.2942 23.2691 46.2314 22.9886C46.2235 22.9557 46.2196 22.923 46.2157 22.8865C46.1804 22.6351 46.2314 22.369 46.3921 22.1649Z" fill="#607D8B"/>
<path d="M49.6719 25.4909C49.2296 25.8815 48.1082 25.3097 48.7329 24.7708C49.1121 24.447 49.3899 24.5819 49.6831 24.4656C49.8861 24.4176 50.0057 24.3408 50.0365 24.1221C50.1344 23.7771 50.3674 23.3475 50.7132 23.3301C51.3606 23.3259 51.5586 24.2415 50.9482 24.5012C50.689 24.6135 50.3466 24.3638 50.0953 24.5015C49.7378 24.7061 50.023 25.2442 49.6719 25.4909Z" fill="#F44336"/>
<path d="M51.2866 20.3822C51.0347 20.5058 50.8326 20.8654 50.6152 20.9944C50.1937 21.247 49.8735 20.8381 49.247 21.1906C48.8603 21.4084 48.3819 21.8552 48.4115 22.5361C48.4215 22.748 48.5637 22.9628 48.6963 22.9703C49.0676 23.0083 49.3016 22.7463 49.5454 22.3043C49.5959 22.212 49.6527 22.2565 49.7001 22.2469C49.9468 22.303 50.2011 22.2809 50.3495 22.042C50.5721 21.6837 50.4029 21.2814 50.7204 21.0978C50.9267 20.9764 51.145 20.9607 51.3388 21.1565C51.4824 21.3003 51.3395 21.4138 51.4573 21.6912C51.5394 21.8854 51.9203 21.8379 52.014 22.0339C52.1074 22.2299 51.5101 22.5739 51.7057 23.0009C51.7796 23.1649 52.0071 23.1535 52.157 23.0917C52.3968 23.0016 52.6058 22.6441 52.5134 22.3772C52.4389 22.1495 52.1827 22.1789 52.1237 21.9434C52.0648 21.7079 52.4683 21.3168 52.4383 20.9689C52.3418 20.3197 51.7632 20.0915 51.2866 20.3822Z" fill="#F44336"/>
<path d="M48.2153 19.6331C47.9374 19.7948 47.6698 20.0964 47.724 20.431C47.7477 20.5854 47.8358 20.714 47.89 20.8612C48.0255 21.2252 47.9205 21.6775 47.6461 21.9312C47.4055 22.148 47.0497 22.24 46.921 22.5488C46.7956 22.8468 46.9548 23.196 47.1582 23.4424C47.4258 23.7696 47.8629 24.1447 47.8358 24.63C47.8223 24.869 47.724 25.0897 47.6087 25.292C47.5546 25.3839 47.497 25.4758 47.4698 25.5824C47.4428 25.6891 47.4496 25.8104 47.5173 25.8913C47.5715 25.9538 47.6528 25.9795 47.7206 26.0274C47.8866 26.1487 47.9306 26.3914 47.9374 26.6083C47.9442 26.8105 47.907 27.1966 48.0391 27.3621C48.1509 27.5054 48.7506 27.7004 48.92 27.7004C48.4796 27.7004 47.6427 27.8952 47.4224 27.3363C47.3784 27.226 47.3683 27.1046 47.3242 26.9981C47.209 26.7038 46.904 26.5641 46.6872 26.3509C46.4839 26.1487 46.3518 25.8618 46.3213 25.564C46.3009 25.3508 46.3314 25.1338 46.3246 24.9169C46.311 24.3175 45.8808 24.2514 45.5623 23.8543C45.4098 23.6667 45.3217 23.424 45.298 23.174C45.2776 22.9864 45.2912 22.7952 45.3387 22.6114C45.447 22.1885 45.7147 21.8282 46.0332 21.5598C46.3382 21.3024 46.7346 21.0597 46.7651 20.6406C46.7753 20.5082 46.7414 20.3757 46.7346 20.2398C46.7075 19.6146 47.2971 19.4933 47.6495 19.3351C48.0018 19.1771 48.9539 19.1955 48.9539 19.1955C48.7405 19.3904 48.4626 19.4896 48.2153 19.6331Z" fill="#424242"/>
</svg>
