<svg width="45" height="45" viewBox="0 0 45 45" fill="none" xmlns="http://www.w3.org/2000/svg">
<path d="M39.1356 20.0001L1.73222 21.4963C1.32317 21.5126 1 21.849 1 22.2584V23.8435C1 24.2529 1.32317 24.5893 1.73222 24.6056L39.1356 26.1017H40.661C41.5035 26.1017 42.1864 25.4188 42.1864 24.5763V21.5254C42.1864 20.6829 41.5035 20 40.661 20H39.1356V20.0001Z" fill="#F2F2F4"/>
<path d="M36.8474 20.0916V22.8693C36.8474 23.2953 36.4985 23.6387 36.0726 23.6319L1 23.0751V23.8435C1 24.2529 1.32317 24.5893 1.73222 24.6056L39.1356 26.1017V20L36.8474 20.0916Z" fill="#F2F2F4"/>
<path d="M39.1361 22.0871C39.3072 21.8772 39.6238 21.7773 39.7493 21.5443C39.9119 21.2447 39.6837 20.8733 39.8092 20.5584C39.9376 20.2306 40.3711 20.1102 40.7477 20.0334C40.9815 19.9847 41.2639 19.9873 41.4921 20.0539C41.5805 20.0795 41.6661 20.1153 41.7574 20.141C42.1225 20.2459 42.499 20.1384 42.8726 20.1794C43.1037 20.205 43.3404 20.2792 43.483 20.4431C43.56 20.5328 43.6057 20.6429 43.6827 20.7325C43.8282 20.8938 44.0706 20.9169 44.2531 21.0347C44.4271 21.1473 44.6211 21.2575 44.7095 21.4418C44.8521 21.7389 44.6582 22.082 44.7238 22.3996C44.7609 22.5763 44.8721 22.7299 44.9377 22.8989C44.9463 22.922 44.9548 22.945 44.9605 22.9681C45.0432 23.2472 44.9948 23.557 44.8265 23.8029C44.6724 24.0231 44.43 24.1947 44.333 24.4405C44.2474 24.6582 44.3387 24.8963 44.2503 25.1114C44.1704 25.306 43.9394 25.411 43.7226 25.4443C43.2891 25.5084 42.8641 25.5647 42.4362 25.6748C42.1909 25.7388 41.9599 25.8438 41.7203 25.9181C41.2126 26.0768 40.5594 25.9923 40.0831 25.7721C39.892 25.6825 39.7322 25.516 39.7265 25.324C39.7237 25.2676 39.7351 25.2087 39.7151 25.155C39.6923 25.0909 39.6324 25.0474 39.5839 24.9962C39.4156 24.8093 39.4413 24.5353 39.5012 24.2997C39.5611 24.0641 39.6438 23.8157 39.5582 23.5878C39.5069 23.4469 39.3985 23.3317 39.3044 23.2088C39.1732 23.0449 39.0648 22.8631 39.0191 22.6659C39.0134 22.6428 39.0106 22.6198 39.0077 22.5942C38.9821 22.4175 39.0191 22.2306 39.1361 22.0871V22.0871Z" fill="#607D8B"/>
<path d="M43.762 24.6063C43.7137 24.991 42.9315 25.2209 43.0049 24.6837C43.051 24.3592 43.2418 24.299 43.3341 24.1121C43.4117 23.9982 43.4369 23.9079 43.3593 23.7897C43.2607 23.5813 43.1915 23.2718 43.3509 23.1085C43.6613 22.8162 44.1437 23.1644 43.9591 23.5619C43.8815 23.7317 43.611 23.7661 43.5481 23.9444C43.4621 24.2023 43.827 24.3313 43.762 24.6063V24.6063Z" fill="#F44336"/>
<path d="M41.9231 21.3996C41.8333 21.5842 41.904 21.8657 41.8387 22.0364C41.7135 22.3687 41.289 22.3133 41.0903 22.7956C40.9678 23.0932 40.9134 23.5524 41.3053 23.8869C41.4278 23.9908 41.6346 24.0323 41.7217 23.9723C41.9748 23.8131 41.9775 23.5662 41.8877 23.2224C41.8687 23.1509 41.9285 23.1463 41.953 23.1186C42.1381 23.0286 42.2851 22.8948 42.247 22.701C42.1898 22.4102 41.8632 22.2856 41.9612 22.0388C42.0238 21.8772 42.1517 21.7642 42.3803 21.7711C42.5491 21.7757 42.5218 21.9026 42.7477 21.988C42.9056 22.048 43.1179 21.8403 43.2839 21.8957C43.4499 21.9511 43.2648 22.4148 43.6214 22.5394C43.7574 22.5879 43.8935 22.4725 43.9534 22.3687C44.0541 22.2072 43.9888 21.9234 43.7847 21.8311C43.6132 21.7503 43.469 21.8888 43.3029 21.7965C43.1369 21.7042 43.175 21.3096 42.9655 21.1458C42.5491 20.8597 42.0619 21.0212 41.9231 21.3996V21.3996Z" fill="#F44336"/>
<path d="M40.3954 20.3079C40.168 20.4216 39.9489 20.6335 39.9933 20.8686C40.0127 20.9772 40.0848 21.0676 40.1291 21.1709C40.2401 21.4267 40.1541 21.7446 39.9295 21.9228C39.7326 22.0753 39.4413 22.1399 39.336 22.3569C39.2333 22.5662 39.3637 22.8117 39.5301 22.9848C39.7492 23.2148 40.107 23.4783 40.0848 23.8194C40.0737 23.9873 39.9933 24.1424 39.899 24.2845C39.8546 24.3491 39.8074 24.4137 39.7852 24.4886C39.7631 24.5635 39.7686 24.6488 39.8241 24.7056C39.8684 24.7496 39.935 24.7676 39.9905 24.8012C40.1264 24.8865 40.1624 25.057 40.168 25.2095C40.1735 25.3516 40.143 25.6229 40.2512 25.7392C40.3427 25.8399 40.8336 25.9769 40.9723 25.9769C40.6117 25.9769 39.9267 26.1138 39.7464 25.7211C39.7104 25.6436 39.702 25.5583 39.666 25.4834C39.5717 25.2767 39.3221 25.1785 39.1446 25.0286C38.9782 24.8865 38.87 24.685 38.8451 24.4757C38.8284 24.3258 38.8534 24.1734 38.8478 24.0209C38.8367 23.5998 38.4845 23.5532 38.2238 23.2742C38.099 23.1424 38.0269 22.9719 38.0075 22.7962C37.9908 22.6644 38.0019 22.53 38.0408 22.4008C38.1295 22.1037 38.3486 21.8505 38.6093 21.6619C38.8589 21.481 39.1834 21.3105 39.2084 21.0159C39.2167 20.9229 39.189 20.8299 39.1834 20.7343C39.1612 20.295 39.6438 20.2098 39.9322 20.0986C40.2207 19.9875 41 20.0005 41 20.0005C40.8253 20.1374 40.5979 20.2072 40.3954 20.3079V20.3079Z" fill="#424242"/>
</svg>
