<svg width="45" height="45" viewBox="0 0 45 45" fill="none" xmlns="http://www.w3.org/2000/svg">
<path d="M4.71504 27.1428H40.0225V19.0146H4.71504C4.71504 19.0146 2.81309 19.7002 2.81309 23.0787C2.81309 26.4572 4.71504 27.1428 4.71504 27.1428Z" fill="#EEEEEE"/>
<path d="M4.71504 27.1428H40.0225V19.0146H4.71504C4.71504 19.0146 2.81309 19.7002 2.81309 23.0787C2.81309 26.4572 4.71504 27.1428 4.71504 27.1428Z" fill="#F2F2F4"/>
<path d="M4.71489 19.0146H13.7922C13.7922 19.0146 11.8903 19.7002 11.8903 23.0787C11.8903 26.4572 13.7922 27.1428 13.7922 27.1428H4.71489C4.71489 27.1428 2.81294 26.4572 2.81294 23.0787C2.81294 19.7002 4.71489 19.0146 4.71489 19.0146Z" fill="#F19534"/>
<path d="M2.96405 24.5834C2.96756 24.5623 2.99569 24.4604 3.16795 24.3127C3.34022 24.165 3.54764 24.0772 3.77616 24.1018C3.84647 24.1088 3.91678 24.1264 3.96952 24.1721C4.06092 24.2459 4.08553 24.3725 4.06795 24.4885C4.05038 24.601 3.73748 25.1424 3.69178 26.2885C3.40702 25.8983 3.12928 25.3498 2.96405 24.5834V24.5834Z" fill="#FFCC80"/>
<path d="M9.08491 23.5004C8.94077 23.6411 8.79663 23.7993 8.76851 23.9996C8.73687 24.2246 8.85991 24.4391 8.99702 24.6184C9.15171 24.8153 9.32749 24.9946 9.52788 25.1457C9.60171 25.202 9.68608 25.2582 9.77749 25.2547C9.95679 25.2477 10.0447 25.0332 10.0834 24.8575C10.2345 24.2176 10.3505 23.5707 10.4349 22.9168C10.4419 22.8571 10.449 22.7903 10.4103 22.7446C10.1537 22.4176 9.22905 23.3633 9.08491 23.5004V23.5004Z" fill="#FFCC80"/>
<path d="M6.23729 22.6987C6.03338 22.5792 5.84002 22.4386 5.69237 22.2557C5.54471 22.0694 5.4533 21.8374 5.47791 21.6018C5.48494 21.535 5.50604 21.4612 5.56229 21.4261C5.62205 21.3909 5.69588 21.4085 5.76268 21.4261C6.20916 21.5491 6.64861 21.6968 7.07752 21.8725C7.13729 21.8972 7.20057 21.9253 7.24627 21.9745C7.29198 22.0237 7.31307 22.094 7.33416 22.1573C7.38338 22.3366 7.40799 22.5194 7.41502 22.7022C7.43963 23.4511 6.56072 22.8921 6.23729 22.6987V22.6987Z" fill="#FFCC80"/>
<path d="M8.71577 20.3786C8.73334 20.5016 8.85991 20.579 8.97241 20.6317C9.26772 20.7618 9.59116 20.8462 9.91108 20.8251C10.3365 20.8005 11.4685 19.9954 10.6001 19.9005C10.2837 19.8653 8.66655 20.0165 8.71577 20.3786Z" fill="#FFCC80"/>
<path d="M7.49227 24.9276C7.33406 24.8151 7.07039 24.9065 6.91219 25.026C6.29344 25.4971 6.14227 25.3213 5.71688 25.1737C5.24578 25.0084 5.28094 25.3424 5.46375 25.6131C5.67117 25.9225 6.52195 26.4885 6.99305 26.3795C7.28484 26.3163 7.66102 25.0506 7.49227 24.9276V24.9276Z" fill="#FFCC80"/>
<path d="M2.81288 22.9239C2.83397 21.6126 3.16444 20.6669 3.52303 20.1255C3.59335 20.136 3.66366 20.1642 3.73397 20.2099C3.91327 20.3329 4.24725 21.145 4.20858 21.3103C4.13475 21.6372 3.15389 22.5724 2.81288 22.9239V22.9239Z" fill="#FFCC80"/>
<path d="M7.01416 19.6967C6.6415 20.1221 6.36377 19.7635 6.28994 19.6018C6.20557 19.4154 6.19502 19.2115 6.22666 19.0146H7.80518C7.57314 19.1904 7.3376 19.324 7.01416 19.6967V19.6967Z" fill="#FFCC80"/>
<path d="M11.4158 26.3586C11.11 26.1441 10.66 26.0773 10.4104 26.3621C10.1748 26.6293 9.96387 26.9422 9.69668 27.1425H11.9326C11.7428 26.7699 11.5529 26.4535 11.4158 26.3586Z" fill="#FFCC80"/>
<path d="M37.7724 21.8654C37.9834 21.5771 38.3736 21.44 38.5283 21.1201C38.7287 20.7087 38.4474 20.199 38.6021 19.7666C38.7603 19.3166 39.2947 19.1513 39.7588 19.0459C40.047 18.9791 40.3951 18.9826 40.6763 19.074C40.7853 19.1091 40.8908 19.1584 41.0033 19.1935C41.4533 19.3377 41.9174 19.19 42.3779 19.2463C42.6627 19.2814 42.9545 19.3834 43.1303 19.6084C43.2252 19.7314 43.2814 19.8826 43.3763 20.0056C43.5556 20.2271 43.8545 20.2587 44.0795 20.4205C44.2939 20.5752 44.533 20.7263 44.642 20.9795C44.8178 21.3873 44.5787 21.8584 44.6595 22.2943C44.7053 22.5369 44.8424 22.7478 44.9232 22.9798C44.9338 23.0115 44.9443 23.0431 44.9513 23.0748C45.0533 23.458 44.9935 23.8834 44.7861 24.2209C44.5963 24.5232 44.2974 24.7588 44.1779 25.0963C44.0724 25.3951 44.1849 25.722 44.076 26.0173C43.9775 26.2845 43.6928 26.4287 43.4256 26.4744C42.8912 26.5623 42.3674 26.6396 41.84 26.7908C41.5377 26.8787 41.2529 27.0228 40.9576 27.1248C40.3318 27.3427 39.5267 27.2267 38.9396 26.9244C38.7041 26.8013 38.5072 26.5728 38.5002 26.3091C38.4967 26.2318 38.5107 26.1509 38.4861 26.0771C38.458 25.9892 38.3842 25.9295 38.3244 25.8591C38.117 25.6025 38.1486 25.2263 38.2224 24.9029C38.2963 24.5795 38.3982 24.2384 38.2928 23.9255C38.2295 23.7322 38.0959 23.574 37.9799 23.4052C37.8181 23.1802 37.6845 22.9306 37.6283 22.6599C37.6213 22.6283 37.6178 22.5966 37.6142 22.5615C37.5826 22.3189 37.6283 22.0623 37.7724 21.8654V21.8654Z" fill="#607D8B"/>
<path d="M43.6857 25.4726C43.6049 26.1019 42.2935 26.4781 42.4166 25.5991C42.4939 25.0683 42.8138 24.9698 42.9685 24.664C43.0986 24.4777 43.1408 24.33 43.0107 24.1366C42.8455 23.7956 42.7295 23.2894 42.9967 23.0222C43.517 22.5441 44.3256 23.1136 44.0162 23.764C43.8861 24.0417 43.4326 24.098 43.3271 24.3898C43.183 24.8116 43.7947 25.0226 43.6857 25.4726V25.4726Z" fill="#F44336"/>
<path d="M41.3723 20.3013C41.2563 20.5825 41.3477 21.0114 41.2633 21.2716C41.1016 21.7778 40.5532 21.6935 40.2965 22.4282C40.1383 22.8817 40.068 23.5813 40.5743 24.0911C40.7325 24.2493 40.9997 24.3126 41.1122 24.2212C41.4391 23.9786 41.4426 23.6024 41.3266 23.0786C41.302 22.9696 41.3794 22.9626 41.411 22.9204C41.6501 22.7833 41.8399 22.5794 41.7907 22.2841C41.7169 21.8411 41.295 21.6513 41.4215 21.2751C41.5024 21.029 41.6676 20.8567 41.963 20.8673C42.1809 20.8743 42.1458 21.0677 42.4376 21.1978C42.6415 21.2892 42.9157 20.9727 43.1301 21.0571C43.3446 21.1415 43.1055 21.8481 43.5661 22.038C43.7419 22.1118 43.9176 21.936 43.995 21.7778C44.1251 21.5317 44.0407 21.0993 43.777 20.9587C43.5555 20.8356 43.3692 21.0466 43.1547 20.906C42.9403 20.7653 42.9895 20.1642 42.7188 19.9145C42.1809 19.4786 41.5516 19.7247 41.3723 20.3013V20.3013Z" fill="#F44336"/>
<path d="M39.4211 19.4292C39.1328 19.5839 38.8551 19.8722 38.9113 20.1921C38.9359 20.3398 39.0273 20.4628 39.0836 20.6035C39.2242 20.9515 39.1152 21.3839 38.8305 21.6265C38.5809 21.8339 38.2117 21.9218 38.0781 22.2171C37.948 22.5019 38.1133 22.8359 38.3242 23.0714C38.602 23.3843 39.0555 23.7429 39.0273 24.207C39.0133 24.4355 38.9113 24.6464 38.7918 24.8398C38.7355 24.9277 38.6758 25.0156 38.6477 25.1175C38.6195 25.2195 38.6266 25.3355 38.6969 25.4128C38.7531 25.4726 38.8375 25.4972 38.9078 25.5429C39.0801 25.6589 39.1258 25.891 39.1328 26.0984C39.1398 26.2917 39.1012 26.6609 39.2383 26.8191C39.3543 26.9562 39.9766 27.1425 40.1523 27.1425C39.6953 27.1425 38.827 27.3289 38.5984 26.7945C38.5527 26.689 38.5422 26.573 38.4965 26.471C38.377 26.1898 38.0605 26.0562 37.8355 25.8523C37.6246 25.6589 37.4875 25.3847 37.4559 25.0999C37.4348 24.896 37.4664 24.6886 37.4594 24.4812C37.4453 23.9081 36.9988 23.8449 36.6684 23.4652C36.5102 23.2859 36.4188 23.0538 36.3941 22.8148C36.373 22.6355 36.3871 22.4527 36.4363 22.2769C36.5488 21.8726 36.8266 21.5281 37.157 21.2714C37.4734 21.0253 37.8848 20.7933 37.9164 20.3925C37.927 20.266 37.8918 20.1394 37.8848 20.0093C37.8566 19.4117 38.4684 19.2956 38.834 19.1445C39.1996 18.9933 40.1875 19.0109 40.1875 19.0109C39.966 19.1972 39.6777 19.2921 39.4211 19.4292V19.4292Z" fill="#424242"/>
<path d="M4.71489 19.0146H13.7922C13.7922 19.0146 11.8903 19.7002 11.8903 23.0787C11.8903 26.4572 13.7922 27.1428 13.7922 27.1428H4.71489C4.71489 27.1428 2.81294 26.4572 2.81294 23.0787C2.81294 19.7002 4.71489 19.0146 4.71489 19.0146Z" fill="#DA6E34"/>
</svg>
