<svg width="45" height="45" viewBox="0 0 45 45" fill="none" xmlns="http://www.w3.org/2000/svg">
<path d="M38.3824 0H6.61768V45H38.3824V0Z" fill="#F2F2F4"/>
<path d="M38.3824 0H22.5V45H38.3824V0Z" fill="#F2F2F4"/>
<path d="M38.3824 31.7647V0H6.61768V31.7647L22.5 15.8824L38.3824 31.7647Z" fill="#C81212"/>
<path d="M22.5 0V15.8824L38.3824 31.7647V0H22.5Z" fill="#C81212"/>
<path d="M29.1176 5.95605H15.8823V9.9266H29.1176V5.95605Z" fill="#F2F2F4"/>
<path d="M29.1176 5.95605H22.5V9.9266H29.1176V5.95605Z" fill="#EAEAEA"/>
<path d="M10.7206 37V33.5H12.3206C12.6406 33.5 12.9156 33.5517 13.1456 33.655C13.3789 33.7583 13.5589 33.9083 13.6856 34.105C13.8123 34.2983 13.8756 34.5283 13.8756 34.795C13.8756 35.0583 13.8123 35.2867 13.6856 35.48C13.5589 35.67 13.3789 35.8167 13.1456 35.92C12.9156 36.02 12.6406 36.07 12.3206 36.07H11.2706L11.7106 35.655V37H10.7206ZM12.8856 37L12.0156 35.725H13.0706L13.9456 37H12.8856ZM11.7106 35.76L11.2706 35.305H12.2606C12.4673 35.305 12.6206 35.26 12.7206 35.17C12.8239 35.08 12.8756 34.955 12.8756 34.795C12.8756 34.6317 12.8239 34.505 12.7206 34.415C12.6206 34.325 12.4673 34.28 12.2606 34.28H11.2706L11.7106 33.825V35.76ZM15.7968 37.045C15.4768 37.045 15.1968 36.985 14.9568 36.865C14.7201 36.7417 14.5351 36.575 14.4018 36.365C14.2718 36.1517 14.2068 35.91 14.2068 35.64C14.2068 35.37 14.2701 35.13 14.3968 34.92C14.5268 34.7067 14.7051 34.5417 14.9318 34.425C15.1584 34.305 15.4134 34.245 15.6968 34.245C15.9634 34.245 16.2068 34.3 16.4268 34.41C16.6468 34.5167 16.8218 34.675 16.9518 34.885C17.0818 35.095 17.1468 35.35 17.1468 35.65C17.1468 35.6833 17.1451 35.7217 17.1418 35.765C17.1384 35.8083 17.1351 35.8483 17.1318 35.885H14.9868V35.385H16.6268L16.2668 35.525C16.2701 35.4017 16.2468 35.295 16.1968 35.205C16.1501 35.115 16.0834 35.045 15.9968 34.995C15.9134 34.945 15.8151 34.92 15.7018 34.92C15.5884 34.92 15.4884 34.945 15.4018 34.995C15.3184 35.045 15.2534 35.1167 15.2068 35.21C15.1601 35.3 15.1368 35.4067 15.1368 35.53V35.675C15.1368 35.8083 15.1634 35.9233 15.2168 36.02C15.2734 36.1167 15.3534 36.1917 15.4568 36.245C15.5601 36.295 15.6834 36.32 15.8268 36.32C15.9601 36.32 16.0734 36.3017 16.1668 36.265C16.2634 36.225 16.3584 36.165 16.4518 36.085L16.9518 36.605C16.8218 36.7483 16.6618 36.8583 16.4718 36.935C16.2818 37.0083 16.0568 37.045 15.7968 37.045ZM18.7648 37.045C18.5181 37.045 18.2931 36.9883 18.0898 36.875C17.8898 36.7583 17.7298 36.5967 17.6098 36.39C17.4898 36.18 17.4298 35.93 17.4298 35.64C17.4298 35.3533 17.4898 35.1067 17.6098 34.9C17.7298 34.69 17.8898 34.5283 18.0898 34.415C18.2931 34.3017 18.5181 34.245 18.7648 34.245C18.9981 34.245 19.1948 34.295 19.3548 34.395C19.5181 34.495 19.6415 34.6483 19.7248 34.855C19.8081 35.0617 19.8498 35.3233 19.8498 35.64C19.8498 35.9633 19.8098 36.2283 19.7298 36.435C19.6498 36.6417 19.5298 36.795 19.3698 36.895C19.2098 36.995 19.0081 37.045 18.7648 37.045ZM18.9648 36.29C19.0715 36.29 19.1665 36.265 19.2498 36.215C19.3365 36.165 19.4048 36.0917 19.4548 35.995C19.5048 35.895 19.5298 35.7767 19.5298 35.64C19.5298 35.5033 19.5048 35.3883 19.4548 35.295C19.4048 35.1983 19.3365 35.125 19.2498 35.075C19.1665 35.025 19.0715 35 18.9648 35C18.8548 35 18.7565 35.025 18.6698 35.075C18.5865 35.125 18.5198 35.1983 18.4698 35.295C18.4198 35.3883 18.3948 35.5033 18.3948 35.64C18.3948 35.7767 18.4198 35.895 18.4698 35.995C18.5198 36.0917 18.5865 36.165 18.6698 36.215C18.7565 36.265 18.8548 36.29 18.9648 36.29ZM19.5598 37V36.535L19.5648 35.64L19.5148 34.745V33.29H20.4648V37H19.5598ZM21.721 37L20.756 34.29H21.656L22.421 36.555H21.991L22.786 34.29H23.596L24.361 36.555H23.941L24.731 34.29H25.566L24.601 37H23.681L23.031 35.125H23.311L22.641 37H21.721ZM27.143 37.045C26.8464 37.045 26.583 36.985 26.353 36.865C26.123 36.745 25.9414 36.58 25.808 36.37C25.678 36.1567 25.613 35.9133 25.613 35.64C25.613 35.3667 25.678 35.125 25.808 34.915C25.9414 34.705 26.123 34.5417 26.353 34.425C26.583 34.305 26.8464 34.245 27.143 34.245C27.4397 34.245 27.703 34.305 27.933 34.425C28.1664 34.5417 28.348 34.705 28.478 34.915C28.608 35.125 28.673 35.3667 28.673 35.64C28.673 35.9133 28.608 36.1567 28.478 36.37C28.348 36.58 28.1664 36.745 27.933 36.865C27.703 36.985 27.4397 37.045 27.143 37.045ZM27.143 36.29C27.253 36.29 27.3497 36.265 27.433 36.215C27.5197 36.165 27.588 36.0917 27.638 35.995C27.688 35.895 27.713 35.7767 27.713 35.64C27.713 35.5033 27.688 35.3883 27.638 35.295C27.588 35.1983 27.5197 35.125 27.433 35.075C27.3497 35.025 27.253 35 27.143 35C27.0364 35 26.9397 35.025 26.853 35.075C26.7697 35.125 26.7014 35.1983 26.648 35.295C26.598 35.3883 26.573 35.5033 26.573 35.64C26.573 35.7767 26.598 35.895 26.648 35.995C26.7014 36.0917 26.7697 36.165 26.853 36.215C26.9397 36.265 27.0364 36.29 27.143 36.29ZM30.4731 37.045C30.1764 37.045 29.9131 36.985 29.6831 36.865C29.4531 36.745 29.2714 36.58 29.1381 36.37C29.0081 36.1567 28.9431 35.9133 28.9431 35.64C28.9431 35.3667 29.0081 35.125 29.1381 34.915C29.2714 34.705 29.4531 34.5417 29.6831 34.425C29.9131 34.305 30.1764 34.245 30.4731 34.245C30.7698 34.245 31.0331 34.305 31.2631 34.425C31.4964 34.5417 31.6781 34.705 31.8081 34.915C31.9381 35.125 32.0031 35.3667 32.0031 35.64C32.0031 35.9133 31.9381 36.1567 31.8081 36.37C31.6781 36.58 31.4964 36.745 31.2631 36.865C31.0331 36.985 30.7698 37.045 30.4731 37.045ZM30.4731 36.29C30.5831 36.29 30.6798 36.265 30.7631 36.215C30.8498 36.165 30.9181 36.0917 30.9681 35.995C31.0181 35.895 31.0431 35.7767 31.0431 35.64C31.0431 35.5033 31.0181 35.3883 30.9681 35.295C30.9181 35.1983 30.8498 35.125 30.7631 35.075C30.6798 35.025 30.5831 35 30.4731 35C30.3664 35 30.2698 35.025 30.1831 35.075C30.0998 35.125 30.0314 35.1983 29.9781 35.295C29.9281 35.3883 29.9031 35.5033 29.9031 35.64C29.9031 35.7767 29.9281 35.895 29.9781 35.995C30.0314 36.0917 30.0998 36.165 30.1831 36.215C30.2698 36.265 30.3664 36.29 30.4731 36.29ZM33.6232 37.045C33.3765 37.045 33.1515 36.9883 32.9482 36.875C32.7482 36.7583 32.5882 36.5967 32.4682 36.39C32.3482 36.18 32.2882 35.93 32.2882 35.64C32.2882 35.3533 32.3482 35.1067 32.4682 34.9C32.5882 34.69 32.7482 34.5283 32.9482 34.415C33.1515 34.3017 33.3765 34.245 33.6232 34.245C33.8565 34.245 34.0532 34.295 34.2132 34.395C34.3765 34.495 34.4999 34.6483 34.5832 34.855C34.6665 35.0617 34.7082 35.3233 34.7082 35.64C34.7082 35.9633 34.6682 36.2283 34.5882 36.435C34.5082 36.6417 34.3882 36.795 34.2282 36.895C34.0682 36.995 33.8665 37.045 33.6232 37.045ZM33.8232 36.29C33.9299 36.29 34.0249 36.265 34.1082 36.215C34.1949 36.165 34.2632 36.0917 34.3132 35.995C34.3632 35.895 34.3882 35.7767 34.3882 35.64C34.3882 35.5033 34.3632 35.3883 34.3132 35.295C34.2632 35.1983 34.1949 35.125 34.1082 35.075C34.0249 35.025 33.9299 35 33.8232 35C33.7132 35 33.6149 35.025 33.5282 35.075C33.4449 35.125 33.3782 35.1983 33.3282 35.295C33.2782 35.3883 33.2532 35.5033 33.2532 35.64C33.2532 35.7767 33.2782 35.895 33.3282 35.995C33.3782 36.0917 33.4449 36.165 33.5282 36.215C33.6149 36.265 33.7132 36.29 33.8232 36.29ZM34.4182 37V36.535L34.4232 35.64L34.3732 34.745V33.29H35.3232V37H34.4182Z" fill="black"/>
</svg>
