<svg width="45" height="45" viewBox="0 0 45 45" fill="none" xmlns="http://www.w3.org/2000/svg">
<path d="M38.3824 0H6.61768V45H38.3824V0Z" fill="#F2F2F4"/>
<path d="M38.3824 0H22.5V45H38.3824V0Z" fill="#F2F2F4"/>
<path d="M38.3824 31.7647V0H6.61768V31.7647L22.5 15.8824L38.3824 31.7647Z" fill="#57352E"/>
<path d="M22.5 0V15.8824L38.3824 31.7647V0H22.5Z" fill="#57352E"/>
<path d="M29.1176 5.95605H15.8823V9.9266H29.1176V5.95605Z" fill="#F2F2F4"/>
<path d="M29.1176 5.95605H22.5V9.9266H29.1176V5.95605Z" fill="#EAEAEA"/>
<path d="M11.2527 37.07C10.976 37.07 10.7194 37.0267 10.4827 36.94C10.2494 36.85 10.046 36.7233 9.87271 36.56C9.70271 36.3967 9.56938 36.205 9.47271 35.985C9.37605 35.7617 9.32771 35.5167 9.32771 35.25C9.32771 34.9833 9.37605 34.74 9.47271 34.52C9.56938 34.2967 9.70271 34.1033 9.87271 33.94C10.046 33.7767 10.2494 33.6517 10.4827 33.565C10.7194 33.475 10.976 33.43 11.2527 33.43C11.576 33.43 11.8644 33.4867 12.1177 33.6C12.3744 33.7133 12.5877 33.8767 12.7577 34.09L12.1277 34.66C12.0144 34.5267 11.8894 34.425 11.7527 34.355C11.6194 34.285 11.4694 34.25 11.3027 34.25C11.1594 34.25 11.0277 34.2733 10.9077 34.32C10.7877 34.3667 10.6844 34.435 10.5977 34.525C10.5144 34.6117 10.4477 34.7167 10.3977 34.84C10.351 34.9633 10.3277 35.1 10.3277 35.25C10.3277 35.4 10.351 35.5367 10.3977 35.66C10.4477 35.7833 10.5144 35.89 10.5977 35.98C10.6844 36.0667 10.7877 36.1333 10.9077 36.18C11.0277 36.2267 11.1594 36.25 11.3027 36.25C11.4694 36.25 11.6194 36.215 11.7527 36.145C11.8894 36.075 12.0144 35.9733 12.1277 35.84L12.7577 36.41C12.5877 36.62 12.3744 36.7833 12.1177 36.9C11.8644 37.0133 11.576 37.07 11.2527 37.07ZM14.9191 34.245C15.1291 34.245 15.3191 34.2883 15.4891 34.375C15.6591 34.4583 15.7925 34.5883 15.8891 34.765C15.9891 34.9417 16.0391 35.17 16.0391 35.45V37H15.0891V35.605C15.0891 35.4117 15.0491 35.2717 14.9691 35.185C14.8925 35.095 14.7841 35.05 14.6441 35.05C14.5441 35.05 14.4525 35.0733 14.3691 35.12C14.2858 35.1633 14.2208 35.2317 14.1741 35.325C14.1275 35.4183 14.1041 35.54 14.1041 35.69V37H13.1541V33.29H14.1041V35.06L13.8841 34.835C13.9875 34.6383 14.1291 34.4917 14.3091 34.395C14.4891 34.295 14.6925 34.245 14.9191 34.245ZM18.2906 37V36.495L18.2256 36.37V35.44C18.2256 35.29 18.1789 35.175 18.0856 35.095C17.9956 35.0117 17.8506 34.97 17.6506 34.97C17.5206 34.97 17.3889 34.9917 17.2556 35.035C17.1222 35.075 17.0089 35.1317 16.9156 35.205L16.5956 34.56C16.7489 34.46 16.9322 34.3833 17.1456 34.33C17.3622 34.2733 17.5772 34.245 17.7906 34.245C18.2306 34.245 18.5706 34.3467 18.8106 34.55C19.0539 34.75 19.1756 35.065 19.1756 35.495V37H18.2906ZM17.4906 37.045C17.2739 37.045 17.0906 37.0083 16.9406 36.935C16.7906 36.8617 16.6756 36.7617 16.5956 36.635C16.5189 36.5083 16.4806 36.3667 16.4806 36.21C16.4806 36.0433 16.5222 35.9 16.6056 35.78C16.6922 35.6567 16.8239 35.5633 17.0006 35.5C17.1772 35.4333 17.4056 35.4 17.6856 35.4H18.3256V35.895H17.8156C17.6622 35.895 17.5539 35.92 17.4906 35.97C17.4306 36.02 17.4006 36.0867 17.4006 36.17C17.4006 36.2533 17.4322 36.32 17.4956 36.37C17.5589 36.42 17.6456 36.445 17.7556 36.445C17.8589 36.445 17.9522 36.42 18.0356 36.37C18.1222 36.3167 18.1856 36.2367 18.2256 36.13L18.3556 36.48C18.3056 36.6667 18.2072 36.8083 18.0606 36.905C17.9172 36.9983 17.7272 37.045 17.4906 37.045ZM19.7752 37V34.29H20.6802V35.08L20.5452 34.855C20.6252 34.6517 20.7552 34.5 20.9352 34.4C21.1152 34.2967 21.3335 34.245 21.5902 34.245V35.1C21.5469 35.0933 21.5085 35.09 21.4752 35.09C21.4452 35.0867 21.4119 35.085 21.3752 35.085C21.1819 35.085 21.0252 35.1383 20.9052 35.245C20.7852 35.3483 20.7252 35.5183 20.7252 35.755V37H19.7752ZM23.2753 37.045C22.9286 37.045 22.6586 36.96 22.4653 36.79C22.2719 36.6167 22.1753 36.3567 22.1753 36.01V33.685H23.1253V36C23.1253 36.0967 23.1519 36.1733 23.2053 36.23C23.2586 36.2833 23.3269 36.31 23.4103 36.31C23.5236 36.31 23.6203 36.2817 23.7003 36.225L23.9353 36.89C23.8553 36.9433 23.7569 36.9817 23.6403 37.005C23.5236 37.0317 23.4019 37.045 23.2753 37.045ZM21.7803 35.1V34.39H23.7453V35.1H21.7803ZM27.8316 34.245C28.0416 34.245 28.2282 34.2883 28.3916 34.375C28.5582 34.4583 28.6882 34.5883 28.7816 34.765C28.8782 34.9417 28.9266 35.17 28.9266 35.45V37H27.9766V35.605C27.9766 35.4117 27.9399 35.2717 27.8666 35.185C27.7932 35.095 27.6932 35.05 27.5666 35.05C27.4766 35.05 27.3949 35.0717 27.3216 35.115C27.2482 35.1583 27.1916 35.225 27.1516 35.315C27.1116 35.4017 27.0916 35.515 27.0916 35.655V37H26.1416V35.605C26.1416 35.4117 26.1049 35.2717 26.0316 35.185C25.9616 35.095 25.8616 35.05 25.7316 35.05C25.6382 35.05 25.5549 35.0717 25.4816 35.115C25.4116 35.1583 25.3549 35.225 25.3116 35.315C25.2716 35.4017 25.2516 35.515 25.2516 35.655V37H24.3016V34.29H25.2066V35.045L25.0266 34.83C25.1266 34.6367 25.2632 34.4917 25.4366 34.395C25.6099 34.295 25.8032 34.245 26.0166 34.245C26.2599 34.245 26.4732 34.3083 26.6566 34.435C26.8432 34.5583 26.9682 34.7517 27.0316 35.015L26.7216 34.95C26.8182 34.73 26.9632 34.5583 27.1566 34.435C27.3532 34.3083 27.5782 34.245 27.8316 34.245ZM31.1812 37V36.495L31.1162 36.37V35.44C31.1162 35.29 31.0695 35.175 30.9762 35.095C30.8862 35.0117 30.7412 34.97 30.5412 34.97C30.4112 34.97 30.2795 34.9917 30.1462 35.035C30.0129 35.075 29.8995 35.1317 29.8062 35.205L29.4862 34.56C29.6395 34.46 29.8229 34.3833 30.0362 34.33C30.2529 34.2733 30.4679 34.245 30.6812 34.245C31.1212 34.245 31.4612 34.3467 31.7012 34.55C31.9445 34.75 32.0662 35.065 32.0662 35.495V37H31.1812ZM30.3812 37.045C30.1645 37.045 29.9812 37.0083 29.8312 36.935C29.6812 36.8617 29.5662 36.7617 29.4862 36.635C29.4095 36.5083 29.3712 36.3667 29.3712 36.21C29.3712 36.0433 29.4129 35.9 29.4962 35.78C29.5829 35.6567 29.7145 35.5633 29.8912 35.5C30.0679 35.4333 30.2962 35.4 30.5762 35.4H31.2162V35.895H30.7062C30.5529 35.895 30.4445 35.92 30.3812 35.97C30.3212 36.02 30.2912 36.0867 30.2912 36.17C30.2912 36.2533 30.3229 36.32 30.3862 36.37C30.4495 36.42 30.5362 36.445 30.6462 36.445C30.7495 36.445 30.8429 36.42 30.9262 36.37C31.0129 36.3167 31.0762 36.2367 31.1162 36.13L31.2462 36.48C31.1962 36.6667 31.0979 36.8083 30.9512 36.905C30.8079 36.9983 30.6179 37.045 30.3812 37.045ZM34.4308 34.245C34.6408 34.245 34.8308 34.2883 35.0008 34.375C35.1708 34.4583 35.3042 34.5883 35.4008 34.765C35.5008 34.9417 35.5508 35.17 35.5508 35.45V37H34.6008V35.605C34.6008 35.4117 34.5608 35.2717 34.4808 35.185C34.4042 35.095 34.2958 35.05 34.1558 35.05C34.0558 35.05 33.9642 35.0733 33.8808 35.12C33.7975 35.1633 33.7325 35.2317 33.6858 35.325C33.6392 35.4183 33.6158 35.54 33.6158 35.69V37H32.6658V34.29H33.5708V35.06L33.3958 34.835C33.4992 34.6383 33.6408 34.4917 33.8208 34.395C34.0008 34.295 34.2042 34.245 34.4308 34.245Z" fill="black"/>
</svg>
