<svg width="45" height="45" viewBox="0 0 45 45" fill="none" xmlns="http://www.w3.org/2000/svg">
<g clip-path="url(#clip0_608_527)">
<path d="M29.2138 11.3953C28.3428 10.742 27.1815 10.1614 25.7299 9.79848L25.0041 2.90332H20.0686L19.1976 9.79848C17.746 10.0888 16.367 10.6694 15.4234 11.3227C13.3912 11.4678 11.5767 13.2824 11.5767 15.3146V42.6049C11.5767 44.7824 13.6815 45.0001 15.9315 45.0001H29.0686C31.246 45.0001 33.4234 44.7824 33.4234 42.6049V15.3146C33.4234 13.2098 31.246 11.5404 29.2138 11.3953Z" fill="#E1EFEE"/>
<path d="M28.7056 44.9275C30.8831 44.9275 33.4234 44.7824 33.4234 42.6049V15.3146C33.4234 13.2098 31.246 11.5404 29.2137 11.3953C28.3427 10.742 27.1815 10.1614 25.7298 9.79848L25.004 2.90332H20.0685L19.125 9.79848" fill="#BFE8E1"/>
<path d="M33.4233 15.3146C33.4233 13.2098 31.4636 11.5404 29.4314 11.3953C28.5604 10.742 27.3265 10.1614 25.8749 9.79848L25.004 2.90332H20.0685L19.1975 9.79848" fill="#9ADBCE"/>
<path d="M11.6492 19.5967V42.6047C11.6492 44.7822 13.754 44.9999 16.004 44.9999H29.0685C31.2459 44.9999 33.4234 44.7822 33.4234 42.6047V19.5967H11.6492Z" fill="#00A057"/>
<path d="M29.0685 44.9999C31.2459 44.9999 33.4234 44.7822 33.4234 42.6047V19.5967H11.6492" fill="#008C61"/>
<path d="M22.5363 31.0644L24.8589 36.2902H28.4879L22.5363 23.0806L16.5847 36.2902H20.2137L22.5363 31.0644Z" fill="#E1EFEE"/>
<path d="M22.5364 30.9922L24.859 36.2906H28.488L22.5364 23.0083" fill="#AAE2DB"/>
<path d="M25.4395 0C25.875 0 26.1653 0.145161 26.1653 0.435484V3.62903C26.1653 3.99194 25.875 4.35484 25.4395 4.35484H19.633C19.1975 4.35484 18.9072 3.99194 18.9072 3.62903V0.435484C18.9072 0.145161 19.1975 0 19.633 0H25.4395Z" fill="#00A057"/>
<path d="M27.1815 16.1852L24.7138 16.0401L25.5122 12.6288L23.6251 14.2982L22.5363 10.7417L21.4476 14.2256L19.5605 12.5562L20.3589 15.9675L17.8186 16.1127L20.7944 17.9998L21.5202 17.5643C21.5202 18.0723 21.9557 18.5078 22.4638 18.5078C22.9718 18.5078 23.4073 18.0723 23.4073 17.5643C23.4073 17.4917 23.4073 17.4917 23.4073 17.4917L24.2783 17.9998L27.1815 16.1852Z" fill="#00A057"/>
<path d="M27.1815 16.1852L23.988 17.4917L25.5122 12.6288L23.6251 15.7498L22.5363 10.7417L21.4476 15.6772L19.5605 12.5562L21.0847 17.4191L17.8186 16.1127L20.7944 17.9998L21.5202 17.5643C21.5202 18.0723 21.9557 18.5078 22.4638 18.5078C22.9718 18.5078 23.4073 18.0723 23.4073 17.5643C23.4073 17.4917 23.4073 17.4917 23.4073 17.4917L24.2783 17.9998L27.1815 16.1852Z" fill="#008C61"/>
<path d="M21.8104 37.0161H16.7297V38.4677H21.8104V37.0161Z" fill="#E1EFEE"/>
<path d="M28.3429 37.0161H23.2622V38.4677H28.3429V37.0161Z" fill="#AAE2DB"/>
<path d="M14.5524 43.6211C14.5524 43.984 14.2621 44.2743 13.8992 44.2743H13.7541C13.3912 44.2743 13.1008 43.984 13.1008 43.6211V26.0565C13.1008 25.6936 13.3912 25.4033 13.7541 25.4033H13.8992C14.2621 25.4033 14.5524 25.6936 14.5524 26.0565V43.6211Z" fill="#14C671"/>
<path d="M14.5524 23.6612C14.5524 24.0967 14.1895 24.387 13.8266 24.387C13.4637 24.387 13.1008 24.0967 13.1008 23.5886V21.5564C13.1008 21.1935 13.4637 20.8306 13.8266 20.8306C14.1895 20.8306 14.5524 21.1935 14.5524 21.5564V23.6612Z" fill="#14C671"/>
<path d="M26.1653 2.75797L26.0927 2.83055L24.9314 1.59668L23.6976 2.83055L22.5363 1.59668L21.3024 2.83055L20.0685 1.59668L18.9072 2.83055V2.75797V3.62894C18.9072 3.99184 19.1975 4.35474 19.633 4.35474H21.1572L21.3024 4.20958L21.5201 4.35474H23.625L23.7701 4.20958L23.9153 4.35474H25.4395C25.875 4.35474 26.1653 3.99184 26.1653 3.62894V2.75797Z" fill="#008C61"/>
<path d="M16.3247 12.5158C15.8364 12.1001 14.7666 12.5548 13.9352 13.5315C13.1037 14.5081 12.8256 15.6368 13.3139 16.0525C13.8022 16.4682 14.872 16.0135 15.7034 15.0368C16.5349 14.0602 16.813 12.9315 16.3247 12.5158Z" fill="white"/>
<path d="M23.625 41.0082C23.7452 41.0082 23.8427 40.9108 23.8427 40.7905C23.8427 40.6702 23.7452 40.5728 23.625 40.5728C23.5047 40.5728 23.4072 40.6702 23.4072 40.7905C23.4072 40.9108 23.5047 41.0082 23.625 41.0082Z" fill="#00A057"/>
<path d="M23.625 42.0971C23.7452 42.0971 23.8427 41.9996 23.8427 41.8794C23.8427 41.7591 23.7452 41.6616 23.625 41.6616C23.5047 41.6616 23.4072 41.7591 23.4072 41.8794C23.4072 41.9996 23.5047 42.0971 23.625 42.0971Z" fill="#00A057"/>
<path d="M25.4395 0.362903C25.4395 0.580645 25.2943 0.725806 25.0766 0.725806H19.9234C19.7782 0.725806 19.6331 0.580645 19.6331 0.362903C19.6331 0.145161 19.7782 0 19.996 0H25.1492C25.2943 0 25.4395 0.145161 25.4395 0.362903Z" fill="#14C671"/>
<path d="M33.4234 20.0322C33.4234 20.1773 33.2782 20.3225 33.133 20.3225H11.9395C11.7943 20.3225 11.6492 20.1773 11.6492 20.0322V19.887C11.6492 19.7418 11.7943 19.5967 11.9395 19.5967H33.133C33.2782 19.5967 33.4234 19.7418 33.4234 19.887V20.0322Z" fill="#14C671"/>
</g>
<defs>
<clipPath id="clip0_608_527">
<rect width="45" height="45" fill="white"/>
</clipPath>
</defs>
</svg>
