<svg width="45" height="45" viewBox="0 0 45 45" fill="none" xmlns="http://www.w3.org/2000/svg">
<path d="M25.4031 6.45968C25.4031 6.89516 25.0402 7.25806 24.6047 7.25806H20.3951C19.9596 7.25806 19.5967 6.89516 19.5967 6.45968V0.798387C19.5967 0.362903 19.9596 0 20.3951 0H24.6047C25.0402 0 25.4031 0.362903 25.4031 0.798387V6.45968Z" fill="#3D2525"/>
<path d="M19.5967 0.580645C19.5967 0.217742 19.9596 0 20.3951 0H24.6047C25.0402 0 25.4031 0 25.4031 0.435484V6.31452C25.4031 6.75 25.0402 7.18548 24.6047 7.18548" fill="#190D0D"/>
<path d="M26.0564 15.9677C26.0564 15.5322 26.129 15.0967 26.129 14.5886C26.129 12.7015 26.129 10.5967 25.4032 8.78218V6.89508C25.4032 6.8225 25.4032 5.22573 25.4032 5.08057H19.5968C19.5968 5.08057 19.5968 5.51605 19.5968 5.66121C19.5968 5.95153 19.5968 5.66121 19.5968 5.66121C19.5968 5.73379 19.5968 6.8225 19.5968 6.89508V8.78218C18.871 10.5967 18.7984 12.7015 18.7984 14.5886C18.7984 15.0967 18.9435 15.5322 18.9435 15.9677C16.258 17.2015 14.5161 19.887 14.5161 23.0806V40.6451C14.5161 44.9273 17.7097 44.9999 21.9919 44.9999H23.008C27.2903 44.9999 30.4839 44.9273 30.4839 40.6451V23.0806C30.4839 19.887 28.7419 17.2015 26.0564 15.9677Z" fill="#D1D1D1"/>
<path d="M30.4838 40.6451V23.0806C30.4838 19.9596 28.7418 17.2015 26.0564 15.9677C26.0564 15.5322 26.1289 15.0967 26.1289 14.5886C26.1289 12.7015 26.1289 10.5967 25.4031 8.78218V6.89508C25.4031 6.8225 25.4031 5.08057 25.4031 5.08057H19.5967C19.5967 5.08057 19.5967 5.58863 19.5967 5.73379C19.5967 6.02411 19.5967 5.73379 19.5967 5.73379C19.5967 5.80637 19.5967 6.8225 19.5967 6.89508V8.7096" fill="#BCBCBC"/>
<path d="M16.258 18.145C14.9516 18.8708 14.5161 21.0482 14.5161 23.0805V40.645C14.5161 44.9273 17.7097 44.9999 21.9919 44.9999H23.008C27.2903 44.9999 30.4839 44.9273 30.4839 40.645V23.0805C30.4839 21.0482 29.9758 18.8708 28.7419 18.145H16.258Z" fill="#CE8E30"/>
<path d="M21.7742 44.9999H23.0081C27.2904 44.9999 30.4839 44.9273 30.4839 40.645V23.0805C30.4839 21.0482 29.9759 18.8708 28.742 18.145H16.6936" fill="#CE8E30"/>
<path d="M27.5807 28.9599L22.5001 24.0244L17.4194 28.9599V36.6534L22.5001 38.6857L27.5807 36.6534V28.9599Z" fill="#C81212"/>
<path d="M22.5 38.6857L27.5806 36.6534V28.9599L22.5 24.0244" fill="#C81212"/>
<path d="M23.9516 27.2179C23.9516 27.4356 23.8064 27.5808 23.5887 27.5808H21.4112C21.1935 27.5808 21.0483 27.4356 21.0483 27.2179C21.0483 27.0001 21.1935 26.855 21.4112 26.855H23.5887C23.8064 26.855 23.9516 27.0001 23.9516 27.2179Z" fill="#CE8E30"/>
<path d="M19.5967 6.89526V8.78235C18.8709 10.4517 18.8709 12.3388 18.7983 13.7904H26.129C26.0564 12.3388 26.129 10.4517 25.4032 8.85493V6.96784C25.4032 6.89526 25.4032 5.29848 25.4032 5.15332H19.5967C19.5967 5.15332 19.5967 5.5888 19.5967 5.73397C19.5967 6.02429 19.5967 5.73397 19.5967 5.73397C19.5967 5.73397 19.5967 6.75009 19.5967 6.89526Z" fill="#C81212"/>
<path d="M21.0483 13.7902H26.129C26.0564 12.3386 26.129 10.4515 25.4032 8.78218V6.89508C25.4032 6.8225 25.4032 5.08057 25.4032 5.08057C25.3306 5.15315 25.4032 5.08057 25.4032 5.08057H21.0483" fill="#C81212"/>
<path d="M28.3065 17.8549C28.3065 18.0001 28.1613 18.1452 28.0162 18.1452H16.9839C16.8388 18.1452 16.6936 18.0001 16.6936 17.8549V17.7098C16.6936 17.5646 16.8388 17.4194 16.9839 17.4194H28.0162C28.1613 17.4194 28.3065 17.5646 28.3065 17.7098V17.8549Z" fill="#AB814D"/>
<path d="M15.9677 41.7342C15.9677 41.9519 15.8226 42.0971 15.6048 42.0971C15.3871 42.0971 15.2419 41.9519 15.2419 41.7342V25.0406C15.2419 24.8229 15.3871 24.6777 15.6048 24.6777C15.8226 24.6777 15.9677 24.8229 15.9677 25.0406V41.7342Z" fill="#CE8E30"/>
<path d="M15.9677 22.6453C15.9677 22.863 15.8226 22.9356 15.6048 22.9356C15.3871 22.9356 15.2419 22.7904 15.2419 22.5727V21.1211C15.2419 20.9759 15.3871 20.9033 15.6048 20.9033C15.8226 20.9033 15.9677 20.9759 15.9677 21.1936V22.6453Z" fill="#CE8E30"/>
<path d="M25.4031 2.17725H19.5967V3.62886H25.4031V2.17725Z" fill="#C81212"/>
<path d="M22.5001 8.05631C22.8208 8.05631 23.0807 7.79635 23.0807 7.47566C23.0807 7.15498 22.8208 6.89502 22.5001 6.89502C22.1794 6.89502 21.9194 7.15498 21.9194 7.47566C21.9194 7.79635 22.1794 8.05631 22.5001 8.05631Z" fill="#190D0D"/>
<path d="M22.5001 10.3791C22.8208 10.3791 23.0807 10.1191 23.0807 9.79842C23.0807 9.47774 22.8208 9.21777 22.5001 9.21777C22.1794 9.21777 21.9194 9.47774 21.9194 9.79842C21.9194 10.1191 22.1794 10.3791 22.5001 10.3791Z" fill="#190D0D"/>
<path d="M22.5001 12.7741C22.8208 12.7741 23.0807 12.5141 23.0807 12.1934C23.0807 11.8728 22.8208 11.6128 22.5001 11.6128C22.1794 11.6128 21.9194 11.8728 21.9194 12.1934C21.9194 12.5141 22.1794 12.7741 22.5001 12.7741Z" fill="#190D0D"/>
<path d="M20.1449 33V31.6H20.8609C21.0449 31.6 21.1822 31.634 21.2729 31.702C21.3635 31.7687 21.4089 31.8567 21.4089 31.966C21.4089 32.038 21.3895 32.1013 21.3509 32.156C21.3135 32.2093 21.2602 32.252 21.1909 32.284C21.1229 32.3147 21.0415 32.33 20.9469 32.33L20.9869 32.234C21.0855 32.234 21.1715 32.2493 21.2449 32.28C21.3182 32.3093 21.3749 32.3527 21.4149 32.41C21.4562 32.466 21.4769 32.5347 21.4769 32.616C21.4769 32.7373 21.4275 32.832 21.3289 32.9C21.2315 32.9667 21.0889 33 20.9009 33H20.1449ZM20.5369 32.714H20.8689C20.9369 32.714 20.9882 32.7027 21.0229 32.68C21.0589 32.656 21.0769 32.62 21.0769 32.572C21.0769 32.524 21.0589 32.4887 21.0229 32.466C20.9882 32.442 20.9369 32.43 20.8689 32.43H20.5089V32.156H20.8089C20.8755 32.156 20.9255 32.1447 20.9589 32.122C20.9922 32.0993 21.0089 32.0653 21.0089 32.02C21.0089 31.9747 20.9922 31.9413 20.9589 31.92C20.9255 31.8973 20.8755 31.886 20.8089 31.886H20.5369V32.714ZM22.232 33.018C22.104 33.018 21.992 32.994 21.896 32.946C21.8013 32.8967 21.7273 32.83 21.674 32.746C21.622 32.6607 21.596 32.564 21.596 32.456C21.596 32.348 21.6213 32.252 21.672 32.168C21.724 32.0827 21.7953 32.0167 21.886 31.97C21.9767 31.922 22.0787 31.898 22.192 31.898C22.2987 31.898 22.396 31.92 22.484 31.964C22.572 32.0067 22.642 32.07 22.694 32.154C22.746 32.238 22.772 32.34 22.772 32.46C22.772 32.4733 22.7713 32.4887 22.77 32.506C22.7687 32.5233 22.7673 32.5393 22.766 32.554H21.908V32.354H22.564L22.42 32.41C22.4213 32.3607 22.412 32.318 22.392 32.282C22.3733 32.246 22.3467 32.218 22.312 32.198C22.2787 32.178 22.2393 32.168 22.194 32.168C22.1487 32.168 22.1087 32.178 22.074 32.198C22.0407 32.218 22.0147 32.2467 21.996 32.284C21.9773 32.32 21.968 32.3627 21.968 32.412V32.47C21.968 32.5233 21.9787 32.5693 22 32.608C22.0227 32.6467 22.0547 32.6767 22.096 32.698C22.1373 32.718 22.1867 32.728 22.244 32.728C22.2973 32.728 22.3427 32.7207 22.38 32.706C22.4187 32.69 22.4567 32.666 22.494 32.634L22.694 32.842C22.642 32.8993 22.578 32.9433 22.502 32.974C22.426 33.0033 22.336 33.018 22.232 33.018ZM23.5152 33.018C23.3872 33.018 23.2752 32.994 23.1792 32.946C23.0845 32.8967 23.0105 32.83 22.9572 32.746C22.9052 32.6607 22.8792 32.564 22.8792 32.456C22.8792 32.348 22.9045 32.252 22.9552 32.168C23.0072 32.0827 23.0785 32.0167 23.1692 31.97C23.2599 31.922 23.3619 31.898 23.4752 31.898C23.5819 31.898 23.6792 31.92 23.7672 31.964C23.8552 32.0067 23.9252 32.07 23.9772 32.154C24.0292 32.238 24.0552 32.34 24.0552 32.46C24.0552 32.4733 24.0545 32.4887 24.0532 32.506C24.0519 32.5233 24.0505 32.5393 24.0492 32.554H23.1912V32.354H23.8472L23.7032 32.41C23.7045 32.3607 23.6952 32.318 23.6752 32.282C23.6565 32.246 23.6299 32.218 23.5952 32.198C23.5619 32.178 23.5225 32.168 23.4772 32.168C23.4319 32.168 23.3919 32.178 23.3572 32.198C23.3239 32.218 23.2979 32.2467 23.2792 32.284C23.2605 32.32 23.2512 32.3627 23.2512 32.412V32.47C23.2512 32.5233 23.2619 32.5693 23.2832 32.608C23.3059 32.6467 23.3379 32.6767 23.3792 32.698C23.4205 32.718 23.4699 32.728 23.5272 32.728C23.5805 32.728 23.6259 32.7207 23.6632 32.706C23.7019 32.69 23.7399 32.666 23.7772 32.634L23.9772 32.842C23.9252 32.8993 23.8612 32.9433 23.7852 32.974C23.7092 33.0033 23.6192 33.018 23.5152 33.018ZM24.2304 33V31.916H24.5924V32.232L24.5384 32.142C24.5704 32.0607 24.6224 32 24.6944 31.96C24.7664 31.9187 24.8537 31.898 24.9564 31.898V32.24C24.9391 32.2373 24.9237 32.236 24.9104 32.236C24.8984 32.2347 24.8851 32.234 24.8704 32.234C24.7931 32.234 24.7304 32.2553 24.6824 32.298C24.6344 32.3393 24.6104 32.4073 24.6104 32.502V33H24.2304Z" fill="white"/>
</svg>
