<svg width="45" height="45" viewBox="0 0 45 45" fill="none" xmlns="http://www.w3.org/2000/svg">
<path d="M26.3468 18.7985L25.9113 9.43555H19.0887L18.6532 18.7985C12.4839 20.5404 7.98389 26.2017 7.98389 32.8065V44.2743H37.0161V32.8065C37.0161 26.2017 32.5161 20.5404 26.3468 18.7985Z" fill="#E5DAAE"/>
<path d="M37.0162 44.2743V32.8065C37.0162 26.1291 32.5162 20.4678 26.3469 18.7985L25.9114 9.43555H19.0888L18.6533 18.7259" fill="#D3C89B"/>
<path d="M26.3469 18.7984L25.9114 9.43555H19.0888L18.6533 18.7984" fill="#C1B68A"/>
<path d="M11.6129 23.2256C9.29034 25.9837 7.98389 29.2498 7.98389 32.8062V44.274H37.0161V32.8062C37.0161 29.2498 35.492 26.1288 33.3871 23.2256H11.6129Z" fill="#9E561B"/>
<path d="M37.016 44.274V32.8062C37.016 29.2498 35.7821 26.0562 33.387 23.2256H11.6128" fill="#894410"/>
<path d="M29.0323 38.4679V32.6614C29.0323 28.8873 26.2742 25.8389 22.5 25.8389C18.7258 25.8389 15.9678 28.8873 15.9678 32.6614V38.4679H29.0323Z" fill="#F4CF31"/>
<path d="M29.0323 38.4679V32.6614C29.0323 28.8873 26.2742 25.8389 22.5 25.8389C18.7258 25.8389 15.9678 28.8873 15.9678 32.6614" fill="#CCA602"/>
<path d="M27.1451 9.4353C27.1451 9.87078 26.7822 10.2337 26.3467 10.2337H18.5805C18.1451 10.2337 17.8547 9.87078 17.8547 9.50788V9.4353C17.8547 8.99982 18.2176 8.85466 18.6531 8.85466H26.4193C26.7822 8.70949 27.1451 8.99982 27.1451 9.4353Z" fill="#F4CF31"/>
<path d="M17.8547 9.43528C17.8547 8.9998 18.2176 8.70947 18.6531 8.70947H26.4193C26.8547 8.70947 27.2176 8.9998 27.2176 9.43528C27.2176 9.87076 26.8547 10.2337 26.4193 10.2337" fill="#CCA602"/>
<path d="M29.0323 39.1934H15.9678V41.3708H29.0323V39.1934Z" fill="#C81212"/>
<path d="M29.0323 41.3708V39.1934H15.9678" fill="#C81212"/>
<path d="M22.4936 21.3071L24.8545 18.9458L22.4932 16.5849L20.1323 18.9461L22.4936 21.3071Z" fill="#C81212"/>
<path d="M22.5 16.6211L24.8226 18.9437L22.5 21.3388" fill="#C81212"/>
<path d="M17.821 32.8577L18.5908 32.0879L17.821 31.3181L17.0512 32.0879L17.821 32.8577Z" fill="#9E561B"/>
<path d="M17.831 35.1019L18.6008 34.332L17.831 33.5622L17.0612 34.332L17.831 35.1019Z" fill="#9E561B"/>
<path d="M17.7897 37.2968L18.5598 36.5273L17.7903 35.7572L17.0202 36.5267L17.7897 37.2968Z" fill="#9E561B"/>
<path d="M27.2045 32.907L27.9744 32.1372L27.2045 31.3674L26.4347 32.1372L27.2045 32.907Z" fill="#894410"/>
<path d="M27.2148 35.1517L27.9846 34.3818L27.2148 33.612L26.445 34.3818L27.2148 35.1517Z" fill="#894410"/>
<path d="M27.1769 37.3423L27.947 36.5728L27.1775 35.8026L26.4074 36.5721L27.1769 37.3423Z" fill="#894410"/>
<path d="M10.8872 42.8224C10.8872 43.1853 10.5968 43.5482 10.1614 43.5482C9.79845 43.5482 9.43555 43.2579 9.43555 42.8224V31.9353C9.43555 31.5724 9.72587 31.2095 10.1614 31.2095C10.5243 31.2095 10.8872 31.4998 10.8872 31.9353V42.8224Z" fill="#D3915F"/>
<path d="M11.0323 28.8871C11.0323 29.25 10.742 29.5403 10.3791 29.5403C10.0162 29.5403 9.72583 29.25 9.72583 28.8871C9.72583 28.5242 10.0162 28.2339 10.3791 28.2339C10.742 28.2339 11.0323 28.5242 11.0323 28.8871Z" fill="#D3915F"/>
<path d="M18.8708 15.2418H26.1289L25.9838 11.6128H19.016L18.8708 15.2418Z" fill="#C81212"/>
<path d="M26.1289 15.2418L25.9838 11.6128H19.5967" fill="#C81212"/>
<path d="M33.4597 23.5885C33.4597 23.7337 33.3145 23.9514 33.0968 23.9514H11.8307C11.6129 23.9514 11.4678 23.7337 11.4678 23.5885C11.4678 23.4433 11.6129 23.2256 11.8307 23.2256H33.0968C33.3145 23.2256 33.4597 23.4433 33.4597 23.5885Z" fill="#D3915F"/>
<path d="M28.016 7.98387C28.4515 7.25806 28.6693 6.3871 28.6693 5.44355C28.6693 2.39516 26.129 0 23.008 0H21.9919C18.8709 0 16.3306 2.39516 16.3306 5.44355C16.3306 6.3871 16.5483 7.25806 16.9838 7.98387H28.016Z" fill="#F4CF31"/>
<path d="M22.5 7.98387H28.0161C28.4516 7.25806 28.6693 6.3871 28.6693 5.44355C28.6693 2.39516 26.129 0 23.008 0H21.7742" fill="#CCA602"/>
<path d="M18.4683 2.37068C17.7143 3.2554 17.301 4.14122 17.5451 4.34921C17.7891 4.55721 18.5982 4.00861 19.3521 3.1239C20.1061 2.23918 20.5194 1.35336 20.2754 1.14537C20.0313 0.937372 19.2222 1.48596 18.4683 2.37068Z" fill="#FFF2BB"/>
<path d="M18.5844 20.186C18.4633 19.9328 17.4856 20.1484 16.4008 20.6675C15.3159 21.1865 14.5346 21.8125 14.6557 22.0656C14.7768 22.3187 15.7545 22.1032 16.8393 21.5841C17.9242 21.0651 18.7055 20.4391 18.5844 20.186Z" fill="#F7F1DA"/>
<path d="M37.0161 44.6373C37.0161 44.8551 36.871 45.0002 36.6532 45.0002H8.34679C8.12905 45.0002 7.98389 44.8551 7.98389 44.6373C7.98389 44.4196 8.12905 44.2744 8.34679 44.2744H36.6532C36.871 44.2744 37.0161 44.4196 37.0161 44.6373Z" fill="#894410"/>
</svg>
