<svg width="45" height="45" viewBox="0 0 45 45" fill="none" xmlns="http://www.w3.org/2000/svg">
<path d="M33.1436 8.92987C33.1436 9.97751 31.8754 10.8597 30.2764 10.8597H14.3963C12.7973 10.8597 11.5291 9.97751 11.5291 8.92987C11.5291 7.88223 12.7973 7 14.3963 7H30.2764C31.8754 7 33.1436 7.88223 33.1436 8.92987Z" fill="#B7874E"/>
<path d="M23.439 7H30.2762C31.8753 7 33.1435 7.88223 33.1435 8.92987C33.1435 9.97751 31.8753 10.8046 30.2762 10.8046" fill="#93591B"/>
<path d="M29.6696 38.9807H15.0026L10.4812 9.20557H34.191L29.6696 38.9807Z" fill="#494949"/>
<path d="M10.2056 9.20557H34.1911L29.6697 38.9807" fill="#282828"/>
<path d="M10.2056 9.20557H34.1911L31.5996 26.3538" fill="black"/>
<path d="M36.6724 8.6543H8V11.9626H36.6724V8.6543Z" fill="#B7874E"/>
<path d="M8 8.6543H36.6724V11.9626" fill="#93591B"/>
<path d="M30.1659 35.6724H14.5063L14.6166 36.7751H30.0556L30.1659 35.6724Z" fill="#878787"/>
<path d="M31.0482 30.1586L32.9781 17.4766H11.6943L13.6242 30.1586H31.0482Z" fill="#FCF170"/>
<path d="M31.048 30.1586L32.9779 17.4766H11.8596" fill="#F2B233"/>
<path d="M21.7848 18.7998C19.5792 19.1858 17.8699 21.2259 17.8699 23.7623C17.8699 26.2436 19.5792 28.3389 21.7848 28.7249V18.7998Z" fill="black"/>
<path d="M22.8875 18.7998V28.7249C25.093 28.3389 26.8023 26.2987 26.8023 23.7623C26.8023 21.2811 25.093 19.1858 22.8875 18.7998Z" fill="black"/>
</svg>
