<svg width="45" height="45" viewBox="0 0 45 45" fill="none" xmlns="http://www.w3.org/2000/svg">
<path d="M33.2135 4.65234H11.7866V41.0207H33.2135V4.65234Z" fill="#C81212"/>
<path d="M33.2134 4.63555H11.7869L13.36 1.58838H31.641L33.2134 4.63555Z" fill="#C81212"/>
<path d="M11.7869 41.0039H33.2134L31.641 44.0511H13.36L11.7869 41.0039Z" fill="#B5B5B5"/>
<path d="M13.6216 41.0039H33.2132L31.6409 44.0511H14.1778L13.6216 41.0039Z" fill="#A0A0A0"/>
<path d="M13.3601 1.58838H31.6411L33.2135 4.63555" fill="#C81212"/>
<path d="M11.7869 4.65234H33.2134V41.0203" fill="#C81212"/>
<path d="M30.8535 12.8433H14.1445V32.8296H30.8535V12.8433Z" fill="white"/>
<path d="M30.8546 12.8433H16.7683V32.8296H30.8546V12.8433Z" fill="#CAEDE8"/>
<path d="M32.2308 0.835402C32.2308 1.29683 31.8561 1.6708 31.3954 1.6708H13.6057C13.1435 1.6708 12.7688 1.29613 12.7688 0.835402C12.7688 0.373975 13.1443 0 13.6057 0H31.3953C31.856 0.000703126 32.2308 0.373975 32.2308 0.835402Z" fill="#B5B5B5"/>
<path d="M13.6055 0.000488281H31.3951C31.8558 0.000488281 32.2305 0.374464 32.2305 0.83589C32.2305 1.29732 31.8558 1.67129 31.3951 1.67129" fill="#A0A0A0"/>
<path d="M32.3042 44.4846C32.3042 44.7697 32.0731 45 31.7888 45H13.2112C12.9262 45 12.6958 44.7697 12.6958 44.4846C12.6958 44.1996 12.9262 43.9692 13.2112 43.9692H31.7888C32.0731 43.9692 32.3042 44.2003 32.3042 44.4846Z" fill="#B5B5B5"/>
<path d="M14.2449 43.9692H31.7888C32.0732 43.9692 32.3042 44.1996 32.3042 44.4846C32.3042 44.7697 32.0732 45 31.7888 45" fill="#A0A0A0"/>
<path d="M17.1634 25.07C16.8867 25.07 16.63 25.0267 16.3934 24.94C16.16 24.85 15.9567 24.7233 15.7834 24.56C15.6134 24.3967 15.48 24.205 15.3834 23.985C15.2867 23.7617 15.2384 23.5167 15.2384 23.25C15.2384 22.9833 15.2867 22.74 15.3834 22.52C15.48 22.2967 15.6134 22.1033 15.7834 21.94C15.9567 21.7767 16.16 21.6517 16.3934 21.565C16.63 21.475 16.8867 21.43 17.1634 21.43C17.4867 21.43 17.775 21.4867 18.0284 21.6C18.285 21.7133 18.4984 21.8767 18.6684 22.09L18.0384 22.66C17.925 22.5267 17.8 22.425 17.6634 22.355C17.53 22.285 17.38 22.25 17.2134 22.25C17.07 22.25 16.9384 22.2733 16.8184 22.32C16.6984 22.3667 16.595 22.435 16.5084 22.525C16.425 22.6117 16.3584 22.7167 16.3084 22.84C16.2617 22.9633 16.2384 23.1 16.2384 23.25C16.2384 23.4 16.2617 23.5367 16.3084 23.66C16.3584 23.7833 16.425 23.89 16.5084 23.98C16.595 24.0667 16.6984 24.1333 16.8184 24.18C16.9384 24.2267 17.07 24.25 17.2134 24.25C17.38 24.25 17.53 24.215 17.6634 24.145C17.8 24.075 17.925 23.9733 18.0384 23.84L18.6684 24.41C18.4984 24.62 18.285 24.7833 18.0284 24.9C17.775 25.0133 17.4867 25.07 17.1634 25.07ZM20.8015 25.07C20.5215 25.07 20.2632 25.025 20.0265 24.935C19.7899 24.845 19.5832 24.7183 19.4065 24.555C19.2332 24.3883 19.0982 24.195 19.0015 23.975C18.9049 23.755 18.8565 23.5133 18.8565 23.25C18.8565 22.9867 18.9049 22.745 19.0015 22.525C19.0982 22.305 19.2332 22.1133 19.4065 21.95C19.5832 21.7833 19.7899 21.655 20.0265 21.565C20.2632 21.475 20.5215 21.43 20.8015 21.43C21.0849 21.43 21.3432 21.475 21.5765 21.565C21.8132 21.655 22.0182 21.7833 22.1915 21.95C22.3649 22.1133 22.4999 22.305 22.5965 22.525C22.6965 22.745 22.7465 22.9867 22.7465 23.25C22.7465 23.5133 22.6965 23.7567 22.5965 23.98C22.4999 24.2 22.3649 24.3917 22.1915 24.555C22.0182 24.7183 21.8132 24.845 21.5765 24.935C21.3432 25.025 21.0849 25.07 20.8015 25.07ZM20.8015 24.25C20.9349 24.25 21.0582 24.2267 21.1715 24.18C21.2882 24.1333 21.3882 24.0667 21.4715 23.98C21.5582 23.89 21.6249 23.7833 21.6715 23.66C21.7215 23.5367 21.7465 23.4 21.7465 23.25C21.7465 23.0967 21.7215 22.96 21.6715 22.84C21.6249 22.7167 21.5582 22.6117 21.4715 22.525C21.3882 22.435 21.2882 22.3667 21.1715 22.32C21.0582 22.2733 20.9349 22.25 20.8015 22.25C20.6682 22.25 20.5432 22.2733 20.4265 22.32C20.3132 22.3667 20.2132 22.435 20.1265 22.525C20.0432 22.6117 19.9765 22.7167 19.9265 22.84C19.8799 22.96 19.8565 23.0967 19.8565 23.25C19.8565 23.4 19.8799 23.5367 19.9265 23.66C19.9765 23.7833 20.0432 23.89 20.1265 23.98C20.2132 24.0667 20.3132 24.1333 20.4265 24.18C20.5432 24.2267 20.6682 24.25 20.8015 24.25ZM23.265 25V21.5H24.255V24.215H25.925V25H23.265ZM25.931 25L27.476 21.5H28.451L30.001 25H28.971L27.761 21.985H28.151L26.941 25H25.931ZM26.776 24.32L27.031 23.59H28.741L28.996 24.32H26.776Z" fill="black"/>
</svg>
