<svg width="45" height="45" viewBox="0 0 45 45" fill="none" xmlns="http://www.w3.org/2000/svg">
<path d="M33.2135 4.65234H11.7866V41.0207H33.2135V4.65234Z" fill="#D06400"/>
<path d="M33.2134 4.63555H11.7869L13.36 1.58838H31.641L33.2134 4.63555Z" fill="#D06400"/>
<path d="M11.7869 41.0039H33.2134L31.641 44.0511H13.36L11.7869 41.0039Z" fill="#B5B5B5"/>
<path d="M13.6216 41.0039H33.2132L31.6409 44.0511H14.1778L13.6216 41.0039Z" fill="#A0A0A0"/>
<path d="M13.3601 1.58838H31.6411L33.2135 4.63555" fill="#D06400"/>
<path d="M11.7869 4.65234H33.2134V41.0203" fill="#D06400"/>
<path d="M30.8535 12.8433H14.1445V32.8296H30.8535V12.8433Z" fill="white"/>
<path d="M30.8546 12.8433H16.7683V32.8296H30.8546V12.8433Z" fill="#CAEDE8"/>
<path d="M32.2308 0.835402C32.2308 1.29683 31.8561 1.6708 31.3954 1.6708H13.6057C13.1435 1.6708 12.7688 1.29613 12.7688 0.835402C12.7688 0.373975 13.1443 0 13.6057 0H31.3953C31.856 0.000703126 32.2308 0.373975 32.2308 0.835402Z" fill="#B5B5B5"/>
<path d="M13.6055 0.000488281H31.3951C31.8558 0.000488281 32.2305 0.374464 32.2305 0.83589C32.2305 1.29732 31.8558 1.67129 31.3951 1.67129" fill="#A0A0A0"/>
<path d="M32.3042 44.4846C32.3042 44.7697 32.0731 45 31.7888 45H13.2112C12.9262 45 12.6958 44.7697 12.6958 44.4846C12.6958 44.1996 12.9262 43.9692 13.2112 43.9692H31.7888C32.0731 43.9692 32.3042 44.2003 32.3042 44.4846Z" fill="#B5B5B5"/>
<path d="M14.2449 43.9692H31.7888C32.0732 43.9692 32.3042 44.1996 32.3042 44.4846C32.3042 44.7697 32.0732 45 31.7888 45" fill="#A0A0A0"/>
<path d="M15.5877 38.334C15.5877 38.7313 15.264 39.0543 14.8667 39.0543C14.4687 39.0543 14.1458 38.7313 14.1458 38.334V34.5323C14.1458 34.135 14.4687 33.812 14.8667 33.812C15.264 33.812 15.5877 34.1349 15.5877 34.5323V38.334Z" fill="#D06400"/>
<path d="M18.6281 8.80117C19.0058 8.80117 19.3119 8.49503 19.3119 8.11738C19.3119 7.73974 19.0058 7.43359 18.6281 7.43359C18.2505 7.43359 17.9443 7.73974 17.9443 8.11738C17.9443 8.49503 18.2505 8.80117 18.6281 8.80117Z" fill="#D06400"/>
<path d="M22.5007 8.80117C22.8783 8.80117 23.1845 8.49503 23.1845 8.11738C23.1845 7.73974 22.8783 7.43359 22.5007 7.43359C22.123 7.43359 21.8169 7.73974 21.8169 8.11738C21.8169 8.49503 22.123 8.80117 22.5007 8.80117Z" fill="#D06400"/>
<path d="M26.373 8.80117C26.7506 8.80117 27.0568 8.49503 27.0568 8.11738C27.0568 7.73974 26.7506 7.43359 26.373 7.43359C25.9954 7.43359 25.6892 7.73974 25.6892 8.11738C25.6892 8.49503 25.9954 8.80117 26.373 8.80117Z" fill="#D06400"/>
<path d="M16.3324 22.428H17.6244V23.04H16.3324V22.428ZM16.3884 24H15.5964V21.2H17.7924V21.812H16.3884V24ZM17.7174 24L18.9534 21.2H19.7334L20.9734 24H20.1494L19.1814 21.588H19.4934L18.5254 24H17.7174ZM18.3934 23.456L18.5974 22.872H19.9654L20.1694 23.456H18.3934ZM21.198 24V21.2H21.85L23.394 23.064H23.086V21.2H23.862V24H23.21L21.666 22.136H21.974V24H21.198ZM25.0166 24V21.828H24.1566V21.2H26.6646V21.828H25.8086V24H25.0166ZM26.4831 24L27.7191 21.2H28.4991L29.7391 24H28.9151L27.9471 21.588H28.2591L27.2911 24H26.4831ZM27.1591 23.456L27.3631 22.872H28.7311L28.9351 23.456H27.1591Z" fill="black"/>
</svg>
