<svg width="45" height="45" viewBox="0 0 45 45" fill="none" xmlns="http://www.w3.org/2000/svg">
<g clip-path="url(#clip0_608_658)">
<path d="M29.6854 13.0645H29.5403C29.5403 13.0645 29.6854 13.0645 29.5403 13.0645H29.1048C28.1612 12.3387 26.3467 12.1935 26.129 9.3629V1.16129C26.129 0.653226 25.8386 0 25.3306 0H19.6693C19.1612 0 18.8709 0.653226 18.8709 1.16129V9.43548C18.6532 12.2661 16.8386 12.3387 15.8951 13.0645H15.4596C15.3145 13.0645 15.4596 13.0645 15.4596 13.0645H15.3145C14.0806 13.0645 13.0645 13.7177 13.0645 14.9516V42.6048C13.0645 43.8387 13.3548 44.9274 14.5886 44.9274H30.3386C31.5725 44.9274 31.8628 43.8387 31.8628 42.6048V14.9516C31.9354 13.7177 30.9193 13.0645 29.6854 13.0645Z" fill="#70D8E5"/>
<path d="M31.9355 34.8387V14.9516C31.9355 13.7177 30.9194 13.0645 29.6855 13.0645H29.5403C29.5403 13.0645 29.6855 13.0645 29.5403 13.0645H29.1048C28.1613 12.3387 26.3468 12.1935 26.129 9.3629V1.16129C26.129 0.653226 25.8387 0 25.3307 0H19.6694C19.1613 0 18.871 0.653226 18.871 1.16129V9.43548C18.6532 12.2661 16.8387 12.3387 15.8952 13.0645H15.4597C15.3145 13.0645 15.4597 13.0645 15.4597 13.0645H15.2419" fill="#50CAD3"/>
<path d="M31.9354 14.9516C31.9354 13.7177 30.9192 13.0645 29.6854 13.0645H29.5402C29.5402 13.0645 29.6854 13.0645 29.5402 13.0645H29.1047C28.1612 12.3387 26.3467 12.1935 26.1289 9.3629V1.16129C26.1289 0.653226 25.8386 0 25.3305 0H19.6692C19.1612 0 18.8708 0.653226 18.8708 1.16129V9.43548" fill="#44B2CC"/>
<path d="M22.4999 9.58064L26.1289 5.87903V1.16129C26.1289 0.653226 25.8386 0 25.3305 0H19.6692C19.1612 0 18.8708 0.653226 18.8708 1.16129V5.87903L22.4999 9.58064Z" fill="#0B393A"/>
<path d="M18.8708 4.28223V5.879L22.4999 9.58061L26.1289 5.879V4.28223L22.4999 7.98384L18.8708 4.28223Z" fill="#DBC772"/>
<path d="M13.0645 21.0483V42.6774C13.0645 43.9112 13.3548 45 14.5886 45H30.3386C31.5725 45 31.8628 43.9112 31.8628 42.6774V21.0483H13.0645Z" fill="#36A1BA"/>
<path d="M30.4112 45C31.6451 45 31.9354 43.9112 31.9354 42.6774V21.0483H13.0645" fill="#007EA0"/>
<path d="M31.9354 21.5566C31.9354 21.7017 31.8628 21.7743 31.7177 21.7743H13.2822C13.137 21.7743 13.0645 21.7017 13.0645 21.5566V21.3388C13.0645 21.1937 13.137 21.1211 13.2822 21.1211H31.6451C31.7903 21.1211 31.8628 21.1937 31.8628 21.3388V21.5566H31.9354Z" fill="#A5E9EF"/>
<path d="M22.5 29.9032C25.7869 29.9032 28.4516 27.2386 28.4516 23.9516C28.4516 20.6646 25.7869 18 22.5 18C19.213 18 16.5483 20.6646 16.5483 23.9516C16.5483 27.2386 19.213 29.9032 22.5 29.9032Z" fill="#DBC772"/>
<path d="M22.5 18.0728C25.7661 18.0728 28.4516 20.7582 28.4516 24.0244C28.4516 27.2905 25.7661 29.976 22.5 29.976" fill="#C6AF4E"/>
<path d="M26.8549 2.83065C26.8549 3.26613 26.1291 3.62903 25.4033 3.62903H19.5969C18.8711 3.62903 18.1453 3.26613 18.1453 2.83065V0.870968C18.1453 0.435484 18.8711 0 19.5969 0H25.4033C26.1291 0 26.8549 0.435484 26.8549 0.870968V2.83065Z" fill="#164B4F"/>
<path d="M15.2419 42.1695C15.2419 42.4598 15.1693 42.7502 14.879 42.7502C14.5887 42.7502 14.5161 42.4598 14.5161 42.1695V27.6534C14.5161 27.3631 14.5887 27.0728 14.879 27.0728C15.1693 27.0728 15.2419 27.3631 15.2419 27.6534V42.1695Z" fill="#50CAD3"/>
<path d="M15.2419 20.3227C15.2419 20.3953 15.1693 20.5404 14.879 20.5404C14.5887 20.5404 14.5161 20.4679 14.5161 20.3227V15.6049C14.5161 15.5324 14.5887 15.3872 14.879 15.3872C15.1693 15.3872 15.2419 15.4598 15.2419 15.6049V20.3227Z" fill="#B3F0F2"/>
<path d="M21.0483 31.0646C21.0483 31.0646 20.9758 31.0646 20.9032 31.0646C20.8306 31.0646 20.8306 31.0646 20.758 31.1372C20.6854 31.1372 20.6854 31.2098 20.6128 31.2098C20.5403 31.2098 20.5403 31.2824 20.5403 31.2824C20.4677 31.2824 20.4677 31.3549 20.3951 31.4275C20.3225 31.5001 20.3225 31.5001 20.2499 31.5727C20.3225 31.5727 20.4677 31.5727 20.5403 31.5727C20.6128 31.5727 20.758 31.5727 20.8306 31.5727C20.9032 31.5727 21.0483 31.5727 21.1209 31.5727C21.1935 31.5727 21.3387 31.5727 21.4112 31.5727H21.4838C21.4838 31.5727 21.5564 31.6453 21.4838 31.6453C21.4838 31.6453 21.4838 31.7179 21.4112 31.7179H21.3387C21.2661 31.7179 21.1935 31.7179 21.1209 31.7179C21.0483 31.7179 20.9758 31.7179 20.9032 31.6453C20.8306 31.6453 20.6854 31.6453 20.6128 31.6453C20.5403 31.6453 20.3951 31.6453 20.3225 31.6453C20.2499 31.6453 20.1774 31.6453 20.1774 31.6453C20.1048 31.6453 20.1048 31.6453 20.0322 31.6453C19.887 31.7904 19.7419 31.9356 19.5967 32.0808C19.4516 32.2259 19.379 32.3711 19.2338 32.5162C19.0887 32.6614 19.0161 32.8066 18.8709 33.0243C18.7983 33.1695 18.6532 33.3872 18.5806 33.5324C18.508 33.605 18.508 33.6775 18.4354 33.8227C18.4354 33.8953 18.3628 33.9679 18.3628 34.113C18.3628 34.1856 18.3628 34.1856 18.3628 34.2582C18.3628 34.3308 18.3628 34.3308 18.3628 34.4033C18.3628 34.4033 18.3628 34.4759 18.4354 34.4759V34.5485C18.4354 34.6211 18.3628 34.6211 18.3628 34.6211H18.2903L18.2177 34.5485C18.2177 34.5485 18.2177 34.4759 18.1451 34.4759C18.1451 34.4033 18.0725 34.3308 18.1451 34.1856C18.1451 34.113 18.2177 33.9679 18.2177 33.8953C18.2903 33.6775 18.3628 33.5324 18.4354 33.3872C18.508 33.242 18.6532 33.0243 18.7258 32.8791C18.8709 32.734 18.9435 32.5162 19.0887 32.3711C19.2338 32.2259 19.379 32.0808 19.4516 31.9356L19.6693 31.7179C19.5241 31.7179 19.4516 31.7904 19.3064 31.7904C19.1612 31.7904 19.0887 31.863 18.9435 31.863C18.7258 31.9356 18.5806 31.9356 18.3628 32.0082C18.1451 32.0808 17.9999 32.1533 17.7822 32.1533C17.7096 32.1533 17.5645 32.2259 17.4919 32.2259C17.4193 32.2259 17.2741 32.2985 17.2016 32.2985H17.129C17.129 32.2985 17.0564 32.2985 17.0564 32.2259V32.1533C17.0564 32.1533 17.0564 32.0808 17.129 32.0808C17.4919 32.0082 17.9274 31.863 18.2903 31.7904C18.6532 31.7179 19.0887 31.5727 19.4516 31.5001C19.5241 31.5001 19.5241 31.5001 19.5967 31.5001C19.6693 31.5001 19.6693 31.5001 19.7419 31.5001C19.8145 31.4275 19.887 31.3549 20.0322 31.2824C20.1048 31.2098 20.2499 31.1372 20.3225 31.0646C20.3951 30.992 20.4677 30.992 20.5403 30.9195C20.6128 30.9195 20.6854 30.8469 20.8306 30.9195C20.8306 30.9195 20.9032 30.9195 20.9032 30.992V31.0646C20.9032 31.0646 20.9032 31.1372 20.8306 31.1372C21.1209 31.0646 21.0483 31.0646 21.0483 31.0646Z" fill="#DCFFFC"/>
<path d="M20.1047 33.1694C20.1773 33.1694 20.2499 33.0968 20.3225 33.0968C20.3951 33.0968 20.4676 33.0242 20.5402 33.0242C20.6128 33.0242 20.6128 32.9517 20.6854 32.9517C20.758 32.9517 20.758 32.9517 20.8306 32.9517C20.8306 32.9517 20.9031 33.0242 20.8306 33.0242H20.9031C20.9757 33.0968 20.9757 33.0968 20.9757 33.1694C20.9757 33.242 20.9031 33.3146 20.9031 33.3871C20.9031 33.3871 20.9031 33.3871 20.9757 33.4597C21.0483 33.4597 21.1209 33.5323 21.1935 33.5323C21.266 33.5323 21.3386 33.5323 21.4112 33.5323H21.4838C21.4838 33.5323 21.5564 33.5323 21.6289 33.4597C21.7015 33.3871 21.7015 33.4597 21.7015 33.4597H21.7741V33.5323C21.7741 33.5323 21.7015 33.5323 21.7015 33.6049H21.6289H21.5564C21.4838 33.6049 21.4838 33.6049 21.4112 33.6775C21.3386 33.6775 21.266 33.6775 21.266 33.6775C21.1935 33.6775 21.1209 33.6775 21.1209 33.6775C21.0483 33.6775 21.0483 33.6049 20.9757 33.6049L20.8306 33.75C20.758 33.8226 20.758 33.8226 20.6854 33.8952C20.6128 33.9678 20.6128 33.9678 20.5402 33.9678C20.4676 33.9678 20.3951 34.0404 20.3225 34.0404C20.2499 34.0404 20.1773 34.0404 20.1773 34.0404C20.1047 34.0404 20.0322 33.9678 20.0322 33.8952C20.0322 33.8226 20.0322 33.8226 20.0322 33.75C20.0322 33.6775 20.1047 33.6049 20.1047 33.6049C20.1773 33.5323 20.1773 33.5323 20.2499 33.4597L20.3225 33.3871C20.2499 33.3871 20.1773 33.4597 20.1047 33.4597C20.0322 33.4597 19.9596 33.5323 19.887 33.6049C19.887 33.6049 19.887 33.6049 19.8144 33.6049H19.7418H19.6693C19.6693 33.6049 19.6693 33.6049 19.5967 33.6049C19.5967 33.6049 19.5967 33.6049 19.5967 33.5323C19.5967 33.5323 19.5967 33.4597 19.6693 33.4597L20.1047 33.1694ZM20.3225 33.3146L20.2499 33.3871C20.1773 33.4597 20.1773 33.4597 20.1773 33.5323C20.1773 33.6049 20.1047 33.6049 20.1047 33.6775C20.1047 33.75 20.1047 33.75 20.1773 33.75C20.2499 33.75 20.3225 33.75 20.4676 33.75C20.5402 33.75 20.6128 33.6775 20.6854 33.6049L20.758 33.5323L20.8306 33.4597C20.8306 33.3871 20.8306 33.3871 20.8306 33.3146C20.8306 33.242 20.8306 33.242 20.9031 33.1694C20.8306 33.1694 20.6854 33.1694 20.6128 33.242C20.4676 33.242 20.3951 33.242 20.3225 33.3146Z" fill="#DCFFFC"/>
<path d="M21.6289 33.3871C21.7015 33.3871 21.7015 33.3146 21.8467 33.3146C21.9193 33.242 22.0644 33.242 22.137 33.1694C22.2096 33.0968 22.3548 33.0968 22.4273 33.0968C22.4999 33.0968 22.5725 33.0968 22.5725 33.1694V33.242L22.4999 33.3146L22.4273 33.4597C22.4999 33.4597 22.4999 33.3871 22.5725 33.3871C22.6451 33.3871 22.6451 33.3146 22.7177 33.3146C22.8628 33.242 22.9354 33.1694 23.0806 33.0968C23.2257 33.0242 23.2983 32.9517 23.4435 32.9517C23.516 32.9517 23.516 32.9517 23.5886 32.9517C23.5886 32.9517 23.6612 32.9517 23.6612 33.0242V33.0968C23.6612 33.1694 23.6612 33.1694 23.5886 33.242C23.5886 33.3146 23.516 33.3146 23.516 33.3871C23.4435 33.4597 23.4435 33.4597 23.3709 33.5323C23.3709 33.5323 23.3709 33.5323 23.2983 33.6049L23.2257 33.6775L23.1531 33.75V33.8226H23.2257C23.2983 33.8226 23.2983 33.8226 23.3709 33.8226C23.4435 33.8226 23.4435 33.8226 23.4435 33.75H23.516L23.7338 33.6775C23.7338 33.6775 23.7338 33.6775 23.8064 33.6775C23.8064 33.6775 23.8789 33.6775 23.8789 33.6049H23.9515H24.0241C24.0241 33.6049 24.0967 33.6049 24.0967 33.6775C24.0967 33.6775 24.0967 33.75 24.0241 33.75C24.0241 33.75 23.9515 33.75 23.9515 33.8226C23.9515 33.8226 23.8789 33.8226 23.8064 33.8952C23.7338 33.8952 23.7338 33.9678 23.6612 33.9678C23.5886 33.9678 23.5886 34.0404 23.516 34.0404C23.516 34.0404 23.4435 34.0404 23.3709 34.1129C23.2983 34.1129 23.2257 34.1855 23.1531 34.1855C23.0806 34.1855 23.008 34.1855 23.008 34.1855C22.9354 34.1855 22.9354 34.113 22.9354 34.0404V33.9678L23.008 33.8952L23.0806 33.8226L23.1531 33.75C23.1531 33.75 23.2257 33.6775 23.2257 33.6049C23.2983 33.5323 23.2983 33.4597 23.2983 33.4597C23.2257 33.4597 23.0806 33.4597 23.008 33.5323C22.9354 33.6049 22.7902 33.6049 22.7177 33.6775C22.6451 33.75 22.4999 33.75 22.4273 33.8226C22.2822 33.8952 22.2096 33.9678 22.137 34.0404H22.0644H21.9918C21.9918 34.0404 21.9918 34.0404 21.9193 33.9678V33.8952L21.9918 33.8226C21.9918 33.8226 21.9918 33.75 22.0644 33.75C22.0644 33.6775 22.0644 33.6775 22.137 33.6775V33.6049V33.5323C22.0644 33.5323 22.0644 33.5323 21.9918 33.6049C21.9193 33.6049 21.9193 33.6049 21.9193 33.6049C21.8467 33.6049 21.8467 33.6775 21.7741 33.6775C21.7015 33.6775 21.7015 33.75 21.6289 33.75C21.6289 33.75 21.5564 33.75 21.5564 33.8226C21.5564 33.8226 21.4838 33.8226 21.4838 33.8952H21.4112C21.4112 33.8952 21.4112 33.8952 21.3386 33.8952C21.6289 33.4597 21.6289 33.4597 21.6289 33.3871Z" fill="#DCFFFC"/>
<path d="M24.6048 33.097C24.6048 33.097 24.6774 33.097 24.6774 33.0244C24.75 33.0244 24.75 32.9518 24.8226 32.9518C24.8951 32.9518 24.8951 32.9518 24.9677 32.9518L25.0403 33.0244C25.0403 33.0244 25.0403 33.097 24.9677 33.097L24.8951 33.1696C24.8951 33.2421 24.8226 33.2421 24.8226 33.3147C24.8226 33.3873 24.8226 33.4599 24.8226 33.4599C24.8951 33.4599 24.9677 33.4599 25.0403 33.4599C25.1129 33.4599 25.1855 33.3873 25.258 33.3873C25.258 33.3873 25.3306 33.3873 25.3306 33.3147C25.3306 33.2421 25.4032 33.2421 25.4758 33.2421C25.5484 33.2421 25.5484 33.1696 25.6209 33.1696C25.6935 33.1696 25.6935 33.1696 25.6935 33.1696V33.2421C25.6935 33.2421 25.6209 33.3147 25.5484 33.3147C25.4758 33.3147 25.4758 33.3873 25.4032 33.3873C25.3306 33.3873 25.3306 33.3873 25.3306 33.4599C25.258 33.5325 25.1855 33.5325 25.1129 33.605C25.0403 33.6776 24.9677 33.6776 24.8951 33.6776C24.8226 33.6776 24.75 33.6776 24.75 33.605C24.75 33.5325 24.6774 33.5325 24.6774 33.4599C24.6774 33.3873 24.6774 33.3147 24.6774 33.2421C24.6774 33.1696 24.75 33.097 24.75 33.0244C24.6774 33.0244 24.6048 33.097 24.5322 33.097C24.4597 33.097 24.3871 33.1696 24.3145 33.1696C24.2419 33.1696 24.1693 33.2421 24.0968 33.2421C24.0242 33.2421 24.0242 33.2421 24.0242 33.2421V33.1696L24.6048 33.097ZM25.1855 32.0809C25.1855 32.0083 25.258 32.0083 25.258 31.9357C25.258 31.8631 25.3306 31.8631 25.4032 31.8631C25.4758 31.8631 25.4758 31.7905 25.5484 31.7905C25.6209 31.7905 25.6209 31.7905 25.6935 31.7905C25.8387 31.7905 25.9838 31.7905 26.0564 31.7905H26.129C26.129 31.7905 26.2016 31.7905 26.129 31.8631C26.129 31.8631 26.129 31.8631 26.129 31.9357C26.129 31.9357 26.129 31.9357 26.0564 31.9357C25.9838 31.9357 25.8387 31.9357 25.7661 31.9357C25.6209 31.9357 25.5484 32.0083 25.4758 32.0083L25.4032 32.0809C25.4032 32.0809 25.4032 32.1534 25.3306 32.1534C25.3306 32.1534 25.258 32.1534 25.1855 32.1534V32.0809Z" fill="#DCFFFC"/>
<path d="M25.6934 33.3871C25.766 33.3146 25.8386 33.3146 25.9837 33.242C26.0563 33.1694 26.1289 33.1694 26.274 33.0968C26.274 33.0968 26.3466 33.0968 26.3466 33.0242H26.4192C26.4918 33.0242 26.5644 32.9517 26.6369 32.9517C26.7095 32.9517 26.7821 32.9517 26.8547 32.9517C26.8547 32.9517 26.9273 32.9517 26.9273 33.0242V33.0968V33.1694C26.9273 33.1694 26.9273 33.1694 26.8547 33.1694H26.7821H26.7095C26.6369 33.1694 26.6369 33.1694 26.5644 33.1694C26.4918 33.1694 26.4918 33.1694 26.4192 33.242C26.3466 33.242 26.274 33.3146 26.274 33.3871C26.274 33.4597 26.274 33.5323 26.274 33.6049C26.3466 33.6775 26.4192 33.6775 26.4918 33.75C26.5644 33.75 26.6369 33.75 26.7095 33.75C26.7821 33.75 26.8547 33.75 26.9998 33.6775C27.0724 33.6775 27.145 33.6049 27.2176 33.6049C27.2902 33.6049 27.3627 33.5323 27.4353 33.5323C27.5079 33.5323 27.5805 33.4597 27.5805 33.4597H27.6531V33.5323C27.6531 33.5323 27.6531 33.6049 27.5805 33.6049C27.5079 33.6049 27.5079 33.6049 27.5079 33.6049C27.3627 33.6775 27.2176 33.75 27.0724 33.8226C26.9273 33.8952 26.7821 33.8952 26.5644 33.8952C26.4918 33.8952 26.4192 33.8952 26.3466 33.8226C26.274 33.8226 26.2015 33.75 26.2015 33.6775C26.1289 33.6049 26.1289 33.6049 26.1289 33.5323C26.1289 33.4597 26.2015 33.3871 26.2015 33.3146C26.2015 33.3146 26.1289 33.3871 26.0563 33.3871C25.9837 33.3871 25.9837 33.4597 25.9111 33.4597C25.9111 33.4597 25.8385 33.4597 25.8385 33.5323H25.766C25.6934 33.5323 25.6934 33.4597 25.6934 33.3871C25.6208 33.3871 25.6934 33.3871 25.6934 33.3871Z" fill="#DCFFFC"/>
<path d="M25.4031 1.08849C25.4031 1.30623 25.258 1.45139 25.0402 1.45139H19.9596C19.7418 1.45139 19.5967 1.30623 19.5967 1.08849C19.5967 0.870747 19.7418 0.725586 19.9596 0.725586H25.0402C25.258 0.725586 25.4031 0.870747 25.4031 1.08849Z" fill="#3A8484"/>
</g>
<defs>
<clipPath id="clip0_608_658">
<rect width="45" height="45" fill="white"/>
</clipPath>
</defs>
</svg>
