<svg width="45" height="45" viewBox="0 0 45 45" fill="none" xmlns="http://www.w3.org/2000/svg">
<g clip-path="url(#clip0_608_571)">
<path d="M35.302 13.0644V12.9192C34.5762 11.6854 33.3423 10.8144 31.8181 10.7418L27.8262 8.34665C27.681 8.12891 27.6084 7.98374 26.8826 7.91116V3.62891H18.1729V7.91116C17.4471 7.91116 17.3746 8.05633 17.1568 8.34665L13.2375 10.7418C11.7859 10.8144 10.4794 11.7579 9.75359 12.9918L9.68101 13.0644C9.31811 13.7902 9.39069 14.2983 9.39069 15.0966V40.7902C9.39069 43.1854 10.9875 44.9999 13.3826 44.9999H31.4552C33.8504 44.9999 35.4471 43.1854 35.4471 40.7902V15.0966C35.5923 14.2983 35.7375 13.7902 35.302 13.0644Z" fill="#F2E197"/>
<path d="M31.6003 44.9999C33.9954 44.9999 35.5922 43.1854 35.5922 40.7902V15.0966C35.5922 14.2983 35.7374 13.7176 35.3019 12.9918C34.5761 11.7579 33.3422 10.887 31.818 10.8144L27.8261 8.41923C27.6809 8.12891 27.6083 7.98374 26.8825 7.91116V3.62891H18.1729V7.91116C17.4471 7.91116 17.3745 8.05633 17.1567 8.34665L13.1648 10.7418" fill="#DBC772"/>
<path d="M35.5921 15.2418C35.5921 14.4434 35.6647 13.645 35.3018 12.9192C34.576 11.6854 33.3421 10.8144 31.8179 10.7418L27.826 8.34665C27.6809 8.12891 27.6083 7.98374 26.8825 7.91116V3.62891H18.1728V7.91116C17.447 7.91116 17.3744 8.05633 17.1567 8.34665L13.2373 10.8144" fill="#C1AD56"/>
<path d="M26.8825 3.62891H18.1729V7.98375H26.8825V3.62891Z" fill="#190D0D"/>
<path d="M9.46313 21.0483V40.7903C9.46313 43.1854 11.0599 45 13.4551 45H31.5277C33.9228 45 35.5196 43.1854 35.5196 40.7903V21.0483H9.46313Z" fill="#396624"/>
<path d="M31.6002 45C33.9954 45 35.5922 43.1854 35.5922 40.7903V21.0483H9.46313" fill="#396624"/>
<path d="M31.2372 17.4194H13.8179V37.0162H31.2372V17.4194Z" fill="#D63834"/>
<path d="M27.6083 3.48387C27.6083 3.99194 27.2454 4.35484 26.3019 4.35484H18.7535C17.8099 4.35484 17.447 3.99194 17.447 3.48387V0.870968C17.447 0.290323 17.8099 0 18.7535 0H26.3744C27.2454 0 27.6083 0.290323 27.6083 0.870968V3.48387Z" fill="#3D2525"/>
<path d="M35.5922 20.6857C35.5922 20.9034 35.447 21.0486 35.2293 21.0486H9.82604C9.6083 21.0486 9.46313 20.9034 9.46313 20.6857C9.46313 20.4679 9.6083 20.3228 9.82604 20.3228H35.2293C35.447 20.3228 35.5922 20.4679 35.5922 20.6857Z" fill="#5A973E"/>
<path d="M31.2372 17.4194H13.8179V37.0162H31.2372V17.4194Z" fill="#3D2525"/>
<path d="M13.8179 17.4194H31.2372V37.0162" fill="#190D0D"/>
<path d="M31.2372 38.4678H13.8179V40.6452H31.2372V38.4678Z" fill="#3D2525"/>
<path d="M13.8179 38.4678H31.2372V40.6452" fill="#190D0D"/>
<path d="M11.6406 39.4839C11.6406 39.7742 11.568 39.992 11.2777 39.992C10.9874 39.992 10.9148 39.7742 10.9148 39.4839V23.2258C10.9148 22.9355 10.9874 22.7178 11.2777 22.7178C11.568 22.7178 11.6406 22.9355 11.6406 23.2258V39.4839Z" fill="#5A973E"/>
<path d="M11.6406 19.6695C11.6406 19.7421 11.568 19.8147 11.2777 19.8147C10.9874 19.8147 10.9148 19.7421 10.9148 19.6695V13.7179C10.9148 13.6453 10.9874 13.5728 11.2777 13.5728C11.568 13.5728 11.6406 13.6453 11.6406 13.7179V19.6695Z" fill="white"/>
<path d="M22.5276 22.355C24.7323 22.355 26.5195 20.5677 26.5195 18.363C26.5195 16.1583 24.7323 14.3711 22.5276 14.3711C20.3229 14.3711 18.5356 16.1583 18.5356 18.363C18.5356 20.5677 20.3229 22.355 22.5276 22.355Z" fill="#190D0D"/>
<path d="M27.6083 2.90332H17.447V3.62913H27.6083V2.90332Z" fill="#396624"/>
<path d="M26.8825 1.08849C26.8825 1.23365 26.7374 1.45139 26.5196 1.45139H18.5358C18.318 1.45139 18.1729 1.23365 18.1729 1.08849C18.1729 0.943328 18.318 0.725586 18.5358 0.725586H26.5922C26.7374 0.725586 26.8825 0.943328 26.8825 1.08849Z" fill="#284619"/>
<g clip-path="url(#clip1_608_571)">
<path d="M21.8959 25.9331C21.9045 25.9416 21.908 25.9623 21.9237 25.9509C21.9394 25.9395 21.9572 25.9173 21.9629 25.9123C21.9686 25.9074 21.9657 25.8988 21.9607 25.8889C21.9558 25.8788 21.9486 25.8739 21.9387 25.8696C21.9287 25.8653 21.9094 25.8724 21.9058 25.866C21.9023 25.8595 21.9016 25.8503 21.8916 25.8496C21.8816 25.849 21.8723 25.8433 21.8638 25.8539C21.8552 25.8646 21.8424 25.8611 21.8402 25.876C21.8381 25.891 21.8367 25.9081 21.8424 25.9115C21.8481 25.9151 21.8581 25.9252 21.8695 25.9287C21.881 25.9323 21.8874 25.9245 21.8959 25.9331ZM21.0684 25.7962C21.0684 25.7962 21.1112 25.8418 21.1568 25.8475C21.2024 25.8532 21.2452 25.836 21.2594 25.8447C21.2737 25.8532 21.2794 25.8761 21.3022 25.8704C21.3251 25.8646 21.345 25.8332 21.345 25.8332C21.345 25.8332 21.3165 25.8133 21.2851 25.8105C21.2537 25.8076 21.2138 25.8019 21.1939 25.7848C21.1739 25.7677 21.0571 25.6793 21.0428 25.6537C21.0285 25.628 20.9857 25.5824 20.9857 25.5824C20.9857 25.5824 20.9629 25.5481 20.9372 25.5453C20.9116 25.5424 20.8746 25.5567 20.8859 25.5738C20.8973 25.591 20.9344 25.6423 20.9344 25.6423L21.0057 25.7392L21.0684 25.7962ZM22.4684 27.487C22.494 27.4898 22.6793 27.4955 22.7421 27.4812C22.8048 27.467 22.839 27.4555 22.8618 27.4471C22.8846 27.4385 22.9017 27.4499 22.8961 27.4099C22.8903 27.37 22.8475 27.3529 22.8162 27.3415C22.7848 27.33 22.7164 27.3187 22.6908 27.3158C22.6651 27.313 22.4171 27.3158 22.3999 27.3215C22.3828 27.3272 22.3258 27.3557 22.303 27.3614C22.2802 27.3672 22.2431 27.3786 22.2403 27.3985C22.2374 27.4186 22.2431 27.4642 22.2717 27.4726C22.3002 27.4812 22.3943 27.487 22.3943 27.487C22.3943 27.487 22.4427 27.4841 22.4684 27.487ZM21.7612 27.4784C21.7612 27.4784 21.7983 27.5099 21.7926 27.621C21.7869 27.7322 21.7669 27.7749 21.7669 27.8177C21.7669 27.8606 21.7584 27.9974 21.7584 27.9974C21.7584 27.9974 21.7498 28.12 21.7298 28.0715C21.7099 28.023 21.7127 27.986 21.707 27.9204C21.7013 27.8548 21.6899 27.6153 21.6985 27.5782C21.707 27.5411 21.7355 27.4814 21.7355 27.4814L21.7612 27.4784ZM21.9304 28.9202L21.9247 28.4999C21.9217 28.4959 21.901 28.4698 21.8875 28.4698C21.8824 28.4698 21.879 28.474 21.8772 28.4824C21.8687 28.5218 21.8545 28.6492 21.8544 28.6505C21.8537 28.6712 21.8478 28.8545 21.8187 28.8604C21.8084 28.8626 21.798 28.8638 21.7876 28.8639C21.7537 28.8639 21.7365 28.8477 21.7365 28.8156C21.7365 28.7819 21.741 28.7183 21.745 28.6623C21.7475 28.6281 21.7498 28.5958 21.7508 28.5733C21.7523 28.5414 21.7701 28.441 21.7873 28.3439C21.8024 28.2584 21.8181 28.17 21.8221 28.1312C21.8252 28.1006 21.8292 28.0496 21.8334 27.9957C21.8406 27.9023 21.8481 27.8058 21.8535 27.7859C21.8591 27.7654 21.8773 27.6706 21.8893 27.6079C21.8961 27.5729 21.901 27.5475 21.902 27.5436C21.9026 27.5409 21.902 27.5348 21.9013 27.5281C21.9 27.5148 21.8984 27.4982 21.9047 27.491C21.9089 27.4864 21.9154 27.4863 21.9246 27.4909C21.96 27.5086 21.9715 27.5423 21.9827 27.6064C21.9902 27.6498 21.984 27.7075 21.979 27.7539C21.9764 27.7783 21.9742 27.7994 21.9742 27.8148C21.9742 27.8385 21.9681 27.8887 21.9622 27.9374C21.9566 27.9833 21.9514 28.0266 21.9514 28.0458C21.9514 28.068 21.9505 28.1114 21.9497 28.1496C21.9491 28.1811 21.9485 28.2083 21.9485 28.2197L21.9485 28.2286C21.9478 28.3227 21.9532 28.3727 21.9645 28.3776C21.9686 28.3794 21.9729 28.3825 21.9769 28.3856C21.9831 28.3902 21.9896 28.3949 21.9955 28.3949C22.0069 28.3949 22.0164 28.3767 22.0246 28.339C22.0381 28.2772 22.0464 28.1857 22.053 28.112C22.0562 28.0769 22.0589 28.0467 22.0616 28.0255L22.064 28.0071C22.074 27.9292 22.0949 27.7671 22.116 27.7171C22.1342 27.6738 22.1628 27.6233 22.1834 27.6233C22.1872 27.6233 22.1905 27.6249 22.1934 27.6281C22.2115 27.6493 22.2164 27.8166 22.2137 27.8349C22.2127 27.8415 22.2131 27.8742 22.2135 27.9157C22.2144 28.0005 22.2156 28.1164 22.2079 28.1431C22.1967 28.1825 22.1881 28.2561 22.188 28.2568L22.1876 28.2607L22.1847 28.258C22.1847 28.2579 22.179 28.2525 22.1627 28.247C22.161 28.2464 22.1591 28.2458 22.157 28.2449C22.1487 28.242 22.1385 28.2383 22.1294 28.2383C22.1151 28.2383 22.1082 28.248 22.1082 28.268C22.1082 28.3162 22.0699 28.4783 22.0682 28.4851C22.0677 28.4931 22.054 28.6878 22.0483 28.7189C22.0427 28.7499 22.0201 28.9139 22.0198 28.9156L22.0195 28.9171L22.018 28.9172L21.9304 28.9202ZM22.1205 28.8499C22.1205 28.8499 22.1262 28.9411 22.149 28.9611C22.1718 28.9811 22.1975 29.0154 22.2117 28.9896C22.226 28.9639 22.2318 28.753 22.2318 28.753C22.2318 28.753 22.2517 28.5448 22.2488 28.5277C22.246 28.5106 22.2403 28.4677 22.2203 28.482C22.2004 28.4963 22.169 28.5305 22.1547 28.5676C22.1405 28.6047 22.1433 28.6275 22.1348 28.6617C22.1262 28.696 22.1233 28.7757 22.1233 28.7872C22.1233 28.7985 22.1205 28.8499 22.1205 28.8499ZM22.4085 28.3908C22.4085 28.3908 22.3942 28.6047 22.3885 28.6446C22.3828 28.6845 22.3657 28.7559 22.3685 28.79C22.3713 28.8243 22.3856 28.8927 22.3742 28.9127C22.3628 28.9326 22.3257 28.9583 22.3143 28.9412C22.3029 28.9241 22.2858 28.8443 22.2858 28.8443C22.2858 28.8443 22.2972 28.6019 22.3029 28.5363C22.3086 28.4708 22.3086 28.2027 22.3086 28.1829C22.3086 28.1629 22.2886 28.0175 22.2886 28.0061C22.2886 27.9947 22.3057 27.9148 22.3057 27.9148C22.3057 27.9148 22.3314 27.8379 22.3428 27.8806C22.3542 27.9235 22.3799 27.989 22.3799 27.989C22.3799 27.989 22.4113 28.0973 22.4113 28.1344C22.4113 28.1714 22.4085 28.3908 22.4085 28.3908ZM22.5425 27.812C22.5425 27.812 22.571 27.9403 22.5767 28.0259C22.5824 28.1115 22.5824 28.2711 22.5795 28.2854C22.5767 28.2997 22.5824 28.4622 22.5824 28.4622C22.5824 28.4622 22.5653 28.5449 22.5624 28.5677C22.5596 28.5905 22.5453 28.7131 22.5511 28.7359C22.5567 28.7588 22.5767 28.8244 22.5738 28.8414C22.5709 28.8586 22.5596 28.8928 22.5253 28.8785C22.4911 28.8643 22.4569 28.8471 22.454 28.8129C22.4512 28.7787 22.4483 28.7045 22.4569 28.676C22.4655 28.6475 22.4769 28.4451 22.4797 28.4309C22.4826 28.4167 22.4911 28.3454 22.494 28.2797C22.4968 28.2141 22.4912 28.0602 22.4826 28.026C22.474 27.9917 22.4569 27.909 22.4598 27.8862C22.4626 27.8634 22.4455 27.7779 22.4512 27.755C22.4569 27.7322 22.494 27.6837 22.5082 27.7151C22.5225 27.7464 22.5425 27.812 22.5425 27.812ZM22.7192 27.7265C22.7278 27.7493 22.7392 27.7778 22.7392 27.7949C22.7392 27.812 22.7535 27.8291 22.7706 27.8035C22.7877 27.7778 22.7935 27.7607 22.7962 27.7436C22.7991 27.7265 22.7991 27.658 22.8133 27.6866C22.8276 27.715 22.8304 27.7635 22.8304 27.7635L22.8447 27.9832C22.8447 27.9832 22.8504 28.0515 22.859 28.1057C22.8675 28.16 22.8817 28.2711 22.8817 28.2711C22.8817 28.2711 22.8988 28.5192 22.9017 28.5334C22.9045 28.5476 22.9159 28.6816 22.9159 28.6816C22.9159 28.6816 22.9159 28.8328 22.9045 28.8442C22.8932 28.8557 22.8846 28.8614 22.8647 28.8499C22.8447 28.8385 22.8333 28.753 22.8333 28.7102C22.8333 28.6674 22.8361 28.5562 22.8361 28.5562C22.8361 28.5562 22.8133 28.5419 22.8161 28.4536C22.819 28.3652 22.8104 28.3168 22.8104 28.3168L22.7962 28.2911C22.7962 28.2911 22.7904 28.1912 22.7847 28.1798C22.7791 28.1684 22.7733 28.1514 22.7733 28.1514L22.7677 28.0772C22.7677 28.0772 22.7363 28.0458 22.742 28.0772C22.7477 28.1086 22.7391 28.2683 22.7391 28.2683C22.7391 28.2683 22.7534 28.2968 22.7534 28.3367C22.7534 28.3767 22.7448 28.4081 22.7391 28.4394C22.7334 28.4708 22.7477 28.6076 22.7477 28.6076C22.7477 28.6076 22.7391 28.6874 22.7391 28.7017V28.8101C22.7391 28.8101 22.722 28.8757 22.7078 28.8814C22.6935 28.8871 22.6735 28.9098 22.6565 28.89C22.6393 28.87 22.6279 28.8443 22.6365 28.8015C22.6451 28.7587 22.6565 28.4337 22.6565 28.4337C22.6565 28.4337 22.665 28.1115 22.6621 28.1C22.6593 28.0887 22.6478 27.8406 22.6478 27.8406C22.6478 27.8406 22.6194 27.7351 22.6279 27.718C22.6365 27.7008 22.6765 27.6808 22.6935 27.6866C22.7107 27.6923 22.7107 27.7037 22.7192 27.7265ZM23.0044 27.5754C23.0301 27.6096 23.0671 27.6951 23.0614 27.7436C23.0557 27.7921 23.107 27.9374 23.1128 27.9746C23.1184 28.0117 23.1469 28.1371 23.1441 28.1599C23.1413 28.1828 23.1698 28.3652 23.1698 28.3652L23.204 28.4336L23.2183 28.6646C23.2183 28.6646 23.204 28.736 23.1841 28.7416C23.1641 28.7473 23.1271 28.7502 23.1213 28.7388C23.1156 28.7274 23.1099 28.5734 23.1128 28.5563C23.1156 28.5392 23.1099 28.4822 23.0985 28.4594C23.0871 28.4365 23.0728 28.3225 23.0671 28.3083C23.0614 28.294 23.0614 28.1372 23.0529 28.1201C23.0443 28.1029 22.9587 27.7608 22.9587 27.7608C22.9587 27.7608 22.953 27.5983 22.9758 27.5812C22.9986 27.564 22.9787 27.5411 23.0044 27.5754ZM23.2267 27.7898C23.2267 27.7898 23.2403 27.7891 23.2493 27.7932C23.2735 27.8042 23.3089 27.8379 23.3152 27.8775C23.3237 27.9318 23.3266 28.0886 23.3266 28.0886C23.3266 28.0886 23.3693 28.2625 23.3636 28.3196C23.3579 28.3766 23.355 28.4365 23.355 28.4365C23.355 28.4365 23.3294 28.4451 23.3208 28.3766C23.3122 28.3081 23.2837 28.1655 23.2837 28.1655C23.2837 28.1655 23.2496 28.0116 23.2267 27.966C23.2039 27.9204 23.184 27.9204 23.1896 27.8748C23.1933 27.8455 23.19 27.8051 23.1988 27.7913C23.2039 27.7835 23.2267 27.7898 23.2267 27.7898ZM23.2524 27.5639C23.2524 27.5639 23.2381 27.6209 23.2838 27.6039C23.3294 27.5868 23.3294 27.5553 23.3408 27.4983C23.3522 27.4413 23.3522 27.3843 23.3237 27.3814C23.2952 27.3786 23.2838 27.3871 23.281 27.4042C23.2781 27.4213 23.281 27.4726 23.2724 27.4869C23.2638 27.5013 23.2524 27.5639 23.2524 27.5639ZM23.3693 27.0707C23.3693 27.0707 23.4636 27.0764 23.4634 27.2018C23.4634 27.3273 23.4777 27.3929 23.4777 27.3929L23.4377 27.4927C23.4377 27.4927 23.4035 27.4357 23.3978 27.3986C23.3921 27.3615 23.3778 27.2759 23.3778 27.2503C23.3779 27.2246 23.3693 27.0707 23.3693 27.0707ZM23.5284 26.3918C23.5284 26.3918 23.5297 26.369 23.54 26.3616C23.5642 26.3441 23.5723 26.394 23.5742 26.4141C23.5771 26.4453 23.5784 26.5356 23.57 26.5788C23.5657 26.601 23.5593 26.6301 23.5555 26.6597C23.5517 26.6893 23.5505 26.7205 23.5573 26.7463C23.5637 26.7707 23.5789 26.8096 23.5938 26.8458C23.6086 26.8816 23.6232 26.9148 23.629 26.9283C23.6403 26.9552 23.6683 27.0256 23.6768 27.1114C23.6812 27.155 23.6876 27.1965 23.6924 27.2327C23.6972 27.269 23.7003 27.2991 23.6982 27.321C23.6969 27.332 23.6942 27.3429 23.6901 27.3533C23.686 27.3648 23.6812 27.3765 23.6773 27.3885C23.6691 27.4132 23.6643 27.4406 23.6774 27.4715C23.6899 27.5008 23.7034 27.5209 23.7161 27.537C23.7283 27.5523 23.7396 27.5636 23.7481 27.5757C23.7644 27.5987 23.8226 27.7459 23.8324 27.7869C23.8424 27.8282 23.898 28.0419 23.9123 28.1131C23.9265 28.1847 23.9463 28.2978 23.9463 28.3369C23.9463 28.3566 23.9456 28.384 23.9428 28.4076C23.9414 28.419 23.9396 28.4295 23.9371 28.4376C23.9343 28.4462 23.9317 28.4492 23.9306 28.4498C23.9168 28.4566 23.8811 28.4761 23.8669 28.4838L23.8603 28.4749C23.8603 28.4749 23.8318 28.4379 23.8118 28.4095C23.794 28.384 23.8129 28.1921 23.8132 28.1894L23.8016 28.0952C23.8016 28.0952 23.7898 28.1175 23.789 28.1186C23.7878 28.1205 23.7864 28.1221 23.7848 28.1237C23.7802 28.1285 23.7741 28.1316 23.7674 28.1324C23.76 28.1336 23.761 28.0933 23.7618 28.0838L23.7189 27.9074C23.716 27.8959 23.6731 27.7615 23.6646 27.7357C23.6598 27.7215 23.6527 27.7144 23.6445 27.7125C23.6413 27.7117 23.638 27.7118 23.6348 27.7127C23.6322 27.7137 23.6298 27.715 23.6274 27.7165C23.6274 27.7165 23.6127 27.8366 23.6071 27.8679C23.604 27.8849 23.6063 27.9203 23.6095 27.9531C23.6127 27.9863 23.617 28.0185 23.6184 28.0299C23.6197 28.0404 23.6184 28.0736 23.6148 28.1066C23.6133 28.1214 23.6111 28.1362 23.6081 28.1509C23.6069 28.1568 23.6054 28.1619 23.604 28.1659C23.6024 28.1701 23.6013 28.1713 23.6013 28.1713C23.5998 28.1701 23.5979 28.1669 23.5957 28.1609C23.5914 28.1495 23.5879 28.1332 23.585 28.1187C23.5792 28.0901 23.5535 27.9357 23.5478 27.9156C23.545 27.9058 23.5401 27.8734 23.5352 27.8389C23.5303 27.804 23.5252 27.7669 23.5224 27.7484C23.5169 27.7127 23.531 27.5512 23.5393 27.5207C23.5435 27.5054 23.5477 27.495 23.5528 27.4833C23.5582 27.471 23.5647 27.4575 23.5732 27.436C23.5911 27.3914 23.5909 27.2842 23.588 27.2528C23.5851 27.2213 23.5593 27.0976 23.5506 27.0689C23.5421 27.0404 23.4993 26.9322 23.4937 26.9122C23.4885 26.894 23.4939 26.7616 23.4968 26.7355C23.4982 26.7226 23.5018 26.6719 23.5057 26.6223C23.5096 26.5718 23.5139 26.5248 23.5163 26.5175C23.5195 26.5078 23.5224 26.4772 23.5245 26.4508C23.5266 26.4232 23.5284 26.3918 23.5284 26.3918Z" fill="white"/>
<path d="M23.1924 26.5123C23.1924 26.5123 23.3032 26.4313 23.3394 26.3871C23.3757 26.3429 23.412 26.2823 23.4161 26.2582C23.42 26.2341 23.4241 26.1756 23.3677 26.2199C23.3112 26.2643 23.2589 26.2823 23.2448 26.2944C23.2306 26.3066 23.2186 26.3429 23.2125 26.3528C23.2065 26.363 23.1763 26.4801 23.1763 26.4801L23.1924 26.5123ZM21.9422 26.3038C21.9422 26.3038 21.8937 26.3448 21.8595 26.3327C21.8253 26.3205 21.7306 26.252 21.7164 26.228C21.7024 26.2038 21.6839 26.1373 21.6718 26.1473C21.6646 26.1533 21.6494 26.1707 21.6453 26.1892C21.6424 26.2022 21.6484 26.2143 21.6516 26.2299C21.6597 26.2682 21.6608 26.3613 21.6992 26.3919C21.7374 26.4224 21.7722 26.4854 21.8184 26.4794C21.8648 26.4733 21.9302 26.4517 21.9342 26.4396C21.9383 26.4275 21.9422 26.3038 21.9422 26.3038ZM21.6983 26.0151L21.6997 26.0263C21.7008 26.0342 21.7021 26.041 21.7034 26.0454C21.7085 26.0626 21.7274 26.1059 21.7627 26.1288C21.7707 26.1339 21.7784 26.14 21.7861 26.1463C21.794 26.1528 21.8019 26.1594 21.8099 26.1657C21.8262 26.1785 21.8442 26.1904 21.8656 26.1958C21.8864 26.2009 21.9243 26.203 21.9563 26.2038C21.9817 26.2045 22.0039 26.2044 22.0124 26.2043C22.0196 26.2129 22.0424 26.2408 22.0557 26.2662C22.0638 26.2815 22.0701 26.2988 22.0746 26.3123C22.0791 26.3258 22.0818 26.3367 22.0818 26.3367L22.1081 26.3771C22.1076 26.3798 22.1088 26.3827 22.1148 26.3845C22.1165 26.3849 22.1182 26.385 22.1198 26.3847L22.1251 26.3836C22.1613 26.3769 22.194 26.3331 22.1895 26.2948C22.1855 26.2605 22.1471 26.0829 22.141 26.0543C22.1395 26.0472 22.1345 26.033 22.1275 26.0152H22.3059C22.3094 26.0671 22.3428 26.141 22.3428 26.141C22.3428 26.141 22.3628 26.1553 22.3998 26.1582C22.4368 26.161 22.3941 26.1838 22.3827 26.2124C22.3713 26.2408 22.3713 26.2894 22.3884 26.3008C22.4055 26.3122 22.4055 26.3378 22.4055 26.3378C22.4055 26.3378 22.377 26.3778 22.3685 26.4035C22.3599 26.4292 22.4255 26.4577 22.4454 26.4491C22.4654 26.4406 22.5081 26.3351 22.511 26.1726C22.5129 26.0626 22.5214 26.0296 22.5382 26.0154H22.5882C22.5924 26.0389 22.5823 26.0832 22.5823 26.0984C22.5823 26.1212 22.588 26.258 22.588 26.258C22.588 26.258 22.5937 26.3892 22.5994 26.4092C22.6051 26.4291 22.6336 26.4377 22.6678 26.4577C22.702 26.4777 22.7163 26.4491 22.7163 26.4491C22.7163 26.4491 22.7249 26.4176 22.7077 26.4063C22.6907 26.3948 22.6735 26.3691 22.6706 26.3493C22.6678 26.3293 22.6779 26.3064 22.6779 26.3064C22.6779 26.3064 22.7323 26.2992 22.7302 26.2852C22.727 26.2638 22.6964 26.2294 22.6934 26.2009C22.6906 26.1724 22.722 26.1753 22.722 26.1753C22.7391 26.1724 22.7562 26.1096 22.779 26.0583C22.786 26.0417 22.7968 26.027 22.8105 26.0152H22.983C22.954 26.0868 22.9065 26.2262 22.8964 26.2529C22.8847 26.2839 22.8984 26.4316 22.8984 26.4316L22.9487 26.4375C22.9487 26.4375 22.9565 26.3848 22.9838 26.3305C23.0109 26.2762 23.0788 26.1908 23.0788 26.1908C23.0788 26.1908 23.2207 26.1947 23.2459 26.1811C23.2711 26.1675 23.3486 26.1191 23.3661 26.0841C23.3792 26.058 23.4021 26.0283 23.4128 26.0151L23.5851 26.0152C23.5845 26.0328 23.5845 26.0454 23.5845 26.0454C23.5845 26.0454 23.5759 26.0497 23.5973 26.0497C23.6482 26.0544 23.7497 26.035 23.8091 26.015L23.9343 26.0152C23.9307 26.021 23.9277 26.0273 23.9255 26.0338C23.9236 26.0406 23.9143 26.049 23.9351 26.0505C23.9624 26.0537 24.0338 26.0337 24.0772 26.0152L24.2459 26.0152C24.211 26.0452 24.1754 26.077 24.1551 26.0893C24.1046 26.1202 23.9268 26.1886 23.8705 26.2012C23.8135 26.214 23.7468 26.2231 23.6992 26.2231C23.6488 26.2231 23.5545 26.2116 23.5451 26.1808C23.5357 26.1501 23.5348 26.1485 23.5348 26.1452H23.4824C23.4824 26.1452 23.4937 26.298 23.4739 26.3922C23.4609 26.4537 23.4418 26.5211 23.4231 26.5452C23.4126 26.5589 23.4025 26.5906 23.3849 26.6269C23.3774 26.6424 23.3486 26.7246 23.3049 26.7825C23.2461 26.8603 23.1687 26.9162 23.1578 26.9137C23.1483 26.9116 23.1263 26.8976 23.1145 26.881C23.1089 26.873 23.1033 26.8647 23.098 26.857C23.0931 26.8496 23.0877 26.8427 23.0816 26.8363C23.0571 26.8117 23.0388 26.8262 23.0347 26.8428C23.0333 26.8485 23.0357 26.8553 23.038 26.8604C23.0405 26.8659 23.0441 26.8724 23.048 26.8788L23.0592 26.897C23.0627 26.9028 23.0652 26.9073 23.0663 26.9102C23.072 26.9244 23.1001 27.0061 23.1029 27.0419C23.1057 27.079 23.1167 27.1602 23.0977 27.2009C23.0785 27.2421 23.0176 27.2823 22.9921 27.2876C22.9655 27.2929 22.8988 27.282 22.8583 27.2733C22.8396 27.2689 22.8217 27.2616 22.8052 27.2517C22.7886 27.2422 22.7738 27.2317 22.7611 27.2231C22.7582 27.2169 22.7606 27.2138 22.7659 27.2101C22.771 27.2065 22.7772 27.2032 22.7831 27.2002L22.7974 27.1936C22.8085 27.188 22.8786 27.1473 22.897 27.1228C22.9073 27.109 22.9092 27.0874 22.9089 27.0674C22.9085 27.0473 22.9057 27.0264 22.9042 27.0119C22.9012 26.9824 22.8782 26.9046 22.8663 26.881C22.8583 26.8649 22.8427 26.8646 22.8322 26.867C22.8275 26.8681 22.8229 26.8698 22.8185 26.8719L22.8133 26.8747C22.8054 26.878 22.7168 26.9143 22.7065 26.9168C22.7021 26.9179 22.637 26.9175 22.5663 26.9163C22.4968 26.9151 22.4247 26.9137 22.4091 26.9137C22.3796 26.9137 22.3127 26.8888 22.2938 26.8753C22.2803 26.8656 22.2666 26.869 22.2561 26.8767C22.2458 26.884 22.2374 26.8958 22.2314 26.9062C22.228 26.9122 22.2253 26.9214 22.2229 26.9314C22.2205 26.9414 22.2183 26.9533 22.216 26.9656C22.2112 26.9902 22.2064 27.0147 22.1998 27.0294C22.1909 27.0489 22.2015 27.0794 22.213 27.1035C22.2223 27.1234 22.2334 27.1423 22.2463 27.16C22.2533 27.1687 22.2703 27.1773 22.2863 27.1852L22.3118 27.1977C22.3199 27.2017 22.3274 27.2059 22.3336 27.21C22.3493 27.2204 22.333 27.2484 22.3274 27.2569C22.3104 27.2616 22.2154 27.2873 22.1725 27.2873C22.1267 27.2873 22.0743 27.2572 22.0496 27.2325C22.0262 27.2091 22.0091 27.1238 22.0062 27.0861C22.0049 27.0694 22.0114 27.0452 22.0196 27.0223C22.0279 26.9996 22.037 26.9797 22.0398 26.9727C22.0466 26.9556 22.037 26.9012 22.0288 26.8628C22.0237 26.8387 22.0097 26.8347 21.9984 26.8506C21.9949 26.8554 21.9925 26.8761 21.9899 26.8817L21.9779 26.9095C21.9751 26.915 21.9536 26.9549 21.9462 26.9612C21.9423 26.9643 21.9368 26.9472 21.9292 26.9411C21.9252 26.9378 21.9208 26.9338 21.9156 26.9301C21.9094 26.9255 21.9026 26.922 21.8952 26.9197C21.871 26.9125 21.8324 26.8403 21.8145 26.7986C21.8059 26.7785 21.7938 26.7571 21.7827 26.7335C21.7718 26.7103 21.7621 26.6854 21.758 26.6579C21.7559 26.6437 21.7543 26.6312 21.7525 26.6207C21.751 26.6108 21.7486 26.6012 21.7451 26.5918C21.7381 26.5742 21.7264 26.5627 21.7046 26.5549C21.6793 26.546 21.6572 26.6421 21.6514 26.6665C21.6398 26.716 21.6435 26.8398 21.6435 26.9135C21.6435 26.9878 21.6459 26.9984 21.6516 27.0929C21.6556 27.1576 21.6515 27.2898 21.6395 27.3042C21.6302 27.3153 21.582 27.3065 21.5671 27.2946C21.5657 27.2935 21.5641 27.2909 21.5628 27.2842C21.5617 27.2754 21.5612 27.2666 21.5614 27.2577C21.5614 27.2348 21.5628 27.2034 21.5614 27.1634C21.5607 27.1438 21.5582 27.1303 21.5526 27.1237C21.5439 27.1131 21.5331 27.1201 21.5281 27.1251C21.5171 27.136 21.5067 27.1596 21.5037 27.1701C21.4979 27.1903 21.4859 27.2637 21.501 27.3059C21.5153 27.3462 21.5747 27.5415 21.5747 27.5942C21.5747 27.6485 21.6118 27.9828 21.6118 27.9828C21.612 28.0006 21.6087 28.3403 21.6156 28.404C21.6235 28.4755 21.5954 28.5974 21.5913 28.5914C21.5867 28.5847 21.5289 28.5938 21.5204 28.5797C21.5124 28.5663 21.5107 28.5591 21.5104 28.5502C21.5101 28.5397 21.5115 28.5276 21.5101 28.5061C21.5087 28.4856 21.5114 28.4606 21.5146 28.4382L21.5193 28.4079C21.5206 28.3987 21.5215 28.3914 21.5215 28.3868C21.5215 28.3694 21.5273 28.2858 21.5407 28.2592C21.549 28.2426 21.5478 28.1855 21.5454 28.1332C21.5429 28.0794 21.5387 28.0262 21.5387 28.0133C21.5387 27.9995 21.5277 27.9463 21.5171 27.8956C21.5118 27.87 21.5065 27.8445 21.5024 27.8242C21.4984 27.8034 21.4958 27.7892 21.4958 27.7852C21.4958 27.7644 21.4786 27.6605 21.458 27.6193C21.4504 27.6041 21.4381 27.6042 21.4301 27.6165C21.4245 27.6249 21.4196 27.64 21.4153 27.6559C21.4067 27.6885 21.3996 27.7307 21.3953 27.7492C21.3931 27.7586 21.3912 27.7774 21.3893 27.8016L21.3833 27.884C21.3787 27.9444 21.3723 28.0092 21.3612 28.0483C21.3497 28.0884 21.3404 28.1559 21.3317 28.2202C21.3274 28.2519 21.3127 28.3669 21.3085 28.3801C21.2922 28.4317 21.2441 28.4716 21.2223 28.4858L21.2002 28.4922C21.1889 28.4887 21.1574 28.4646 21.1689 28.4C21.1829 28.3217 21.2588 28.0199 21.2727 27.9696C21.2868 27.9192 21.3939 27.4583 21.4164 27.3518C21.4387 27.2456 21.4826 27.0064 21.5078 26.9254C21.5333 26.8432 21.5619 26.7111 21.5675 26.6188C21.5712 26.557 21.5754 26.483 21.5676 26.3478C21.564 26.2851 21.6102 26.2108 21.6168 26.1943C21.6181 26.1908 21.6187 26.1851 21.6191 26.1792C21.6195 26.173 21.6197 26.165 21.6198 26.1557C21.62 26.1376 21.6198 26.1148 21.6198 26.0921C21.6198 26.0699 21.62 26.0476 21.6211 26.0305C21.6214 26.0245 21.6218 26.0192 21.6224 26.0146L21.6983 26.0151ZM21.2811 26.3038L21.2848 26.3092L21.2913 26.319C21.293 26.3217 21.2954 26.3249 21.2979 26.3269L21.3062 26.33C21.3089 26.3306 21.3124 26.3311 21.3165 26.3317C21.3244 26.3327 21.3343 26.3336 21.3442 26.3344L21.3711 26.3366L21.3804 26.3376L21.3869 26.3408C21.3896 26.3432 21.3932 26.346 21.3996 26.3495C21.4043 26.3522 21.4187 26.3609 21.4328 26.3693C21.4467 26.3777 21.4612 26.3864 21.4659 26.3883C21.4697 26.3899 21.477 26.394 21.4842 26.3982C21.492 26.4027 21.4996 26.407 21.5034 26.4087C21.5091 26.4112 21.5692 26.465 21.5752 26.4717C21.5768 26.4735 21.5776 26.4803 21.574 26.4822C21.5614 26.4893 21.5569 26.4889 21.5457 26.4922C21.5291 26.4972 21.5197 26.5008 21.5024 26.5021C21.4555 26.5055 21.4069 26.4641 21.389 26.4614C21.3373 26.4533 21.1488 26.3678 21.0823 26.3296C21.0684 26.3215 21.0548 26.3129 21.0415 26.3038H21.2811Z" fill="white"/>
<path d="M22.4456 25.9726C22.4713 25.9641 22.4884 25.9526 22.5083 25.9213C22.5283 25.8899 22.554 25.8472 22.5512 25.8244C22.5483 25.8015 22.5426 25.7816 22.4998 25.8301C22.457 25.8786 22.4342 25.9043 22.4257 25.9327C22.4171 25.9612 22.3915 25.9926 22.4086 25.9897C22.4256 25.9869 22.42 25.9812 22.4456 25.9726ZM22.5884 26.015C22.5863 26.0031 22.5806 25.9964 22.5682 26.0011C22.5563 26.0058 22.5463 26.0082 22.5384 26.015H22.5884ZM21.4798 25.9726L21.4805 25.9677C21.4809 25.9654 21.4814 25.9636 21.4819 25.9621C21.4952 25.952 21.5337 25.9368 21.5342 25.9365L21.5402 25.9307C21.5421 25.9285 21.5441 25.9264 21.5463 25.9245C21.5502 25.9296 21.552 25.9435 21.5539 25.959L21.5556 25.9726H21.4798ZM24.3418 25.7574C24.2975 25.8031 24.2478 25.8526 24.2278 25.869C24.2084 25.8847 24.1694 25.9173 24.1278 25.9519C24.1198 25.9585 24.1116 25.9655 24.1034 25.9725H23.9346C23.9399 25.9703 23.9448 25.9681 23.9492 25.9658C23.989 25.946 24.1731 25.8248 24.2129 25.7814L24.235 25.7575L24.3418 25.7574ZM24.0864 25.7574C24.0658 25.7761 24.0448 25.7944 24.0234 25.8122C24.0161 25.8177 23.951 25.89 23.9166 25.9063C23.8823 25.9226 23.8117 25.9497 23.8045 25.9551C23.8009 25.9578 23.796 25.9651 23.7917 25.9726H23.6666C23.678 25.9689 23.6892 25.9642 23.6999 25.9587C23.7362 25.9388 23.7645 25.9332 23.7798 25.9216C23.799 25.907 23.824 25.876 23.8246 25.8625C23.8254 25.8489 23.829 25.8295 23.8147 25.8296C23.7985 25.8298 23.7763 25.8293 23.7763 25.8293C23.7654 25.8246 23.7776 25.8147 23.7905 25.8054C23.8033 25.7961 23.9095 25.7677 23.9231 25.7619C23.926 25.7606 23.9289 25.7591 23.9318 25.7575L24.0864 25.7574ZM23.4007 25.7574C23.4001 25.7666 23.3987 25.7764 23.3965 25.7872C23.3888 25.8259 23.3752 25.9016 23.3752 25.9016C23.3752 25.9016 23.336 25.9229 23.2953 25.9287C23.2546 25.9345 23.2759 25.9656 23.2759 25.9656L23.2702 25.9726L23.4424 25.9726C23.443 25.9555 23.444 25.9336 23.4462 25.9145C23.4504 25.876 23.4547 25.8946 23.462 25.8888C23.469 25.8831 23.4648 25.8432 23.469 25.8318C23.4733 25.8205 23.4803 25.8019 23.4918 25.7891C23.5032 25.7762 23.5103 25.7862 23.5289 25.7677C23.5318 25.7645 23.5344 25.7611 23.5367 25.7575L23.4007 25.7574ZM23.183 25.7574C23.2087 25.7905 23.2158 25.8182 23.2158 25.8182C23.2158 25.8182 23.2274 25.8493 23.2371 25.8221C23.2418 25.8092 23.2407 25.7826 23.2379 25.7574L23.183 25.7574ZM22.7306 25.7574C22.7304 25.7829 22.7297 25.8084 22.7287 25.8338C22.7267 25.8745 22.7209 25.9151 22.7073 25.9384C22.6992 25.9523 22.6838 25.9588 22.6679 25.9726H22.8404C22.8451 25.9612 22.8492 25.9515 22.8527 25.9443C22.8724 25.9036 22.9173 25.8093 22.9584 25.7573L22.7306 25.7574ZM22.0772 25.7574C22.0738 25.7656 22.0719 25.7705 22.0719 25.7705C22.0719 25.7705 22.0701 25.7656 22.0671 25.7573L21.8859 25.7574C21.901 25.7785 21.9107 25.799 21.915 25.8084C21.9224 25.8248 21.9631 25.9164 21.9849 25.9726H22.1633C22.1629 25.968 22.1629 25.9633 22.1631 25.9587C22.165 25.9253 22.1546 25.8239 22.1473 25.7574H22.0772ZM21.6015 25.7574C21.5929 25.7642 21.5847 25.7715 21.5769 25.7792L21.5661 25.7901L21.5498 25.7815C21.5392 25.7759 21.5259 25.7692 21.5208 25.768C21.5163 25.7669 21.5078 25.7621 21.5028 25.7592L21.5029 25.7575L21.6015 25.7574ZM20.5859 25.7574C20.5935 25.7611 20.6202 25.7733 20.6309 25.7776C20.633 25.7784 20.6351 25.7795 20.637 25.7806L20.6425 25.7844C20.6467 25.7873 20.6515 25.7907 20.6597 25.7946C20.6674 25.7982 20.6777 25.8042 20.6892 25.8092C20.7009 25.8143 20.7145 25.8192 20.7281 25.8198L20.7483 25.8208L20.7894 25.8212C20.7933 25.8212 20.7977 25.8204 20.8016 25.8197L20.8137 25.8173C20.8167 25.8167 20.8197 25.8165 20.8227 25.8167C20.8263 25.8206 20.8298 25.8238 20.8334 25.827C20.8372 25.8302 20.8419 25.8337 20.8468 25.8372C20.8562 25.8439 20.8663 25.8503 20.8719 25.8543C20.8767 25.8576 20.8812 25.8614 20.8853 25.8656C20.8608 25.8667 20.8364 25.8673 20.8119 25.8675C20.8099 25.8676 20.8016 25.8723 20.7962 25.8756C20.7904 25.8795 20.7859 25.885 20.7834 25.8915C20.7821 25.8943 20.7812 25.8973 20.7805 25.9004C20.78 25.903 20.7801 25.9057 20.7807 25.9083C20.7814 25.9109 20.7826 25.9133 20.7844 25.9153C20.7875 25.9188 20.7911 25.9232 20.7949 25.9273C20.799 25.9314 20.8039 25.9359 20.8095 25.9384C20.8125 25.9398 20.8168 25.9409 20.8209 25.9416C20.8251 25.9425 20.8299 25.9432 20.8349 25.9439C20.8442 25.9453 20.8537 25.9464 20.8589 25.9477C20.863 25.9487 20.8722 25.9535 20.8833 25.9609C20.8872 25.9636 20.8909 25.9678 20.8944 25.9726H20.6548C20.5759 25.9198 20.4457 25.82 20.3892 25.7575L20.5859 25.7574Z" fill="white"/>
<path d="M22.4399 25.7247C22.4656 25.7275 22.4941 25.7247 22.5083 25.7047C22.5226 25.6847 22.5682 25.6305 22.5311 25.6362C22.494 25.6419 22.4769 25.6249 22.4627 25.6477C22.4485 25.6705 22.4142 25.7218 22.4399 25.7247ZM22.2901 25.7999C22.2861 25.7645 22.2831 25.7389 22.2831 25.7389L22.2517 25.7275C22.2517 25.7275 22.2517 25.7389 22.2374 25.7646C22.2311 25.7761 22.2252 25.788 22.22 25.8L22.2901 25.7999ZM24.8017 25.5095C24.7608 25.5692 24.7209 25.6269 24.7152 25.6362C24.71 25.6446 24.6745 25.683 24.6343 25.7246L24.5274 25.7247C24.5649 25.6841 24.6086 25.636 24.6139 25.6222C24.6276 25.5867 24.6211 25.561 24.6211 25.561C24.6172 25.5541 24.6075 25.5567 24.6037 25.5496C24.5994 25.5417 24.5922 25.5321 24.6048 25.5267C24.6093 25.5247 24.624 25.5181 24.6416 25.5095L24.8017 25.5095ZM24.56 25.5095C24.5367 25.5437 24.4656 25.6307 24.453 25.6511C24.4455 25.6633 24.4114 25.6955 24.379 25.7246L24.2244 25.7247C24.2504 25.7108 24.3161 25.6715 24.3161 25.6715L24.3368 25.6531C24.3368 25.6531 24.3375 25.6195 24.3168 25.6159C24.2961 25.6124 24.2377 25.611 24.2377 25.611C24.2377 25.611 24.2271 25.579 24.2363 25.5747C24.2455 25.5704 24.3959 25.5169 24.4095 25.5112C24.4105 25.5108 24.4116 25.5103 24.4128 25.5097L24.56 25.5095ZM24.1407 25.5095C24.1476 25.5101 24.1537 25.5103 24.1596 25.5094L24.1407 25.5095ZM23.5621 25.5095C23.5639 25.5147 23.5661 25.52 23.5685 25.5252C23.5878 25.568 23.6639 25.642 23.6794 25.6652C23.6906 25.6821 23.6947 25.7009 23.6932 25.7247H23.8293C23.8539 25.6884 23.91 25.5785 23.9587 25.5095H23.7285C23.7093 25.5272 23.7023 25.5268 23.6849 25.5229C23.6766 25.5206 23.669 25.5159 23.6632 25.5096L23.5621 25.5095ZM23.2091 25.5095C23.2057 25.5167 23.2035 25.5213 23.2035 25.5213C23.2035 25.5213 23.1879 25.5757 23.1647 25.5834C23.1415 25.5911 23.1162 25.5795 23.1065 25.5679C23.0968 25.5562 23.0755 25.5523 23.0755 25.5523C23.0755 25.5523 23.0561 25.5523 23.0523 25.5699C23.0461 25.6021 23.0416 25.6345 23.0386 25.6672C23.0368 25.6943 23.0232 25.7156 23.0232 25.7156L23.0231 25.7246L23.2509 25.7247C23.2628 25.7095 23.2744 25.698 23.2849 25.6924C23.3318 25.6672 23.3822 25.64 23.4385 25.6866C23.4538 25.6992 23.466 25.7123 23.4755 25.7247H23.5303C23.5272 25.697 23.5219 25.6713 23.5199 25.6672C23.516 25.6594 23.4695 25.5776 23.4617 25.5543C23.4582 25.5435 23.4525 25.5259 23.4468 25.5094L23.2091 25.5095ZM22.216 25.5095C22.2171 25.5405 22.2214 25.5571 22.1962 25.5296C22.1903 25.5231 22.1847 25.5164 22.1793 25.5096L21.6265 25.5095C21.6785 25.558 21.7165 25.5952 21.7218 25.5999C21.7273 25.6047 21.7342 25.6074 21.7454 25.6089C21.757 25.6107 21.7719 25.6111 21.7917 25.6121C21.8055 25.6128 21.8082 25.6231 21.8066 25.6306C21.8058 25.634 21.8045 25.6372 21.8028 25.6403L21.7955 25.7247H21.8941C21.8961 25.7231 21.8981 25.7217 21.9001 25.7202C21.9102 25.7131 21.9193 25.7055 21.932 25.6972C21.9491 25.686 21.9672 25.6766 21.9862 25.6691C22.0103 25.659 22.0227 25.6548 22.0371 25.6551C22.0437 25.6553 22.0508 25.6563 22.0602 25.658C22.069 25.6597 22.0801 25.6619 22.0951 25.6644C22.1316 25.6706 22.1593 25.6979 22.1785 25.7246H22.3597C22.3505 25.698 22.3425 25.6709 22.3359 25.6436C22.3251 25.5986 22.3134 25.5538 22.3007 25.5093L22.216 25.5095ZM21.3787 25.5095L21.3756 25.547C21.3643 25.5391 21.3444 25.526 21.3167 25.5095H21.3787ZM20.7442 25.5095C20.7443 25.5203 20.7481 25.5302 20.7544 25.5406C20.7582 25.5471 20.7625 25.5513 20.7672 25.5551C20.7714 25.5584 20.7761 25.5613 20.7818 25.565C20.7922 25.5717 20.8053 25.5761 20.8158 25.5791L20.8299 25.5826L20.8347 25.5838L20.841 25.5874L20.8487 25.5929L20.8569 25.5987C20.8595 25.6004 20.8623 25.6021 20.8647 25.6031L20.8712 25.6045L20.8798 25.6055L20.9021 25.6069C20.9179 25.6079 20.9331 25.6083 20.9344 25.6083L20.9548 25.6211C20.9637 25.6267 20.973 25.6313 20.9805 25.6361C20.988 25.6408 20.9915 25.6446 20.9927 25.648C20.9946 25.6541 20.9965 25.6622 20.997 25.6685C20.986 25.6698 20.9562 25.6598 20.9516 25.6582C20.9491 25.6569 20.9402 25.6522 20.9297 25.649C20.9184 25.6456 20.9007 25.6421 20.8893 25.6523C20.8852 25.656 20.882 25.6605 20.8799 25.6656C20.8782 25.6696 20.877 25.674 20.8755 25.6791C20.8732 25.6868 20.8716 25.6946 20.8707 25.7026C20.8703 25.7062 20.8703 25.7099 20.8707 25.7135C20.8712 25.7163 20.8724 25.7215 20.8774 25.724C20.8778 25.7242 20.8782 25.7244 20.8786 25.7246L20.6818 25.7245C20.6787 25.7211 20.6758 25.7178 20.6732 25.7146C20.6732 25.7146 20.6334 25.6719 20.5817 25.5949C20.5641 25.5687 20.5447 25.5403 20.5256 25.5094H20.7442V25.5095Z" fill="white"/>
<path d="M23.2971 25.585C23.2906 25.5661 23.2842 25.5486 23.281 25.5445C23.2753 25.5367 23.2519 25.5251 23.2422 25.5251C23.2325 25.5251 23.1841 25.5271 23.1841 25.5271C23.1841 25.5271 23.1628 25.5581 23.1608 25.5445C23.1588 25.5309 23.1783 25.4998 23.1783 25.4998C23.1783 25.4998 23.1826 25.4804 23.1511 25.4824C23.1197 25.4843 23.11 25.4766 23.0984 25.5018C23.0898 25.5205 23.0693 25.5639 23.0594 25.5849H23.2971V25.585ZM22.1509 25.585C22.1489 25.5773 22.1464 25.5697 22.1434 25.5624C22.1377 25.551 22.1377 25.5082 22.1206 25.5082C22.1035 25.5082 22.0779 25.5225 22.0779 25.5225C22.0779 25.5225 22.0693 25.5139 22.0665 25.5596C22.0659 25.5686 22.066 25.5773 22.0663 25.585H22.1509ZM24.7751 25.3698C24.7631 25.4051 24.7514 25.4355 24.7434 25.449C24.7321 25.468 24.6916 25.5274 24.652 25.5851L24.492 25.585C24.5251 25.569 24.5686 25.5465 24.5745 25.537C24.5835 25.5226 24.6073 25.4927 24.591 25.4725C24.5856 25.4656 24.5727 25.4593 24.5727 25.4593C24.5727 25.4593 24.571 25.4358 24.5871 25.4214C24.6034 25.4069 24.6321 25.4069 24.6501 25.3996C24.6573 25.3968 24.6669 25.3842 24.676 25.3699L24.7751 25.3698ZM24.5427 25.3698C24.5408 25.3731 24.5394 25.376 24.5383 25.3779C24.5275 25.3997 24.4244 25.5551 24.4172 25.5733C24.4162 25.5756 24.4138 25.5797 24.4103 25.5849L24.2631 25.585C24.2793 25.5774 24.3174 25.5544 24.3246 25.5432C24.3325 25.531 24.326 25.5118 24.3111 25.5103C24.2961 25.5089 24.2683 25.5018 24.2598 25.5089C24.2513 25.5161 24.2498 25.526 24.2426 25.5246C24.235 25.5233 24.2279 25.52 24.2221 25.5149C24.2152 25.5089 24.2056 25.5011 24.2093 25.4954C24.2127 25.4897 24.2299 25.4704 24.2498 25.4576C24.2698 25.4448 24.3011 25.4354 24.3338 25.4207C24.3727 25.4033 24.4213 25.3817 24.4462 25.3697L24.5427 25.3698ZM24.1408 25.3698C24.1376 25.3715 24.1341 25.3742 24.1293 25.3785C24.1165 25.3899 24.0894 25.4127 24.0894 25.4127C24.0894 25.4127 24.0623 25.4398 24.0466 25.4569C24.0309 25.474 24.0067 25.4954 24.0067 25.4954C24.0067 25.4954 23.9725 25.511 23.9682 25.5282C23.9639 25.5453 23.9411 25.5824 23.971 25.5838C23.9785 25.5842 23.985 25.5848 23.991 25.5852L24.0098 25.585C24.0193 25.5835 24.0283 25.5793 24.0395 25.5695C24.0637 25.5481 24.0823 25.5054 24.105 25.4854C24.1279 25.4654 24.1479 25.4383 24.1649 25.4242C24.1821 25.4099 24.1935 25.4056 24.1892 25.3927C24.1862 25.3835 24.1808 25.3742 24.1723 25.3698H24.1408ZM23.9985 25.3698C23.9386 25.4261 23.859 25.5156 23.8128 25.5795C23.8116 25.5813 23.8102 25.5831 23.8089 25.585H23.5787C23.5789 25.585 23.5792 25.5848 23.5793 25.5846C23.6187 25.5482 23.6934 25.4415 23.7063 25.4185C23.7106 25.4109 23.7251 25.393 23.7453 25.3698L23.9985 25.3698ZM23.3825 25.3698C23.3918 25.3968 23.3955 25.4732 23.3974 25.4922C23.3991 25.5092 23.3994 25.5471 23.4124 25.5849L23.5134 25.585C23.5093 25.5809 23.5057 25.5762 23.5029 25.5711C23.4916 25.5566 23.4857 25.5239 23.4843 25.483C23.484 25.4741 23.4894 25.4202 23.5018 25.3696L23.3825 25.3698ZM21.3967 25.3698C21.4184 25.3897 21.4396 25.4103 21.4603 25.4314C21.4638 25.4353 21.5654 25.5296 21.5755 25.5274C21.602 25.5215 21.6715 25.4423 21.6595 25.3997C21.657 25.3907 21.6436 25.3806 21.6261 25.3698L21.7715 25.3698C21.7492 25.4064 21.757 25.4272 21.7443 25.4655C21.7272 25.5168 21.7415 25.5111 21.7785 25.5254C21.8156 25.5397 21.8099 25.5311 21.8213 25.5283C21.8327 25.5254 21.8584 25.5026 21.8584 25.5026C21.8584 25.5026 21.8669 25.4569 21.9097 25.4484C21.9525 25.4399 21.9668 25.4969 21.9668 25.4969C21.9668 25.4969 22.0003 25.5482 22.0296 25.5852L21.4768 25.585C21.4598 25.5692 21.4414 25.5521 21.422 25.5346C21.3574 25.476 21.2827 25.4117 21.2226 25.3697L21.3967 25.3698ZM21.0329 25.3698C21.0429 25.3758 21.0528 25.3826 21.0623 25.3905C21.086 25.4103 21.1135 25.4387 21.1369 25.4641C21.1604 25.4896 21.1796 25.5119 21.1867 25.5189C21.1985 25.5307 21.2231 25.5582 21.2306 25.5665L21.229 25.5849H21.167C21.1597 25.5806 21.1519 25.576 21.1435 25.5713C21.1143 25.5548 21.0782 25.5208 21.0394 25.4831C21.02 25.4643 21.0003 25.4448 20.9807 25.4265C20.9621 25.4089 20.9427 25.3922 20.9225 25.3765L20.9135 25.3697L21.0329 25.3698ZM20.5907 25.3698L20.6008 25.3812L20.5881 25.386C20.5848 25.3866 20.5814 25.3871 20.5781 25.3873C20.5763 25.3876 20.5745 25.3874 20.5728 25.387C20.5683 25.385 20.5618 25.3819 20.556 25.3791L20.5481 25.3754L20.5423 25.3731C20.5409 25.3727 20.5365 25.3715 20.5315 25.3707C20.5258 25.3694 20.5199 25.3695 20.5143 25.3709C20.5107 25.3721 20.5009 25.3764 20.4984 25.3774L20.4922 25.3793C20.4903 25.38 20.4884 25.3808 20.4866 25.3817C20.4851 25.3825 20.4823 25.3841 20.4807 25.3868C20.4774 25.3923 20.4761 25.4188 20.4797 25.4255C20.4823 25.4306 20.486 25.4375 20.4901 25.4435C20.4938 25.449 20.4993 25.456 20.5061 25.4583C20.5133 25.4607 20.6195 25.5127 20.6229 25.515L20.6372 25.5229L20.6636 25.537C20.673 25.5422 20.6823 25.5473 20.6894 25.5514L20.698 25.5564C20.7001 25.5593 20.7015 25.5626 20.7021 25.5661C20.6918 25.5658 20.6815 25.5652 20.6712 25.5646L20.6345 25.563C20.6302 25.5616 20.6257 25.5605 20.6212 25.5598C20.6175 25.559 20.6136 25.5587 20.6097 25.5589C20.607 25.559 20.5998 25.5599 20.5976 25.5667C20.5955 25.5726 20.5945 25.5788 20.5945 25.585L20.376 25.585C20.3387 25.5247 20.3026 25.4545 20.2843 25.3718C20.2843 25.3711 20.2841 25.3705 20.2839 25.3698H20.5907V25.3698Z" fill="white"/>
<path d="M24.1722 25.3695C24.1686 25.3678 24.1646 25.3668 24.1606 25.3669C24.1508 25.3669 24.1461 25.3669 24.1407 25.3697L24.1722 25.3695ZM24.8415 25.1543C24.8353 25.1734 24.8293 25.1915 24.8262 25.2031C24.8189 25.2307 24.7962 25.3077 24.775 25.3695H24.6758C24.6898 25.3476 24.7024 25.3217 24.7024 25.3217C24.7024 25.3217 24.7212 25.301 24.6916 25.3072C24.6526 25.3154 24.6338 25.313 24.6338 25.2967C24.6338 25.2804 24.6272 25.2728 24.6453 25.2691C24.6634 25.2655 24.7414 25.217 24.7526 25.1968C24.7592 25.185 24.7626 25.1698 24.7638 25.1544L24.8415 25.1543ZM24.6736 25.1543C24.652 25.187 24.6264 25.2252 24.6211 25.2316C24.6128 25.2414 24.5603 25.3358 24.5425 25.3695L24.446 25.3695C24.451 25.3672 24.4559 25.3646 24.4606 25.3619C24.472 25.3547 24.4838 25.3141 24.4706 25.3084C24.4513 25.3001 24.3965 25.3084 24.3951 25.3048C24.3936 25.3013 24.3859 25.2863 24.3944 25.2828L24.4478 25.2599C24.4478 25.2599 24.5419 25.2217 24.5522 25.2007C24.5599 25.1848 24.5557 25.1607 24.5579 25.1558L24.5585 25.1545L24.6736 25.1543ZM24.3454 25.1543L24.2626 25.1879C24.2626 25.1879 24.0922 25.2913 24.0323 25.3397C24.0222 25.348 24.0107 25.3581 23.9985 25.3696L23.7452 25.3695C23.7913 25.3173 23.8394 25.2669 23.8893 25.2183C23.9154 25.1932 23.9354 25.1729 23.9577 25.1544L24.3454 25.1543ZM23.2581 25.1543C23.2966 25.2156 23.3729 25.3448 23.3817 25.3678C23.382 25.3684 23.3822 25.369 23.3824 25.3696L23.5015 25.3695C23.504 25.3595 23.5066 25.3497 23.5096 25.3404C23.5281 25.2818 23.5739 25.2317 23.6197 25.198C23.6408 25.1825 23.6641 25.168 23.6862 25.1544L23.5781 25.1543C23.5468 25.1897 23.5356 25.2186 23.5004 25.2001C23.5004 25.2001 23.4854 25.1789 23.4666 25.1544L23.2581 25.1543ZM21.7634 25.1543C21.7147 25.212 21.6773 25.2744 21.5953 25.212C21.5704 25.1931 21.5456 25.1738 21.521 25.1543L21.3766 25.1543C21.427 25.1997 21.4734 25.2403 21.484 25.2478C21.4962 25.2564 21.5102 25.2931 21.5495 25.3226C21.5713 25.3389 21.6023 25.3549 21.626 25.3695L21.7715 25.3695C21.779 25.3572 21.7902 25.343 21.8069 25.3255C21.8566 25.2737 21.9423 25.1989 21.9871 25.1546L21.7634 25.1543ZM21.0639 25.1543C21.1389 25.1905 21.2407 25.2567 21.2807 25.2761C21.3051 25.288 21.3552 25.3314 21.3965 25.3697L21.2223 25.3695C21.2104 25.3611 21.1982 25.3531 21.1856 25.3456C21.1222 25.3082 21.0749 25.2784 21.0405 25.258C21.007 25.2381 20.9831 25.2254 20.9682 25.2254C20.9365 25.2254 20.9146 25.2628 20.935 25.301C20.9454 25.3208 20.9668 25.3333 20.9895 25.3455C21.0009 25.3517 21.0132 25.358 21.0257 25.3653C21.028 25.3667 21.0303 25.368 21.0326 25.3694L20.9131 25.3696C20.8776 25.3426 20.8355 25.3103 20.7956 25.281C20.7524 25.2492 20.711 25.2205 20.6833 25.2061C20.6559 25.1919 20.6266 25.1763 20.6008 25.1641C20.5936 25.1608 20.5863 25.1576 20.579 25.1545L21.0639 25.1543ZM20.413 25.1543C20.4109 25.1594 20.4091 25.1645 20.4076 25.1697C20.4037 25.1833 20.4005 25.2021 20.4065 25.2176C20.4123 25.2327 20.4212 25.2408 20.4328 25.2488C20.4434 25.2563 20.4574 25.2642 20.4753 25.2791C20.4936 25.2945 20.5175 25.3113 20.5368 25.3243C20.5532 25.3354 20.5663 25.3437 20.5699 25.346L20.5906 25.3696H20.2838C20.2562 25.2445 20.2562 25.2122 20.2405 25.1763C20.2384 25.1715 20.2342 25.1641 20.2295 25.1544L20.413 25.1543Z" fill="white"/>
<path d="M23.9577 25.1543L23.9689 25.1455C24.023 25.1041 24.1031 25.0613 24.2197 25.0302C24.3371 24.9989 24.3905 24.9855 24.4282 24.9777C24.4652 24.9701 24.4993 24.9727 24.5484 24.9727C24.5976 24.9727 24.6353 24.9702 24.6789 24.971C24.7226 24.9717 24.7492 24.9756 24.7755 24.9811C24.7893 24.9841 24.8314 24.9879 24.8603 25.0065C24.877 25.0332 24.8588 25.0935 24.8552 25.1083C24.8511 25.1238 24.8465 25.1392 24.8415 25.1545L24.7639 25.1544C24.7669 25.1195 24.759 25.0834 24.7513 25.0831C24.7464 25.0829 24.7387 25.0834 24.7387 25.0834C24.7387 25.0834 24.7116 25.0942 24.7044 25.1068C24.6944 25.1229 24.6842 25.1388 24.6737 25.1545L24.5586 25.1544C24.5615 25.1496 24.5693 25.1426 24.5712 25.1367C24.5733 25.1302 24.5676 25.1185 24.5626 25.1157C24.5577 25.1128 24.5476 25.1046 24.5476 25.1046C24.5476 25.1046 24.4757 25.0996 24.4607 25.1067C24.4526 25.1106 24.3961 25.1337 24.3454 25.1543L23.9577 25.1543ZM21.3767 25.1543C21.314 25.0977 21.2454 25.0337 21.2323 25.0166C21.2133 24.9922 21.1704 24.9567 21.1366 24.939L21.291 24.9391C21.3479 25.0109 21.4406 25.0905 21.5211 25.1542L21.3767 25.1543ZM20.2295 25.1543C20.2168 25.1284 20.2 25.0863 20.2087 25.037C20.2151 25.0007 20.2528 24.9839 20.3081 24.9809C20.36 24.9781 20.4691 24.988 20.5517 25.0007C20.6341 25.0136 20.7103 25.0322 20.7628 25.045C20.8149 25.0576 20.9785 25.1178 21.0417 25.1444C21.0488 25.1474 21.0562 25.1508 21.064 25.1545L20.5792 25.1543C20.5624 25.1475 20.5473 25.1428 20.5366 25.1428C20.5104 25.1428 20.4191 25.1406 20.4191 25.1406C20.4191 25.1406 20.4162 25.1465 20.413 25.1543H20.2295V25.1543ZM23.7978 24.9391C23.7395 25.0089 23.672 25.0717 23.6043 25.1285C23.5941 25.1371 23.5856 25.1459 23.5782 25.1542L23.6863 25.1543C23.7117 25.1388 23.7358 25.1246 23.7538 25.1116C23.8029 25.076 23.9179 24.9975 24.0056 24.9391L23.7978 24.9391ZM23.0515 24.9391C23.069 24.9475 23.085 24.956 23.0957 24.9634C23.1328 24.989 23.2151 25.0881 23.248 25.1386C23.251 25.1431 23.2545 25.1485 23.2583 25.1545L23.4667 25.1543C23.4621 25.1483 23.4575 25.1424 23.4528 25.1365C23.4135 25.0871 23.4171 25.09 23.3772 25.041C23.3615 25.0215 23.3121 24.9709 23.3085 24.9391H23.0515ZM22.3683 24.9391C22.3684 24.9554 22.3672 24.9732 22.3622 24.9831C22.3522 25.0032 22.329 25.0341 22.3475 25.0403C22.3661 25.0465 22.394 25.0418 22.4087 25.0233C22.4217 25.0068 22.4415 24.9596 22.4496 24.9391L22.3683 24.9391ZM22.1833 24.9391C22.2013 24.9422 22.2204 24.9492 22.2204 24.9492C22.2204 24.9492 22.2115 24.9901 22.1805 25.0179C22.1496 25.0457 22.1334 25.0743 22.1434 25.0937C22.1535 25.113 22.1589 25.1393 22.1805 25.1238C22.2022 25.1083 22.2501 25.0565 22.2679 25.0256C22.2787 25.0068 22.2968 24.9675 22.3117 24.939L22.1833 24.9391ZM21.74 24.9391C21.7491 24.9422 21.757 24.9443 21.7629 24.9451C21.7903 24.9487 21.8611 24.9373 21.8667 24.9411C21.9303 24.9849 21.8194 25.0957 21.7867 25.1285C21.7786 25.1367 21.7708 25.1453 21.7634 25.1542L21.9871 25.1543C22.0014 25.1403 22.0116 25.1292 22.0151 25.1231C22.0293 25.0973 22.0835 25.0033 22.0835 25.0033C22.0835 25.0033 22.1387 24.948 22.1632 24.939L21.74 24.9391Z" fill="white"/>
<path d="M23.9297 24.7242C23.8987 24.8028 23.8523 24.8741 23.7978 24.9394H24.0055C24.0373 24.9181 24.0656 24.8994 24.0858 24.8865C24.1615 24.838 24.1595 24.8471 24.2281 24.8085C24.2633 24.7887 24.3137 24.7709 24.3484 24.7628C24.3828 24.7548 24.4205 24.7467 24.4383 24.7425C24.4483 24.74 24.4786 24.7422 24.4891 24.7425C24.498 24.7428 24.5227 24.7421 24.5421 24.7242L24.2677 24.7242C24.1429 24.7831 23.9948 24.8619 23.9948 24.8619C23.9948 24.8619 24.0148 24.799 24.0346 24.762C24.0397 24.7526 24.045 24.7391 24.0502 24.7242H23.9297ZM21.4015 24.7242C21.4616 24.7818 21.5421 24.8434 21.5675 24.8579C21.6005 24.8767 21.6903 24.9225 21.74 24.9393L22.1633 24.9394C22.1651 24.9385 22.167 24.938 22.169 24.9379C22.1734 24.9379 22.1783 24.9386 22.1833 24.9394H22.3117C22.3212 24.921 22.3294 24.9073 22.3336 24.9061C22.3444 24.903 22.3669 24.8983 22.3669 24.9045C22.3669 24.9076 22.3683 24.9227 22.3683 24.9394L22.4495 24.9394L22.4519 24.9331C22.4573 24.9184 22.4565 24.9061 22.4565 24.9061L22.7793 24.8952L22.956 24.898C22.956 24.898 23.0082 24.9183 23.0516 24.9393L23.3085 24.9393C23.308 24.936 23.3082 24.9326 23.3091 24.9294C23.3171 24.9016 23.3952 24.8976 23.4329 24.8976C23.4494 24.8976 23.5395 24.8413 23.5726 24.826C23.5928 24.8167 23.6487 24.7708 23.6983 24.7242L23.5488 24.7241C23.4961 24.76 23.4079 24.8082 23.3843 24.8187C23.3543 24.8321 23.2968 24.814 23.2775 24.8017C23.27 24.7968 23.2366 24.7883 23.1963 24.7881C23.1575 24.7879 23.121 24.7935 23.1047 24.7948C23.0719 24.7977 22.9288 24.8294 22.9031 24.8322C22.8893 24.8338 22.821 24.8332 22.7607 24.8272C22.7039 24.8215 22.6406 24.8177 22.6336 24.8169C22.6336 24.8169 22.4728 24.8152 22.3455 24.8118C22.3156 24.811 22.2973 24.8138 22.266 24.8187C22.266 24.8187 22.1931 24.8289 22.188 24.8289C22.1662 24.8289 22.1229 24.8233 22.0914 24.7948C22.0759 24.7807 22.0563 24.7718 22.0354 24.7695C22.0115 24.767 21.9905 24.7621 21.9628 24.7678C21.9381 24.7729 21.9067 24.7901 21.9033 24.7932C21.8998 24.7963 21.8651 24.8195 21.8474 24.8187C21.8152 24.8173 21.7529 24.8035 21.722 24.7949C21.6892 24.7858 21.5879 24.7438 21.5619 24.7242H21.4015ZM21.0737 24.7242L21.0934 24.8136C21.0934 24.8136 21.076 24.8146 21.0297 24.8097C20.9842 24.805 20.9367 24.8042 20.8742 24.7819C20.8376 24.7688 20.7957 24.7485 20.7533 24.7242L20.5505 24.7242C20.6323 24.7679 20.7975 24.8553 20.8272 24.8679C20.8631 24.8832 21.0781 24.9245 21.1084 24.9289C21.1162 24.93 21.1259 24.9337 21.1365 24.9393L21.2909 24.9394C21.2782 24.9238 21.2668 24.9072 21.2568 24.8897C21.223 24.8288 21.1974 24.775 21.1779 24.7242H21.0737V24.7242Z" fill="white"/>
<path d="M23.5487 24.7239C23.5542 24.7204 23.5592 24.7168 23.5638 24.7135C23.6143 24.6764 23.6904 24.5427 23.7129 24.4932C23.7256 24.4654 23.7558 24.3795 23.784 24.2935L23.8897 24.2935C23.8565 24.441 23.815 24.59 23.7757 24.6425C23.76 24.6634 23.7304 24.6939 23.6981 24.724L23.5487 24.7239ZM24.7556 24.2935C24.7451 24.3318 24.7333 24.3666 24.72 24.3954C24.661 24.5225 24.5047 24.6314 24.393 24.6703C24.3616 24.6812 24.3164 24.7011 24.2677 24.7241L24.5422 24.724C24.5449 24.7213 24.5476 24.7184 24.5501 24.7152C24.573 24.6845 24.6131 24.6653 24.6518 24.6543C24.6903 24.6432 24.7309 24.6364 24.7466 24.6322C24.7615 24.6281 24.8102 24.6074 24.867 24.5813C24.9235 24.5554 24.9945 24.526 25.0245 24.5153C25.0838 24.4941 25.1891 24.4383 25.2295 24.4035C25.2576 24.38 25.2865 24.3573 25.316 24.3356C25.3369 24.3201 25.3541 24.3056 25.3657 24.2935L25.2318 24.2936C25.1835 24.3362 25.092 24.3807 24.9869 24.4314C24.8785 24.4837 24.7677 24.5268 24.7677 24.5268C24.7677 24.5268 24.8091 24.4464 24.8235 24.4234C24.8372 24.4014 24.8593 24.3746 24.8676 24.3553C24.8787 24.3295 24.9193 24.3086 24.9584 24.2936H24.7556V24.2935ZM23.9941 24.2935C23.986 24.396 23.9764 24.5051 23.9665 24.5823C23.9603 24.6309 23.9479 24.6786 23.9297 24.7241L24.0502 24.7239C24.0641 24.6836 24.0766 24.6328 24.0784 24.6225C24.0842 24.5881 24.1834 24.5656 24.21 24.5584C24.4081 24.474 24.4728 24.4431 24.5772 24.2937L24.4121 24.2935C24.3395 24.3383 24.2367 24.3927 24.1976 24.4051C24.1753 24.4121 24.1345 24.423 24.123 24.4254C24.1115 24.4277 24.0808 24.4318 24.0722 24.4254C24.0698 24.4236 24.0552 24.3915 24.0552 24.3338C24.0552 24.3202 24.0565 24.3062 24.0581 24.2935L23.9941 24.2935ZM21.2064 24.2935C21.2278 24.3888 21.3007 24.591 21.3403 24.6544C21.3525 24.674 21.375 24.6986 21.4014 24.7238L21.5617 24.724C21.5602 24.7229 21.5587 24.7216 21.5574 24.7202C21.5427 24.704 21.4438 24.5949 21.3983 24.5119C21.3528 24.429 21.3208 24.3786 21.2919 24.2935H21.2064ZM20.5685 24.2935C20.6254 24.3839 20.688 24.4633 20.7344 24.4948C20.8048 24.5427 20.912 24.5815 20.9457 24.5863C20.9853 24.5919 21.0495 24.6146 21.0495 24.6146L21.0735 24.7239H21.1778C21.1247 24.5856 21.117 24.47 21.1099 24.2937L21.0187 24.2935C21.0201 24.3378 21.0208 24.3688 21.0203 24.3762C21.0188 24.3943 21.016 24.4427 21.0135 24.4575C21.0122 24.4651 21.0023 24.5012 20.9797 24.51C20.9575 24.5185 20.8939 24.4794 20.8847 24.4745C20.8651 24.464 20.7558 24.3812 20.7186 24.344C20.7097 24.3351 20.6963 24.3165 20.6812 24.2935H20.5685ZM20.1013 24.2935C20.138 24.3117 20.1786 24.3229 20.2245 24.3273C20.2991 24.3346 20.3021 24.4012 20.3323 24.459L20.384 24.5306H20.2324C20.1821 24.5306 20.1104 24.5141 20.0132 24.467C19.9112 24.4174 19.8446 24.3604 19.7974 24.2935L19.6719 24.2935C19.7139 24.3346 19.8101 24.4442 19.8867 24.5015C19.9623 24.5583 20.0923 24.5841 20.1374 24.5914C20.182 24.5985 20.4731 24.6824 20.5084 24.7015C20.5151 24.7052 20.5303 24.7133 20.5504 24.724L20.7532 24.7239C20.6529 24.6663 20.5503 24.5856 20.5112 24.5226C20.4694 24.4553 20.4114 24.3747 20.3714 24.2935L20.1013 24.2935Z" fill="white"/>
<path d="M24.4123 24.2934C24.4498 24.2704 24.4792 24.2497 24.4875 24.2389C24.5113 24.2076 24.6024 23.9589 24.6265 23.8797C24.6279 23.875 24.6294 23.8695 24.6312 23.8631H24.7389C24.7343 23.8814 24.7305 23.8973 24.7281 23.9088C24.7142 23.9758 24.6679 24.157 24.6084 24.2478C24.5976 24.2642 24.5873 24.2795 24.5774 24.2937L24.4123 24.2934ZM23.784 24.2934C23.8067 24.2241 23.8282 24.1547 23.8383 24.1152C23.85 24.07 23.8759 23.962 23.8989 23.863L23.9904 23.863C23.9655 23.8719 23.959 23.9006 23.9546 23.9445C23.9513 23.9786 23.9253 24.1351 23.8897 24.2933L23.784 24.2934ZM25.465 23.863C25.462 23.8856 25.4582 23.9088 25.4532 23.9326C25.4348 24.0212 25.3264 24.2081 25.234 24.2915C25.2333 24.2921 25.2326 24.2927 25.2318 24.2934L25.3658 24.2934C25.3728 24.286 25.3778 24.2796 25.3804 24.2745C25.3889 24.2575 25.4337 24.2172 25.4736 24.1728C25.514 24.128 25.5517 24.0823 25.5702 24.0609C25.5896 24.0386 25.6131 24.0239 25.6329 24.0135C25.6424 24.0085 25.6875 23.9823 25.7007 23.9728C25.73 23.952 25.7703 23.9073 25.8044 23.8631L25.7071 23.863C25.7023 23.8678 25.6973 23.8724 25.6922 23.877C25.6443 23.9198 25.5809 23.9649 25.5809 23.9649L25.5903 23.863H25.465ZM24.8325 23.863C24.831 23.8739 24.8293 23.8851 24.8274 23.8968C24.8104 24.0048 24.7902 24.1675 24.7557 24.2935L24.9585 24.2934C24.9809 24.285 25.0037 24.2777 25.0268 24.2716C25.1496 24.2379 25.1899 24.1488 25.2663 24.0484C25.2932 24.0132 25.3156 23.9345 25.3339 23.8629L25.1873 23.863C25.1445 23.9415 25.0183 24.0815 24.9992 24.0965C24.979 24.1123 24.9082 24.1463 24.8874 24.1439C24.8586 24.1405 24.8552 24.11 24.8654 24.0541C24.8698 24.0303 24.8725 23.9791 24.8823 23.9304C24.8869 23.9079 24.8917 23.8855 24.8966 23.8631L24.8325 23.863ZM24.007 23.863C24.0115 23.8676 24.0148 23.877 24.015 23.8838C24.016 23.915 24.0181 23.9748 24.0148 24.0126C24.0123 24.0417 24.0044 24.1622 23.9941 24.2933L24.0582 24.2934C24.0607 24.274 24.0641 24.2577 24.0654 24.2507C24.0697 24.228 24.0781 24.107 24.0823 24.0474C24.0865 23.9888 24.0873 23.9338 24.0903 23.8632L24.007 23.863ZM21.211 23.863C21.2262 23.9325 21.2401 24.0021 21.2458 24.0321C21.2515 24.0618 21.2516 24.1039 21.2543 24.1422C21.257 24.1806 21.2695 24.2218 21.2848 24.271C21.2872 24.2787 21.2895 24.2862 21.292 24.2933L21.2066 24.2934C21.2061 24.2914 21.2056 24.2894 21.2052 24.2875C21.1853 24.1935 21.1804 24.0882 21.169 24.0285C21.16 23.9812 21.1409 23.9622 21.1041 23.9642C21.0961 23.9647 21.1004 23.9679 21.0883 23.9775C21.0928 24.0344 21.1069 24.2161 21.1094 24.2756L21.1101 24.2936L21.0189 24.2934C21.0152 24.1805 21.0063 23.9806 21.001 23.8631L21.211 23.863ZM20.4028 23.863C20.4177 23.9654 20.4176 24.0156 20.5034 24.1801C20.5232 24.2181 20.5454 24.2567 20.5686 24.2935L20.6813 24.2934C20.6618 24.2634 20.6432 24.2327 20.6255 24.2016C20.5919 24.1428 20.5608 24.0808 20.5543 24.0694C20.5456 24.0538 20.5062 23.9417 20.4805 23.863H20.4028ZM19.8169 23.863C19.8655 23.9961 19.9321 24.1276 19.9577 24.1637C19.9996 24.2231 20.046 24.2662 20.1013 24.2935L20.3715 24.2934C20.3506 24.2511 20.3346 24.2086 20.3284 24.1677C20.3131 24.0666 20.3012 23.965 20.2926 23.8631L20.1997 23.863C20.2052 23.9293 20.2115 24.0035 20.2121 24.0101C20.2121 24.0101 20.2538 24.1628 20.2019 24.1999C20.19 24.2084 20.1654 24.2 20.1375 24.1898C20.1073 24.1787 20.0269 24.0851 19.9935 24.0321C19.9789 24.009 19.9487 23.9358 19.9228 23.863L19.8169 23.863ZM19.5398 23.863C19.5603 23.8888 19.5723 23.916 19.575 23.9406C19.5809 23.9938 19.6068 24.0181 19.6147 24.0723C19.6147 24.0723 19.5729 24.1299 19.5193 24.1001C19.4598 24.0671 19.4082 23.9789 19.3677 23.9246C19.3531 23.9049 19.3396 23.8843 19.3273 23.8629L19.2371 23.863C19.2479 23.8877 19.2581 23.9096 19.2665 23.9253C19.3014 23.9908 19.4045 24.0902 19.4716 24.1472C19.5049 24.1755 19.5386 24.1923 19.5749 24.2168C19.5932 24.2291 19.6072 24.2417 19.6223 24.2524C19.6375 24.263 19.655 24.2773 19.6647 24.2861L19.6719 24.2931L19.7975 24.2933C19.73 24.1979 19.7022 24.0824 19.6664 23.9404C19.6602 23.9148 19.6554 23.8889 19.6521 23.8628L19.5398 23.863Z" fill="white"/>
<path d="M23.8991 23.8633C23.9212 23.7682 23.9408 23.6814 23.9428 23.666C23.947 23.6361 23.9695 23.5066 24.0487 23.4021C24.0883 23.3497 24.1754 23.2669 24.1774 23.2682C24.1807 23.2702 24.156 23.3582 24.1401 23.4173C24.132 23.4471 24.11 23.5448 24.1096 23.5546C24.1089 23.5724 24.1032 23.6436 24.0977 23.7087C24.0924 23.7718 24.0936 23.7955 24.0911 23.851L24.0904 23.8635L24.0071 23.8633C24.0053 23.8616 24.0034 23.8606 24.0014 23.8608C23.9975 23.8613 23.9938 23.8621 23.9905 23.8633L23.8991 23.8633ZM21.0011 23.8633C20.9985 23.8071 20.9967 23.7698 20.9967 23.7698L20.9696 23.6138C20.9553 23.5374 20.9394 23.4604 20.9374 23.4563C20.9352 23.4519 20.925 23.4151 20.934 23.3919C20.9389 23.3793 20.9449 23.3545 20.9595 23.3614C20.9941 23.378 21.0481 23.4312 21.0544 23.4461C21.0614 23.4632 21.145 23.6399 21.1678 23.6969C21.1791 23.725 21.1957 23.794 21.211 23.8635L21.0011 23.8633ZM19.2372 23.8633C19.2021 23.7836 19.1599 23.6741 19.148 23.6426C19.14 23.6218 19.113 23.564 19.0904 23.5172C19.0678 23.4704 19.046 23.4316 19.0413 23.4071C19.0363 23.3817 19.0355 23.3478 19.0328 23.3157C19.0301 23.2839 19.0256 23.2374 19.0073 23.2207C18.9915 23.2064 18.9327 23.158 18.8803 23.1123C18.8272 23.0661 18.7891 23.0283 18.7785 23.0072L18.7761 23.0025L18.9137 23.0025C18.9677 23.0529 19.0315 23.1011 19.0691 23.1361C19.0825 23.1487 19.1088 23.2356 19.1088 23.2356C19.1229 23.2863 19.2002 23.569 19.2241 23.6263C19.2483 23.6843 19.2718 23.7406 19.2803 23.7659C19.285 23.7803 19.3021 23.8196 19.3273 23.8633H19.2372ZM26.0906 23.0025C26.063 23.042 26.0291 23.0946 26.0154 23.1123C25.9911 23.1439 25.9796 23.2515 25.9796 23.2515C25.9611 23.3321 25.918 23.3939 25.8996 23.4746C25.8777 23.5709 25.8405 23.6534 25.7962 23.7421C25.7761 23.7823 25.7464 23.825 25.7073 23.8633H25.8045C25.832 23.8276 25.8552 23.7922 25.8652 23.7698C25.8706 23.7575 25.8792 23.7039 25.8804 23.6934C25.883 23.6719 25.8888 23.655 25.9024 23.6308C25.9148 23.6089 25.9142 23.5977 25.9228 23.5698C25.9271 23.5558 25.9439 23.5046 25.9482 23.4986C25.9615 23.4799 26.0196 23.3249 26.0397 23.2478C26.0596 23.1712 26.0708 23.1349 26.0904 23.1106C26.1002 23.0987 26.1335 23.0526 26.1693 23.0023L26.0906 23.0025ZM25.4428 23.0025C25.457 23.046 25.494 23.173 25.4976 23.1851C25.4985 23.2003 25.511 23.4177 25.5179 23.4563C25.5246 23.4938 25.5437 23.5686 25.5467 23.5715C25.5504 23.5752 25.5645 23.584 25.5773 23.5833C25.593 23.5825 25.6054 23.567 25.611 23.5614C25.6234 23.5491 25.6515 23.473 25.6754 23.4072C25.6942 23.3551 25.7135 23.3031 25.7331 23.2513C25.7432 23.2251 25.7575 23.0944 25.7651 23.0027L25.8595 23.0025C25.8614 23.0119 25.8639 23.0226 25.8639 23.0363C25.8639 23.1123 25.8707 23.2341 25.8559 23.3032C25.8476 23.3416 25.8037 23.4648 25.7764 23.5224C25.7608 23.555 25.7229 23.6259 25.6764 23.682C25.6493 23.7148 25.6009 23.75 25.6009 23.75L25.5905 23.8633H25.4651C25.4814 23.7397 25.4717 23.6296 25.4613 23.4985C25.4589 23.4692 25.4668 23.3902 25.4335 23.411C25.4082 23.4269 25.3897 23.4595 25.3857 23.5065C25.3773 23.6079 25.3906 23.6549 25.3619 23.754C25.3541 23.7808 25.3448 23.8208 25.334 23.8633L25.1874 23.8633C25.1907 23.8572 25.1937 23.8514 25.196 23.846C25.2263 23.7738 25.2682 23.5812 25.2739 23.5427C25.2799 23.5027 25.2346 23.1494 25.2248 23.0971C25.2218 23.0817 25.2105 23.0452 25.1984 23.0024L25.4428 23.0025ZM24.9452 23.0025C24.9544 23.0383 24.9517 23.3032 24.9519 23.3207C24.9499 23.3314 24.933 23.4178 24.9316 23.5054C24.9302 23.5964 24.9062 23.8206 24.9062 23.8206C24.9029 23.8349 24.8997 23.8492 24.8967 23.8635L24.8327 23.8633C24.8455 23.7732 24.8481 23.7095 24.856 23.5986C24.8572 23.5814 24.8511 23.561 24.8361 23.5591C24.8222 23.5573 24.8169 23.5746 24.8078 23.6064C24.8006 23.6315 24.7605 23.7765 24.739 23.8632L24.6313 23.8633C24.6602 23.7581 24.7344 23.4231 24.7452 23.3733C24.7566 23.3205 24.7909 23.1843 24.8045 23.1598C24.8184 23.1348 24.8503 23.1022 24.9064 23.019C24.9098 23.0139 24.9154 23.0076 24.9213 23.0027L24.9452 23.0025ZM20.2273 23.0025C20.2533 23.0329 20.2791 23.0697 20.2851 23.0834C20.2951 23.1062 20.3967 23.3689 20.4038 23.3902C20.4105 23.4106 20.458 23.7745 20.458 23.7867C20.458 23.7917 20.4675 23.8231 20.4807 23.8634L20.403 23.8633C20.3972 23.8226 20.3897 23.7822 20.3804 23.7421C20.3654 23.6768 20.3868 23.6037 20.3167 23.5746C20.2952 23.5657 20.2744 23.5707 20.2744 23.5707C20.28 23.6798 20.2851 23.7717 20.2928 23.8634L20.1999 23.8633C20.1969 23.8294 20.1943 23.7954 20.1919 23.7614C20.1905 23.7329 20.1699 23.4488 20.1699 23.4089C20.1699 23.3689 20.1682 23.2174 20.1581 23.0902C20.1557 23.0608 20.1423 23.0279 20.1332 23.0025H20.2273ZM19.1992 23.0025C19.2006 23.0191 19.2022 23.0391 19.2043 23.0641C19.2144 23.1728 19.2372 23.2799 19.2724 23.3832C19.2977 23.4563 19.362 23.639 19.3877 23.6978C19.4195 23.7706 19.4837 23.8085 19.5155 23.8375C19.5246 23.8458 19.5327 23.8545 19.5398 23.8634L19.6522 23.8633C19.6381 23.7559 19.64 23.6249 19.6507 23.5347C19.6564 23.4856 19.679 23.3315 19.679 23.3315C19.7015 23.325 19.7263 23.3978 19.7307 23.4388C19.7391 23.5177 19.7413 23.6122 19.7863 23.7699C19.795 23.8003 19.8055 23.8319 19.8171 23.8635L19.9229 23.8633C19.9174 23.8477 19.9121 23.8322 19.9072 23.8172C19.879 23.7312 19.8675 23.7111 19.8512 23.6409C19.83 23.5501 19.8221 23.4266 19.8207 23.4037C19.8199 23.3923 19.816 23.3498 19.8139 23.319C19.8118 23.2882 19.8087 23.2474 19.8139 23.2241C19.8189 23.202 19.8303 23.1556 19.841 23.1088C19.8499 23.0699 19.864 23.0414 19.8714 23.0024H19.6588L19.6529 23.0241C19.6406 23.0687 19.6291 23.1123 19.6191 23.136C19.6095 23.1584 19.5964 23.2265 19.5852 23.2901C19.5741 23.3536 19.5636 23.4139 19.5564 23.4376C19.5496 23.4602 19.5457 23.4988 19.5429 23.5359C19.54 23.573 19.5373 23.6097 19.5343 23.6376C19.5336 23.6449 19.533 23.6747 19.5157 23.6797C19.4998 23.6844 19.4854 23.6746 19.4784 23.6595C19.4582 23.6155 19.436 23.5495 19.436 23.5495C19.436 23.5495 19.3937 23.4073 19.3852 23.3817C19.3764 23.3552 19.3477 23.2476 19.3463 23.0276C19.3462 23.019 19.3462 23.0106 19.3462 23.0025L19.1992 23.0025ZM22.7258 23.1005H22.3991V21.636H21.7363V21.3617H22.3991V20.6783H22.7258V21.3617H23.3714V21.636H22.7258V23.1005ZM20.0164 21.0697L19.2928 20.9387L19.3648 20.8651L20.0802 20.9994L20.0164 21.0697ZM21.5756 21.3455L20.4074 21.1354L20.4142 21.0666L21.5756 21.2853V21.3455ZM21.8478 21.1983L21.676 21.1975L19.7886 20.5033L19.8642 20.4443L21.8478 21.1983Z" fill="white"/>
<path d="M22.1131 21.1982H22.0007L21.998 21.1966L20.2599 20.1895L20.3386 20.1429L20.3444 20.1463L22.1131 21.1982ZM22.2249 21.1986L22.1685 21.1977L22.1654 21.1951L20.7078 19.9621L20.7913 19.9227L20.7969 19.9276L22.2366 21.1795V21.1963L22.2249 21.1986ZM22.237 21.1481L21.1119 19.8061L21.1982 19.78L22.237 21.0579V21.1481ZM22.7791 20.5154L22.7104 20.5141L22.8741 19.5765L22.9603 19.5836L22.7791 20.5154ZM22.5983 20.5146L22.5311 20.5134L22.5194 19.5664H22.6071L22.5983 20.5146ZM22.2376 20.9842L21.4876 19.6988L21.5731 19.6768L22.2376 20.8622V20.9842ZM22.2386 20.6822L21.8525 19.6257L21.9399 19.6133L22.2413 20.4897L22.2386 20.6822ZM22.4358 20.5155L22.3674 20.5142L22.2067 19.5848L22.2917 19.5809L22.4358 20.5155ZM23.5366 21.3712V21.3071L24.733 21.1037L24.7555 21.181L23.5366 21.3712ZM22.8873 20.7131L22.888 20.5252L23.2219 19.6128L23.3077 19.6246L22.8873 20.7131ZM22.8873 21.007V20.8892L22.8889 20.8865L23.5919 19.6804L23.679 19.7009L22.8873 21.007ZM22.8885 21.1627V21.0748L22.8912 21.0716L23.9798 19.7911L24.0642 19.8226L24.0533 19.835L22.8885 21.1627ZM22.9731 21.1976H22.8836L24.3845 19.9493L24.4724 19.9871L24.4577 19.9989L22.9731 21.1976ZM23.1579 21.197H23.0406L24.8452 20.178L24.9154 20.2296L23.1579 21.197ZM23.5114 21.1976H23.3284L25.318 20.4878L25.3922 20.5509L23.5114 21.1976ZM24.8813 28.1527L24.1837 26.1899L24.2532 26.1474L24.9529 28.1098L24.8813 28.1527ZM25.8503 27.4026L24.8129 25.5552L24.84 25.4639L24.8533 25.4872L25.9025 27.3376L25.8503 27.4026ZM26.5677 26.4589L25.0645 24.6239L25.1352 24.5853L26.6124 26.3803L26.5677 26.4589ZM27.0119 25.3825L25.6316 24.1882L25.6892 24.1441L25.6962 24.1501L27.0376 25.2991L27.0119 25.3825ZM27.1749 24.2889L26.0402 23.6093L26.0565 23.5308L27.1678 24.19L27.1749 24.2889ZM27.0799 23.256L26.3362 22.9668L26.3622 22.895L27.0547 23.1555L27.0799 23.256ZM26.7928 22.3416L26.4928 22.2826V22.2045L26.7477 22.2515L26.7928 22.3416ZM26.3702 21.5775L25.9764 21.57L25.983 21.4945L26.3083 21.4969L26.3702 21.5775ZM24.9376 21.559L23.5365 21.5383V21.4783L24.9141 21.4855L24.9376 21.559ZM25.1305 22.0219L23.536 21.7128V21.6524L25.1172 21.9451L25.1305 22.0219ZM23.5558 24.405L22.888 22.4989V22.3295L23.6015 24.3238L23.5558 24.405ZM23.0414 24.5926L22.8248 23.2668H22.89L23.1144 24.5793L23.0414 24.5926ZM24.9894 22.4557L23.2726 21.8002L23.436 21.8008L25.0063 22.3874L24.9894 22.4557ZM24.8169 22.8777L24.8116 22.8745L23.0121 21.7989H23.1195L23.1222 21.8005L24.8899 22.8428L24.8169 22.8777ZM24.5991 23.2955L22.8725 21.7998L22.9561 21.7989L24.6286 23.2201L24.5991 23.2955ZM23.9558 23.2584L23.9495 23.2508L22.8879 21.9438V21.8568L24.0155 23.2234L23.9558 23.2584ZM23.7692 23.7037L22.888 22.1312V22.0197L23.8085 23.643L23.7692 23.7037ZM24.4556 23.871L24.2238 23.5861L24.2506 23.5056L24.5085 23.818L24.4556 23.871ZM18.8187 21.4981L18.8752 21.4168H19.1827L19.1699 21.4969L18.8187 21.4981ZM18.3791 22.252L18.421 22.16L18.5726 22.1317L18.5885 22.2113L18.3791 22.252ZM18.067 23.1835L18.0877 23.0867L18.6374 22.8877L18.6511 22.9559L18.067 23.1835ZM21.3467 23.6461L21.2987 23.5913L22.2376 21.9987V22.1093L22.236 22.112L21.3467 23.6461ZM21.1003 23.2332L21.0425 23.2043L22.2369 21.8342V21.9167L22.2341 21.9199L21.1003 23.2332ZM20.5247 23.1965L20.4975 23.1284L22.1513 21.7987H22.238L20.5247 23.1965ZM20.2826 22.8289L20.212 22.7936L21.9754 21.7997H22.0863L20.2826 22.8289ZM20.0785 22.4385V22.3636L21.6526 21.7992H21.8189L20.0785 22.4385ZM19.9413 21.9792L19.9814 21.8988L19.9872 21.8979L21.5773 21.6343V21.6943L19.9413 21.9792ZM21.5757 21.5172L20.1996 21.5083L20.2133 21.4395L21.5757 21.4586V21.5172ZM21.526 24.367L21.4821 24.2959L21.4841 24.2907L22.2374 22.2896L22.2366 22.4514L21.526 24.367ZM22.5979 24.5998H22.5287L22.5316 23.2665H22.5931L22.5979 24.5998ZM22.0138 24.5586H21.9401L22.2369 23.0304L22.2411 23.2681H22.2512L22.0138 24.5586ZM20.6188 23.7817L20.5762 23.7321L20.8144 23.4592L20.8429 23.5235L20.6188 23.7817ZM17.9563 24.1586L17.9584 24.0595L17.9642 24.0563L18.9814 23.4815L19.002 23.5472L17.9563 24.1586ZM18.0707 25.2036L18.0518 25.1105L19.304 24.1073L19.3408 24.1551L18.0707 25.2036ZM18.4741 26.3069L18.4331 26.2264L18.4381 26.2206L19.8473 24.5964L19.8987 24.6293L19.8901 24.6393L18.4741 26.3069ZM19.2022 27.3307L19.1438 27.2645L19.148 27.2573L20.2126 25.4606L20.25 25.5129L20.2462 25.5193L19.2022 27.3307ZM20.1367 28.087L20.0622 28.0358L20.7951 26.1056L20.8492 26.1398L20.1367 28.087Z" fill="white"/>
<path d="M22.5537 19.2478C19.8364 19.2478 17.6258 21.4585 17.6258 24.1758C17.6258 26.8931 19.8364 29.1037 22.5537 29.1037C25.2711 29.1037 27.4817 26.8931 27.4817 24.1758C27.4817 21.4585 25.2711 19.2478 22.5537 19.2478ZM22.5537 29.3516C19.6998 29.3516 17.3779 27.0298 17.3779 24.1758C17.3779 21.3219 19.6998 19 22.5537 19C25.4077 19 27.7296 21.3219 27.7296 24.1758C27.7296 27.0297 25.4077 29.3516 22.5537 29.3516Z" fill="white"/>
<path d="M23.1338 25.9506C23.1282 25.9506 23.1223 25.9505 23.116 25.9505C23.1089 25.9505 23.1046 25.9488 23.103 25.9453C23.0995 25.9374 23.1114 25.9238 23.1239 25.9094C23.1286 25.9042 23.1331 25.8989 23.1372 25.8933C23.1507 25.8745 23.1718 25.8727 23.1984 25.8704C23.2013 25.8702 23.2042 25.8699 23.2071 25.8696C23.2148 25.8689 23.2193 25.8705 23.2211 25.8743C23.2254 25.8831 23.2111 25.9014 23.1972 25.919C23.1943 25.9228 23.1913 25.9264 23.1888 25.9298C23.1743 25.9491 23.1561 25.9506 23.1338 25.9506ZM25.1314 22.5498C25.1254 22.5766 25.1357 22.6621 25.1467 22.7362C25.1521 22.7729 25.1601 22.8401 25.1738 22.9055C25.1805 22.9373 25.1896 22.9715 25.1983 23.0026L25.4427 23.0025C25.4416 22.999 25.4406 22.9961 25.4398 22.9938C25.4284 22.9611 25.3322 22.687 25.3196 22.6599C25.3065 22.6325 25.2234 22.4125 25.2161 22.36C25.2135 22.3411 25.1962 22.3158 25.1856 22.3295C25.1687 22.3515 25.158 22.382 25.1501 22.4295C25.1424 22.4754 25.1378 22.5212 25.1314 22.5498ZM24.9211 23.0027L24.9451 23.0029L24.945 23.0023C24.9417 22.9905 24.9309 22.9947 24.9211 23.0027ZM20.1257 22.9633C20.1219 22.9695 20.1264 22.9841 20.133 23.0026L20.2272 23.0026C20.2119 22.9848 20.1966 22.9692 20.185 22.9616C20.1559 22.9426 20.1349 22.9484 20.1257 22.9633ZM19.6817 22.9176C19.6764 22.9348 19.6684 22.967 19.6587 23.0026H19.8713C19.8728 22.9951 19.874 22.9872 19.8748 22.9788C19.8868 22.8616 19.8899 22.7586 19.8885 22.7109C19.8877 22.6872 19.8894 22.6126 19.8935 22.5532C19.8977 22.4935 19.9046 22.4541 19.902 22.4397C19.8992 22.4242 19.9052 22.3963 19.8987 22.372C19.892 22.3475 19.8844 22.3222 19.8714 22.311C19.8622 22.303 19.8496 22.339 19.846 22.3482C19.839 22.3664 19.8064 22.492 19.8037 22.5126C19.8021 22.5243 19.7858 22.564 19.7732 22.6007C19.7612 22.6353 19.7494 22.6759 19.7477 22.6804C19.7478 22.6804 19.6946 22.8762 19.6817 22.9176ZM19.7097 21.8848C19.7097 21.8848 19.6659 21.9409 19.6402 21.9684C19.6144 21.996 19.6153 21.9903 19.5888 22.0293C19.5346 22.1087 19.443 22.2944 19.4293 22.3495C19.411 22.4234 19.3633 22.6298 19.3265 22.6942C19.3096 22.7237 19.2363 22.7287 19.2291 22.677C19.2205 22.6153 19.2747 22.4621 19.2922 22.4147C19.3186 22.3432 19.3531 22.2 19.3415 22.1171C19.3235 21.9895 19.3072 21.9705 19.3157 21.8398C19.3191 21.7889 19.3223 21.7753 19.3329 21.7254C19.3329 21.7254 19.3645 21.7797 19.3928 21.8076C19.4832 21.897 19.7097 21.8848 19.7097 21.8848ZM20.1968 21.1502C20.2143 21.1237 20.2248 21.1092 20.2443 21.0842C20.21 21.0744 20.1867 21.0747 20.1528 21.0857C20.1171 21.0973 20.1155 21.1051 20.0749 21.1419C20.0352 21.178 19.9798 21.2527 19.9399 21.3206L19.7868 21.5946C19.7289 21.6934 19.6771 21.7305 19.6445 21.7519C19.6281 21.7627 19.6025 21.7806 19.5909 21.7832C19.5854 21.7845 19.5695 21.7832 19.5695 21.7832C19.5695 21.7832 19.5365 21.7806 19.5072 21.7619C19.4795 21.7442 19.4531 21.713 19.4461 21.6941C19.4379 21.6722 19.4323 21.6267 19.441 21.5925C19.4455 21.5749 19.4646 21.5116 19.4645 21.511C19.4634 21.5043 19.4818 21.4416 19.4818 21.4416C19.4818 21.4416 19.5028 21.387 19.5055 21.367C19.5113 21.3236 19.5191 21.2043 19.5203 21.1342C19.5207 21.1077 19.5174 21.0789 19.4818 21.1094C19.4589 21.1291 19.4452 21.145 19.4358 21.1599C19.4262 21.1749 19.4148 21.2078 19.3972 21.2486C19.3797 21.2893 19.3529 21.341 19.3329 21.3824C19.3132 21.4231 19.2976 21.483 19.2793 21.5452C19.2609 21.6076 19.2478 21.6619 19.2385 21.6897C19.2204 21.7441 19.2134 21.9394 19.2163 21.9671C19.2169 21.9734 19.224 22.0144 19.2292 22.033C19.2343 22.0513 19.24 22.0647 19.2462 22.0889C19.2587 22.1369 19.2629 22.1788 19.2599 22.2188C19.2571 22.2581 19.2319 22.3396 19.2141 22.4061C19.1962 22.4729 19.1734 22.5442 19.1734 22.5442C19.1734 22.5442 19.163 22.5784 19.1476 22.6256C19.1326 22.6719 19.1161 22.7241 19.1005 22.7413C19.0817 22.762 19.0421 22.752 19.0298 22.7379C19.0239 22.7312 19.0026 22.7063 18.9988 22.7007C18.9835 22.6785 18.9437 22.6252 18.9361 22.6041C18.9337 22.5977 18.9183 22.5479 18.9175 22.5278C18.9166 22.5071 18.9167 22.4781 18.9158 22.4498C18.9138 22.3931 18.9156 22.3445 18.9072 22.3076C18.8903 22.2326 18.8303 22.0723 18.8192 22.05C18.8135 22.0385 18.8015 22.007 18.7869 21.9754C18.7722 21.9436 18.7584 21.923 18.7412 21.8958C18.7209 21.8636 18.6918 21.8395 18.67 21.8551C18.6602 21.8622 18.6644 21.885 18.6604 21.9127C18.6565 21.9394 18.6578 21.9983 18.6578 22.0172C18.6578 22.0557 18.6697 22.2252 18.6682 22.2752C18.6668 22.3251 18.6802 22.5304 18.6802 22.5617C18.6802 22.593 18.6923 22.7552 18.7022 22.8176C18.7117 22.8772 18.7528 22.9565 18.7761 23.0028H18.9136C18.8711 22.9632 18.8348 22.9222 18.822 22.8855C18.7957 22.8099 18.7728 22.7636 18.7698 22.6782C18.7669 22.5948 18.7708 22.454 18.7862 22.4172C18.8033 22.3765 18.8278 22.4155 18.8339 22.455C18.8395 22.4917 18.8323 22.5359 18.8577 22.6459C18.882 22.7516 18.949 22.8144 18.9929 22.8412C19.0387 22.8692 19.1072 22.8855 19.1326 22.8855C19.1693 22.8855 19.1878 22.9155 19.1922 22.9411C19.195 22.957 19.1967 22.9751 19.199 23.0028H19.346C19.3463 22.9072 19.3522 22.8459 19.3613 22.8041C19.3712 22.7593 19.3835 22.7366 19.3901 22.7042C19.4031 22.6405 19.4504 22.4978 19.4675 22.455C19.4847 22.4121 19.5269 22.2739 19.5908 22.1718C19.6395 22.0938 19.7233 22.0058 19.7376 21.9873C19.7518 21.9689 19.8946 21.7672 19.9273 21.7145C19.9595 21.6627 20.0225 21.4995 20.0425 21.4366C20.0529 21.4042 20.0883 21.3366 20.1272 21.2722C20.1666 21.2074 20.1666 21.1958 20.1968 21.1502ZM25.8508 22.6704C25.8385 22.6706 25.8467 22.6656 25.8359 22.6661C25.814 22.6673 25.7763 22.6378 25.7763 22.6378L25.7325 22.5186C25.7325 22.5186 25.6775 22.3647 25.6605 22.3193C25.5797 22.104 25.6022 22.1416 25.4493 21.9883C25.4 21.9391 25.4294 21.9098 25.4771 21.9167C25.5022 21.9204 25.5478 21.9287 25.573 21.9287C25.5838 21.9287 25.6367 21.8828 25.6565 21.8532C25.6824 21.8143 25.7208 21.7566 25.7206 21.7095C25.7204 21.6749 25.6968 21.5942 25.7285 21.5857C25.7999 21.5669 25.7957 21.7489 25.7842 21.789C25.7806 21.8016 25.7937 21.9589 25.7922 21.9684C25.7872 21.9985 25.7864 22.1049 25.7922 22.1717C25.7979 22.237 25.8303 22.4392 25.8359 22.4788C25.8429 22.5275 25.8638 22.6701 25.8508 22.6704ZM26.3854 21.7991C26.3837 21.7466 26.3718 21.7296 26.3345 21.7364C26.3099 21.7409 26.2998 21.7714 26.2939 21.7822C26.2817 21.8044 26.2714 21.8209 26.26 21.8415C26.2378 21.8817 26.2182 21.9631 26.194 22.0873C26.1697 22.2113 26.165 22.3493 26.1244 22.5617C26.1044 22.6668 26.0548 22.7022 26.0177 22.6837C26.0019 22.6759 25.9849 22.6721 25.9753 22.6599C25.9656 22.6475 25.9408 22.63 25.9363 22.6109C25.9126 22.5075 25.8945 22.439 25.8719 22.3854C25.8598 22.3567 25.8516 22.2859 25.8516 22.2381C25.8516 22.19 25.8533 22.1456 25.8533 22.1228C25.8533 22.0773 25.8736 21.8712 25.8736 21.8483C25.8736 21.8255 25.8601 21.6458 25.8601 21.6146C25.8601 21.5846 25.8498 21.5308 25.8245 21.4772C25.8117 21.4501 25.7959 21.4128 25.7771 21.3721C25.758 21.3311 25.7327 21.2909 25.7212 21.2434C25.7082 21.19 25.6755 21.0828 25.6465 21.0028C25.6408 20.9925 25.6245 20.9543 25.6093 20.9095C25.6093 20.9095 25.5818 20.8337 25.5737 20.835C25.5683 20.8359 25.5593 20.8412 25.5483 20.8536C25.538 20.8653 25.5299 20.8831 25.5229 20.8942C25.5096 20.9156 25.4927 21.0144 25.4941 21.0502C25.4955 21.0872 25.5206 21.2601 25.5262 21.2942C25.5276 21.3026 25.5333 21.3322 25.5415 21.3585L25.5703 21.4535C25.5909 21.5201 25.6102 21.5918 25.611 21.6196C25.6123 21.672 25.5955 21.7443 25.5567 21.7653C25.5363 21.7763 25.4955 21.7748 25.4771 21.7653C25.4593 21.7561 25.4372 21.7429 25.4178 21.7314C25.3956 21.7182 25.3741 21.6775 25.3619 21.6399C25.3494 21.6016 25.3445 21.5586 25.3381 21.5416C25.3256 21.5081 25.2525 21.3689 25.2313 21.3349C25.2206 21.3178 25.1921 21.2666 25.1618 21.2147C25.1315 21.1624 25.0974 21.099 25.0772 21.0807C25.0361 21.0439 24.9696 21.0283 24.9195 21.0197C24.8978 21.016 24.8795 21.0138 24.8721 21.0265C24.8682 21.0333 24.8628 21.0606 24.8603 21.0705C24.8563 21.0865 24.8749 21.1116 24.906 21.1621C24.936 21.211 24.9729 21.2708 25.0008 21.3332C25.0563 21.4569 25.1263 21.647 25.1364 21.7196C25.1463 21.7897 25.2415 21.9786 25.2924 22.0212C25.345 22.0654 25.4736 22.1655 25.5092 22.194C25.5472 22.2244 25.6324 22.4246 25.655 22.5092C25.6663 22.552 25.6921 22.6405 25.7194 22.7244C25.7464 22.8076 25.7694 22.8957 25.7702 22.9143C25.7707 22.9253 25.7685 22.9598 25.7649 23.0027L25.8594 23.0027C25.8556 22.9844 25.8539 22.9708 25.8756 22.949C25.8788 22.9458 25.887 22.9461 25.8971 22.9461C25.9037 22.9461 25.9136 22.9548 25.9211 22.9536C25.9446 22.9498 25.9682 22.9296 25.9954 22.9172C26.0573 22.889 26.1123 22.8346 26.1311 22.8134L26.1708 22.7577C26.1708 22.7577 26.288 22.6844 26.2503 22.7656L26.2265 22.8292C26.1885 22.905 26.1437 22.9281 26.0948 22.9967C26.0934 22.9987 26.092 23.0008 26.0905 23.0027L26.1692 23.0025C26.1988 22.961 26.2279 22.9191 26.2565 22.8769C26.2985 22.8138 26.3398 22.6763 26.3412 22.6549C26.3426 22.6322 26.3613 22.5033 26.3599 22.4278C26.3585 22.3523 26.371 22.1003 26.3768 22.0653C26.3825 22.0316 26.3873 21.8585 26.3854 21.7991ZM15.3466 30.922L15.4822 30.9231V30.9966L16.665 30.9957L16.6847 30.9895V31.1047C16.6847 31.1047 16.5928 31.1356 16.5629 31.1966C16.533 31.2577 16.5235 31.2518 16.5221 31.4557C16.5208 31.6596 16.521 31.9369 16.521 31.9571V33.3128C16.521 33.3128 16.5121 33.5292 16.5373 33.6052C16.5378 33.6069 16.2157 33.7216 16.2157 33.7216L15.8452 34.0002L15.324 33.3319C15.324 33.3319 15.2018 33.2177 15.2424 32.98C15.2762 32.7813 15.3353 32.7155 15.3655 32.6712C15.3955 32.6269 15.3868 32.646 15.3868 32.646L15.4546 32.6485L15.4358 32.7244C15.4358 32.7244 15.4257 32.7434 15.4596 32.7991C15.4935 32.8547 16.0461 33.523 16.0461 33.523C16.0461 33.523 16.065 33.5572 16.0662 33.5205C16.0675 33.4837 16.0612 32.8458 16.0612 32.8458L16.0599 32.1307L15.7284 32.1295L15.6983 32.1725L15.5978 32.5091L15.5953 31.799H15.746V31.8662L16.0474 31.8674L16.0487 31.532L16.0298 31.4383C16.0298 31.4383 16.0549 31.4345 16.1491 31.365C16.2434 31.2955 16.2509 31.2878 16.2509 31.2878L16.2434 31.2814C16.2434 31.2814 16.0122 31.3334 15.9758 31.3384C15.9393 31.3434 15.8841 31.3485 15.8652 31.3485C15.8464 31.3485 15.5123 31.3473 15.5123 31.3473L15.4847 31.3549L15.3453 31.7485L15.3466 30.922ZM17.4278 30.9201L17.6313 30.9973L17.3903 31.2814L17.3315 31.2626L17.4278 30.9201ZM17.7996 30.9188L18.0053 30.9946L17.7649 31.2814L17.7033 31.2611L17.7996 30.9188ZM20.6292 31.6624C20.6292 31.6624 20.6946 31.5839 20.7423 31.5106C20.79 31.4372 20.8553 31.341 20.8553 31.341L21.2044 31.465L21.1643 31.5814L21.1668 31.8599L21.4582 31.341H21.5561L21.7068 31.9003C21.7068 31.9003 21.7345 32.0825 21.6968 32.1788C21.6591 32.275 21.6114 32.3661 21.5511 32.4243C21.5198 32.4544 21.4889 32.4848 21.4583 32.5155L21.3728 32.4294C21.3728 32.4294 21.4583 32.3383 21.4608 32.2825C21.4633 32.2268 21.4382 32.1535 21.408 32.0471C21.3779 31.9409 21.3277 31.7915 21.3277 31.7915C21.3277 31.7915 21.3026 31.8244 21.2899 31.8472C21.2775 31.8699 21.1693 32.0573 21.1693 32.0573V33.1179L21.4231 33.1889L21.4558 33.0547L21.5964 33.1002L21.3251 33.5407L20.7499 33.3863C20.7499 33.3863 20.8001 33.3483 20.7976 33.0445C20.7951 32.7407 20.7951 31.7205 20.7951 31.7205L20.6292 31.6624ZM21.7897 31.6498L22.0032 31.3383L22.3925 31.4878C22.3925 31.4878 22.3499 31.5991 22.3499 31.6851C22.3499 31.7712 22.3523 31.9256 22.3523 31.9256L22.694 31.3383L23.2039 31.5206C23.2039 31.5206 23.1587 31.637 23.1587 31.756C23.1587 31.8749 23.1638 31.9712 23.1638 31.9712L23.4978 31.3358L24.0027 31.518C24.0027 31.518 23.9312 31.6643 23.9298 31.761C23.9274 31.9534 23.9349 33.1608 23.9349 33.1608L24.098 33.2089L23.9298 33.5356L23.4902 33.414C23.4902 33.414 23.5405 33.3255 23.543 33.1002C23.5455 32.8749 23.543 31.7636 23.543 31.7636L23.4124 31.7131L23.1561 32.1484L23.1612 33.1685L23.2993 33.2115L23.121 33.5356L22.7216 33.4292C22.7216 33.4292 22.7694 33.3634 22.7694 33.1179C22.7694 32.8723 22.7669 31.9407 22.7669 31.9407V31.7837L22.591 31.7129L22.3523 32.1154L22.3599 33.1786L22.4779 33.2165L22.3096 33.5356L21.9077 33.4292C21.9077 33.4292 21.958 33.3305 21.9604 33.1609C21.963 32.9913 21.9579 31.7358 21.9579 31.7358L21.7897 31.6498ZM25.8256 33.1469C25.8323 33.1469 26.015 33.2061 26.015 33.2061L25.8188 33.5314L25.3787 33.4176C25.3787 33.4176 25.4419 33.3469 25.4397 32.9695C25.4374 32.5921 25.437 31.7459 25.437 31.7459L25.2612 31.6775L25.4722 31.3333L25.8892 31.4978L25.8238 31.6497C25.8238 31.6497 25.8187 33.1469 25.8256 33.1469ZM25.7183 30.9005L25.9244 30.984L25.6757 31.27L25.6204 31.2523L25.7183 30.9005ZM26.6201 30.8979L26.8437 31.0397C26.8437 31.0397 26.9341 31.103 26.9995 31.0423C27.0647 30.9816 27.0672 30.9765 27.0672 30.9765L27.1426 31.0246L26.9316 31.308C26.9316 31.308 26.7858 31.384 26.708 31.3587C26.6301 31.3333 26.5472 31.2979 26.5472 31.2979L26.5422 32.1181L26.5448 33.761C26.5448 33.761 26.482 33.7584 26.4317 33.7837C26.3814 33.8091 26.3387 33.8344 26.3212 33.8799C26.3035 33.9255 26.3011 33.9862 26.3011 33.9862L26.1504 33.9837L26.1453 31.3917L26.1001 31.2246L26.3965 31.136L26.6201 30.8979Z" fill="white"/>
<path d="M27.3159 30.9761L27.3134 31.3304L27.6977 31.3279L27.5394 31.6342L27.3183 31.6367L27.3134 33.1454L27.5017 33.1985L27.3083 33.5302L26.8663 33.4087C26.8663 33.4087 26.929 33.2949 26.929 33.0694C26.929 32.8442 26.9264 31.6392 26.9264 31.6392H26.7833L27.047 31.3634L27.3159 30.9761ZM28.6786 31.6417C28.6786 31.6417 28.7441 31.5632 28.7918 31.4899C28.829 31.4331 28.8666 31.3766 28.9047 31.3203L29.2539 31.4443L29.2138 31.5608L29.2162 31.8393L29.5077 31.3203H29.6056L29.7564 31.8797C29.7564 31.8797 29.784 32.0619 29.7463 32.1581C29.7086 32.2543 29.6609 32.3455 29.6006 32.4036C29.5403 32.4618 29.5077 32.4948 29.5077 32.4948L29.4223 32.4087C29.4223 32.4087 29.5077 32.3175 29.5102 32.2619C29.5127 32.2062 29.4876 32.1329 29.4575 32.0265C29.4272 31.9202 29.377 31.7708 29.377 31.7708C29.377 31.7708 29.352 31.8037 29.3393 31.8266C29.3268 31.8493 29.2188 32.0367 29.2188 32.0367V33.0972L29.4725 33.1682L29.5051 33.034L29.6458 33.0795L29.3744 33.52L28.7992 33.3656C28.7992 33.3656 28.8496 33.3276 28.8471 33.0238C28.8445 32.72 28.8445 31.6999 28.8445 31.6999L28.6786 31.6417ZM16.7922 33.4413L16.8174 33.3178C16.8174 33.3178 16.8174 32.3397 16.8157 32.2805C16.8141 32.2213 16.7788 32.1283 16.7788 32.1283L17.0692 32.0184C17.0692 32.0184 17.0725 32.0184 17.0322 31.9947C16.9362 31.9383 16.8677 31.8712 16.8476 31.8458C16.8275 31.8203 16.7871 31.7476 16.7871 31.7476L17.1229 31.5786L17.316 31.3502L17.9977 31.6023C17.9977 31.6023 17.9794 31.636 17.9624 31.6631C17.9457 31.6901 17.9306 31.7495 17.9306 31.7495L17.9339 33.1554L17.9624 33.1707L18.0984 33.2063L17.8919 33.5379L17.5176 33.438C17.5176 33.438 17.5411 33.2011 17.5427 33.1758C17.5444 33.1504 17.5326 33.0929 17.5326 33.0929L17.447 33.2266L17.2707 33.5414L16.7922 33.4413ZM17.2102 31.7052C17.2102 31.7052 17.2198 31.7395 17.2303 31.7594C17.2599 31.8152 17.2955 31.8389 17.353 31.8644C17.4045 31.8871 17.4394 31.8877 17.4957 31.8863C17.5644 31.8846 17.6668 31.8439 17.6668 31.8439L17.2102 31.7052ZM17.2086 33.118L17.3748 33.1723L17.5376 32.8897L17.5359 31.9692L17.2102 32.1282L17.2086 33.118ZM18.2025 31.7052L18.5114 31.5682L18.6995 31.3431L19.4348 31.592C19.4348 31.592 19.3862 31.646 19.3811 31.717C19.3761 31.7882 19.3761 32.4886 19.3761 32.4886L19.3794 33.6577L19.1292 33.7322L18.9026 33.9656C18.9026 33.9656 18.654 33.8438 18.5147 33.8421C18.3754 33.8404 18.3552 33.8455 18.3166 33.876C18.2779 33.9064 18.2294 33.9944 18.2294 33.9944L18.137 33.9606C18.137 33.9606 18.2192 33.7981 18.3065 33.7102C18.3938 33.6221 18.4677 33.563 18.5332 33.5411C18.5988 33.5191 18.634 33.5173 18.634 33.5173L18.6273 33.4987L18.2059 33.3853C18.2059 33.3853 18.2427 33.277 18.2478 33.1789C18.2527 33.0807 18.2478 32.4529 18.2478 32.4529L18.251 31.8539L18.2025 31.7052ZM18.6818 33.5069L18.9919 33.5815V32.968L18.6818 33.5069ZM18.6307 31.7137L18.634 33.1231L18.7717 33.1637L18.9916 32.7645V32.103C18.9916 32.042 18.9546 31.9574 18.9546 31.9574L19.047 31.8557L18.6307 31.7137ZM19.6394 33.358L19.6771 33.1605C19.6771 33.1605 19.6797 32.1733 19.6771 31.9886C19.6746 31.8037 19.6369 31.6924 19.6369 31.6924L19.9031 31.6215L20.1443 31.3431L20.6367 31.857L20.5764 31.9303L20.0715 32.8391L20.0765 33.0847L20.4734 33.1859L20.5186 33.0618L20.6417 33.0998L20.3905 33.5454L19.6394 33.358ZM20.0664 31.8063L20.0689 32.6644L20.3528 32.1354L20.0664 31.8063ZM24.2212 33.3483L24.2588 33.1509C24.2588 33.1509 24.2613 32.1636 24.2588 31.9788C24.2563 31.7941 24.2186 31.6826 24.2186 31.6826L24.4849 31.6117L24.726 31.3333L25.2184 31.8471L25.158 31.9204L24.6531 32.8292L24.6582 33.0747L25.0551 33.176L25.1004 33.052L25.2234 33.09L24.9721 33.5354L24.2212 33.3483ZM24.6483 31.7966L24.6508 32.6547L24.9346 32.1257L24.6483 31.7966Z" fill="white"/>
<path d="M27.7051 33.3373L27.7428 33.1399C27.7428 33.1399 27.7454 32.1526 27.7428 31.9678C27.7403 31.7831 27.7026 31.6716 27.7026 31.6716L27.9688 31.6008L28.21 31.3223L28.7024 31.8362L28.642 31.9096L28.1372 32.8183L28.1423 33.0638L28.5391 33.1651L28.5843 33.0411L28.7074 33.0791L28.4562 33.5246L27.7051 33.3373ZM28.1321 31.7857L28.1346 32.6438L28.4186 32.1147L28.1321 31.7857Z" fill="white"/>
</g>
</g>
<defs>
<clipPath id="clip0_608_571">
<rect width="45" height="45" fill="white"/>
</clipPath>
<clipPath id="clip1_608_571">
<rect width="15" height="15" fill="white" transform="translate(15 19)"/>
</clipPath>
</defs>
</svg>
