<svg width="45" height="45" viewBox="0 0 45 45" fill="none" xmlns="http://www.w3.org/2000/svg">
<g clip-path="url(#clip0_608_955)">
<path d="M12.6279 44.9998H32.4451C32.5183 44.9998 32.5183 44.7804 32.5183 44.7072C32.5183 44.0491 28.0576 42.0747 22.5 42.0747C16.9424 42.0747 12.4817 44.0491 12.4817 44.7072C12.4817 44.7804 12.5548 44.9998 12.6279 44.9998Z" fill="#FFFCEE"/>
<path d="M23.6699 43.4643L22.4999 43.8299L21.3298 43.4643L21.9148 28.9122L22.4999 28.0347L23.0849 28.9122L23.6699 43.4643Z" fill="#FFFCEE"/>
<path d="M22.5 28.0347L23.085 28.9122L23.67 43.4643L22.5 43.8299" fill="#EDE9D9"/>
<path d="M14.661 43.937C14.7103 44.1742 15.9683 44.1135 17.471 43.8013C18.9736 43.4892 20.1517 43.0438 20.1024 42.8065C20.0531 42.5693 18.7951 42.63 17.2925 42.9422C15.7899 43.2543 14.6117 43.6997 14.661 43.937Z" fill="white"/>
<path d="M3.34106 11.3618L22.5001 30.5209L41.6592 11.3618H3.34106Z" fill="#FFFCEE"/>
<path d="M16.2842 11.3618L22.4999 30.5209L41.659 11.3618H16.2842Z" fill="#EDE9D9"/>
<path d="M6.26611 11.3618L22.5001 27.5958L38.7341 11.3618H6.26611Z" fill="#E8E3CF"/>
<path d="M19.7944 11.3618L22.5001 27.5958L38.7341 11.3618H19.7944Z" fill="#D8D2BA"/>
<path d="M11.8235 16.481L22.4999 27.1574L33.1763 16.481H11.8235Z" fill="#0DBC69"/>
<path d="M20.7449 16.481L22.4999 27.1574L33.1763 16.481H20.7449Z" fill="#00A057"/>
<path d="M32.3719 45.0001C32.445 45.0001 32.445 44.7807 32.445 44.7076C32.445 44.0495 27.9843 42.002 22.4268 42.002V45.0001H32.3719Z" fill="#EDE9D9"/>
<path d="M27.4726 21.8921C27.3994 22.1115 27.18 22.1846 26.9607 22.1115C26.7413 22.0384 26.6682 21.819 26.7413 21.5996L35.297 0.246801C35.3702 0.0274223 35.5896 -0.0457038 35.8089 0.0274223C36.0283 0.100548 36.1014 0.319927 36.0283 0.539305L27.4726 21.8921Z" fill="#0DBC69"/>
<path d="M33.4255 7.03288L32.6787 6.73389L31.4283 9.85701L32.1751 10.156L33.4255 7.03288Z" fill="#038443"/>
<path d="M33.3958 8.65643C34.8094 8.65643 35.9553 7.51054 35.9553 6.09701C35.9553 4.68349 34.8094 3.5376 33.3958 3.5376C31.9823 3.5376 30.8364 4.68349 30.8364 6.09701C30.8364 7.51054 31.9823 8.65643 33.3958 8.65643Z" fill="#A51919"/>
<path d="M35.7358 5.07324C36.3208 6.38951 35.6626 7.92516 34.3464 8.51017C33.0301 9.09518 31.4944 8.43704 30.9094 7.12077" fill="#8C0303"/>
<path d="M33.7639 4.07922C33.6846 3.89353 33.1988 3.92303 32.6789 4.14512C32.1589 4.36722 31.8017 4.6978 31.881 4.88349C31.9604 5.06919 32.4462 5.03968 32.9661 4.81759C33.4861 4.5955 33.8433 4.26492 33.7639 4.07922Z" fill="#E25454"/>
<path d="M30.6645 13.9171L29.918 13.6177L28.6656 16.7396L29.4122 17.0391L30.6645 13.9171Z" fill="#038443"/>
<path d="M30.617 15.53C32.0306 15.53 33.1764 14.3841 33.1764 12.9705C33.1764 11.557 32.0306 10.4111 30.617 10.4111C29.2035 10.4111 28.0576 11.557 28.0576 12.9705C28.0576 14.3841 29.2035 15.53 30.617 15.53Z" fill="#A51919"/>
<path d="M32.9569 11.9468C33.5419 13.263 32.8838 14.7987 31.5675 15.3837C30.2513 15.9687 28.7156 15.3106 28.1306 13.9943" fill="#8C0303"/>
<path d="M30.9688 10.9576C30.8895 10.7719 30.4037 10.8014 29.8837 11.0235C29.3638 11.2456 29.0066 11.5762 29.0859 11.7619C29.1652 11.9476 29.651 11.9181 30.1709 11.696C30.6909 11.4739 31.0481 11.1433 30.9688 10.9576Z" fill="#E25454"/>
<path d="M38.7341 12.4589C38.7341 12.6051 38.5879 12.8245 38.4416 12.8245H6.55862C6.41237 12.8245 6.26611 12.6051 6.26611 12.4589C6.26611 12.3126 6.41237 12.0933 6.55862 12.0933H38.3685C38.5879 12.0933 38.7341 12.3126 38.7341 12.4589Z" fill="#FFFCEE"/>
<path d="M20.8912 24.2323L14.4561 17.7241L18.478 19.1135L20.8912 24.2323Z" fill="#48EF97"/>
</g>
<defs>
<clipPath id="clip0_608_955">
<rect width="45" height="45" fill="white"/>
</clipPath>
</defs>
</svg>
