<svg width="45" height="45" viewBox="0 0 45 45" fill="none" xmlns="http://www.w3.org/2000/svg">
<g clip-path="url(#clip0_608_916)">
<path d="M28.3065 3.62891H16.6936V7.25794H28.3065V3.62891Z" fill="#39A8A2"/>
<path d="M31.2096 42.1693C31.2096 43.6935 30.0483 45 28.5242 45H16.4758C14.9516 45 13.7903 43.6935 13.7903 42.1693V13.0645C13.7903 11.5403 15.1693 10.1613 16.6935 6.53223H28.3064C29.8306 10.1613 31.2096 11.5403 31.2096 13.0645V42.1693Z" fill="#5FD6D6"/>
<path d="M16.6936 6.53223H28.3065C29.8307 10.1613 31.2097 11.5403 31.2097 13.0645V30.4838" fill="#49C4C1"/>
<path d="M29.7581 3.41129C29.7581 3.91935 29.5403 4.35484 29.0323 4.35484H15.9677C15.4597 4.35484 15.2419 3.91935 15.2419 3.41129V0.943548C15.2419 0.435484 15.4597 0 15.9677 0H29.0323C29.5403 0 29.7581 0.435484 29.7581 0.943548V3.41129Z" fill="#F2B233"/>
<path d="M15.2419 0.943548C15.2419 0.435484 15.4597 0 15.9677 0H29.0323C29.5403 0 29.7581 0.435484 29.7581 0.943548V3.41129C29.7581 3.91935 29.5403 4.35484 29.0323 4.35484" fill="#E08A22"/>
<path d="M29.6854 16.4033C28.6693 17.0565 27.4354 17.492 26.129 17.492C24.8225 17.492 23.5887 17.0565 22.5 16.4033C21.4838 17.0565 20.25 17.492 18.8709 17.492C17.5645 17.492 16.3306 17.0565 15.3145 16.4033C14.8064 16.6936 14.5161 16.984 13.7903 17.1291V42.0969C13.7903 43.6211 14.9516 44.9275 16.4758 44.9275H28.4516C29.9758 44.9275 31.1371 43.6211 31.1371 42.0969V17.2017C30.4838 16.984 30.1935 16.7662 29.6854 16.4033Z" fill="white"/>
<path d="M29.6854 17.9272C28.6693 18.5805 27.4354 19.016 26.129 19.016C24.8225 19.016 23.5887 18.5805 22.5 17.9272C21.4838 18.5805 20.25 19.016 18.8709 19.016C17.5645 19.016 16.3306 18.5805 15.3145 17.9272C14.8064 18.2176 14.5161 18.5079 13.7903 18.6531V42.0966C13.7903 43.6208 14.9516 44.9272 16.4758 44.9272H28.4516C29.9758 44.9272 31.1371 43.6208 31.1371 42.0966V18.7256C30.4838 18.5079 30.1935 18.2901 29.6854 17.9272Z" fill="#EDF7F6"/>
<path d="M28.5242 44.9998C30.0484 44.9998 31.2097 43.6933 31.2097 42.1691V17.2014C30.4839 16.9837 30.1935 16.7659 29.6855 16.4756C28.6694 17.1288 27.4355 17.5643 26.129 17.5643C24.8226 17.5643 23.5161 17.1288 22.5 16.4756" fill="#D8EFEE"/>
<path d="M22.5 25.1129L21.0483 23.5161V29.5403L22.5725 31.1371H22.4274L23.9516 29.5403V23.5161L22.5 25.1129Z" fill="#F7D772"/>
<path d="M22.5001 31.1371H22.4275L23.9517 29.5403V23.5161L22.4275 25.1129" fill="#F2B233"/>
<path d="M20.8307 23.2256H16.6936V33.3869H21.0484V29.5401L17.9275 26.3466L20.8307 23.2256Z" fill="#F7D772"/>
<path d="M24.1694 23.2256L27.0726 26.3466L23.9517 29.5401V33.3869H28.3065V23.2256H24.1694Z" fill="#EF9F35"/>
<path d="M23.9517 33.3869H28.3065V23.2256" fill="#E08A22"/>
<path d="M15.9677 41.4437C15.9677 41.8066 15.8952 42.0969 15.6048 42.0969C15.3145 42.0969 15.2419 41.8066 15.2419 41.4437V18.2904C15.2419 17.9275 15.3145 17.6372 15.6048 17.6372C15.8952 17.6372 15.9677 17.9275 15.9677 18.2904V41.4437Z" fill="white"/>
<path d="M15.9677 15.4596C15.9677 15.5322 15.8952 15.5322 15.6048 15.5322C15.3145 15.5322 15.2419 15.4596 15.2419 15.4596V12.1209C15.2419 12.0483 15.3145 12.0483 15.6048 12.0483C15.8952 12.0483 15.9677 12.1209 15.9677 12.1209V15.4596Z" fill="#A2EDE9"/>
<path d="M17.7823 3.33854C18.103 3.33854 18.3629 3.07857 18.3629 2.75789C18.3629 2.43721 18.103 2.17725 17.7823 2.17725C17.4616 2.17725 17.2017 2.43721 17.2017 2.75789C17.2017 3.07857 17.4616 3.33854 17.7823 3.33854Z" fill="#39A8A2"/>
<path d="M20.9032 3.33854C21.2238 3.33854 21.4838 3.07857 21.4838 2.75789C21.4838 2.43721 21.2238 2.17725 20.9032 2.17725C20.5825 2.17725 20.3225 2.43721 20.3225 2.75789C20.3225 3.07857 20.5825 3.33854 20.9032 3.33854Z" fill="#39A8A2"/>
<path d="M24.0968 3.33854C24.4174 3.33854 24.6774 3.07857 24.6774 2.75789C24.6774 2.43721 24.4174 2.17725 24.0968 2.17725C23.7761 2.17725 23.5161 2.43721 23.5161 2.75789C23.5161 3.07857 23.7761 3.33854 24.0968 3.33854Z" fill="#39A8A2"/>
<path d="M27.2179 3.33854C27.5385 3.33854 27.7985 3.07857 27.7985 2.75789C27.7985 2.43721 27.5385 2.17725 27.2179 2.17725C26.8972 2.17725 26.6372 2.43721 26.6372 2.75789C26.6372 3.07857 26.8972 3.33854 27.2179 3.33854Z" fill="#39A8A2"/>
<path d="M29.0323 0.362903C29.0323 0.580645 28.8871 0.725806 28.6694 0.725806H16.3307C16.1129 0.725806 15.9678 0.580645 15.9678 0.362903C15.9678 0.145161 16.1129 0 16.3307 0H28.6694C28.8871 0 29.0323 0.145161 29.0323 0.362903Z" fill="#F2B233"/>
</g>
<defs>
<clipPath id="clip0_608_916">
<rect width="45" height="45" fill="white"/>
</clipPath>
</defs>
</svg>
