<svg width="45" height="45" viewBox="0 0 45 45" fill="none" xmlns="http://www.w3.org/2000/svg">
<path d="M33.2135 4.65234H11.7866V41.0207H33.2135V4.65234Z" fill="#459D2F"/>
<path d="M33.2134 4.63555H11.7869L13.36 1.58838H31.641L33.2134 4.63555Z" fill="#459D2F"/>
<path d="M11.7869 41.0039H33.2134L31.641 44.0511H13.36L11.7869 41.0039Z" fill="#B5B5B5"/>
<path d="M13.6216 41.0039H33.2132L31.6409 44.0511H14.1778L13.6216 41.0039Z" fill="#A0A0A0"/>
<path d="M13.3601 1.58838H31.6411L33.2135 4.63555" fill="#459D2F"/>
<path d="M11.7869 4.65234H33.2134V41.0203" fill="#459D2F"/>
<path d="M30.8535 12.8433H14.1445V32.8296H30.8535V12.8433Z" fill="white"/>
<path d="M30.8546 12.8433H16.7683V32.8296H30.8546V12.8433Z" fill="#CAEDE8"/>
<path d="M32.2308 0.835402C32.2308 1.29683 31.8561 1.6708 31.3954 1.6708H13.6057C13.1435 1.6708 12.7688 1.29613 12.7688 0.835402C12.7688 0.373975 13.1443 0 13.6057 0H31.3953C31.856 0.000703126 32.2308 0.373975 32.2308 0.835402Z" fill="#B5B5B5"/>
<path d="M13.6055 0.000488281H31.3951C31.8558 0.000488281 32.2305 0.374464 32.2305 0.83589C32.2305 1.29732 31.8558 1.67129 31.3951 1.67129" fill="#A0A0A0"/>
<path d="M32.3042 44.4846C32.3042 44.7697 32.0731 45 31.7888 45H13.2112C12.9262 45 12.6958 44.7697 12.6958 44.4846C12.6958 44.1996 12.9262 43.9692 13.2112 43.9692H31.7888C32.0731 43.9692 32.3042 44.2003 32.3042 44.4846Z" fill="#B5B5B5"/>
<path d="M14.2449 43.9692H31.7888C32.0732 43.9692 32.3042 44.1996 32.3042 44.4846C32.3042 44.7697 32.0732 45 31.7888 45" fill="#A0A0A0"/>
<path d="M15.5877 38.334C15.5877 38.7313 15.264 39.0543 14.8667 39.0543C14.4687 39.0543 14.1458 38.7313 14.1458 38.334V34.5323C14.1458 34.135 14.4687 33.812 14.8667 33.812C15.264 33.812 15.5877 34.1349 15.5877 34.5323V38.334Z" fill="#459D2F"/>
<path d="M18.6281 8.80117C19.0058 8.80117 19.3119 8.49503 19.3119 8.11738C19.3119 7.73974 19.0058 7.43359 18.6281 7.43359C18.2505 7.43359 17.9443 7.73974 17.9443 8.11738C17.9443 8.49503 18.2505 8.80117 18.6281 8.80117Z" fill="#459D2F"/>
<path d="M22.5007 8.80117C22.8783 8.80117 23.1845 8.49503 23.1845 8.11738C23.1845 7.73974 22.8783 7.43359 22.5007 7.43359C22.123 7.43359 21.8169 7.73974 21.8169 8.11738C21.8169 8.49503 22.123 8.80117 22.5007 8.80117Z" fill="#459D2F"/>
<path d="M26.373 8.80117C26.7506 8.80117 27.0568 8.49503 27.0568 8.11738C27.0568 7.73974 26.7506 7.43359 26.373 7.43359C25.9954 7.43359 25.6892 7.73974 25.6892 8.11738C25.6892 8.49503 25.9954 8.80117 26.373 8.80117Z" fill="#459D2F"/>
<path d="M17.4158 24.0455C17.2295 24.0455 17.0496 24.0228 16.8763 23.9772C16.7051 23.9296 16.5654 23.8689 16.457 23.7952L16.6683 23.3207C16.7701 23.3857 16.8871 23.4399 17.0193 23.4832C17.1536 23.5244 17.2869 23.545 17.419 23.545C17.5079 23.545 17.5794 23.5374 17.6335 23.5223C17.6877 23.5049 17.7267 23.4832 17.7505 23.4572C17.7765 23.4291 17.7895 23.3966 17.7895 23.3597C17.7895 23.3077 17.7657 23.2666 17.718 23.2362C17.6704 23.2059 17.6086 23.181 17.5328 23.1615C17.457 23.142 17.3725 23.1225 17.2793 23.103C17.1883 23.0835 17.0962 23.0586 17.003 23.0282C16.912 22.9979 16.8286 22.9589 16.7528 22.9112C16.677 22.8614 16.6152 22.7975 16.5675 22.7195C16.5199 22.6393 16.496 22.5386 16.496 22.4172C16.496 22.2807 16.5329 22.1572 16.6065 22.0467C16.6824 21.9362 16.795 21.8474 16.9445 21.7802C17.094 21.7131 17.2804 21.6795 17.5035 21.6795C17.653 21.6795 17.7993 21.6968 17.9423 21.7315C18.0875 21.764 18.2164 21.8127 18.329 21.8777L18.1308 22.3555C18.0225 22.297 17.9152 22.2537 17.809 22.2255C17.7029 22.1952 17.6 22.18 17.5003 22.18C17.4115 22.18 17.34 22.1897 17.2858 22.2093C17.2316 22.2266 17.1926 22.2504 17.1688 22.2807C17.145 22.3111 17.133 22.3457 17.133 22.3847C17.133 22.4346 17.1558 22.4747 17.2013 22.505C17.249 22.5332 17.3107 22.557 17.3865 22.5765C17.4645 22.5938 17.549 22.6122 17.64 22.6317C17.7332 22.6512 17.8253 22.6762 17.9163 22.7065C18.0095 22.7347 18.094 22.7737 18.1698 22.8235C18.2456 22.8712 18.3063 22.9351 18.3518 23.0152C18.3995 23.0932 18.4233 23.1918 18.4233 23.311C18.4233 23.4432 18.3854 23.5656 18.3095 23.6782C18.2359 23.7887 18.1243 23.8776 17.9748 23.9447C17.8275 24.0119 17.6411 24.0455 17.4158 24.0455ZM18.7205 24V21.725H19.7605C19.9685 21.725 20.1473 21.7586 20.2968 21.8257C20.4485 21.8929 20.5655 21.9904 20.6478 22.1182C20.7301 22.2439 20.7713 22.3934 20.7713 22.5667C20.7713 22.7379 20.7301 22.8863 20.6478 23.012C20.5655 23.1377 20.4485 23.2352 20.2968 23.3045C20.1473 23.3717 19.9685 23.4052 19.7605 23.4052H19.078L19.364 23.1257V24H18.7205ZM19.364 23.194L19.078 22.8982H19.7215C19.8559 22.8982 19.9555 22.869 20.0205 22.8105C20.0877 22.752 20.1213 22.6707 20.1213 22.5667C20.1213 22.4606 20.0877 22.3782 20.0205 22.3197C19.9555 22.2612 19.8559 22.232 19.7215 22.232H19.078L19.364 21.9362V23.194ZM21.085 24V21.725H22.125C22.333 21.725 22.5118 21.7586 22.6613 21.8257C22.813 21.8929 22.93 21.9904 23.0123 22.1182C23.0946 22.2439 23.1358 22.3934 23.1358 22.5667C23.1358 22.7379 23.0946 22.8863 23.0123 23.012C22.93 23.1355 22.813 23.2308 22.6613 23.298C22.5118 23.363 22.333 23.3955 22.125 23.3955H21.4425L21.7285 23.1257V24H21.085ZM22.4923 24L21.9268 23.1712H22.6125L23.1813 24H22.4923ZM21.7285 23.194L21.4425 22.8982H22.086C22.2204 22.8982 22.32 22.869 22.385 22.8105C22.4522 22.752 22.4858 22.6707 22.4858 22.5667C22.4858 22.4606 22.4522 22.3782 22.385 22.3197C22.32 22.2612 22.2204 22.232 22.086 22.232H21.4425L21.7285 21.9362V23.194ZM23.4908 24V21.725H24.1343V24H23.4908ZM25.0764 24V22.2352H24.3776V21.725H26.4154V22.2352H25.7199V24H25.0764ZM27.2466 22.6057H28.3029V23.0867H27.2466V22.6057ZM27.2921 23.5027H28.4816V24H26.6551V21.725H28.4394V22.2222H27.2921V23.5027Z" fill="black"/>
</svg>
