<svg width="45" height="45" viewBox="0 0 45 45" fill="none" xmlns="http://www.w3.org/2000/svg">
<g clip-path="url(#clip0_608_621)">
<path d="M25.4033 9.50783V3.62891H19.5969V9.50783C16.6937 10.0885 14.5164 12.6287 14.5164 15.7497V41.5879C14.5164 45.0717 17.4921 44.9991 21.0485 44.9991H23.9517C27.4355 44.9991 30.4838 45.1443 30.4838 41.5879V15.8222C30.4838 12.7013 28.3064 10.0885 25.4033 9.50783Z" fill="#6ADFE2"/>
<path d="M21.0485 44.9991H23.9517C27.4355 44.9991 30.4838 45.1443 30.4838 41.5879V15.8222C30.4838 12.7013 28.3064 10.0885 25.4033 9.58041V3.62891H19.5969V9.43525" fill="#5FD6D6"/>
<path d="M30.3387 15.7497C30.3387 12.6287 28.3064 10.0885 25.4033 9.50783V3.62891H19.5969V9.43525" fill="#4BC6C3"/>
<path d="M25.4033 9.43525V3.62891H19.5969" fill="#3EAFAA"/>
<path d="M14.5164 20.3223V41.588C14.5164 45.0718 17.4921 44.9992 21.0485 44.9992H23.9517C27.4355 44.9992 30.4838 45.1444 30.4838 41.588V20.3223H14.5164Z" fill="#59C9C9"/>
<path d="M21.0485 44.9992H23.9517C27.4355 44.9992 30.4838 45.1444 30.4838 41.588V20.3223H14.5164" fill="#42B2AF"/>
<path d="M22.5001 15.3141C23.6625 15.3141 24.6049 14.3717 24.6049 13.2093C24.6049 12.0468 23.6625 11.1045 22.5001 11.1045C21.3376 11.1045 20.3953 12.0468 20.3953 13.2093C20.3953 14.3717 21.3376 15.3141 22.5001 15.3141Z" fill="#A9EDED"/>
<path d="M27.5805 27.5801H17.4194V28.3059H27.5805V27.5801Z" fill="#A9EDED"/>
<path d="M27.5805 29.0317H17.4194V29.7575H27.5805V29.0317Z" fill="#A9EDED"/>
<path d="M27.5805 30.4834H17.4194V31.2092H27.5805V30.4834Z" fill="#A9EDED"/>
<path d="M27.5805 31.9346H17.4194V32.6604H27.5805V31.9346Z" fill="#A9EDED"/>
<path d="M30.4838 19.5962V20.322H14.5164V19.5962H30.4838Z" fill="#A9EDED"/>
<path d="M22.5001 18.8707L24.8952 21.3384L26.2017 20.0319L22.5001 16.2578L18.7986 20.0319L20.105 21.3384L22.5001 18.8707Z" fill="#004A56"/>
<path d="M22.5001 23.8061L20.105 21.3384L18.7986 22.6448L22.5001 26.4189L26.2017 22.6448L24.8952 21.3384L22.5001 23.8061Z" fill="#004A56"/>
<path d="M15.968 40.4266C15.968 40.7169 15.8954 40.9347 15.6051 40.9347C15.3148 40.9347 15.2422 40.7169 15.2422 40.4266V21.9915C15.2422 21.7011 15.3148 21.4834 15.6051 21.4834C15.8954 21.4834 15.968 21.7011 15.968 21.9915V40.4266Z" fill="#71D8D5"/>
<path d="M15.968 18.8706C15.968 18.9431 15.8954 19.0157 15.6051 19.0157C15.3148 19.0157 15.2422 18.9431 15.2422 18.8706V14.7335C15.2422 14.661 15.3148 14.5884 15.6051 14.5884C15.8954 14.5884 15.968 14.661 15.968 14.7335V18.8706Z" fill="#98EDE8"/>
<path d="M26.129 2.68544C26.129 3.12091 25.7661 3.62897 25.3307 3.62897H19.6695C19.234 3.62897 18.8711 3.12091 18.8711 2.68544V0.653214C18.8711 0.217738 19.234 0 19.6695 0H25.3307C25.7661 0 26.129 0.217738 26.129 0.653214V2.68544Z" fill="#7A8786"/>
<path d="M18.9436 0.653214C18.9436 0.217738 19.2339 0 19.6694 0H25.3306C25.7661 0 26.129 0.217738 26.129 0.653214V2.68544C26.129 3.12091 25.7661 3.41123 25.4032 3.41123" fill="#65706F"/>
<path d="M25.4033 0.508055C25.4033 0.580635 25.2581 0.725793 25.1855 0.725793H19.8872C19.7421 0.725793 19.5969 0.580635 19.5969 0.508055V0.217738C19.5969 0.145159 19.7421 0 19.8147 0H25.113C25.2581 0 25.4033 0.145159 25.4033 0.217738V0.508055Z" fill="#95A09F"/>
</g>
<defs>
<clipPath id="clip0_608_621">
<rect width="45" height="45" fill="white"/>
</clipPath>
</defs>
</svg>
