<svg width="45" height="45" viewBox="0 0 45 45" fill="none" xmlns="http://www.w3.org/2000/svg">
<path d="M25.2372 21.0032C25.2372 22.5154 24.0113 23.741 22.4994 23.741C20.9879 23.741 19.762 22.5154 19.762 21.0032V4.83216C19.762 3.31992 20.9879 2.09473 22.4994 2.09473C24.0116 2.09473 25.2372 3.32027 25.2372 4.83216V21.0032Z" fill="#305520"/>
<path d="M30.4785 40.2251C30.4785 45.416 26.9059 44.9917 22.4993 44.9917C18.0932 44.9917 14.5212 45.416 14.5212 40.2251V21.3173C14.5212 16.1268 18.0935 11.9189 22.4993 11.9189C26.9061 11.9189 30.4785 16.1268 30.4785 21.3173V40.2251Z" fill="#305520"/>
<path d="M26.7543 13.3677C28.0063 15.0275 28.7674 17.2114 28.7674 19.6061V38.5142C28.7674 43.7048 25.1954 43.2809 20.7893 43.2809C18.4844 43.2809 16.41 43.395 14.9529 42.7632C16.028 45.2558 18.9996 44.9915 22.4996 44.9915C26.9064 44.9915 30.4788 45.4157 30.4788 40.2248V21.3171C30.4787 17.9693 28.9915 15.0324 26.7543 13.3677Z" fill="#396624"/>
<path d="M26.3593 2.20719C26.3593 3.42658 25.3708 4.41473 24.1517 4.41473H20.8479C19.6289 4.41473 18.6404 3.42658 18.6404 2.20719C18.6404 0.98815 19.6289 0 20.8479 0H24.1517C25.3708 0 26.3593 0.98815 26.3593 2.20719Z" fill="#396624"/>
<path d="M30.4785 23.7402H14.542V34.2563H30.4785V23.7402Z" fill="#EBEACC"/>
<path d="M30.4782 23.7402H28.7668V34.2563H30.4782V23.7402Z" fill="#D9D9D9"/>
<path d="M22.5102 32.848C24.636 32.848 26.3593 31.1248 26.3593 28.999C26.3593 26.8732 24.636 25.1499 22.5102 25.1499C20.3844 25.1499 18.6611 26.8732 18.6611 28.999C18.6611 31.1248 20.3844 32.848 22.5102 32.848Z" fill="#C81212"/>
</svg>
