<svg width="45" height="45" viewBox="0 0 45 45" fill="none" xmlns="http://www.w3.org/2000/svg">
<path d="M29.0655 27.4167C29.4984 26.9838 29.8592 26.3345 29.8592 25.6851C29.8592 24.9636 29.5706 24.3143 29.0655 23.8814C29.5706 23.4485 29.9313 22.7992 29.9313 22.0777C29.9313 21.3562 29.6427 20.7068 29.1377 20.274C29.6427 19.8411 29.9313 19.1917 29.9313 18.4702C29.9313 17.7487 29.5706 17.0994 29.0655 16.5944C29.787 15.8729 30.2199 14.8628 30.2199 13.2033C30.2199 8.51366 26.7568 5.4834 22.5 5.4834C18.2432 5.4834 14.78 8.51366 14.78 13.2033C14.78 14.7906 15.2129 15.8729 15.9344 16.5944C15.4294 17.0272 15.0686 17.6766 15.0686 18.4702C15.0686 19.1917 15.3572 19.8411 15.8623 20.274C15.3572 20.7068 15.0686 21.3562 15.0686 22.0777C15.0686 22.7992 15.3572 23.4485 15.8623 23.8814C15.3572 24.3143 15.0686 24.9636 15.0686 25.6851C15.0686 26.3345 15.5015 26.9838 15.9344 27.4167C15.4294 27.7775 15.2851 28.3546 15.2851 29.2926V43.0731C15.2851 45.2375 16.6559 44.7325 18.8204 44.7325H26.1074C28.2719 44.7325 29.6427 45.2375 29.6427 43.0731V29.2926C29.7149 28.3546 29.5706 27.7775 29.0655 27.4167Z" fill="#5FD6D6"/>
<path d="M25.9632 44.7325C28.1277 44.7325 29.715 45.2375 29.715 43.0731V29.2926C29.715 28.3546 29.5707 27.7775 29.0656 27.4167C29.4985 26.9838 29.8593 26.3345 29.8593 25.6851C29.8593 24.9636 29.5707 24.3143 29.0656 23.8814C29.5707 23.4485 29.9314 22.7992 29.9314 22.0777C29.9314 21.3562 29.6428 20.7068 29.1378 20.274C29.6428 19.8411 29.9314 19.1917 29.9314 18.4702C29.9314 17.7487 29.5707 17.0994 29.0656 16.5944C29.7871 15.8729 30.22 14.8628 30.22 13.2033C30.22 8.51366 26.7568 5.4834 22.5 5.4834C20.4077 5.4834 18.4597 6.20489 17.0889 7.57572" fill="#42BEC1"/>
<path d="M25.3859 4.3291H19.614V6.49357H25.3859V4.3291Z" fill="#00637A"/>
<path d="M26.8289 4.40109C26.8289 5.12258 26.2517 5.05043 25.5302 5.05043H19.5418C18.8204 5.05043 18.2432 5.12258 18.2432 4.40109V1.29868C18.2432 0.577192 18.8204 0 19.5418 0H25.5302C26.2517 0 26.8289 0.505043 26.8289 1.29868V4.40109Z" fill="#00669E"/>
<path d="M19.614 0H25.5302C26.2517 0 26.8289 0.505043 26.8289 1.29868V4.40109C26.8289 5.12258 26.3239 5.05043 25.5302 5.05043" fill="#004F77"/>
<path d="M20.8406 6.70979C21.3456 6.4212 21.9228 6.2769 22.5 6.2769C23.0772 6.2769 23.6544 6.4212 24.1594 6.70979C24.5923 6.4212 25.0974 6.2769 25.6746 6.2769C24.6645 5.91615 23.6544 5.69971 22.5 5.69971C21.3456 5.69971 20.3355 5.91615 19.3254 6.34905C19.9026 6.34905 20.4077 6.49335 20.8406 6.70979Z" fill="#2D9EAA"/>
<path d="M30.1476 12.7705C29.8591 12.8427 29.4983 12.9148 29.1376 12.9148C28.5604 12.9148 27.9832 12.7705 27.4781 12.4819C26.9731 12.7705 26.3959 12.9148 25.8187 12.9148C25.2415 12.9148 24.6643 12.7705 24.1593 12.4819C23.6542 12.7705 23.077 12.987 22.4999 12.987C21.9227 12.987 21.3455 12.8427 20.8404 12.5541C20.3354 12.7705 19.7582 12.987 19.181 12.987C18.6038 12.987 18.0266 12.8427 17.5216 12.5541C17.0165 12.8427 16.4393 12.987 15.8621 12.987C15.5014 12.987 15.2128 12.9148 14.8521 12.8427C14.8521 13.0591 14.8521 13.2034 14.8521 13.4199C14.8521 15.0072 15.2849 16.0894 16.0064 16.8109C15.5014 17.2438 15.1406 17.8931 15.1406 18.6868C15.1406 19.4082 15.4292 20.0576 15.9343 20.4905C15.4292 20.9234 15.1406 21.5727 15.1406 22.2942C15.1406 23.0157 15.4292 23.665 15.9343 24.0979C15.4292 24.5308 15.1406 25.1802 15.1406 25.9017C15.1406 26.551 15.5735 27.2003 16.0064 27.6332C15.5014 27.994 15.3571 28.5712 15.3571 29.5091V43.2896C15.3571 45.4541 16.7279 44.949 18.8924 44.949H26.1795C28.3439 44.949 29.7148 45.4541 29.7148 43.2896V29.2927C29.7148 28.3547 29.5705 27.7775 29.0654 27.4168C29.4983 26.9839 29.8591 26.3346 29.8591 25.6852C29.8591 24.9637 29.5705 24.3144 29.0654 23.8815C29.5705 23.4486 29.9312 22.7992 29.9312 22.0778C29.9312 21.3563 29.6426 20.7069 29.1376 20.274C29.6426 19.8411 29.9312 19.1918 29.9312 18.4703C29.9312 17.7488 29.5705 17.0995 29.0654 16.5944C29.7869 15.8729 30.2198 14.8629 30.2198 13.2034C30.2198 13.2034 30.2198 12.987 30.1476 12.7705Z" fill="#5FD6D6"/>
<path d="M20.8406 6.70979C21.3456 6.4212 21.9228 6.2769 22.5 6.2769C23.0772 6.2769 23.6544 6.4212 24.1594 6.70979C24.5923 6.4212 25.0974 6.2769 25.6746 6.2769C24.6645 5.91615 23.6544 5.69971 22.5 5.69971C21.3456 5.69971 20.3355 5.91615 19.3254 6.34905C19.9026 6.34905 20.4077 6.49335 20.8406 6.70979Z" fill="#2D9EAA"/>
<path d="M30.1476 13.4917C29.8591 13.5639 29.4983 13.636 29.1376 13.636C28.5604 13.636 27.9832 13.4917 27.4781 13.2031C26.9731 13.4917 26.3959 13.636 25.8187 13.636C25.2415 13.636 24.6643 13.4917 24.1593 13.2031C23.6542 13.4917 23.077 13.7082 22.4999 13.7082C21.9227 13.7082 21.3455 13.5639 20.8404 13.2753C20.3354 13.4917 19.7582 13.7082 19.181 13.7082C18.6038 13.7082 18.0266 13.5639 17.5216 13.2753C17.0165 13.5639 16.4393 13.7082 15.8621 13.7082C15.5014 13.7082 15.2128 13.636 14.8521 13.5639C14.8521 13.7803 14.8521 13.9246 14.8521 14.1411C14.8521 15.7283 15.2849 16.0891 16.0064 16.8106C15.5014 17.2435 15.1406 17.8928 15.1406 18.6865C15.1406 19.4079 15.4292 20.0573 15.9343 20.4902C15.4292 20.9231 15.1406 21.5724 15.1406 22.2939C15.1406 23.0154 15.4292 23.6647 15.9343 24.0976C15.4292 24.5305 15.1406 25.1799 15.1406 25.9014C15.1406 26.5507 15.5735 27.2 16.0064 27.6329C15.5014 27.9937 15.3571 28.5709 15.3571 29.5088V43.2893C15.3571 45.4538 16.7279 44.9487 18.8924 44.9487H26.1795C28.3439 44.9487 29.7148 45.4538 29.7148 43.2893V29.2924C29.7148 28.3544 29.5705 27.7772 29.0654 27.4165C29.4983 26.9836 29.8591 26.3343 29.8591 25.6849C29.8591 24.9634 29.5705 24.3141 29.0654 23.8812C29.5705 23.4483 29.9312 22.799 29.9312 22.0775C29.9312 21.356 29.6426 20.7066 29.1376 20.2737C29.6426 19.8408 29.9312 19.1915 29.9312 18.47C29.9312 17.7485 29.5705 17.0992 29.0654 16.5941C29.7869 15.8726 30.2198 15.584 30.2198 13.9246C30.2198 13.9246 30.2198 13.7082 30.1476 13.4917Z" fill="#2D9EAA"/>
<path d="M16.0788 19.4801C16.3577 19.4801 16.5838 19.0279 16.5838 18.47C16.5838 17.9122 16.3577 17.46 16.0788 17.46C15.7998 17.46 15.5737 17.9122 15.5737 18.47C15.5737 19.0279 15.7998 19.4801 16.0788 19.4801Z" fill="#42BEC1"/>
<path d="M16.0788 23.1598C16.3577 23.1598 16.5838 22.7076 16.5838 22.1497C16.5838 21.5919 16.3577 21.1396 16.0788 21.1396C15.7998 21.1396 15.5737 21.5919 15.5737 22.1497C15.5737 22.7076 15.7998 23.1598 16.0788 23.1598Z" fill="#42BEC1"/>
<path d="M16.0788 26.8395C16.3577 26.8395 16.5838 26.3873 16.5838 25.8294C16.5838 25.2716 16.3577 24.8193 16.0788 24.8193C15.7998 24.8193 15.5737 25.2716 15.5737 25.8294C15.5737 26.3873 15.7998 26.8395 16.0788 26.8395Z" fill="#42BEC1"/>
<path d="M16.7281 42.7843C16.7281 43.1451 16.7281 43.3615 16.3673 43.3615C16.0066 43.3615 16.0066 43.1451 16.0066 42.7843V29.076C16.0066 28.7152 16.0066 28.3545 16.3673 28.3545C16.7281 28.3545 16.7281 28.7152 16.7281 29.076V42.7843Z" fill="#42BEC1"/>
<path d="M15.7407 10.1803C15.3924 11.0709 15.3206 11.8753 15.5804 11.9768C15.8401 12.0784 16.3331 11.4388 16.6814 10.5482C17.0297 9.65754 17.1014 8.8532 16.8417 8.75161C16.5819 8.65002 16.089 9.28967 15.7407 10.1803Z" fill="#91EDEA"/>
<path d="M26.8288 2.88574H18.1709V3.60723H26.8288V2.88574Z" fill="#168FC4"/>
<path d="M28.2719 17.1715C28.2719 17.2437 28.1997 17.3158 28.1276 17.3158H16.8723C16.8002 17.3158 16.728 17.2437 16.728 17.1715V16.8108C16.728 16.7387 16.8002 16.6665 16.8723 16.6665H28.0554C28.1276 16.6665 28.1997 16.7387 28.1997 16.8108V17.1715H28.2719Z" fill="#42BEC1"/>
<path d="M28.2719 20.779C28.2719 20.8511 28.1997 20.9233 28.1276 20.9233H16.8723C16.8002 20.9233 16.728 20.8511 16.728 20.779V20.4182C16.728 20.3461 16.8002 20.2739 16.8723 20.2739H28.0554C28.1276 20.2739 28.1997 20.3461 28.1997 20.4182V20.779H28.2719Z" fill="#42BEC1"/>
<path d="M28.2719 24.3864C28.2719 24.4585 28.1997 24.5307 28.1276 24.5307H16.8723C16.8002 24.5307 16.728 24.4585 16.728 24.3864V24.0256C16.728 23.9535 16.8002 23.8813 16.8723 23.8813H28.0554C28.1276 23.8813 28.1997 23.9535 28.1997 24.0256V24.3864H28.2719Z" fill="#42BEC1"/>
<path d="M28.2719 27.9938C28.2719 28.066 28.1997 28.1381 28.1276 28.1381H16.8723C16.8002 28.1381 16.728 28.066 16.728 27.9938V27.6331C16.728 27.5609 16.8002 27.4888 16.8723 27.4888H28.0554C28.1276 27.4888 28.1997 27.5609 28.1997 27.6331V27.9938H28.2719Z" fill="#42BEC1"/>
<path d="M26.1075 1.01028C26.1075 1.22672 25.891 1.44317 25.6746 1.44317H19.3976C19.109 1.44317 19.0369 1.22672 19.0369 1.01028C19.0369 0.793829 19.1812 0.72168 19.3976 0.72168H25.6746C25.891 0.72168 26.1075 0.793829 26.1075 1.01028Z" fill="#0579AD"/>
</svg>
