<svg width="45" height="45" viewBox="0 0 45 45" fill="none" xmlns="http://www.w3.org/2000/svg">
<g clip-path="url(#clip0_608_478)">
<path d="M35.302 13.0644V12.9192C34.5762 11.6854 33.3423 10.8144 31.8181 10.7418L27.8262 8.34665C27.681 8.12891 27.6084 7.98374 26.8826 7.91116V3.62891H18.1729V7.91116C17.4471 7.91116 17.3746 8.05633 17.1568 8.34665L13.2375 10.7418C11.7859 10.8144 10.4794 11.7579 9.75359 12.9918L9.68101 13.0644C9.31811 13.7902 9.39069 14.2983 9.39069 15.0966V40.7902C9.39069 43.1854 10.9875 44.9999 13.3826 44.9999H31.4552C33.8504 44.9999 35.4471 43.1854 35.4471 40.7902V15.0966C35.5923 14.2983 35.7375 13.7902 35.302 13.0644Z" fill="#F2E197"/>
<path d="M31.6003 44.9999C33.9954 44.9999 35.5922 43.1854 35.5922 40.7902V15.0966C35.5922 14.2983 35.7374 13.7176 35.3019 12.9918C34.5761 11.7579 33.3422 10.887 31.818 10.8144L27.8261 8.41923C27.6809 8.12891 27.6083 7.98374 26.8825 7.91116V3.62891H18.1729V7.91116C17.4471 7.91116 17.3745 8.05633 17.1567 8.34665L13.1648 10.7418" fill="#DBC772"/>
<path d="M35.5921 15.2418C35.5921 14.4434 35.6647 13.645 35.3018 12.9192C34.576 11.6854 33.3421 10.8144 31.8179 10.7418L27.826 8.34665C27.6809 8.12891 27.6083 7.98374 26.8825 7.91116V3.62891H18.1728V7.91116C17.447 7.91116 17.3744 8.05633 17.1567 8.34665L13.2373 10.8144" fill="#C1AD56"/>
<path d="M26.8825 3.62891H18.1729V7.98375H26.8825V3.62891Z" fill="#190D0D"/>
<path d="M9.46313 21.0483V40.7903C9.46313 43.1854 11.0599 45 13.4551 45H31.5277C33.9228 45 35.5196 43.1854 35.5196 40.7903V21.0483H9.46313Z" fill="#C46A27"/>
<path d="M31.6002 45C33.9954 45 35.5922 43.1854 35.5922 40.7903V21.0483H9.46313" fill="#A54C11"/>
<path d="M31.2372 17.4194H13.8179V37.0162H31.2372V17.4194Z" fill="#D63834"/>
<path d="M27.6083 3.48387C27.6083 3.99194 27.2454 4.35484 26.3019 4.35484H18.7535C17.8099 4.35484 17.447 3.99194 17.447 3.48387V0.870968C17.447 0.290323 17.8099 0 18.7535 0H26.3744C27.2454 0 27.6083 0.290323 27.6083 0.870968V3.48387Z" fill="#3D2525"/>
<path d="M35.5922 20.6857C35.5922 20.9034 35.447 21.0486 35.2293 21.0486H9.82604C9.6083 21.0486 9.46313 20.9034 9.46313 20.6857C9.46313 20.4679 9.6083 20.3228 9.82604 20.3228H35.2293C35.447 20.3228 35.5922 20.4679 35.5922 20.6857Z" fill="#EF922E"/>
<path d="M31.2372 17.4194H13.8179V37.0162H31.2372V17.4194Z" fill="#3D2525"/>
<path d="M13.8179 17.4194H31.2372V37.0162" fill="#190D0D"/>
<path d="M31.2372 38.4678H13.8179V40.6452H31.2372V38.4678Z" fill="#3D2525"/>
<path d="M13.8179 38.4678H31.2372V40.6452" fill="#190D0D"/>
<path d="M11.6406 39.4839C11.6406 39.7742 11.568 39.992 11.2777 39.992C10.9874 39.992 10.9148 39.7742 10.9148 39.4839V23.2258C10.9148 22.9355 10.9874 22.7178 11.2777 22.7178C11.568 22.7178 11.6406 22.9355 11.6406 23.2258V39.4839Z" fill="#EF9C62"/>
<path d="M11.6406 19.6695C11.6406 19.7421 11.568 19.8147 11.2777 19.8147C10.9874 19.8147 10.9148 19.7421 10.9148 19.6695V13.7179C10.9148 13.6453 10.9874 13.5728 11.2777 13.5728C11.568 13.5728 11.6406 13.6453 11.6406 13.7179V19.6695Z" fill="white"/>
<path d="M22.5276 22.355C24.7323 22.355 26.5195 20.5677 26.5195 18.363C26.5195 16.1583 24.7323 14.3711 22.5276 14.3711C20.3229 14.3711 18.5356 16.1583 18.5356 18.363C18.5356 20.5677 20.3229 22.355 22.5276 22.355Z" fill="#190D0D"/>
<path d="M27.6083 2.90332H17.447V3.62913H27.6083V2.90332Z" fill="#A54C11"/>
<path d="M22.5276 16.9839L22.9631 17.9274L24.0518 18.0726L23.2534 18.7984L23.4712 19.8145L22.5276 19.3065L21.5841 19.8145L21.8018 18.7984L21.0034 18.0726L22.0921 17.9274L22.5276 16.9839Z" fill="#F2E197"/>
<path d="M22.5276 16.9839L22.9631 17.9274L24.0518 18.0726L23.2534 18.7984L23.4711 19.8145L22.5276 19.3065" fill="#DBC772"/>
<path d="M16.5035 19.6692C16.704 19.6692 16.8664 19.5067 16.8664 19.3063C16.8664 19.1058 16.704 18.9434 16.5035 18.9434C16.3031 18.9434 16.1406 19.1058 16.1406 19.3063C16.1406 19.5067 16.3031 19.6692 16.5035 19.6692Z" fill="#E8D480"/>
<path d="M18.1002 19.6692C18.3006 19.6692 18.4631 19.5067 18.4631 19.3063C18.4631 19.1058 18.3006 18.9434 18.1002 18.9434C17.8998 18.9434 17.7373 19.1058 17.7373 19.3063C17.7373 19.5067 17.8998 19.6692 18.1002 19.6692Z" fill="#E8D480"/>
<path d="M26.9552 19.6692C27.1556 19.6692 27.3181 19.5067 27.3181 19.3063C27.3181 19.1058 27.1556 18.9434 26.9552 18.9434C26.7548 18.9434 26.5923 19.1058 26.5923 19.3063C26.5923 19.5067 26.7548 19.6692 26.9552 19.6692Z" fill="#E8D480"/>
<path d="M28.5519 19.6692C28.7523 19.6692 28.9148 19.5067 28.9148 19.3063C28.9148 19.1058 28.7523 18.9434 28.5519 18.9434C28.3514 18.9434 28.189 19.1058 28.189 19.3063C28.189 19.5067 28.3514 19.6692 28.5519 19.6692Z" fill="#E8D480"/>
<path d="M16.5035 35.3464C16.704 35.3464 16.8664 35.1839 16.8664 34.9835C16.8664 34.7831 16.704 34.6206 16.5035 34.6206C16.3031 34.6206 16.1406 34.7831 16.1406 34.9835C16.1406 35.1839 16.3031 35.3464 16.5035 35.3464Z" fill="#E8D480"/>
<path d="M18.1002 35.3464C18.3006 35.3464 18.4631 35.1839 18.4631 34.9835C18.4631 34.7831 18.3006 34.6206 18.1002 34.6206C17.8998 34.6206 17.7373 34.7831 17.7373 34.9835C17.7373 35.1839 17.8998 35.3464 18.1002 35.3464Z" fill="#E8D480"/>
<path d="M26.9552 35.3464C27.1556 35.3464 27.3181 35.1839 27.3181 34.9835C27.3181 34.7831 27.1556 34.6206 26.9552 34.6206C26.7548 34.6206 26.5923 34.7831 26.5923 34.9835C26.5923 35.1839 26.7548 35.3464 26.9552 35.3464Z" fill="#E8D480"/>
<path d="M28.5519 35.3464C28.7523 35.3464 28.9148 35.1839 28.9148 34.9835C28.9148 34.7831 28.7523 34.6206 28.5519 34.6206C28.3514 34.6206 28.189 34.7831 28.189 34.9835C28.189 35.1839 28.3514 35.3464 28.5519 35.3464Z" fill="#E8D480"/>
<path d="M26.8825 1.08849C26.8825 1.23365 26.7374 1.45139 26.5196 1.45139H18.5358C18.318 1.45139 18.1729 1.23365 18.1729 1.08849C18.1729 0.943328 18.318 0.725586 18.5358 0.725586H26.5922C26.7374 0.725586 26.8825 0.943328 26.8825 1.08849Z" fill="#6D4747"/>
<path d="M17.447 24.4596L22.5277 21.6289L27.6083 24.4596V30.0483L22.5277 32.8789L17.447 30.0483V24.4596Z" fill="#DBC772"/>
<path d="M22.5276 21.6289L27.6082 24.4596V30.0483L22.5276 32.8789" fill="#C1AD56"/>
</g>
<defs>
<clipPath id="clip0_608_478">
<rect width="45" height="45" fill="white"/>
</clipPath>
</defs>
</svg>
