<svg width="45" height="45" viewBox="0 0 45 45" fill="none" xmlns="http://www.w3.org/2000/svg">
<g clip-path="url(#clip0_421_434)">
<path d="M41.0787 21.3017C39.8257 12.208 34.6573 3.61366 30.3699 0.55955C29.2442 -0.252909 27.7858 -0.174599 26.7482 0.755282C25.7008 1.68516 25.4462 3.19266 26.1314 4.42603C31.5054 13.97 31.5054 27.586 22.4117 33.5472C22.167 33.7136 21.9125 33.8702 21.658 34.0171C21.2077 34.2814 20.9238 34.7512 20.9238 35.2798C20.9238 35.7986 21.1881 36.2782 21.6286 36.5425C24.4673 38.2555 27.6975 39.1267 31.2215 39.1267C33.0031 39.1267 34.7943 38.8624 36.5368 38.3534C36.8304 38.2654 37.0849 38.0989 37.2709 37.864C38.2694 36.6208 39.0916 35.2504 39.7279 33.7625C41.2548 30.1898 41.7246 25.9709 41.0787 21.3017Z" fill="#B34936"/>
<path d="M22.4113 11.7174H14.6646C13.8535 11.7174 13.1963 11.0601 13.1963 10.2491C13.1963 9.43801 13.8535 8.78076 14.6646 8.78076H22.4114C23.2225 8.78076 23.8797 9.43801 23.8797 10.2491C23.8797 11.0601 23.2225 11.7174 22.4113 11.7174Z" fill="#736056"/>
<path d="M37.9851 36.9099C37.7857 37.1908 37.5806 37.4656 37.3687 37.7334C37.5811 37.4638 37.7892 37.1911 37.9851 36.9099Z" fill="#FFE0B2"/>
<path d="M39.7278 33.7628C37.0555 35.3681 34.1189 36.1904 31.2215 36.1904C28.236 36.1904 25.5246 35.466 23.1459 34.0271C22.8914 33.8803 22.6467 33.7237 22.4117 33.5475C14.3263 28.0268 12.6035 15.184 18.6724 4.41659C19.3479 3.19298 19.1031 1.69532 18.0656 0.765442C17.028 -0.164439 15.5596 -0.252593 14.4242 0.559866C5.82005 6.69717 1.33675 21.6738 4.83137 32.598C7.39601 40.5953 13.6412 45.0002 22.4117 45.0002C28.1968 45.0002 33.5905 42.4064 37.2399 37.8927C37.2491 37.882 37.2621 37.8754 37.2709 37.8643C38.2694 36.621 39.0915 35.2506 39.7278 33.7628Z" fill="#E6563A"/>
<path d="M37.9878 36.906C37.987 36.9071 37.9862 36.9083 37.9854 36.9096C37.9862 36.9083 37.987 36.9071 37.9878 36.906Z" fill="#FFE0B2"/>
<path d="M37.2712 37.8641C37.2624 37.8753 37.2494 37.8816 37.2402 37.8924C37.2831 37.8394 37.3265 37.787 37.3688 37.7334C37.3352 37.7762 37.3053 37.8216 37.2712 37.8641Z" fill="#FFE0B2"/>
<path d="M37.9856 36.9099C37.7862 37.1908 37.5811 37.4656 37.3691 37.7334C37.5816 37.4638 37.7897 37.1911 37.9856 36.9099Z" fill="#FFE0B2"/>
<path d="M37.9878 36.906C37.987 36.9071 37.9862 36.9083 37.9854 36.9096C37.9862 36.9083 37.987 36.9071 37.9878 36.906Z" fill="#FFE0B2"/>
<path d="M37.2712 37.8641C37.2624 37.8753 37.2494 37.8816 37.2402 37.8924C37.2831 37.8394 37.3265 37.787 37.3688 37.7334C37.3352 37.7762 37.3053 37.8216 37.2712 37.8641Z" fill="#FFE0B2"/>
<path d="M37.2398 37.8925C37.2489 37.8818 37.2619 37.8752 37.2707 37.864C38.2692 36.6209 39.0914 35.2504 39.7277 33.7626C37.0554 35.3679 34.1188 36.1902 31.2214 36.1902C28.2359 36.1902 25.5244 35.4658 23.1458 34.027C22.8912 33.8801 22.6466 33.7235 22.4116 33.5474V44.9999C28.1968 44.9999 33.5905 42.4064 37.2398 37.8925Z" fill="#D9472B"/>
</g>
<defs>
<clipPath id="clip0_421_434">
<rect width="45" height="45" fill="white"/>
</clipPath>
</defs>
</svg>
