<svg width="45" height="45" viewBox="0 0 45 45" fill="none" xmlns="http://www.w3.org/2000/svg">
<path d="M22.5002 1.40625C9.98443 1.40625 1.40641 7.73427 1.40641 15.4688V16.8751C1.40641 17.7188 1.96887 18.2814 2.81272 18.2814H42.1878C43.0315 18.2814 43.5941 17.7189 43.5941 16.8751V15.4688C43.5939 7.73427 35.0158 1.40625 22.5002 1.40625ZM1.40641 40.7813C1.40641 42.3282 2.6721 43.5938 4.21888 43.5938H40.7815C42.3284 43.5938 43.5939 42.3281 43.5939 40.7813V39.2344C43.5939 38.5313 43.0315 37.9687 42.3282 37.9687H2.67195C1.96887 37.9687 1.40625 38.5311 1.40625 39.2344L1.40641 40.7813Z" fill="#DDAF6D"/>
<path d="M2.81247 32.3438H42.1875C43.7345 32.3438 45 33.6094 45 35.1562C45 36.7032 43.7343 37.9687 42.1875 37.9687H2.81247C1.2657 37.9687 0 36.7032 0 35.1562C0 33.6093 1.2657 32.3438 2.81247 32.3438Z" fill="#BB6F39"/>
<path d="M2.8125 26.7188H42.1876V32.3437H39.3751L35.1563 36.5625L30.9375 32.3437H2.8125V26.7188Z" fill="#EFC75E"/>
<path d="M2.8125 18.2812H42.1876V22.5H2.8125V18.2812Z" fill="#BF392C"/>
<path d="M2.81241 18.2814H5.62488C4.78118 18.2814 4.21857 17.7189 4.21857 16.8751V15.4688C4.21857 8.01566 12.0935 1.96871 23.906 1.40625C23.4842 1.40625 22.9217 1.40625 22.4997 1.40625C9.98428 1.40641 1.40625 7.73443 1.40625 15.4689V16.8752C1.40625 17.7189 1.96871 18.2814 2.81241 18.2814Z" fill="#C69D63"/>
<path d="M4.21888 40.7812V37.9688H2.67195C1.96887 37.9688 1.40625 38.5312 1.40625 39.2344V40.7814C1.40625 42.3283 2.67195 43.5938 4.21872 43.5938H7.03119C5.48442 43.5937 4.21888 42.328 4.21888 40.7812Z" fill="#C69D63"/>
<path d="M5.62497 18.2812H2.8125V22.5H5.62497V18.2812Z" fill="#AE3C30"/>
<path d="M2.95312 26.7188L2.8125 29.3906V32.3437H5.62497V29.3906C4.21881 29.25 3.23435 28.1249 2.95312 26.7188Z" fill="#D7B354"/>
<path d="M42.1875 22.6406L2.81247 22.5V22.6406C1.2657 22.9218 0 24.3282 0 26.0155C0 27.9843 1.54693 29.5313 3.5157 29.5313C5.20325 29.5313 6.60941 28.2656 6.89064 26.7188H12.6562C12.6562 28.2657 14.2031 29.5313 16.1719 29.5313C18.1407 29.5313 19.6876 28.2656 19.6876 26.7188H25.3125C25.3125 28.2657 26.8595 29.5313 28.8283 29.5313C30.797 29.5313 32.344 28.2656 32.344 26.7188H38.1095C38.3907 28.2657 39.7971 29.5313 41.4844 29.5313C43.4532 29.5313 45 27.9843 45 26.0155C45 24.328 43.7345 22.9218 42.1875 22.6406Z" fill="#3DB39E"/>
<path d="M0.140616 26.8594C0.140616 27 0.281232 27.1406 0.281232 27.2812C0.281232 27.4219 0.281232 27.4219 0.421847 27.5625C0.421847 27.7031 0.562463 27.8437 0.562463 27.8437C0.562463 27.9843 0.703079 27.9843 0.703079 28.1249C0.843695 28.2656 0.843695 28.2656 0.98431 28.4062L1.12493 28.5468C1.26554 28.6874 1.26554 28.6874 1.40616 28.828L1.54677 28.9686C1.68739 29.1093 1.82801 29.1093 1.96862 29.1093C2.10924 29.1093 2.10924 29.2499 2.24985 29.2499C2.39047 29.2499 2.53108 29.3905 2.81232 29.3905H2.95293C3.09355 29.5311 3.23416 29.5311 3.51539 29.5311C4.07786 29.5311 4.49971 29.3905 4.92171 29.2499C3.65601 28.6874 2.81232 27.4217 2.81232 26.0156C2.81232 24.328 4.07801 22.9218 5.62479 22.6406V22.5H2.81247V22.6406C1.2657 22.9218 0 24.3282 0 26.0156C0 26.2968 0 26.4374 0 26.7186C0.140616 26.7188 0.140616 26.8594 0.140616 26.8594Z" fill="#37A18E"/>
<path d="M2.81247 35.1562C2.81247 33.6093 4.07817 32.3438 5.62494 32.3438H2.81247C1.2657 32.3438 0 33.6093 0 35.1562C0 36.7032 1.2657 37.9687 2.81247 37.9687H5.62494C4.07817 37.9687 2.81247 36.7032 2.81247 35.1562Z" fill="#A86433"/>
</svg>
