<svg width="45" height="45" viewBox="0 0 45 45" fill="none" xmlns="http://www.w3.org/2000/svg">
<g clip-path="url(#clip0_929_343)">
<path d="M32.9236 41.8702C31.9856 42.8074 30.7139 43.3338 29.3879 43.3338C28.062 43.3338 26.7903 42.8074 25.8523 41.8702L1.98732 18.0052C0.0348241 16.0527 0.0348241 14.654 1.98732 12.7015L12.5936 2.09523C14.5461 0.142734 15.9448 0.142734 17.8973 2.09523L41.7623 25.9602C42.2266 26.4245 42.595 26.9757 42.8463 27.5824C43.0975 28.189 43.2269 28.8392 43.2269 29.4959C43.2269 30.1525 43.0975 30.8027 42.8463 31.4093C42.595 32.016 42.2266 32.5672 41.7623 33.0315L32.9236 41.8702Z" fill="#C1694F"/>
<path d="M20.7276 19.0661L14.6214 12.9598L21.6926 5.88859L19.9239 4.12109L12.8539 11.1923L8.17514 6.51359L6.40764 8.28234L11.0864 12.9598L4.01514 20.0311L5.78264 21.7986L12.8539 14.7273L18.9601 20.8336L20.7276 19.0661Z" fill="#8A4B38"/>
<path d="M32.9235 43.6377C32.4592 44.102 31.908 44.4703 31.3014 44.7216C30.6947 44.9729 30.0445 45.1022 29.3879 45.1022C28.7313 45.1022 28.0811 44.9729 27.4744 44.7216C26.8678 44.4703 26.3166 44.102 25.8523 43.6377L13.4785 31.2639L31.156 13.5864L43.5298 25.9602C43.9941 26.4245 44.3624 26.9757 44.6137 27.5823C44.865 28.189 44.9943 28.8392 44.9943 29.4958C44.9943 30.1524 44.865 30.8026 44.6137 31.4093C44.3624 32.0159 43.9941 32.5671 43.5298 33.0314L32.9235 43.6377Z" fill="#DD2E44"/>
<path d="M16.0312 33.8162L21.8725 39.6587L31.8162 14.2462L31.1562 13.5849L29.2762 12.4199L16.0312 33.8162Z" fill="#BE1931"/>
<path d="M28.5048 10.934L31.1561 13.5852C30.2723 16.2377 20.5498 33.0315 18.7811 36.5665C18.7811 36.5665 17.8973 39.2177 15.6873 37.009L9.05735 30.379C8.2086 29.5302 8.2011 27.7015 9.05735 26.844L24.9686 10.934C26.7361 9.16649 28.5048 10.934 28.5048 10.934V10.934Z" fill="#CCD6DD"/>
</g>
<defs>
<clipPath id="clip0_929_343">
<rect width="45" height="45" fill="white"/>
</clipPath>
</defs>
</svg>
