<svg width="45" height="45" viewBox="0 0 45 45" fill="none" xmlns="http://www.w3.org/2000/svg">
<g clip-path="url(#clip0_929_319)">
<path d="M5.15374 31.8846L31.5502 5.48823C31.8442 4.95389 31.7864 4.27895 31.3337 3.8247C28.5903 1.07992 24.1384 1.07992 21.3922 3.8247L3.49315 21.7236C0.748376 24.4684 0.748376 28.9203 3.49315 31.6667C3.94586 32.1194 4.6194 32.1771 5.15374 31.8846ZM39.9337 13.0295L12.74 40.2232C12.5416 40.7378 12.6458 41.3396 13.0592 41.7545C15.8603 44.5556 20.4037 44.5556 23.2046 41.7545L41.465 23.4941C44.2661 20.693 44.2661 16.1512 41.465 13.3501C41.0502 12.9353 40.4483 12.8325 39.9337 13.0295Z" fill="#F6C37A"/>
<path d="M14.7055 40.2555C14.1459 39.6958 14.1459 38.7875 14.7055 38.2264L39.8758 13.0562C39.7169 13.1265 39.5651 13.2193 39.4357 13.3487L13.0589 39.7239C12.4993 40.2849 12.4993 41.1933 13.0589 41.7529C15.86 44.554 20.4033 44.554 23.2029 41.7529L24.0395 40.9163C21.2314 43.0074 17.2549 42.8034 14.7055 40.2555Z" fill="#DDAF6D"/>
<path d="M5.14955 31.887L6.53606 30.5019C6.05651 30.6481 5.51938 30.5483 5.13977 30.1701C2.60451 27.6335 2.52287 23.3433 4.68272 20.5352L3.49315 21.7247C0.748376 24.4695 0.748376 28.9214 3.49315 31.6678C3.94446 32.1177 4.61661 32.1768 5.14955 31.887Z" fill="#DDAF6D"/>
<path d="M43.3504 1.64896C45.5483 3.84683 45.5483 7.41274 43.3504 9.61201L9.61103 43.35C7.41316 45.5492 3.84725 45.5492 1.64938 43.35C-0.548491 41.1521 -0.548491 37.5862 1.64938 35.3883L35.3887 1.64896C37.5866 -0.550305 41.1527 -0.550305 43.3504 1.64896Z" fill="#E37948"/>
<path d="M32.326 8.45654C31.5484 8.45654 30.9184 9.08648 30.9184 9.86416V12.6653H28.0948C27.5 12.6653 26.9994 13.0337 26.7913 13.5525C26.7196 13.7226 26.6788 13.9082 26.6788 14.1052V16.9077H23.9522L23.8889 16.895C23.6905 16.895 23.5021 16.9386 23.332 17.0131C22.8132 17.2212 22.4476 17.7232 22.4476 18.3151L22.4813 18.4924V21.1021H19.659C19.0656 21.1021 18.5651 21.4706 18.3556 21.988C18.2825 22.1581 18.2416 22.3451 18.2416 22.5434V25.3459H15.5208L15.4533 25.3318C15.2521 25.3318 15.0637 25.3754 14.8922 25.4513C14.3748 25.658 14.0092 26.1615 14.0092 26.752L14.0444 26.9292V29.5419H11.2225C10.4448 29.5419 9.81348 30.1705 9.81348 30.9482C9.81348 31.7258 10.4448 32.3572 11.2225 32.3572H15.3932L15.4551 32.3699C16.2328 32.3699 16.8627 31.74 16.8627 30.9623V28.1612H19.5822L19.6497 28.1753C20.4274 28.1753 21.0587 27.544 21.0587 26.7663V23.9202H23.8302L23.8907 23.9329C24.6698 23.9329 25.2998 23.3043 25.2998 22.5267V19.7242H28.0248L28.0867 19.7369C28.8643 19.7369 29.493 19.1083 29.493 18.3307V15.4831H32.2588L32.3278 15.4973C33.1068 15.4973 33.7368 14.8673 33.7368 14.0897V9.86416C33.7351 9.08663 33.1051 8.45654 32.326 8.45654Z" fill="#EFC75E"/>
<path d="M11.0173 41.9441C8.81938 44.1433 5.25347 44.1433 3.0556 41.9441C0.85773 39.7462 0.85773 36.1803 3.0556 33.9824L1.64938 35.3886C-0.548491 37.5865 -0.548491 41.1524 1.64938 43.3503C3.84725 45.5495 7.41316 45.5495 9.61103 43.3503L43.3504 9.6123C43.3504 9.61215 11.0173 41.9441 11.0173 41.9441Z" fill="#CC6D41"/>
</g>
<defs>
<clipPath id="clip0_929_319">
<rect width="45" height="45" fill="white"/>
</clipPath>
</defs>
</svg>
