<svg width="45" height="45" viewBox="0 0 45 45" fill="none" xmlns="http://www.w3.org/2000/svg">
<g clip-path="url(#clip0_929_267)">
<path d="M22.5028 1.52344C30.2183 1.52344 39.2589 4.39085 42.4808 8.528C42.4752 8.52381 22.5028 45.1173 22.5028 45.1173C22.5028 45.1173 2.55425 8.52381 2.50928 8.5505C5.63708 4.27274 14.7773 1.52344 22.5028 1.52344Z" fill="#F4B459"/>
<path d="M22.5031 0.117188C30.2186 0.117188 42.0552 3.68349 42.0552 3.68349L22.5031 39.4936L2.96484 3.75659C2.96484 3.75659 14.7776 0.117188 22.5031 0.117188Z" fill="#F1D999"/>
<path d="M17.5851 11.3672C19.5257 11.3672 21.098 12.9422 21.098 14.8829C21.098 16.8236 19.5257 18.3986 17.5851 18.3986C15.6446 18.3986 14.0723 16.825 14.0723 14.8829C14.0723 12.9408 15.6446 11.3672 17.5851 11.3672Z" fill="#D07C40"/>
<path d="M42.2379 2.81441C35.9739 1.02567 29.3726 0.118652 22.6154 0.118652H22.6113C15.7656 0.118652 9.0827 1.04818 2.74846 2.88332C0.684342 3.48101 -0.466507 5.51296 0.179867 7.42415C1.13531 10.2549 4.2687 9.94841 5.2257 9.76697C10.7619 8.17364 16.6521 7.10769 22.6548 7.10769H22.659C28.6322 7.10769 34.4142 8.16945 39.9293 9.74447C41.9962 10.335 44.1883 9.2607 44.8247 7.34686C45.4626 5.43427 44.3048 3.40357 42.2379 2.81441Z" fill="#BB6F39"/>
<path d="M31.6362 14.1797C26.5918 14.1797 22.5029 18.2718 22.5029 23.3217C22.5029 27.6487 25.5113 31.2642 29.5482 32.2106C32.3542 27.0693 35.4975 21.3121 37.9846 16.7573C36.3406 15.164 34.1049 14.1797 31.6362 14.1797Z" fill="#BF392C"/>
</g>
<defs>
<clipPath id="clip0_929_267">
<rect width="45" height="45" fill="white"/>
</clipPath>
</defs>
</svg>
