<svg width="32" height="50" viewBox="0 0 32 50" fill="none" xmlns="http://www.w3.org/2000/svg">
<path d="M0.48291 34.4827C0.48291 43.0527 7.43027 50 16.0002 50C24.5701 50 31.5175 43.0527 31.5175 34.4827C31.5175 25.862 27.2071 18.9654 30.0991 12.931C30.0991 12.931 25.4829 13.7931 22.8968 20.6896C22.8968 20.6896 14.2761 12.0689 17.8778 -9.15527e-05C17.8778 -9.15527e-05 9.10371 3.44815 10.0213 14.6551C10.8082 24.265 9.10371 25.862 9.10371 25.862C9.10371 18.1034 3.03779 14.6551 3.03779 14.6551C4.79326 24.1379 0.48291 26.7241 0.48291 34.4827Z" fill="#F9A833"/>
<path d="M27.201 38.1576C27.201 44.612 22.2173 50.1221 15.7641 49.9976C9.69103 49.8806 5.17258 45.2599 5.65549 39.224C5.87101 36.5301 7.91838 32.1658 11.2589 27.7478L13.486 29.0947C13.414 23.6351 16.0002 16.3793 16.0002 16.3793C17.699 24.0241 27.201 26.0057 27.201 38.1576Z" fill="#FF9C28"/>
<path d="M11.6897 32.7586C10.8276 37.9311 9.10352 39.8142 9.10352 43.1034C9.10352 46.5518 12.1913 50 16.0001 50C19.8364 50 22.9072 46.8655 22.8966 43.0292C22.8678 32.7257 16.8622 27.5862 16.8622 27.5862C17.7243 32.7587 15.1381 35.3448 15.1381 35.3448C14.0607 33.729 11.6897 32.7586 11.6897 32.7586Z" fill="#FFFBFB"/>
</svg>
