<svg width="45" height="45" viewBox="0 0 45 45" fill="none" xmlns="http://www.w3.org/2000/svg">
<path d="M33 15.7368H12C11.5852 15.7368 11.25 15.4008 11.25 14.9868C11.25 14.5728 11.5852 14.2368 12 14.2368H32.9999C33.4147 14.2368 33.7499 14.5728 33.7499 14.9868C33.7499 15.4008 33.4148 15.7368 33 15.7368Z" fill="#BDC3C7"/>
<path d="M25.3842 19.6252C25.241 19.6252 25.0947 19.584 24.9665 19.4976C23.4672 18.4904 21.524 18.4769 20.0112 19.4624C19.6632 19.6882 19.1989 19.5914 18.9732 19.2434C18.7467 18.8961 18.845 18.4319 19.1922 18.2054C21.2098 16.8921 23.8055 16.9094 25.8035 18.2527C26.1477 18.4836 26.2384 18.9494 26.0075 19.2937C25.8627 19.509 25.6257 19.6252 25.3842 19.6252Z" fill="#BDC3C7"/>
<path d="M2.25 22.4868H0.749971C0.335215 22.4868 0 22.1508 0 21.7368C0 21.3228 0.335215 20.9868 0.749971 20.9868H2.25C2.66476 20.9868 2.99997 21.3228 2.99997 21.7368C2.99997 22.1508 2.66476 22.4868 2.25 22.4868Z" fill="#BDC3C7"/>
<path d="M44.25 22.4868H42.75C42.3352 22.4868 42 22.1508 42 21.7368C42 21.3228 42.3352 20.9868 42.75 20.9868H44.25C44.6648 20.9868 45 21.3228 45 21.7368C45 22.1508 44.6648 22.4868 44.25 22.4868Z" fill="#BDC3C7"/>
<path d="M42.75 23.6125V21.1278C42.75 17.3223 39.6645 14.2368 35.859 14.2368H31.4678C25.0958 14.2368 22.3238 22.2948 27.3465 26.2151L31.2218 29.239C35.9077 32.8968 42.75 29.557 42.75 23.6125Z" fill="#35495E"/>
<path d="M39.7501 21.8783C39.3354 21.8783 39.0001 21.5422 39.0001 21.1283C39.0001 19.3958 37.5909 17.9872 35.8591 17.9872C35.4443 17.9872 35.1091 17.6512 35.1091 17.2373C35.1091 16.8225 35.4443 16.4873 35.8591 16.4873C38.4181 16.4873 40.5001 18.5693 40.5001 21.1283C40.5001 21.5422 40.1649 21.8783 39.7501 21.8783Z" fill="#1F3344"/>
<path d="M2.25659 23.6125V21.1278C2.25659 17.3223 5.34208 14.2368 9.14757 14.2368H13.5388C19.9108 14.2368 22.6828 22.2948 17.6601 26.2151L13.7856 29.239C9.09888 32.8968 2.25659 29.557 2.25659 23.6125Z" fill="#35495E"/>
<path d="M7.49991 18.7368H5.99997C5.58521 18.7368 5.25 18.4008 5.25 17.9868C5.25 17.5728 5.58521 17.2368 5.99997 17.2368H7.5C7.91476 17.2368 8.24997 17.5728 8.24997 17.9868C8.24997 18.4008 7.91467 18.7368 7.49991 18.7368Z" fill="#1F3344"/>
</svg>
