<svg width="45" height="45" viewBox="0 0 45 45" fill="none" xmlns="http://www.w3.org/2000/svg">
<g clip-path="url(#clip0_421_275)">
<path d="M4.08899 18.0783C5.10721 17.5076 6.36527 17.9491 6.82002 18.9897L8.35186 22.491C8.56052 22.9679 9.03152 23.276 9.55192 23.276C10.2754 23.276 10.8618 22.6895 10.8618 21.966V9.03337C10.8618 8.01876 11.5919 7.09406 12.6016 6.99299C13.7625 6.87671 14.7412 7.78532 14.7412 8.92254V6.59493C14.7412 5.52363 15.6095 4.65527 16.6808 4.65527C17.7521 4.65527 18.6205 5.52363 18.6205 6.59493V8.92254C18.6205 7.85124 19.4888 6.98288 20.5601 6.98288C21.6314 6.98288 22.4998 7.85133 22.4998 8.92254V12.026C22.4998 10.9547 23.3682 10.0863 24.4395 10.0863C25.5108 10.0863 26.3791 10.9547 26.3791 12.026V22.5354C26.3791 24.0578 26.1924 25.5746 25.8232 27.0516L24.6075 31.9142C24.2383 33.3911 24.0516 34.9079 24.0516 36.4304V43.4484C24.0516 44.3053 23.3568 45.0001 22.4999 45.0001H12.4136C11.5566 45.0001 10.8618 44.3053 10.8618 43.4484V37.2414L3.31011 20.6459C2.90309 19.7155 3.20297 18.5749 4.08899 18.0783Z" fill="#AA6455"/>
<path d="M15.5171 20.9485C15.9456 20.9485 16.293 20.6011 16.293 20.1726V6.98293C16.293 6.55446 15.9456 6.20703 15.5171 6.20703C15.0886 6.20703 14.7412 6.55446 14.7412 6.98293V20.1726C14.7412 20.6011 15.0886 20.9485 15.5171 20.9485Z" fill="#9B5A50"/>
<path d="M11.638 8.53467C11.2096 8.53467 10.8621 8.8821 10.8621 9.31057V21.9661C10.8621 22.3963 10.6519 22.7748 10.3315 23.0135C10.668 23.2617 11.1087 23.363 11.5661 23.1888C12.093 22.988 12.4138 22.4457 12.4138 21.8819V9.31057C12.4139 8.8821 12.0665 8.53467 11.638 8.53467Z" fill="#9B5A50"/>
<path d="M40.9107 13.423C39.8925 12.8523 38.6344 13.2938 38.1797 14.3344L36.6479 17.8357C36.4392 18.3126 35.9682 18.6206 35.4478 18.6206C34.7244 18.6206 34.1379 18.0341 34.1379 17.3107V4.3781C34.1379 3.36349 33.4079 2.43879 32.3982 2.33771C31.2372 2.22144 30.2586 3.13005 30.2586 4.26727V1.93966C30.2586 0.868359 29.3902 0 28.3189 0C27.2476 0 26.3792 0.868359 26.3792 1.93966V4.26727C26.3792 3.19597 25.5109 2.32761 24.4396 2.32761C23.3683 2.32761 22.4999 3.19597 22.4999 4.26727V7.37068C22.4999 6.29939 21.6316 5.43103 20.5603 5.43103C19.489 5.43103 18.6206 6.29939 18.6206 7.37068V17.8801C18.6206 19.4026 18.8073 20.9193 19.1765 22.3963L20.3922 27.2589C20.7614 28.7358 20.9481 30.2527 20.9481 31.7751V38.7931C20.9481 39.65 21.6429 40.3448 22.4998 40.3448H32.5861C33.443 40.3448 34.1378 39.65 34.1378 38.7931V32.5862L41.6895 15.9906C42.0966 15.0601 41.7967 13.9196 40.9107 13.423Z" fill="#AA6455"/>
<path d="M31.0347 15.5173C30.6062 15.5173 30.2588 15.1699 30.2588 14.7414V4.65529C30.2588 4.22683 30.6062 3.87939 31.0347 3.87939C31.4632 3.87939 31.8106 4.22683 31.8106 4.65529V14.7415C31.8105 15.1699 31.4632 15.5173 31.0347 15.5173Z" fill="#9B5A50"/>
<path d="M27.1553 16.2931C26.7268 16.2931 26.3794 15.9457 26.3794 15.5172V2.32766C26.3794 1.89919 26.7268 1.55176 27.1553 1.55176C27.5838 1.55176 27.9312 1.89919 27.9312 2.32766V15.5173C27.9311 15.9458 27.5838 16.2931 27.1553 16.2931Z" fill="#9B5A50"/>
<path d="M23.2759 17.0691C22.8474 17.0691 22.5 16.7216 22.5 16.2932V4.65529C22.5 4.22683 22.8474 3.87939 23.2759 3.87939C23.7044 3.87939 24.0518 4.22683 24.0518 4.65529V16.2932C24.0517 16.7216 23.7044 17.0691 23.2759 17.0691Z" fill="#9B5A50"/>
<path d="M34.138 34.138V32.5863H22.5281V31.7754C22.5281 30.2528 22.3415 28.736 21.9721 27.259L20.7565 22.3966C20.3872 20.9195 20.2005 19.4027 20.2005 17.8803V7.77287C20.2005 7.33667 19.8469 6.98291 19.4106 6.98291C18.9744 6.98291 18.6206 7.33649 18.6206 7.77287V17.8807C18.6206 19.4031 18.8073 20.9197 19.1765 22.3966L20.3921 27.2587C20.7614 28.7358 20.9481 30.2527 20.9481 31.7753V38.7933C20.9481 39.6503 21.6429 40.345 22.4998 40.345H24.0797C23.2227 40.345 22.528 39.6503 22.528 38.7933H34.1379V35.6899H22.5281V34.1382H34.138V34.138Z" fill="#9B5A50"/>
<path d="M24.0518 38.7929V37.2412H12.414C12.414 37.2412 6.5702 24.398 5.16272 21.3048C4.99696 20.9405 4.56313 20.7894 4.20515 20.9684C3.86519 21.1384 3.72061 21.5469 3.87802 21.8928L10.8623 37.2412V43.4481C10.8623 44.305 11.557 44.9998 12.414 44.9998H13.9657C13.1087 44.9998 12.414 44.305 12.414 43.4481H24.0519V40.3447H12.414V38.793H24.0518V38.7929Z" fill="#9B5A50"/>
</g>
<defs>
<clipPath id="clip0_421_275">
<rect width="45" height="45" fill="white"/>
</clipPath>
</defs>
</svg>
