<svg width="45" height="45" viewBox="0 0 45 45" fill="none" xmlns="http://www.w3.org/2000/svg">
<g clip-path="url(#clip0_421_260)">
<path d="M30.4412 12.8334C27.2648 10.5931 24.8824 13.5803 22.5001 13.5803C20.1177 13.5803 17.7354 10.5931 14.559 12.8334C10.4911 15.7025 9.00024 32.25 9.00024 32.25H35.9999C36 32.25 34.509 15.7025 30.4412 12.8334Z" fill="#707487"/>
<path d="M9.55299 27.75C9.17119 30.36 9.00024 32.2499 9.00024 32.2499H35.9999C35.9999 32.2499 35.8289 30.3599 35.4471 27.75H9.55299Z" fill="#464655"/>
<path d="M40.4997 33H4.50022C2.10081 33 0.482917 32.2046 0.414802 32.1709C0.0442554 31.9855 -0.10595 31.5352 0.0794116 31.1646C0.265388 30.7941 0.715916 30.6454 1.08567 30.8292C1.09666 30.8351 2.47434 31.5001 4.50022 31.5001H40.4998C42.549 31.5001 43.9011 30.8358 43.9143 30.8292C44.2849 30.6454 44.7346 30.7941 44.9206 31.1646C45.106 31.5352 44.9557 31.9857 44.5852 32.1709C44.5171 32.2046 42.8991 33 40.4997 33Z" fill="#5B5D6E"/>
</g>
<defs>
<clipPath id="clip0_421_260">
<rect width="45" height="45" fill="white"/>
</clipPath>
</defs>
</svg>
