<svg width="45" height="45" viewBox="0 0 45 45" fill="none" xmlns="http://www.w3.org/2000/svg">
<path d="M10.66 1.58203C12.4201 1.98229 13.9915 2.54777 15.3555 3.23666C17.9345 4.5392 19.7971 6.29024 20.733 8.22753C20.8 8.19457 20.867 8.1646 20.934 8.13401C22.3411 5.68951 24.8607 3.43072 27.2695 2.20667L28.4987 1.58203H10.66ZM28.9011 1.58203L28.3787 3.16046C28.1291 3.91465 27.7242 5.13624 27.4703 6.31081C27.3408 6.90996 27.2773 7.50261 27.266 7.98091C28.053 8.20942 28.7626 8.46756 29.3679 8.65679L29.9405 8.83556L29.7279 15.9676C33.5824 15.7569 37.5888 15.3816 41.9906 14.8393C41.4566 14.7658 41.0452 14.4021 40.7812 14.0063C40.4858 14.4495 40.0056 14.8535 39.375 14.8535C38.7444 14.8535 38.2642 14.4495 37.9688 14.0063C37.6733 14.4495 37.1931 14.8535 36.5625 14.8535C35.9319 14.8535 35.4517 14.4495 35.1562 14.0063C34.8608 14.4495 34.3806 14.8535 33.75 14.8535C33.0042 14.8535 32.4679 14.2887 32.1999 13.7621C31.9318 13.2354 31.7998 12.6483 31.7096 12.0763C31.6268 11.5512 31.5881 11.0399 31.5692 10.6348H31.5527V10.0712C31.5519 10.0033 31.5519 9.93545 31.5527 9.86757V1.58203H28.9011ZM33.1348 2.19727V9.05273H34.3652V2.19727H33.1348ZM35.9473 2.19727V9.05273H37.1777V2.19727H35.9473ZM38.7598 2.19727V9.05273H39.9902V2.19727H38.7598ZM41.5723 2.19727V9.05273H42.8027V2.19727H41.5723ZM4.60292 2.50075C4.32782 2.49908 4.04947 2.50119 3.76796 2.5069C3.30662 2.5164 2.82665 2.54865 2.34835 2.57897C1.8319 4.68967 1.94256 6.80687 2.46217 8.97047C6.75712 8.7692 10.6281 9.49781 13.9478 11.297C15.7348 11.18 17.3063 10.7773 19.1852 9.23265C19.2453 9.18337 19.3061 9.13491 19.3675 9.08728C18.6501 7.48617 17.0729 5.87646 14.6422 4.6488C12.1233 3.37658 8.72877 2.52571 4.60292 2.50075ZM5.09546 4.3374C5.81414 4.3374 6.41382 4.93699 6.41382 5.65576C6.41382 6.37444 5.81414 6.97412 5.09546 6.97412C4.37669 6.97412 3.7771 6.37444 3.7771 5.65576C3.7771 4.93699 4.37669 4.3374 5.09546 4.3374ZM26.258 4.70373C25.1927 5.49026 24.1596 6.47121 23.3271 7.49689C23.6081 7.47031 23.8903 7.45858 24.1726 7.46174C24.3981 7.46452 24.6235 7.47622 24.8482 7.49681C25.1215 7.52177 25.3896 7.55886 25.6525 7.60342C25.6975 7.07177 25.8054 6.525 25.924 5.97656C26.0195 5.53465 26.1411 5.12095 26.2579 4.70373H26.258ZM5.09546 5.39209C4.95923 5.39209 4.83179 5.51953 4.83179 5.65576C4.83179 5.79199 4.95923 5.91943 5.09546 5.91943C5.23169 5.91943 5.35913 5.79199 5.35913 5.65576C5.35913 5.51953 5.23169 5.39209 5.09546 5.39209ZM23.9059 9.0399C22.6893 9.05766 21.4625 9.40852 20.1898 10.4549C17.7413 12.4676 15.4352 12.8548 13.157 12.9156C10.9417 12.9748 8.72139 12.7945 5.93262 13.5137C5.58765 13.9271 5.45467 14.5855 5.65022 15.5936C5.86521 16.7016 6.47956 18.1071 7.40944 19.5638C9.26921 22.4771 12.3769 25.605 15.8081 27.4831L16.1525 27.6717L16.6611 31.0709C17.1556 31.1073 17.6419 31.136 18.1219 31.1569L17.5946 27.0853C12.1603 24.0615 8.12786 19.5792 7.04294 15.0677C7.63471 14.9095 8.0862 14.788 8.58683 14.7191C12.8987 14.1791 16.6668 15.1297 21.8544 11.0421C22.4514 10.5717 23.1257 10.3801 23.8146 10.3459C23.9008 10.3416 23.9871 10.3397 24.0734 10.3402C24.6786 10.3428 25.289 10.4541 25.8629 10.5925C26.7236 10.8002 27.5666 11.0724 28.2857 11.254L28.3236 9.9835C27.1935 9.6126 25.9742 9.18809 24.7043 9.07233C24.5197 9.05527 24.3345 9.04472 24.1492 9.04069C24.0681 9.03898 23.987 9.03869 23.9059 9.03981V9.0399ZM3.91852 10.5022C3.24584 10.5014 2.57335 10.5244 1.9023 10.5712L1.58203 10.5932V14.6594C2.38297 14.7623 3.1844 14.8615 3.98628 14.9569C4.20258 11.3985 7.22145 11.4626 10.0622 11.3665C8.17699 10.7903 6.12976 10.5069 3.91852 10.5022ZM33.1562 10.6348C33.1741 10.9861 33.2055 11.4055 33.2724 11.8299C33.3485 12.3126 33.4754 12.7802 33.6099 13.0446C33.7445 13.3089 33.7547 13.2715 33.75 13.2715C33.7453 13.2715 33.7555 13.3089 33.8901 13.0446C34.0246 12.7802 34.1515 12.3126 34.2276 11.8299C34.2944 11.4054 34.3259 10.9861 34.3438 10.6348H33.1562ZM35.9687 10.6348C35.9866 10.9861 36.018 11.4055 36.0849 11.8299C36.161 12.3126 36.2879 12.7802 36.4224 13.0446C36.557 13.3089 36.5672 13.2715 36.5625 13.2715C36.5578 13.2715 36.568 13.3089 36.7026 13.0446C36.8371 12.7802 36.964 12.3126 37.0401 11.8299C37.1069 11.4054 37.1384 10.9861 37.1563 10.6348H35.9687ZM38.7812 10.6348C38.7991 10.9861 38.8305 11.4055 38.8974 11.8299C38.9735 12.3126 39.1004 12.7802 39.2349 13.0446C39.3695 13.3089 39.3797 13.2715 39.375 13.2715C39.3703 13.2715 39.3805 13.3089 39.5151 13.0446C39.6496 12.7802 39.7765 12.3126 39.8526 11.8299C39.9194 11.4054 39.9509 10.9861 39.9688 10.6348H38.7812ZM41.5937 10.6348C41.6116 10.9861 41.643 11.4055 41.7099 11.8299C41.786 12.3126 41.9129 12.7802 42.0474 13.0446C42.182 13.3089 42.1922 13.2715 42.1875 13.2715C42.1828 13.2715 42.193 13.3089 42.3276 13.0446C42.4621 12.7802 42.589 12.3126 42.6651 11.8299C42.7319 11.4054 42.7634 10.9861 42.7813 10.6348H41.5937ZM24.1182 11.9252C23.5981 11.9164 23.1676 12.0213 22.8335 12.2846C17.3965 16.5687 13.0264 15.8535 9.09773 16.2569C10.5611 19.76 14.0837 23.4078 18.7032 25.8946L19.0606 26.0871L19.7225 31.1974C22.3599 31.2143 24.8875 30.9796 27.7126 30.4758L28.2373 12.8806C27.2993 12.6835 26.3645 12.341 25.4919 12.1305C24.9817 12.0074 24.5228 11.9319 24.1182 11.9252ZM29.0995 31.8162C24.2223 32.7727 20.1671 32.993 15.3561 32.5393L16.3378 38.1749C21.0547 38.4842 24.4623 38.3847 28.9382 37.4623L29.0995 31.8162ZM27.448 39.357C25.1577 39.7389 23.0637 39.9034 20.8518 39.9152L21.2194 42.7533C22.3273 43.0255 23.3771 43.0554 24.2926 42.9207C26.0327 42.6646 27.174 41.7526 27.3939 41.168L27.448 39.357ZM17.9754 39.853L18.2094 41.4171C18.6361 41.6993 19.0835 41.949 19.5478 42.1641L19.2544 39.8992C18.8359 39.8886 18.4089 39.8726 17.9754 39.853Z" fill="#805333"/>
</svg>
