<svg width="45" height="45" viewBox="0 0 45 45" fill="none" xmlns="http://www.w3.org/2000/svg">
<path d="M35.096 5.2158C31.7314 1.85254 27.2573 0 22.5002 0C17.7424 0 13.269 1.85263 9.90511 5.2158C6.54062 8.58038 4.68799 13.0545 4.68799 17.8116V44.062C4.68799 44.5798 5.10751 45 5.62529 45H39.3752C39.893 45 40.3118 44.5798 40.3118 44.062V17.8116C40.3117 13.0545 38.4605 8.58029 35.096 5.2158Z" fill="#656D78"/>
<path opacity="0.1" d="M35.096 5.2158C31.7314 1.85254 27.2573 0 22.5002 0C17.7424 0 13.269 1.85263 9.90511 5.2158C6.54062 8.58038 4.68799 13.0545 4.68799 17.8116V18.7495C4.68799 13.9911 6.54062 9.51829 9.90511 6.15371C13.269 2.78914 17.7424 0.936597 22.5002 0.936597C27.2573 0.936597 31.7314 2.78914 35.096 6.15371C38.4605 9.5182 40.3118 13.991 40.3118 18.7495V17.8116C40.3117 13.0545 38.4605 8.58029 35.096 5.2158Z" fill="white"/>
<path d="M4.68799 42.1875V44.062C4.68799 44.5798 5.10751 45 5.62529 45H39.3752C39.893 45 40.3118 44.5798 40.3118 44.062V42.1875H4.68799Z" fill="#ED5564"/>
<path d="M36.5622 42.1873H34.6863V44.9998H36.5622V42.1873Z" fill="#DA4453"/>
<path d="M32.8136 42.1873H30.9377V44.9998H32.8136V42.1873Z" fill="#DA4453"/>
<path d="M29.0622 42.1873H27.189V44.9998H29.0622V42.1873Z" fill="#DA4453"/>
<path d="M25.313 42.1873H23.4377V44.9998H25.313V42.1873Z" fill="#DA4453"/>
<path d="M21.5625 42.1873H19.6873V44.9998H21.5625V42.1873Z" fill="#DA4453"/>
<path d="M17.8123 42.1873H15.9377V44.9998H17.8123V42.1873Z" fill="#DA4453"/>
<path d="M14.0625 42.1873H12.1873V44.9998H14.0625V42.1873Z" fill="#DA4453"/>
<path d="M10.313 42.1873H8.43774V44.9998H10.313V42.1873Z" fill="#DA4453"/>
<path d="M22.5003 24.3745C19.3458 24.3745 16.8752 26.1419 16.8752 28.3997V33.4739C16.8752 35.7315 19.3458 37.499 22.5003 37.499C25.6548 37.499 28.1252 35.7315 28.1252 33.4739V28.3997C28.1252 26.142 25.6548 24.3745 22.5003 24.3745Z" fill="#434A54"/>
<path d="M21.2808 18.4816C21.6173 18.152 21.6571 17.6261 21.3755 17.2498C21.2492 17.081 18.2231 13.1245 13.1255 13.1245C11.985 13.1245 10.8032 13.6519 9.88448 14.5705C8.96511 15.4893 8.43774 16.6716 8.43774 17.8115C8.43774 19.1655 8.87792 20.3137 9.70939 21.1322C10.6323 22.0385 11.9712 22.4986 13.6892 22.4986C15.1724 22.4986 16.9117 21.8119 18.8583 20.4565C20.2522 19.4855 21.2397 18.5215 21.2808 18.4816Z" fill="#434A54"/>
<path d="M35.1152 14.5705C34.1978 13.6518 33.0154 13.1245 31.8743 13.1245C26.7767 13.1245 23.7513 17.081 23.625 17.2498C23.3427 17.6261 23.3833 18.1521 23.719 18.4816C23.7609 18.5215 24.7483 19.4855 26.1422 20.4564C28.0894 21.8119 29.8282 22.4985 31.3113 22.4985C33.0292 22.4985 34.3681 22.0384 35.291 21.1321C36.1232 20.3136 36.5627 19.1655 36.5627 17.8115C36.5627 16.6716 36.0354 15.4893 35.1152 14.5705Z" fill="#434A54"/>
</svg>
