<svg width="45" height="45" viewBox="0 0 45 45" fill="none" xmlns="http://www.w3.org/2000/svg">
<g clip-path="url(#clip0_607_180)">
<path d="M25.4761 12.0239V39.1668V39.643H41.6666V12.0239H25.4761Z" fill="#DCDCDC"/>
<path d="M13.0953 10.1192C19.9334 10.1192 25.4763 8.20013 25.4763 5.8335V12.024V39.1669C25.4763 41.5335 19.9335 43.4526 13.0953 43.4526C6.25718 43.4526 0.714355 41.5335 0.714355 39.1669V5.8335C0.714355 8.20021 6.25718 10.1192 13.0953 10.1192Z" fill="#DCDCDC"/>
<path d="M13.0954 4.40479C15.7249 4.40479 17.8573 5.0448 17.8573 5.83336C17.8573 6.62191 15.7249 7.26193 13.0954 7.26193C10.4659 7.26193 8.3335 6.62191 8.3335 5.83336C8.3335 5.0448 10.4659 4.40479 13.0954 4.40479Z" fill="#DCDCDC"/>
<path d="M25.4762 5.83309C25.4762 8.19972 19.9334 10.1188 13.0952 10.1188C6.25709 10.1188 0.714355 8.1998 0.714355 5.83309C0.714355 3.46637 6.25718 1.54736 13.0953 1.54736C19.9335 1.54736 25.4762 3.46646 25.4762 5.83309ZM17.8572 5.83309C17.8572 5.04453 15.7248 4.40451 13.0953 4.40451C10.4658 4.40451 8.33342 5.04453 8.33342 5.83309C8.33342 6.62164 10.4658 7.26166 13.0953 7.26166C15.7248 7.26166 17.8572 6.62173 17.8572 5.83309Z" fill="#DCDCDC"/>
<path d="M45 12.7382V11.3096H26.1904V5.83342C26.1904 4.79165 25.478 3.30313 22.0836 2.12812C19.6719 1.29325 16.4798 0.833496 13.0952 0.833496C9.7106 0.833496 6.5185 1.29334 4.10678 2.12812C0.712442 3.30313 0 4.79165 0 5.83342V39.1668C0 40.6608 1.42014 41.9421 4.10687 42.8721C6.51858 43.707 9.71068 44.1667 13.0953 44.1667C16.4798 44.1667 19.6719 43.7069 22.0837 42.8721C24.0256 42.1999 25.3053 41.3441 25.8659 40.3573H45V38.9287H42.3809V30.8335H45V29.4049H42.3809V21.3096H45V19.8811H42.3809V12.7382H45V12.7382ZM13.0953 2.26198C20.3236 2.26198 24.762 4.34209 24.762 5.83342C24.762 7.32475 20.3236 9.40485 13.0953 9.40485C5.86696 9.40485 1.42857 7.32475 1.42857 5.83342C1.42857 4.34209 5.86696 2.26198 13.0953 2.26198ZM13.0953 42.7383C5.86696 42.7383 1.42857 40.6581 1.42857 39.1668V8.21016C2.04504 8.66991 2.90813 9.12387 4.10687 9.53889C6.51858 10.3738 9.71068 10.8335 13.0953 10.8335C16.4798 10.8335 19.6719 10.3737 22.0837 9.53889C23.2823 9.12395 24.1454 8.66982 24.762 8.21016V39.1668C24.7619 40.6581 20.3236 42.7383 13.0953 42.7383ZM40.9524 38.9287H26.1904V12.7382H40.9524V38.9287Z" fill="#A9A9A9"/>
<path d="M9.52303 7.52747C10.4875 7.81681 11.7561 7.97615 13.0953 7.97615C14.4346 7.97615 15.7032 7.81681 16.6677 7.52747C17.931 7.1484 18.5715 6.57843 18.5715 5.83329C18.5715 5.08815 17.931 4.51818 16.6677 4.13911C15.7032 3.84978 14.4346 3.69043 13.0953 3.69043C11.7561 3.69043 10.4875 3.84978 9.52303 4.13911C8.25969 4.51818 7.61914 5.08815 7.61914 5.83329C7.61914 6.57843 8.25969 7.14849 9.52303 7.52747ZM13.0953 5.119C15.2395 5.119 16.6073 5.54053 17.0423 5.83329C16.6072 6.12606 15.2396 6.54758 13.0953 6.54758C10.9511 6.54758 9.58341 6.12606 9.14835 5.83329C9.58341 5.54053 10.9512 5.119 13.0953 5.119Z" fill="#A9A9A9"/>
<path d="M12.5483 16C7.82741 16 4 19.8272 4 24.5482C4 29.2692 7.8273 33.0964 12.5483 33.0964C17.2695 33.0964 21.0965 29.2692 21.0965 24.5482C21.0965 19.8272 17.2695 16 12.5483 16ZM17.5129 24.9714C17.5129 25.6705 16.9463 26.2372 16.2471 26.2372H14.2374V28.2469C14.2374 28.9461 13.6707 29.5128 12.9715 29.5128H12.1249C11.4258 29.5128 10.859 28.9461 10.859 28.2469V26.2372H8.84921C8.15032 26.2372 7.58338 25.6705 7.58338 24.9714V24.1249C7.58338 23.4258 8.15044 22.859 8.84921 22.859H10.859V20.8493C10.859 20.1501 11.4258 19.5835 12.1249 19.5835H12.9715C13.6707 19.5835 14.2374 20.1502 14.2374 20.8493V22.859H16.2471C16.9463 22.859 17.5129 23.4258 17.5129 24.1249V24.9714V24.9714Z" fill="#C81212"/>
</g>
<defs>
<clipPath id="clip0_607_180">
<rect width="45" height="45" fill="white"/>
</clipPath>
</defs>
</svg>
