<svg width="45" height="45" viewBox="0 0 45 45" fill="none" xmlns="http://www.w3.org/2000/svg">
<path d="M16.0437 7.41167H29.1275V11.7896H33.0612V5.44485C33.0612 4.35873 32.1806 3.47803 31.0943 3.47803H14.0769C12.9907 3.47803 12.1101 4.35873 12.1101 5.44485V11.7896H16.0439V7.41167H16.0437Z" fill="#1B2327"/>
<path d="M39.6425 11.7896H33.0613H29.1276H16.0439H12.1101H5.35746C2.39854 11.7896 0 14.188 0 17.1469V36.1643C0 39.1233 2.39854 41.5218 5.35746 41.5218H39.6425C42.6015 41.5218 45 39.1233 45 36.1643V17.147C45 14.1881 42.6015 11.7896 39.6425 11.7896ZM22.6959 35.8667C17.975 35.8667 14.1476 32.0395 14.1476 27.3185C14.1476 22.5974 17.9749 18.7703 22.6959 18.7703C27.4171 18.7703 31.2441 22.5974 31.2441 27.3185C31.2441 32.0395 27.4171 35.8667 22.6959 35.8667Z" fill="#DCDCDC"/>
<path d="M22.696 18.7705C17.9751 18.7705 14.1477 22.5977 14.1477 27.3187C14.1477 32.0397 17.975 35.8669 22.696 35.8669C27.4172 35.8669 31.2442 32.0397 31.2442 27.3187C31.2442 22.5977 27.4172 18.7705 22.696 18.7705ZM27.6606 27.7419C27.6606 28.441 27.094 29.0077 26.3948 29.0077H24.3851V31.0174C24.3851 31.7166 23.8184 32.2833 23.1192 32.2833H22.2726C21.5735 32.2833 21.0067 31.7166 21.0067 31.0174V29.0077H18.9969C18.298 29.0077 17.7311 28.441 17.7311 27.7419V26.8954C17.7311 26.1963 18.2981 25.6295 18.9969 25.6295H21.0067V23.6198C21.0067 22.9206 21.5735 22.354 22.2726 22.354H23.1192C23.8184 22.354 24.3851 22.9207 24.3851 23.6198V25.6295H26.3948C27.094 25.6295 27.6606 26.1963 27.6606 26.8954V27.7419V27.7419Z" fill="#C81212"/>
<path d="M26.3947 25.6295H24.385V23.6198C24.385 22.9206 23.8183 22.354 23.1191 22.354H22.2725C21.5734 22.354 21.0066 22.9207 21.0066 23.6198V25.6295H18.9968C18.2979 25.6295 17.731 26.1963 17.731 26.8954V27.7419C17.731 28.441 18.298 29.0077 18.9968 29.0077H21.0066V31.0174C21.0066 31.7166 21.5734 32.2833 22.2725 32.2833H23.1191C23.8183 32.2833 24.385 31.7166 24.385 31.0174V29.0077H26.3947C27.0939 29.0077 27.6605 28.441 27.6605 27.7419V26.8954C27.6605 26.1963 27.0939 25.6295 26.3947 25.6295Z" fill="#DCDCDC"/>
</svg>
