<svg width="45" height="45" viewBox="0 0 45 45" fill="none" xmlns="http://www.w3.org/2000/svg">
<g clip-path="url(#clip0_601_2)">
<path d="M45 22.5008C45 10.0733 34.9264 0.000488281 22.5004 0.000488281C10.0737 0.000488281 0 10.0733 0 22.5008C0 34.9263 10.0737 44.9999 22.5004 44.9999C34.9264 44.9999 45 34.9263 45 22.5008Z" fill="#C81212"/>
<path d="M12.5356 15.7441C12.5356 14.4821 12.9408 13.2032 13.7513 11.9079C14.5615 10.6126 15.7441 9.53982 17.2985 8.68944C18.853 7.83934 20.6664 7.41406 22.739 7.41406C24.6652 7.41406 26.3659 7.76968 27.8407 8.4802C29.3154 9.19109 30.4544 10.1576 31.2584 11.3798C32.0621 12.6023 32.464 13.9306 32.464 15.3655C32.464 16.4948 32.2348 17.4848 31.7764 18.3348C31.3181 19.1852 30.7732 19.9192 30.1423 20.5368C29.5111 21.1546 28.3786 22.1943 26.7445 23.6557C26.2927 24.0676 25.9305 24.4298 25.6584 24.7419C25.3859 25.0542 25.1832 25.3398 25.0505 25.5987C24.9176 25.8578 24.8145 26.1169 24.7416 26.376C24.6684 26.6349 24.5589 27.0902 24.4129 27.7411C24.1604 29.1229 23.3698 29.8137 22.0414 29.8137C21.3505 29.8137 20.7691 29.5879 20.2977 29.1361C19.826 28.6845 19.5902 28.0135 19.5902 27.1233C19.5902 26.0073 19.7627 25.0407 20.1084 24.2237C20.4538 23.4066 20.912 22.6891 21.4834 22.0715C22.0545 21.4537 22.8252 20.7198 23.7951 19.8694C24.6452 19.1255 25.2599 18.5641 25.6385 18.1854C26.0172 17.8068 26.336 17.3852 26.5951 16.9199C26.8541 16.455 26.9838 15.9503 26.9838 15.4054C26.9838 14.3426 26.5883 13.4459 25.798 12.715C25.0074 11.9846 23.9876 11.619 22.739 11.619C21.2773 11.619 20.2012 11.9876 19.5105 12.725C18.8196 13.4624 18.2351 14.5485 17.7568 15.9833C17.305 17.4848 16.448 18.2352 15.186 18.2352C14.4417 18.2352 13.814 17.973 13.3028 17.448C12.7913 16.9233 12.5356 16.3553 12.5356 15.7441ZM22.2607 37.5858C21.4502 37.5858 20.7427 37.3232 20.1383 36.7985C19.5336 36.2739 19.2315 35.5399 19.2315 34.5965C19.2315 33.7594 19.5236 33.0554 20.1084 32.484C20.6928 31.9129 21.4102 31.6271 22.2606 31.6271C23.0977 31.6271 23.8017 31.9129 24.373 32.484C24.9441 33.0554 25.2299 33.7594 25.2299 34.5965C25.2299 35.5266 24.931 36.2573 24.3331 36.7886C23.7353 37.3199 23.0445 37.5858 22.2607 37.5858Z" fill="white"/>
</g>
<defs>
<clipPath id="clip0_601_2">
<rect width="45" height="45" fill="white"/>
</clipPath>
</defs>
</svg>
