<svg width="45" height="45" viewBox="0 0 45 45" fill="none" xmlns="http://www.w3.org/2000/svg">
<g clip-path="url(#clip0_607_332)">
<path d="M32.5863 3.87939H12.4138H7.32763C4.56621 3.87939 2.32764 6.11797 2.32764 8.87939V40.0001C2.32764 42.7615 4.56621 45.0001 7.32764 45.0001H37.6725C40.4339 45.0001 42.6725 42.7615 42.6725 40.0001V8.87939C42.6725 6.11797 40.4339 3.87939 37.6725 3.87939H32.5863Z" fill="#EDEADA"/>
<path d="M15.5173 8.5346C16.3743 8.5346 17.069 7.83987 17.069 6.98288C17.069 6.12588 16.3743 5.43115 15.5173 5.43115C14.6603 5.43115 13.9656 6.12588 13.9656 6.98288C13.9656 7.83987 14.6603 8.5346 15.5173 8.5346Z" fill="#918553"/>
<path d="M20.1723 8.5346C21.0293 8.5346 21.7241 7.83987 21.7241 6.98288C21.7241 6.12588 21.0293 5.43115 20.1723 5.43115C19.3153 5.43115 18.6206 6.12588 18.6206 6.98288C18.6206 7.83987 19.3153 8.5346 20.1723 8.5346Z" fill="#918553"/>
<path d="M24.8276 8.5346C25.6846 8.5346 26.3793 7.83987 26.3793 6.98288C26.3793 6.12588 25.6846 5.43115 24.8276 5.43115C23.9706 5.43115 23.2759 6.12588 23.2759 6.98288C23.2759 7.83987 23.9706 8.5346 24.8276 8.5346Z" fill="#918553"/>
<path d="M29.4829 8.5346C30.3399 8.5346 31.0346 7.83987 31.0346 6.98288C31.0346 6.12588 30.3399 5.43115 29.4829 5.43115C28.6259 5.43115 27.9312 6.12588 27.9312 6.98288C27.9312 7.83987 28.6259 8.5346 29.4829 8.5346Z" fill="#918553"/>
<path d="M29.4829 0C28.6061 0 27.8054 0.303362 27.1553 0.795259C27.5696 1.10948 27.9148 1.50284 28.1755 1.95517C28.5487 1.70069 28.9987 1.55172 29.4829 1.55172C30.7661 1.55172 31.8104 2.59603 31.8104 3.87931C31.8104 5.16259 30.7661 6.2069 29.4829 6.2069C29.0538 6.2069 28.707 6.55371 28.707 6.98276C28.707 7.41181 29.0538 7.75862 29.4829 7.75862C31.6219 7.75862 33.3622 6.01836 33.3622 3.87931C33.3622 1.74026 31.6219 0 29.4829 0Z" fill="#BF9B59"/>
<path d="M26.135 1.95508C25.806 2.52456 25.6035 3.17551 25.6035 3.87922H27.1552C27.1552 3.08008 26.7502 2.37482 26.135 1.95508Z" fill="#A37F46"/>
<path d="M21.4797 1.95508C21.1507 2.52456 20.9482 3.17551 20.9482 3.87922H22.5C22.5 3.08008 22.095 2.37482 21.4797 1.95508Z" fill="#A37F46"/>
<path d="M28.1754 1.95517C27.9147 1.50284 27.5695 1.10948 27.1552 0.795259C26.505 0.303362 25.7043 0 24.8276 0C23.9509 0 23.1502 0.303362 22.5 0.795259C22.9143 1.10948 23.2596 1.50284 23.5203 1.95517C23.8934 1.70069 24.3434 1.55172 24.8276 1.55172C25.3117 1.55172 25.7617 1.70069 26.1349 1.95517C26.7502 2.37491 27.1552 3.08017 27.1552 3.87931C27.1552 5.16259 26.1109 6.2069 24.8276 6.2069C24.3985 6.2069 24.0517 6.55371 24.0517 6.98276C24.0517 7.41181 24.3985 7.75862 24.8276 7.75862C26.9666 7.75862 28.7069 6.01836 28.7069 3.87931C28.7069 3.1756 28.5044 2.52466 28.1754 1.95517Z" fill="#BF9B59"/>
<path d="M16.8247 1.95508C16.4957 2.52456 16.2932 3.17551 16.2932 3.87922H17.8449C17.8449 3.08008 17.4399 2.37482 16.8247 1.95508Z" fill="#A37F46"/>
<path d="M23.5202 1.95517C23.2595 1.50284 22.9142 1.10948 22.4999 0.795259C21.8497 0.303362 21.049 0 20.1723 0C19.2956 0 18.4949 0.303362 17.8447 0.795259C18.259 1.10948 18.6043 1.50284 18.865 1.95517C19.2382 1.70069 19.6882 1.55172 20.1723 1.55172C20.6565 1.55172 21.1065 1.70069 21.4796 1.95517C22.0949 2.37491 22.4999 3.08017 22.4999 3.87931C22.4999 5.16259 21.4556 6.2069 20.1723 6.2069C19.7433 6.2069 19.3965 6.55371 19.3965 6.98276C19.3965 7.41181 19.7433 7.75862 20.1723 7.75862C22.3114 7.75862 24.0516 6.01836 24.0516 3.87931C24.0516 3.1756 23.8491 2.52466 23.5202 1.95517Z" fill="#BF9B59"/>
<path d="M18.8651 1.95517C18.6044 1.50284 18.2591 1.10948 17.8448 0.795259C17.1947 0.303362 16.394 0 15.5173 0C13.3782 0 11.6379 1.74026 11.6379 3.87931H13.1897C13.1897 2.59603 14.234 1.55172 15.5173 1.55172C16.0014 1.55172 16.4514 1.70069 16.8246 1.95517C17.4398 2.37491 17.8448 3.08017 17.8448 3.87931C17.8448 5.16259 16.8005 6.2069 15.5173 6.2069C15.0882 6.2069 14.7414 6.55371 14.7414 6.98276C14.7414 7.41181 15.0882 7.75862 15.5173 7.75862C17.6563 7.75862 19.3966 6.01836 19.3966 3.87931C19.3966 3.1756 19.1941 2.52466 18.8651 1.95517Z" fill="#BF9B59"/>
<path d="M42.6725 12.4136H2.32764V13.9653H42.6725V12.4136Z" fill="#CEC9AE"/>
<path d="M42.6725 20.1724H2.32764V21.7241H42.6725V20.1724Z" fill="#CEC9AE"/>
<path d="M42.6725 27.9312H2.32764V29.4829H42.6725V27.9312Z" fill="#CEC9AE"/>
<path d="M42.3448 36H2V37.5517H42.3448V36Z" fill="#CEC9AE"/>
<path d="M9.31027 3.87939H7.75854V45.0001H9.31027V3.87939Z" fill="#C81212"/>
</g>
<defs>
<clipPath id="clip0_607_332">
<rect width="45" height="45" fill="white"/>
</clipPath>
</defs>
</svg>
