<svg width="60" height="26" viewBox="0 0 60 26" fill="none" xmlns="http://www.w3.org/2000/svg">
<path d="M0 1.60714C0 0.719542 0.537258 0 1.2 0H58.8C59.4627 0 60 0.719542 60 1.60714V24.1071C60 24.9947 59.4627 25.7143 58.8 25.7143H1.2C0.537257 25.7143 0 24.9947 0 24.1071V1.60714Z" fill="#E3E3E3"/>
<path d="M52.8 0H58.8C59.4627 0 60 0.719542 60 1.60714V6.42857H52.8V0Z" fill="#E41C1C"/>
<path d="M18.3442 6.40929C18.3442 6.20357 18.3074 6.02786 18.2338 5.88214C18.1634 5.73643 18.0707 5.62286 17.9555 5.54143C17.8435 5.46 17.7187 5.38714 17.5811 5.32286C17.4435 5.25857 17.3059 5.19429 17.1683 5.13C17.0307 5.06143 16.9042 4.98214 16.789 4.89214C16.677 4.79786 16.5842 4.66929 16.5106 4.50643C16.4402 4.34357 16.4051 4.14643 16.4051 3.915C16.4051 3.51643 16.5139 3.20357 16.7315 2.97643C16.9523 2.74929 17.2338 2.63571 17.5762 2.63571C17.9218 2.63571 18.1971 2.74071 18.4019 2.95071C18.6067 3.16071 18.709 3.39 18.709 3.63857C18.709 3.81 18.6834 3.93857 18.6322 4.02429C18.5842 4.10571 18.5266 4.14643 18.4594 4.14643C18.3346 4.14643 18.2546 4.11429 18.2194 4.05L18.2051 4.01786C18.2371 3.96214 18.253 3.855 18.253 3.69643C18.253 3.45214 18.1762 3.26143 18.0226 3.12429C17.869 2.98286 17.6899 2.91214 17.4851 2.91214C17.2835 2.91214 17.1235 2.985 17.0051 3.13071C16.8867 3.27643 16.8274 3.45429 16.8274 3.66429C16.8274 3.87429 16.8626 4.05 16.933 4.19143C17.0066 4.32857 17.101 4.43571 17.2162 4.51286C17.3314 4.59 17.4579 4.65857 17.5955 4.71857C17.7363 4.77857 17.8754 4.845 18.013 4.91786C18.1538 4.98643 18.2818 5.07214 18.397 5.175C18.5122 5.27357 18.605 5.415 18.6755 5.59929C18.7491 5.78357 18.7858 6.00643 18.7858 6.26786C18.7858 6.72643 18.6642 7.07786 18.421 7.32214C18.1778 7.56643 17.8722 7.68857 17.5042 7.68857C17.1394 7.68857 16.821 7.56429 16.549 7.31571C16.2802 7.06286 16.1458 6.74786 16.1458 6.37071C16.1458 6.195 16.1714 6.05786 16.2226 5.95929C16.2738 5.85643 16.3347 5.805 16.4051 5.805C16.5299 5.805 16.6099 5.83286 16.6451 5.88857L16.6594 5.92071C16.6306 6.02786 16.6162 6.15857 16.6162 6.31286C16.6162 6.60429 16.7042 6.85929 16.8802 7.07786C17.0594 7.29643 17.2931 7.40571 17.5811 7.40571C17.7891 7.40571 17.9683 7.30929 18.1187 7.11643C18.2691 6.91929 18.3442 6.68357 18.3442 6.40929Z" fill="#E41C1C"/>
<path d="M20.4072 4.67357C20.4488 4.54929 20.5144 4.48714 20.604 4.48714C20.6968 4.48714 20.7656 4.51714 20.8104 4.57714V6.42214C20.8104 6.66643 20.8392 6.85071 20.8968 6.975C20.9544 7.09929 21.0328 7.16143 21.132 7.16143C21.4328 7.16143 21.5832 6.74357 21.5832 5.90786C21.5864 5.88214 21.6104 5.86929 21.6552 5.86929C21.7128 5.86929 21.7416 5.98286 21.7416 6.21C21.7416 6.57429 21.6824 6.86571 21.564 7.08429C21.4488 7.30286 21.2856 7.41214 21.0744 7.41214C20.7512 7.41214 20.5368 7.22143 20.4312 6.84C20.3704 7.01571 20.2872 7.155 20.1816 7.25786C20.076 7.36071 19.956 7.41214 19.8216 7.41214C19.2616 7.41214 18.9816 6.92143 18.9816 5.94C18.9816 5.44286 19.068 5.07643 19.2408 4.84071C19.4168 4.605 19.6488 4.48714 19.9368 4.48714C20.1576 4.48714 20.3144 4.54929 20.4072 4.67357ZM19.5048 6.73071C19.5496 6.91929 19.6008 7.03929 19.6584 7.09071C19.716 7.13786 19.7928 7.16143 19.8888 7.16143C19.9848 7.16143 20.0888 7.08214 20.2008 6.92357C20.316 6.76071 20.3736 6.55071 20.3736 6.29357V5.41286C20.3736 5.21143 20.3336 5.04857 20.2536 4.92429C20.1768 4.8 20.0888 4.73786 19.9896 4.73786C19.8936 4.73786 19.8168 4.75071 19.7592 4.77643C19.7016 4.80214 19.6472 4.85571 19.596 4.93714C19.4904 5.09143 19.4376 5.42571 19.4376 5.94C19.4376 6.27857 19.46 6.54214 19.5048 6.73071Z" fill="#E41C1C"/>
<path d="M24.1893 5.86929C24.2469 5.86929 24.2757 5.98286 24.2757 6.21C24.2757 6.57429 24.2165 6.86571 24.0981 7.08429C23.9829 7.30286 23.8133 7.41214 23.5893 7.41214C23.3653 7.41214 23.1925 7.30929 23.0709 7.10357C22.9525 6.89786 22.8933 6.60643 22.8933 6.22929V5.47714C22.8933 4.96714 22.7973 4.71214 22.6053 4.71214C22.4357 4.71214 22.2965 4.82786 22.1877 5.05929C22.0789 5.29071 22.0245 5.67857 22.0245 6.22286V7.32214C21.9925 7.38214 21.9365 7.41214 21.8565 7.41214C21.7765 7.41214 21.7125 7.38 21.6645 7.31571C21.6165 7.24714 21.5925 7.14857 21.5925 7.02V4.57714C21.6245 4.51714 21.6853 4.48714 21.7749 4.48714C21.9413 4.48714 22.0245 4.64786 22.0245 4.96929C22.1589 4.64786 22.3717 4.48714 22.6629 4.48714C22.8709 4.48714 23.0357 4.575 23.1573 4.75071C23.2821 4.92643 23.3445 5.17929 23.3445 5.50929V6.42214C23.3445 6.66643 23.3733 6.85071 23.4309 6.975C23.4885 7.09929 23.5733 7.16143 23.6853 7.16143C23.8005 7.16143 23.9013 7.06714 23.9877 6.87857C24.0741 6.68571 24.1173 6.36214 24.1173 5.90786C24.1205 5.88214 24.1445 5.86929 24.1893 5.86929Z" fill="#E41C1C"/>
<path d="M29.7181 5.97857C29.7501 6.01286 29.7661 6.05786 29.7661 6.11357C29.7661 6.16929 29.7517 6.21643 29.7229 6.255H29.0413L29.3149 7.47643C29.3213 7.50643 29.3245 7.545 29.3245 7.59214C29.3245 7.63929 29.3021 7.69714 29.2573 7.76571C29.2125 7.83429 29.1661 7.86857 29.1181 7.86857C29.0285 7.86857 28.9581 7.83857 28.9069 7.77857L28.5661 6.255H27.3421L27.1021 7.12929C27.0189 7.425 26.8989 7.68 26.7421 7.89429C26.5853 8.10857 26.3821 8.21571 26.1325 8.21571C25.9437 8.21571 25.7965 8.14929 25.6909 8.01643C25.5821 7.88357 25.5277 7.69071 25.5277 7.43786C25.5277 7.185 25.5741 6.95786 25.6669 6.75643C25.7565 6.55071 25.8765 6.39 26.0269 6.27429C26.3277 6.04286 26.6637 5.92714 27.0349 5.92714L27.7357 3.27857C27.7677 3.15429 27.8013 3.06214 27.8365 3.00214C27.7373 2.55643 27.6877 2.31214 27.6877 2.26929C27.6877 2.22214 27.7101 2.17071 27.7549 2.115C27.8029 2.055 27.8509 2.025 27.8989 2.025C27.9917 2.025 28.0637 2.055 28.1149 2.115L28.9645 5.92714L29.5933 5.92071C29.6477 5.92071 29.6893 5.94 29.7181 5.97857ZM26.1325 7.94571C26.3725 7.94571 26.5805 7.62214 26.7565 6.975L26.9437 6.26143C26.5917 6.26143 26.3117 6.37286 26.1037 6.59571C25.8989 6.81857 25.7965 7.11214 25.7965 7.47643C25.7965 7.62643 25.8269 7.74214 25.8877 7.82357C25.9517 7.905 26.0333 7.94571 26.1325 7.94571ZM28.0189 3.49714L27.4333 5.92714H28.4893L28.0189 3.49714Z" fill="#E41C1C"/>
<path d="M32.5987 5.86929C32.6563 5.86929 32.6851 5.98286 32.6851 6.21C32.6851 6.57429 32.6259 6.86571 32.5075 7.08429C32.3923 7.30286 32.2227 7.41214 31.9987 7.41214C31.7747 7.41214 31.6019 7.30929 31.4803 7.10357C31.3619 6.89786 31.3027 6.60643 31.3027 6.22929V5.47714C31.3027 4.96714 31.2067 4.71214 31.0147 4.71214C30.8451 4.71214 30.7059 4.82786 30.5971 5.05929C30.4883 5.29071 30.4339 5.67857 30.4339 6.22286V7.32214C30.4019 7.38214 30.3459 7.41214 30.2659 7.41214C30.1859 7.41214 30.1219 7.38 30.0739 7.31571C30.0259 7.24714 30.0019 7.14857 30.0019 7.02V4.57714C30.0339 4.51714 30.0947 4.48714 30.1843 4.48714C30.3507 4.48714 30.4339 4.64786 30.4339 4.96929C30.5683 4.64786 30.7811 4.48714 31.0723 4.48714C31.2803 4.48714 31.4451 4.575 31.5667 4.75071C31.6915 4.92643 31.7539 5.17929 31.7539 5.50929V6.42214C31.7539 6.66643 31.7827 6.85071 31.8403 6.975C31.8979 7.09929 31.9827 7.16143 32.0947 7.16143C32.2099 7.16143 32.3107 7.06714 32.3971 6.87857C32.4835 6.68571 32.5267 6.36214 32.5267 5.90786C32.5299 5.88214 32.5539 5.86929 32.5987 5.86929Z" fill="#E41C1C"/>
<path d="M32.5378 5.90143C32.5378 5.40857 32.6242 5.05071 32.797 4.82786C32.973 4.60071 33.205 4.48714 33.493 4.48714C33.6786 4.48714 33.8258 4.53643 33.9346 4.635V3.76071C33.9346 3.22071 33.9746 2.82857 34.0546 2.58429C34.1378 2.33571 34.2914 2.21143 34.5154 2.21143C34.637 2.21143 34.7314 2.28 34.7986 2.41714C34.8658 2.55429 34.8994 2.74929 34.8994 3.00214C34.8994 3.46071 34.7218 3.92786 34.3666 4.40357V6.42214C34.3666 6.66643 34.397 6.85071 34.4578 6.975C34.5218 7.09929 34.605 7.16143 34.7074 7.16143C34.8098 7.16143 34.9074 7.07786 35.0002 6.91071C35.0962 6.73929 35.1442 6.46929 35.1442 6.10071C35.1442 6.01929 35.1426 5.955 35.1394 5.90786C35.1426 5.88214 35.1666 5.86929 35.2114 5.86929C35.269 5.86929 35.2978 5.98286 35.2978 6.21C35.2978 6.56571 35.237 6.855 35.1154 7.07786C34.997 7.30071 34.8434 7.41214 34.6546 7.41214C34.3122 7.41214 34.0882 7.21071 33.9826 6.80786C33.9218 6.98786 33.8386 7.13357 33.733 7.245C33.6274 7.35214 33.509 7.40571 33.3778 7.40571C32.8178 7.40571 32.5378 6.90429 32.5378 5.90143ZM33.4258 7.155C33.5442 7.155 33.6562 7.06929 33.7618 6.89786C33.8706 6.72214 33.925 6.49929 33.925 6.22929V5.40643C33.925 5.19643 33.8866 5.03357 33.8098 4.91786C33.7362 4.79786 33.6482 4.73786 33.5458 4.73786C33.4466 4.73786 33.3682 4.74857 33.3106 4.77C33.2562 4.79143 33.2018 4.83857 33.1474 4.91143C33.045 5.05286 32.9938 5.38286 32.9938 5.90143C32.9938 6.42429 33.0386 6.76714 33.1282 6.93C33.2082 7.08 33.3074 7.155 33.4258 7.155ZM34.5202 2.46214C34.453 2.46214 34.4098 2.56286 34.3906 2.76429C34.3746 2.96143 34.3666 3.405 34.3666 4.095C34.5842 3.71786 34.693 3.35143 34.693 2.99571C34.693 2.64 34.6354 2.46214 34.5202 2.46214Z" fill="#E41C1C"/>
<path d="M35.5762 6.3V7.32214C35.5442 7.38214 35.4882 7.41214 35.4082 7.41214C35.3282 7.41214 35.2642 7.38 35.2162 7.31571C35.1682 7.24714 35.1442 7.14857 35.1442 7.02V4.57714C35.1762 4.51714 35.2322 4.48714 35.3122 4.48714C35.3922 4.48714 35.4562 4.52143 35.5042 4.59C35.5522 4.65429 35.5762 4.75071 35.5762 4.87929V5.36786C35.7362 4.83643 35.957 4.57071 36.2386 4.57071C36.4402 4.57071 36.5874 4.64357 36.6802 4.78929C36.773 4.93071 36.8194 5.1 36.8194 5.29714C36.8194 5.40429 36.7954 5.49 36.7474 5.55429C36.6994 5.61857 36.653 5.65071 36.6082 5.65071C36.525 5.65071 36.4706 5.625 36.445 5.57357C36.4642 5.50929 36.4738 5.41714 36.4738 5.29714C36.4738 5.17714 36.4434 5.06786 36.3826 4.96929C36.3218 4.87071 36.2482 4.82143 36.1618 4.82143C36.0114 4.82143 35.8754 5.00571 35.7538 5.37429C35.6354 5.73857 35.5762 6.04714 35.5762 6.3Z" fill="#E41C1C"/>
<path d="M39.021 5.94643C39.0882 5.94643 39.1218 6.015 39.1218 6.15214C39.1218 6.46929 39.0386 6.75857 38.8722 7.02C38.709 7.28143 38.4594 7.41214 38.1234 7.41214C37.7874 7.41214 37.517 7.29214 37.3122 7.05214C37.1106 6.80786 37.0098 6.45214 37.0098 5.985C37.0098 5.51357 37.0994 5.14714 37.2786 4.88571C37.4578 4.62 37.6866 4.48714 37.965 4.48714C38.1666 4.48714 38.3138 4.56 38.4066 4.70571C38.4994 4.84714 38.5458 5.01643 38.5458 5.21357C38.5458 5.535 38.445 5.80286 38.2434 6.01714C38.045 6.22714 37.7906 6.33214 37.4802 6.33214C37.509 6.60643 37.5826 6.81429 37.701 6.95571C37.8226 7.09286 37.981 7.16143 38.1762 7.16143C38.3746 7.16143 38.5522 7.06286 38.709 6.86571C38.869 6.66429 38.949 6.37071 38.949 5.985C38.9522 5.95929 38.9762 5.94643 39.021 5.94643ZM37.4658 6.03643V6.09429C37.6642 6.06 37.8354 5.97643 37.9794 5.84357C38.1266 5.71071 38.2002 5.51357 38.2002 5.25214C38.2002 5.085 38.173 4.95857 38.1186 4.87286C38.0642 4.78286 37.9874 4.73786 37.8882 4.73786C37.7378 4.73786 37.629 4.83643 37.5618 5.03357C37.4978 5.23071 37.4658 5.565 37.4658 6.03643Z" fill="#E41C1C"/>
<path d="M40.3853 4.67357C40.4269 4.54929 40.4925 4.48714 40.5821 4.48714C40.6749 4.48714 40.7437 4.51714 40.7885 4.57714V6.42214C40.7885 6.66643 40.8173 6.85071 40.8749 6.975C40.9325 7.09929 41.0109 7.16143 41.1101 7.16143C41.4109 7.16143 41.5613 6.74357 41.5613 5.90786C41.5645 5.88214 41.5885 5.86929 41.6333 5.86929C41.6909 5.86929 41.7197 5.98286 41.7197 6.21C41.7197 6.57429 41.6605 6.86571 41.5421 7.08429C41.4269 7.30286 41.2637 7.41214 41.0525 7.41214C40.7293 7.41214 40.5149 7.22143 40.4093 6.84C40.3485 7.01571 40.2653 7.155 40.1597 7.25786C40.0541 7.36071 39.9341 7.41214 39.7997 7.41214C39.2397 7.41214 38.9597 6.92143 38.9597 5.94C38.9597 5.44286 39.0461 5.07643 39.2189 4.84071C39.3949 4.605 39.6269 4.48714 39.9149 4.48714C40.1357 4.48714 40.2925 4.54929 40.3853 4.67357ZM39.4829 6.73071C39.5277 6.91929 39.5789 7.03929 39.6365 7.09071C39.6941 7.13786 39.7709 7.16143 39.8669 7.16143C39.9629 7.16143 40.0669 7.08214 40.1789 6.92357C40.2941 6.76071 40.3517 6.55071 40.3517 6.29357V5.41286C40.3517 5.21143 40.3117 5.04857 40.2317 4.92429C40.1549 4.8 40.0669 4.73786 39.9677 4.73786C39.8717 4.73786 39.7949 4.75071 39.7373 4.77643C39.6797 4.80214 39.6253 4.85571 39.5741 4.93714C39.4685 5.09143 39.4157 5.42571 39.4157 5.94C39.4157 6.27857 39.4381 6.54214 39.4829 6.73071Z" fill="#E41C1C"/>
<path d="M42.4586 6.10071C42.3306 6.04071 42.2026 5.97857 42.0746 5.91429C41.9498 5.84571 41.8442 5.74929 41.7578 5.625C41.6714 5.50071 41.6282 5.34214 41.6282 5.14929C41.6282 4.95214 41.6954 4.79357 41.8298 4.67357C41.9642 4.54929 42.1594 4.48714 42.4154 4.48714C42.6746 4.48714 42.8762 4.54714 43.0202 4.66714C43.1674 4.78714 43.241 4.92643 43.241 5.085C43.241 5.16214 43.2186 5.22429 43.1738 5.27143C43.1322 5.31857 43.0906 5.34214 43.049 5.34214C42.969 5.34214 42.9162 5.31643 42.8906 5.265C42.9098 5.235 42.9194 5.17714 42.9194 5.09143C42.9194 5.00143 42.8698 4.92 42.7706 4.84714C42.6714 4.77429 42.561 4.73786 42.4394 4.73786C42.3178 4.73786 42.217 4.76786 42.137 4.82786C42.057 4.88786 42.017 4.98 42.017 5.10429C42.017 5.22429 42.0618 5.32929 42.1514 5.41929C42.2442 5.50929 42.3546 5.58429 42.4826 5.64429C42.6138 5.70429 42.7434 5.76857 42.8714 5.83714C43.0026 5.90571 43.113 6.00429 43.2026 6.13286C43.2954 6.25714 43.3418 6.41143 43.3418 6.59571C43.3418 6.87 43.2522 7.07571 43.073 7.21286C42.897 7.34571 42.6634 7.41214 42.3722 7.41214C42.0842 7.41214 41.849 7.30071 41.6666 7.07786C41.4874 6.85071 41.3978 6.57 41.3978 6.23571C41.3978 6.11571 41.4154 6.02143 41.4506 5.95286C41.4858 5.88429 41.5258 5.85 41.5706 5.85C41.6538 5.85 41.7018 5.86929 41.7146 5.90786L41.7242 5.92714C41.705 5.99143 41.6954 6.07071 41.6954 6.165C41.6954 6.45214 41.7578 6.69 41.8826 6.87857C42.0074 7.06714 42.1802 7.16143 42.401 7.16143C42.7402 7.16143 42.9114 7.00071 42.9146 6.67929C42.9146 6.435 42.7626 6.24214 42.4586 6.10071Z" fill="#E41C1C"/>
<path d="M3.95359 21.5357L6.78559 16.3157V17.5757L4.08799 12.5357H5.49919L7.50559 16.2643L6.92959 16.2771L8.91679 12.5357H10.2704L7.59199 17.4857V16.2771L10.4432 21.5357H9.00319L6.89119 17.5757H7.45759L5.37439 21.5357H3.95359Z" fill="#2E1F8A"/>
<path d="M10.4692 21.5357L13.3012 16.3157V17.5757L10.6036 12.5357H12.0148L14.0212 16.2643L13.4452 16.2771L15.4324 12.5357H16.786L14.1076 17.4857V16.2771L16.9588 21.5357H15.5188L13.4068 17.5757H13.9732L11.89 21.5357H10.4692Z" fill="#2E1F8A"/>
<path d="M16.9848 21.5357L19.8168 16.3157V17.5757L17.1192 12.5357H18.5304L20.5368 16.2643L19.9608 16.2771L21.948 12.5357H23.3016L20.6232 17.4857V16.2771L23.4744 21.5357H22.0344L19.9224 17.5757H20.4888L18.4056 21.5357H16.9848Z" fill="#2E1F8A"/>
<path d="M23.5005 21.5357L26.3325 16.3157V17.5757L23.6349 12.5357H25.0461L27.0525 16.2643L26.4765 16.2771L28.4637 12.5357H29.8173L27.1389 17.4857V16.2771L29.9901 21.5357H28.5501L26.4381 17.5757H27.0045L24.9213 21.5357H23.5005Z" fill="#2E1F8A"/>
<path d="M30.0161 21.5357L32.8481 16.3157V17.5757L30.1505 12.5357H31.5617L33.5681 16.2643L32.9921 16.2771L34.9793 12.5357H36.3329L33.6545 17.4857V16.2771L36.5057 21.5357H35.0657L32.9537 17.5757H33.5201L31.4369 21.5357H30.0161Z" fill="#2E1F8A"/>
<path d="M36.5317 21.5357L39.3637 16.3157V17.5757L36.6661 12.5357H38.0773L40.0837 16.2643L39.5077 16.2771L41.4949 12.5357H42.8485L40.1701 17.4857V16.2771L43.0213 21.5357H41.5813L39.4693 17.5757H40.0357L37.9525 21.5357H36.5317Z" fill="#2E1F8A"/>
<path d="M43.0473 21.5357L45.8793 16.3157V17.5757L43.1817 12.5357H44.5929L46.5993 16.2643L46.0233 16.2771L48.0105 12.5357H49.3641L46.6857 17.4857V16.2771L49.5369 21.5357H48.0969L45.9849 17.5757H46.5513L44.4681 21.5357H43.0473Z" fill="#2E1F8A"/>
<path d="M49.563 21.5357L52.395 16.3157V17.5757L49.6974 12.5357H51.1086L53.115 16.2643L52.539 16.2771L54.5262 12.5357H55.8798L53.2014 17.4857V16.2771L56.0526 21.5357H54.6126L52.5006 17.5757H53.067L50.9838 21.5357H49.563Z" fill="#2E1F8A"/>
</svg>
