<svg width="60" height="26" viewBox="0 0 60 26" fill="none" xmlns="http://www.w3.org/2000/svg">
<path d="M0 1.60714C0 0.719542 0.537258 0 1.2 0H58.8C59.4627 0 60 0.719542 60 1.60714V24.1071C60 24.9947 59.4627 25.7143 58.8 25.7143H1.2C0.537257 25.7143 0 24.9947 0 24.1071V1.60714Z" fill="#131212"/>
<path d="M52.8 0H58.8C59.4627 0 60 0.719542 60 1.60714V6.42857H52.8V0Z" fill="#E41C1C"/>
<path d="M20.1689 4.86771C20.0077 4.86771 19.8531 4.83943 19.7053 4.78286C19.5574 4.72371 19.4384 4.64786 19.3481 4.55529L19.5065 4.08471C19.5929 4.167 19.6947 4.23514 19.8118 4.28914C19.9309 4.34057 20.0509 4.36629 20.1718 4.36629C20.264 4.36629 20.3379 4.35471 20.3936 4.33157C20.4512 4.30586 20.4934 4.27114 20.5203 4.22743C20.5472 4.18371 20.5606 4.13357 20.5606 4.077C20.5606 4.005 20.5395 3.94843 20.4973 3.90729C20.455 3.86357 20.3993 3.82886 20.3302 3.80314C20.2611 3.77486 20.1843 3.74914 20.0998 3.726C20.0173 3.70029 19.9337 3.66943 19.8493 3.63343C19.7667 3.59743 19.6909 3.55114 19.6217 3.49457C19.5526 3.438 19.496 3.36343 19.4518 3.27086C19.4096 3.17829 19.3885 3.06 19.3885 2.916C19.3885 2.76171 19.4192 2.62157 19.4806 2.49557C19.544 2.367 19.6381 2.26543 19.7629 2.19086C19.8896 2.11371 20.048 2.07514 20.2381 2.07514C20.3648 2.07514 20.4896 2.09571 20.6125 2.13686C20.7353 2.17543 20.8438 2.23457 20.9379 2.31429L20.7939 2.78871C20.6998 2.71671 20.6057 2.664 20.5117 2.63057C20.4176 2.59457 20.3254 2.57657 20.2352 2.57657C20.1449 2.57657 20.071 2.59071 20.0134 2.619C19.9558 2.64729 19.9145 2.68457 19.8896 2.73086C19.8646 2.77457 19.8521 2.826 19.8521 2.88514C19.8521 2.95457 19.8733 3.01114 19.9155 3.05486C19.9577 3.096 20.0134 3.12943 20.0825 3.15514C20.1517 3.18086 20.2275 3.20657 20.3101 3.23229C20.3945 3.258 20.4781 3.28757 20.5606 3.321C20.6451 3.35443 20.7219 3.39943 20.791 3.456C20.8601 3.51257 20.9158 3.58714 20.9581 3.67971C21.0022 3.77229 21.0243 3.88929 21.0243 4.03071C21.0243 4.18243 20.9926 4.32129 20.9293 4.44729C20.8659 4.57329 20.7709 4.67486 20.6441 4.752C20.5193 4.82914 20.3609 4.86771 20.1689 4.86771Z" fill="#ECE531"/>
<path d="M21.0781 4.82143L21.9767 2.12143H22.4375L23.3389 4.82143H22.8493L22.1121 2.43771H22.2964L21.5562 4.82143H21.0781ZM21.5274 4.24286L21.6513 3.76843H22.6881L22.8148 4.24286H21.5274Z" fill="#ECE531"/>
<path d="M23.5481 4.82143V2.12143H23.934L25.1235 4.06543H24.9363V2.12143H25.3971V4.82143H25.014L23.8217 2.87743H24.0089V4.82143H23.5481Z" fill="#ECE531"/>
<path d="M26.4247 4.82143L27.3233 2.12143H27.7841L28.6855 4.82143H28.1959L27.4586 2.43771H27.6429L26.9028 4.82143H26.4247ZM26.874 4.24286L26.9978 3.76843H28.0346L28.1613 4.24286H26.874Z" fill="#ECE531"/>
<path d="M28.8947 4.82143V2.12143H29.2806L30.47 4.06543H30.2828V2.12143H30.7436V4.82143H30.3606L29.1683 2.87743H29.3555V4.82143H28.8947Z" fill="#ECE531"/>
<path d="M31.2206 4.82143V2.12143H32.1364C32.3553 2.12143 32.5483 2.178 32.7153 2.29114C32.8824 2.40171 33.0129 2.55729 33.107 2.75786C33.2011 2.95843 33.2481 3.19629 33.2481 3.47143C33.2481 3.744 33.2011 3.98186 33.107 4.185C33.0129 4.38557 32.8824 4.54243 32.7153 4.65557C32.5483 4.76614 32.3553 4.82143 32.1364 4.82143H31.2206ZM31.6872 4.30843H32.1134C32.2478 4.30843 32.364 4.275 32.4619 4.20814C32.5617 4.13871 32.6385 4.041 32.6923 3.915C32.748 3.789 32.7758 3.64114 32.7758 3.47143C32.7758 3.29914 32.748 3.15129 32.6923 3.02786C32.6385 2.90186 32.5617 2.80543 32.4619 2.73857C32.364 2.66914 32.2478 2.63443 32.1134 2.63443H31.6872V4.30843Z" fill="#ECE531"/>
<path d="M33.6 4.82143V2.12143H34.4726C34.6531 2.12143 34.8086 2.16129 34.9392 2.241C35.0697 2.31814 35.1705 2.43 35.2416 2.57657C35.3126 2.72314 35.3481 2.898 35.3481 3.10114C35.3481 3.30171 35.3126 3.47529 35.2416 3.62186C35.1705 3.76586 35.0697 3.87643 34.9392 3.95357C34.8086 4.03071 34.6531 4.06929 34.4726 4.06929H33.8592L34.0665 3.79543V4.82143H33.6ZM34.8816 4.82143L34.3776 3.84171H34.8758L35.3856 4.82143H34.8816ZM34.0665 3.86486L33.8592 3.57171H34.4467C34.5907 3.57171 34.6982 3.53057 34.7693 3.44829C34.8403 3.36343 34.8758 3.24771 34.8758 3.10114C34.8758 2.952 34.8403 2.83629 34.7693 2.754C34.6982 2.67171 34.5907 2.63057 34.4467 2.63057H33.8592L34.0665 2.33357V3.86486Z" fill="#ECE531"/>
<path d="M36.1469 3.20914H37.1175V3.69514H36.1469V3.20914ZM36.1815 4.32H37.2787V4.82143H35.7178V2.12143H37.2413V2.62286H36.1815V4.32Z" fill="#ECE531"/>
<path d="M37.385 4.82143L38.2836 2.12143H38.7444L39.6458 4.82143H39.1562L38.4189 2.43771H38.6033L37.8631 4.82143H37.385ZM37.8343 4.24286L37.9581 3.76843H38.9949L39.1217 4.24286H37.8343Z" fill="#ECE531"/>
<path d="M40.5174 4.86771C40.3561 4.86771 40.2015 4.83943 40.0537 4.78286C39.9059 4.72371 39.7868 4.64786 39.6966 4.55529L39.855 4.08471C39.9414 4.167 40.0431 4.23514 40.1603 4.28914C40.2793 4.34057 40.3993 4.36629 40.5203 4.36629C40.6124 4.36629 40.6863 4.35471 40.742 4.33157C40.7996 4.30586 40.8419 4.27114 40.8687 4.22743C40.8956 4.18371 40.9091 4.13357 40.9091 4.077C40.9091 4.005 40.8879 3.94843 40.8457 3.90729C40.8035 3.86357 40.7478 3.82886 40.6787 3.80314C40.6095 3.77486 40.5327 3.74914 40.4483 3.726C40.3657 3.70029 40.2822 3.66943 40.1977 3.63343C40.1151 3.59743 40.0393 3.55114 39.9702 3.49457C39.9011 3.438 39.8444 3.36343 39.8003 3.27086C39.758 3.17829 39.7369 3.06 39.7369 2.916C39.7369 2.76171 39.7676 2.62157 39.8291 2.49557C39.8924 2.367 39.9865 2.26543 40.1113 2.19086C40.238 2.11371 40.3964 2.07514 40.5865 2.07514C40.7132 2.07514 40.838 2.09571 40.9609 2.13686C41.0838 2.17543 41.1923 2.23457 41.2863 2.31429L41.1423 2.78871C41.0483 2.71671 40.9542 2.664 40.8601 2.63057C40.766 2.59457 40.6739 2.57657 40.5836 2.57657C40.4934 2.57657 40.4195 2.59071 40.3619 2.619C40.3043 2.64729 40.263 2.68457 40.238 2.73086C40.2131 2.77457 40.2006 2.826 40.2006 2.88514C40.2006 2.95457 40.2217 3.01114 40.2639 3.05486C40.3062 3.096 40.3619 3.12943 40.431 3.15514C40.5001 3.18086 40.5759 3.20657 40.6585 3.23229C40.743 3.258 40.8265 3.28757 40.9091 3.321C40.9935 3.35443 41.0703 3.39943 41.1395 3.456C41.2086 3.51257 41.2643 3.58714 41.3065 3.67971C41.3507 3.77229 41.3727 3.88929 41.3727 4.03071C41.3727 4.18243 41.3411 4.32129 41.2777 4.44729C41.2143 4.57329 41.1193 4.67486 40.9926 4.752C40.8678 4.82914 40.7094 4.86771 40.5174 4.86771Z" fill="#ECE531"/>
<path d="M3.95359 21.5357L6.78559 16.3157V17.5757L4.08799 12.5357H5.49919L7.50559 16.2643L6.92959 16.2771L8.91679 12.5357H10.2704L7.59199 17.4857V16.2771L10.4432 21.5357H9.00319L6.89119 17.5757H7.45759L5.37439 21.5357H3.95359Z" fill="#ECE531"/>
<path d="M10.4692 21.5357L13.3012 16.3157V17.5757L10.6036 12.5357H12.0148L14.0212 16.2643L13.4452 16.2771L15.4324 12.5357H16.786L14.1076 17.4857V16.2771L16.9588 21.5357H15.5188L13.4068 17.5757H13.9732L11.89 21.5357H10.4692Z" fill="#ECE531"/>
<path d="M16.9848 21.5357L19.8168 16.3157V17.5757L17.1192 12.5357H18.5304L20.5368 16.2643L19.9608 16.2771L21.948 12.5357H23.3016L20.6232 17.4857V16.2771L23.4744 21.5357H22.0344L19.9224 17.5757H20.4888L18.4056 21.5357H16.9848Z" fill="#ECE531"/>
<path d="M23.5005 21.5357L26.3325 16.3157V17.5757L23.6349 12.5357H25.0461L27.0525 16.2643L26.4765 16.2771L28.4637 12.5357H29.8173L27.1389 17.4857V16.2771L29.9901 21.5357H28.5501L26.4381 17.5757H27.0045L24.9213 21.5357H23.5005Z" fill="#ECE531"/>
<path d="M30.0161 21.5357L32.8481 16.3157V17.5757L30.1505 12.5357H31.5617L33.5681 16.2643L32.9921 16.2771L34.9793 12.5357H36.3329L33.6545 17.4857V16.2771L36.5057 21.5357H35.0657L32.9537 17.5757H33.5201L31.4369 21.5357H30.0161Z" fill="#ECE531"/>
<path d="M36.5317 21.5357L39.3637 16.3157V17.5757L36.6661 12.5357H38.0773L40.0837 16.2643L39.5077 16.2771L41.4949 12.5357H42.8485L40.1701 17.4857V16.2771L43.0213 21.5357H41.5813L39.4693 17.5757H40.0357L37.9525 21.5357H36.5317Z" fill="#ECE531"/>
<path d="M43.0473 21.5357L45.8793 16.3157V17.5757L43.1817 12.5357H44.5929L46.5993 16.2643L46.0233 16.2771L48.0105 12.5357H49.3641L46.6857 17.4857V16.2771L49.5369 21.5357H48.0969L45.9849 17.5757H46.5513L44.4681 21.5357H43.0473Z" fill="#ECE531"/>
<path d="M49.563 21.5357L52.395 16.3157V17.5757L49.6974 12.5357H51.1086L53.115 16.2643L52.539 16.2771L54.5262 12.5357H55.8798L53.2014 17.4857V16.2771L56.0526 21.5357H54.6126L52.5006 17.5757H53.067L50.9838 21.5357H49.563Z" fill="#ECE531"/>
</svg>
