<svg width="60" height="30" viewBox="0 0 60 30" fill="none" xmlns="http://www.w3.org/2000/svg">
<path d="M0 1.875C0 0.839466 0.537258 0 1.2 0H58.8C59.4627 0 60 0.839466 60 1.875V28.125C60 29.1605 59.4627 30 58.8 30H1.2C0.537257 30 0 29.1605 0 28.125V1.875Z" fill="#E3E3E3"/>
<path d="M52.8 0H58.8C59.4627 0 60 0.839466 60 1.875V7.5H52.8V0Z" fill="#E41C1C"/>
<path d="M19.6889 5.679C19.5277 5.679 19.3731 5.646 19.2253 5.58C19.0774 5.511 18.9584 5.4225 18.8681 5.3145L19.0265 4.7655C19.1129 4.8615 19.2147 4.941 19.3318 5.004C19.4509 5.064 19.5709 5.094 19.6918 5.094C19.784 5.094 19.8579 5.0805 19.9136 5.0535C19.9712 5.0235 20.0134 4.983 20.0403 4.932C20.0672 4.881 20.0806 4.8225 20.0806 4.7565C20.0806 4.6725 20.0595 4.6065 20.0173 4.5585C19.975 4.5075 19.9193 4.467 19.8502 4.437C19.7811 4.404 19.7043 4.374 19.6198 4.347C19.5373 4.317 19.4537 4.281 19.3693 4.239C19.2867 4.197 19.2109 4.143 19.1417 4.077C19.0726 4.011 19.016 3.924 18.9718 3.816C18.9296 3.708 18.9085 3.57 18.9085 3.402C18.9085 3.222 18.9392 3.0585 19.0006 2.9115C19.064 2.7615 19.1581 2.643 19.2829 2.556C19.4096 2.466 19.568 2.421 19.7581 2.421C19.8848 2.421 20.0096 2.445 20.1325 2.493C20.2553 2.538 20.3638 2.607 20.4579 2.7L20.3139 3.2535C20.2198 3.1695 20.1257 3.108 20.0317 3.069C19.9376 3.027 19.8454 3.006 19.7552 3.006C19.6649 3.006 19.591 3.0225 19.5334 3.0555C19.4758 3.0885 19.4345 3.132 19.4096 3.186C19.3846 3.237 19.3721 3.297 19.3721 3.366C19.3721 3.447 19.3933 3.513 19.4355 3.564C19.4777 3.612 19.5334 3.651 19.6025 3.681C19.6717 3.711 19.7475 3.741 19.8301 3.771C19.9145 3.801 19.9981 3.8355 20.0806 3.8745C20.1651 3.9135 20.2419 3.966 20.311 4.032C20.3801 4.098 20.4358 4.185 20.4781 4.293C20.5222 4.401 20.5443 4.5375 20.5443 4.7025C20.5443 4.8795 20.5126 5.0415 20.4493 5.1885C20.3859 5.3355 20.2909 5.454 20.1641 5.544C20.0393 5.634 19.8809 5.679 19.6889 5.679Z" fill="#E41C1C"/>
<path d="M20.5981 5.625L21.4967 2.475H21.9575L22.8589 5.625H22.3693L21.6321 2.844H21.8164L21.0762 5.625H20.5981ZM21.0474 4.95L21.1713 4.3965H22.2081L22.3348 4.95H21.0474Z" fill="#E41C1C"/>
<path d="M23.0681 5.625V2.475H23.454L24.6435 4.743H24.4563V2.475H24.9171V5.625H24.534L23.3417 3.357H23.5289V5.625H23.0681Z" fill="#E41C1C"/>
<path d="M25.9447 5.625L26.8433 2.475H27.3041L28.2055 5.625H27.7159L26.9786 2.844H27.1629L26.4228 5.625H25.9447ZM26.394 4.95L26.5178 4.3965H27.5546L27.6813 4.95H26.394Z" fill="#E41C1C"/>
<path d="M28.4147 5.625V2.475H28.8006L29.99 4.743H29.8028V2.475H30.2636V5.625H29.8806L28.6883 3.357H28.8755V5.625H28.4147Z" fill="#E41C1C"/>
<path d="M30.7406 5.625V2.475H31.6564C31.8753 2.475 32.0683 2.541 32.2353 2.673C32.4024 2.802 32.5329 2.9835 32.627 3.2175C32.7211 3.4515 32.7681 3.729 32.7681 4.05C32.7681 4.368 32.7211 4.6455 32.627 4.8825C32.5329 5.1165 32.4024 5.2995 32.2353 5.4315C32.0683 5.5605 31.8753 5.625 31.6564 5.625H30.7406ZM31.2072 5.0265H31.6334C31.7678 5.0265 31.884 4.9875 31.9819 4.9095C32.0817 4.8285 32.1585 4.7145 32.2123 4.5675C32.268 4.4205 32.2958 4.248 32.2958 4.05C32.2958 3.849 32.268 3.6765 32.2123 3.5325C32.1585 3.3855 32.0817 3.273 31.9819 3.195C31.884 3.114 31.7678 3.0735 31.6334 3.0735H31.2072V5.0265Z" fill="#E41C1C"/>
<path d="M33.12 5.625V2.475H33.9926C34.1731 2.475 34.3286 2.5215 34.4592 2.6145C34.5897 2.7045 34.6905 2.835 34.7616 3.006C34.8326 3.177 34.8681 3.381 34.8681 3.618C34.8681 3.852 34.8326 4.0545 34.7616 4.2255C34.6905 4.3935 34.5897 4.5225 34.4592 4.6125C34.3286 4.7025 34.1731 4.7475 33.9926 4.7475H33.3792L33.5865 4.428V5.625H33.12ZM34.4016 5.625L33.8976 4.482H34.3958L34.9056 5.625H34.4016ZM33.5865 4.509L33.3792 4.167H33.9667C34.1107 4.167 34.2182 4.119 34.2893 4.023C34.3603 3.924 34.3958 3.789 34.3958 3.618C34.3958 3.444 34.3603 3.309 34.2893 3.213C34.2182 3.117 34.1107 3.069 33.9667 3.069H33.3792L33.5865 2.7225V4.509Z" fill="#E41C1C"/>
<path d="M35.6669 3.744H36.6375V4.311H35.6669V3.744ZM35.7015 5.04H36.7987V5.625H35.2378V2.475H36.7613V3.06H35.7015V5.04Z" fill="#E41C1C"/>
<path d="M36.905 5.625L37.8036 2.475H38.2644L39.1658 5.625H38.6762L37.9389 2.844H38.1233L37.3831 5.625H36.905ZM37.3543 4.95L37.4781 4.3965H38.5149L38.6417 4.95H37.3543Z" fill="#E41C1C"/>
<path d="M40.0374 5.679C39.8761 5.679 39.7215 5.646 39.5737 5.58C39.4259 5.511 39.3068 5.4225 39.2166 5.3145L39.375 4.7655C39.4614 4.8615 39.5631 4.941 39.6803 5.004C39.7993 5.064 39.9193 5.094 40.0403 5.094C40.1324 5.094 40.2063 5.0805 40.262 5.0535C40.3196 5.0235 40.3619 4.983 40.3887 4.932C40.4156 4.881 40.4291 4.8225 40.4291 4.7565C40.4291 4.6725 40.4079 4.6065 40.3657 4.5585C40.3235 4.5075 40.2678 4.467 40.1987 4.437C40.1295 4.404 40.0527 4.374 39.9683 4.347C39.8857 4.317 39.8022 4.281 39.7177 4.239C39.6351 4.197 39.5593 4.143 39.4902 4.077C39.4211 4.011 39.3644 3.924 39.3203 3.816C39.278 3.708 39.2569 3.57 39.2569 3.402C39.2569 3.222 39.2876 3.0585 39.3491 2.9115C39.4124 2.7615 39.5065 2.643 39.6313 2.556C39.758 2.466 39.9164 2.421 40.1065 2.421C40.2332 2.421 40.358 2.445 40.4809 2.493C40.6038 2.538 40.7123 2.607 40.8063 2.7L40.6623 3.2535C40.5683 3.1695 40.4742 3.108 40.3801 3.069C40.286 3.027 40.1939 3.006 40.1036 3.006C40.0134 3.006 39.9395 3.0225 39.8819 3.0555C39.8243 3.0885 39.783 3.132 39.758 3.186C39.7331 3.237 39.7206 3.297 39.7206 3.366C39.7206 3.447 39.7417 3.513 39.7839 3.564C39.8262 3.612 39.8819 3.651 39.951 3.681C40.0201 3.711 40.0959 3.741 40.1785 3.771C40.263 3.801 40.3465 3.8355 40.4291 3.8745C40.5135 3.9135 40.5903 3.966 40.6595 4.032C40.7286 4.098 40.7843 4.185 40.8265 4.293C40.8707 4.401 40.8927 4.5375 40.8927 4.7025C40.8927 4.8795 40.8611 5.0415 40.7977 5.1885C40.7343 5.3355 40.6393 5.454 40.5126 5.544C40.3878 5.634 40.2294 5.679 40.0374 5.679Z" fill="#E41C1C"/>
<path d="M0 7.5H60V8.25H0V7.5Z" fill="#ECE531"/>
<path d="M3.95359 25.125L6.78559 19.035V20.505L4.08799 14.625H5.49919L7.50559 18.975L6.92959 18.99L8.91679 14.625H10.2704L7.59199 20.4V18.99L10.4432 25.125H9.00319L6.89119 20.505H7.45759L5.37439 25.125H3.95359Z" fill="#2E1F8A"/>
<path d="M10.4692 25.125L13.3012 19.035V20.505L10.6036 14.625H12.0148L14.0212 18.975L13.4452 18.99L15.4324 14.625H16.786L14.1076 20.4V18.99L16.9588 25.125H15.5188L13.4068 20.505H13.9732L11.89 25.125H10.4692Z" fill="#2E1F8A"/>
<path d="M16.9848 25.125L19.8168 19.035V20.505L17.1192 14.625H18.5304L20.5368 18.975L19.9608 18.99L21.948 14.625H23.3016L20.6232 20.4V18.99L23.4744 25.125H22.0344L19.9224 20.505H20.4888L18.4056 25.125H16.9848Z" fill="#2E1F8A"/>
<path d="M23.5005 25.125L26.3325 19.035V20.505L23.6349 14.625H25.0461L27.0525 18.975L26.4765 18.99L28.4637 14.625H29.8173L27.1389 20.4V18.99L29.9901 25.125H28.5501L26.4381 20.505H27.0045L24.9213 25.125H23.5005Z" fill="#2E1F8A"/>
<path d="M30.0161 25.125L32.8481 19.035V20.505L30.1505 14.625H31.5617L33.5681 18.975L32.9921 18.99L34.9793 14.625H36.3329L33.6545 20.4V18.99L36.5057 25.125H35.0657L32.9537 20.505H33.5201L31.4369 25.125H30.0161Z" fill="#2E1F8A"/>
<path d="M36.5317 25.125L39.3637 19.035V20.505L36.6661 14.625H38.0773L40.0837 18.975L39.5077 18.99L41.4949 14.625H42.8485L40.1701 20.4V18.99L43.0213 25.125H41.5813L39.4693 20.505H40.0357L37.9525 25.125H36.5317Z" fill="#2E1F8A"/>
<path d="M43.0473 25.125L45.8793 19.035V20.505L43.1817 14.625H44.5929L46.5993 18.975L46.0233 18.99L48.0105 14.625H49.3641L46.6857 20.4V18.99L49.5369 25.125H48.0969L45.9849 20.505H46.5513L44.4681 25.125H43.0473Z" fill="#2E1F8A"/>
<path d="M49.563 25.125L52.395 19.035V20.505L49.6974 14.625H51.1086L53.115 18.975L52.539 18.99L54.5262 14.625H55.8798L53.2014 20.4V18.99L56.0526 25.125H54.6126L52.5006 20.505H53.067L50.9838 25.125H49.563Z" fill="#2E1F8A"/>
</svg>
