<svg width="60" height="26" viewBox="0 0 60 26" fill="none" xmlns="http://www.w3.org/2000/svg">
<path d="M0 1.60714C0 0.719542 0.537258 0 1.2 0H58.8C59.4627 0 60 0.719542 60 1.60714V24.1071C60 24.9947 59.4627 25.7143 58.8 25.7143H1.2C0.537257 25.7143 0 24.9947 0 24.1071V1.60714Z" fill="#E3E3E3"/>
<path d="M3.95359 21.5357L6.78559 16.3157V17.5757L4.08799 12.5357H5.49919L7.50559 16.2643L6.92959 16.2771L8.91679 12.5357H10.2704L7.59199 17.4857V16.2771L10.4432 21.5357H9.00319L6.89119 17.5757H7.45759L5.37439 21.5357H3.95359Z" fill="#2E1F8A"/>
<path d="M10.4692 21.5357L13.3012 16.3157V17.5757L10.6036 12.5357H12.0148L14.0212 16.2643L13.4452 16.2771L15.4324 12.5357H16.786L14.1076 17.4857V16.2771L16.9588 21.5357H15.5188L13.4068 17.5757H13.9732L11.89 21.5357H10.4692Z" fill="#2E1F8A"/>
<path d="M16.9848 21.5357L19.8168 16.3157V17.5757L17.1192 12.5357H18.5304L20.5368 16.2643L19.9608 16.2771L21.948 12.5357H23.3016L20.6232 17.4857V16.2771L23.4744 21.5357H22.0344L19.9224 17.5757H20.4888L18.4056 21.5357H16.9848Z" fill="#2E1F8A"/>
<path d="M23.5005 21.5357L26.3325 16.3157V17.5757L23.6349 12.5357H25.0461L27.0525 16.2643L26.4765 16.2771L28.4637 12.5357H29.8173L27.1389 17.4857V16.2771L29.9901 21.5357H28.5501L26.4381 17.5757H27.0045L24.9213 21.5357H23.5005Z" fill="#2E1F8A"/>
<path d="M30.0161 21.5357L32.8481 16.3157V17.5757L30.1505 12.5357H31.5617L33.5681 16.2643L32.9921 16.2771L34.9793 12.5357H36.3329L33.6545 17.4857V16.2771L36.5057 21.5357H35.0657L32.9537 17.5757H33.5201L31.4369 21.5357H30.0161Z" fill="#2E1F8A"/>
<path d="M36.5317 21.5357L39.3637 16.3157V17.5757L36.6661 12.5357H38.0773L40.0837 16.2643L39.5077 16.2771L41.4949 12.5357H42.8485L40.1701 17.4857V16.2771L43.0213 21.5357H41.5813L39.4693 17.5757H40.0357L37.9525 21.5357H36.5317Z" fill="#2E1F8A"/>
<path d="M43.0473 21.5357L45.8793 16.3157V17.5757L43.1817 12.5357H44.5929L46.5993 16.2643L46.0233 16.2771L48.0105 12.5357H49.3641L46.6857 17.4857V16.2771L49.5369 21.5357H48.0969L45.9849 17.5757H46.5513L44.4681 21.5357H43.0473Z" fill="#2E1F8A"/>
<path d="M49.563 21.5357L52.395 16.3157V17.5757L49.6974 12.5357H51.1086L53.115 16.2643L52.539 16.2771L54.5262 12.5357H55.8798L53.2014 17.4857V16.2771L56.0526 21.5357H54.6126L52.5006 17.5757H53.067L50.9838 21.5357H49.563Z" fill="#2E1F8A"/>
<path d="M22.2755 4.86771C22.1142 4.86771 21.9597 4.83943 21.8118 4.78286C21.664 4.72371 21.5449 4.64786 21.4547 4.55529L21.6131 4.08471C21.6995 4.167 21.8013 4.23514 21.9184 4.28914C22.0374 4.34057 22.1574 4.36629 22.2784 4.36629C22.3705 4.36629 22.4445 4.35471 22.5001 4.33157C22.5577 4.30586 22.6 4.27114 22.6269 4.22743C22.6537 4.18371 22.6672 4.13357 22.6672 4.077C22.6672 4.005 22.6461 3.94843 22.6038 3.90729C22.5616 3.86357 22.5059 3.82886 22.4368 3.80314C22.3677 3.77486 22.2909 3.74914 22.2064 3.726C22.1238 3.70029 22.0403 3.66943 21.9558 3.63343C21.8733 3.59743 21.7974 3.55114 21.7283 3.49457C21.6592 3.438 21.6025 3.36343 21.5584 3.27086C21.5161 3.17829 21.495 3.06 21.495 2.916C21.495 2.76171 21.5257 2.62157 21.5872 2.49557C21.6505 2.367 21.7446 2.26543 21.8694 2.19086C21.9961 2.11371 22.1545 2.07514 22.3446 2.07514C22.4713 2.07514 22.5961 2.09571 22.719 2.13686C22.8419 2.17543 22.9504 2.23457 23.0445 2.31429L22.9005 2.78871C22.8064 2.71671 22.7123 2.664 22.6182 2.63057C22.5241 2.59457 22.432 2.57657 22.3417 2.57657C22.2515 2.57657 22.1776 2.59071 22.12 2.619C22.0624 2.64729 22.0211 2.68457 21.9961 2.73086C21.9712 2.77457 21.9587 2.826 21.9587 2.88514C21.9587 2.95457 21.9798 3.01114 22.0221 3.05486C22.0643 3.096 22.12 3.12943 22.1891 3.15514C22.2582 3.18086 22.3341 3.20657 22.4166 3.23229C22.5011 3.258 22.5846 3.28757 22.6672 3.321C22.7517 3.35443 22.8285 3.39943 22.8976 3.456C22.9667 3.51257 23.0224 3.58714 23.0646 3.67971C23.1088 3.77229 23.1309 3.88929 23.1309 4.03071C23.1309 4.18243 23.0992 4.32129 23.0358 4.44729C22.9725 4.57329 22.8774 4.67486 22.7507 4.752C22.6259 4.82914 22.4675 4.86771 22.2755 4.86771Z" fill="#E41C1C"/>
<path d="M23.1847 4.82143L24.0833 2.12143H24.5441L25.4455 4.82143H24.9559L24.2186 2.43771H24.4029L23.6628 4.82143H23.1847ZM23.634 4.24286L23.7578 3.76843H24.7946L24.9213 4.24286H23.634Z" fill="#E41C1C"/>
<path d="M26.8994 3.20914H27.87V3.69514H26.8994V3.20914ZM26.934 4.32H28.0312V4.82143H26.4703V2.12143H27.9938V2.62286H26.934V4.32Z" fill="#E41C1C"/>
<path d="M28.1524 4.82143L29.0193 3.22071V3.67586L28.1898 2.12143H28.7197L29.2929 3.20529L29.0711 3.20914L29.6356 2.12143H30.1425L29.3188 3.64886V3.20143L30.1914 4.82143H29.6529L29.0596 3.67586H29.2727L28.6881 4.82143H28.1524Z" fill="#E41C1C"/>
<path d="M30.8032 3.20914H31.7737V3.69514H30.8032V3.20914ZM30.8377 4.32H31.935V4.82143H30.374V2.12143H31.8976V2.62286H30.8377V4.32Z" fill="#E41C1C"/>
<path d="M32.3062 4.82143V2.12143H32.6921L33.5504 4.02686H33.3459L34.1897 2.12143H34.5728L34.5785 4.82143H34.1408L34.1379 3.02014H34.2185L33.5446 4.536H33.3344L32.6461 3.02014H32.744V4.82143H32.3062Z" fill="#E41C1C"/>
<path d="M35.0569 4.82143V2.12143H35.9295C36.11 2.12143 36.2655 2.16129 36.3961 2.241C36.5266 2.31814 36.6274 2.43 36.6985 2.57657C36.7695 2.72314 36.805 2.898 36.805 3.10114C36.805 3.30171 36.7695 3.47529 36.6985 3.62186C36.6274 3.76843 36.5266 3.88157 36.3961 3.96129C36.2655 4.03843 36.11 4.077 35.9295 4.077H35.3161L35.5234 3.79543V4.82143H35.0569ZM35.5234 3.86486L35.3161 3.56786H35.9036C36.0476 3.56786 36.1551 3.52671 36.2261 3.44443C36.2972 3.36214 36.3327 3.24771 36.3327 3.10114C36.3327 2.952 36.2972 2.83629 36.2261 2.754C36.1551 2.67171 36.0476 2.63057 35.9036 2.63057H35.3161L35.5234 2.33357V3.86486Z" fill="#E41C1C"/>
<path d="M37.5023 4.82143V2.63057H36.8571V2.12143H38.6139V2.63057H37.9688V4.82143H37.5023Z" fill="#E41C1C"/>
</svg>
