<svg width="45" height="45" viewBox="0 0 45 45" fill="none" xmlns="http://www.w3.org/2000/svg">
<g clip-path="url(#clip0_421_171)">
<path d="M4.65527 0.775898V5.43111H40.3449V0.775898C40.3449 0.347432 39.9975 0 39.569 0H5.43108C5.00262 0 4.65527 0.347432 4.65527 0.775898Z" fill="#5A7DBE"/>
<path d="M20.1726 0H18.6208V5.43103H20.1726V0Z" fill="#4D71B4"/>
<path d="M39.5082 4.65521H33.3621V0.775898C33.3621 0.347432 33.0151 0 32.5862 0C32.1574 0 31.8103 0.347432 31.8103 0.775898V4.65521H13.1897V0.775898C13.1897 0.347432 12.8427 0 12.4138 0C11.9849 0 11.6379 0.347432 11.6379 0.775898V4.65521H5.49192C4.61152 4.65521 3.90752 5.38682 3.94136 6.2666L5.40236 44.254C5.41836 44.6706 5.76069 45.0001 6.17765 45.0001H19.4248C19.8421 45.0001 20.1847 44.67 20.2001 44.2529L20.9216 24.7702C20.9526 23.9361 21.6377 23.2759 22.4723 23.2759H22.5276C23.3622 23.2759 24.0473 23.9361 24.0782 24.7702L24.7998 44.2529C24.8152 44.67 25.1578 45.0001 25.5751 45.0001H38.8222C39.2392 45.0001 39.5815 44.6707 39.5975 44.254L41.0585 6.2666C41.0926 5.38682 40.3886 4.65521 39.5082 4.65521Z" fill="#6487C8"/>
<path d="M4.23089 13.796H6.98274V9.31057C6.98274 8.8821 6.63531 8.53467 6.20685 8.53467H4.02856L4.23089 13.796Z" fill="#5A7DBE"/>
<path d="M19.4249 44.9999C19.8422 44.9999 20.1848 44.6698 20.2002 44.2527L20.2875 41.8965H5.31177L5.40247 44.2539C5.41847 44.6705 5.7608 45 6.17775 45H19.4249V44.9999Z" fill="#5A7DBE"/>
<path d="M24.7126 41.8966L24.7999 44.2528C24.8153 44.6699 25.1579 45 25.5752 45H38.8223C39.2393 45 39.5816 44.6706 39.5976 44.2539L39.6883 41.8965H24.7126V41.8966Z" fill="#5A7DBE"/>
<path d="M22.5 3.10355C22.9285 3.10355 23.2759 2.75617 23.2759 2.32766C23.2759 1.89914 22.9285 1.55176 22.5 1.55176C22.0715 1.55176 21.7241 1.89914 21.7241 2.32766C21.7241 2.75617 22.0715 3.10355 22.5 3.10355Z" fill="#4D71B4"/>
<path d="M40.3449 15.5173H40.7029L40.7924 13.1897H40.3449C38.2024 13.1897 36.4655 11.4528 36.4655 9.3104V4.65527H34.1379V9.31049C34.1379 12.7384 36.9169 15.5173 40.3449 15.5173Z" fill="#4D71B4"/>
<path d="M4.6553 15.5173H4.29724L4.20776 13.1897H4.6553C6.79772 13.1897 8.53462 11.4528 8.53462 9.3104V4.65527H10.8622V9.31049C10.8621 12.7384 8.08321 15.5173 4.6553 15.5173Z" fill="#4D71B4"/>
<path d="M22.5 4.65527H21.7241H20.9482V24.5745C21.0707 23.8363 21.7049 23.276 22.4724 23.276H22.5V19.3966H23.2758C23.7043 19.3966 24.0517 19.0492 24.0517 18.6207V4.65527H22.5Z" fill="#5A7DBE"/>
</g>
<defs>
<clipPath id="clip0_421_171">
<rect width="45" height="45" fill="white"/>
</clipPath>
</defs>
</svg>
