<svg width="45" height="45" viewBox="0 0 45 45" fill="none" xmlns="http://www.w3.org/2000/svg">
<path d="M6.45967 20.6131C9.14515 18.2179 15.3145 16.5486 22.5 16.5486C29.6855 16.5486 35.8548 18.2179 38.5403 20.6131C39.4839 19.8147 39.9919 18.9437 39.9919 18.0002C39.9919 14.2986 32.1532 11.3228 22.5 11.3228C12.8468 11.3228 5.00806 14.2986 5.00806 18.0002C5.00806 18.9437 5.51612 19.8147 6.45967 20.6131Z" fill="#FF7F00"/>
<path d="M22.5 13.2095C13.7178 13.2095 6.38712 15.6772 5.22583 18.9433C5.44357 19.524 5.87906 20.1046 6.4597 20.6127C9.14518 18.2175 15.3145 16.5482 22.5 16.5482C29.6855 16.5482 35.8549 18.2175 38.5403 20.6127C39.121 20.1046 39.5565 19.524 39.7742 18.9433C38.6129 15.6772 31.2823 13.2095 22.5 13.2095Z" fill="#ED7306"/>
<path d="M22.5 10.0889C10.0887 10.0889 0 14.8066 0 21.7018C0 28.5969 4.42742 34.9114 22.5 34.9114C40.5726 34.9114 45 28.5969 45 21.7018C45 14.8066 34.9113 10.0889 22.5 10.0889ZM22.5 24.3873C12.8468 24.3873 5.00806 21.7744 5.00806 18.0002C5.00806 14.2985 12.8468 11.3227 22.5 11.3227C32.1532 11.3227 39.9919 14.2985 39.9919 18.0002C39.9919 21.7018 32.1532 24.3873 22.5 24.3873Z" fill="#FFB600"/>
<path d="M22.4999 24.9679C32.1532 24.9679 39.9919 22.355 39.9919 18.5808C39.9919 18.5083 39.9919 18.3631 39.9919 18.2905C39.5564 21.847 31.9354 24.3873 22.5725 24.3873C13.2096 24.3873 5.44348 21.847 5.08058 18.2905C5.08058 18.3631 5.08058 18.5083 5.08058 18.5808C5.008 22.355 12.8467 24.9679 22.4999 24.9679Z" fill="#FFDA00"/>
<path d="M22.5 10.7421C34.8387 10.7421 44.7823 15.3873 45 22.1373C45 21.9921 45 21.8469 45 21.7018C45 14.8066 34.9113 10.0889 22.5 10.0889C10.0887 10.0889 0 14.8066 0 21.7018C0 21.8469 0 21.9921 0 22.1373C0.217742 15.3873 10.1613 10.7421 22.5 10.7421Z" fill="#FFDA00"/>
<path d="M22.5 31.7903C13.4274 31.7903 5.44353 29.9032 1.01611 26.7822C3.19353 31.4274 9.07257 34.9113 22.5 34.9113C35.9274 34.9113 41.8064 31.4274 43.9839 26.7822C39.5564 29.9032 31.5726 31.7903 22.5 31.7903Z" fill="#FF9D00"/>
<g opacity="0.2">
<path opacity="0.2" d="M16.1855 31.3547C16.1129 31.3547 16.0403 31.2821 16.0403 31.2821L15.3145 29.9031L13.1371 31.2821C13.0645 31.3547 12.9919 31.2821 12.9193 31.2821L11.1774 29.3951L9.79838 30.7741C9.7258 30.8467 9.7258 30.8467 9.65322 30.8467C9.58064 30.8467 9.58064 30.7741 9.50806 30.7741L8.20161 27.8709L7.62096 30.8467C7.62096 30.9192 7.54838 30.9918 7.4758 30.9918C7.40322 30.9918 7.33064 30.9192 7.33064 30.8467L5.29838 25.1854L4.71773 27.0725C4.71773 27.1451 4.64515 27.1451 4.57257 27.2176C4.49999 27.2176 4.42741 27.2176 4.42741 27.1451L2.24999 25.1854C2.17741 25.1128 2.17741 25.0402 2.24999 24.9676C2.32257 24.8951 2.39515 24.8951 2.46773 24.9676L4.42741 26.7096L5.08064 24.6047C5.08064 24.5321 5.15322 24.4596 5.2258 24.4596C5.29838 24.4596 5.37096 24.5321 5.37096 24.6047L7.33064 30.1934L7.91128 27.2902C7.91128 27.2176 7.98386 27.1451 8.05644 27.1451C8.12902 27.1451 8.20161 27.1451 8.20161 27.2176L9.58064 30.4112L10.8871 29.1047C10.8871 29.1047 10.9597 29.0321 11.0323 29.0321C11.1048 29.0321 11.1048 29.0321 11.1774 29.1047L12.9193 30.9918L15.1693 29.5402C15.2419 29.5402 15.2419 29.5402 15.3145 29.5402C15.3871 29.5402 15.3871 29.6128 15.4597 29.6128L16.1129 30.9192L17.3468 29.4676C17.3468 29.4676 17.4193 29.3951 17.4919 29.3951L22.2823 28.7418H22.3548L25.9839 29.8305C26.0564 29.8305 26.0564 29.9031 26.129 29.9031L26.4193 30.7015L27.5081 30.4112L32.5887 27.7983H32.6613H34.1855C34.2581 27.7983 34.3306 27.7983 34.3306 27.8709L35.2016 29.3951L36.1452 25.9838C36.1452 25.9112 36.2177 25.8386 36.2903 25.8386C36.3629 25.8386 36.4355 25.9112 36.4355 25.9838C36.4355 26.0563 36.7258 28.016 36.7258 28.5967C36.871 28.6692 37.8145 28.3063 38.7581 27.7983L39.2661 25.766C39.2661 25.6934 39.3387 25.6209 39.4113 25.6209L39.9193 25.5483L41.2258 25.258C41.2984 25.258 41.2984 25.258 41.371 25.258L41.8064 25.4757L42.3145 23.008C42.3145 22.9354 42.3871 22.8628 42.5322 22.8628C42.6048 22.8628 42.6774 23.008 42.6774 23.0805L42.1693 25.8386C42.1693 25.9112 42.0968 25.9112 42.0968 25.9838C42.0242 25.9838 41.9516 25.9838 41.9516 25.9838L41.371 25.6209L40.1371 25.9112L39.7016 25.9838L39.1935 28.016C39.1935 28.0886 39.121 28.0886 39.121 28.1612C38.5403 28.5241 37.0887 29.2499 36.6532 28.9596C36.5806 28.887 36.5081 28.8144 36.5081 28.6692C36.5081 28.3063 36.4355 27.508 36.2903 26.8547L35.4193 29.9031C35.4193 29.9757 35.3468 30.0483 35.2742 30.0483C35.2016 30.0483 35.129 30.0483 35.129 29.9757L34.1129 28.0886H32.7339L27.6532 30.7015L26.4193 31.0644C26.3468 31.0644 26.2016 31.0644 26.2016 30.9192L25.9113 30.0483L22.4274 29.0321L17.7097 29.6854L16.3306 31.2821C16.3306 31.3547 16.2581 31.3547 16.1855 31.3547Z" fill="#FFFFC7"/>
</g>
</svg>
