<svg width="45" height="45" viewBox="0 0 45 45" fill="none" xmlns="http://www.w3.org/2000/svg">
<g clip-path="url(#clip0_607_280)">
<path d="M42.8098 34.532C42.4431 34.8972 42.4431 35.492 42.8098 35.8572L42.8015 35.849C42.8592 35.9095 43.0227 36.1181 43.0926 36.357C43.1517 36.5658 43.1654 36.8267 42.8097 37.1837C42.4527 37.5394 42.1917 37.5257 41.983 37.4652C41.7467 37.3979 41.5407 37.2372 41.4776 37.1781L38.8313 34.5319C38.4646 34.1652 37.8714 34.1652 37.5074 34.5319C37.1408 34.8972 37.1408 35.4919 37.5074 35.8572L40.1579 38.5076C40.9571 39.3069 42.6765 39.9673 44.1349 38.5076C45.5947 37.0505 44.9355 35.3311 44.1349 34.5319C43.7698 34.1652 43.1752 34.1652 42.8098 34.532Z" fill="#664F36"/>
<path d="M33.58 8.76428C33.2147 8.39758 32.62 8.39758 32.2547 8.76428L0.273972 40.7443C-0.0913239 41.111 -0.0913239 41.7043 0.273972 42.071L2.92579 44.7229C3.10158 44.8987 3.34057 44.9975 3.58914 44.9975C3.83771 44.9975 4.07661 44.8987 4.25241 44.7229L36.2332 12.7414C36.409 12.5656 36.5064 12.328 36.5064 12.0795C36.5064 11.8309 36.409 11.5919 36.2332 11.4162L33.58 8.76428Z" fill="#A9825A"/>
<path d="M10.8813 30.1387L0.273972 40.7446C-0.0913239 41.1113 -0.0913239 41.7046 0.273972 42.0713L2.92579 44.7232C3.10158 44.8989 3.34057 44.9978 3.58914 44.9978C3.83771 44.9978 4.07661 44.8989 4.25241 44.7232L14.8585 34.1171L10.8813 30.1387Z" fill="#7E6142"/>
<path d="M6.24103 42.7345L7.56624 41.4078L3.58921 37.4307L2.26392 38.756L6.24103 42.7345Z" fill="#664F36"/>
<path d="M8.89148 40.0825L10.2182 38.7559L6.24107 34.7788L4.91577 36.1055L8.89148 40.0825Z" fill="#664F36"/>
<path d="M33.1871 1.89494C31.984 0.782617 30.3307 0.134384 28.4052 0.0203831C25.6051 -0.145828 22.5845 0.818303 20.1209 2.66535C17.3523 4.7404 15.5849 7.7438 15.1426 11.1249C14.6908 14.5732 15.35 17.7731 17.0996 20.6392C18.4798 22.8997 20.537 24.9431 23.2108 26.7147C27.7008 29.6866 32.3536 30.858 32.5486 30.9074C32.8796 30.9884 33.2132 30.884 33.4371 30.6589C33.5538 30.5422 33.6417 30.3938 33.6843 30.2221C33.8078 29.7195 33.5016 29.2114 33.0003 29.0864C32.955 29.0754 28.4272 27.9301 24.2071 25.1244C21.7743 23.508 19.9162 21.6623 18.6871 19.6408C17.1764 17.1565 16.6093 14.3727 17.002 11.368C17.4841 7.6821 19.5742 5.41746 21.2456 4.16643C23.3289 2.60496 25.9649 1.75483 28.2954 1.89222C29.7827 1.98152 31.0338 2.45809 31.914 3.27245C32.8616 4.14859 33.3589 5.3859 33.389 6.9501C33.3684 7.06542 33.2709 7.47747 32.8644 8.0488L34.2033 9.3878C35.1632 8.15726 35.2552 7.18777 35.2635 7.06551C35.2649 7.04081 35.2662 7.01883 35.2649 6.99413C35.2401 4.89289 34.5219 3.12953 33.1871 1.89494Z" fill="#E6E9ED"/>
<path d="M34.8763 28.8395C33.7709 28.4714 32.8219 28.6087 32.2025 29.2267C31.5845 29.8461 31.4472 30.795 31.8153 31.9005C32.1105 32.7878 32.7203 33.7216 33.5292 34.5318C34.3381 35.3407 35.2719 35.9491 36.1591 36.2444C37.2645 36.6137 38.2149 36.4764 38.8315 35.8571C39.4495 35.2391 39.5882 34.2887 39.2187 33.1832C38.9235 32.2961 38.3151 31.3622 37.5076 30.5534C36.6974 29.7444 35.7635 29.1361 34.8763 28.8395Z" fill="#A9825A"/>
</g>
<defs>
<clipPath id="clip0_607_280">
<rect width="45" height="45" fill="white"/>
</clipPath>
</defs>
</svg>
