<svg width="45" height="45" viewBox="0 0 45 45" fill="none" xmlns="http://www.w3.org/2000/svg">
<g clip-path="url(#clip0_421_130)">
<path d="M28.6322 17.4596C27.2922 16.9811 26.2393 17.7467 26.1437 17.7467C25.9523 17.9381 25.8565 18.2253 26.0479 18.5124C26.2393 18.7038 26.5264 18.7995 26.8136 18.6081C26.8136 18.6081 27.3879 18.2253 28.1535 18.4167L28.8235 17.5553C28.7279 17.4596 28.6322 17.4596 28.6322 17.4596Z" fill="#2FC0E9"/>
<path d="M31.9822 18.3208L31.7908 19.3736C33.9921 19.9479 34.0879 22.915 34.0879 23.0107C34.0879 23.2978 34.2793 23.5849 34.6621 23.5849C34.7579 23.5849 34.8535 23.5849 34.8535 23.5849C35.0449 23.4892 35.1407 23.2978 35.1407 23.1064C35.1407 22.915 35.1407 18.9908 31.9822 18.3208Z" fill="#2FC0E9"/>
<path d="M20.9752 13.344C19.8266 12.5783 18.5823 13.0569 18.5823 13.0569C18.2952 13.1526 18.1994 13.4398 18.2952 13.7269C18.3909 14.014 18.6781 14.1098 18.9652 14.014C18.9652 14.014 19.6352 13.8226 20.3051 14.1098L21.1666 13.4398C21.1666 13.4397 21.0709 13.4397 20.9752 13.344Z" fill="#2FC0E9"/>
<path d="M24.0379 15.1626C24.0379 15.1626 24.0379 15.067 24.0379 15.1626L23.5593 16.1198C25.5693 17.1726 24.8036 20.1397 24.8036 20.2355C24.7079 20.5226 24.8994 20.8097 25.1865 20.9055C25.2822 20.9055 25.3779 20.9055 25.3779 20.9055C25.5693 20.9055 25.7608 20.7141 25.8564 20.5226C25.8564 20.3311 26.9092 16.5983 24.0379 15.1626Z" fill="#2FC0E9"/>
<path d="M1.7371 15.0671C1.7371 15.0671 2.31137 13.6314 4.79987 15.0671C7.28836 16.5028 9.29833 16.0242 10.5426 15.0671C11.7869 14.1099 14.084 12.0043 15.0411 12.4829C15.9982 12.9614 17.3382 18.7999 17.3382 18.7999L6.80983 23.6812L1.64136 19.9484V15.0671H1.7371Z" fill="#E0E0DF"/>
<path d="M0.0141796 25.9781C0.0141796 25.9781 -0.272958 18.1296 1.737 15.0669C1.737 15.0669 4.12985 18.034 7.28836 18.034C10.4469 18.034 13.414 13.4398 13.414 13.4398C13.414 13.4398 14.7539 11.3341 18.7739 13.4398C22.7938 15.5455 27.1008 19.0868 34.4707 20.9053C41.8405 22.7239 40.7877 20.714 43.4677 23.681V27.8923L16.2854 30.9551L1.06708 29.6151L0.0141796 25.9781Z" fill="#3A5569"/>
<path d="M0.0141602 25.9782V30.381C0.0141602 31.6253 0.971315 32.5824 2.21552 32.5824H31.7907C31.7907 32.5824 40.4048 32.9652 44.999 26.9354C44.999 26.9354 45.0947 24.3511 43.3719 23.5854C43.3719 23.5854 39.2562 28.5625 31.7907 28.5625C24.3251 28.5625 3.17267 28.5625 3.17267 28.5625C3.17267 28.5625 0.0141602 28.2753 0.0141602 25.9782Z" fill="#E0E0DF"/>
<path d="M18.5824 18.1296C19.2167 18.1296 19.7309 17.6154 19.7309 16.9811C19.7309 16.3467 19.2167 15.8325 18.5824 15.8325C17.9481 15.8325 17.4338 16.3467 17.4338 16.9811C17.4338 17.6154 17.9481 18.1296 18.5824 18.1296Z" fill="#E0E0DF"/>
<path d="M22.5067 20.905C23.141 20.905 23.6553 20.3908 23.6553 19.7565C23.6553 19.1221 23.141 18.6079 22.5067 18.6079C21.8724 18.6079 21.3582 19.1221 21.3582 19.7565C21.3582 20.3908 21.8724 20.905 22.5067 20.905Z" fill="#E0E0DF"/>
<path d="M27.1009 22.8196C27.7353 22.8196 28.2495 22.3053 28.2495 21.671C28.2495 21.0367 27.7353 20.5225 27.1009 20.5225C26.4666 20.5225 25.9524 21.0367 25.9524 21.671C25.9524 22.3053 26.4666 22.8196 27.1009 22.8196Z" fill="#E0E0DF"/>
<path d="M31.6949 24.2551C32.3293 24.2551 32.8435 23.7409 32.8435 23.1066C32.8435 22.4722 32.3293 21.958 31.6949 21.958C31.0606 21.958 30.5464 22.4722 30.5464 23.1066C30.5464 23.7409 31.0606 24.2551 31.6949 24.2551Z" fill="#E0E0DF"/>
<path d="M21.1668 13.5356L20.3054 14.2057C20.3054 14.2057 20.4012 14.2057 20.4012 14.3014C21.0712 14.7799 21.9326 16.12 21.9326 19.757C21.9326 20.0442 22.2197 20.3313 22.5069 20.3313C22.794 20.3313 23.0811 20.0442 23.0811 19.757C23.0811 16.5984 22.4111 14.4928 21.1668 13.5356Z" fill="#2FC0E9"/>
<path d="M18.1997 16.6942C18.0083 16.8856 18.0083 17.2685 18.1997 17.4599C18.3911 17.6513 18.774 17.6513 18.9654 17.4599C18.9654 17.4599 21.5496 14.9714 23.6553 16.0242L24.0382 15.067C21.2625 13.7271 18.2954 16.5985 18.1997 16.6942Z" fill="#2FC0E9"/>
<path d="M28.8238 17.46L28.1538 18.3214C28.2496 18.3214 28.2496 18.3214 28.3452 18.3214C29.1109 18.6085 30.3552 19.6613 31.3123 23.2027C31.4081 23.4898 31.6952 23.6812 31.9823 23.5856C32.2695 23.4898 32.4609 23.2027 32.3652 22.9156C31.4081 19.9485 30.2595 18.13 28.8238 17.46Z" fill="#2FC0E9"/>
<path d="M26.718 21.3839C26.5266 21.671 26.6223 21.9581 26.9094 22.1495C27.1965 22.3409 27.4837 22.2453 27.6751 21.9581C27.6751 21.9581 29.4936 18.8954 31.7907 19.3739L31.8865 18.3211C28.9194 17.6511 26.8137 21.2881 26.718 21.3839Z" fill="#2FC0E9"/>
</g>
<defs>
<clipPath id="clip0_421_130">
<rect width="45" height="45" fill="white"/>
</clipPath>
</defs>
</svg>
