<svg width="45" height="45" viewBox="0 0 45 45" fill="none" xmlns="http://www.w3.org/2000/svg">
<g clip-path="url(#clip0_597_422)">
<path d="M10.052 25.2233C9.66506 24.8364 9.03779 24.8364 8.65098 25.2233L3.05374 30.8205C0.556763 33.3174 -0.50654 36.9086 0.228579 40.3626L0.833004 43.2027C0.935924 43.6862 1.31377 44.0641 1.79734 44.167L4.63745 44.7714C8.09138 45.5065 11.6826 44.4432 14.1795 41.9463L19.7767 36.349C20.1636 35.9621 20.1636 35.3348 19.7767 34.948L10.052 25.2233Z" fill="#CECED1"/>
<path d="M19.7767 36.3491C20.1636 35.9622 20.1636 35.3349 19.7767 34.9481L15.0089 30.1802L1.27246 43.9166C1.42258 44.0376 1.60091 44.1254 1.79717 44.1671L4.63727 44.7715C8.09121 45.5067 11.6824 44.4434 14.1793 41.9464L19.7767 36.3491Z" fill="#AEACB3"/>
<path d="M10.6935 36.4104C10.1551 36.4104 9.61669 36.205 9.2058 35.7942C8.3842 34.9725 8.3842 33.6404 9.2058 32.8189L31.8929 10.1319C32.7146 9.3102 34.0467 9.3102 34.8682 10.1319C35.6898 10.9536 35.6898 12.2857 34.8682 13.1072L12.1813 35.7942C11.7705 36.205 11.2319 36.4104 10.6935 36.4104Z" fill="#A9825A"/>
<path d="M37.2482 14.2706C35.5781 14.2706 33.908 13.6349 32.6365 12.3635C30.0935 9.82052 30.0935 5.68289 32.6365 3.13994L35.3143 0.462086C35.9305 -0.154029 36.9297 -0.154029 37.5458 0.462086L44.5378 7.45415C45.154 8.07035 45.154 9.06941 44.5378 9.68561L41.86 12.3635C40.5886 13.6348 38.9184 14.2706 37.2482 14.2706ZM36.4301 3.80923L34.868 5.3714C33.5555 6.68388 33.5555 8.81945 34.868 10.1319C35.5038 10.7677 36.3491 11.1179 37.2484 11.1179C38.1475 11.1179 38.9928 10.7677 39.6286 10.1319L41.1908 8.56975L36.4301 3.80923Z" fill="#A9825A"/>
<path d="M10.6935 36.4105C11.2319 36.4105 11.7703 36.205 12.1812 35.7942L34.8682 13.1073C35.6611 12.3143 35.6863 11.0474 34.9489 10.2212L9.29517 35.875C9.69331 36.2304 10.1927 36.4105 10.6935 36.4105Z" fill="#A9825A"/>
<path d="M37.2482 14.2705C38.9184 14.2705 40.5885 13.6348 41.8601 12.3633L44.5379 9.68547C45.1541 9.06927 45.1541 8.07021 44.5379 7.45401L41.1269 4.04297L38.8954 6.27443L41.1907 8.5697L39.6285 10.1319C38.9927 10.7677 38.1474 11.1178 37.2482 11.1178C36.3892 11.1178 35.58 10.7976 34.955 10.2148L32.7236 12.4462C33.984 13.6611 35.6157 14.2705 37.2482 14.2705Z" fill="#A9825A"/>
</g>
<defs>
<clipPath id="clip0_597_422">
<rect width="45" height="45" fill="white"/>
</clipPath>
</defs>
</svg>
