<svg width="45" height="45" viewBox="0 0 45 45" fill="none" xmlns="http://www.w3.org/2000/svg">
<g clip-path="url(#clip0_421_237)">
<path d="M32.3077 26.1916L33.6775 21.396L34.8738 40.4773C34.8954 40.8216 35.2099 41.0716 35.5502 41.0149L38.8903 40.4582C39.2776 40.3936 39.5556 40.0498 39.5378 39.6576L38.079 7.5674C38.0657 7.27411 37.9804 6.99998 37.8653 6.73991L37.8656 6.73842L37.865 6.73947C37.6504 6.25466 37.2898 5.84052 36.8009 5.59425L31.8103 3.10352H13.1896L8.19775 5.59408C7.71084 5.83973 7.35145 6.25212 7.13673 6.73472L7.13049 6.72426L7.13462 6.73903C7.01949 6.99901 6.93423 7.27323 6.92087 7.56661L5.46224 39.6576C5.4444 40.0498 5.72248 40.3936 6.10982 40.4581L9.45468 41.0156C9.79332 41.072 10.1069 40.8245 10.1308 40.4821L11.3225 21.3958L12.6926 26.1909C13.0196 27.3355 13.0789 28.54 12.8658 29.7111L10.2508 44.0853C10.1642 44.5616 10.53 45.0001 11.0141 45.0001H18.8936C20.0675 45.0001 21.0576 44.126 21.2032 42.9612L22.5 32.5867L23.797 42.9612C23.9425 44.1259 24.9327 45.0001 26.1065 45.0001H33.9862C34.4703 45.0001 34.8362 44.5616 34.7496 44.0853L32.1346 29.7111C31.9216 28.5403 31.9808 27.336 32.3077 26.1916Z" fill="#707487"/>
<path d="M32.3692 3.85278C31.6805 1.86777 30.1275 0.860627 29.0543 0.383468C28.4583 0.118389 27.8075 0 27.1552 0H17.8448C17.1927 0 16.5421 0.118389 15.9463 0.383292C14.8751 0.859484 13.3257 1.86372 12.635 3.84162C12.4854 4.26991 12.7456 4.7381 13.1856 4.84814L14.9217 5.28215C15.1838 5.34772 15.2741 5.67405 15.0831 5.86504L13.592 7.35593C13.3523 7.59561 13.2959 7.96308 13.4527 8.26349L22.4997 25.6035L22.4967 25.5925L22.5 25.6022V32.5861V32.587L22.5001 32.5865L23.797 42.961C23.9212 43.9544 24.6603 44.734 25.603 44.9428C25.6167 44.9454 25.6306 44.9481 25.6435 44.9507L24.0517 32.5364V23.391C24.0517 22.8912 24.1724 22.3987 24.4036 21.9555L31.5473 8.26349C31.7041 7.96308 31.6477 7.59561 31.408 7.35593L29.9169 5.86504C29.7258 5.67405 29.8163 5.34763 30.0783 5.28215L31.8166 4.84753C32.2528 4.73854 32.5164 4.27729 32.3692 3.85278Z" fill="#5B5D6E"/>
<path d="M24.6437 0H20.3562C18.3099 0 16.8237 1.94573 17.3621 3.91993L22.4996 24.0518L27.6378 3.91993C28.1761 1.94573 26.69 0 24.6437 0Z" fill="#4E4F5F"/>
<path d="M11.3225 21.3958L7.13471 6.73877C7.01958 6.99875 6.93432 7.27297 6.92096 7.56635L5.46224 39.6575C5.4444 40.0497 5.72248 40.3935 6.10982 40.458L9.4502 41.0147C9.79042 41.0715 10.105 40.8214 10.1267 40.4771L11.3225 21.3958Z" fill="#5B5D6E"/>
<path d="M33.6775 21.3957L37.8653 6.73877C37.9804 6.99875 38.0657 7.27297 38.0791 7.56635L39.5378 39.6575C39.5556 40.0497 39.2775 40.3935 38.8902 40.458L35.5498 41.0147C35.2096 41.0715 34.895 40.8214 34.8733 40.4771L33.6775 21.3957Z" fill="#5B5D6E"/>
<path d="M24.0517 3.10331H20.9483C20.5198 3.10331 20.1724 2.75588 20.1724 2.32741C20.1724 1.89895 20.5198 1.55151 20.9483 1.55151H24.0517C24.4802 1.55151 24.8276 1.89895 24.8276 2.32741C24.8275 2.75597 24.4802 3.10331 24.0517 3.10331Z" fill="#5B5D6E"/>
<path d="M19.0085 27.1552C19.6512 27.1552 20.1723 26.6341 20.1723 25.9914C20.1723 25.3487 19.6512 24.8276 19.0085 24.8276C18.3658 24.8276 17.8447 25.3487 17.8447 25.9914C17.8447 26.6341 18.3658 27.1552 19.0085 27.1552Z" fill="#5B5D6E"/>
<path d="M19.0085 32.5861C19.6512 32.5861 20.1723 32.065 20.1723 31.4223C20.1723 30.7796 19.6512 30.2585 19.0085 30.2585C18.3658 30.2585 17.8447 30.7796 17.8447 31.4223C17.8447 32.065 18.3658 32.5861 19.0085 32.5861Z" fill="#5B5D6E"/>
</g>
<defs>
<clipPath id="clip0_421_237">
<rect width="45" height="45" fill="white"/>
</clipPath>
</defs>
</svg>
