<svg width="45" height="45" viewBox="0 0 45 45" fill="none" xmlns="http://www.w3.org/2000/svg">
<g clip-path="url(#clip0_421_200)">
<path d="M43.1742 5.33821C42.8695 3.51009 41.5094 2.03687 39.7114 1.5873L34.6594 0.324316C33.7979 0.108896 32.9132 0 32.0252 0H12.975C12.087 0 11.2023 0.108896 10.3408 0.324316L5.28863 1.5873C3.49065 2.03687 2.13054 3.51 1.82582 5.33813L0.212151 15.0206C0.0892802 15.7582 0.509749 16.4784 1.21243 16.734L8.53451 19.3966V44.2242C8.53451 44.6527 8.88195 45.0001 9.31041 45.0001H35.6897C36.1182 45.0001 36.4656 44.6527 36.4656 44.2242V19.3966L43.7877 16.734C44.4905 16.4784 44.9109 15.7582 44.788 15.0206L43.1742 5.33821Z" fill="#FF5A64"/>
<path d="M32.586 0.0156445C32.3993 0.00588867 32.2124 0 32.0252 0H12.975C12.7878 0 12.6007 0.00588867 12.4141 0.0156445C12.4224 5.57886 16.9348 10.0862 22.5 10.0862C28.0653 10.0862 32.5776 5.57886 32.586 0.0156445Z" fill="#D74B55"/>
<path d="M6.94387 6.94377L2.97438 2.97437C2.38481 3.62309 1.97612 4.43669 1.82582 5.33818L0.212151 15.0206C0.0892802 15.7581 0.509749 16.4784 1.21243 16.734L8.53452 19.3966V10.7841C8.53452 9.34371 7.96235 7.96225 6.94387 6.94377Z" fill="#D74B55"/>
<path d="M30.2587 0C30.2587 4.28502 26.7851 7.75863 22.5001 7.75863C18.2151 7.75863 14.7415 4.28502 14.7415 0" fill="#C8414B"/>
<path d="M0.483118 13.3945L0.212151 15.0205C0.0892802 15.7581 0.509749 16.4783 1.21243 16.7339L8.53452 19.3965V16.2931L0.483118 13.3945Z" fill="#FF5A64"/>
<path d="M7.75856 10.8621C7.3301 10.8621 6.98267 11.2095 6.98267 11.638V18.8323L8.53437 19.3966V11.638C8.53437 11.2095 8.18703 10.8621 7.75856 10.8621Z" fill="#C8414B"/>
<path d="M6.98267 18.8323L8.53437 19.3965V16.293L6.98267 15.7344V18.8323Z" fill="#D74B55"/>
<path d="M38.0561 6.94377L42.0255 2.97437C42.615 3.62309 43.0237 4.43669 43.174 5.33818L44.7877 15.0206C44.9106 15.7581 44.4901 16.4784 43.7874 16.734L36.4653 19.3966V10.7841C36.4653 9.34371 37.0376 7.96225 38.0561 6.94377Z" fill="#D74B55"/>
<path d="M44.517 13.3945L44.7879 15.0205C44.9108 15.7581 44.4903 16.4783 43.7877 16.7339L36.4656 19.3965V16.2931L44.517 13.3945Z" fill="#FF5A64"/>
<path d="M37.2414 10.8621C37.6699 10.8621 38.0173 11.2095 38.0173 11.638V18.8323L36.4656 19.3966V11.638C36.4655 11.2095 36.8129 10.8621 37.2414 10.8621Z" fill="#C8414B"/>
<path d="M38.0171 18.8323L36.4653 19.3965V16.293L38.0171 15.7344V18.8323Z" fill="#D74B55"/>
<path d="M35.6896 45H9.31032C8.88186 45 8.53442 44.6525 8.53442 44.2241V42.6724H36.4654V44.2241C36.4654 44.6525 36.1181 45 35.6896 45Z" fill="#D74B55"/>
<path d="M24.0517 3.10331H20.9483C20.5216 3.10331 20.1724 2.75421 20.1724 2.32741C20.1724 1.9007 20.5215 1.55151 20.9483 1.55151H24.0517C24.4784 1.55151 24.8276 1.90062 24.8276 2.32741C24.8276 2.75421 24.4784 3.10331 24.0517 3.10331Z" fill="#FF5A64"/>
</g>
<defs>
<clipPath id="clip0_421_200">
<rect width="45" height="45" fill="white"/>
</clipPath>
</defs>
</svg>
