<svg width="45" height="45" viewBox="0 0 45 45" fill="none" xmlns="http://www.w3.org/2000/svg">
<g clip-path="url(#clip0_607_240)">
<path d="M0.000398703 39.3275L18.7244 20.6035L24.3959 26.2751L5.67196 44.999L0.000398703 39.3275Z" fill="#D7D7D7"/>
<path d="M2.83634 42.1639L21.5603 23.4399L24.3961 26.2757L5.67209 44.9997L2.83634 42.1639Z" fill="#B0B0B0"/>
<path d="M7.21584 32.1125L9.39868 29.9297L12.0046 32.5356L9.82171 34.7184L7.21584 32.1125Z" fill="#8B8B8B"/>
<path d="M14.9798 30.4797L17.1626 28.2969L19.7685 30.9028L17.5857 33.0856L14.9798 30.4797Z" fill="#6F6F6F"/>
<path d="M5.58181 39.8762L7.76465 37.6934L10.3706 40.2993L8.18774 42.4821L5.58181 39.8762Z" fill="#6F6F6F"/>
<path d="M32.2217 0.90251L44.0969 12.7776C45.3007 13.9814 45.3007 15.9334 44.0969 17.1372L29.7321 31.502C28.5282 32.7058 26.5763 32.7058 25.3725 31.502L13.4973 19.6267C12.2935 18.4229 12.2935 16.4711 13.4973 15.2672L27.8622 0.90251C29.066 -0.301488 31.0179 -0.301488 32.2217 0.90251ZM34.8946 17.9036L37.0774 15.7206L29.2787 7.92189L27.0957 10.1047L34.8946 17.9036Z" fill="#444444"/>
<path d="M34.8946 17.9039L37.0774 15.7209L33.1781 11.8216L38.1593 6.84033L44.0969 12.7779C45.3007 13.9817 45.3007 15.9336 44.0969 17.1375L29.7321 31.5023C28.5282 32.7061 26.5763 32.7061 25.3725 31.5023L19.4349 25.5647L30.9951 14.0045L34.8946 17.9039Z" fill="#323232"/>
</g>
<defs>
<clipPath id="clip0_607_240">
<rect width="45" height="45" fill="white" transform="matrix(-1 0 0 1 45 0)"/>
</clipPath>
</defs>
</svg>
