<svg width="64" height="45" viewBox="0 0 64 45" fill="none" xmlns="http://www.w3.org/2000/svg">
<path d="M19.7751 17.4028L21.3523 18.8919L19.7743 20.6099L6.17187 25.8265C5.74752 25.9894 5.277 25.7403 5.17271 25.298L3.93285 20.0376C3.83081 19.6047 4.12545 19.1785 4.56652 19.1212L11.5319 18.2155C12.1456 18.1358 12.7691 18.241 13.3224 18.5177C14.0435 18.8783 14.8763 18.9446 15.6453 18.7026L19.7751 17.4028Z" fill="#D36435"/>
<path d="M32.7047 22.8852L27.9289 22.886V19.7026L26.8477 19.7027V22.8859L23.7313 22.8852L23.731 23.9664L27.3882 23.9672L32.7049 23.9664L32.7047 22.8852Z" fill="#666666"/>
<path d="M60.0948 18.3499L60.0956 17.1469H58.7063L57.7144 18.3499H50.9617L50.3391 16.7948C50.2569 16.5897 50.0582 16.455 49.8372 16.4551L40.9753 16.4559L40.9754 17.5371L49.4714 17.5364L49.7971 18.3499H40.0022V19.7555L61.7055 19.7554V18.3499H60.0948Z" fill="#666666"/>
<path d="M40.6199 31.5129L38.3203 34.7748C38.1637 34.997 37.8594 35.0565 37.6304 34.9101C33.8525 32.4935 31.1273 28.5691 30.3069 23.9916C30.1388 23.0513 30.0501 22.0834 30.0508 21.095L31.9477 19.8652L35.0566 21.0949C35.0559 25.1913 37.2204 28.7819 40.4677 30.7866C40.7181 30.9412 40.7895 31.2725 40.6199 31.5129Z" fill="#808080"/>
<path d="M37.8394 34.1434C34.2656 31.7829 31.807 28.0712 31.0518 23.8581C30.9129 23.0819 30.8329 21.6538 30.8127 20.8654L32.0321 20.7125L34.3803 20.2437L34.3686 20.4765C34.2212 23.3805 35.0785 26.264 36.8655 28.5577C37.6906 29.6167 38.695 30.5444 39.8499 31.2915L37.8394 34.1434Z" fill="#666666"/>
<path d="M24.8998 24.0745L22.1558 29.0545C21.8854 29.5453 21.2911 29.7567 20.7715 29.547L19.6127 29.0793C19.0444 28.8499 18.7704 28.2027 19.0015 27.6349L20.2555 24.5537C20.5207 23.9 20.5345 23.1708 20.2922 22.508L19.7747 21.0944L22.3257 19.7026L24.8999 21.0945L24.8998 24.0745Z" fill="#D36435"/>
<path d="M21.1853 28.8711C21.1407 28.8711 21.0967 28.8624 21.0546 28.8454L19.8958 28.3777C19.7784 28.3303 19.7253 28.2393 19.7042 28.1892C19.683 28.1391 19.6546 28.0378 19.7023 27.9204L20.9564 24.8392C21.2937 24.0082 21.3101 23.0883 21.0029 22.2483L20.3796 20.5677L22.3273 20.564L24.143 20.7028V23.8798L21.4931 28.6893C21.431 28.8016 21.3131 28.8711 21.1853 28.8711Z" fill="#D36435"/>
<path d="M42.8031 20.0617H36.6459L34.7856 17.4999L36.6459 16.0879H42.8032C43.1372 16.0879 43.4079 16.3586 43.4079 16.6926V19.4571C43.4079 19.7911 43.1372 20.0618 42.8031 20.0617Z" fill="#D36435"/>
<path d="M42.8031 19.3321H36.6459L35.1273 17.2407L34.7856 17.5L36.6458 20.0619H42.8031C43.137 20.0619 43.4078 19.7912 43.4078 19.4572V18.7275C43.4078 19.0614 43.1371 19.3321 42.8031 19.3321Z" fill="#D36435"/>
<path d="M30.0507 21.0945L27.3879 21.0953L24.8995 21.0946H19.7744V20.6099L19.7752 17.4029L20.8031 16.375C20.9864 16.1918 21.2349 16.0888 21.4941 16.0888L36.6459 16.0879V16.1675V20.0618L35.0565 21.0947L30.0507 21.0945Z" fill="#4D4D4D"/>
<path d="M25.973 19.0387C25.973 19.0387 25.9728 19.0387 25.973 19.0387L23.7581 19.0379C23.4893 19.0378 23.2716 18.8199 23.2717 18.5513C23.2719 18.2826 23.4897 18.0649 23.7582 18.0649H23.7583L25.9731 18.0657C26.2419 18.0658 26.4596 18.2837 26.4595 18.5523C26.4594 18.8209 26.2416 19.0387 25.973 19.0387Z" fill="#808080"/>
</svg>
