<svg width="45" height="45" viewBox="0 0 45 45" fill="none" xmlns="http://www.w3.org/2000/svg">
<g clip-path="url(#clip0_597_400)">
<path d="M34.2316 9.85614C31.8629 7.48749 30.429 4.35893 30.1671 1.04343C30.1428 0.737046 29.9951 0.453511 29.7578 0.25813C29.5204 0.0627496 29.2139 -0.027602 28.9085 0.00737848C24.0354 0.564517 20.168 4.43188 19.6109 9.30498C19.5759 9.61022 19.6667 9.91661 19.862 10.1538C20.0573 10.391 20.3406 10.5394 20.6469 10.5635C23.9624 10.8254 27.091 12.2593 29.4596 14.628L31.643 16.8115L36.4149 12.0396L34.2316 9.85614Z" fill="#AEACB3"/>
<path d="M7.01931 44.9999C6.3676 44.9999 5.71589 44.7512 5.21852 44.254C4.22404 43.2595 4.22404 41.6471 5.21852 40.6526L36.1191 9.75221C37.1137 8.75773 38.726 8.75773 39.7205 9.75221C40.715 10.7467 40.715 12.3591 39.7205 13.3536L8.82001 44.254C8.32273 44.7513 7.67102 44.9999 7.01931 44.9999Z" fill="#A9825A"/>
<path d="M31.6485 21.4255L39.7205 13.3536C40.715 12.3591 40.715 10.7467 39.7205 9.75221C38.7259 8.75773 37.1136 8.75773 36.1191 9.75221L28.0471 17.8241L31.6485 21.4255Z" fill="#7E6142"/>
<path d="M36.3196 11.9445L36.4149 12.0396L36.3191 11.9438L36.3196 11.9445Z" fill="#E1E1E3"/>
<path d="M30.3074 2.1999C30.245 1.81757 30.1975 1.43182 30.1669 1.04343C30.1426 0.736959 29.995 0.453511 29.7576 0.25813C29.5202 0.0627496 29.2137 -0.027602 28.9082 0.00737848C24.0351 0.564517 20.1678 4.43188 19.6106 9.30498C19.5756 9.61022 19.6664 9.91661 19.8617 10.1538C20.057 10.391 20.3404 10.5394 20.6468 10.5635C21.0352 10.5942 21.4208 10.6415 21.8032 10.704C22.5882 6.3871 25.9905 2.98476 30.3074 2.1999Z" fill="#CECED1"/>
<path d="M35.2397 20.6336C34.8522 21.0211 34.2239 21.0211 33.8364 20.6336L28.8392 15.6364C28.4517 15.2489 28.4517 14.6207 28.8392 14.2331L33.8364 9.23594C34.2239 8.84844 34.8522 8.84844 35.2397 9.23594L40.2369 14.2331C40.6244 14.6207 40.6244 15.2489 40.2369 15.6364L35.2397 20.6336Z" fill="#555558"/>
</g>
<defs>
<clipPath id="clip0_597_400">
<rect width="45" height="45" fill="white"/>
</clipPath>
</defs>
</svg>
