<svg width="50" height="45" viewBox="0 0 50 45" fill="none" xmlns="http://www.w3.org/2000/svg">
<path d="M7.4504 10.4645L7.4371 10.4333C6.99 9.96401 6.3583 9.67031 5.6583 9.67041C4.3029 9.67041 3.2041 10.7692 3.2041 12.1246C3.2041 12.9713 3.6312 13.7187 4.2844 14.1584L4.3793 14.2148C4.3259 14.4506 4.2873 14.6923 4.2652 14.9384L4.1673 16.0268L4.0961 16.8128C4.8553 16.921 5.5441 17.2065 6.1277 17.621C6.342 17.7729 6.5423 17.942 6.7269 18.1267C7.7672 19.167 8.3011 20.6825 8.0193 22.247L6.2479 32.0649C5.9802 33.5457 7.1184 34.9063 8.6228 34.907H13.5402C14.2416 34.9069 14.8443 34.4095 14.9772 33.7206L16.3237 26.7434C16.7167 24.7043 18.5014 23.231 20.5782 23.2317L21.1736 23.2309V23.2175C20.3253 23.2175 19.5646 22.8868 19.0381 22.3603C18.5784 21.9006 18.2982 21.2911 18.2982 20.6238C18.2982 19.4375 18.9604 18.3912 19.9702 17.7683C20.5856 17.3887 21.3301 17.1663 22.1324 17.1662L22.9265 17.1655L26.5427 17.1603L31.0471 17.1552L31.2777 17.1544H35.6056C35.9269 17.1544 36.1873 16.8938 36.187 16.5724C36.187 16.5026 36.19 16.4345 36.1951 16.367C36.2003 16.298 36.2085 16.2291 36.2181 16.1616C36.416 14.8678 37.5335 13.8764 38.8829 13.8764L46.156 13.8772L46.1451 10.6391C46.1438 10.2773 45.8503 9.98461 45.4884 9.98461H44.8602L17.4974 9.98551H15.9255L14.8348 9.98481H13.2628L12.1721 9.98541H10.6001H9.6851C9.6259 9.98541 9.5673 9.98611 9.5088 9.98841C9.2545 9.99661 9.0046 10.0225 8.7598 10.0641C8.4774 10.1122 8.2022 10.1828 7.9368 10.2732C7.7708 10.3296 7.6091 10.3933 7.4504 10.4645Z" fill="#666666"/>
<path d="M46.3354 15.5069H45.6409V10.8931H46.3354C46.5889 10.893 46.7944 11.0984 46.7944 11.352V15.0479C46.7943 15.3014 46.5889 15.5069 46.3354 15.5069Z" fill="#666666"/>
<path d="M22.9264 17.1791C21.4175 18.6894 21.3108 21.6732 22.7671 23.2303L18.1692 22.5711L18.7994 16.8247L22.9265 17.1658" fill="#B3B3B3"/>
<path d="M44.8599 9.98506L44.8606 8.50586H43.1938L41.5996 11.0047L44.8599 9.98506Z" fill="#666666"/>
<path d="M9.31128 10.4169L9.31238 8.50984C9.31258 8.22034 9.54738 7.98564 9.83688 7.98584C10.1265 7.98604 10.3611 8.22084 10.3609 8.51034L10.3599 10.4174L9.31128 10.4169Z" fill="#666666"/>
<path d="M46.1562 15.6099C46.1562 15.9726 45.8623 16.2665 45.4995 16.2666H36.3925L33.3325 16.1576C33.5305 14.8637 37.1362 12.4873 38.4857 12.4873L46.1562 13.8776V15.6099Z" fill="#666666"/>
<path d="M19.9703 17.7689C18.9604 18.3917 18.2983 19.4379 18.2983 20.6243C18.2983 21.2917 18.5786 21.9012 19.0383 22.3609C19.5647 22.8874 20.3254 23.2181 21.1738 23.2181V23.2316L20.5784 23.2323C18.5015 23.2316 16.7168 24.7049 16.3238 26.744L14.9773 33.7212C14.8446 34.41 14.2418 34.9075 13.5403 34.9076H8.62289C7.11849 34.9068 5.98019 33.5462 6.24799 32.0656L8.01939 22.2476C8.30119 20.6831 7.76729 19.1675 6.72709 18.1273C6.54239 17.9427 6.34229 17.7736 6.12789 17.6216C5.54439 17.2071 4.85549 16.9216 4.09619 16.8134L4.16739 16.0274L4.26529 14.9391C4.28759 14.6928 4.32619 14.4511 4.37939 14.2154C4.76279 12.5286 5.92319 11.1531 7.45059 10.465C7.60939 10.3938 7.77099 10.3301 7.93709 10.2737C8.20249 10.1833 8.47759 10.1127 8.76009 10.0645C9.00469 10.023 9.25459 9.99706 9.50899 9.98886C9.56759 9.98666 9.62609 9.98586 9.68549 9.98596H10.6004H12.1724L13.2631 9.98526H14.8351L15.9258 9.98606H17.4978L44.8601 9.98486H45.4883C45.8502 9.98486 46.1437 10.2775 46.1451 10.6394L46.1561 13.8776L38.883 13.8768C37.5335 13.8767 36.4162 14.8681 36.2182 16.1621C36.2086 16.2296 36.2004 16.2984 36.1952 16.3674C36.19 16.4349 36.187 16.5031 36.187 16.5728C36.1874 16.8941 35.9271 17.1549 35.6058 17.1548H31.2778L31.0472 17.1556L26.5428 17.1607L22.9266 17.1659L22.1325 17.1666C21.3302 17.1668 20.5858 17.3892 19.9703 17.7689Z" fill="#808080"/>
<path d="M16.712 13.8833C16.4948 13.884 16.2983 13.7957 16.156 13.6534C16.0136 13.511 15.9253 13.3145 15.9261 13.0974L15.9253 9.98535H17.4973L17.4981 13.0974C17.4987 13.5311 17.1464 13.8833 16.712 13.8833Z" fill="#666666"/>
<path d="M14.0487 13.8836C13.8315 13.8843 13.6349 13.796 13.4926 13.6537C13.3502 13.5113 13.262 13.3148 13.2627 13.0976V9.98486H14.8347V13.0976C14.8346 13.5322 14.4831 13.8836 14.0487 13.8836Z" fill="#666666"/>
<path d="M11.3855 13.8833C11.1683 13.8841 10.9718 13.7957 10.8295 13.6534C10.6871 13.511 10.5989 13.3145 10.5996 13.0974L10.6003 9.98535H12.1723L12.1716 13.0974C12.1715 13.5319 11.8193 13.8841 11.3855 13.8833Z" fill="#666666"/>
<path d="M8.72361 13.8833C8.50641 13.8839 8.30991 13.7957 8.16761 13.6534C8.02521 13.511 7.93701 13.3145 7.93771 13.0973L7.93701 10.2731C8.20241 10.1827 8.47751 10.1121 8.76001 10.064C9.00461 10.0224 9.25451 9.99648 9.50891 9.98828L9.50971 13.0973C9.51041 13.5309 9.15811 13.8832 8.72361 13.8833Z" fill="#666666"/>
<path d="M28.5769 20.5787L29.0208 19.219C29.0242 19.21 29.0273 19.2012 29.0294 19.1946C29.3208 18.3242 30.1327 17.7366 31.0491 17.7324L31.2797 17.7316C31.4383 17.7311 31.5817 17.6666 31.6857 17.5626C31.7905 17.4578 31.855 17.3129 31.8546 17.153C31.8537 16.8346 31.5946 16.5771 31.276 16.5781L22.1326 16.59C20.9654 16.59 19.8654 17.0022 19.0352 17.7509C18.1882 18.5146 17.7217 19.535 17.7217 20.6242C17.7217 21.4208 18.0445 22.1824 18.6306 22.7685C19.2291 23.367 20.0435 23.7284 20.9235 23.7863C20.9452 23.7878 21.0112 23.7921 24.1277 23.8078C26.1597 23.8082 27.9477 22.5103 28.5769 20.5787ZM24.1306 22.6547C22.947 22.6488 21.1527 22.6386 20.9903 22.635C20.3929 22.5936 19.8447 22.3517 19.4461 21.9531C19.0779 21.5849 18.875 21.1129 18.875 20.6243C18.875 19.8659 19.2061 19.1497 19.8074 18.6075C20.4253 18.0503 21.2511 17.7435 22.133 17.7435L26.5389 17.7377L26.5388 17.7449C26.9542 17.7477 27.5035 17.8183 27.7602 18.1387C28.0042 18.4429 27.9129 18.8834 27.9119 18.8878C27.9108 18.8931 27.9111 18.8987 27.9101 18.904L27.4803 20.221C27.0061 21.6767 25.6588 22.6547 24.1306 22.6547Z" fill="#666666"/>
<path d="M9.74153 24.3379C9.59923 24.1956 9.51123 23.9991 9.51123 23.7819C9.51123 23.3476 9.86323 22.9955 10.2976 22.9954L14.7576 22.9946C15.1918 22.9945 15.544 23.3465 15.5442 23.781C15.5442 24.2153 15.1922 24.5674 14.7578 24.5675L10.2978 24.5683C10.0805 24.5681 9.88383 24.4801 9.74153 24.3379Z" fill="#666666"/>
<path d="M9.33748 27.1248C9.19518 26.9825 9.10708 26.7859 9.10718 26.5687C9.10718 26.1344 9.45928 25.7823 9.89368 25.7822H14.0191C14.4535 25.7823 14.8056 26.1343 14.8057 26.5688C14.8057 27.0031 14.4536 27.3552 14.0192 27.3552H9.89368C9.67638 27.3551 9.47978 27.2671 9.33748 27.1248Z" fill="#666666"/>
<path d="M8.98919 29.9123C8.84679 29.77 8.75879 29.5735 8.75879 29.3562C8.75879 28.922 9.11099 28.5698 9.54529 28.5698H13.2245C13.6588 28.5698 14.0108 28.922 14.011 29.3563C14.011 29.7906 13.6589 30.1427 13.2245 30.1428H9.54539C9.32799 30.1427 9.13139 30.0546 8.98919 29.9123Z" fill="#666666"/>
<path d="M8.41741 32.7001C8.27501 32.5577 8.18701 32.3612 8.18701 32.144C8.18701 31.7097 8.53921 31.3575 8.97351 31.3575L12.6526 31.3574C13.087 31.3575 13.439 31.7096 13.4391 32.144C13.4391 32.5783 13.087 32.9304 12.6527 32.9304L8.97361 32.9305C8.75621 32.9304 8.55961 32.8423 8.41741 32.7001Z" fill="#666666"/>
<path d="M36.1868 16.5728C36.1872 16.8941 35.9269 17.1549 35.6055 17.1548H31.2775L31.047 17.1556L26.5426 17.1607L22.9264 17.1659L22.1322 17.1666C21.33 17.1666 20.5855 17.3891 19.9701 17.7687L6.12765 17.621C5.54415 17.2066 4.85525 16.9211 4.09595 16.8128L4.16715 16.0269L36.195 16.3673C36.1898 16.4348 36.1868 16.5031 36.1868 16.5728Z" fill="#666666"/>
</svg>
