<svg width="54" height="45" viewBox="0 0 54 45" fill="none" xmlns="http://www.w3.org/2000/svg">
<path d="M20.2787 24.3385C19.6664 23.7262 19.3053 22.8856 19.3054 21.9826V21.3599H20.5507V21.9826C20.5507 22.8235 21.0504 23.5777 21.8233 23.904L22.3968 24.1463L21.9125 25.2935L21.3389 25.0513C20.9344 24.8805 20.5767 24.6365 20.2787 24.3385Z" fill="#666666"/>
<path d="M13.0312 12.7455C12.9317 12.2328 13.3143 11.7476 13.8364 11.7347C15.4358 11.6953 16.9963 12.3085 18.1496 13.4618L16.9489 14.6625C16.1259 13.8395 15.0118 13.4026 13.8705 13.4326C13.4618 13.4434 13.109 13.1467 13.0312 12.7455Z" fill="#808080"/>
<path d="M48.163 13.4993L48.091 11.5449C48.0697 10.9664 48.3512 10.4185 48.834 10.0988C49.2169 9.84517 49.7299 10.1081 49.7479 10.5671L49.8598 13.433L48.163 13.4993Z" fill="#666666"/>
<path d="M51.3187 15.9934H29.0581V11.7764L51.318 11.7772L51.3187 15.9934Z" fill="#808080"/>
<path d="M51.3187 15.9932H29.0581L29.0582 14.6147L51.3179 14.6156" fill="#666666"/>
<path d="M28.3159 19.0939V18.244C28.3159 18.0187 28.4054 17.8029 28.5646 17.6437C28.7238 17.4844 28.9398 17.395 29.1648 17.395H43.9403V19.0931L28.3159 19.0939Z" fill="#666666"/>
<path d="M17.7222 25.1312C17.7222 25.1312 17.5228 25.0488 17.2162 24.947L17.2099 24.891C14.0884 23.0488 9.79255 21.8736 10.2816 16.9092L10.2104 16.8652C10.2296 16.814 10.248 16.7619 10.2625 16.7092C10.9037 16.8701 11.6225 16.8301 11.6225 16.8301C13.2396 16.8301 14.7053 16.1744 15.7659 15.1138C16.8258 14.0539 17.4806 12.589 17.4814 10.9712H29.9101C30.3548 10.9712 30.7155 11.3318 30.7155 11.7765V15.9934V18.2444V21.3183C30.7155 21.763 30.3548 22.1236 29.9101 22.1236H27.7967C26.8346 22.1236 26.0396 22.8368 25.9092 23.763C25.7779 22.7014 24.8797 21.8658 23.7726 21.849L20.9893 21.8082C20.0896 21.7954 19.2673 22.1549 18.6758 22.7464C18.1338 23.2884 17.784 24.0241 17.7417 24.8461C17.7368 24.9423 17.7377 25.0358 17.7433 25.1296L17.7222 25.1312Z" fill="#B3B3B3"/>
<path d="M27.8278 13.2759L27.8279 19.5582H20.4697L20.4704 13.2767L27.8278 13.2759Z" fill="#808080"/>
<path d="M22.2184 15.686C22.0875 15.5506 22.0084 15.3651 22.0121 15.1621C22.0193 14.7558 22.3544 14.4321 22.7607 14.4391L27.5493 14.5227C27.9555 14.5297 28.2792 14.8648 28.2722 15.2713C28.265 15.6776 27.9299 16.0013 27.5236 15.9942L22.735 15.9107C22.5318 15.9071 22.3493 15.8216 22.2184 15.686Z" fill="#666666"/>
<path d="M22.1761 18.0872C22.0453 17.9518 21.9662 17.7664 21.9699 17.5633C21.9771 17.157 22.3122 16.8334 22.7185 16.8404L27.5071 16.924C27.9133 16.9311 28.2371 17.2662 28.23 17.6726C28.2228 18.0789 27.8877 18.4025 27.4814 18.3955L22.6928 18.3119C22.4896 18.3083 22.307 18.2228 22.1761 18.0872Z" fill="#666666"/>
<path d="M19.9604 20.0679L19.9613 12.7675L28.3375 12.7666L28.3375 20.0678L19.9604 20.0679ZM20.98 13.7863L20.9793 19.049H27.3185L27.3186 13.7855L20.98 13.7863Z" fill="#666666"/>
<path d="M12.7385 33.7685C12.8426 34.4457 12.3208 35.0573 11.6362 35.0564L4.51176 35.0565C3.66326 35.0565 2.98196 34.3578 3.00036 33.5084C3.15736 26.3791 4.18746 22.5824 6.89406 19.9175C7.77226 19.0539 9.71426 18.17 10.2106 16.8652L10.2818 16.9091C14.2002 17.4575 17.2101 20.8196 17.21 24.8909L17.2164 24.947C16.5431 24.722 15.3568 24.4018 14.6539 24.65C11.8501 25.7075 12.3479 31.2245 12.7385 33.7685Z" fill="#D36435"/>
<path d="M4.70239 33.358C4.86419 26.715 5.78639 23.3907 8.08539 21.1271C8.28089 20.9347 8.65829 20.669 9.02329 20.4119C9.65769 19.9651 10.3899 19.4494 10.9734 18.791C11.9792 19.0886 12.8918 19.6317 13.6497 20.3895C14.356 21.0959 14.8757 21.9399 15.1839 22.8614C14.7808 22.8701 14.4167 22.9326 14.0886 23.0484L14.0548 23.0607C12.0968 23.799 10.0073 26.1939 10.9641 33.358H4.70239Z" fill="#D36435"/>
<path d="M7.21797 31.066C7.49047 31.3385 7.93217 31.3385 8.20467 31.066C8.47707 30.7936 8.47707 30.3518 8.20467 30.0794C7.93217 29.8069 7.49047 29.8069 7.21797 30.0794C6.94557 30.3518 6.94557 30.7936 7.21797 31.066Z" fill="#666666"/>
<path d="M9.0325 24.2349C9.3049 24.5073 9.7467 24.5073 10.0191 24.2349C10.2916 23.9624 10.2916 23.5207 10.0191 23.2482C9.7467 22.9758 9.3049 22.9758 9.0325 23.2482C8.76 23.5207 8.76 23.9624 9.0325 24.2349Z" fill="#666666"/>
<path d="M18.1065 27.1081C17.6045 26.6062 17.2797 25.9249 17.2347 25.1591C17.2278 25.0445 17.2272 24.9337 17.2327 24.8206C17.2803 23.9011 17.6647 23.0367 18.3155 22.3859C19.031 21.6704 19.9832 21.2842 20.9965 21.2987L23.78 21.3395C25.1174 21.3598 26.2495 22.3735 26.4143 23.698C26.4338 23.8449 26.4402 23.9986 26.4332 24.1546C26.3416 26.2306 24.6429 27.892 22.5659 27.9369L20.3081 27.9872C19.449 28.006 18.6673 27.6689 18.1065 27.1081ZM24.9263 22.8519C24.6262 22.5518 24.2142 22.3651 23.7651 22.3581L20.982 22.3173C20.2465 22.3069 19.5555 22.5871 19.0362 23.1063C18.564 23.5786 18.2849 24.2057 18.2507 24.872C18.2469 24.9465 18.2473 25.0211 18.252 25.0988C18.3148 26.1709 19.2084 26.9919 20.286 26.9687L22.544 26.9182C24.0864 26.8849 25.3477 25.6511 25.4157 24.1095C25.42 24.0124 25.4163 23.9185 25.4045 23.8304C25.4043 23.8288 25.4041 23.827 25.4038 23.8254C25.3567 23.4461 25.1822 23.1078 24.9263 22.8519Z" fill="#B3B3B3"/>
</svg>
