<svg width="61" height="45" viewBox="0 0 61 45" fill="none" xmlns="http://www.w3.org/2000/svg">
<path d="M43.5253 16.772H10.0027C6.68747 16.772 4 19.4595 4 22.7747C4 26.0899 6.68747 28.7774 10.0027 28.7774H43.5254L43.5253 16.772ZM10.6794 24.9754C9.46405 24.9754 8.47876 23.9901 8.4787 22.7747C8.47863 21.5592 9.46399 20.574 10.6794 20.5739C11.8948 20.5739 12.88 21.5592 12.8801 22.7747C12.8802 23.9901 11.8948 24.9754 10.6794 24.9754Z" fill="#828186"/>
<path d="M36.1081 16.7715C35.3911 18.6187 34.9945 20.6465 34.9944 22.7741C34.9944 24.9018 35.391 26.9295 36.1079 28.7768H43.525V16.7715H36.1081Z" fill="#555558"/>
<path d="M16.5383 22.7262C16.5383 21.2361 17.7465 20.0279 19.2367 20.0278H38.9027V25.4246L19.2368 25.4247C17.7464 25.4248 16.5383 24.2167 16.5383 22.7262Z" fill="#484849"/>
<path d="M16.6597 23.529C17.0014 24.6273 18.0259 25.4247 19.2366 25.4247H39.0546V21.6333L19.2367 21.6334C18.0259 21.6333 17.0015 22.4307 16.6597 23.529Z" fill="#555558"/>
<path d="M57.7715 29.9244C57.9161 29.7206 57.935 29.4532 57.8206 29.2313C57.7061 29.0092 57.4773 28.8695 57.2274 28.8694H53.0259C51.094 28.8694 49.528 27.3034 49.5282 25.3717V20.1771C49.5282 18.2453 51.094 16.6795 53.0259 16.6795H57.2274C57.4775 16.6795 57.7065 16.5399 57.8212 16.3178C57.9358 16.0956 57.9164 15.8284 57.7717 15.6246C55.7756 12.8133 52.6305 11.0001 49.0925 11C43.0598 11 38.1694 16.2716 38.1694 22.7744C38.1694 29.2772 43.0599 34.5489 49.0925 34.5488C52.6303 34.5489 55.7754 32.7357 57.7715 29.9244Z" fill="#BFBDC3"/>
</svg>
