<svg width="45" height="45" viewBox="0 0 45 45" fill="none" xmlns="http://www.w3.org/2000/svg">
<path d="M31.0344 22.5001C31.0344 28.0707 26.5189 32.5863 20.9482 32.5863C15.3775 32.5863 10.8619 28.0707 10.8619 22.5001C10.8619 16.9294 15.3775 12.4138 20.9482 12.4138C26.5189 12.4138 31.0344 16.9294 31.0344 22.5001Z" fill="#F6EFCA"/>
<path d="M15.186 38.7931H26.6703L26.8263 35.6897H15.0309L15.186 38.7931Z" fill="#95A5A5"/>
<path d="M15.3417 41.8965H26.5149L26.6708 38.793H15.1858L15.3417 41.8965Z" fill="#7F8C8D"/>
<path d="M15.3418 41.8967L15.4605 44.2631C15.4815 44.6758 15.8221 45.0001 16.2356 45.0001H25.6219C26.0347 45.0001 26.376 44.6758 26.3962 44.2631L26.515 41.8967H15.3418Z" fill="#95A5A5"/>
<path d="M26.7104 6.20703H15.2261L15.0701 9.31045H26.8655L26.7104 6.20703Z" fill="#95A5A5"/>
<path d="M26.5547 3.10352H15.3815L15.2256 6.20702H26.7106L26.5547 3.10352Z" fill="#7F8C8D"/>
<path d="M26.5546 3.10342L26.4359 0.737051C26.415 0.324316 26.0744 0 25.6609 0H16.2744C15.8617 0 15.5203 0.324316 15.5001 0.737051L15.3813 3.10342H26.5546Z" fill="#95A5A5"/>
<path d="M20.9482 32.5863H20.9381H20.9288C20.7573 32.5863 20.5913 32.5701 20.4229 32.56C18.2963 32.4498 16.3465 31.6871 14.7684 30.4597L15.0307 35.6898H26.8261L27.0868 30.4907C25.3854 31.7995 23.261 32.5863 20.9482 32.5863Z" fill="#7F8C8D"/>
<path d="M20.9482 12.4138C20.9513 12.4138 20.9551 12.4146 20.9583 12.4146C20.9614 12.4146 20.9646 12.4138 20.9676 12.4138C21.1391 12.4138 21.3051 12.4301 21.4735 12.4402C23.6001 12.5504 25.5499 13.3138 27.128 14.5404L26.8657 9.3103H15.0703L14.8096 14.5101C16.511 13.2006 18.6354 12.4138 20.9482 12.4138Z" fill="#7F8C8D"/>
<path d="M31.0344 23.2759H28.7068C28.2785 23.2759 27.9309 22.9283 27.9309 22.5C27.9309 22.0717 28.2785 21.7241 28.7068 21.7241H31.0344C31.4627 21.7241 31.8103 22.0717 31.8103 22.5C31.8103 22.9283 31.4626 23.2759 31.0344 23.2759Z" fill="#805333"/>
<path d="M24.0516 23.2759H20.9481C20.5198 23.2759 20.1722 22.9283 20.1722 22.5V17.8447C20.1722 17.4165 20.5198 17.0688 20.9481 17.0688C21.3764 17.0688 21.724 17.4165 21.724 17.8447V21.7241H24.0516C24.4799 21.7241 24.8275 22.0717 24.8275 22.5C24.8275 22.9283 24.4798 23.2759 24.0516 23.2759Z" fill="#805333"/>
<path d="M30.7537 20.1724C30.9306 20.9211 31.0346 21.6977 31.0346 22.5C31.0346 23.303 30.9306 24.0796 30.7537 24.8276H33.3621C33.7904 24.8276 34.138 24.48 34.138 24.0517V20.9483C34.138 20.52 33.7904 20.1724 33.3621 20.1724H30.7537Z" fill="#95A5A5"/>
<path d="M20.9481 29.4829C20.5198 29.4829 20.1722 29.8305 20.1722 30.2588V32.5469C20.4291 32.567 20.6867 32.5864 20.9481 32.5864C21.2096 32.5864 21.4672 32.567 21.724 32.5469V30.2588C21.724 29.8305 21.3764 29.4829 20.9481 29.4829Z" fill="#805333"/>
<path d="M13.1895 21.7241H10.9015C10.8813 21.9809 10.8619 22.2385 10.8619 22.5C10.8619 22.7615 10.8814 23.0191 10.9015 23.2759H13.1895C13.6178 23.2759 13.9654 22.9283 13.9654 22.5C13.9654 22.0717 13.6178 21.7241 13.1895 21.7241Z" fill="#805333"/>
<path d="M20.9481 12.4138C20.6867 12.4138 20.4291 12.4332 20.1722 12.4534V14.7414C20.1722 15.1697 20.5198 15.5173 20.9481 15.5173C21.3764 15.5173 21.724 15.1697 21.724 14.7414V12.4534C21.4672 12.4332 21.2096 12.4138 20.9481 12.4138Z" fill="#805333"/>
</svg>
