<svg width="27" height="43" viewBox="0 0 27 43" fill="none" xmlns="http://www.w3.org/2000/svg">
<path d="M3.45 41V34.78L3.76 35.1H1.14V34H7.06V35.1H4.44L4.74 34.78V41H3.45ZM9.8743 41.07C9.32763 41.07 8.84096 40.9533 8.4143 40.72C7.98763 40.48 7.65096 40.1533 7.4043 39.74C7.15763 39.3267 7.0343 38.8567 7.0343 38.33C7.0343 37.7967 7.15763 37.3267 7.4043 36.92C7.65096 36.5067 7.98763 36.1833 8.4143 35.95C8.84096 35.7167 9.32763 35.6 9.8743 35.6C10.4276 35.6 10.9176 35.7167 11.3443 35.95C11.7776 36.1833 12.1143 36.5033 12.3543 36.91C12.601 37.3167 12.7243 37.79 12.7243 38.33C12.7243 38.8567 12.601 39.3267 12.3543 39.74C12.1143 40.1533 11.7776 40.48 11.3443 40.72C10.9176 40.9533 10.4276 41.07 9.8743 41.07ZM9.8743 40C10.181 40 10.4543 39.9333 10.6943 39.8C10.9343 39.6667 11.121 39.4733 11.2543 39.22C11.3943 38.9667 11.4643 38.67 11.4643 38.33C11.4643 37.9833 11.3943 37.6867 11.2543 37.44C11.121 37.1867 10.9343 36.9933 10.6943 36.86C10.4543 36.7267 10.1843 36.66 9.8843 36.66C9.57763 36.66 9.3043 36.7267 9.0643 36.86C8.83096 36.9933 8.6443 37.1867 8.5043 37.44C8.3643 37.6867 8.2943 37.9833 8.2943 38.33C8.2943 38.67 8.3643 38.9667 8.5043 39.22C8.6443 39.4733 8.83096 39.6667 9.0643 39.8C9.3043 39.9333 9.5743 40 9.8743 40ZM16.9191 41.07C16.4858 41.07 16.0891 40.97 15.7291 40.77C15.3758 40.57 15.0925 40.27 14.8791 39.87C14.6725 39.4633 14.5691 38.95 14.5691 38.33C14.5691 37.7033 14.6691 37.19 14.8691 36.79C15.0758 36.39 15.3558 36.0933 15.7091 35.9C16.0625 35.7 16.4658 35.6 16.9191 35.6C17.4458 35.6 17.9091 35.7133 18.3091 35.94C18.7158 36.1667 19.0358 36.4833 19.2691 36.89C19.5091 37.2967 19.6291 37.7767 19.6291 38.33C19.6291 38.8833 19.5091 39.3667 19.2691 39.78C19.0358 40.1867 18.7158 40.5033 18.3091 40.73C17.9091 40.9567 17.4458 41.07 16.9191 41.07ZM13.9591 42.94V35.66H15.1491V36.92L15.1091 38.34L15.2091 39.76V42.94H13.9591ZM16.7791 40C17.0791 40 17.3458 39.9333 17.5791 39.8C17.8191 39.6667 18.0091 39.4733 18.1491 39.22C18.2891 38.9667 18.3591 38.67 18.3591 38.33C18.3591 37.9833 18.2891 37.6867 18.1491 37.44C18.0091 37.1867 17.8191 36.9933 17.5791 36.86C17.3458 36.7267 17.0791 36.66 16.7791 36.66C16.4791 36.66 16.2091 36.7267 15.9691 36.86C15.7291 36.9933 15.5391 37.1867 15.3991 37.44C15.2591 37.6867 15.1891 37.9833 15.1891 38.33C15.1891 38.67 15.2591 38.9667 15.3991 39.22C15.5391 39.4733 15.7291 39.6667 15.9691 39.8C16.2091 39.9333 16.4791 40 16.7791 40ZM23.3032 41.07C22.7432 41.07 22.2432 40.9533 21.8032 40.72C21.3699 40.48 21.0299 40.1533 20.7832 39.74C20.5365 39.3267 20.4132 38.8567 20.4132 38.33C20.4132 37.7967 20.5365 37.3267 20.7832 36.92C21.0299 36.5067 21.3699 36.1833 21.8032 35.95C22.2432 35.7167 22.7432 35.6 23.3032 35.6C23.8232 35.6 24.2799 35.7067 24.6732 35.92C25.0732 36.1267 25.3765 36.4333 25.5832 36.84L24.6232 37.4C24.4632 37.1467 24.2665 36.96 24.0332 36.84C23.8065 36.72 23.5599 36.66 23.2932 36.66C22.9865 36.66 22.7099 36.7267 22.4632 36.86C22.2165 36.9933 22.0232 37.1867 21.8832 37.44C21.7432 37.6867 21.6732 37.9833 21.6732 38.33C21.6732 38.6767 21.7432 38.9767 21.8832 39.23C22.0232 39.4767 22.2165 39.6667 22.4632 39.8C22.7099 39.9333 22.9865 40 23.2932 40C23.5599 40 23.8065 39.94 24.0332 39.82C24.2665 39.7 24.4632 39.5133 24.6232 39.26L25.5832 39.82C25.3765 40.22 25.0732 40.53 24.6732 40.75C24.2799 40.9633 23.8232 41.07 23.3032 41.07Z" fill="white"/>
<path d="M25.5863 13.4778C25.1342 12.9338 24.7071 12.4193 24.4807 11.8517C24.2822 11.354 24.2335 10.773 24.1863 10.2074C24.1156 9.36024 24.0419 8.48461 23.4757 7.7927C22.9711 7.17452 21.8221 6.4855 21.1081 6.25303C20.6795 6.11393 20.2338 6.09485 19.854 6.09485C19.7361 6.09485 19.6181 6.09677 19.5002 6.09883C19.3817 6.10075 19.2643 6.10322 19.1473 6.10322C18.5266 6.10322 18.0175 6.0413 17.5468 5.74004C17.2554 5.55384 17.0199 5.30462 16.7693 5.0403C16.5393 4.7985 16.3015 4.54694 16.0155 4.34743C15.5467 4.02063 14.9928 3.96996 14.4552 3.92231C14.1098 3.89087 13.7835 3.86135 13.4984 3.7596C13.4872 3.75521 13.4773 3.75466 13.466 3.75315C13.439 3.74779 13.415 3.7482 13.3879 3.75411L13.3609 3.75946C13.0744 3.86162 12.7736 3.89073 12.4547 3.92218C11.9623 3.97037 11.4537 4.01994 10.9839 4.34729C10.6974 4.54777 10.4606 4.79836 10.2285 5.04318C9.97834 5.30613 9.74299 5.55425 9.45313 5.74004C8.98187 6.0413 8.47327 6.10322 7.85359 6.10322C7.73619 6.10322 7.61865 6.10075 7.49974 6.09883C7.38179 6.09691 7.26439 6.09485 7.14493 6.09485C6.76609 6.09485 6.32079 6.11407 5.89238 6.25303C5.1774 6.4855 4.02948 7.17439 3.52431 7.7927C2.95722 8.48557 2.88403 9.36271 2.81318 10.211C2.76649 10.7732 2.7183 11.3536 2.51837 11.8519C2.29181 12.4199 1.86436 12.935 1.41165 13.4814C0.410101 14.6868 -0.625772 15.934 0.467635 17.8466C0.520774 17.9424 0.655339 17.9768 0.7472 17.9232C0.844965 17.8678 0.879842 17.7418 0.823819 17.6431C-0.12857 15.9773 0.77219 14.8922 1.72952 13.7407C2.18169 13.1957 2.64896 12.6317 2.90051 12.0046C3.12062 11.4537 3.17225 10.8433 3.22237 10.2453C3.29061 9.42368 3.35501 8.64828 3.84205 8.05222C4.28776 7.50723 5.35906 6.85857 6.01898 6.64437C6.39191 6.52298 6.77913 6.50623 7.14191 6.50623C7.25546 6.50623 7.36998 6.50815 7.49232 6.51021C7.60973 6.51214 7.72822 6.5142 7.84714 6.5142C8.44911 6.5142 9.08692 6.46257 9.6742 6.08661C10.0103 5.87131 10.2855 5.58089 10.5298 5.32192C10.7554 5.0841 10.9686 4.86001 11.2198 4.68453C11.6001 4.41869 12.0346 4.37585 12.4955 4.33068C12.7692 4.30418 13.1093 4.27067 13.4302 4.167C13.7555 4.27122 14.1084 4.30308 14.4209 4.33164C14.9024 4.37544 15.4017 4.42007 15.7807 4.68453C16.0313 4.85946 16.2441 5.0841 16.4726 5.32481C16.7287 5.59462 16.9936 5.87378 17.3252 6.08647C17.9124 6.46243 18.5518 6.51406 19.1547 6.51406C19.2721 6.51406 19.39 6.51214 19.508 6.51008C19.6269 6.50815 19.7443 6.50609 19.8609 6.50609C20.222 6.50609 20.6073 6.5223 20.9813 6.64423C21.6403 6.85843 22.7112 7.50668 23.1583 8.05208C23.6438 8.64718 23.7092 9.42258 23.7785 10.2452C23.8277 10.8374 23.8778 11.4487 24.0999 12.0044C24.3515 12.634 24.8204 13.1986 25.274 13.7436C26.2273 14.8925 27.1281 15.9775 26.1766 17.6435C26.1492 17.6917 26.1422 17.7462 26.1565 17.7988C26.1711 17.852 26.2051 17.8962 26.2527 17.9231C26.2836 17.9408 26.319 17.9505 26.3549 17.9505C26.4276 17.9505 26.4964 17.9107 26.5323 17.8469C27.6257 15.9348 26.5902 14.6872 25.5863 13.4778Z" fill="white"/>
<path d="M22.2481 13.9663C22.2416 13.9181 22.2191 13.8749 22.1842 13.8415C21.5733 12.3933 20.1601 11.8125 18.7228 11.4016C18.7105 11.3988 18.6982 11.3963 18.686 11.3957C18.7071 11.2488 18.7243 11.1103 18.737 10.9752C18.7424 10.9211 18.7268 10.8671 18.6919 10.8243C18.657 10.7816 18.6078 10.7555 18.5524 10.7501L18.5347 10.7491C18.427 10.7491 18.3391 10.8288 18.3283 10.9334C17.9941 14.2815 16.5046 14.5242 14.104 14.6431C14.104 14.6431 13.791 14.618 13.6873 13.7065L13.6907 13.6741C13.6942 13.6432 13.6981 13.6117 13.6991 13.5802C13.7041 13.5257 13.6848 13.4711 13.6471 13.4293C13.6116 13.3611 13.539 13.3158 13.4529 13.3158H13.452C13.3389 13.3232 13.253 13.4219 13.2599 13.5355C13.2648 13.593 13.2702 13.6475 13.2766 13.6923C13.1779 14.6677 12.854 14.6874 12.853 14.6879C10.4534 14.5694 8.96587 14.3268 8.63179 10.9791C8.62149 10.8755 8.53059 10.7943 8.42582 10.7943L8.4066 10.7953C8.3525 10.8012 8.30293 10.8267 8.26846 10.8694C8.23359 10.9121 8.21738 10.9657 8.22274 11.0203C8.23496 11.1377 8.24828 11.2503 8.26297 11.3605C6.83301 11.7713 5.42942 12.3521 4.82251 13.795C4.78708 13.827 4.76401 13.8702 4.7577 13.9198C4.53663 15.6884 3.87904 17.1444 2.95371 17.916C2.86624 17.9882 2.85498 18.1184 2.92666 18.2054C2.99737 18.2894 3.13303 18.3007 3.21611 18.2319C4.60926 17.0707 5.03287 14.9443 5.15137 14.0686L5.15329 14.0642C5.63923 12.7673 6.8959 12.2077 8.08804 11.8416C8.04286 12.0298 7.96967 12.2612 7.89786 12.4868C7.68709 13.1517 7.44817 13.9046 7.5804 14.4333C7.76659 14.9911 8.04767 15.3375 8.29634 15.6437C8.57549 15.9907 8.81826 16.2899 8.91602 16.8654C9.26987 18.0684 8.91163 18.7839 8.59609 19.4164C8.02213 20.5633 7.79707 21.3579 10.2827 23.1659C10.3711 23.2303 10.5053 23.2076 10.5687 23.1202C10.6011 23.076 10.6148 23.0214 10.606 22.9664C10.5977 22.9128 10.5687 22.8656 10.5239 22.8332C8.19363 21.1384 8.50024 20.526 8.96518 19.5972C9.29637 18.9327 9.70968 18.1057 9.31601 16.7735C9.20588 16.1136 8.90517 15.7426 8.61325 15.3819C8.37694 15.0895 8.13211 14.7868 7.97489 14.3174C7.87465 13.9175 8.1041 13.1931 8.28988 12.6097C8.33369 12.4697 8.3768 12.3321 8.41415 12.2013C9.01804 14.7119 10.6294 14.9882 12.8128 15.0953C12.832 15.0987 13.0157 15.118 13.2099 14.9606C13.3214 14.8692 13.4153 14.738 13.4894 14.5684C13.5612 14.7169 13.6476 14.8333 13.749 14.9154C13.9456 15.0761 14.1234 15.0525 14.1278 15.0525C16.3327 14.9429 17.9555 14.6618 18.552 12.1177C18.5992 12.2892 18.6586 12.4765 18.717 12.6622C18.9003 13.243 19.1284 13.9654 19.033 14.3488C18.8718 14.8333 18.6275 15.1369 18.3892 15.4313C18.0979 15.7901 17.7985 16.1615 17.6949 16.7949C17.2943 18.1542 17.7082 18.9808 18.0409 19.6457C18.5047 20.5725 18.8104 21.1848 16.4802 22.8792C16.3883 22.9455 16.3682 23.0738 16.4345 23.1667C16.4733 23.2188 16.5357 23.2508 16.601 23.2508C16.6448 23.2508 16.686 23.2374 16.7219 23.2115C19.2075 21.4041 18.9815 20.6094 18.4085 19.4615C18.092 18.83 17.7337 18.1141 18.094 16.8875C18.1864 16.3347 18.4286 16.0353 18.7088 15.6889C18.9569 15.3833 19.237 15.0363 19.4277 14.4638C19.556 13.9508 19.3166 13.1979 19.1068 12.5335L19.099 12.508C19.0272 12.2814 18.9595 12.0657 18.9162 11.8873C20.108 12.2534 21.3639 12.8132 21.8485 14.1006L21.8529 14.1174C21.9728 14.9941 22.3989 17.1194 23.7882 18.2772C23.8722 18.3475 24.0069 18.3357 24.0782 18.2511C24.1504 18.1646 24.1391 18.0354 24.0517 17.9622C23.1267 17.1915 22.4687 15.7353 22.2481 13.9663Z" fill="white"/>
<path d="M16.0199 8.62904C16.0508 8.58332 16.0612 8.52881 16.0508 8.47525C16.0297 8.36609 15.9147 8.29098 15.809 8.31405C15.2606 8.42363 14.8202 8.74548 14.3947 9.05608C13.9785 9.36022 13.5858 9.6472 13.1755 9.6472C12.8045 9.6472 12.455 9.38631 12.0855 9.11059C11.7017 8.82457 11.3046 8.52881 10.8132 8.45301C10.6953 8.43777 10.5975 8.51439 10.5798 8.62506C10.5626 8.73656 10.6398 8.84133 10.7513 8.85945C11.14 8.91891 11.4948 9.18282 11.8397 9.44028C12.2476 9.74401 12.6688 10.0584 13.1754 10.0584C13.7194 10.0584 14.1651 9.73316 14.6373 9.38865C15.0265 9.10359 15.4291 8.80933 15.8899 8.71692C15.9433 8.70566 15.9894 8.67518 16.0199 8.62904Z" fill="white"/>
<path d="M13.5231 10.5333C13.5412 10.4801 13.5368 10.4227 13.5122 10.3721C13.4616 10.2703 13.3308 10.2257 13.2287 10.2782C13.1245 10.3298 13.0818 10.4565 13.1344 10.5602C13.1702 10.6324 13.2435 10.6776 13.324 10.6776C13.356 10.6776 13.3893 10.6698 13.4173 10.6549C13.468 10.6301 13.5059 10.5868 13.5231 10.5333Z" fill="white"/>
<path d="M14.8857 10.3559C14.9368 10.3304 14.9741 10.2871 14.9918 10.233C15.0096 10.1804 15.0056 10.1225 14.981 10.0728C14.9303 9.97157 14.8017 9.92585 14.698 9.97789C14.5934 10.0299 14.5511 10.1572 14.6037 10.2614C14.6391 10.3333 14.7123 10.3779 14.7923 10.3779C14.8247 10.378 14.8567 10.3702 14.8857 10.3559Z" fill="white"/>
<path d="M15.7972 11.5264C15.9009 11.4748 15.9432 11.3471 15.8912 11.2435C15.8416 11.1432 15.7109 11.0975 15.6082 11.1486C15.5045 11.2002 15.4622 11.3279 15.5138 11.4316C15.5497 11.5034 15.6224 11.5486 15.7035 11.5486C15.7357 11.5486 15.7662 11.5411 15.7972 11.5264Z" fill="white"/>
<path d="M17.1201 12.2517C17.0159 12.3038 16.9736 12.4307 17.0258 12.5347C17.0616 12.607 17.1349 12.6512 17.215 12.6512C17.2479 12.6512 17.2794 12.6443 17.3093 12.6296C17.4126 12.5776 17.4553 12.4507 17.4037 12.3461C17.353 12.2449 17.2228 12.1997 17.1201 12.2517Z" fill="white"/>
<path d="M15.3153 13.3166C15.2116 13.3682 15.1689 13.4959 15.2209 13.6001C15.2564 13.6719 15.329 13.7165 15.4101 13.7165C15.4431 13.7165 15.474 13.7087 15.5045 13.6944C15.6081 13.6424 15.6504 13.5151 15.5984 13.4114C15.5477 13.3097 15.418 13.2651 15.3153 13.3166Z" fill="white"/>
<path d="M14.7609 11.2261C14.7102 11.1244 14.5791 11.0798 14.4779 11.1312C14.4272 11.1564 14.3894 11.1995 14.3717 11.2532C14.354 11.3069 14.358 11.3637 14.383 11.4144C14.4184 11.4862 14.4916 11.5314 14.5722 11.5314C14.6046 11.5314 14.6366 11.5235 14.6661 11.5087C14.7702 11.4565 14.8129 11.3293 14.7609 11.2261Z" fill="white"/>
<path d="M16.6022 10.0639C16.6352 10.0639 16.6661 10.0561 16.6966 10.0413C16.8002 9.98924 16.843 9.86236 16.7905 9.75828C16.7404 9.65653 16.6097 9.61232 16.5085 9.66395C16.4574 9.68853 16.4195 9.73178 16.4018 9.78478C16.3846 9.83833 16.388 9.89628 16.413 9.94695C16.4485 10.0188 16.5207 10.0639 16.6022 10.0639Z" fill="white"/>
<path d="M16.4135 10.943C16.4484 11.0148 16.5212 11.06 16.6022 11.06C16.6342 11.06 16.667 11.0522 16.6965 11.0379C16.8002 10.9863 16.8429 10.8586 16.7905 10.7549C16.7403 10.6541 16.6077 10.6099 16.5084 10.66C16.4573 10.6852 16.4194 10.7283 16.4017 10.7814C16.3846 10.8345 16.388 10.8919 16.4135 10.943Z" fill="white"/>
<path d="M17.5079 11.5313C17.5409 11.5313 17.5727 11.5234 17.6018 11.5086C17.7061 11.4566 17.7488 11.3293 17.6962 11.226C17.6455 11.1243 17.5119 11.08 17.4136 11.1311C17.3629 11.1563 17.3246 11.199 17.3074 11.252C17.2893 11.3055 17.2932 11.3635 17.3177 11.4136C17.3545 11.4861 17.4268 11.5313 17.5079 11.5313Z" fill="white"/>
<path d="M14.3313 12.9038C14.2807 12.929 14.2429 12.9721 14.2252 13.0247C14.2075 13.0788 14.2109 13.1362 14.236 13.1868C14.2715 13.2591 14.3447 13.3038 14.4253 13.3038C14.4577 13.3038 14.4897 13.2964 14.5192 13.2817C14.6229 13.2297 14.6656 13.1024 14.6135 12.9987C14.5638 12.897 14.4325 12.8532 14.3313 12.9038Z" fill="white"/>
<path d="M16.215 12.3981C16.1108 12.4497 16.0685 12.5765 16.1201 12.6811C16.1556 12.7533 16.2282 12.7981 16.3094 12.7981C16.3423 12.7981 16.3732 12.7907 16.4037 12.776C16.5074 12.7239 16.5502 12.5966 16.4976 12.493C16.4469 12.3912 16.3168 12.3466 16.215 12.3981Z" fill="white"/>
<path d="M16.3613 13.6095C16.3112 13.6346 16.2729 13.6777 16.2552 13.7314C16.2375 13.7851 16.2409 13.8425 16.2665 13.8926C16.3019 13.9649 16.3745 14.01 16.4551 14.01C16.4875 14.01 16.5195 14.0017 16.5495 13.9874C16.6001 13.9622 16.6369 13.9191 16.6546 13.8654C16.6728 13.8119 16.6684 13.7544 16.6443 13.7042C16.5944 13.6036 16.4612 13.5594 16.3613 13.6095Z" fill="white"/>
<path d="M12.8734 11.2866C12.8227 11.1848 12.692 11.1402 12.5908 11.1917C12.5397 11.2168 12.5018 11.2605 12.4841 11.3136C12.466 11.3672 12.4708 11.4251 12.4954 11.4748C12.5308 11.5466 12.603 11.5918 12.684 11.5918C12.717 11.5918 12.7484 11.5844 12.7774 11.5697C12.8822 11.5181 12.9244 11.3912 12.8734 11.2866Z" fill="white"/>
<path d="M10.5937 9.94694C10.6295 10.0188 10.7023 10.0639 10.7829 10.0639C10.8158 10.0639 10.8473 10.0561 10.8763 10.0418C10.9799 9.99075 11.0232 9.86346 10.9716 9.75828C10.9209 9.65653 10.7907 9.6119 10.688 9.66394C10.5839 9.71557 10.5416 9.84272 10.5937 9.94694Z" fill="white"/>
<path d="M12.2979 13.8031C12.2472 13.8282 12.2095 13.8713 12.1912 13.925C12.1735 13.9785 12.1779 14.0365 12.2025 14.0856C12.2373 14.1575 12.312 14.203 12.3917 14.203C12.4241 14.203 12.4565 14.1952 12.485 14.1809C12.5897 14.1293 12.6325 14.0026 12.5799 13.8968C12.5288 13.7967 12.3991 13.7525 12.2979 13.8031Z" fill="white"/>
<path d="M13.5672 12.4488C13.5996 12.4488 13.6326 12.441 13.6612 12.4267C13.7118 12.4016 13.7501 12.3585 13.7673 12.3048C13.785 12.2512 13.7806 12.1942 13.756 12.1436C13.705 12.0418 13.5733 11.9986 13.474 12.0487C13.4233 12.0738 13.3856 12.1169 13.3679 12.1701C13.3492 12.2232 13.3532 12.2811 13.3782 12.3317C13.4139 12.4046 13.4866 12.4488 13.5672 12.4488Z" fill="white"/>
<path d="M11.7362 10.971C11.7539 10.9175 11.7499 10.8599 11.7253 10.8108C11.6758 10.709 11.5445 10.6648 11.4423 10.7159C11.3913 10.741 11.3534 10.7847 11.3357 10.8378C11.3175 10.8914 11.3219 10.9493 11.3469 10.9995C11.3828 11.0713 11.4561 11.1159 11.5361 11.1159C11.5691 11.1159 11.6009 11.1081 11.6295 11.0932C11.6811 11.0678 11.719 11.0247 11.7362 10.971Z" fill="white"/>
<path d="M12.7274 12.493C12.6768 12.3912 12.5456 12.3466 12.4449 12.3981C12.3938 12.4232 12.3564 12.4663 12.3382 12.52C12.3205 12.5732 12.3244 12.6306 12.3494 12.6812C12.3853 12.753 12.458 12.7982 12.5386 12.7982C12.571 12.7982 12.603 12.7904 12.6326 12.7761C12.7368 12.7245 12.7791 12.5972 12.7274 12.493Z" fill="white"/>
<path d="M11.2698 12.9038C11.2188 12.9294 11.1814 12.9732 11.1643 13.0262C11.1461 13.0793 11.15 13.1373 11.1746 13.1868C11.21 13.2591 11.2826 13.3042 11.3638 13.3042C11.3962 13.3042 11.4291 13.2964 11.4577 13.2816C11.5619 13.23 11.6041 13.1027 11.5526 12.9986C11.5023 12.897 11.372 12.8528 11.2698 12.9038Z" fill="white"/>
<path d="M11.5529 12.1082C11.5022 12.0065 11.372 11.9623 11.2699 12.0133C11.1662 12.0654 11.1239 12.1927 11.176 12.2969C11.2114 12.3691 11.284 12.4133 11.3642 12.4133C11.3966 12.4133 11.4296 12.4055 11.4581 12.3912C11.5092 12.3661 11.5471 12.3219 11.5648 12.2689C11.583 12.2159 11.5784 12.1583 11.5529 12.1082Z" fill="white"/>
<path d="M9.58136 10.8241C9.61377 10.8241 9.64617 10.8163 9.67528 10.802C9.7795 10.7494 9.82166 10.6226 9.76962 10.519C9.7195 10.4172 9.59029 10.373 9.48662 10.4241C9.3824 10.4757 9.3397 10.603 9.39229 10.7071C9.42909 10.7795 9.50076 10.8241 9.58136 10.8241Z" fill="white"/>
<path d="M10.0364 12.3013C9.98571 12.3259 9.94837 12.3696 9.93079 12.4221C9.91266 12.4757 9.91651 12.5336 9.94205 12.5833C9.97748 12.6556 10.0501 12.7007 10.1313 12.7007C10.1637 12.7007 10.1951 12.6929 10.2252 12.6781C10.2759 12.653 10.3132 12.6093 10.3308 12.5562C10.3489 12.5026 10.3445 12.4447 10.3205 12.395C10.2698 12.2935 10.1376 12.2502 10.0364 12.3013Z" fill="white"/>
<path d="M10.2797 11.1312C10.229 11.1564 10.1913 11.1995 10.1736 11.2532C10.1554 11.3067 10.1598 11.3637 10.1844 11.4144C10.2203 11.4862 10.2936 11.5314 10.374 11.5314C10.4065 11.5314 10.4384 11.5235 10.468 11.5087C10.5722 11.4567 10.6143 11.3298 10.5619 11.2261C10.512 11.1244 10.3819 11.0796 10.2797 11.1312Z" fill="white"/>
</svg>
