<svg width="34" height="39" viewBox="0 0 34 39" fill="none" xmlns="http://www.w3.org/2000/svg">
<path d="M19.4634 1C14.8537 1 7.60976 3.33333 5.63415 5C3.65854 6.66667 4.97562 9.66667 6.29269 9C7.60976 8.33333 16.3024 5.13333 19.4634 4.33333C22.6244 3.53333 27.1466 4.88867 28.6829 5.66667C27.1466 4.33333 24.0732 1 19.4634 1Z" stroke="white" stroke-width="2" stroke-linejoin="round"/>
<path d="M0.99 30H6.44V31.07H2.27V32.79H4.34C5.18 32.79 5.81667 32.9667 6.25 33.32C6.69 33.6667 6.91 34.17 6.91 34.83C6.91 35.5233 6.67 36.06 6.19 36.44C5.71 36.8133 5.02667 37 4.14 37H0.99V30ZM4.07 36C4.57 36 4.95 35.9033 5.21 35.71C5.47 35.5167 5.6 35.2367 5.6 34.87C5.6 34.15 5.09 33.79 4.07 33.79H2.27V36H4.07ZM11.1535 31.6C11.6735 31.6 12.1368 31.7133 12.5435 31.94C12.9568 32.1667 13.2802 32.4867 13.5135 32.9C13.7468 33.3133 13.8635 33.79 13.8635 34.33C13.8635 34.87 13.7468 35.35 13.5135 35.77C13.2802 36.1833 12.9568 36.5033 12.5435 36.73C12.1368 36.9567 11.6735 37.07 11.1535 37.07C10.4335 37.07 9.86352 36.83 9.44352 36.35V38.94H8.19352V31.66H9.38352V32.36C9.59018 32.1067 9.84352 31.9167 10.1435 31.79C10.4502 31.6633 10.7868 31.6 11.1535 31.6ZM11.0135 36C11.4735 36 11.8502 35.8467 12.1435 35.54C12.4435 35.2333 12.5935 34.83 12.5935 34.33C12.5935 33.83 12.4435 33.4267 12.1435 33.12C11.8502 32.8133 11.4735 32.66 11.0135 32.66C10.7135 32.66 10.4435 32.73 10.2035 32.87C9.96352 33.0033 9.77352 33.1967 9.63352 33.45C9.49352 33.7033 9.42352 33.9967 9.42352 34.33C9.42352 34.6633 9.49352 34.9567 9.63352 35.21C9.77352 35.4633 9.96352 35.66 10.2035 35.8C10.4435 35.9333 10.7135 36 11.0135 36ZM17.4876 37.07C16.9476 37.07 16.4609 36.9533 16.0276 36.72C15.5942 36.4867 15.2542 36.1633 15.0076 35.75C14.7676 35.33 14.6476 34.8567 14.6476 34.33C14.6476 33.8033 14.7676 33.3333 15.0076 32.92C15.2542 32.5067 15.5942 32.1833 16.0276 31.95C16.4609 31.7167 16.9476 31.6 17.4876 31.6C18.0342 31.6 18.5242 31.7167 18.9576 31.95C19.3909 32.1833 19.7276 32.5067 19.9676 32.92C20.2142 33.3333 20.3376 33.8033 20.3376 34.33C20.3376 34.8567 20.2142 35.33 19.9676 35.75C19.7276 36.1633 19.3909 36.4867 18.9576 36.72C18.5242 36.9533 18.0342 37.07 17.4876 37.07ZM17.4876 36C17.9476 36 18.3276 35.8467 18.6276 35.54C18.9276 35.2333 19.0776 34.83 19.0776 34.33C19.0776 33.83 18.9276 33.4267 18.6276 33.12C18.3276 32.8133 17.9476 32.66 17.4876 32.66C17.0276 32.66 16.6476 32.8133 16.3476 33.12C16.0542 33.4267 15.9076 33.83 15.9076 34.33C15.9076 34.83 16.0542 35.2333 16.3476 35.54C16.6476 35.8467 17.0276 36 17.4876 36ZM25.4424 34.22C26.1024 34.42 26.4324 34.8467 26.4324 35.5C26.4324 35.98 26.2524 36.35 25.8924 36.61C25.5324 36.87 24.9991 37 24.2924 37H21.5724V31.66H24.1824C24.8358 31.66 25.3458 31.78 25.7124 32.02C26.0791 32.26 26.2624 32.6 26.2624 33.04C26.2624 33.3133 26.1891 33.55 26.0424 33.75C25.9024 33.95 25.7024 34.1067 25.4424 34.22ZM22.7624 33.89H24.0724C24.7191 33.89 25.0424 33.6667 25.0424 33.22C25.0424 32.7867 24.7191 32.57 24.0724 32.57H22.7624V33.89ZM24.1924 36.09C24.8791 36.09 25.2224 35.8667 25.2224 35.42C25.2224 35.1867 25.1424 35.0133 24.9824 34.9C24.8224 34.78 24.5724 34.72 24.2324 34.72H22.7624V36.09H24.1924ZM27.7638 31.66H29.0138V35.18L31.9638 31.66H33.1038V37H31.8538V33.48L28.9138 37H27.7638V31.66Z" fill="white"/>
</svg>
