<svg width="10" height="10" viewBox="0 0 10 10" fill="none" xmlns="http://www.w3.org/2000/svg">
<path opacity="0.7" fill-rule="evenodd" clip-rule="evenodd" d="M9.82688 4.91077C9.82688 3.35409 9.15917 1.93363 8.06027 0.855957L7.58882 1.12789C8.63199 2.12549 9.26826 3.45323 9.26826 4.91077C9.26826 6.418 8.58787 7.78643 7.48072 8.79452L7.95397 9.0675C9.11597 7.97824 9.82688 6.51702 9.82688 4.91077ZM0.442261 3.91084V6.59915H2.21913L4.54803 8.48096V2.02903L2.21913 3.91084H0.442261ZM6.82814 2.02903C7.5928 2.76228 8.06726 3.78435 8.06726 4.91488C8.06726 6.09441 7.55079 7.15587 6.72711 7.89442L6.30765 7.62328C7.08751 6.96953 7.5817 5.9987 7.5817 4.91488C7.5817 3.88043 7.1315 2.9489 6.4124 2.29776L6.82814 2.02903ZM6.30765 4.6112C6.30765 3.83125 6.04499 3.12539 5.62067 2.61557L5.27503 2.86825C5.67614 3.27699 5.93189 3.8962 5.93189 4.58931C5.93189 5.36026 5.61548 6.03976 5.13457 6.43991L5.51954 6.72134C6.00287 6.20556 6.30765 5.45136 6.30765 4.6112Z" fill="white"/>
</svg>
