<svg width="15" height="19" viewBox="0 0 15 19" fill="none" xmlns="http://www.w3.org/2000/svg">
<path fill-rule="evenodd" clip-rule="evenodd" d="M1.46155 0.759766C0.909263 0.759766 0.461548 1.20748 0.461548 1.75977V17.3559C0.461548 17.9082 0.909262 18.3559 1.46155 18.3559H5.24314C5.79543 18.3559 6.24314 17.9082 6.24314 17.3559V1.75977C6.24314 1.20748 5.79543 0.759766 5.24314 0.759766H1.46155ZM9.75685 0.75986C9.20456 0.75986 8.75685 1.20758 8.75685 1.75986V17.356C8.75685 17.9083 9.20456 18.356 9.75685 18.356H13.5384C14.0907 18.356 14.5384 17.9083 14.5384 17.356V1.75986C14.5384 1.20757 14.0907 0.75986 13.5384 0.75986H9.75685Z" fill="white" fill-opacity="0.7"/>
</svg>
