<svg width="72" height="45" viewBox="0 0 72 45" fill="none" xmlns="http://www.w3.org/2000/svg">
<path d="M4.23 43.1C3.68333 43.1 3.18 43.01 2.72 42.83C2.26 42.65 1.86 42.4 1.52 42.08C1.18 41.7533 0.916667 41.3733 0.73 40.94C0.543333 40.5 0.45 40.02 0.45 39.5C0.45 38.98 0.543333 38.5033 0.73 38.07C0.916667 37.63 1.18 37.25 1.52 36.93C1.86 36.6033 2.26 36.35 2.72 36.17C3.18 35.99 3.68 35.9 4.22 35.9C4.76667 35.9 5.26667 35.99 5.72 36.17C6.18 36.35 6.58 36.6033 6.92 36.93C7.26 37.25 7.52333 37.63 7.71 38.07C7.89667 38.5033 7.99 38.98 7.99 39.5C7.99 40.02 7.89667 40.5 7.71 40.94C7.52333 41.38 7.26 41.76 6.92 42.08C6.58 42.4 6.18 42.65 5.72 42.83C5.26667 43.01 4.77 43.1 4.23 43.1ZM4.22 41.96C4.57333 41.96 4.9 41.9 5.2 41.78C5.5 41.66 5.76 41.49 5.98 41.27C6.2 41.0433 6.37 40.7833 6.49 40.49C6.61667 40.19 6.68 39.86 6.68 39.5C6.68 39.14 6.61667 38.8133 6.49 38.52C6.37 38.22 6.2 37.96 5.98 37.74C5.76 37.5133 5.5 37.34 5.2 37.22C4.9 37.1 4.57333 37.04 4.22 37.04C3.86667 37.04 3.54 37.1 3.24 37.22C2.94667 37.34 2.68667 37.5133 2.46 37.74C2.24 37.96 2.06667 38.22 1.94 38.52C1.82 38.8133 1.76 39.14 1.76 39.5C1.76 39.8533 1.82 40.18 1.94 40.48C2.06667 40.78 2.24 41.0433 2.46 41.27C2.68 41.49 2.94 41.66 3.24 41.78C3.54 41.9 3.86667 41.96 4.22 41.96ZM11.7173 43.07C11.1573 43.07 10.6573 42.9533 10.2173 42.72C9.78393 42.48 9.44393 42.1533 9.19727 41.74C8.9506 41.3267 8.82727 40.8567 8.82727 40.33C8.82727 39.7967 8.9506 39.3267 9.19727 38.92C9.44393 38.5067 9.78393 38.1833 10.2173 37.95C10.6573 37.7167 11.1573 37.6 11.7173 37.6C12.2373 37.6 12.6939 37.7067 13.0873 37.92C13.4873 38.1267 13.7906 38.4333 13.9973 38.84L13.0373 39.4C12.8773 39.1467 12.6806 38.96 12.4473 38.84C12.2206 38.72 11.9739 38.66 11.7073 38.66C11.4006 38.66 11.1239 38.7267 10.8773 38.86C10.6306 38.9933 10.4373 39.1867 10.2973 39.44C10.1573 39.6867 10.0873 39.9833 10.0873 40.33C10.0873 40.6767 10.1573 40.9767 10.2973 41.23C10.4373 41.4767 10.6306 41.6667 10.8773 41.8C11.1239 41.9333 11.4006 42 11.7073 42C11.9739 42 12.2206 41.94 12.4473 41.82C12.6806 41.7 12.8773 41.5133 13.0373 41.26L13.9973 41.82C13.7906 42.22 13.4873 42.53 13.0873 42.75C12.6939 42.9633 12.2373 43.07 11.7173 43.07ZM17.3997 43.07C16.853 43.07 16.3664 42.9533 15.9397 42.72C15.513 42.48 15.1764 42.1533 14.9297 41.74C14.683 41.3267 14.5597 40.8567 14.5597 40.33C14.5597 39.7967 14.683 39.3267 14.9297 38.92C15.1764 38.5067 15.513 38.1833 15.9397 37.95C16.3664 37.7167 16.853 37.6 17.3997 37.6C17.953 37.6 18.443 37.7167 18.8697 37.95C19.303 38.1833 19.6397 38.5033 19.8797 38.91C20.1264 39.3167 20.2497 39.79 20.2497 40.33C20.2497 40.8567 20.1264 41.3267 19.8797 41.74C19.6397 42.1533 19.303 42.48 18.8697 42.72C18.443 42.9533 17.953 43.07 17.3997 43.07ZM17.3997 42C17.7064 42 17.9797 41.9333 18.2197 41.8C18.4597 41.6667 18.6464 41.4733 18.7797 41.22C18.9197 40.9667 18.9897 40.67 18.9897 40.33C18.9897 39.9833 18.9197 39.6867 18.7797 39.44C18.6464 39.1867 18.4597 38.9933 18.2197 38.86C17.9797 38.7267 17.7097 38.66 17.4097 38.66C17.103 38.66 16.8297 38.7267 16.5897 38.86C16.3564 38.9933 16.1697 39.1867 16.0297 39.44C15.8897 39.6867 15.8197 39.9833 15.8197 40.33C15.8197 40.67 15.8897 40.9667 16.0297 41.22C16.1697 41.4733 16.3564 41.6667 16.5897 41.8C16.8297 41.9333 17.0997 42 17.3997 42ZM24.0345 43.1C23.5945 43.1 23.2012 43.0333 22.8545 42.9C22.5079 42.7667 22.2079 42.5633 21.9545 42.29C21.7079 42.01 21.5179 41.6567 21.3845 41.23C21.2512 40.8033 21.1845 40.2967 21.1845 39.71C21.1845 39.2833 21.2212 38.8933 21.2945 38.54C21.3679 38.1867 21.4779 37.87 21.6245 37.59C21.7712 37.3033 21.9545 37.05 22.1745 36.83C22.4012 36.61 22.6645 36.4267 22.9645 36.28C23.2645 36.1333 23.6045 36.02 23.9845 35.94L26.4645 35.41L26.6445 36.53L24.3945 36.99C24.2679 37.0167 24.1145 37.0567 23.9345 37.11C23.7612 37.1567 23.5812 37.23 23.3945 37.33C23.2145 37.4233 23.0445 37.56 22.8845 37.74C22.7312 37.9133 22.6045 38.14 22.5045 38.42C22.4112 38.6933 22.3645 39.0367 22.3645 39.45C22.3645 39.5767 22.3679 39.6733 22.3745 39.74C22.3879 39.8 22.3979 39.8667 22.4045 39.94C22.4179 40.0067 22.4245 40.1067 22.4245 40.24L21.9545 39.75C22.0879 39.41 22.2712 39.12 22.5045 38.88C22.7445 38.6333 23.0212 38.4467 23.3345 38.32C23.6545 38.1867 24.0012 38.12 24.3745 38.12C24.8745 38.12 25.3179 38.2233 25.7045 38.43C26.0912 38.6367 26.3945 38.9267 26.6145 39.3C26.8345 39.6733 26.9445 40.0967 26.9445 40.57C26.9445 41.0633 26.8245 41.5 26.5845 41.88C26.3445 42.26 26.0045 42.56 25.5645 42.78C25.1312 42.9933 24.6212 43.1 24.0345 43.1ZM24.1345 42.09C24.4345 42.09 24.6979 42.0267 24.9245 41.9C25.1579 41.7667 25.3379 41.5867 25.4645 41.36C25.5979 41.1333 25.6645 40.88 25.6645 40.6C25.6645 40.32 25.5979 40.0767 25.4645 39.87C25.3379 39.6567 25.1579 39.4867 24.9245 39.36C24.6979 39.2333 24.4279 39.17 24.1145 39.17C23.8145 39.17 23.5445 39.23 23.3045 39.35C23.0712 39.47 22.8879 39.6367 22.7545 39.85C22.6279 40.0567 22.5645 40.2967 22.5645 40.57C22.5645 40.85 22.6312 41.1067 22.7645 41.34C22.8979 41.5733 23.0812 41.7567 23.3145 41.89C23.5545 42.0233 23.8279 42.09 24.1345 42.09ZM30.6445 43.07C30.0511 43.07 29.5311 42.9533 29.0845 42.72C28.6445 42.48 28.3011 42.1533 28.0545 41.74C27.8145 41.3267 27.6945 40.8567 27.6945 40.33C27.6945 39.7967 27.8111 39.3267 28.0445 38.92C28.2845 38.5067 28.6111 38.1833 29.0245 37.95C29.4445 37.7167 29.9211 37.6 30.4545 37.6C30.9745 37.6 31.4378 37.7133 31.8445 37.94C32.2511 38.1667 32.5711 38.4867 32.8045 38.9C33.0378 39.3133 33.1545 39.8 33.1545 40.36C33.1545 40.4133 33.1511 40.4733 33.1445 40.54C33.1445 40.6067 33.1411 40.67 33.1345 40.73H28.6845V39.9H32.4745L31.9845 40.16C31.9911 39.8533 31.9278 39.5833 31.7945 39.35C31.6611 39.1167 31.4778 38.9333 31.2445 38.8C31.0178 38.6667 30.7545 38.6 30.4545 38.6C30.1478 38.6 29.8778 38.6667 29.6445 38.8C29.4178 38.9333 29.2378 39.12 29.1045 39.36C28.9778 39.5933 28.9145 39.87 28.9145 40.19V40.39C28.9145 40.71 28.9878 40.9933 29.1345 41.24C29.2811 41.4867 29.4878 41.6767 29.7545 41.81C30.0211 41.9433 30.3278 42.01 30.6745 42.01C30.9745 42.01 31.2445 41.9633 31.4845 41.87C31.7245 41.7767 31.9378 41.63 32.1245 41.43L32.7945 42.2C32.5545 42.48 32.2511 42.6967 31.8845 42.85C31.5245 42.9967 31.1111 43.07 30.6445 43.07ZM34.5216 43V37.66H35.7716V39.83H38.4616V37.66H39.7116V43H38.4616V40.89H35.7716V43H34.5216ZM41.3869 43V37.66H42.6369V39.83H45.3269V37.66H46.5769V43H45.3269V40.89H42.6369V43H41.3869ZM50.6321 43.07C50.0854 43.07 49.5988 42.9533 49.1721 42.72C48.7454 42.48 48.4088 42.1533 48.1621 41.74C47.9154 41.3267 47.7921 40.8567 47.7921 40.33C47.7921 39.7967 47.9154 39.3267 48.1621 38.92C48.4088 38.5067 48.7454 38.1833 49.1721 37.95C49.5988 37.7167 50.0854 37.6 50.6321 37.6C51.1854 37.6 51.6754 37.7167 52.1021 37.95C52.5354 38.1833 52.8721 38.5033 53.1121 38.91C53.3588 39.3167 53.4821 39.79 53.4821 40.33C53.4821 40.8567 53.3588 41.3267 53.1121 41.74C52.8721 42.1533 52.5354 42.48 52.1021 42.72C51.6754 42.9533 51.1854 43.07 50.6321 43.07ZM50.6321 42C50.9388 42 51.2121 41.9333 51.4521 41.8C51.6921 41.6667 51.8788 41.4733 52.0121 41.22C52.1521 40.9667 52.2221 40.67 52.2221 40.33C52.2221 39.9833 52.1521 39.6867 52.0121 39.44C51.8788 39.1867 51.6921 38.9933 51.4521 38.86C51.2121 38.7267 50.9421 38.66 50.6421 38.66C50.3354 38.66 50.0621 38.7267 49.8221 38.86C49.5888 38.9933 49.4021 39.1867 49.2621 39.44C49.1221 39.6867 49.0521 39.9833 49.0521 40.33C49.0521 40.67 49.1221 40.9667 49.2621 41.22C49.4021 41.4733 49.5888 41.6667 49.8221 41.8C50.0621 41.9333 50.3321 42 50.6321 42ZM57.147 43.07C56.587 43.07 56.087 42.9533 55.647 42.72C55.2136 42.48 54.8736 42.1533 54.627 41.74C54.3803 41.3267 54.257 40.8567 54.257 40.33C54.257 39.7967 54.3803 39.3267 54.627 38.92C54.8736 38.5067 55.2136 38.1833 55.647 37.95C56.087 37.7167 56.587 37.6 57.147 37.6C57.667 37.6 58.1236 37.7067 58.517 37.92C58.917 38.1267 59.2203 38.4333 59.427 38.84L58.467 39.4C58.307 39.1467 58.1103 38.96 57.877 38.84C57.6503 38.72 57.4036 38.66 57.137 38.66C56.8303 38.66 56.5536 38.7267 56.307 38.86C56.0603 38.9933 55.867 39.1867 55.727 39.44C55.587 39.6867 55.517 39.9833 55.517 40.33C55.517 40.6767 55.587 40.9767 55.727 41.23C55.867 41.4767 56.0603 41.6667 56.307 41.8C56.5536 41.9333 56.8303 42 57.137 42C57.4036 42 57.6503 41.94 57.877 41.82C58.1103 41.7 58.307 41.5133 58.467 41.26L59.427 41.82C59.2203 42.22 58.917 42.53 58.517 42.75C58.1236 42.9633 57.667 43.07 57.147 43.07ZM61.5984 43V38.42L61.8884 38.72H59.7184V37.66H64.7184V38.72H62.5584L62.8484 38.42V43H61.5984ZM65.6252 43V37.66H66.8752V41.18L69.8252 37.66H70.9652V43H69.7152V39.48L66.7752 43H65.6252Z" fill="white"/>
<path d="M35 2.5C28.1075 2.5 22.5 8.1075 22.5 15C22.5 21.8925 28.1075 27.5 35 27.5C41.8925 27.5 47.5 21.8925 47.5 15C47.5 8.1075 41.8925 2.5 35 2.5ZM35 25C29.4863 25 25 20.5138 25 15C25 13.54 25.3225 12.1562 25.8863 10.905C26.0788 11.0175 26.2713 11.1325 26.4562 11.25C26.9513 11.5625 27.445 11.875 28.0638 12.11C28.6813 12.3438 29.4237 12.5 30.4125 12.5C31.4025 12.5 32.145 12.3438 32.7638 12.1088C33.3825 11.8738 33.8775 11.5625 34.3725 11.25C34.8675 10.9375 35.3625 10.625 35.9812 10.39C36.5988 10.1563 37.3413 10 38.3313 10C39.3212 10 40.0637 10.1562 40.6812 10.3912C41.3 10.625 41.795 10.9375 42.29 11.25C42.785 11.5625 43.28 11.875 43.8988 12.11C44.1213 12.1937 44.3663 12.2625 44.625 12.3238C44.8638 13.1763 45 14.0712 45 15C45 20.5138 40.5138 25 35 25Z" fill="white"/>
<path d="M30.625 17.5C31.6605 17.5 32.5 16.6605 32.5 15.625C32.5 14.5895 31.6605 13.75 30.625 13.75C29.5895 13.75 28.75 14.5895 28.75 15.625C28.75 16.6605 29.5895 17.5 30.625 17.5Z" fill="white"/>
<path d="M39.375 17.5C40.4105 17.5 41.25 16.6605 41.25 15.625C41.25 14.5895 40.4105 13.75 39.375 13.75C38.3395 13.75 37.5 14.5895 37.5 15.625C37.5 16.6605 38.3395 17.5 39.375 17.5Z" fill="white"/>
</svg>
