<svg width="30" height="30" viewBox="0 0 30 30" fill="none" xmlns="http://www.w3.org/2000/svg">
<path d="M20.3784 19.1706H8.35V25.2273C8.35 25.7921 7.8799 26.25 7.3 26.25C6.7201 26.25 6.25 25.7921 6.25 25.2273V4.77273C6.25 4.20789 6.7201 3.75 7.3 3.75H20.3784C21.7546 3.75 22.8132 4.57407 23.3424 5.60259C23.8706 6.62917 23.9268 7.94601 23.2654 9.10026L22.637 10.197C22.1962 10.9664 22.1962 11.9542 22.637 12.7236L23.2654 13.8204C23.9268 14.9746 23.8706 16.2914 23.3424 17.318C22.8132 18.3465 21.7546 19.1706 20.3784 19.1706Z" fill="#868686"/>
</svg>
