<svg width="25" height="25" viewBox="0 0 25 25" fill="none" xmlns="http://www.w3.org/2000/svg">
<g clip-path="url(#clip0_1188_140)">
<path d="M7.29072 3.00371V0L6.83584 0.454883L0.547852 6.74326L0.0930176 7.19775H3.09756C5.40942 7.19775 7.29072 5.31641 7.29072 3.00371Z" fill="#868686"/>
<path d="M24.4419 21.0388C24.4419 21.0388 22.5359 19.3718 22.0799 18.9169C21.4107 18.2509 21.1435 17.93 21.3794 17.389C22.4125 15.282 22.0552 12.6666 20.3028 10.9145C18.0995 8.71079 14.5261 8.71079 12.3227 10.9145C10.1193 13.1187 10.1193 16.6909 12.3227 18.8946C14.0743 20.6462 16.6913 21.0035 18.7968 19.9708C19.3382 19.7349 19.6595 20.0021 20.3251 20.6716C20.7803 21.1273 22.447 23.0333 22.447 23.0333C23.3112 23.8975 23.9761 23.3663 24.3761 22.967C24.7745 22.5679 25.3061 21.903 24.4419 21.0388ZM18.6232 17.2146C17.3472 18.4899 15.2786 18.4899 14.0022 17.2146C12.727 15.939 12.727 13.8697 14.0022 12.5948C15.2786 11.3192 17.3472 11.3192 18.6232 12.5948C19.8984 13.8697 19.8984 15.939 18.6232 17.2146Z" fill="#868686"/>
<path d="M19.0126 21.6292C18.1578 21.9711 17.234 22.1502 16.3105 22.1502C14.3752 22.1502 12.5562 21.3968 11.1881 20.0287C8.36299 17.2032 8.36299 12.6054 11.1877 9.77949C12.5565 8.41064 14.3768 7.65645 16.3125 7.65645C17.8079 7.65645 19.2316 8.11089 20.4344 8.94653V4.19395C20.4344 1.88135 18.5527 0 16.2408 0H8.89541V3.00371C8.89541 6.20103 6.29443 8.80244 3.09756 8.80244H0.0930176V20.806C0.0930176 23.1187 1.97437 25 4.28735 25H16.2408C17.8804 25 19.2998 24.0515 19.989 22.6764C19.6367 22.283 19.328 21.9441 19.1897 21.8055C19.1525 21.7678 19.0851 21.7001 19.0126 21.6292Z" fill="#868686"/>
</g>
<defs>
<clipPath id="clip0_1188_140">
<rect width="25" height="25" fill="white"/>
</clipPath>
</defs>
</svg>
