<svg width="25" height="25" viewBox="0 0 25 25" fill="none" xmlns="http://www.w3.org/2000/svg">
<g clip-path="url(#clip0_1188_148)">
<path d="M12.5 2.08203C14.2847 2.08196 16.0324 2.59132 17.5376 3.55025C19.0428 4.50918 20.243 5.87784 20.9972 7.49537C21.7514 9.11291 22.0282 10.9121 21.7951 12.6815C21.562 14.451 20.8286 16.1171 19.6813 17.4841C20.9886 18.3487 21.799 19.4529 21.8698 20.6602L21.875 20.832L12.5 22.9154L3.12501 20.832L3.13022 20.6602C3.20001 19.4518 4.01147 18.3477 5.31772 17.4831C3.89845 15.7962 3.12172 13.6616 3.12501 11.457C3.12501 8.97063 4.11273 6.58606 5.87088 4.8279C7.62904 3.06975 10.0136 2.08203 12.5 2.08203ZM12.5 4.16536C10.5661 4.16536 8.71148 4.93359 7.34402 6.30104C5.97657 7.6685 5.20834 9.52316 5.20834 11.457C5.20834 13.0893 5.74376 14.6341 6.71355 15.8956L6.91355 16.1445L8.41668 17.9331L6.37293 19.2862L6.23022 19.3872L12.5 20.781L18.7688 19.3872L18.7177 19.3497L18.5323 19.2216L16.5833 17.9331L18.0865 16.1435C19.1909 14.832 19.7951 13.1716 19.7917 11.457C19.7917 9.52316 19.0234 7.6685 17.656 6.30104C16.2885 4.93359 14.4339 4.16536 12.5 4.16536ZM12.5 13.5404C13.9375 13.5404 15.1042 14.2404 15.1042 15.1029C15.1042 15.9654 13.9375 16.6654 12.5 16.6654C11.0625 16.6654 9.89584 15.9654 9.89584 15.1029C9.89584 14.2404 11.0625 13.5404 12.5 13.5404ZM9.37501 8.33203C10.5261 8.33203 11.4583 9.03203 11.4583 9.89453C11.4583 10.757 10.5261 11.457 9.37501 11.457C8.22397 11.457 7.29168 10.757 7.29168 9.89453C7.29168 9.03203 8.22397 8.33203 9.37501 8.33203ZM15.625 8.33203C16.7761 8.33203 17.7083 9.03203 17.7083 9.89453C17.7083 10.757 16.7761 11.457 15.625 11.457C14.474 11.457 13.5417 10.757 13.5417 9.89453C13.5417 9.03203 14.474 8.33203 15.625 8.33203Z" fill="#868686"/>
</g>
<defs>
<clipPath id="clip0_1188_148">
<rect width="25" height="25" fill="white"/>
</clipPath>
</defs>
</svg>
