<svg width="25" height="25" viewBox="0 0 25 25" fill="none" xmlns="http://www.w3.org/2000/svg">
<g clip-path="url(#clip0_1202_12)">
<path d="M9.37504 11.4583C10.1991 11.4583 11.0047 11.214 11.6899 10.7561C12.3751 10.2983 12.9092 9.64754 13.2245 8.88618C13.5399 8.12482 13.6224 7.28705 13.4616 6.47879C13.3009 5.67054 12.904 4.92811 12.3213 4.34539C11.7386 3.76267 10.9962 3.36583 10.1879 3.20506C9.37966 3.04429 8.54189 3.12681 7.78053 3.44217C7.01917 3.75754 6.36842 4.29159 5.91058 4.97679C5.45274 5.662 5.20837 6.46758 5.20837 7.29167C5.20837 8.39674 5.64736 9.45655 6.42876 10.2379C7.21016 11.0193 8.26997 11.4583 9.37504 11.4583Z" fill="#868686"/>
<path d="M17.7084 13.543C18.3264 13.543 18.9306 13.3597 19.4445 13.0163C19.9584 12.6729 20.359 12.1849 20.5955 11.6139C20.832 11.0428 20.8939 10.4145 20.7733 9.80831C20.6527 9.20212 20.3551 8.6453 19.9181 8.20826C19.481 7.77122 18.9242 7.47359 18.318 7.35302C17.7118 7.23244 17.0835 7.29432 16.5125 7.53085C15.9415 7.76737 15.4534 8.16791 15.11 8.68181C14.7667 9.19572 14.5834 9.7999 14.5834 10.418C14.5834 11.2468 14.9126 12.0416 15.4987 12.6277C16.0847 13.2137 16.8796 13.543 17.7084 13.543Z" fill="#868686"/>
<path d="M21.875 20.8326C22.1513 20.8326 22.4163 20.7228 22.6116 20.5275C22.807 20.3321 22.9167 20.0672 22.9167 19.7909C22.9159 18.8174 22.6422 17.8636 22.1267 17.0377C21.6112 16.2118 20.8746 15.5469 20.0004 15.1185C19.1262 14.6901 18.1494 14.5152 17.1809 14.6138C16.2123 14.7124 15.2908 15.0805 14.5209 15.6763C13.5006 14.66 12.2022 13.9686 10.7894 13.6893C9.3767 13.4099 7.91287 13.5552 6.58257 14.1067C5.25226 14.6582 4.11505 15.5913 3.31435 16.7882C2.51365 17.9852 2.08532 19.3925 2.08337 20.8326C2.08337 21.1089 2.19312 21.3738 2.38847 21.5692C2.58382 21.7645 2.84877 21.8743 3.12504 21.8743H15.625C15.9013 21.8743 16.1663 21.7645 16.3616 21.5692C16.557 21.3738 16.6667 21.1089 16.6667 20.8326" fill="#868686"/>
</g>
<defs>
<clipPath id="clip0_1202_12">
<rect width="25" height="25" fill="white"/>
</clipPath>
</defs>
</svg>
