<svg width="543" height="455" viewBox="0 0 543 455" fill="none" xmlns="http://www.w3.org/2000/svg">
<g clip-path="url(#clip0_951_222)">
<path d="M121.252 412.961C121.252 412.961 72.4526 377.358 47.7878 324.464C23.1231 271.571 76.0111 254.282 98.8718 261.395C123.196 268.952 168.991 308.193 168.991 308.193L160.01 323.457C160.01 323.457 139.684 308.626 118.364 297.43C97.0443 286.234 76.1848 301.917 88.5172 328.364C100.85 354.811 145.386 395.669 145.386 395.669L121.252 412.961ZM544.401 215.643C544.401 215.643 548.496 155.375 523.831 102.482C499.166 49.588 451.927 78.9895 442.681 101.074C432.835 124.565 433.459 184.87 433.459 184.87L450.925 187.801C450.925 187.801 452.629 162.697 457.756 139.169C462.884 115.64 488.306 109.742 500.638 136.189C512.971 162.636 515.642 223.016 515.642 223.016L544.401 215.643Z" fill="#5D3A0B"/>
<path d="M542.878 238.682C572.068 301.282 599.059 457.797 435.339 534.141C271.62 610.484 169.071 489.202 139.88 426.603C122.264 388.823 186.816 328.054 312.016 269.672C437.215 211.291 525.261 200.903 542.878 238.682Z" fill="#5D3A0B"/>
<path d="M546.408 185.423C586.143 270.634 506.454 339.992 373.678 401.906C240.901 463.821 136.547 480.285 96.8121 395.073C76.254 350.986 147.685 281.906 287.351 216.778C427.017 151.651 525.85 141.336 546.408 185.423Z" fill="#8D4A07"/>
<path d="M349.013 349.013C465.41 294.736 547.5 224.426 532.366 191.971C517.232 159.516 410.605 177.206 294.208 231.483C177.811 285.76 95.7216 356.07 110.856 388.525C125.99 420.98 232.616 403.29 349.013 349.013Z" fill="#5D3A0B"/>
<path d="M397.39 487.281C348.863 509.088 304.383 524.42 265.874 530.287C287.17 538.996 309.954 543.489 332.961 543.517C357.059 535.918 382.774 525.778 409.704 513.688L397.39 487.281ZM423.837 474.948L436.157 501.369C462.716 488.517 487.018 475.349 508.336 461.754C523.099 444.108 534.301 423.768 541.324 401.859C512.064 427.561 471.729 451.779 423.837 474.948ZM263.933 472.786C238.185 478.675 214.551 481.228 193.728 479.314C202.766 488.961 212.952 498.168 224.29 506.533C244.995 506.087 268.018 501.984 292.761 495.147C282.581 488.46 272.942 480.983 263.933 472.786ZM398.343 454.8C423.136 443.238 446.038 431.416 466.703 419.285C468.461 407.244 469.139 395.337 469.012 383.74C444.722 399.076 416.927 413.936 386.01 428.353C353.719 443.411 323.276 455.53 294.889 464.356C303.695 471.953 313.285 479.088 323.658 485.521C347.277 477.308 372.24 466.972 398.343 454.8ZM495.4 365.688C495.848 377.83 495.344 389.988 493.89 402.051C516.468 386.806 535.52 371.08 549.858 354.702C550.738 340.64 550.232 326.918 548.652 313.794C536.149 331.827 517.891 349.051 495.4 365.688Z" fill="#8D4A07"/>
<path d="M302.455 283.693C254.557 306.849 214.221 331.067 184.974 356.796C191.991 334.885 203.194 314.543 217.962 296.9C239.273 283.324 263.569 270.144 290.141 257.286L302.455 283.693ZM328.902 271.361L316.582 244.94C343.499 232.856 369.207 222.703 393.325 215.111C416.332 215.145 439.114 219.638 460.412 228.341C421.909 234.221 377.429 249.553 328.902 271.361ZM227.768 393.573C227.363 381.958 227.834 370.33 229.176 358.787C208.26 373.176 190.525 387.999 176.932 403.385C192.07 401.67 209.204 398.366 227.768 393.573ZM327.949 303.841C352.743 292.28 376.52 282.335 399.096 274.303C409.451 280.696 419.008 287.831 427.809 295.382C400.449 304.132 371.211 315.866 340.282 330.288C307.99 345.346 279.139 360.877 254.13 376.949C253.971 365.319 254.669 353.387 256.409 341.306C277.876 328.479 301.846 316.014 327.949 303.841ZM429.768 264.541C440.139 271.28 449.68 278.76 458.415 286.616C475.113 274.853 489.629 263.206 501.276 252.141C479.701 252.687 455.676 257.128 429.768 264.541Z" fill="#8A4633"/>
</g>
<defs>
<clipPath id="clip0_951_222">
<rect width="525.256" height="525.256" fill="white" transform="translate(0 221.982) rotate(-25)"/>
</clipPath>
</defs>
</svg>
