<svg width="63" height="63" viewBox="0 0 63 63" fill="none" xmlns="http://www.w3.org/2000/svg">
<g clip-path="url(#clip0_992_312)">
<path d="M43.3125 60.3728C38.4042 60.3728 33.7898 58.4617 30.3195 54.9934C26.8492 51.5211 24.938 46.9068 24.938 42.0004C24.938 37.09 26.849 32.4767 30.3195 29.0064C33.7898 25.536 38.4042 23.625 43.3125 23.625C48.2209 23.625 52.8352 25.536 56.3055 29.0064C59.7759 32.4768 61.687 37.09 61.687 42.0004C61.687 46.9069 59.7759 51.5211 56.3055 54.9934C52.8352 58.4616 48.221 60.3728 43.3125 60.3728Z" fill="#AC92EB"/>
<path d="M43.3125 22.3125C32.4401 22.3125 23.625 31.1258 23.625 42.001C23.625 52.8714 32.4402 61.6885 43.3125 61.6885C54.1851 61.6885 63 52.8714 63 42.001C63.0002 31.1258 54.1851 22.3125 43.3125 22.3125ZM57.3919 32.3581C57.8861 33.0773 58.3264 33.8338 58.7051 34.6259C58.084 34.9567 57.3072 34.7374 56.9516 34.126C56.5978 33.5108 56.7979 32.7312 57.3919 32.3581ZM44.6218 24.9869C44.5968 25.6868 44.0201 26.2501 43.3125 26.2501C42.605 26.2501 42.0282 25.6868 42.0032 24.9869C42.4359 24.9543 42.8723 24.9369 43.3125 24.9369C43.7529 24.9368 44.1893 24.9543 44.6218 24.9869ZM29.2333 51.6412C28.7392 50.922 28.2989 50.1646 27.9201 49.3724C28.5412 49.0416 29.318 49.2609 29.6736 49.8762C30.0253 50.4876 29.8274 51.2681 29.2333 51.6412ZM42.0033 59.0124C42.0283 58.3125 42.6052 57.7512 43.3126 57.7512C44.0202 57.7512 44.597 58.3126 44.622 59.0124C44.1893 59.047 43.7529 59.0624 43.3126 59.0624C42.8723 59.0625 42.4359 59.0471 42.0033 59.0124ZM49.9533 57.7242C49.065 58.0972 48.1538 58.3934 47.2231 58.6126C47.0001 56.6514 45.3351 55.1249 43.3125 55.1249C41.2899 55.1249 39.625 56.6514 39.4019 58.6126C38.4713 58.3934 37.5601 58.0972 36.6717 57.7242C34.6396 56.8629 32.815 55.6324 31.2481 54.0637C31.125 53.9405 31.004 53.8175 30.8848 53.6907C32.469 52.514 32.9554 50.3108 31.9461 48.5612C30.9348 46.8115 28.7814 46.131 26.9703 46.9193C26.4916 45.335 26.2493 43.6854 26.2493 42.0012C26.2493 39.6941 26.7011 37.46 27.5894 35.3604C28.4488 33.3273 29.6794 31.5028 31.2481 29.9357C32.815 28.3669 34.6396 27.1365 36.6717 26.277C37.5601 25.9021 38.4713 25.606 39.4019 25.3868C39.625 27.3498 41.2899 28.8745 43.3125 28.8745C45.3351 28.8745 47.0001 27.3498 47.2231 25.3868C48.1538 25.606 49.065 25.9021 49.9533 26.277C51.9855 27.1363 53.8101 28.3669 55.377 29.9357C55.5 30.0589 55.6212 30.1838 55.7404 30.3087C54.1543 31.4854 53.6698 33.6876 54.679 35.4373C55.6905 37.1907 57.8438 37.8674 59.6548 37.0792C60.1337 38.6672 60.3757 40.3131 60.3757 42.0011C60.3757 43.6854 60.1335 45.3349 59.6548 46.9192C57.8438 46.1309 55.6905 46.8114 54.679 48.561C53.6698 50.3107 54.1543 52.5139 55.7404 53.6906C55.6212 53.8174 55.5 53.9404 55.377 54.0635C53.8101 55.6324 51.9855 56.8629 49.9533 57.7242ZM56.9516 49.876C57.3073 49.2608 58.084 49.0416 58.7051 49.3723C58.3264 50.1645 57.8861 50.9219 57.3919 51.641C56.7979 51.2681 56.5978 50.4876 56.9516 49.876Z" fill="#967ADC"/>
<path d="M52.5006 42.0017C52.5006 47.0735 48.3862 51.1879 43.3124 51.1879C38.2387 51.1879 34.1243 47.0735 34.1243 42.0017C34.1243 36.9259 38.2387 32.8125 43.3124 32.8125C48.3862 32.8125 52.5006 36.926 52.5006 42.0017Z" fill="#F5F7FA"/>
<path d="M42.6569 30.3628C42.0283 30.7262 41.813 31.528 42.1764 32.1565C42.5379 32.7834 43.3415 32.9987 43.9683 32.6372C44.5969 32.2739 44.8123 31.4721 44.4489 30.8434C44.0874 30.2167 43.2838 30.0014 42.6569 30.3628Z" fill="#967ADC"/>
<path d="M42.6569 51.3636C42.0283 51.7251 41.813 52.5288 42.1764 53.1556C42.5379 53.7823 43.3415 53.9977 43.9683 53.6362C44.5969 53.2747 44.8123 52.471 44.4489 51.8443C44.0874 51.2138 43.2838 51.0022 42.6569 51.3636Z" fill="#967ADC"/>
<path d="M37.4062 34.0448C38.0351 34.4063 38.8367 34.1911 39.2001 33.5643C39.5616 32.9346 39.3462 32.1328 38.7195 31.7695C38.0908 31.4081 37.2892 31.6215 36.9257 32.2502C36.5642 32.8787 36.7776 33.6795 37.4062 34.0448Z" fill="#967ADC"/>
<path d="M49.2189 49.9567C48.5902 49.5952 47.7885 49.8104 47.4252 50.4372C47.0637 51.0641 47.2789 51.8676 47.9057 52.2292C48.5344 52.5907 49.3361 52.3792 49.6994 51.7485C50.061 51.1217 49.8475 50.3182 49.2189 49.9567Z" fill="#967ADC"/>
<path d="M34.2186 35.4375C33.4938 35.4375 32.9073 36.0258 32.9073 36.7487C32.9073 37.4754 33.4939 38.0638 34.2186 38.0638C34.9434 38.0638 35.5317 37.4755 35.5317 36.7487C35.5317 36.0258 34.9435 35.4375 34.2186 35.4375Z" fill="#967ADC"/>
<path d="M52.4066 45.9375C51.6817 45.9375 51.0935 46.5258 51.0935 47.2487C51.0935 47.9754 51.6817 48.5598 52.4066 48.5598C53.1315 48.5598 53.7178 47.9754 53.7178 47.2487C53.7178 46.5258 53.1315 45.9375 52.4066 45.9375Z" fill="#967ADC"/>
<path d="M33.9495 41.3436C33.5862 40.7167 32.7845 40.5014 32.1557 40.8629C31.529 41.2244 31.3136 42.028 31.6751 42.6547C32.0386 43.2854 32.8403 43.5007 33.469 43.1354C34.0975 42.7739 34.3109 41.9703 33.9495 41.3436Z" fill="#967ADC"/>
<path d="M54.9503 41.3436C54.5868 40.7167 53.7851 40.5014 53.1565 40.8629C52.5296 41.2244 52.3144 42.028 52.6759 42.6547C53.0392 43.2854 53.8409 43.5007 54.4696 43.1354C55.0963 42.7739 55.3118 41.9703 54.9503 41.3436Z" fill="#967ADC"/>
<path d="M34.8761 46.1129C34.2476 45.7514 33.4458 45.9667 33.0824 46.5936C32.7209 47.2241 32.9343 48.0239 33.563 48.3892C34.1898 48.7507 34.9935 48.5354 35.3568 47.9087C35.7183 47.2818 35.503 46.4782 34.8761 46.1129Z" fill="#967ADC"/>
<path d="M51.7491 37.8854C52.3778 38.2469 53.1794 38.0316 53.5429 37.4047C53.9044 36.778 53.6909 35.9744 53.0623 35.6129C52.4335 35.2514 51.6319 35.4667 51.2685 36.0936C50.907 36.7204 51.1224 37.5242 51.7491 37.8854Z" fill="#967ADC"/>
<path d="M38.0619 49.7812C37.3371 49.7812 36.7507 50.3694 36.7507 51.0964C36.7507 51.8192 37.3372 52.4075 38.0619 52.4075C38.7869 52.4075 39.375 51.8192 39.375 51.0964C39.375 50.3695 38.7869 49.7812 38.0619 49.7812Z" fill="#967ADC"/>
<path d="M48.5634 31.5938C47.8384 31.5938 47.2501 32.1801 47.2501 32.9049C47.2501 33.6288 47.8384 34.2172 48.5634 34.2172C49.2882 34.2172 49.8744 33.6288 49.8744 32.9049C49.8744 32.1801 49.2882 31.5938 48.5634 31.5938Z" fill="#967ADC"/>
<path d="M19.6875 39.3749C14.7791 39.3749 10.1648 37.4638 6.69447 33.9915C3.22403 30.5222 1.31299 25.9079 1.31299 20.9995C1.31299 16.0911 3.22403 11.4768 6.69434 8.00636C10.1647 4.53592 14.7789 2.625 19.6874 2.625C24.5958 2.625 29.2101 4.53604 32.6804 8.00636C36.1508 11.4767 38.0617 16.0909 38.0617 20.9994C38.0617 25.9078 36.1507 30.5221 32.6804 33.9915C29.2102 37.4639 24.5959 39.3749 19.6875 39.3749Z" fill="#ED5564"/>
<path d="M19.6875 1.3125C8.8151 1.3125 0 10.1277 0 21C0 31.8743 8.81522 40.6867 19.6875 40.6867C30.5598 40.6867 39.375 31.8744 39.375 21C39.375 10.1277 30.5598 1.3125 19.6875 1.3125ZM33.7668 11.3581C34.261 12.079 34.7012 12.8347 35.0799 13.6268C34.4588 13.9576 33.682 13.7384 33.3265 13.1251C32.9727 12.5137 33.1727 11.7312 33.7668 11.3581ZM19.6875 3.93878C20.1278 3.93878 20.5643 3.95417 20.9968 3.9868C20.9718 4.68862 20.3951 5.24995 19.6875 5.24995C18.98 5.24995 18.4032 4.6885 18.3782 3.9868C18.8107 3.95417 19.2472 3.93878 19.6875 3.93878ZM5.60815 11.3581C6.20224 11.7311 6.40035 12.5137 6.04845 13.1251C5.69274 13.7384 4.91606 13.9576 4.29501 13.6268C4.67375 12.8347 5.11208 12.0792 5.60815 11.3581ZM5.60815 30.642C5.11405 29.923 4.67375 29.1654 4.29501 28.3733C4.91594 28.0446 5.69274 28.2618 6.04845 28.8752C6.40022 29.4885 6.20224 30.2691 5.60815 30.642ZM19.6875 38.0644C19.2472 38.0644 18.8107 38.0452 18.3782 38.0145C18.4032 37.3146 18.98 36.7495 19.6875 36.7495C20.3951 36.7495 20.9718 37.3147 20.9968 38.0145C20.5642 38.045 20.1277 38.0644 19.6875 38.0644ZM26.3282 36.7224C25.44 37.0993 24.5287 37.3953 23.5981 37.6144C23.3751 35.6496 21.7102 34.1269 19.6875 34.1269C17.6649 34.1269 15.9999 35.6496 15.7769 37.6144C14.8463 37.3953 13.9351 37.0991 13.0468 36.7224C11.0146 35.8649 9.19002 34.6344 7.62311 33.0666C7.49999 32.9435 7.37895 32.8167 7.25965 32.6917C8.84391 31.515 9.33026 29.3136 8.32099 27.564C7.30976 25.8106 5.1564 25.1319 3.34522 25.9201C2.8665 24.334 2.62431 22.6864 2.62431 21.0003C2.62431 19.3142 2.8665 17.6664 3.34522 16.0822C5.15628 16.8686 7.30964 16.19 8.32099 14.4384C9.33038 12.6887 8.84403 10.4855 7.25965 9.31066C7.37883 9.18384 7.49999 9.05886 7.62311 8.93574C9.19002 7.36686 11.0145 6.13646 13.0468 5.27704C13.9351 4.90212 14.8464 4.606 15.7769 4.38684C15.9999 6.34984 17.6649 7.87648 19.6875 7.87648C21.7101 7.87648 23.3751 6.34996 23.5981 4.38684C24.5287 4.606 25.44 4.90212 26.3282 5.27704C28.3604 6.13646 30.185 7.36699 31.7519 8.93574C31.8749 9.05886 31.9961 9.18384 32.1153 9.31066C30.5292 10.4854 30.0446 12.6887 31.0539 14.4384C32.0652 16.1898 34.2186 16.8685 36.0297 16.0822C36.5085 17.6665 36.7506 19.3142 36.7506 21.0003C36.7506 22.6864 36.5084 24.334 36.0297 25.9201C34.2186 25.1319 32.0653 25.8106 31.0539 27.564C30.0445 29.3135 30.529 31.515 32.1153 32.6917C31.9961 32.8167 31.8749 32.9415 31.7519 33.0666C30.1849 34.6344 28.3604 35.8648 26.3282 36.7224ZM33.3265 28.8752C33.6822 28.2619 34.4588 28.0446 35.0799 28.3733C34.7012 29.1654 34.261 29.9229 33.7668 30.642C33.1727 30.2691 32.9727 29.4885 33.3265 28.8752Z" fill="#DA4453"/>
<path d="M28.8756 20.9987C28.8756 26.0725 24.7612 30.1869 19.6874 30.1869C14.6137 30.1869 10.4993 26.0725 10.4993 20.9987C10.4993 15.9249 14.6137 11.8125 19.6874 11.8125C24.7612 11.8125 28.8756 15.9249 28.8756 20.9987Z" fill="#FFCE54"/>
<path d="M5.25055 20.9987C5.25055 21.7235 4.66225 22.3118 3.93741 22.3118C3.21256 22.3118 2.62427 21.7235 2.62427 20.9987C2.62427 20.2738 3.21256 19.6875 3.93741 19.6875C4.66225 19.6875 5.25055 20.2738 5.25055 20.9987Z" fill="#FFCE54"/>
<path d="M36.7507 20.9987C36.7507 21.7235 36.1625 22.3118 35.4375 22.3118C34.7127 22.3118 34.1244 21.7235 34.1244 20.9987C34.1244 20.2738 34.7127 19.6875 35.4375 19.6875C36.1624 19.6874 36.7507 20.2738 36.7507 20.9987Z" fill="#FFCE54"/>
<path d="M12.468 33.5042C13.0966 33.8656 13.312 34.6693 12.9486 35.2961C12.5871 35.9267 11.7835 36.1382 11.1568 35.7767C10.5281 35.4152 10.3128 34.6115 10.6761 33.9848C11.0376 33.357 11.8413 33.1417 12.468 33.5042Z" fill="#FFCE54"/>
<path d="M28.218 6.22225C28.8466 6.58559 29.062 7.38727 28.6986 8.01607C28.3371 8.64476 27.5336 8.85813 26.9068 8.49676C26.2781 8.13329 26.0628 7.33161 26.4261 6.70293C26.7876 6.0761 27.5913 5.86075 28.218 6.22225Z" fill="#FFCE54"/>
<path d="M26.9068 33.5041C27.5336 33.1417 28.3373 33.3571 28.6986 33.9848C29.062 34.6115 28.8468 35.4151 28.218 35.7766C27.5913 36.1381 26.7875 35.9266 26.4261 35.296C26.0628 34.6691 26.2781 33.8654 26.9068 33.5041Z" fill="#FFCE54"/>
<path d="M11.1568 6.22225C11.7835 5.86075 12.5873 6.0761 12.9486 6.70293C13.312 7.33161 13.0966 8.13329 12.468 8.49676C11.8413 8.85826 11.0375 8.64476 10.6761 8.01607C10.3128 7.38727 10.5281 6.58559 11.1568 6.22225Z" fill="#FFCE54"/>
<path d="M43.3125 38.0625C42.5877 38.0625 41.9994 38.6508 41.9994 39.3737V44.6224C41.9994 45.3491 42.5877 45.9375 43.3125 45.9375C44.0375 45.9375 44.6257 45.3492 44.6257 44.6224V39.3735C44.6258 38.6508 44.0375 38.0625 43.3125 38.0625Z" fill="#434A54"/>
<path d="M19.6875 17.0625C18.9627 17.0625 18.3744 17.6508 18.3744 18.3756V23.6244C18.3744 24.3492 18.9627 24.9375 19.6875 24.9375C20.4124 24.9375 21.0007 24.3492 21.0007 23.6244V18.3756C21.0007 17.651 20.4123 17.0625 19.6875 17.0625Z" fill="#434A54"/>
</g>
<defs>
<clipPath id="clip0_992_312">
<rect width="63" height="63" fill="white"/>
</clipPath>
</defs>
</svg>
