<svg width="120" height="126" viewBox="0 0 120 126" fill="none" xmlns="http://www.w3.org/2000/svg">
<path d="M0 65.9192C-1.66044e-07 73.7887 1.55195 81.5811 4.56723 88.8516C7.58251 96.122 12.0021 102.728 17.5736 108.293C23.1451 113.857 29.7595 118.271 37.039 121.283C44.3185 124.294 52.1207 125.844 60 125.844C67.8793 125.844 75.6815 124.294 82.961 121.283C90.2405 118.271 96.8549 113.857 102.426 108.293C107.998 102.728 112.417 96.122 115.433 88.8516C118.448 81.5811 120 73.7887 120 65.9192C120 58.0498 118.448 50.2573 115.433 42.9869C112.417 35.7164 107.998 29.1104 102.426 23.5458C96.8549 17.9812 90.2405 13.5672 82.961 10.5557C75.6815 7.54415 67.8793 5.99414 60 5.99414C52.1207 5.99414 44.3185 7.54415 37.039 10.5557C29.7595 13.5672 23.1451 17.9812 17.5736 23.5458C12.0021 29.1104 7.58251 35.7164 4.56723 42.9869C1.55195 50.2573 -1.17411e-07 58.0498 0 65.9192Z" fill="#CC5A00"/>
<path d="M2 65.9178C2 73.525 3.50021 81.0577 6.41499 88.0858C9.32976 95.1139 13.602 101.5 18.9878 106.879C24.3736 112.258 30.7675 116.525 37.8044 119.436C44.8412 122.347 52.3833 123.845 60 123.845C67.6167 123.845 75.1588 122.347 82.1956 119.436C89.2325 116.525 95.6264 112.258 101.012 106.879C106.398 101.5 110.67 95.1139 113.585 88.0858C116.5 81.0577 118 73.525 118 65.9178C118 58.3107 116.5 50.778 113.585 43.7499C110.67 36.7218 106.398 30.3359 101.012 24.9568C95.6264 19.5778 89.2325 15.3108 82.1956 12.3997C75.1588 9.48858 67.6167 7.99023 60 7.99023C52.3833 7.99023 44.8412 9.48858 37.8044 12.3997C30.7675 15.3108 24.3736 19.5778 18.9878 24.9568C13.602 30.3359 9.32976 36.7218 6.41499 43.7499C3.50021 50.778 2 58.3107 2 65.9178Z" fill="#FF7100"/>
<path d="M59.2953 25.9867C56.6669 20.3707 61.7689 12.4989 70.6918 8.40446C79.6141 4.31006 88.9782 5.5443 91.6072 11.1603L59.2953 25.9867Z" fill="#30C03F"/>
<path d="M59.2949 25.9846C61.9233 31.6006 71.2874 32.8349 80.2103 28.7404C89.1326 24.646 94.2352 16.7748 91.6068 11.1582L59.2949 25.9846Z" fill="#97CF43"/>
<path d="M38.6948 26.146C38.6948 26.5369 38.7726 26.9239 38.9236 27.2849C39.0747 27.646 39.2961 27.9741 39.5752 28.2505C39.8543 28.5268 40.1857 28.746 40.5503 28.8956C40.915 29.0452 41.3059 29.1221 41.7006 29.1221C42.0953 29.1221 42.4862 29.0452 42.8508 28.8956C43.2155 28.746 43.5469 28.5268 43.826 28.2505C44.1051 27.9741 44.3265 27.646 44.4775 27.2849C44.6286 26.9239 44.7063 26.5369 44.7063 26.146C44.7063 25.7552 44.6286 25.3682 44.4775 25.0071C44.3265 24.646 44.1051 24.318 43.826 24.0416C43.5469 23.7652 43.2155 23.546 42.8508 23.3965C42.4862 23.2469 42.0953 23.1699 41.7006 23.1699C41.3059 23.1699 40.915 23.2469 40.5503 23.3965C40.1857 23.546 39.8543 23.7652 39.5752 24.0416C39.2961 24.318 39.0747 24.646 38.9236 25.0071C38.7726 25.3682 38.6948 25.7552 38.6948 26.146Z" fill="#FFA05F"/>
<path d="M23.9399 37.8667C23.9399 38.656 24.2566 39.413 24.8203 39.9712C25.384 40.5293 26.1485 40.8428 26.9457 40.8428C27.7429 40.8428 28.5074 40.5293 29.0711 39.9712C29.6348 39.413 29.9515 38.656 29.9515 37.8667C29.9515 37.0774 29.6348 36.3204 29.0711 35.7623C28.5074 35.2042 27.7429 34.8906 26.9457 34.8906C26.1485 34.8906 25.384 35.2042 24.8203 35.7623C24.2566 36.3204 23.9399 37.0774 23.9399 37.8667Z" fill="#FFA05F"/>
<path d="M86.103 33.7671C86.103 34.5564 86.4197 35.3134 86.9834 35.8716C87.5471 36.4297 88.3116 36.7432 89.1088 36.7432C89.906 36.7432 90.6705 36.4297 91.2342 35.8716C91.7979 35.3134 92.1145 34.5564 92.1145 33.7671C92.1145 32.9778 91.7979 32.2208 91.2342 31.6627C90.6705 31.1046 89.906 30.791 89.1088 30.791C88.3116 30.791 87.5471 31.1046 86.9834 31.6627C86.4197 32.2208 86.103 32.9778 86.103 33.7671Z" fill="#FFA05F"/>
<path d="M100.858 47.2476C100.858 48.0369 101.175 48.7939 101.738 49.352C102.302 49.9102 103.066 50.2237 103.864 50.2237C104.661 50.2237 105.425 49.9102 105.989 49.352C106.553 48.7939 106.869 48.0369 106.869 47.2476C106.869 46.4583 106.553 45.7013 105.989 45.1432C105.425 44.585 104.661 44.2715 103.864 44.2715C103.066 44.2715 102.302 44.585 101.738 45.1432C101.175 45.7013 100.858 46.4583 100.858 47.2476Z" fill="#FFA05F"/>
<path d="M89.1089 53.1109C89.1089 53.9002 89.4256 54.6572 89.9893 55.2153C90.5529 55.7734 91.3175 56.087 92.1146 56.087C92.9118 56.087 93.6764 55.7734 94.24 55.2153C94.8037 54.6572 95.1204 53.9002 95.1204 53.1109C95.1204 52.3216 94.8037 51.5646 94.24 51.0064C93.6764 50.4483 92.9118 50.1348 92.1146 50.1348C91.3175 50.1348 90.5529 50.4483 89.9893 51.0064C89.4256 51.5646 89.1089 52.3216 89.1089 53.1109Z" fill="#FFA05F"/>
<path d="M71.894 42.0191C71.894 42.8084 72.2107 43.5654 72.7744 44.1235C73.3381 44.6816 74.1026 44.9952 74.8998 44.9952C75.697 44.9952 76.4615 44.6816 77.0252 44.1235C77.5889 43.5654 77.9056 42.8084 77.9056 42.0191C77.9056 41.2298 77.5889 40.4728 77.0252 39.9147C76.4615 39.3565 75.697 39.043 74.8998 39.043C74.1026 39.043 73.3381 39.3565 72.7744 39.9147C72.2107 40.4728 71.894 41.2298 71.894 42.0191Z" fill="#FFA05F"/>
<path d="M103.226 69.523C103.226 70.3123 103.543 71.0693 104.106 71.6274C104.67 72.1855 105.435 72.4991 106.232 72.4991C107.029 72.4991 107.794 72.1855 108.357 71.6274C108.921 71.0693 109.238 70.3123 109.238 69.523C109.238 68.7337 108.921 67.9767 108.357 67.4186C107.794 66.8604 107.029 66.5469 106.232 66.5469C105.435 66.5469 104.67 66.8604 104.106 67.4186C103.543 67.9767 103.226 68.7337 103.226 69.523Z" fill="#FFA05F"/>
<path d="M58.6899 26.6296C58.6899 26.6296 55.1962 4.83508 57.6418 2.41361C60.0874 -0.00786279 61.9507 0.882394 62.883 1.72176C64.8049 3.45138 60.7868 21.7867 60.7868 24.2081C60.7868 26.6296 59.7387 29.0511 58.6899 26.6296Z" fill="#5A4530"/>
<path d="M53.1426 26.2912C53.1426 26.2912 57.361 25.6316 60.0252 26.2912C62.6894 26.9509 62.9113 27.1705 63.3556 27.8302C63.7993 28.4898 60.2477 28.2695 60.2477 28.2695C60.2477 28.2695 57.8054 27.6099 56.2518 27.6099H53.5876C53.5876 27.6099 51.8108 26.9509 53.1426 26.2912Z" fill="#5A4530"/>
</svg>
