<svg width="20" height="20" viewBox="0 0 20 20" fill="none" xmlns="http://www.w3.org/2000/svg">
<path fill-rule="evenodd" clip-rule="evenodd" d="M0 13.9825V7.4349H3.78684L8.75017 2.85156V18.5658L3.78684 13.9825H0Z" fill="white"/>
<path fill-rule="evenodd" clip-rule="evenodd" d="M16.2351 0C18.5771 2.62478 20.0001 6.08446 20.0001 9.8759C20.0001 13.7881 18.485 17.347 16.0086 20L15 19.3351C17.3595 16.8798 18.8096 13.5469 18.8096 9.8759C18.8096 6.32591 17.4536 3.09207 15.2304 0.662324L16.2351 0V0Z" fill="white"/>
<path fill-rule="evenodd" clip-rule="evenodd" d="M13.6083 2.85156C15.2379 4.63745 16.2491 7.1268 16.2491 9.88033C16.2491 12.7532 15.1484 15.3385 13.393 17.1373L12.499 16.4769C14.1611 14.8846 15.2143 12.5201 15.2143 9.88033C15.2143 7.36082 14.2548 5.09198 12.7223 3.50608L13.6083 2.85156V2.85156Z" fill="white"/>
<path fill-rule="evenodd" clip-rule="evenodd" d="M11.036 4.28125C11.9403 5.52296 12.5 7.24215 12.5 9.14179C12.5 11.1881 11.8505 13.025 10.8204 14.2813L10 13.5958C11.0249 12.6212 11.6992 10.9662 11.6992 9.08849C11.6992 7.40034 11.1542 5.89219 10.2993 4.89667L11.036 4.28125V4.28125Z" fill="white"/>
</svg>
