<svg width="112" height="62" viewBox="0 0 112 62" fill="none" xmlns="http://www.w3.org/2000/svg">
<path d="M0.675375 61V48.4H10.8454V50.722H3.57338V53.314H7.06538C8.58938 53.314 9.74738 53.632 10.5394 54.268C11.3434 54.904 11.7454 55.828 11.7454 57.04C11.7454 58.288 11.3014 59.26 10.4134 59.956C9.52538 60.652 8.27138 61 6.65138 61H0.675375ZM3.57338 58.84H6.48938C7.23338 58.84 7.80338 58.696 8.19937 58.408C8.59538 58.108 8.79338 57.676 8.79338 57.112C8.79338 56.008 8.02538 55.456 6.48938 55.456H3.57338V58.84ZM12.4721 61L18.0881 48.4H20.9681L26.6021 61H23.5421L18.9341 49.876H20.0861L15.4601 61H12.4721ZM15.2801 58.3L16.0541 56.086H22.5341L23.3261 58.3H15.2801ZM36.913 48.4H39.829V61H36.913V48.4ZM31.189 61H28.273V48.4H31.189V61ZM37.129 55.834H30.973V53.368H37.129V55.834ZM51.1399 61L47.2159 54.934L49.5739 53.512L54.4519 61H51.1399ZM42.9499 61V48.4H45.8479V61H42.9499ZM45.0019 55.924V53.494H49.3939V55.924H45.0019ZM49.8439 55.024L47.1619 54.7L51.2479 48.4H54.3259L49.8439 55.024ZM61.7952 61.216C60.7992 61.216 59.8752 61.054 59.0232 60.73C58.1832 60.406 57.4512 59.95 56.8272 59.362C56.2152 58.774 55.7352 58.084 55.3872 57.292C55.0512 56.5 54.8832 55.636 54.8832 54.7C54.8832 53.764 55.0512 52.9 55.3872 52.108C55.7352 51.316 56.2212 50.626 56.8452 50.038C57.4692 49.45 58.2012 48.994 59.0412 48.67C59.8812 48.346 60.7932 48.184 61.7772 48.184C62.7732 48.184 63.6852 48.346 64.5132 48.67C65.3532 48.994 66.0792 49.45 66.6912 50.038C67.3152 50.626 67.8012 51.316 68.1492 52.108C68.4972 52.888 68.6712 53.752 68.6712 54.7C68.6712 55.636 68.4972 56.506 68.1492 57.31C67.8012 58.102 67.3152 58.792 66.6912 59.38C66.0792 59.956 65.3532 60.406 64.5132 60.73C63.6852 61.054 62.7792 61.216 61.7952 61.216ZM61.7772 58.732C62.3412 58.732 62.8572 58.636 63.3252 58.444C63.8052 58.252 64.2252 57.976 64.5852 57.616C64.9452 57.256 65.2212 56.83 65.4132 56.338C65.6172 55.846 65.7192 55.3 65.7192 54.7C65.7192 54.1 65.6172 53.554 65.4132 53.062C65.2212 52.57 64.9452 52.144 64.5852 51.784C64.2372 51.424 63.8232 51.148 63.3432 50.956C62.8632 50.764 62.3412 50.668 61.7772 50.668C61.2132 50.668 60.6912 50.764 60.2112 50.956C59.7432 51.148 59.3292 51.424 58.9692 51.784C58.6092 52.144 58.3272 52.57 58.1232 53.062C57.9312 53.554 57.8352 54.1 57.8352 54.7C57.8352 55.288 57.9312 55.834 58.1232 56.338C58.3272 56.83 58.6032 57.256 58.9512 57.616C59.3112 57.976 59.7312 58.252 60.2112 58.444C60.6912 58.636 61.2132 58.732 61.7772 58.732ZM70.9176 61V48.4H73.3296L78.6936 57.292H77.4156L82.6896 48.4H85.1016L85.1196 61H82.3836L82.3656 52.594H82.8876L78.6576 59.668H77.3616L73.0416 52.594H73.6536V61H70.9176ZM86.8276 61L92.4436 48.4H95.3236L100.958 61H97.8976L93.2896 49.876H94.4416L89.8156 61H86.8276ZM89.6356 58.3L90.4096 56.086H96.8896L97.6816 58.3H89.6356ZM104.714 61V50.11L105.38 50.776H100.7V48.4H111.626V50.776H106.946L107.594 50.11V61H104.714Z" fill="white"/>
<path d="M69.7593 0.204102H41.2407C39.451 0.204102 38 1.65498 38 3.44487V6.28269H73V3.44487C73 1.65498 71.5491 0.204102 69.7593 0.204102Z" fill="white"/>
<path d="M38 19.5559C38 21.3457 39.451 22.7966 41.2407 22.7966H69.7593C71.549 22.7966 73 21.3457 73 19.5559V9.72461H38V19.5559ZM62.0024 13.106C62.6641 13.106 63.2738 13.3275 63.7622 13.7002C64.2507 13.3276 64.8602 13.106 65.5221 13.106C67.1264 13.106 68.4271 14.4065 68.4271 16.0109C68.4271 17.6153 67.1264 18.9159 65.5221 18.9159C64.8604 18.9159 64.2507 18.6943 63.7622 18.3217C63.2738 18.6941 62.6642 18.9159 62.0024 18.9159C60.398 18.9159 59.0974 17.6153 59.0974 16.0109C59.0973 14.4065 60.398 13.106 62.0024 13.106ZM42.7106 17.0759C42.7106 16.8341 42.9066 16.6382 43.1482 16.6382H49.8932C50.1348 16.6382 50.3307 16.8341 50.3307 17.0759V18.4066C50.3307 18.6481 50.1348 18.844 49.8932 18.844H43.1482C42.9066 18.844 42.7106 18.6481 42.7106 18.4066V17.0759Z" fill="white"/>
</svg>