<svg width="16" height="16" viewBox="0 0 16 16" fill="none" xmlns="http://www.w3.org/2000/svg">
<path d="M15.3822 6.97902C15.9793 6.97902 16.2286 6.16876 15.7436 5.79527L8.36327 0.125518C8.25787 0.0439656 8.13061 0 7.99995 0C7.8693 0 7.74204 0.0439656 7.63664 0.125518L0.25634 5.79527C-0.228723 6.16672 0.0205723 6.97902 0.619654 6.97902H1.81588V14.6122H0.424469C0.339438 14.6122 0.269868 14.6856 0.269868 14.7754V15.8367C0.269868 15.9265 0.339438 16 0.424469 16H15.5754C15.6605 16 15.73 15.9265 15.73 15.8367V14.7754C15.73 14.6856 15.6605 14.6122 15.5754 14.6122H14.184V6.97902H15.3822ZM7.99995 1.56439L13.239 5.58913H2.76089L7.99995 1.56439ZM3.2073 6.97902H5.46835V14.6122H3.2073V6.97902ZM6.85977 6.97902H9.12082V14.6122H6.85977V6.97902ZM12.7926 14.6122H10.5122V6.97902H12.7926V14.6122Z" fill="white"/>
</svg>
