<svg width="16" height="16" viewBox="0 0 16 16" fill="none" xmlns="http://www.w3.org/2000/svg">
<path fill-rule="evenodd" clip-rule="evenodd" d="M13.8182 2.65076H13.0909V2.22062C13.0896 1.52379 12.7682 0.867842 12.2226 0.448348C11.6769 0.028853 10.97 -0.105723 10.3127 0.0847448L1.98545 2.50986C1.86265 2.54899 1.75223 2.62065 1.66545 2.71751C0.689208 2.96 0.00159884 3.85102 0 4.87564V13.7751C0 15.0039 0.976833 16 2.18182 16H13.8182C15.0232 16 16 15.0039 16 13.7751V4.87564C16 3.64687 15.0232 2.65076 13.8182 2.65076ZM10.7133 1.5087C10.937 1.44453 11.1774 1.49332 11.36 1.63996C11.5427 1.78661 11.6456 2.01345 11.6369 2.25033V2.68047H6.8078L10.7133 1.5087ZM14.545 10.0669H12.3632C11.9615 10.0669 11.6359 9.7349 11.6359 9.32532C11.6359 8.91573 11.9615 8.58369 12.3632 8.58369H14.545V10.0669ZM14.5448 7.10041H12.4721C11.3916 7.07226 10.4446 7.83241 10.2176 8.90997C10.0962 9.56148 10.2661 10.2342 10.681 10.7449C11.096 11.2555 11.7127 11.5508 12.363 11.5502H14.5448V13.775C14.5448 14.1846 14.2192 14.5166 13.8176 14.5166H2.18119C1.77953 14.5166 1.45392 14.1846 1.45392 13.775V4.87554C1.45392 4.46595 1.77953 4.13391 2.18119 4.13391H13.8176C14.2192 4.13391 14.5448 4.46595 14.5448 4.87554V7.10041Z" fill="white"/>
</svg>
