<svg width="23" height="35" viewBox="0 0 23 35" fill="none" xmlns="http://www.w3.org/2000/svg">
<path d="M2.95876 15.2849H20.0412C20.7791 15.2849 21.4553 14.8729 21.7934 14.2169C22.1317 13.5613 22.0753 12.7713 21.6475 12.1701L13.8482 1.21107C13.3075 0.451475 12.4324 0 11.4999 0C10.5674 0 9.6923 0.451334 9.15154 1.21107L1.3524 12.1701C0.924586 12.7714 0.868257 13.5613 1.20651 14.2169C1.54462 14.8729 2.22085 15.2849 2.95876 15.2849Z" fill="white"/>
<path d="M20.0412 19.7148H2.95876C2.22085 19.7148 1.54462 20.1269 1.20651 20.7828C0.868257 21.4385 0.924586 22.2285 1.3524 22.8297L9.15168 33.7887C9.69244 34.5485 10.5675 34.9998 11.5 34.9998C12.4325 34.9998 13.3076 34.5485 13.8484 33.7887L21.6476 22.8297C22.0755 22.2284 22.1318 21.4385 21.7935 20.7828C21.4553 20.1269 20.7791 19.7148 20.0412 19.7148Z" fill="white"/>
</svg>