<svg width="25" height="15" viewBox="0 0 25 15" fill="none" xmlns="http://www.w3.org/2000/svg">
<path d="M22.5 4.97256e-08H8.01792C7.68956 -6.54544e-05 7.3644 0.0645866 7.06104 0.19026C6.75768 0.315934 6.48207 0.500166 6.24995 0.732422L0.365967 6.61601C-0.122314 7.1043 -0.122314 7.8957 0.365967 8.38359L6.24995 14.2676C6.7187 14.7363 7.35464 15 8.01753 15H22.5C23.8808 15 25 13.8809 25 12.5V2.5C25 1.11914 23.8808 4.97256e-08 22.5 4.97256e-08ZM19.1917 9.92422C19.4359 10.1684 19.4359 10.5641 19.1917 10.8082L18.3082 11.6918C18.064 11.9359 17.6683 11.9359 17.4242 11.6918L15 9.26758L12.5757 11.6918C12.3316 11.9359 11.9359 11.9359 11.6917 11.6918L10.8082 10.8082C10.564 10.5641 10.564 10.1684 10.8082 9.92422L13.2324 7.5L10.8082 5.07578C10.564 4.83164 10.564 4.43594 10.8082 4.1918L11.6917 3.3082C11.9359 3.06406 12.3316 3.06406 12.5757 3.3082L15 5.73242L17.4242 3.3082C17.6683 3.06406 18.064 3.06406 18.3082 3.3082L19.1917 4.1918C19.4359 4.43594 19.4359 4.83164 19.1917 5.07578L16.7675 7.5L19.1917 9.92422Z" fill="white"/>
</svg>