<svg width="35" height="35" viewBox="0 0 35 35" fill="none" xmlns="http://www.w3.org/2000/svg">
<g clip-path="url(#clip0_111_246)">
<path d="M34.3298 7.3017L31.4661 0.938008C31.2093 0.367079 30.6414 0 30.0154 0H4.98489C4.35881 0 3.79096 0.367079 3.53408 0.938008L0.670416 7.3017C0.448853 7.79404 0.492127 8.36497 0.785175 8.81838C1.07822 9.2718 1.58138 9.54554 2.12123 9.54554V33.4091C2.12123 34.2877 2.83354 35 3.71216 35H10.0758H24.9245H31.2882C32.1668 35 32.8791 34.2877 32.8791 33.4091V9.54554C33.4189 9.54554 33.9219 9.27169 34.215 8.81838C34.5082 8.36508 34.5514 7.79393 34.3298 7.3017ZM6.01348 3.18185H28.9867L30.4185 6.36348H4.58175L6.01348 3.18185ZM11.6668 22.2726H23.3335V25.4545H11.6668V22.2726ZM23.3335 19.0908H11.6668V15.909H23.3335V19.0908ZM11.6668 31.8182V28.6363H23.3335V31.8182H11.6668ZM29.6972 31.8182H26.5154V14.3181C26.5154 13.4395 25.8031 12.7272 24.9245 12.7272H10.0758C9.19724 12.7272 8.48493 13.4395 8.48493 14.3181V31.8182H5.30308V9.54554H29.6972V31.8182Z" fill="white"/>
</g>
<defs>
<clipPath id="clip0_111_246">
<rect width="35" height="35" fill="white"/>
</clipPath>
</defs>
</svg>
