<svg width="35" height="35" viewBox="0 0 35 35" fill="none" xmlns="http://www.w3.org/2000/svg">
<path d="M27.9773 5.27777C27.9361 5.03101 27.8426 4.79593 27.7029 4.58838C27.5632 4.38084 27.3807 4.20565 27.1676 4.07463C26.9545 3.94361 26.7157 3.85981 26.4675 3.82887C26.2193 3.79793 25.9673 3.82057 25.7285 3.89527L13.4785 7.72252C13.1223 7.83372 12.811 8.05586 12.59 8.35652C12.369 8.65718 12.2498 9.02062 12.25 9.39377V23.6248C11.4616 23.0334 10.4966 22.7256 9.51133 22.7512C8.52611 22.7769 7.5784 23.1344 6.82174 23.7659C6.06507 24.3973 5.5438 25.2658 5.34236 26.2306C5.14093 27.1953 5.27113 28.1998 5.71189 29.0813C6.15264 29.9628 6.87812 30.6697 7.77078 31.0874C8.66344 31.5051 9.67098 31.6092 10.6302 31.3827C11.5894 31.1563 12.444 30.6126 13.0556 29.8398C13.6672 29.067 14 28.1103 14 27.1248V14.6438L26.25 10.8148V15.79C26.8503 15.8425 27.4365 15.9528 28 16.112V5.56477C28 5.46677 27.9913 5.37227 27.9773 5.27777ZM33.25 25.3748C33.25 27.4633 32.4203 29.4664 30.9435 30.9432C29.4666 32.4201 27.4636 33.2498 25.375 33.2498C23.2864 33.2498 21.2834 32.4201 19.8065 30.9432C18.3297 29.4664 17.5 27.4633 17.5 25.3748C17.5 23.2862 18.3297 21.2832 19.8065 19.8063C21.2834 18.3295 23.2864 17.4998 25.375 17.4998C27.4636 17.4998 29.4666 18.3295 30.9435 19.8063C32.4203 21.2832 33.25 23.2862 33.25 25.3748ZM29.2898 24.6135L24.0503 21.726C23.9171 21.6524 23.7671 21.6147 23.6149 21.6168C23.4628 21.6188 23.3138 21.6605 23.1827 21.7377C23.0516 21.815 22.9429 21.925 22.8673 22.0571C22.7918 22.1891 22.7519 22.3386 22.7518 22.4908V28.2658C22.7516 28.4181 22.7912 28.5678 22.8667 28.7001C22.9421 28.8324 23.0508 28.9427 23.182 29.0201C23.3131 29.0975 23.4622 29.1394 23.6145 29.1415C23.7668 29.1436 23.917 29.106 24.0503 29.0323L29.2898 26.1448C29.4265 26.0691 29.5405 25.9582 29.6199 25.8235C29.6993 25.6889 29.7411 25.5354 29.7411 25.3791C29.7411 25.2228 29.6993 25.0694 29.6199 24.9348C29.5405 24.8001 29.4265 24.6892 29.2898 24.6135Z" fill="white"/>
</svg>
