<svg width="450" height="620" viewBox="0 0 450 620" fill="none" xmlns="http://www.w3.org/2000/svg">
<path fill-rule="evenodd" clip-rule="evenodd" d="M0 0H450V620H0V0ZM33 35.5C33 42.4036 27.4036 48 20.5 48C13.5964 48 8 42.4036 8 35.5C8 28.5964 13.5964 23 20.5 23C27.4036 23 33 28.5964 33 35.5ZM20.5 98C27.4036 98 33 92.4036 33 85.5C33 78.5964 27.4036 73 20.5 73C13.5964 73 8 78.5964 8 85.5C8 92.4036 13.5964 98 20.5 98ZM33 135.5C33 142.404 27.4036 148 20.5 148C13.5964 148 8 142.404 8 135.5C8 128.596 13.5964 123 20.5 123C27.4036 123 33 128.596 33 135.5ZM20.5 198C27.4036 198 33 192.404 33 185.5C33 178.596 27.4036 173 20.5 173C13.5964 173 8 178.596 8 185.5C8 192.404 13.5964 198 20.5 198ZM33 235.5C33 242.404 27.4036 248 20.5 248C13.5964 248 8 242.404 8 235.5C8 228.596 13.5964 223 20.5 223C27.4036 223 33 228.596 33 235.5ZM20.5 298C27.4036 298 33 292.404 33 285.5C33 278.596 27.4036 273 20.5 273C13.5964 273 8 278.596 8 285.5C8 292.404 13.5964 298 20.5 298ZM33 335.5C33 342.404 27.4036 348 20.5 348C13.5964 348 8 342.404 8 335.5C8 328.596 13.5964 323 20.5 323C27.4036 323 33 328.596 33 335.5ZM20.5 398C27.4036 398 33 392.404 33 385.5C33 378.596 27.4036 373 20.5 373C13.5964 373 8 378.596 8 385.5C8 392.404 13.5964 398 20.5 398ZM33 435.5C33 442.404 27.4036 448 20.5 448C13.5964 448 8 442.404 8 435.5C8 428.596 13.5964 423 20.5 423C27.4036 423 33 428.596 33 435.5ZM20.5 498C27.4036 498 33 492.404 33 485.5C33 478.596 27.4036 473 20.5 473C13.5964 473 8 478.596 8 485.5C8 492.404 13.5964 498 20.5 498ZM33 535.5C33 542.404 27.4036 548 20.5 548C13.5964 548 8 542.404 8 535.5C8 528.596 13.5964 523 20.5 523C27.4036 523 33 528.596 33 535.5ZM20.5 598C27.4036 598 33 592.404 33 585.5C33 578.596 27.4036 573 20.5 573C13.5964 573 8 578.596 8 585.5C8 592.404 13.5964 598 20.5 598Z" fill="#FFEDC0"/>
<line x1="42.5" y1="620" x2="42.5" stroke="#FF7E7E" stroke-width="3"/>
</svg>
