<svg width="40" height="40" viewBox="0 0 40 40" fill="none" xmlns="http://www.w3.org/2000/svg">
<path fill-rule="evenodd" clip-rule="evenodd" d="M30 21.2671C29.6685 21.2671 29.3506 21.3988 29.1161 21.6332C28.8817 21.8676 28.75 22.1856 28.75 22.5171C28.75 22.8486 28.8817 23.1665 29.1161 23.401C29.3506 23.6354 29.6685 23.7671 30 23.7671C30.3315 23.7671 30.6494 23.6354 30.8839 23.401C31.1183 23.1665 31.25 22.8486 31.25 22.5171C31.25 22.1856 31.1183 21.8676 30.8839 21.6332C30.6494 21.3988 30.3315 21.2671 30 21.2671Z" fill="white"/>
<path fill-rule="evenodd" clip-rule="evenodd" d="M26.25 21.2671C25.9185 21.2671 25.6006 21.3988 25.3661 21.6332C25.1317 21.8676 25 22.1856 25 22.5171C25 22.8486 25.1317 23.1665 25.3661 23.401C25.6006 23.6354 25.9185 23.7671 26.25 23.7671C26.5815 23.7671 26.8994 23.6354 27.1339 23.401C27.3683 23.1665 27.5 22.8486 27.5 22.5171C27.5 22.1856 27.3683 21.8676 27.1339 21.6332C26.8994 21.3988 26.5815 21.2671 26.25 21.2671Z" fill="white"/>
<path fill-rule="evenodd" clip-rule="evenodd" d="M22.5 21.2671C22.1685 21.2671 21.8506 21.3988 21.6161 21.6332C21.3817 21.8676 21.25 22.1856 21.25 22.5171C21.25 22.8486 21.3817 23.1665 21.6161 23.401C21.8506 23.6354 22.1685 23.7671 22.5 23.7671C22.8315 23.7671 23.1494 23.6354 23.3839 23.401C23.6183 23.1665 23.75 22.8486 23.75 22.5171C23.75 22.1856 23.6183 21.8676 23.3839 21.6332C23.1494 21.3988 22.8315 21.2671 22.5 21.2671Z" fill="white"/>
<path fill-rule="evenodd" clip-rule="evenodd" d="M17.5 10.0171C17.1685 10.0171 16.8506 10.1488 16.6161 10.3832C16.3817 10.6176 16.25 10.9356 16.25 11.2671C16.25 11.5986 16.3817 11.9165 16.6161 12.151C16.8506 12.3854 17.1685 12.5171 17.5 12.5171C17.8315 12.5171 18.1494 12.3854 18.3839 12.151C18.6183 11.9165 18.75 11.5986 18.75 11.2671C18.75 10.9356 18.6183 10.6176 18.3839 10.3832C18.1494 10.1488 17.8315 10.0171 17.5 10.0171Z" fill="white"/>
<path fill-rule="evenodd" clip-rule="evenodd" d="M13.75 10.0171C13.4185 10.0171 13.1006 10.1488 12.8661 10.3832C12.6317 10.6176 12.5 10.9356 12.5 11.2671C12.5 11.5986 12.6317 11.9165 12.8661 12.151C13.1006 12.3854 13.4185 12.5171 13.75 12.5171C14.0815 12.5171 14.3994 12.3854 14.6339 12.151C14.8683 11.9165 15 11.5986 15 11.2671C15 10.9356 14.8683 10.6176 14.6339 10.3832C14.3994 10.1488 14.0815 10.0171 13.75 10.0171Z" fill="white"/>
<path fill-rule="evenodd" clip-rule="evenodd" d="M10 10.0171C9.66848 10.0171 9.35056 10.1488 9.11613 10.3832C8.88171 10.6176 8.75 10.9356 8.75 11.2671C8.75 11.5986 8.88171 11.9165 9.11613 12.151C9.35056 12.3854 9.66848 12.5171 10 12.5171C10.3315 12.5171 10.6494 12.3854 10.8839 12.151C11.1183 11.9165 11.25 11.5986 11.25 11.2671C11.25 10.9356 11.1183 10.6176 10.8839 10.3832C10.6494 10.1488 10.3315 10.0171 10 10.0171Z" fill="white"/>
<path fill-rule="evenodd" clip-rule="evenodd" d="M5.07324 2.51709C3.7064 2.51709 2.5 3.61426 2.5 5.01709V17.5171C2.5 18.9199 3.7064 20.0171 5.07324 20.0171H7.5V23.7671C7.5001 24.0143 7.57347 24.2558 7.71084 24.4613C7.8482 24.6668 8.04339 24.827 8.27175 24.9216C8.50011 25.0162 8.75137 25.0409 8.9938 24.9928C9.23623 24.9446 9.45895 24.8256 9.63379 24.6509L14.2676 20.0171H15V28.7671C15 30.1696 16.2064 31.2671 17.5732 31.2671H23.6743L28.3081 35.9009C28.4829 36.0756 28.7057 36.1946 28.9481 36.2428C29.1905 36.2909 29.4418 36.2662 29.6701 36.1716C29.8985 36.077 30.0937 35.9169 30.2311 35.7114C30.3684 35.5059 30.4418 35.2643 30.4419 35.0171V31.2671H34.9268C36.2936 31.2671 37.5 30.1696 37.5 28.7671V16.2671C37.5 14.8646 36.2936 13.7671 34.9268 13.7671H25V5.01709C25 3.61426 23.7936 2.51709 22.4268 2.51709H5.07324ZM5.07324 5.01709H22.4268C22.4766 5.01709 22.4941 5.0221 22.5 5.02461V17.51C22.4937 17.5125 22.4766 17.5174 22.4268 17.5174H13.75C13.4185 17.5175 13.1006 17.6492 12.8662 17.8836L10 20.7495V18.7671C9.99997 18.4356 9.86828 18.1176 9.63387 17.8832C9.39945 17.6488 9.08151 17.5171 8.75 17.5171H5.07324C5.02337 17.5171 5.00588 17.5121 5 17.5096V5.02422C5.00625 5.02172 5.02337 5.01709 5.07324 5.01709ZM25 16.2671H34.9268C34.9766 16.2671 34.9941 16.2721 35 16.2746V28.76C34.9938 28.7625 34.9766 28.7674 34.9268 28.7674H29.1919C28.8604 28.7675 28.5425 28.8992 28.3081 29.1336C28.0737 29.368 27.9419 29.6859 27.9419 30.0174V31.9999L25.0757 29.1336C24.8413 28.8992 24.5234 28.7675 24.1919 28.7674H17.5732C17.5234 28.7674 17.5059 28.7625 17.5 28.76V20.0173H22.4268C23.7936 20.0173 25 18.9201 25 17.5173V16.2671Z" fill="white"/>
</svg>
