<svg width="18" height="18" viewBox="0 0 18 18" fill="none" xmlns="http://www.w3.org/2000/svg">
<g clip-path="url(#clip0_992_261)">
<path d="M16.2377 6.91207L10.6887 6.91147L10.6884 1.76231C10.6887 0.789013 9.89934 0 8.92605 0C7.95305 0 7.16404 0.789013 7.16404 1.76231V6.91177L1.76231 6.91147C0.789013 6.91177 0 7.70078 0 8.67378C0.000596382 9.64707 0.789013 10.4358 1.76231 10.4358H7.16404V16.2377C7.16404 17.2119 7.95305 18 8.92635 18C9.89964 18 10.6884 17.211 10.6887 16.2383V10.4358H16.2383C17.211 10.4358 18 9.64707 18 8.67438C18.0009 7.70048 17.211 6.91147 16.2377 6.91207Z" fill="white"/>
</g>
<defs>
<clipPath id="clip0_992_261">
<rect width="18" height="18" fill="white"/>
</clipPath>
</defs>
</svg>
