<svg width="25" height="25" viewBox="0 0 25 25" fill="none" xmlns="http://www.w3.org/2000/svg">
<path fill-rule="evenodd" clip-rule="evenodd" d="M2.00496 10.0969C0.553365 7.46523 0 5.34362 0 3.91061C0 2.47761 0.352077 2.06661 0.709338 1.73457C1.0666 1.40254 2.6776 0.409303 2.95209 0.224069C3.22658 0.0388348 4.27421 -0.321148 4.93119 0.623934C5.58818 1.56902 6.82536 3.46655 7.67832 4.7271C9.01678 6.51258 7.95046 7.29638 7.60603 7.76616C6.97224 8.63063 6.6073 8.84384 6.6073 9.90533C6.6073 10.9668 9.57385 13.9825 10.2832 14.7256C10.9871 15.463 13.9431 18.0542 14.859 18.1928C15.7814 18.3323 17.0162 17.3558 17.2787 17.1082C18.6143 16.0828 19.3682 16.8602 19.9833 17.1981C20.5985 17.536 23.378 19.268 24.2394 19.8518C25.05 20.4356 24.9994 21.3379 24.9994 21.3379C24.9994 21.3379 24.4226 23.0216 23.1247 24.31C22.8056 24.6268 22.2634 25 20.8953 25C19.5273 25 18.0657 24.7501 14.592 22.8398C11.7497 21.2766 9.04017 18.8288 7.62149 17.3958C6.15215 15.9628 3.66309 13.1031 2.00496 10.0969Z" fill="#868686"/>
</svg>
