<svg width="25" height="25" viewBox="0 0 25 25" fill="none" xmlns="http://www.w3.org/2000/svg">
<g clip-path="url(#clip0_1026_155)">
<path d="M7.29048 3.00371V0L6.8356 0.454883L0.547607 6.74326L0.0927734 7.19775H3.09731C5.40918 7.19775 7.29048 5.31641 7.29048 3.00371Z" fill="#868686"/>
<path d="M24.4416 21.0388C24.4416 21.0388 22.5356 19.3718 22.0796 18.9169C21.4104 18.2509 21.1433 17.93 21.3791 17.389C22.4122 15.282 22.0549 12.6666 20.3025 10.9145C18.0992 8.71079 14.5258 8.71079 12.3224 10.9145C10.1191 13.1187 10.1191 16.6909 12.3224 18.8946C14.0741 20.6462 16.6911 21.0035 18.7965 19.9708C19.3379 19.7349 19.6592 20.0021 20.3248 20.6716C20.7801 21.1273 22.4467 23.0333 22.4467 23.0333C23.311 23.8975 23.9758 23.3663 24.3758 22.967C24.7743 22.5679 25.3059 21.903 24.4416 21.0388ZM18.623 17.2146C17.347 18.4899 15.2784 18.4899 14.002 17.2146C12.7267 15.939 12.7267 13.8697 14.002 12.5948C15.2784 11.3192 17.347 11.3192 18.623 12.5948C19.8982 13.8697 19.8982 15.939 18.623 17.2146Z" fill="#868686"/>
<path d="M19.0124 21.6292C18.1575 21.9711 17.2337 22.1502 16.3103 22.1502C14.375 22.1502 12.5559 21.3968 11.1878 20.0287C8.36274 17.2032 8.36274 12.6054 11.1875 9.77949C12.5563 8.41064 14.3765 7.65645 16.3123 7.65645C17.8077 7.65645 19.2314 8.11089 20.4341 8.94653V4.19395C20.4341 1.88135 18.5524 0 16.2406 0H8.89517V3.00371C8.89517 6.20103 6.29419 8.80244 3.09731 8.80244H0.0927734V20.806C0.0927734 23.1187 1.97412 25 4.28711 25H16.2406C17.8801 25 19.2996 24.0515 19.9887 22.6764C19.6365 22.283 19.3278 21.9441 19.1895 21.8055C19.1522 21.7678 19.0849 21.7001 19.0124 21.6292Z" fill="#868686"/>
</g>
<defs>
<clipPath id="clip0_1026_155">
<rect width="25" height="25" fill="white"/>
</clipPath>
</defs>
</svg>
