<svg width="25" height="25" viewBox="0 0 25 25" fill="none" xmlns="http://www.w3.org/2000/svg">
<g clip-path="url(#clip0_1026_164)">
<path d="M12.5 2.08398C14.2847 2.08391 16.0324 2.59327 17.5376 3.5522C19.0428 4.51113 20.243 5.87979 20.9972 7.49733C21.7514 9.11486 22.0282 10.9141 21.7951 12.6835C21.562 14.4529 20.8286 16.119 19.6813 17.4861C20.9886 18.3506 21.799 19.4548 21.8698 20.6621L21.875 20.834L12.5 22.9173L3.12501 20.834L3.13022 20.6621C3.20001 19.4538 4.01147 18.3496 5.31772 17.485C3.89845 15.7981 3.12172 13.6635 3.12501 11.459C3.12501 8.97258 4.11273 6.58801 5.87088 4.82986C7.62904 3.0717 10.0136 2.08398 12.5 2.08398ZM12.5 4.16732C10.5661 4.16732 8.71148 4.93554 7.34402 6.303C5.97657 7.67045 5.20834 9.52511 5.20834 11.459C5.20834 13.0913 5.74376 14.6361 6.71355 15.8975L6.91355 16.1465L8.41668 17.935L6.37293 19.2882L6.23022 19.3892L12.5 20.7829L18.7688 19.3892L18.7177 19.3517L18.5323 19.2236L16.5833 17.935L18.0865 16.1454C19.1909 14.8339 19.7951 13.1736 19.7917 11.459C19.7917 9.52511 19.0234 7.67045 17.656 6.303C16.2885 4.93554 14.4339 4.16732 12.5 4.16732ZM12.5 13.5423C13.9375 13.5423 15.1042 14.2423 15.1042 15.1048C15.1042 15.9673 13.9375 16.6673 12.5 16.6673C11.0625 16.6673 9.89584 15.9673 9.89584 15.1048C9.89584 14.2423 11.0625 13.5423 12.5 13.5423ZM9.37501 8.33398C10.5261 8.33398 11.4583 9.03398 11.4583 9.89648C11.4583 10.759 10.5261 11.459 9.37501 11.459C8.22397 11.459 7.29168 10.759 7.29168 9.89648C7.29168 9.03398 8.22397 8.33398 9.37501 8.33398ZM15.625 8.33398C16.7761 8.33398 17.7083 9.03398 17.7083 9.89648C17.7083 10.759 16.7761 11.459 15.625 11.459C14.474 11.459 13.5417 10.759 13.5417 9.89648C13.5417 9.03398 14.474 8.33398 15.625 8.33398Z" fill="#868686"/>
</g>
<defs>
<clipPath id="clip0_1026_164">
<rect width="25" height="25" fill="white"/>
</clipPath>
</defs>
</svg>
