<svg width="25" height="25" viewBox="0 0 25 25" fill="none" xmlns="http://www.w3.org/2000/svg">
<path fill-rule="evenodd" clip-rule="evenodd" d="M4.77474 7.7257C4.77474 3.45892 8.23365 0 12.5005 0C16.7672 0 20.2261 3.45892 20.2261 7.7257V8.68056C20.2261 10.9728 20.5373 13.0049 21.0117 14.4278C21.2507 15.1448 21.5122 15.6498 21.7521 15.9542C21.9297 16.1796 22.0358 16.2251 22.0601 16.2327C22.6303 16.2386 23.0907 16.7027 23.0907 17.2743V17.4914C23.0907 18.0667 22.6243 18.533 22.049 18.533H2.95182C2.37652 18.533 1.91016 18.0667 1.91016 17.4914V17.2743C1.91016 16.7027 2.37058 16.2386 2.9408 16.2327C2.96511 16.2251 3.07109 16.1796 3.24871 15.9542C3.4886 15.6498 3.7502 15.1448 3.98918 14.4278C4.46349 13.0049 4.77474 10.9728 4.77474 8.68056V7.7257ZM2.93541 16.2341L2.93822 16.2334L2.93657 16.2339L2.93541 16.2341Z" fill="#868686"/>
<path d="M9.63542 20.3125C9.24214 20.3125 8.88239 20.534 8.70532 20.8851C8.52824 21.2364 8.56404 21.6573 8.79785 21.9734C9.66464 23.1457 10.974 23.9583 12.5 23.9583C14.0259 23.9583 15.3354 23.1457 16.2022 21.9734C16.436 21.6573 16.4717 21.2364 16.2947 20.8851C16.1176 20.534 15.7579 20.3125 15.3646 20.3125H9.63542Z" fill="#868686"/>
</svg>
