<svg width="35" height="35" viewBox="0 0 35 35" fill="none" xmlns="http://www.w3.org/2000/svg">
<g clip-path="url(#clip0_1044_308)">
<path d="M34.0587 8.84407V7.21324C34.0587 6.52052 33.5387 6.02148 32.846 6.02148H24.6501V11.0364L17.5625 15.9099L10.4745 11.0364V6.02148H2.23668C1.54396 6.02148 0.94043 6.52052 0.94043 7.21324V8.84407C0.94043 9.45098 1.44222 9.95704 1.94401 10.0733V30.8227C1.44222 30.939 0.94043 31.445 0.94043 32.052V33.6828C0.94043 34.3755 1.54396 35 2.23668 35H32.846C33.5387 35 34.0587 34.3755 34.0587 33.6828V32.052C34.0587 31.4015 33.5569 30.8668 32.9297 30.8039V10.0921C33.5569 10.0292 34.0587 9.49451 34.0587 8.84407ZM30.9225 20.5735V30.8602H28.7899V20.5735H30.9225ZM26.7827 20.5735V30.8602H24.6501V20.5735H26.7827ZM22.6429 20.5735V30.8602H20.5103V20.5735H22.6429ZM18.5032 20.5735V30.8602H16.3705V20.5735H18.5032ZM14.3634 20.5735V30.8602H12.2308V20.5735H14.3634ZM3.95118 20.5735H6.0838V30.8602H3.95118V20.5735ZM8.09097 20.5735H10.2236V30.8602H8.09097V20.5735Z" fill="white"/>
<path d="M12.3564 10.0486L17.5628 13.6237L22.7686 10.0486V1.09077C22.7686 0.397545 22.2676 0 21.5744 0H13.6837C12.9903 0 12.3564 0.397545 12.3564 1.09077V10.0486ZM14.3381 5.16131L16.533 4.81407L17.5417 2.83362L18.5498 4.81407L20.745 5.16131L19.173 6.73204L19.5213 8.92713L17.5417 7.9174L15.5615 8.92713L15.9101 6.73204L14.3381 5.16131Z" fill="white"/>
</g>
<defs>
<clipPath id="clip0_1044_308">
<rect width="35" height="35" fill="white"/>
</clipPath>
</defs>
</svg>
