<svg width="35" height="35" viewBox="0 0 35 35" fill="none" xmlns="http://www.w3.org/2000/svg">
<g clip-path="url(#clip0_1027_482)">
<path d="M25.9432 11.867H5.21808L9.45834 7.6267C10.0552 7.02981 10.0552 6.06221 9.45834 5.46531C8.86127 4.86825 7.89384 4.86842 7.29678 5.46531L0.447672 12.3148C-0.149224 12.9117 -0.149224 13.8793 0.447672 14.4761L7.29678 21.3253C7.59531 21.6238 7.98639 21.7729 8.37747 21.7729C8.76855 21.7729 9.15963 21.6236 9.45817 21.3253C10.0551 20.7284 10.0551 19.7608 9.45817 19.1639L5.21791 14.9236H25.943C29.2515 14.9236 31.9432 17.6153 31.9432 20.9238C31.9432 24.2323 29.2515 26.924 25.943 26.924H13.3357C12.4916 26.924 11.8074 27.6082 11.8074 28.4523C11.8074 29.2965 12.4916 29.9807 13.3357 29.9807H25.943C30.9369 29.9807 34.9999 25.9177 34.9999 20.9238C34.9999 15.9299 30.9371 11.867 25.9432 11.867Z" fill="white"/>
</g>
<defs>
<clipPath id="clip0_1027_482">
<rect width="35" height="35" fill="white"/>
</clipPath>
</defs>
</svg>
