<svg width="15" height="15" viewBox="0 0 15 15" fill="none" xmlns="http://www.w3.org/2000/svg">
<path fill-rule="evenodd" clip-rule="evenodd" d="M6.06694 5.18306C5.82286 4.93898 5.42714 4.93898 5.18306 5.18306C4.93898 5.42714 4.93898 5.82286 5.18306 6.06694L6.61612 7.5L5.18306 8.93306C4.93898 9.17712 4.93898 9.57287 5.18306 9.81694C5.42714 10.061 5.82286 10.061 6.06694 9.81694L7.5 8.38387L8.93306 9.81694C9.17712 10.061 9.57287 10.061 9.81694 9.81694C10.061 9.57287 10.061 9.17712 9.81694 8.93306L8.38387 7.5L9.81694 6.06694C10.061 5.82286 10.061 5.42714 9.81694 5.18306C9.57287 4.93898 9.17712 4.93898 8.93306 5.18306L7.5 6.61612L6.06694 5.18306ZM4.53129 1.49239C5.34299 1.312 6.32769 1.25 7.5 1.25C8.67231 1.25 9.657 1.312 10.4687 1.49239C11.2875 1.67436 11.968 1.985 12.4915 2.50849C13.015 3.03197 13.3256 3.71251 13.5076 4.53129C13.688 5.34299 13.75 6.32769 13.75 7.5C13.75 8.67231 13.688 9.657 13.5076 10.4687C13.3256 11.2875 13.015 11.968 12.4915 12.4915C11.968 13.015 11.2875 13.3256 10.4687 13.5076C9.657 13.688 8.67231 13.75 7.5 13.75C6.32769 13.75 5.34299 13.688 4.53129 13.5076C3.71251 13.3256 3.03197 13.015 2.50849 12.4915C1.985 11.968 1.67436 11.2875 1.49239 10.4687C1.312 9.657 1.25 8.67231 1.25 7.5C1.25 6.32769 1.312 5.34299 1.49239 4.53129C1.67436 3.71251 1.985 3.03197 2.50849 2.50849C3.03197 1.985 3.71251 1.67436 4.53129 1.49239Z" fill="white"/>
</svg>
