<svg width="35" height="35" viewBox="0 0 35 35" fill="none" xmlns="http://www.w3.org/2000/svg">
<g clip-path="url(#clip0_1044_465)">
<path d="M20.7812 29.8347V29.5315C20.7812 27.1191 18.8182 25.1562 16.4058 25.1562H5.46803C3.05561 25.1562 1.09355 27.1191 1.09355 29.5315V29.8352C-0.000205097 30.2143 0 30.9115 0 31.7189C0 32.9269 0.979185 33.9062 2.18724 33.9062H19.6877C20.8957 33.9062 21.8754 32.9269 21.8754 31.7189C21.8753 30.9111 21.8749 30.2136 20.7812 29.8347Z" fill="white"/>
<path d="M32.8127 8.75004H15.3126V6.56233C16.4063 6.56233 17.5001 5.58287 17.5001 4.37475V3.28099C17.5001 2.07294 16.5203 1.09375 15.3122 1.09375H6.56197C5.35391 1.09375 4.375 2.07294 4.375 3.28099V4.37475C4.375 5.5828 5.46876 6.56233 6.56251 6.56233V15.3126C5.46876 15.3126 4.375 16.292 4.375 17.5002V18.5939C4.375 19.802 5.35391 20.7814 6.56197 20.7814H15.3122C16.5203 20.7814 17.5001 19.802 17.5001 18.5939V17.5002C17.5001 16.2921 16.4063 15.3126 15.3126 15.3126V13.1251H32.8127C34.0207 13.1251 35.0002 12.1457 35.0002 10.9376C35.0002 9.72957 34.0207 8.75004 32.8127 8.75004Z" fill="white"/>
</g>
<defs>
<clipPath id="clip0_1044_465">
<rect width="35" height="35" fill="white"/>
</clipPath>
</defs>
</svg>
