<svg width="15" height="15" viewBox="0 0 15 15" fill="none" xmlns="http://www.w3.org/2000/svg">
<path fill-rule="evenodd" clip-rule="evenodd" d="M13.5076 4.53129C13.688 5.34299 13.75 6.32769 13.75 7.5C13.75 8.67231 13.688 9.657 13.5076 10.4687C13.3256 11.2875 13.015 11.968 12.4915 12.4915C11.968 13.015 11.2875 13.3256 10.4687 13.5076C9.65701 13.688 8.67231 13.75 7.5 13.75C6.32769 13.75 5.343 13.688 4.53131 13.5076C3.7125 13.3256 3.032 13.015 2.5085 12.4915C1.985 11.968 1.67438 11.2875 1.49238 10.4687C1.312 9.657 1.25 8.67231 1.25 7.5C1.25 6.32769 1.312 5.34299 1.49238 4.53129C1.67438 3.71251 1.985 3.03197 2.5085 2.50849C3.032 1.985 3.7125 1.67436 4.53131 1.49239C5.343 1.312 6.32769 1.25 7.5 1.25C8.67231 1.25 9.65701 1.312 10.4687 1.49239C11.2875 1.67436 11.968 1.985 12.4915 2.50849C13.015 3.03197 13.3256 3.71251 13.5076 4.53129ZM5 6.875C4.65481 6.875 4.375 7.15481 4.375 7.5C4.375 7.84519 4.65481 8.125 5 8.125H8.49113L7.68306 8.93306C7.439 9.17712 7.439 9.57288 7.68306 9.81694C7.92712 10.061 8.32288 10.061 8.56694 9.81694L10.3875 7.99631C10.397 7.98694 10.4061 7.97731 10.4148 7.9675C10.5438 7.853 10.625 7.686 10.625 7.5C10.625 7.314 10.5438 7.147 10.4148 7.0325C10.4061 7.02269 10.397 7.01306 10.3875 7.00369L8.56694 5.18306C8.32288 4.93898 7.92712 4.93898 7.68306 5.18306C7.439 5.42714 7.439 5.82286 7.68306 6.06694L8.49113 6.875L5 6.875Z" fill="white"/>
</svg>
