<svg width="15" height="15" viewBox="0 0 15 15" fill="none" xmlns="http://www.w3.org/2000/svg">
<path d="M7.50013 0.833984C6.2023 0.835068 4.95762 1.34969 4.03797 2.26544C3.11831 3.18119 2.5984 4.42367 2.5918 5.72148C2.5918 7.66732 3.68346 9.29648 4.48346 10.484L4.6293 10.7007C5.42525 11.8542 6.27912 12.9668 7.18763 14.034L7.5043 14.4048L7.82096 14.034C8.72936 12.9667 9.58323 11.8542 10.3793 10.7007L10.5251 10.4798C11.321 9.29232 12.4126 7.66732 12.4126 5.72148C12.406 4.42294 11.8855 3.17984 10.965 2.26397C10.0444 1.3481 8.79869 0.833968 7.50013 0.833984ZM7.50013 7.91732C6.95953 7.91732 6.43107 7.75701 5.98157 7.45667C5.53208 7.15633 5.18174 6.72944 4.97486 6.22999C4.76798 5.73053 4.71385 5.18095 4.81932 4.65074C4.92478 4.12052 5.18511 3.63349 5.56737 3.25123C5.94964 2.86896 6.43667 2.60864 6.96688 2.50317C7.4971 2.3977 8.04668 2.45183 8.54613 2.65871C9.04558 2.86559 9.47247 3.21593 9.77281 3.66543C10.0732 4.11492 10.2335 4.64338 10.2335 5.18398C10.2335 5.90891 9.94549 6.60414 9.43289 7.11674C8.92029 7.62934 8.22506 7.91732 7.50013 7.91732Z" fill="white"/>
<path d="M7.50046 6.73724C8.3588 6.73724 9.05462 6.04142 9.05462 5.18307C9.05462 4.32473 8.3588 3.62891 7.50046 3.62891C6.64211 3.62891 5.94629 4.32473 5.94629 5.18307C5.94629 6.04142 6.64211 6.73724 7.50046 6.73724Z" fill="white"/>
</svg>
