<svg width="10" height="10" viewBox="0 0 10 10" fill="none" xmlns="http://www.w3.org/2000/svg">
<path d="M9.87396 9.28355L7.00482 6.41235C7.57045 5.734 7.91065 4.86711 7.91065 3.92029C7.91065 1.76023 6.13792 0.00390625 3.95737 0.00390625C1.77682 0.00390625 0 1.76228 0 3.92234C0 6.0824 1.77272 7.83873 3.95327 7.83873C4.8796 7.83873 5.73214 7.52107 6.40844 6.99028L9.28784 9.86967C9.45589 10.0377 9.70591 10.0377 9.87396 9.86967C10.042 9.70162 10.042 9.4516 9.87396 9.28355ZM0.84025 3.92234C0.84025 2.22545 2.23793 0.846206 3.95327 0.846206C5.66861 0.846206 7.0663 2.22545 7.0663 3.92234C7.0663 5.61924 5.66861 6.99848 3.95327 6.99848C2.23793 6.99848 0.84025 5.61719 0.84025 3.92234Z" fill="#BBBBBB"/>
</svg>
