<svg width="40" height="50" viewBox="0 0 40 50" fill="none" xmlns="http://www.w3.org/2000/svg">
<path d="M12.654 49V44.8H15.822V45.31H13.248V46.51H14.556C15.056 46.51 15.436 46.614 15.696 46.822C15.956 47.03 16.086 47.332 16.086 47.728C16.086 48.136 15.944 48.45 15.66 48.67C15.38 48.89 14.978 49 14.454 49H12.654ZM13.248 48.526H14.43C14.778 48.526 15.04 48.46 15.216 48.328C15.396 48.196 15.486 48 15.486 47.74C15.486 47.236 15.134 46.984 14.43 46.984H13.248V48.526ZM18.8967 49V48.328L18.8667 48.202V47.056C18.8667 46.812 18.7947 46.624 18.6507 46.492C18.5107 46.356 18.2987 46.288 18.0147 46.288C17.8267 46.288 17.6427 46.32 17.4627 46.384C17.2827 46.444 17.1307 46.526 17.0067 46.63L16.7667 46.198C16.9307 46.066 17.1267 45.966 17.3547 45.898C17.5867 45.826 17.8287 45.79 18.0807 45.79C18.5167 45.79 18.8527 45.896 19.0887 46.108C19.3247 46.32 19.4427 46.644 19.4427 47.08V49H18.8967ZM17.8527 49.036C17.6167 49.036 17.4087 48.996 17.2287 48.916C17.0527 48.836 16.9167 48.726 16.8207 48.586C16.7247 48.442 16.6767 48.28 16.6767 48.1C16.6767 47.928 16.7167 47.772 16.7967 47.632C16.8807 47.492 17.0147 47.38 17.1987 47.296C17.3867 47.212 17.6387 47.17 17.9547 47.17H18.9627V47.584H17.9787C17.6907 47.584 17.4967 47.632 17.3967 47.728C17.2967 47.824 17.2467 47.94 17.2467 48.076C17.2467 48.232 17.3087 48.358 17.4327 48.454C17.5567 48.546 17.7287 48.592 17.9487 48.592C18.1647 48.592 18.3527 48.544 18.5127 48.448C18.6767 48.352 18.7947 48.212 18.8667 48.028L18.9807 48.424C18.9047 48.612 18.7707 48.762 18.5787 48.874C18.3867 48.982 18.1447 49.036 17.8527 49.036ZM20.4799 49V45.82H21.0559V47.17H22.8679V45.82H23.4439V49H22.8679V47.668H21.0559V49H20.4799ZM26.8679 49L25.6379 47.452L26.1119 47.164L27.5459 49H26.8679ZM24.5639 49V45.82H25.1399V49H24.5639ZM24.9659 47.656V47.164H26.0159V47.656H24.9659ZM26.1599 47.476L25.6259 47.404L26.8439 45.82H27.4619L26.1599 47.476Z" fill="white"/>
<path fill-rule="evenodd" clip-rule="evenodd" d="M26.0543 0C30.07 0 32.0773 0 34.239 0.683333C36.599 1.54233 38.4577 3.401 39.3167 5.761C40 7.92233 40 9.93033 40 13.9457V26.0543C40 30.07 40 32.0773 39.3167 34.239C38.4577 36.599 36.599 38.4577 34.239 39.3163C32.0773 40 30.07 40 26.0543 40H13.9457C9.93 40 7.92233 40 5.761 39.3163C3.401 38.4577 1.54233 36.599 0.683333 34.239C0 32.0773 0 30.07 0 26.0543V13.9457C0 9.93033 0 7.92233 0.683333 5.761C1.54233 3.401 3.401 1.54233 5.761 0.683333C7.92233 0 9.93 0 13.9457 0H26.0543Z" fill="url(#paint0_linear_13_163)"/>
<path fill-rule="evenodd" clip-rule="evenodd" d="M26.0543 0C30.07 0 32.0773 0 34.239 0.683333C36.599 1.54233 38.4577 3.401 39.3167 5.761C40 7.92233 40 9.93033 40 13.9457V26.0543C40 30.07 40 32.0773 39.3167 34.239C38.4577 36.599 36.599 38.4577 34.239 39.3163C32.0773 40 30.07 40 26.0543 40H13.9457C9.93 40 7.92233 40 5.761 39.3163C3.401 38.4577 1.54233 36.599 0.683333 34.239C0 32.0773 0 30.07 0 26.0543V13.9457C0 9.93033 0 7.92233 0.683333 5.761C1.54233 3.401 3.401 1.54233 5.761 0.683333C7.92233 0 9.93 0 13.9457 0H26.0543Z" fill="black" fill-opacity="0.2"/>
<path d="M30.7024 17.929V12.9994L19.5 7L8.29749 12.9994V17.929H9.38814V26.7547H8.29749V32H30.7025V26.7547H29.6118V17.929H30.7024ZM17.1784 26.7547V17.929H21.8215V26.7547H17.1784ZM9.87107 16.3554V14.2573H29.1289V16.3554H9.87107ZM26.78 12.6837H12.22L19.5 8.78502L26.78 12.6837ZM10.9617 17.929H15.6048V26.7547H10.9617V17.929ZM29.1289 30.4264H9.87107V28.3283H29.1289V30.4264H29.1289ZM28.0382 26.7547H23.3951V17.929H28.0382V26.7547Z" fill="white"/>
<defs>
<linearGradient id="paint0_linear_13_163" x1="0" y1="0" x2="0" y2="40" gradientUnits="userSpaceOnUse">
<stop stop-color="#C81212"/>
<stop offset="1" stop-color="#851717"/>
</linearGradient>
</defs>
</svg>
