<svg width="34" height="34" viewBox="0 0 34 34" fill="none" xmlns="http://www.w3.org/2000/svg">
<path fill-rule="evenodd" clip-rule="evenodd" d="M17 34C26.3888 34 34 26.3888 34 17C34 7.61116 26.3888 0 17 0C7.61116 0 0 7.61116 0 17C0 26.3888 7.61116 34 17 34Z" fill="url(#paint0_linear_533_13)"/>
<path fill-rule="evenodd" clip-rule="evenodd" d="M16.7562 1.30151H17.0816V4.22972H16.7562V1.30151ZM19.4705 1.51038L19.7909 1.56688L19.2824 4.4506L18.962 4.3941L19.4705 1.51038ZM22.1073 2.18757L22.4131 2.29884L21.4116 5.05046L21.1058 4.93918L22.1073 2.18757ZM24.5865 3.31243L24.8683 3.47511L23.4042 6.01101L23.1224 5.84833L24.5865 3.31243ZM26.8327 4.85055L27.082 5.05968L25.1997 7.30282L24.9505 7.09368L26.8327 4.85055ZM28.7777 6.75546L28.9868 7.0047L26.7437 8.88692L26.5345 8.63768L28.7777 6.75546ZM30.3623 8.96919L30.525 9.25096L27.9891 10.7151L27.8264 10.4333L30.3623 8.96919ZM31.5385 11.4243L31.6498 11.7301L28.8982 12.7316L28.7869 12.4258L31.5385 11.4243ZM32.2705 14.0464L32.327 14.3668L29.4433 14.8752L29.3868 14.5548L32.2705 14.0464ZM32.5359 16.7558V17.0811H29.6077V16.7558H32.5359ZM32.327 19.4704L32.2705 19.7908L29.3868 19.2823L29.4433 18.9619L32.327 19.4704ZM31.6498 22.107L31.5385 22.4127L28.7869 21.4112L28.8982 21.1055L31.6498 22.107ZM30.525 24.5862L30.3623 24.868L27.8264 23.4039L27.9891 23.1221L30.525 24.5862ZM28.9868 26.8325L28.7777 27.0818L26.5345 25.1996L26.7437 24.9503L28.9868 26.8325ZM27.082 28.7773L26.8327 28.9865L24.9505 26.7433L25.1997 26.5342L27.082 28.7773ZM24.8683 30.3621L24.5865 30.5248L23.1224 27.9889L23.4042 27.8262L24.8683 30.3621ZM22.4131 31.5381L22.1073 31.6494L21.1058 28.8978L21.4116 28.7865L22.4131 31.5381ZM19.7909 32.2703L19.4705 32.3268L18.962 29.443L19.2824 29.3865L19.7909 32.2703ZM17.0816 32.5357H16.7562V29.6075H17.0816V32.5357ZM14.3672 32.3268L14.0468 32.2703L14.5553 29.3865L14.8757 29.443L14.3672 32.3268ZM11.7303 31.6494L11.4246 31.5381L12.4261 28.7865L12.7318 28.8978L11.7303 31.6494ZM9.25113 30.5248L8.96936 30.3621L10.4335 27.8262L10.7152 27.9889L9.25113 30.5248ZM7.00497 28.9865L6.75574 28.7773L8.63795 26.5342L8.88719 26.7433L7.00497 28.9865ZM5.05996 27.0818L4.85083 26.8325L7.09397 24.9503L7.3031 25.1996L5.05996 27.0818ZM3.47536 24.868L3.31268 24.5862L5.84858 23.1221L6.01126 23.4039L3.47536 24.868ZM2.29921 22.4127L2.18793 22.107L4.93954 21.1055L5.05082 21.4112L2.29921 22.4127ZM1.5673 19.7908L1.5108 19.4704L4.39452 18.9619L4.45102 19.2823L1.5673 19.7908ZM1.30176 17.0811V16.7558H4.22996V17.0811H1.30176ZM1.5108 14.3668L1.5673 14.0464L4.45102 14.5548L4.39452 14.8752L1.5108 14.3668ZM2.18793 11.7301L2.29921 11.4243L5.05082 12.4258L4.93954 12.7316L2.18793 11.7301ZM3.31268 9.25096L3.47536 8.96919L6.01126 10.4333L5.84858 10.7151L3.31268 9.25096ZM4.85083 7.0047L5.05996 6.75546L7.3031 8.63768L7.09397 8.88692L4.85083 7.0047ZM6.75574 5.05968L7.00497 4.85055L8.88719 7.09368L8.63795 7.30282L6.75574 5.05968ZM8.96936 3.47511L9.25113 3.31243L10.7152 5.84833L10.4335 6.01101L8.96936 3.47511ZM11.4246 2.29884L11.7303 2.18757L12.7318 4.93918L12.4261 5.05046L11.4246 2.29884ZM14.0468 1.56688L14.3672 1.51038L14.8757 4.3941L14.5553 4.4506L14.0468 1.56688Z" fill="white"/>
<path fill-rule="evenodd" clip-rule="evenodd" d="M18.442 1.3753L18.1179 1.34694L17.9761 2.96753L18.3003 2.99589L18.442 1.3753ZM21.1179 1.87592L20.8037 1.79171L20.3826 3.36306L20.6969 3.44727L21.1179 1.87592ZM23.3714 2.69604L23.6663 2.83355L22.9788 4.30791L22.6839 4.17041L23.3714 2.69604ZM26.0096 4.21942L25.7431 4.03281L24.81 5.36539L25.0765 5.55201L26.0096 4.21942ZM27.8467 5.76072L28.0768 5.99078L26.9265 7.14109L26.6964 6.91102L27.8467 5.76072ZM29.8048 8.09446L29.6182 7.82795L28.2856 8.76103L28.4722 9.02755L29.8048 8.09446ZM31.0039 10.1712L31.1414 10.4661L29.6671 11.1536L29.5295 10.8587L31.0039 10.1712ZM32.0458 13.034L31.9616 12.7197L30.3903 13.1407L30.4745 13.455L32.0458 13.034ZM32.4623 15.3956L32.4906 15.7197L30.8701 15.8615L30.8417 15.5374L32.4623 15.3956ZM32.4623 18.4419L32.4907 18.1178L30.8701 17.976L30.8417 18.3001L32.4623 18.4419ZM32.0458 20.8036L31.9616 21.1179L30.3903 20.6969L30.4745 20.3826L32.0458 20.8036ZM31.004 23.6661L31.1415 23.3713L29.6672 22.6838L29.5297 22.9786L31.004 23.6661ZM29.8049 25.7429L29.6183 26.0095L28.2857 25.0764L28.4723 24.8099L29.8049 25.7429ZM27.8467 28.0768L28.0768 27.8467L26.9265 26.6964L26.6964 26.9265L27.8467 28.0768ZM26.0097 29.6183L25.7431 29.8049L24.8101 28.4723L25.0766 28.2857L26.0097 29.6183ZM23.3713 31.1413L23.6662 31.0038L22.9787 29.5295L22.6838 29.667L23.3713 31.1413ZM21.118 31.9617L20.8037 32.0459L20.3827 30.4745L20.6969 30.3903L21.118 31.9617ZM18.1178 32.4906L18.442 32.4622L18.3002 30.8416L17.9761 30.87L18.1178 32.4906ZM15.7197 32.4906L15.3956 32.4622L15.5373 30.8416L15.8615 30.87L15.7197 32.4906ZM12.7197 31.9616L13.034 32.0458L13.455 30.4745L13.1408 30.3903L12.7197 31.9616ZM10.4661 31.1415L10.1713 31.004L10.8588 29.5296L11.1536 29.6671L10.4661 31.1415ZM7.82797 29.6183L8.09449 29.8049L9.02757 28.4724L8.76105 28.2857L7.82797 29.6183ZM5.99085 28.0767L5.76079 27.8466L6.9111 26.6963L7.14116 26.9264L5.99085 28.0767ZM4.03263 25.7432L4.21924 26.0097L5.55183 25.0766L5.36521 24.8101L4.03263 25.7432ZM2.83356 23.6663L2.69606 23.3714L4.17043 22.6839L4.30793 22.9788L2.83356 23.6663ZM1.79177 20.8036L1.87598 21.1178L3.44733 20.6968L3.36312 20.3825L1.79177 20.8036ZM1.37531 18.4421L1.34695 18.1179L2.96754 17.9762L2.9959 18.3003L1.37531 18.4421ZM1.37535 15.3956L1.34699 15.7197L2.96758 15.8615L2.99594 15.5374L1.37535 15.3956ZM1.79169 13.034L1.8759 12.7197L3.44725 13.1408L3.36304 13.455L1.79169 13.034ZM2.83367 10.1713L2.69617 10.4661L4.17054 11.1536L4.30804 10.8588L2.83367 10.1713ZM4.03266 8.09436L4.21928 7.82784L5.55186 8.76092L5.36524 9.02744L4.03266 8.09436ZM5.99087 5.76083L5.76081 5.99089L6.91112 7.1412L7.14118 6.91114L5.99087 5.76083ZM7.82795 4.21913L8.09446 4.03251L9.02755 5.36509L8.76103 5.55171L7.82795 4.21913ZM10.4662 2.69607L10.1713 2.83357L10.8588 4.30793L11.1537 4.17043L10.4662 2.69607ZM12.7195 1.87595L13.0338 1.79174L13.4549 3.36309L13.1406 3.4473L12.7195 1.87595ZM15.7198 1.34674L15.3956 1.3751L15.5374 2.99569L15.8615 2.96733L15.7198 1.34674Z" fill="white"/>
<mask id="mask0_533_13" style="mask-type:luminance" maskUnits="userSpaceOnUse" x="5" y="4" width="24" height="25">
<path fill-rule="evenodd" clip-rule="evenodd" d="M15.4711 15.3083L5.04338 28.7669L18.692 18.5292L15.4711 15.3083L28.9297 4.84049L18.692 18.5292L15.4711 15.3083Z" fill="white"/>
</mask>
<g mask="url(#mask0_533_13)">
<path fill-rule="evenodd" clip-rule="evenodd" d="M15.4711 15.3083L5.04338 28.7669L18.692 18.5292L15.4711 15.3083L28.9297 4.84049L18.692 18.5292L15.4711 15.3083Z" fill="white"/>
<path fill-rule="evenodd" clip-rule="evenodd" d="M27.2042 3.11514L30.8852 6.79613L18.922 18.7593L15.241 15.0783L27.2042 3.11514Z" fill="#FF1414"/>
</g>
<defs>
<linearGradient id="paint0_linear_533_13" x1="0" y1="0" x2="0" y2="34" gradientUnits="userSpaceOnUse">
<stop stop-color="#23D9FD"/>
<stop offset="1" stop-color="#1F63F0"/>
</linearGradient>
</defs>
</svg>
