<svg width="40" height="51" viewBox="0 0 40 51" fill="none" xmlns="http://www.w3.org/2000/svg">
<path d="M6.654 49V44.8H9.822V45.31H7.248V46.51H8.556C9.056 46.51 9.436 46.614 9.696 46.822C9.956 47.03 10.086 47.332 10.086 47.728C10.086 48.136 9.944 48.45 9.66 48.67C9.38 48.89 8.978 49 8.454 49H6.654ZM7.248 48.526H8.43C8.778 48.526 9.04 48.46 9.216 48.328C9.396 48.196 9.486 48 9.486 47.74C9.486 47.236 9.134 46.984 8.43 46.984H7.248V48.526ZM12.6327 49.036C12.3687 49.036 12.1267 48.976 11.9067 48.856C11.6907 48.732 11.5167 48.55 11.3847 48.31C11.2567 48.07 11.1927 47.77 11.1927 47.41C11.1927 47.05 11.2547 46.75 11.3787 46.51C11.5067 46.27 11.6787 46.09 11.8947 45.97C12.1147 45.85 12.3607 45.79 12.6327 45.79C12.9447 45.79 13.2207 45.858 13.4607 45.994C13.7007 46.13 13.8907 46.32 14.0307 46.564C14.1707 46.804 14.2407 47.086 14.2407 47.41C14.2407 47.734 14.1707 48.018 14.0307 48.262C13.8907 48.506 13.7007 48.696 13.4607 48.832C13.2207 48.968 12.9447 49.036 12.6327 49.036ZM10.9467 50.164V45.82H11.4987V46.678L11.4627 47.416L11.5227 48.154V50.164H10.9467ZM12.5847 48.532C12.7887 48.532 12.9707 48.486 13.1307 48.394C13.2947 48.302 13.4227 48.172 13.5147 48.004C13.6107 47.832 13.6587 47.634 13.6587 47.41C13.6587 47.182 13.6107 46.986 13.5147 46.822C13.4227 46.654 13.2947 46.524 13.1307 46.432C12.9707 46.34 12.7887 46.294 12.5847 46.294C12.3847 46.294 12.2027 46.34 12.0387 46.432C11.8787 46.524 11.7507 46.654 11.6547 46.822C11.5627 46.986 11.5167 47.182 11.5167 47.41C11.5167 47.634 11.5627 47.832 11.6547 48.004C11.7507 48.172 11.8787 48.302 12.0387 48.394C12.2027 48.486 12.3847 48.532 12.5847 48.532ZM16.9982 49V48.328L16.9682 48.202V47.056C16.9682 46.812 16.8962 46.624 16.7522 46.492C16.6122 46.356 16.4002 46.288 16.1162 46.288C15.9282 46.288 15.7442 46.32 15.5642 46.384C15.3842 46.444 15.2322 46.526 15.1082 46.63L14.8682 46.198C15.0322 46.066 15.2282 45.966 15.4562 45.898C15.6882 45.826 15.9302 45.79 16.1822 45.79C16.6182 45.79 16.9542 45.896 17.1902 46.108C17.4262 46.32 17.5442 46.644 17.5442 47.08V49H16.9982ZM15.9542 49.036C15.7182 49.036 15.5102 48.996 15.3302 48.916C15.1542 48.836 15.0182 48.726 14.9222 48.586C14.8262 48.442 14.7782 48.28 14.7782 48.1C14.7782 47.928 14.8182 47.772 14.8982 47.632C14.9822 47.492 15.1162 47.38 15.3002 47.296C15.4882 47.212 15.7402 47.17 16.0562 47.17H17.0642V47.584H16.0802C15.7922 47.584 15.5982 47.632 15.4982 47.728C15.3982 47.824 15.3482 47.94 15.3482 48.076C15.3482 48.232 15.4102 48.358 15.5342 48.454C15.6582 48.546 15.8302 48.592 16.0502 48.592C16.2662 48.592 16.4542 48.544 16.6142 48.448C16.7782 48.352 16.8962 48.212 16.9682 48.028L17.0822 48.424C17.0062 48.612 16.8722 48.762 16.6802 48.874C16.4882 48.982 16.2462 49.036 15.9542 49.036ZM18.7434 50.2C18.5914 50.2 18.4434 50.174 18.2994 50.122C18.1554 50.074 18.0314 50.002 17.9274 49.906L18.1734 49.474C18.2534 49.55 18.3414 49.608 18.4374 49.648C18.5334 49.688 18.6354 49.708 18.7434 49.708C18.8834 49.708 18.9994 49.672 19.0914 49.6C19.1834 49.528 19.2694 49.4 19.3494 49.216L19.5474 48.778L19.6074 48.706L20.8554 45.82H21.4194L19.8774 49.318C19.7854 49.542 19.6814 49.718 19.5654 49.846C19.4534 49.974 19.3294 50.064 19.1934 50.116C19.0574 50.172 18.9074 50.2 18.7434 50.2ZM19.4994 49.102L18.0474 45.82H18.6474L19.8834 48.652L19.4994 49.102ZM22.863 49.042C23.143 49.042 23.391 49.002 23.607 48.922C23.827 48.838 24.001 48.724 24.129 48.58C24.257 48.432 24.321 48.262 24.321 48.07C24.321 47.83 24.219 47.64 24.015 47.5C23.811 47.36 23.531 47.29 23.175 47.29L23.151 47.428C23.359 47.428 23.543 47.394 23.703 47.326C23.863 47.258 23.991 47.166 24.087 47.05C24.183 46.93 24.231 46.794 24.231 46.642C24.231 46.462 24.167 46.306 24.039 46.174C23.915 46.042 23.745 45.942 23.529 45.874C23.313 45.802 23.067 45.77 22.791 45.778C22.607 45.782 22.421 45.81 22.233 45.862C22.049 45.91 21.861 45.98 21.669 46.072L21.825 46.522C21.997 46.438 22.165 46.376 22.329 46.336C22.497 46.296 22.661 46.274 22.821 46.27C22.985 46.27 23.127 46.288 23.247 46.324C23.371 46.36 23.467 46.412 23.535 46.48C23.603 46.548 23.637 46.63 23.637 46.726C23.637 46.814 23.607 46.892 23.547 46.96C23.491 47.024 23.411 47.072 23.307 47.104C23.203 47.136 23.081 47.152 22.941 47.152H22.401V47.566H22.977C23.213 47.566 23.397 47.606 23.529 47.686C23.661 47.766 23.727 47.88 23.727 48.028C23.727 48.132 23.691 48.224 23.619 48.304C23.547 48.38 23.443 48.44 23.307 48.484C23.175 48.528 23.017 48.55 22.833 48.55C22.633 48.55 22.435 48.524 22.239 48.472C22.043 48.416 21.869 48.34 21.717 48.244L21.543 48.682C21.723 48.798 21.927 48.888 22.155 48.952C22.387 49.012 22.623 49.042 22.863 49.042ZM26.6127 49.036C26.2727 49.036 25.9727 48.966 25.7127 48.826C25.4567 48.686 25.2567 48.494 25.1127 48.25C24.9727 48.006 24.9027 47.726 24.9027 47.41C24.9027 47.094 24.9707 46.814 25.1067 46.57C25.2467 46.326 25.4367 46.136 25.6767 46C25.9207 45.86 26.1947 45.79 26.4987 45.79C26.8067 45.79 27.0787 45.858 27.3147 45.994C27.5507 46.13 27.7347 46.322 27.8667 46.57C28.0027 46.814 28.0707 47.1 28.0707 47.428C28.0707 47.452 28.0687 47.48 28.0647 47.512C28.0647 47.544 28.0627 47.574 28.0587 47.602H25.3527V47.188H27.7587L27.5247 47.332C27.5287 47.128 27.4867 46.946 27.3987 46.786C27.3107 46.626 27.1887 46.502 27.0327 46.414C26.8807 46.322 26.7027 46.276 26.4987 46.276C26.2987 46.276 26.1207 46.322 25.9647 46.414C25.8087 46.502 25.6867 46.628 25.5987 46.792C25.5107 46.952 25.4667 47.136 25.4667 47.344V47.44C25.4667 47.652 25.5147 47.842 25.6107 48.01C25.7107 48.174 25.8487 48.302 26.0247 48.394C26.2007 48.486 26.4027 48.532 26.6307 48.532C26.8187 48.532 26.9887 48.5 27.1407 48.436C27.2967 48.372 27.4327 48.276 27.5487 48.148L27.8667 48.52C27.7227 48.688 27.5427 48.816 27.3267 48.904C27.1147 48.992 26.8767 49.036 26.6127 49.036ZM30.6503 49.036C30.3863 49.036 30.1443 48.976 29.9243 48.856C29.7083 48.732 29.5343 48.55 29.4023 48.31C29.2743 48.07 29.2103 47.77 29.2103 47.41C29.2103 47.05 29.2723 46.75 29.3963 46.51C29.5243 46.27 29.6963 46.09 29.9123 45.97C30.1323 45.85 30.3783 45.79 30.6503 45.79C30.9623 45.79 31.2383 45.858 31.4783 45.994C31.7183 46.13 31.9083 46.32 32.0483 46.564C32.1883 46.804 32.2583 47.086 32.2583 47.41C32.2583 47.734 32.1883 48.018 32.0483 48.262C31.9083 48.506 31.7183 48.696 31.4783 48.832C31.2383 48.968 30.9623 49.036 30.6503 49.036ZM28.9643 50.164V45.82H29.5163V46.678L29.4803 47.416L29.5403 48.154V50.164H28.9643ZM30.6023 48.532C30.8063 48.532 30.9883 48.486 31.1483 48.394C31.3123 48.302 31.4403 48.172 31.5323 48.004C31.6283 47.832 31.6763 47.634 31.6763 47.41C31.6763 47.182 31.6283 46.986 31.5323 46.822C31.4403 46.654 31.3123 46.524 31.1483 46.432C30.9883 46.34 30.8063 46.294 30.6023 46.294C30.4023 46.294 30.2203 46.34 30.0563 46.432C29.8963 46.524 29.7683 46.654 29.6723 46.822C29.5803 46.986 29.5343 47.182 29.5343 47.41C29.5343 47.634 29.5803 47.832 29.6723 48.004C29.7683 48.172 29.8963 48.302 30.0563 48.394C30.2203 48.486 30.4023 48.532 30.6023 48.532Z" fill="white"/>
<path fill-rule="evenodd" clip-rule="evenodd" d="M26.0543 0C30.07 0 32.0773 0 34.239 0.683333C36.599 1.54233 38.4577 3.401 39.3167 5.761C40 7.92233 40 9.93033 40 13.9457V26.0543C40 30.07 40 32.0773 39.3167 34.239C38.4577 36.599 36.599 38.4577 34.239 39.3163C32.0773 40 30.07 40 26.0543 40H13.9457C9.93 40 7.92233 40 5.761 39.3163C3.401 38.4577 1.54233 36.599 0.683333 34.239C0 32.0773 0 30.07 0 26.0543V13.9457C0 9.93033 0 7.92233 0.683333 5.761C1.54233 3.401 3.401 1.54233 5.761 0.683333C7.92233 0 9.93 0 13.9457 0H26.0543Z" fill="white"/>
<path fill-rule="evenodd" clip-rule="evenodd" d="M20 37C29.3888 37 37 29.3888 37 20C37 10.6112 29.3888 3 20 3C10.6112 3 3 10.6112 3 20C3 29.3888 10.6112 37 20 37Z" fill="url(#paint0_linear_13_13)"/>
<path fill-rule="evenodd" clip-rule="evenodd" d="M19.7562 4.30151H20.0816V7.22972H19.7562V4.30151ZM22.4705 4.51038L22.7909 4.56688L22.2824 7.4506L21.962 7.3941L22.4705 4.51038ZM25.1073 5.18757L25.4131 5.29884L24.4116 8.05046L24.1058 7.93918L25.1073 5.18757ZM27.5865 6.31243L27.8683 6.47511L26.4042 9.01101L26.1224 8.84833L27.5865 6.31243ZM29.8327 7.85055L30.082 8.05968L28.1997 10.3028L27.9505 10.0937L29.8327 7.85055ZM31.7777 9.75546L31.9868 10.0047L29.7437 11.8869L29.5345 11.6377L31.7777 9.75546ZM33.3623 11.9692L33.525 12.251L30.9891 13.7151L30.8264 13.4333L33.3623 11.9692ZM34.5385 14.4243L34.6498 14.7301L31.8982 15.7316L31.7869 15.4258L34.5385 14.4243ZM35.2705 17.0464L35.327 17.3668L32.4433 17.8752L32.3868 17.5548L35.2705 17.0464ZM35.5359 19.7558V20.0811H32.6077V19.7558H35.5359ZM35.327 22.4704L35.2705 22.7908L32.3868 22.2823L32.4433 21.9619L35.327 22.4704ZM34.6498 25.107L34.5385 25.4127L31.7869 24.4112L31.8982 24.1055L34.6498 25.107ZM33.525 27.5862L33.3623 27.868L30.8264 26.4039L30.9891 26.1221L33.525 27.5862ZM31.9868 29.8325L31.7777 30.0818L29.5345 28.1996L29.7437 27.9503L31.9868 29.8325ZM30.082 31.7773L29.8327 31.9865L27.9505 29.7433L28.1997 29.5342L30.082 31.7773ZM27.8683 33.3621L27.5865 33.5248L26.1224 30.9889L26.4042 30.8262L27.8683 33.3621ZM25.4131 34.5381L25.1073 34.6494L24.1058 31.8978L24.4116 31.7865L25.4131 34.5381ZM22.7909 35.2703L22.4705 35.3268L21.962 32.443L22.2824 32.3865L22.7909 35.2703ZM20.0816 35.5357H19.7562V32.6075H20.0816V35.5357ZM17.3672 35.3268L17.0468 35.2703L17.5553 32.3865L17.8757 32.443L17.3672 35.3268ZM14.7303 34.6494L14.4246 34.5381L15.4261 31.7865L15.7318 31.8978L14.7303 34.6494ZM12.2511 33.5248L11.9694 33.3621L13.4335 30.8262L13.7152 30.9889L12.2511 33.5248ZM10.005 31.9865L9.75574 31.7773L11.638 29.5342L11.8872 29.7433L10.005 31.9865ZM8.05996 30.0818L7.85083 29.8325L10.094 27.9503L10.3031 28.1996L8.05996 30.0818ZM6.47536 27.868L6.31268 27.5862L8.84858 26.1221L9.01126 26.4039L6.47536 27.868ZM5.29921 25.4127L5.18793 25.107L7.93954 24.1055L8.05082 24.4112L5.29921 25.4127ZM4.5673 22.7908L4.5108 22.4704L7.39452 21.9619L7.45102 22.2823L4.5673 22.7908ZM4.30176 20.0811V19.7558H7.22996V20.0811H4.30176ZM4.5108 17.3668L4.5673 17.0464L7.45102 17.5548L7.39452 17.8752L4.5108 17.3668ZM5.18793 14.7301L5.29921 14.4243L8.05082 15.4258L7.93954 15.7316L5.18793 14.7301ZM6.31268 12.251L6.47536 11.9692L9.01126 13.4333L8.84858 13.7151L6.31268 12.251ZM7.85083 10.0047L8.05996 9.75546L10.3031 11.6377L10.094 11.8869L7.85083 10.0047ZM9.75574 8.05968L10.005 7.85055L11.8872 10.0937L11.638 10.3028L9.75574 8.05968ZM11.9694 6.47511L12.2511 6.31243L13.7152 8.84833L13.4335 9.01101L11.9694 6.47511ZM14.4246 5.29884L14.7303 5.18757L15.7318 7.93918L15.4261 8.05046L14.4246 5.29884ZM17.0468 4.56688L17.3672 4.51038L17.8757 7.3941L17.5553 7.4506L17.0468 4.56688Z" fill="white"/>
<path fill-rule="evenodd" clip-rule="evenodd" d="M21.442 4.3753L21.1179 4.34694L20.9761 5.96753L21.3003 5.99589L21.442 4.3753ZM24.1179 4.87592L23.8037 4.79171L23.3826 6.36306L23.6969 6.44727L24.1179 4.87592ZM26.3714 5.69604L26.6663 5.83355L25.9788 7.30791L25.6839 7.17041L26.3714 5.69604ZM29.0096 7.21942L28.7431 7.03281L27.81 8.36539L28.0765 8.55201L29.0096 7.21942ZM30.8467 8.76072L31.0768 8.99078L29.9265 10.1411L29.6964 9.91102L30.8467 8.76072ZM32.8048 11.0945L32.6182 10.8279L31.2856 11.761L31.4722 12.0275L32.8048 11.0945ZM34.0039 13.1712L34.1414 13.4661L32.6671 14.1536L32.5295 13.8587L34.0039 13.1712ZM35.0458 16.034L34.9616 15.7197L33.3903 16.1407L33.4745 16.455L35.0458 16.034ZM35.4623 18.3956L35.4906 18.7197L33.8701 18.8615L33.8417 18.5374L35.4623 18.3956ZM35.4623 21.4419L35.4907 21.1178L33.8701 20.976L33.8417 21.3001L35.4623 21.4419ZM35.0458 23.8036L34.9616 24.1179L33.3903 23.6969L33.4745 23.3826L35.0458 23.8036ZM34.004 26.6661L34.1415 26.3713L32.6672 25.6838L32.5297 25.9786L34.004 26.6661ZM32.8049 28.7429L32.6183 29.0095L31.2857 28.0764L31.4723 27.8099L32.8049 28.7429ZM30.8467 31.0768L31.0768 30.8467L29.9265 29.6964L29.6964 29.9265L30.8467 31.0768ZM29.0097 32.6183L28.7431 32.8049L27.8101 31.4723L28.0766 31.2857L29.0097 32.6183ZM26.3713 34.1413L26.6662 34.0038L25.9787 32.5295L25.6838 32.667L26.3713 34.1413ZM24.118 34.9617L23.8037 35.0459L23.3827 33.4745L23.6969 33.3903L24.118 34.9617ZM21.1178 35.4906L21.442 35.4622L21.3002 33.8416L20.9761 33.87L21.1178 35.4906ZM18.7197 35.4906L18.3956 35.4622L18.5373 33.8416L18.8615 33.87L18.7197 35.4906ZM15.7197 34.9616L16.034 35.0458L16.455 33.4745L16.1408 33.3903L15.7197 34.9616ZM13.4661 34.1415L13.1713 34.004L13.8588 32.5296L14.1536 32.6671L13.4661 34.1415ZM10.828 32.6183L11.0945 32.8049L12.0276 31.4724L11.7611 31.2857L10.828 32.6183ZM8.99085 31.0767L8.76079 30.8466L9.9111 29.6963L10.1412 29.9264L8.99085 31.0767ZM7.03263 28.7432L7.21924 29.0097L8.55183 28.0766L8.36521 27.8101L7.03263 28.7432ZM5.83356 26.6663L5.69606 26.3714L7.17043 25.6839L7.30793 25.9788L5.83356 26.6663ZM4.79177 23.8036L4.87598 24.1178L6.44733 23.6968L6.36312 23.3825L4.79177 23.8036ZM4.37531 21.4421L4.34695 21.1179L5.96754 20.9762L5.9959 21.3003L4.37531 21.4421ZM4.37535 18.3956L4.34699 18.7197L5.96758 18.8615L5.99594 18.5374L4.37535 18.3956ZM4.79169 16.034L4.8759 15.7197L6.44725 16.1408L6.36304 16.455L4.79169 16.034ZM5.83367 13.1713L5.69617 13.4661L7.17054 14.1536L7.30804 13.8588L5.83367 13.1713ZM7.03266 11.0944L7.21928 10.8278L8.55186 11.7609L8.36524 12.0274L7.03266 11.0944ZM8.99087 8.76083L8.76081 8.99089L9.91112 10.1412L10.1412 9.91114L8.99087 8.76083ZM10.8279 7.21913L11.0945 7.03251L12.0275 8.36509L11.761 8.55171L10.8279 7.21913ZM13.4662 5.69607L13.1713 5.83357L13.8588 7.30793L14.1537 7.17043L13.4662 5.69607ZM15.7195 4.87595L16.0338 4.79174L16.4549 6.36309L16.1406 6.4473L15.7195 4.87595ZM18.7198 4.34674L18.3956 4.3751L18.5374 5.99569L18.8615 5.96733L18.7198 4.34674Z" fill="white"/>
<mask id="mask0_13_13" style="mask-type:luminance" maskUnits="userSpaceOnUse" x="8" y="7" width="24" height="25">
<path fill-rule="evenodd" clip-rule="evenodd" d="M18.4711 18.3083L8.04338 31.7669L21.692 21.5292L18.4711 18.3083L31.9297 7.84049L21.692 21.5292L18.4711 18.3083Z" fill="white"/>
</mask>
<g mask="url(#mask0_13_13)">
<path fill-rule="evenodd" clip-rule="evenodd" d="M18.4711 18.3083L8.04338 31.7669L21.692 21.5292L18.4711 18.3083L31.9297 7.84049L21.692 21.5292L18.4711 18.3083Z" fill="white"/>
<path fill-rule="evenodd" clip-rule="evenodd" d="M30.2042 6.11514L33.8852 9.79613L21.922 21.7593L18.241 18.0783L30.2042 6.11514Z" fill="#FF1414"/>
</g>
<defs>
<linearGradient id="paint0_linear_13_13" x1="3" y1="3" x2="3" y2="37" gradientUnits="userSpaceOnUse">
<stop stop-color="#23D9FD"/>
<stop offset="1" stop-color="#1F63F0"/>
</linearGradient>
</defs>
</svg>
