<svg width="27" height="27" viewBox="0 0 27 27" fill="none" xmlns="http://www.w3.org/2000/svg">
<path d="M10.9688 11.25C9.26012 11.25 7.875 12.6351 7.875 14.3438V18.2812C7.875 19.9899 9.26012 21.375 10.9688 21.375H16.0312C17.7399 21.375 19.125 19.9899 19.125 18.2812V14.3438C19.125 12.6351 17.7399 11.25 16.0312 11.25H10.9688ZM9.5625 14.3438C9.5625 13.567 10.1921 12.9375 10.9688 12.9375H13.5V15.75H9.5625V14.3438ZM9.5625 17.4375H13.5V19.6875H10.9688C10.1921 19.6875 9.5625 19.058 9.5625 18.2812V17.4375ZM15.1875 19.6875V12.9375H16.0312C16.808 12.9375 17.4375 13.567 17.4375 14.3438V18.2812C17.4375 19.058 16.808 19.6875 16.0312 19.6875H15.1875Z" fill="white"/>
<path d="M8.15625 2.25C6.13695 2.25 4.5 3.88695 4.5 5.90625V21.0938C4.5 23.113 6.13695 24.75 8.15625 24.75H18.8438C20.863 24.75 22.5 23.113 22.5 21.0938V10.4462C22.5 9.47653 22.1148 8.54655 21.4291 7.86087L16.8892 3.32089C16.2035 2.63521 15.2735 2.25 14.3038 2.25H8.15625ZM6.1875 5.90625C6.1875 4.81894 7.06894 3.9375 8.15625 3.9375H14.3038C14.8259 3.9375 15.3267 4.14492 15.6959 4.51413L20.2358 9.05411C20.605 9.42333 20.8125 9.92409 20.8125 10.4462V21.0938C20.8125 22.1811 19.9311 23.0625 18.8438 23.0625H8.15625C7.06894 23.0625 6.1875 22.1811 6.1875 21.0938V5.90625Z" fill="white"/>
</svg>
