<svg width="40" height="50" viewBox="0 0 40 50" fill="none" xmlns="http://www.w3.org/2000/svg">
<path d="M11.63 49V44.8H13.514C13.998 44.8 14.37 44.898 14.63 45.094C14.89 45.286 15.02 45.55 15.02 45.886C15.02 46.114 14.968 46.306 14.864 46.462C14.764 46.618 14.628 46.738 14.456 46.822C14.284 46.906 14.098 46.948 13.898 46.948L14.006 46.768C14.246 46.768 14.458 46.81 14.642 46.894C14.826 46.978 14.972 47.102 15.08 47.266C15.188 47.426 15.242 47.626 15.242 47.866C15.242 48.226 15.106 48.506 14.834 48.706C14.566 48.902 14.166 49 13.634 49H11.63ZM12.23 48.514H13.61C13.942 48.514 14.196 48.458 14.372 48.346C14.548 48.234 14.636 48.058 14.636 47.818C14.636 47.574 14.548 47.396 14.372 47.284C14.196 47.172 13.942 47.116 13.61 47.116H12.176V46.63H13.46C13.764 46.63 14 46.574 14.168 46.462C14.336 46.35 14.42 46.182 14.42 45.958C14.42 45.734 14.336 45.566 14.168 45.454C14 45.342 13.764 45.286 13.46 45.286H12.23V48.514ZM17.395 49.048C17.075 49.048 16.769 49 16.477 48.904C16.185 48.804 15.955 48.676 15.787 48.52L16.009 48.052C16.169 48.192 16.373 48.308 16.621 48.4C16.869 48.492 17.127 48.538 17.395 48.538C17.639 48.538 17.837 48.51 17.989 48.454C18.141 48.398 18.253 48.322 18.325 48.226C18.397 48.126 18.433 48.014 18.433 47.89C18.433 47.746 18.385 47.63 18.289 47.542C18.197 47.454 18.075 47.384 17.923 47.332C17.775 47.276 17.611 47.228 17.431 47.188C17.251 47.148 17.069 47.102 16.885 47.05C16.705 46.994 16.539 46.924 16.387 46.84C16.239 46.756 16.119 46.644 16.027 46.504C15.935 46.36 15.889 46.176 15.889 45.952C15.889 45.736 15.945 45.538 16.057 45.358C16.173 45.174 16.349 45.028 16.585 44.92C16.825 44.808 17.129 44.752 17.497 44.752C17.741 44.752 17.983 44.784 18.223 44.848C18.463 44.912 18.671 45.004 18.847 45.124L18.649 45.604C18.469 45.484 18.279 45.398 18.079 45.346C17.879 45.29 17.685 45.262 17.497 45.262C17.261 45.262 17.067 45.292 16.915 45.352C16.763 45.412 16.651 45.492 16.579 45.592C16.511 45.692 16.477 45.804 16.477 45.928C16.477 46.076 16.523 46.194 16.615 46.282C16.711 46.37 16.833 46.44 16.981 46.492C17.133 46.544 17.299 46.592 17.479 46.636C17.659 46.676 17.839 46.722 18.019 46.774C18.203 46.826 18.369 46.894 18.517 46.978C18.669 47.062 18.791 47.174 18.883 47.314C18.975 47.454 19.021 47.634 19.021 47.854C19.021 48.066 18.963 48.264 18.847 48.448C18.731 48.628 18.551 48.774 18.307 48.886C18.067 48.994 17.763 49.048 17.395 49.048ZM19.8136 49V45.82H20.3896V49H19.8136ZM20.1016 45.208C19.9896 45.208 19.8956 45.172 19.8196 45.1C19.7476 45.028 19.7116 44.94 19.7116 44.836C19.7116 44.728 19.7476 44.638 19.8196 44.566C19.8956 44.494 19.9896 44.458 20.1016 44.458C20.2136 44.458 20.3056 44.494 20.3776 44.566C20.4536 44.634 20.4916 44.72 20.4916 44.824C20.4916 44.932 20.4556 45.024 20.3836 45.1C20.3116 45.172 20.2176 45.208 20.1016 45.208ZM25.4674 45.79C25.7234 45.79 25.9494 45.84 26.1454 45.94C26.3414 46.04 26.4934 46.192 26.6014 46.396C26.7134 46.6 26.7694 46.858 26.7694 47.17V49H26.1934V47.236C26.1934 46.928 26.1214 46.696 25.9774 46.54C25.8334 46.384 25.6314 46.306 25.3714 46.306C25.1794 46.306 25.0114 46.346 24.8674 46.426C24.7234 46.506 24.6114 46.624 24.5314 46.78C24.4554 46.936 24.4174 47.13 24.4174 47.362V49H23.8414V47.236C23.8414 46.928 23.7694 46.696 23.6254 46.54C23.4854 46.384 23.2834 46.306 23.0194 46.306C22.8314 46.306 22.6654 46.346 22.5214 46.426C22.3774 46.506 22.2654 46.624 22.1854 46.78C22.1054 46.936 22.0654 47.13 22.0654 47.362V49H21.4894V45.82H22.0414V46.666L21.9514 46.45C22.0514 46.242 22.2054 46.08 22.4134 45.964C22.6214 45.848 22.8634 45.79 23.1394 45.79C23.4434 45.79 23.7054 45.866 23.9254 46.018C24.1454 46.166 24.2894 46.392 24.3574 46.696L24.1234 46.6C24.2194 46.356 24.3874 46.16 24.6274 46.012C24.8674 45.864 25.1474 45.79 25.4674 45.79Z" fill="white"/>
<path fill-rule="evenodd" clip-rule="evenodd" d="M26.0543 0C30.07 0 32.0773 0 34.239 0.683333C36.599 1.54233 38.4577 3.401 39.3167 5.761C40 7.92233 40 9.93033 40 13.9457V26.0543C40 30.07 40 32.0773 39.3167 34.239C38.4577 36.599 36.599 38.4577 34.239 39.3163C32.0773 40 30.07 40 26.0543 40H13.9457C9.93 40 7.92233 40 5.761 39.3163C3.401 38.4577 1.54233 36.599 0.683333 34.239C0 32.0773 0 30.07 0 26.0543V13.9457C0 9.93033 0 7.92233 0.683333 5.761C1.54233 3.401 3.401 1.54233 5.761 0.683333C7.92233 0 9.93 0 13.9457 0H26.0543Z" fill="url(#paint0_linear_13_169)"/>
<path d="M16.9688 17.25C15.2601 17.25 13.875 18.6351 13.875 20.3438V24.2812C13.875 25.9899 15.2601 27.375 16.9688 27.375H22.0312C23.7399 27.375 25.125 25.9899 25.125 24.2812V20.3438C25.125 18.6351 23.7399 17.25 22.0312 17.25H16.9688ZM15.5625 20.3438C15.5625 19.567 16.1921 18.9375 16.9688 18.9375H19.5V21.75H15.5625V20.3438ZM15.5625 23.4375H19.5V25.6875H16.9688C16.1921 25.6875 15.5625 25.058 15.5625 24.2812V23.4375ZM21.1875 25.6875V18.9375H22.0312C22.808 18.9375 23.4375 19.567 23.4375 20.3438V24.2812C23.4375 25.058 22.808 25.6875 22.0312 25.6875H21.1875Z" fill="white"/>
<path d="M14.1562 8.25C12.137 8.25 10.5 9.88695 10.5 11.9062V27.0938C10.5 29.113 12.137 30.75 14.1562 30.75H24.8438C26.863 30.75 28.5 29.113 28.5 27.0938V16.4462C28.5 15.4765 28.1148 14.5465 27.4291 13.8609L22.8892 9.32089C22.2035 8.63521 21.2735 8.25 20.3038 8.25H14.1562ZM12.1875 11.9062C12.1875 10.8189 13.0689 9.9375 14.1562 9.9375H20.3038C20.8259 9.9375 21.3267 10.1449 21.6959 10.5141L26.2358 15.0541C26.605 15.4233 26.8125 15.9241 26.8125 16.4462V27.0938C26.8125 28.1811 25.9311 29.0625 24.8438 29.0625H14.1562C13.0689 29.0625 12.1875 28.1811 12.1875 27.0938V11.9062Z" fill="white"/>
<defs>
<linearGradient id="paint0_linear_13_169" x1="0" y1="0" x2="0" y2="40" gradientUnits="userSpaceOnUse">
<stop stop-color="#23D9FD"/>
<stop offset="0.890625" stop-color="#1F63F0"/>
</linearGradient>
</defs>
</svg>
