<svg width="31" height="31" viewBox="0 0 31 31" fill="none" xmlns="http://www.w3.org/2000/svg">
<path d="M6.71665 18.3416C5.29223 18.3416 4.1333 19.5005 4.1333 20.925C4.1333 22.3494 5.29217 23.5084 6.71665 23.5084C8.14108 23.5084 9.30001 22.3495 9.30001 20.925C9.30001 19.5006 8.14114 18.3416 6.71665 18.3416ZM6.71665 22.475C5.8621 22.475 5.16665 21.7796 5.16665 20.925C5.16665 20.0704 5.8621 19.375 6.71665 19.375C7.57121 19.375 8.26665 20.0704 8.26665 20.925C8.26665 21.7796 7.57121 22.475 6.71665 22.475Z" fill="white"/>
<path d="M24.2833 18.3416C22.8589 18.3416 21.7 19.5005 21.7 20.925C21.7 22.3494 22.8588 23.5084 24.2833 23.5084C25.7077 23.5084 26.8667 22.3495 26.8667 20.925C26.8666 19.5006 25.7077 18.3416 24.2833 18.3416ZM24.2833 22.475C23.4287 22.475 22.7333 21.7796 22.7333 20.925C22.7333 20.0704 23.4287 19.375 24.2833 19.375C25.1379 19.375 25.8333 20.0704 25.8333 20.925C25.8333 21.7796 25.1379 22.475 24.2833 22.475Z" fill="white"/>
<path d="M30.4834 18.3416V15.2416C30.4834 15.019 30.3412 14.8216 30.1299 14.7513L27.2133 13.7795C25.9413 11.6611 24.1505 10.3416 21.6095 9.65184L21.1678 7.88278C21.1099 7.65337 20.9037 7.49165 20.6666 7.49165H14.9833C14.7461 7.49165 14.54 7.65337 14.4821 7.88278L13.9655 9.94943C13.965 9.95045 13.9655 9.95203 13.9655 9.95306C11.1884 10.5746 9.07525 11.8105 7.50818 13.6963C4.38959 13.7403 1.08191 14.6377 0.516646 16.275V18.3416C0.230926 18.3416 0 18.5731 0 18.8583V20.925C0 21.2102 0.230926 21.4416 0.516646 21.4416H2.58329C2.86901 21.4416 3.09994 21.2102 3.09994 20.925C3.09994 18.9306 4.72278 17.3084 6.71659 17.3084C8.71039 17.3084 10.3332 18.9307 10.3332 20.925C10.3332 21.2102 10.5642 21.4416 10.8499 21.4416H20.1499C20.4356 21.4416 20.6665 21.2102 20.6665 20.925C20.6665 18.9306 22.2894 17.3084 24.2832 17.3084C26.277 17.3084 27.8998 18.9307 27.8998 20.925C27.8998 21.2102 28.1307 21.4416 28.4165 21.4416H30.4831C30.7688 21.4416 30.9998 21.2102 30.9998 20.925V18.8584C31 18.5731 30.7691 18.3416 30.4834 18.3416ZM12.4 17.05C12.4 17.1926 12.2843 17.3084 12.1416 17.3084H11.1083C10.9657 17.3084 10.8499 17.1926 10.8499 17.05V16.0166C10.8499 15.8741 10.9656 15.7583 11.1083 15.7583H12.1416C12.2842 15.7583 12.4 15.874 12.4 16.0166V17.05ZM14.4666 19.6334C14.4666 19.7759 14.3509 19.8917 14.2083 19.8917H13.175C13.0324 19.8917 12.9166 19.776 12.9166 19.6334V18.6C12.9166 18.4574 13.0324 18.3416 13.175 18.3416H14.2084C14.3509 18.3416 14.4667 18.4574 14.4667 18.6V19.6334H14.4666ZM16.5334 17.05C16.5334 17.1926 16.4176 17.3084 16.275 17.3084H15.2416C15.0991 17.3084 14.9833 17.1926 14.9833 17.05V16.0166C14.9833 15.8741 15.099 15.7583 15.2416 15.7583H16.275C16.4176 15.7583 16.5334 15.874 16.5334 16.0166V17.05ZM16.1304 13.6916H8.89645C10.2677 12.3101 12.5488 10.898 16.9089 10.5756L16.1304 13.6916ZM18.6 19.6334C18.6 19.7759 18.4843 19.8917 18.3416 19.8917H17.3083C17.1657 19.8917 17.0499 19.776 17.0499 19.6334V18.6C17.0499 18.4574 17.1656 18.3416 17.3083 18.3416H18.3416C18.4842 18.3416 18.6 18.4574 18.6 18.6V19.6334ZM20.6666 17.05C20.6666 17.1926 20.5509 17.3084 20.4083 17.3084H19.375C19.2324 17.3084 19.1166 17.1926 19.1166 17.05V16.0166C19.1166 15.8741 19.2324 15.7583 19.375 15.7583H20.4084C20.5509 15.7583 20.6667 15.874 20.6667 16.0166V17.05H20.6666ZM22.8124 13.6916H17.1952L17.9873 10.5219C18.9333 10.4935 19.9656 10.5111 21.0976 10.5875C21.8788 10.7823 22.5763 11.035 23.2025 11.3517L22.8124 13.6916ZM23.8596 13.6916L24.1531 11.9293C24.8305 12.4077 25.4164 12.9854 25.9217 13.6916H23.8596Z" fill="white"/>
</svg>
