<svg width="40" height="50" viewBox="0 0 40 50" fill="none" xmlns="http://www.w3.org/2000/svg">
<path d="M11.512 49V45.166L11.662 45.322H10.078V44.8H13.54V45.322H11.956L12.1 45.166V49H11.512ZM15.9533 49V48.328L15.9233 48.202V47.056C15.9233 46.812 15.8513 46.624 15.7073 46.492C15.5673 46.356 15.3553 46.288 15.0713 46.288C14.8833 46.288 14.6993 46.32 14.5193 46.384C14.3393 46.444 14.1873 46.526 14.0633 46.63L13.8233 46.198C13.9873 46.066 14.1833 45.966 14.4113 45.898C14.6433 45.826 14.8853 45.79 15.1373 45.79C15.5733 45.79 15.9093 45.896 16.1453 46.108C16.3813 46.32 16.4993 46.644 16.4993 47.08V49H15.9533ZM14.9093 49.036C14.6733 49.036 14.4653 48.996 14.2853 48.916C14.1093 48.836 13.9733 48.726 13.8773 48.586C13.7813 48.442 13.7333 48.28 13.7333 48.1C13.7333 47.928 13.7733 47.772 13.8533 47.632C13.9373 47.492 14.0713 47.38 14.2553 47.296C14.4433 47.212 14.6953 47.17 15.0113 47.17H16.0193V47.584H15.0353C14.7473 47.584 14.5533 47.632 14.4533 47.728C14.3533 47.824 14.3033 47.94 14.3033 48.076C14.3033 48.232 14.3653 48.358 14.4893 48.454C14.6133 48.546 14.7853 48.592 15.0053 48.592C15.2213 48.592 15.4093 48.544 15.5693 48.448C15.7333 48.352 15.8513 48.212 15.9233 48.028L16.0373 48.424C15.9613 48.612 15.8273 48.762 15.6353 48.874C15.4433 48.982 15.2013 49.036 14.9093 49.036ZM19.8405 49L18.6105 47.452L19.0845 47.164L20.5185 49H19.8405ZM17.5365 49V45.82H18.1125V49H17.5365ZM17.9385 47.656V47.164H18.9885V47.656H17.9385ZM19.1325 47.476L18.5985 47.404L19.8165 45.82H20.4345L19.1325 47.476ZM22.403 49.036C22.079 49.036 21.789 48.966 21.533 48.826C21.281 48.686 21.083 48.494 20.939 48.25C20.795 48.006 20.723 47.726 20.723 47.41C20.723 47.094 20.795 46.814 20.939 46.57C21.083 46.326 21.281 46.136 21.533 46C21.789 45.86 22.079 45.79 22.403 45.79C22.691 45.79 22.947 45.848 23.171 45.964C23.399 46.076 23.575 46.244 23.699 46.468L23.261 46.75C23.157 46.594 23.029 46.48 22.877 46.408C22.729 46.332 22.569 46.294 22.397 46.294C22.189 46.294 22.003 46.34 21.839 46.432C21.675 46.524 21.545 46.654 21.449 46.822C21.353 46.986 21.305 47.182 21.305 47.41C21.305 47.638 21.353 47.836 21.449 48.004C21.545 48.172 21.675 48.302 21.839 48.394C22.003 48.486 22.189 48.532 22.397 48.532C22.569 48.532 22.729 48.496 22.877 48.424C23.029 48.348 23.157 48.232 23.261 48.076L23.699 48.352C23.575 48.572 23.399 48.742 23.171 48.862C22.947 48.978 22.691 49.036 22.403 49.036ZM24.4447 49V45.82H25.0207V48.136L26.9707 45.82H27.4927V49H26.9167V46.684L24.9727 49H24.4447Z" fill="white"/>
<path fill-rule="evenodd" clip-rule="evenodd" d="M26.0543 0C30.07 0 32.0773 0 34.239 0.683333C36.599 1.54233 38.4577 3.401 39.3167 5.761C40 7.92233 40 9.93033 40 13.9457V26.0543C40 30.07 40 32.0773 39.3167 34.239C38.4577 36.599 36.599 38.4577 34.239 39.3163C32.0773 40 30.07 40 26.0543 40H13.9457C9.93 40 7.92233 40 5.761 39.3163C3.401 38.4577 1.54233 36.599 0.683333 34.239C0 32.0773 0 30.07 0 26.0543V13.9457C0 9.93033 0 7.92233 0.683333 5.761C1.54233 3.401 3.401 1.54233 5.761 0.683333C7.92233 0 9.93 0 13.9457 0H26.0543Z" fill="url(#paint0_linear_13_228)"/>
<path d="M10.7167 22.3416C9.29223 22.3416 8.1333 23.5005 8.1333 24.925C8.1333 26.3494 9.29217 27.5084 10.7167 27.5084C12.1411 27.5084 13.3 26.3495 13.3 24.925C13.3 23.5006 12.1411 22.3416 10.7167 22.3416ZM10.7167 26.475C9.8621 26.475 9.16665 25.7796 9.16665 24.925C9.16665 24.0704 9.8621 23.375 10.7167 23.375C11.5712 23.375 12.2667 24.0704 12.2667 24.925C12.2667 25.7796 11.5712 26.475 10.7167 26.475Z" fill="white"/>
<path d="M28.2833 22.3416C26.8589 22.3416 25.7 23.5005 25.7 24.925C25.7 26.3494 26.8588 27.5084 28.2833 27.5084C29.7077 27.5084 30.8667 26.3495 30.8667 24.925C30.8666 23.5006 29.7077 22.3416 28.2833 22.3416ZM28.2833 26.475C27.4287 26.475 26.7333 25.7796 26.7333 24.925C26.7333 24.0704 27.4287 23.375 28.2833 23.375C29.1379 23.375 29.8333 24.0704 29.8333 24.925C29.8333 25.7796 29.1379 26.475 28.2833 26.475Z" fill="white"/>
<path d="M34.4834 22.3416V19.2416C34.4834 19.019 34.3412 18.8216 34.1299 18.7513L31.2133 17.7795C29.9413 15.6611 28.1505 14.3416 25.6095 13.6518L25.1678 11.8828C25.1099 11.6534 24.9037 11.4916 24.6666 11.4916H18.9833C18.7461 11.4916 18.54 11.6534 18.4821 11.8828L17.9655 13.9494C17.965 13.9505 17.9655 13.952 17.9655 13.9531C15.1884 14.5746 13.0752 15.8105 11.5082 17.6963C8.38959 17.7403 5.08191 18.6377 4.51665 20.275V22.3416C4.23093 22.3416 4 22.5731 4 22.8583V24.925C4 25.2102 4.23093 25.4416 4.51665 25.4416H6.58329C6.86901 25.4416 7.09994 25.2102 7.09994 24.925C7.09994 22.9306 8.72278 21.3084 10.7166 21.3084C12.7104 21.3084 14.3332 22.9307 14.3332 24.925C14.3332 25.2102 14.5642 25.4416 14.8499 25.4416H24.1499C24.4356 25.4416 24.6665 25.2102 24.6665 24.925C24.6665 22.9306 26.2894 21.3084 28.2832 21.3084C30.277 21.3084 31.8998 22.9307 31.8998 24.925C31.8998 25.2102 32.1307 25.4416 32.4165 25.4416H34.4831C34.7688 25.4416 34.9998 25.2102 34.9998 24.925V22.8584C35 22.5731 34.7691 22.3416 34.4834 22.3416ZM16.4 21.05C16.4 21.1926 16.2843 21.3084 16.1416 21.3084H15.1083C14.9657 21.3084 14.8499 21.1926 14.8499 21.05V20.0166C14.8499 19.8741 14.9656 19.7583 15.1083 19.7583H16.1416C16.2842 19.7583 16.4 19.874 16.4 20.0166V21.05ZM18.4666 23.6334C18.4666 23.7759 18.3509 23.8917 18.2083 23.8917H17.175C17.0324 23.8917 16.9166 23.776 16.9166 23.6334V22.6C16.9166 22.4574 17.0324 22.3416 17.175 22.3416H18.2084C18.3509 22.3416 18.4667 22.4574 18.4667 22.6V23.6334H18.4666ZM20.5334 21.05C20.5334 21.1926 20.4176 21.3084 20.275 21.3084H19.2416C19.0991 21.3084 18.9833 21.1926 18.9833 21.05V20.0166C18.9833 19.8741 19.099 19.7583 19.2416 19.7583H20.275C20.4176 19.7583 20.5334 19.874 20.5334 20.0166V21.05ZM20.1304 17.6916H12.8965C14.2677 16.3101 16.5488 14.898 20.9089 14.5756L20.1304 17.6916ZM22.6 23.6334C22.6 23.7759 22.4843 23.8917 22.3416 23.8917H21.3083C21.1657 23.8917 21.0499 23.776 21.0499 23.6334V22.6C21.0499 22.4574 21.1656 22.3416 21.3083 22.3416H22.3416C22.4842 22.3416 22.6 22.4574 22.6 22.6V23.6334ZM24.6666 21.05C24.6666 21.1926 24.5509 21.3084 24.4083 21.3084H23.375C23.2324 21.3084 23.1166 21.1926 23.1166 21.05V20.0166C23.1166 19.8741 23.2324 19.7583 23.375 19.7583H24.4084C24.5509 19.7583 24.6667 19.874 24.6667 20.0166V21.05H24.6666ZM26.8124 17.6916H21.1952L21.9873 14.5219C22.9333 14.4935 23.9656 14.5111 25.0976 14.5875C25.8788 14.7823 26.5763 15.035 27.2025 15.3517L26.8124 17.6916ZM27.8596 17.6916L28.1531 15.9293C28.8305 16.4077 29.4164 16.9854 29.9217 17.6916H27.8596Z" fill="white"/>
<defs>
<linearGradient id="paint0_linear_13_228" x1="0" y1="0" x2="0" y2="40" gradientUnits="userSpaceOnUse">
<stop stop-color="#FFE600"/>
<stop offset="1" stop-color="#C29B10"/>
</linearGradient>
</defs>
</svg>
