<svg width="28" height="28" viewBox="0 0 28 28" fill="none" xmlns="http://www.w3.org/2000/svg">
<path d="M19.9334 7.62913H21.7928C23.051 7.62913 24.0896 8.64063 24.0896 9.926V19.8791C24.0896 21.1374 23.0501 22.176 21.7928 22.176H6.23438C4.97613 22.176 3.9375 21.1365 3.9375 19.8791V9.926C3.9375 8.64063 4.977 7.62913 6.23438 7.62913H8.12088C8.5855 6.89063 9.43338 5.824 10.199 5.824H17.8281C18.5938 5.824 19.4688 6.89063 19.9334 7.62913ZM13.9458 19.2771C16.7624 19.2771 19.0593 16.9803 19.0593 14.1636C19.0593 11.3199 16.7624 9.023 13.9458 9.023C11.102 9.023 8.778 11.3199 8.778 14.1636C8.778 16.9803 11.102 19.2771 13.9458 19.2771ZM14.0271 11.074C15.7229 11.074 17.0896 12.4688 17.0896 14.1636C17.0896 15.8314 15.722 17.2261 14.0271 17.2261C12.3323 17.2261 10.9375 15.8314 10.9375 14.1636C10.9375 12.4679 12.3323 11.074 14.0271 11.074Z" fill="white"/>
</svg>
