<svg width="40" height="51" viewBox="0 0 40 51" fill="none" xmlns="http://www.w3.org/2000/svg">
<path d="M11.48 49L9.956 46.93L10.442 46.63L12.164 49H11.48ZM8.654 49V44.8H9.242V49H8.654ZM9.062 47.152V46.624H10.424V47.152H9.062ZM10.496 46.966L9.944 46.882L11.45 44.8H12.092L10.496 46.966ZM14.674 49V48.328L14.644 48.202V47.056C14.644 46.812 14.572 46.624 14.428 46.492C14.288 46.356 14.076 46.288 13.792 46.288C13.604 46.288 13.42 46.32 13.24 46.384C13.06 46.444 12.908 46.526 12.784 46.63L12.544 46.198C12.708 46.066 12.904 45.966 13.132 45.898C13.364 45.826 13.606 45.79 13.858 45.79C14.294 45.79 14.63 45.896 14.866 46.108C15.102 46.32 15.22 46.644 15.22 47.08V49H14.674ZM13.63 49.036C13.394 49.036 13.186 48.996 13.006 48.916C12.83 48.836 12.694 48.726 12.598 48.586C12.502 48.442 12.454 48.28 12.454 48.1C12.454 47.928 12.494 47.772 12.574 47.632C12.658 47.492 12.792 47.38 12.976 47.296C13.164 47.212 13.416 47.17 13.732 47.17H14.74V47.584H13.756C13.468 47.584 13.274 47.632 13.174 47.728C13.074 47.824 13.024 47.94 13.024 48.076C13.024 48.232 13.086 48.358 13.21 48.454C13.334 48.546 13.506 48.592 13.726 48.592C13.942 48.592 14.13 48.544 14.29 48.448C14.454 48.352 14.572 48.212 14.644 48.028L14.758 48.424C14.682 48.612 14.548 48.762 14.356 48.874C14.164 48.982 13.922 49.036 13.63 49.036ZM16.2572 49V45.82H16.8512L18.2192 48.172H17.9792L19.3832 45.82H19.9232V49H19.4012V46.468L19.4972 46.522L18.2132 48.64H17.9612L16.6712 46.48L16.7852 46.456V49H16.2572ZM22.4603 49.036C22.1203 49.036 21.8203 48.966 21.5603 48.826C21.3043 48.686 21.1043 48.494 20.9603 48.25C20.8203 48.006 20.7503 47.726 20.7503 47.41C20.7503 47.094 20.8183 46.814 20.9543 46.57C21.0943 46.326 21.2843 46.136 21.5243 46C21.7683 45.86 22.0423 45.79 22.3463 45.79C22.6543 45.79 22.9263 45.858 23.1623 45.994C23.3983 46.13 23.5823 46.322 23.7143 46.57C23.8503 46.814 23.9183 47.1 23.9183 47.428C23.9183 47.452 23.9163 47.48 23.9123 47.512C23.9123 47.544 23.9103 47.574 23.9063 47.602H21.2003V47.188H23.6063L23.3723 47.332C23.3763 47.128 23.3343 46.946 23.2463 46.786C23.1583 46.626 23.0363 46.502 22.8803 46.414C22.7283 46.322 22.5503 46.276 22.3463 46.276C22.1463 46.276 21.9683 46.322 21.8123 46.414C21.6563 46.502 21.5343 46.628 21.4463 46.792C21.3583 46.952 21.3143 47.136 21.3143 47.344V47.44C21.3143 47.652 21.3623 47.842 21.4583 48.01C21.5583 48.174 21.6963 48.302 21.8723 48.394C22.0483 48.486 22.2503 48.532 22.4783 48.532C22.6663 48.532 22.8363 48.5 22.9883 48.436C23.1443 48.372 23.2803 48.276 23.3963 48.148L23.7143 48.52C23.5703 48.688 23.3903 48.816 23.1743 48.904C22.9623 48.992 22.7243 49.036 22.4603 49.036ZM26.4979 49.036C26.2339 49.036 25.9919 48.976 25.7719 48.856C25.5559 48.732 25.3819 48.55 25.2499 48.31C25.1219 48.07 25.0579 47.77 25.0579 47.41C25.0579 47.05 25.1199 46.75 25.2439 46.51C25.3719 46.27 25.5439 46.09 25.7599 45.97C25.9799 45.85 26.2259 45.79 26.4979 45.79C26.8099 45.79 27.0859 45.858 27.3259 45.994C27.5659 46.13 27.7559 46.32 27.8959 46.564C28.0359 46.804 28.1059 47.086 28.1059 47.41C28.1059 47.734 28.0359 48.018 27.8959 48.262C27.7559 48.506 27.5659 48.696 27.3259 48.832C27.0859 48.968 26.8099 49.036 26.4979 49.036ZM24.8119 50.164V45.82H25.3639V46.678L25.3279 47.416L25.3879 48.154V50.164H24.8119ZM26.4499 48.532C26.6539 48.532 26.8359 48.486 26.9959 48.394C27.1599 48.302 27.2879 48.172 27.3799 48.004C27.4759 47.832 27.5239 47.634 27.5239 47.41C27.5239 47.182 27.4759 46.986 27.3799 46.822C27.2879 46.654 27.1599 46.524 26.9959 46.432C26.8359 46.34 26.6539 46.294 26.4499 46.294C26.2499 46.294 26.0679 46.34 25.9039 46.432C25.7439 46.524 25.6159 46.654 25.5199 46.822C25.4279 46.986 25.3819 47.182 25.3819 47.41C25.3819 47.634 25.4279 47.832 25.5199 48.004C25.6159 48.172 25.7439 48.302 25.9039 48.394C26.0679 48.486 26.2499 48.532 26.4499 48.532ZM30.8635 49V48.328L30.8335 48.202V47.056C30.8335 46.812 30.7615 46.624 30.6175 46.492C30.4775 46.356 30.2655 46.288 29.9815 46.288C29.7935 46.288 29.6095 46.32 29.4295 46.384C29.2495 46.444 29.0975 46.526 28.9735 46.63L28.7335 46.198C28.8975 46.066 29.0935 45.966 29.3215 45.898C29.5535 45.826 29.7955 45.79 30.0475 45.79C30.4835 45.79 30.8195 45.896 31.0555 46.108C31.2915 46.32 31.4095 46.644 31.4095 47.08V49H30.8635ZM29.8195 49.036C29.5835 49.036 29.3755 48.996 29.1955 48.916C29.0195 48.836 28.8835 48.726 28.7875 48.586C28.6915 48.442 28.6435 48.28 28.6435 48.1C28.6435 47.928 28.6835 47.772 28.7635 47.632C28.8475 47.492 28.9815 47.38 29.1655 47.296C29.3535 47.212 29.6055 47.17 29.9215 47.17H30.9295V47.584H29.9455C29.6575 47.584 29.4635 47.632 29.3635 47.728C29.2635 47.824 29.2135 47.94 29.2135 48.076C29.2135 48.232 29.2755 48.358 29.3995 48.454C29.5235 48.546 29.6955 48.592 29.9155 48.592C30.1315 48.592 30.3195 48.544 30.4795 48.448C30.6435 48.352 30.7615 48.212 30.8335 48.028L30.9475 48.424C30.8715 48.612 30.7375 48.762 30.5455 48.874C30.3535 48.982 30.1115 49.036 29.8195 49.036Z" fill="white"/>
<path fill-rule="evenodd" clip-rule="evenodd" d="M26.0543 0C30.07 0 32.0773 0 34.239 0.683333C36.599 1.54233 38.4577 3.401 39.3167 5.761C40 7.92233 40 9.93033 40 13.9457V26.0543C40 30.07 40 32.0773 39.3167 34.239C38.4577 36.599 36.599 38.4577 34.239 39.3163C32.0773 40 30.07 40 26.0543 40H13.9457C9.93 40 7.92233 40 5.761 39.3163C3.401 38.4577 1.54233 36.599 0.683333 34.239C0 32.0773 0 30.07 0 26.0543V13.9457C0 9.93033 0 7.92233 0.683333 5.761C1.54233 3.401 3.401 1.54233 5.761 0.683333C7.92233 0 9.93 0 13.9457 0H26.0543Z" fill="url(#paint0_linear_13_176)"/>
<g filter="url(#filter0_diiii_13_176)">
<path fill-rule="evenodd" clip-rule="evenodd" d="M6 13.3334H34V28H6V13.3334ZM6 28.6651C6 29.5864 6.74664 30.3334 7.66768 30.3334H32.3323C33.2511 30.3334 34 29.5865 34 28.6651V28.3334H6V28.6651ZM6 13V12.6683C6 11.7469 6.74893 11 7.66768 11H11.687C12.3048 10.9453 12.8812 10.8278 13.2804 10.5935C14.5551 9.84538 14.6427 7.66667 16.6641 7.66667H20.0174H23.3706C25.392 7.66667 25.4797 9.84538 26.7544 10.5935C27.1536 10.8278 27.73 10.9453 28.3478 11H32.3323C33.2534 11 34 11.7469 34 12.6683V13H6ZM26.1666 20.6667C26.1666 17.261 23.4057 14.5 20 14.5C16.5942 14.5 13.8333 17.261 13.8333 20.6667C13.8333 24.0725 16.5942 26.8334 20 26.8334C23.4057 26.8334 26.1666 24.0725 26.1666 20.6667ZM14.8333 20.6667C14.8333 17.8132 17.1465 15.5 20 15.5C22.8535 15.5 25.1666 17.8132 25.1666 20.6667C25.1666 23.5202 22.8535 25.8334 20 25.8334C17.1465 25.8334 14.8333 23.5202 14.8333 20.6667Z" fill="url(#paint1_linear_13_176)"/>
</g>
<g filter="url(#filter1_di_13_176)">
<path fill-rule="evenodd" clip-rule="evenodd" d="M8.66675 10.1667C8.66675 9.89056 8.89048 9.66671 9.16731 9.66671H10.4995C10.776 9.66671 11.0001 9.88864 11.0001 10.1667V10.6667H8.66675V10.1667Z" fill="url(#paint2_linear_13_176)"/>
</g>
<g filter="url(#filter2_di_13_176)">
<path fill-rule="evenodd" clip-rule="evenodd" d="M26.3334 16C26.7016 16 27.0001 15.7016 27.0001 15.3334C27.0001 14.9652 26.7016 14.6667 26.3334 14.6667C25.9652 14.6667 25.6667 14.9652 25.6667 15.3334C25.6667 15.7016 25.9652 16 26.3334 16Z" fill="#FFC209"/>
</g>
<defs>
<filter id="filter0_diiii_13_176" x="6" y="7.66667" width="28" height="23.6667" filterUnits="userSpaceOnUse" color-interpolation-filters="sRGB">
<feFlood flood-opacity="0" result="BackgroundImageFix"/>
<feColorMatrix in="SourceAlpha" type="matrix" values="0 0 0 0 0 0 0 0 0 0 0 0 0 0 0 0 0 0 127 0" result="hardAlpha"/>
<feOffset dy="1"/>
<feColorMatrix type="matrix" values="0 0 0 0 1 0 0 0 0 1 0 0 0 0 1 0 0 0 0.5 0"/>
<feBlend mode="normal" in2="BackgroundImageFix" result="effect1_dropShadow_13_176"/>
<feBlend mode="normal" in="SourceGraphic" in2="effect1_dropShadow_13_176" result="shape"/>
<feColorMatrix in="SourceAlpha" type="matrix" values="0 0 0 0 0 0 0 0 0 0 0 0 0 0 0 0 0 0 127 0" result="hardAlpha"/>
<feOffset dy="1"/>
<feGaussianBlur stdDeviation="1"/>
<feComposite in2="hardAlpha" operator="arithmetic" k2="-1" k3="1"/>
<feColorMatrix type="matrix" values="0 0 0 0 0 0 0 0 0 0 0 0 0 0 0 0 0 0 0.3 0"/>
<feBlend mode="normal" in2="shape" result="effect2_innerShadow_13_176"/>
<feColorMatrix in="SourceAlpha" type="matrix" values="0 0 0 0 0 0 0 0 0 0 0 0 0 0 0 0 0 0 127 0" result="hardAlpha"/>
<feOffset dy="1"/>
<feGaussianBlur stdDeviation="0.5"/>
<feComposite in2="hardAlpha" operator="arithmetic" k2="-1" k3="1"/>
<feColorMatrix type="matrix" values="0 0 0 0 0 0 0 0 0 0 0 0 0 0 0 0 0 0 0.3 0"/>
<feBlend mode="normal" in2="effect2_innerShadow_13_176" result="effect3_innerShadow_13_176"/>
<feColorMatrix in="SourceAlpha" type="matrix" values="0 0 0 0 0 0 0 0 0 0 0 0 0 0 0 0 0 0 127 0" result="hardAlpha"/>
<feOffset/>
<feGaussianBlur stdDeviation="0.5"/>
<feComposite in2="hardAlpha" operator="arithmetic" k2="-1" k3="1"/>
<feColorMatrix type="matrix" values="0 0 0 0 0 0 0 0 0 0 0 0 0 0 0 0 0 0 0.3 0"/>
<feBlend mode="normal" in2="effect3_innerShadow_13_176" result="effect4_innerShadow_13_176"/>
<feColorMatrix in="SourceAlpha" type="matrix" values="0 0 0 0 0 0 0 0 0 0 0 0 0 0 0 0 0 0 127 0" result="hardAlpha"/>
<feOffset/>
<feGaussianBlur stdDeviation="0.5"/>
<feComposite in2="hardAlpha" operator="arithmetic" k2="-1" k3="1"/>
<feColorMatrix type="matrix" values="0 0 0 0 0 0 0 0 0 0 0 0 0 0 0 0 0 0 0.3 0"/>
<feBlend mode="normal" in2="effect4_innerShadow_13_176" result="effect5_innerShadow_13_176"/>
</filter>
<filter id="filter1_di_13_176" x="8.66675" y="9.66671" width="2.33337" height="1" filterUnits="userSpaceOnUse" color-interpolation-filters="sRGB">
<feFlood flood-opacity="0" result="BackgroundImageFix"/>
<feColorMatrix in="SourceAlpha" type="matrix" values="0 0 0 0 0 0 0 0 0 0 0 0 0 0 0 0 0 0 127 0" result="hardAlpha"/>
<feOffset/>
<feColorMatrix type="matrix" values="0 0 0 0 1 0 0 0 0 1 0 0 0 0 1 0 0 0 0.5 0"/>
<feBlend mode="normal" in2="BackgroundImageFix" result="effect1_dropShadow_13_176"/>
<feBlend mode="normal" in="SourceGraphic" in2="effect1_dropShadow_13_176" result="shape"/>
<feColorMatrix in="SourceAlpha" type="matrix" values="0 0 0 0 0 0 0 0 0 0 0 0 0 0 0 0 0 0 127 0" result="hardAlpha"/>
<feOffset dy="1"/>
<feComposite in2="hardAlpha" operator="arithmetic" k2="-1" k3="1"/>
<feColorMatrix type="matrix" values="0 0 0 0 0 0 0 0 0 0 0 0 0 0 0 0 0 0 0.5 0"/>
<feBlend mode="normal" in2="shape" result="effect2_innerShadow_13_176"/>
</filter>
<filter id="filter2_di_13_176" x="25.6667" y="14.6667" width="1.33337" height="1.33333" filterUnits="userSpaceOnUse" color-interpolation-filters="sRGB">
<feFlood flood-opacity="0" result="BackgroundImageFix"/>
<feColorMatrix in="SourceAlpha" type="matrix" values="0 0 0 0 0 0 0 0 0 0 0 0 0 0 0 0 0 0 127 0" result="hardAlpha"/>
<feOffset/>
<feColorMatrix type="matrix" values="0 0 0 0 0 0 0 0 0 0 0 0 0 0 0 0 0 0 0.5 0"/>
<feBlend mode="normal" in2="BackgroundImageFix" result="effect1_dropShadow_13_176"/>
<feBlend mode="normal" in="SourceGraphic" in2="effect1_dropShadow_13_176" result="shape"/>
<feColorMatrix in="SourceAlpha" type="matrix" values="0 0 0 0 0 0 0 0 0 0 0 0 0 0 0 0 0 0 127 0" result="hardAlpha"/>
<feOffset/>
<feGaussianBlur stdDeviation="0.5"/>
<feComposite in2="hardAlpha" operator="arithmetic" k2="-1" k3="1"/>
<feColorMatrix type="matrix" values="0 0 0 0 0 0 0 0 0 0 0 0 0 0 0 0 0 0 0.3 0"/>
<feBlend mode="normal" in2="shape" result="effect2_innerShadow_13_176"/>
</filter>
<linearGradient id="paint0_linear_13_176" x1="0" y1="0" x2="0" y2="40" gradientUnits="userSpaceOnUse">
<stop stop-color="#DBDDDE"/>
<stop offset="1" stop-color="#898B91"/>
</linearGradient>
<linearGradient id="paint1_linear_13_176" x1="6" y1="7.66667" x2="6" y2="30.3333" gradientUnits="userSpaceOnUse">
<stop stop-color="#474747"/>
<stop offset="1" stop-color="#2B2B2B"/>
</linearGradient>
<linearGradient id="paint2_linear_13_176" x1="8.66675" y1="9.66671" x2="8.66675" y2="10.6667" gradientUnits="userSpaceOnUse">
<stop stop-color="#474747"/>
<stop offset="1" stop-color="#2B2B2B"/>
</linearGradient>
</defs>
</svg>
