<svg width="30" height="30" viewBox="0 0 30 30" fill="none" xmlns="http://www.w3.org/2000/svg">
<path d="M22.3439 17.5C23.7673 17.5 24.9298 18.6193 24.9969 20.0267L25 20.1554V20.625C25 22.9722 23.7864 24.7293 21.9249 25.8626C20.0943 26.9771 17.6337 27.5 15 27.5C12.3663 27.5 9.90569 26.9771 8.07513 25.8626C6.26996 24.7637 5.07414 23.0781 5.00333 20.8368L5 20.625V20.1556C5 18.7315 6.12059 17.5701 7.52752 17.5031L7.65619 17.5H22.3439ZM15 2.5C18.4517 2.5 21.25 5.29822 21.25 8.75C21.25 12.2017 18.4517 15 15 15C11.5483 15 8.75 12.2017 8.75 8.75C8.75 5.29822 11.5483 2.5 15 2.5Z" fill="white"/>
</svg>
