<svg width="40" height="50" viewBox="0 0 40 50" fill="none" xmlns="http://www.w3.org/2000/svg">
<mask id="mask0_13_96" style="mask-type:luminance" maskUnits="userSpaceOnUse" x="0" y="0" width="40" height="40">
<path fill-rule="evenodd" clip-rule="evenodd" d="M26.0543 0C30.07 0 32.0773 0 34.239 0.683333C36.599 1.54233 38.4577 3.401 39.3167 5.761C40 7.92233 40 9.93033 40 13.9457V26.0543C40 30.07 40 32.0773 39.3167 34.239C38.4577 36.599 36.599 38.4577 34.239 39.3163C32.0773 40 30.07 40 26.0543 40H13.9457C9.93 40 7.92233 40 5.761 39.3163C3.401 38.4577 1.54233 36.599 0.683333 34.239C0 32.0773 0 30.07 0 26.0543V13.9457C0 9.93033 0 7.92233 0.683333 5.761C1.54233 3.401 3.401 1.54233 5.761 0.683333C7.92233 0 9.93 0 13.9457 0H26.0543Z" fill="white"/>
</mask>
<g mask="url(#mask0_13_96)">
<g filter="url(#filter0_dd_13_96)">
<path fill-rule="evenodd" clip-rule="evenodd" d="M-1 0V44H41V0H-1Z" fill="url(#paint0_linear_13_96)"/>
</g>
</g>
<path d="M27.3439 22.5C28.7673 22.5 29.9298 23.6193 29.9969 25.0267L30 25.1554V25.625C30 27.9722 28.7864 29.7293 26.9249 30.8626C25.0943 31.9771 22.6337 32.5 20 32.5C17.3663 32.5 14.9057 31.9771 13.0751 30.8626C11.27 29.7637 10.0741 28.0781 10.0033 25.8368L10 25.625V25.1556C10 23.7315 11.1206 22.5701 12.5275 22.5031L12.6562 22.5H27.3439ZM20 7.5C23.4517 7.5 26.25 10.2982 26.25 13.75C26.25 17.2017 23.4517 20 20 20C16.5483 20 13.75 17.2017 13.75 13.75C13.75 10.2982 16.5483 7.5 20 7.5Z" fill="white"/>
<path d="M8.48 49L6.956 46.93L7.442 46.63L9.164 49H8.48ZM5.654 49V44.8H6.242V49H5.654ZM6.062 47.152V46.624H7.424V47.152H6.062ZM7.496 46.966L6.944 46.882L8.45 44.8H9.092L7.496 46.966ZM11.004 49.036C10.684 49.036 10.4 48.966 10.152 48.826C9.90398 48.686 9.70798 48.494 9.56398 48.25C9.41998 48.002 9.34798 47.722 9.34798 47.41C9.34798 47.094 9.41998 46.814 9.56398 46.57C9.70798 46.326 9.90398 46.136 10.152 46C10.4 45.86 10.684 45.79 11.004 45.79C11.32 45.79 11.602 45.86 11.85 46C12.102 46.136 12.298 46.326 12.438 46.57C12.582 46.81 12.654 47.09 12.654 47.41C12.654 47.726 12.582 48.006 12.438 48.25C12.298 48.494 12.102 48.686 11.85 48.826C11.602 48.966 11.32 49.036 11.004 49.036ZM11.004 48.532C11.208 48.532 11.39 48.486 11.55 48.394C11.714 48.302 11.842 48.172 11.934 48.004C12.026 47.832 12.072 47.634 12.072 47.41C12.072 47.182 12.026 46.986 11.934 46.822C11.842 46.654 11.714 46.524 11.55 46.432C11.39 46.34 11.208 46.294 11.004 46.294C10.8 46.294 10.618 46.34 10.458 46.432C10.298 46.524 10.17 46.654 10.074 46.822C9.97798 46.986 9.92998 47.182 9.92998 47.41C9.92998 47.634 9.97798 47.832 10.074 48.004C10.17 48.172 10.298 48.302 10.458 48.394C10.618 48.486 10.8 48.532 11.004 48.532ZM13.4857 49V45.82H14.0617V47.17H15.8737V45.82H16.4497V49H15.8737V47.668H14.0617V49H13.4857ZM18.1997 49V46.174L18.3437 46.324H17.0357V45.82H19.9397V46.324H18.6377L18.7757 46.174V49H18.1997ZM22.4787 49V48.328L22.4487 48.202V47.056C22.4487 46.812 22.3767 46.624 22.2327 46.492C22.0927 46.356 21.8807 46.288 21.5967 46.288C21.4087 46.288 21.2247 46.32 21.0447 46.384C20.8647 46.444 20.7127 46.526 20.5887 46.63L20.3487 46.198C20.5127 46.066 20.7087 45.966 20.9367 45.898C21.1687 45.826 21.4107 45.79 21.6627 45.79C22.0987 45.79 22.4347 45.896 22.6707 46.108C22.9067 46.32 23.0247 46.644 23.0247 47.08V49H22.4787ZM21.4347 49.036C21.1987 49.036 20.9907 48.996 20.8107 48.916C20.6347 48.836 20.4987 48.726 20.4027 48.586C20.3067 48.442 20.2587 48.28 20.2587 48.1C20.2587 47.928 20.2987 47.772 20.3787 47.632C20.4627 47.492 20.5967 47.38 20.7807 47.296C20.9687 47.212 21.2207 47.17 21.5367 47.17H22.5447V47.584H21.5607C21.2727 47.584 21.0787 47.632 20.9787 47.728C20.8787 47.824 20.8287 47.94 20.8287 48.076C20.8287 48.232 20.8907 48.358 21.0147 48.454C21.1387 48.546 21.3107 48.592 21.5307 48.592C21.7467 48.592 21.9347 48.544 22.0947 48.448C22.2587 48.352 22.3767 48.212 22.4487 48.028L22.5627 48.424C22.4867 48.612 22.3527 48.762 22.1607 48.874C21.9687 48.982 21.7267 49.036 21.4347 49.036ZM26.3659 49L25.1359 47.452L25.6099 47.164L27.0439 49H26.3659ZM24.0619 49V45.82H24.6379V49H24.0619ZM24.4639 47.656V47.164H25.5139V47.656H24.4639ZM25.6579 47.476L25.1239 47.404L26.3419 45.82H26.9599L25.6579 47.476ZM28.2251 49V46.174L28.3691 46.324H27.0611V45.82H29.9651V46.324H28.6631L28.8011 46.174V49H28.2251ZM33.6981 49V45.82H34.2741V49H33.6981ZM31.9881 46.9C32.3921 46.904 32.6981 46.996 32.9061 47.176C33.1181 47.356 33.2241 47.61 33.2241 47.938C33.2241 48.282 33.1081 48.548 32.8761 48.736C32.6481 48.92 32.3201 49.01 31.8921 49.006L30.5541 49V45.82H31.1301V46.894L31.9881 46.9ZM31.8501 48.568C32.1061 48.572 32.3021 48.52 32.4381 48.412C32.5741 48.304 32.6421 48.144 32.6421 47.932C32.6421 47.724 32.5741 47.572 32.4381 47.476C32.3061 47.38 32.1101 47.33 31.8501 47.326L31.1301 47.314V48.562L31.8501 48.568Z" fill="white"/>
<defs>
<filter id="filter0_dd_13_96" x="-3" y="0" width="46" height="48" filterUnits="userSpaceOnUse" color-interpolation-filters="sRGB">
<feFlood flood-opacity="0" result="BackgroundImageFix"/>
<feColorMatrix in="SourceAlpha" type="matrix" values="0 0 0 0 0 0 0 0 0 0 0 0 0 0 0 0 0 0 127 0" result="hardAlpha"/>
<feOffset dy="2"/>
<feGaussianBlur stdDeviation="1"/>
<feColorMatrix type="matrix" values="0 0 0 0 0 0 0 0 0 0 0 0 0 0 0 0 0 0 0.1 0"/>
<feBlend mode="normal" in2="BackgroundImageFix" result="effect1_dropShadow_13_96"/>
<feColorMatrix in="SourceAlpha" type="matrix" values="0 0 0 0 0 0 0 0 0 0 0 0 0 0 0 0 0 0 127 0" result="hardAlpha"/>
<feOffset dy="1"/>
<feColorMatrix type="matrix" values="0 0 0 0 0 0 0 0 0 0 0 0 0 0 0 0 0 0 0.3 0"/>
<feBlend mode="normal" in2="effect1_dropShadow_13_96" result="effect2_dropShadow_13_96"/>
<feBlend mode="normal" in="SourceGraphic" in2="effect2_dropShadow_13_96" result="shape"/>
</filter>
<linearGradient id="paint0_linear_13_96" x1="-1" y1="0" x2="-1" y2="44" gradientUnits="userSpaceOnUse">
<stop stop-color="#23D9FD"/>
<stop offset="0.890625" stop-color="#1F63F0"/>
</linearGradient>
</defs>
</svg>
