<svg width="25" height="25" viewBox="0 0 25 25" fill="none" xmlns="http://www.w3.org/2000/svg">
<path d="M12.5 1.38889C10.337 1.3907 8.2625 2.24839 6.72974 3.77465C5.19698 5.30091 4.33047 7.37169 4.31946 9.53472C4.31946 12.7778 6.1389 15.4931 7.47224 17.4722L7.71529 17.8333C9.04187 19.756 10.465 21.6102 11.9792 23.3889L12.507 24.0069L13.0347 23.3889C14.5487 21.6101 15.9718 19.7558 17.2986 17.8333L17.5417 17.4653C18.8681 15.4861 20.6875 12.7778 20.6875 9.53472C20.6765 7.37049 19.809 5.29866 18.2748 3.7722C16.7405 2.24575 14.6643 1.38886 12.5 1.38889V1.38889ZM12.5 13.1944C11.599 13.1944 10.7182 12.9273 9.96908 12.4267C9.21993 11.9261 8.63603 11.2146 8.29123 10.3822C7.94643 9.54981 7.85621 8.63384 8.03199 7.75014C8.20777 6.86645 8.64164 6.05473 9.27875 5.41763C9.91586 4.78052 10.7276 4.34664 11.6113 4.17087C12.495 3.99509 13.4109 4.08531 14.2433 4.4301C15.0758 4.7749 15.7873 5.3588 16.2878 6.10796C16.7884 6.85712 17.0556 7.73789 17.0556 8.63889C17.0556 9.8471 16.5756 11.0058 15.7213 11.8602C14.8669 12.7145 13.7082 13.1944 12.5 13.1944V13.1944Z" fill="white"/>
<path d="M12.4999 11.2291C13.9305 11.2291 15.0902 10.0694 15.0902 8.63886C15.0902 7.20829 13.9305 6.04858 12.4999 6.04858C11.0694 6.04858 9.90967 7.20829 9.90967 8.63886C9.90967 10.0694 11.0694 11.2291 12.4999 11.2291Z" fill="white"/>
</svg>
