<svg width="40" height="51" viewBox="0 0 40 51" fill="none" xmlns="http://www.w3.org/2000/svg">
<path d="M5.666 44.8H6.266V49H5.666V44.8ZM3.254 49H2.654V44.8H3.254V49ZM5.72 47.128H3.194V46.606H5.72V47.128ZM9.42988 49V48.328L9.39988 48.202V47.056C9.39988 46.812 9.32788 46.624 9.18388 46.492C9.04388 46.356 8.83188 46.288 8.54788 46.288C8.35988 46.288 8.17588 46.32 7.99588 46.384C7.81588 46.444 7.66388 46.526 7.53988 46.63L7.29988 46.198C7.46388 46.066 7.65988 45.966 7.88788 45.898C8.11988 45.826 8.36188 45.79 8.61388 45.79C9.04988 45.79 9.38588 45.896 9.62188 46.108C9.85788 46.32 9.97588 46.644 9.97588 47.08V49H9.42988ZM8.38588 49.036C8.14988 49.036 7.94188 48.996 7.76188 48.916C7.58588 48.836 7.44988 48.726 7.35388 48.586C7.25788 48.442 7.20988 48.28 7.20988 48.1C7.20988 47.928 7.24988 47.772 7.32988 47.632C7.41388 47.492 7.54788 47.38 7.73188 47.296C7.91988 47.212 8.17188 47.17 8.48788 47.17H9.49588V47.584H8.51188C8.22388 47.584 8.02988 47.632 7.92988 47.728C7.82988 47.824 7.77988 47.94 7.77988 48.076C7.77988 48.232 7.84188 48.358 7.96588 48.454C8.08988 48.546 8.26188 48.592 8.48188 48.592C8.69788 48.592 8.88588 48.544 9.04588 48.448C9.20988 48.352 9.32788 48.212 9.39988 48.028L9.51388 48.424C9.43788 48.612 9.30388 48.762 9.11188 48.874C8.91988 48.982 8.67788 49.036 8.38588 49.036ZM11.0131 49V45.82H12.4891C12.8611 45.82 13.1531 45.892 13.3651 46.036C13.5811 46.176 13.6891 46.376 13.6891 46.636C13.6891 46.896 13.5871 47.098 13.3831 47.242C13.1831 47.382 12.9171 47.452 12.5851 47.452L12.6751 47.296C13.0551 47.296 13.3371 47.366 13.5211 47.506C13.7051 47.646 13.7971 47.852 13.7971 48.124C13.7971 48.4 13.6931 48.616 13.4851 48.772C13.2811 48.924 12.9671 49 12.5431 49H11.0131ZM11.5771 48.556H12.5011C12.7411 48.556 12.9211 48.52 13.0411 48.448C13.1611 48.372 13.2211 48.252 13.2211 48.088C13.2211 47.92 13.1651 47.798 13.0531 47.722C12.9451 47.642 12.7731 47.602 12.5371 47.602H11.5771V48.556ZM11.5771 47.188H12.4411C12.6611 47.188 12.8271 47.148 12.9391 47.068C13.0551 46.984 13.1131 46.868 13.1131 46.72C13.1131 46.568 13.0551 46.454 12.9391 46.378C12.8271 46.302 12.6611 46.264 12.4411 46.264H11.5771V47.188ZM14.6986 49V45.82H15.2746V48.136L17.2246 45.82H17.7466V49H17.1706V46.684L15.2266 49H14.6986ZM18.8646 49V45.82H21.2046V46.324H19.3026L19.4406 46.192V49H18.8646ZM23.7443 49V48.328L23.7143 48.202V47.056C23.7143 46.812 23.6423 46.624 23.4983 46.492C23.3583 46.356 23.1463 46.288 22.8623 46.288C22.6743 46.288 22.4903 46.32 22.3103 46.384C22.1303 46.444 21.9783 46.526 21.8543 46.63L21.6143 46.198C21.7783 46.066 21.9743 45.966 22.2023 45.898C22.4343 45.826 22.6763 45.79 22.9283 45.79C23.3643 45.79 23.7003 45.896 23.9363 46.108C24.1723 46.32 24.2903 46.644 24.2903 47.08V49H23.7443ZM22.7003 49.036C22.4643 49.036 22.2563 48.996 22.0763 48.916C21.9003 48.836 21.7643 48.726 21.6683 48.586C21.5723 48.442 21.5243 48.28 21.5243 48.1C21.5243 47.928 21.5643 47.772 21.6443 47.632C21.7283 47.492 21.8623 47.38 22.0463 47.296C22.2343 47.212 22.4863 47.17 22.8023 47.17H23.8103V47.584H22.8263C22.5383 47.584 22.3443 47.632 22.2443 47.728C22.1443 47.824 22.0943 47.94 22.0943 48.076C22.0943 48.232 22.1563 48.358 22.2803 48.454C22.4043 48.546 22.5763 48.592 22.7963 48.592C23.0123 48.592 23.2003 48.544 23.3603 48.448C23.5243 48.352 23.6423 48.212 23.7143 48.028L23.8283 48.424C23.7523 48.612 23.6183 48.762 23.4263 48.874C23.2343 48.982 22.9923 49.036 22.7003 49.036ZM25.9575 49V46.174L26.1015 46.324H24.7935V45.82H27.6975V46.324H26.3955L26.5335 46.174V49H25.9575ZM29.5079 49.036C29.1879 49.036 28.9039 48.966 28.6559 48.826C28.4079 48.686 28.2119 48.494 28.0679 48.25C27.9239 48.002 27.8519 47.722 27.8519 47.41C27.8519 47.094 27.9239 46.814 28.0679 46.57C28.2119 46.326 28.4079 46.136 28.6559 46C28.9039 45.86 29.1879 45.79 29.5079 45.79C29.8239 45.79 30.1059 45.86 30.3539 46C30.6059 46.136 30.8019 46.326 30.9419 46.57C31.0859 46.81 31.1579 47.09 31.1579 47.41C31.1579 47.726 31.0859 48.006 30.9419 48.25C30.8019 48.494 30.6059 48.686 30.3539 48.826C30.1059 48.966 29.8239 49.036 29.5079 49.036ZM29.5079 48.532C29.7119 48.532 29.8939 48.486 30.0539 48.394C30.2179 48.302 30.3459 48.172 30.4379 48.004C30.5299 47.832 30.5759 47.634 30.5759 47.41C30.5759 47.182 30.5299 46.986 30.4379 46.822C30.3459 46.654 30.2179 46.524 30.0539 46.432C29.8939 46.34 29.7119 46.294 29.5079 46.294C29.3039 46.294 29.1219 46.34 28.9619 46.432C28.8019 46.524 28.6739 46.654 28.5779 46.822C28.4819 46.986 28.4339 47.182 28.4339 47.41C28.4339 47.634 28.4819 47.832 28.5779 48.004C28.6739 48.172 28.8019 48.302 28.9619 48.394C29.1219 48.486 29.3039 48.532 29.5079 48.532ZM33.6756 49.036C33.4116 49.036 33.1696 48.976 32.9496 48.856C32.7336 48.732 32.5596 48.55 32.4276 48.31C32.2996 48.07 32.2356 47.77 32.2356 47.41C32.2356 47.05 32.2976 46.75 32.4216 46.51C32.5496 46.27 32.7216 46.09 32.9376 45.97C33.1576 45.85 33.4036 45.79 33.6756 45.79C33.9876 45.79 34.2636 45.858 34.5036 45.994C34.7436 46.13 34.9336 46.32 35.0736 46.564C35.2136 46.804 35.2836 47.086 35.2836 47.41C35.2836 47.734 35.2136 48.018 35.0736 48.262C34.9336 48.506 34.7436 48.696 34.5036 48.832C34.2636 48.968 33.9876 49.036 33.6756 49.036ZM31.9896 50.164V45.82H32.5416V46.678L32.5056 47.416L32.5656 48.154V50.164H31.9896ZM33.6276 48.532C33.8316 48.532 34.0136 48.486 34.1736 48.394C34.3376 48.302 34.4656 48.172 34.5576 48.004C34.6536 47.832 34.7016 47.634 34.7016 47.41C34.7016 47.182 34.6536 46.986 34.5576 46.822C34.4656 46.654 34.3376 46.524 34.1736 46.432C34.0136 46.34 33.8316 46.294 33.6276 46.294C33.4276 46.294 33.2456 46.34 33.0816 46.432C32.9216 46.524 32.7936 46.654 32.6976 46.822C32.6056 46.986 32.5596 47.182 32.5596 47.41C32.5596 47.634 32.6056 47.832 32.6976 48.004C32.7936 48.172 32.9216 48.302 33.0816 48.394C33.2456 48.486 33.4276 48.532 33.6276 48.532Z" fill="white"/>
<mask id="mask0_13_193" style="mask-type:luminance" maskUnits="userSpaceOnUse" x="0" y="0" width="40" height="40">
<path fill-rule="evenodd" clip-rule="evenodd" d="M26.0543 0C30.07 0 32.0773 0 34.239 0.683333C36.599 1.54233 38.4577 3.401 39.3167 5.761C40 7.92233 40 9.93033 40 13.9457V26.0543C40 30.07 40 32.0773 39.3167 34.239C38.4577 36.599 36.599 38.4577 34.239 39.3163C32.0773 40 30.07 40 26.0543 40H13.9457C9.93 40 7.92233 40 5.761 39.3163C3.401 38.4577 1.54233 36.599 0.683333 34.239C0 32.0773 0 30.07 0 26.0543V13.9457C0 9.93033 0 7.92233 0.683333 5.761C1.54233 3.401 3.401 1.54233 5.761 0.683333C7.92233 0 9.93 0 13.9457 0H26.0543Z" fill="white"/>
</mask>
<g mask="url(#mask0_13_193)">
<path fill-rule="evenodd" clip-rule="evenodd" d="M26.0543 0C30.07 0 32.0773 0 34.239 0.683333C36.599 1.54233 38.4577 3.401 39.3167 5.761C40 7.92233 40 9.93033 40 13.9457V26.0543C40 30.07 40 32.0773 39.3167 34.239C38.4577 36.599 36.599 38.4577 34.239 39.3163C32.0773 40 30.07 40 26.0543 40H13.9457C9.93 40 7.92233 40 5.761 39.3163C3.401 38.4577 1.54233 36.599 0.683333 34.239C0 32.0773 0 30.07 0 26.0543V13.9457C0 9.93033 0 7.92233 0.683333 5.761C1.54233 3.401 3.401 1.54233 5.761 0.683333C7.92233 0 9.93 0 13.9457 0H26.0543Z" fill="#E4DDC9"/>
<path fill-rule="evenodd" clip-rule="evenodd" d="M0 0H28V6.66667H0V0Z" fill="#76C63B"/>
<path fill-rule="evenodd" clip-rule="evenodd" d="M30 0.333334H40V7H30V0.333334Z" fill="#FBC6D1"/>
<path d="M-2.75033 19.9872L-2.75033 19.9872L-2.75113 19.9873L-3.25 20V27V27.3039L-2.95189 27.2453L-2.95183 27.2453L-2.95182 27.2453L-2.95121 27.2452L-2.94826 27.2446L-2.93539 27.2422C-2.92375 27.24 -2.90605 27.2368 -2.88253 27.2326C-2.83549 27.2243 -2.76518 27.2124 -2.67364 27.1983C-2.49054 27.17 -2.22259 27.1329 -1.88593 27.0977C-1.21231 27.0274 -0.265167 26.9653 0.826848 26.9987C3.01585 27.0657 5.76156 27.5155 8.05712 29.0253C10.3547 30.5364 11.2857 31.6718 12.4299 33.0847L12.4673 33.1308C13.6159 34.5491 14.9845 36.2392 18.1025 38.8109L18.1101 38.8171L18.1182 38.8228C22.0732 41.5919 28.0247 42.9002 31.852 43.3671C33.7679 43.6009 36.6368 43.8215 39.0223 43.9835C40.2159 44.0646 41.2902 44.1311 42.066 44.1774C42.4539 44.2005 42.7673 44.2186 42.9837 44.2308L43.2328 44.2448L43.2976 44.2484L43.3141 44.2493L43.3183 44.2496L43.3194 44.2496L43.3197 44.2496L43.3333 44L43.3197 44.2496L43.5833 44.264V44V37.3333V37.0577L43.309 37.0845L43.3333 37.3333L43.309 37.0845L43.3088 37.0845L43.3081 37.0846L43.3052 37.0849L43.2931 37.086L43.2453 37.0906C43.2031 37.0945 43.1406 37.1002 43.0594 37.1074C42.897 37.1217 42.6602 37.1418 42.3633 37.1647C41.7695 37.2105 40.9356 37.2676 39.9755 37.3126C38.0527 37.4027 35.6345 37.4437 33.6277 37.2513C29.6036 36.8656 24.6434 35.6274 20.8406 31.9436C19.7269 30.8648 18.7438 29.7286 17.7472 28.577C17.3861 28.1596 17.0232 27.7402 16.6517 27.3208C15.26 25.7496 13.76 24.1934 11.8172 22.8029C8.96125 20.7587 5.41524 20.0651 2.52117 19.8862C0.0102427 19.7309 -2.03386 19.9622 -2.74632 20.0504C-2.74671 20.045 -2.74708 20.0397 -2.74741 20.0348L-2.74963 19.9997L-2.75017 19.9901L-2.7503 19.9878L-2.75032 19.9873L-2.75033 19.9872Z" fill="#FFDE02" stroke="#FEB312" stroke-width="0.5"/>
<path fill-rule="evenodd" clip-rule="evenodd" d="M33.6667 40H27.6667V12.562H0V6.61157H27.6667V0H33.6667V6.61157H40V12.562H33.6667V24.4628H40V30.4132H33.6667V40Z" fill="white"/>
<path d="M33.6667 40.25H33.9167V40V30.6632H40H40.25V30.4132V24.4628V24.2128H40H33.9167V12.812H40H40.25V12.562V6.61157V6.36157H40H33.9167V0V-0.25H33.6667H27.6667H27.4167V0V6.36157H0H-0.25V6.61157V12.562V12.812H0H27.4167V40V40.25H27.6667H33.6667Z" stroke="black" stroke-opacity="0.1" stroke-width="0.5"/>
<path fill-rule="evenodd" clip-rule="evenodd" d="M29.1043 23.6667H28.9659V11.3333H-0.666748V8H32.3333V9.66667V23.6667H32.1948C31.7245 23.4527 31.2011 23.3333 30.6496 23.3333C30.098 23.3333 29.5746 23.4527 29.1043 23.6667Z" fill="#409BFF"/>
<path fill-rule="evenodd" clip-rule="evenodd" d="M30.6667 31C32.6917 31 34.3333 29.3584 34.3333 27.3333C34.3333 25.3083 32.6917 23.6667 30.6667 23.6667C28.6416 23.6667 27 25.3083 27 27.3333C27 29.3584 28.6416 31 30.6667 31Z" fill="#007AFF"/>
<path fill-rule="evenodd" clip-rule="evenodd" d="M32.1667 29.5L30.6667 24.7692L29.1667 29.5L30.6667 28.1026L32.1667 29.5Z" fill="white"/>
<mask id="mask1_13_193" style="mask-type:luminance" maskUnits="userSpaceOnUse" x="5" y="15" width="18" height="13">
<path d="M13.8333 27.75C11.3281 27.75 9.40631 26.834 8.08322 25.4159C6.75664 23.9941 6.01886 22.053 5.91635 19.9876C5.85227 18.6966 6.25717 17.1809 6.75428 16.2025C7.1123 16.4073 7.55879 16.5703 8.0279 16.6882C8.61132 16.8349 9.24928 16.9167 9.83332 16.9167C10.7136 16.9167 11.621 16.8122 12.377 16.5712C12.966 16.3835 13.4961 16.102 13.8333 15.6931C14.1705 16.102 14.7007 16.3835 15.2897 16.5712C16.0457 16.8122 16.9531 16.9167 17.8333 16.9167C18.4174 16.9167 19.0553 16.8349 19.6388 16.6882C20.1126 16.5691 20.5633 16.404 20.9231 16.1963C21.1427 16.5957 21.3513 17.1557 21.5057 17.7761C21.6889 18.5122 21.7897 19.3086 21.7504 19.9855C21.6304 22.0519 20.8922 23.9937 19.5698 25.4158C18.2511 26.8339 16.3383 27.75 13.8333 27.75Z" fill="white" stroke="white" stroke-width="0.5"/>
</mask>
<g mask="url(#mask1_13_193)">
<path d="M13.8333 27.75C11.3281 27.75 9.40631 26.834 8.08322 25.4159C6.75664 23.9941 6.01886 22.053 5.91635 19.9876C5.85227 18.6966 6.25717 17.1809 6.75428 16.2025C7.1123 16.4073 7.55879 16.5703 8.0279 16.6882C8.61132 16.8349 9.24928 16.9167 9.83332 16.9167C10.7136 16.9167 11.621 16.8122 12.377 16.5712C12.966 16.3835 13.4961 16.102 13.8333 15.6931C14.1705 16.102 14.7007 16.3835 15.2897 16.5712C16.0457 16.8122 16.9531 16.9167 17.8333 16.9167C18.4174 16.9167 19.0553 16.8349 19.6388 16.6882C20.1126 16.5691 20.5633 16.404 20.9231 16.1963C21.1427 16.5957 21.3513 17.1557 21.5057 17.7761C21.6889 18.5122 21.7897 19.3086 21.7504 19.9855C21.6304 22.0519 20.8922 23.9937 19.5698 25.4158C18.2511 26.8339 16.3383 27.75 13.8333 27.75Z" fill="#007AFF" stroke="white" stroke-width="0.5"/>
<g filter="url(#filter0_d_13_193)">
<path fill-rule="evenodd" clip-rule="evenodd" d="M5.33325 15.3333H21.9999V18.6667H5.33325V15.3333Z" fill="#DE1D26"/>
</g>
<path d="M13.8333 27.625C11.3611 27.625 9.47292 26.7222 8.17462 25.3307C6.87107 23.9336 6.14247 22.0219 6.0412 19.9814C5.98076 18.7637 6.34711 17.3364 6.80867 16.3746C7.15774 16.5571 7.5709 16.7022 7.99742 16.8095C8.59029 16.9585 9.23848 17.0417 9.83332 17.0417C10.722 17.0417 11.643 16.9364 12.4149 16.6903C12.9614 16.5161 13.4746 16.2578 13.8333 15.8814C14.1921 16.2578 14.7053 16.5161 15.2517 16.6903C16.0236 16.9364 16.9447 17.0417 17.8333 17.0417C18.4282 17.0417 19.0764 16.9585 19.6692 16.8095C20.1015 16.7008 20.52 16.5532 20.872 16.3673C21.0633 16.7442 21.2454 17.2479 21.3844 17.8063C21.5655 18.5339 21.664 19.3172 21.6256 19.9783C21.507 22.0204 20.7777 23.9332 19.4782 25.3306C18.1843 26.7221 16.3052 27.625 13.8333 27.625Z" stroke="white" stroke-width="0.75"/>
<path fill-rule="evenodd" clip-rule="evenodd" d="M9.09339 21.252H9.60339C9.59939 21.124 9.61239 20.997 9.64239 20.871C9.67239 20.745 9.72139 20.632 9.78939 20.532C9.85739 20.432 9.94439 20.351 10.0504 20.289C10.1564 20.227 10.2834 20.196 10.4314 20.196C10.5434 20.196 10.6494 20.214 10.7494 20.25C10.8494 20.286 10.9364 20.338 11.0104 20.406C11.0844 20.474 11.1434 20.555 11.1874 20.649C11.2314 20.743 11.2534 20.848 11.2534 20.964C11.2534 21.112 11.2304 21.242 11.1844 21.354C11.1384 21.466 11.0704 21.57 10.9804 21.666C10.8904 21.762 10.7774 21.857 10.6414 21.951C10.5054 22.045 10.3474 22.148 10.1674 22.26C10.0194 22.348 9.87739 22.442 9.74139 22.542C9.60539 22.642 9.48339 22.758 9.37539 22.89C9.26739 23.022 9.17839 23.177 9.10839 23.355C9.03839 23.533 8.99339 23.748 8.97339 24H11.7514V23.55H9.56739C9.59139 23.418 9.64239 23.301 9.72039 23.199C9.79839 23.097 9.89239 23.002 10.0024 22.914C10.1124 22.826 10.2334 22.743 10.3654 22.665C10.4974 22.587 10.6294 22.508 10.7614 22.428C10.8934 22.344 11.0214 22.256 11.1454 22.164C11.2694 22.072 11.3794 21.969 11.4754 21.855C11.5714 21.741 11.6484 21.612 11.7064 21.468C11.7644 21.324 11.7934 21.158 11.7934 20.97C11.7934 20.77 11.7584 20.594 11.6884 20.442C11.6184 20.29 11.5234 20.163 11.4034 20.061C11.2834 19.959 11.1424 19.881 10.9804 19.827C10.8184 19.773 10.6454 19.746 10.4614 19.746C10.2374 19.746 10.0374 19.784 9.86139 19.86C9.68539 19.936 9.53839 20.041 9.42039 20.175C9.30239 20.309 9.21539 20.468 9.15939 20.652C9.10339 20.836 9.08139 21.036 9.09339 21.252ZM13.0953 20.8501C13.0953 20.7421 13.1153 20.6481 13.1553 20.5681C13.1953 20.4881 13.2483 20.4201 13.3143 20.3641C13.3803 20.3081 13.4593 20.2661 13.5513 20.2381C13.6433 20.2101 13.7393 20.1961 13.8393 20.1961C14.0473 20.1961 14.2183 20.2511 14.3523 20.3611C14.4863 20.4711 14.5533 20.6341 14.5533 20.8501C14.5533 21.0661 14.4873 21.2341 14.3553 21.3541C14.2233 21.4741 14.0553 21.5341 13.8513 21.5341C13.7473 21.5341 13.6493 21.5201 13.5573 21.4921C13.4653 21.4641 13.3853 21.4221 13.3173 21.3661C13.2493 21.3101 13.1953 21.2391 13.1553 21.1531C13.1153 21.0671 13.0953 20.9661 13.0953 20.8501ZM12.5554 20.832C12.5554 21.024 12.6094 21.201 12.7174 21.363C12.8254 21.525 12.9694 21.642 13.1494 21.714C12.9094 21.798 12.7254 21.933 12.5974 22.119C12.4694 22.305 12.4054 22.524 12.4054 22.776C12.4054 22.992 12.4424 23.181 12.5164 23.343C12.5904 23.505 12.6924 23.64 12.8224 23.748C12.9524 23.856 13.1054 23.936 13.2814 23.988C13.4574 24.04 13.6474 24.066 13.8514 24.066C14.0474 24.066 14.2314 24.038 14.4034 23.982C14.5754 23.926 14.7244 23.843 14.8504 23.733C14.9764 23.623 15.0764 23.488 15.1504 23.328C15.2244 23.168 15.2614 22.984 15.2614 22.776C15.2614 22.512 15.1994 22.289 15.0754 22.107C14.9514 21.925 14.7614 21.794 14.5054 21.714C14.6854 21.634 14.8284 21.515 14.9344 21.357C15.0404 21.199 15.0934 21.024 15.0934 20.832C15.0934 20.696 15.0694 20.563 15.0214 20.433C14.9734 20.303 14.8984 20.187 14.7964 20.085C14.6944 19.983 14.5614 19.901 14.3974 19.839C14.2334 19.777 14.0354 19.746 13.8034 19.746C13.6394 19.746 13.4824 19.77 13.3324 19.818C13.1824 19.866 13.0494 19.936 12.9334 20.028C12.8174 20.12 12.7254 20.233 12.6574 20.367C12.5894 20.501 12.5554 20.656 12.5554 20.832ZM12.9454 22.8001C12.9454 22.6761 12.9684 22.5641 13.0144 22.4641C13.0604 22.3641 13.1244 22.2781 13.2064 22.2061C13.2884 22.1341 13.3844 22.0791 13.4944 22.0411C13.6044 22.0031 13.7214 21.9841 13.8454 21.9841C13.9654 21.9841 14.0784 22.0051 14.1844 22.0471C14.2904 22.0891 14.3834 22.1461 14.4634 22.2181C14.5434 22.2901 14.6064 22.3751 14.6524 22.4731C14.6984 22.5711 14.7214 22.6781 14.7214 22.7941C14.7214 22.9141 14.7004 23.0241 14.6584 23.1241C14.6164 23.2241 14.5564 23.3111 14.4784 23.3851C14.4004 23.4591 14.3084 23.5171 14.2024 23.5591C14.0964 23.6011 13.9794 23.6221 13.8514 23.6221C13.5874 23.6221 13.3704 23.5491 13.2004 23.4031C13.0304 23.2571 12.9454 23.0561 12.9454 22.8001ZM16.2933 21.9061C16.2933 21.8021 16.2943 21.6871 16.2963 21.5611C16.2983 21.4351 16.3083 21.3091 16.3263 21.1831C16.3443 21.0571 16.3703 20.9341 16.4043 20.8141C16.4383 20.6941 16.4883 20.5891 16.5543 20.4991C16.6203 20.4091 16.7033 20.3361 16.8033 20.2801C16.9033 20.2241 17.0253 20.1961 17.1693 20.1961C17.3133 20.1961 17.4353 20.2241 17.5353 20.2801C17.6353 20.3361 17.7183 20.4091 17.7843 20.4991C17.8503 20.5891 17.9003 20.6941 17.9343 20.8141C17.9683 20.9341 17.9943 21.0571 18.0123 21.1831C18.0303 21.3091 18.0403 21.4351 18.0423 21.5611C18.0443 21.6871 18.0453 21.8021 18.0453 21.9061C18.0453 22.0661 18.0403 22.2451 18.0303 22.4431C18.0203 22.6411 17.9883 22.8271 17.9343 23.0011C17.8803 23.1751 17.7933 23.3221 17.6733 23.4421C17.5533 23.5621 17.3853 23.6221 17.1693 23.6221C16.9533 23.6221 16.7853 23.5621 16.6653 23.4421C16.5453 23.3221 16.4583 23.1751 16.4043 23.0011C16.3503 22.8271 16.3183 22.6411 16.3083 22.4431C16.2983 22.2451 16.2933 22.0661 16.2933 21.9061ZM15.7534 21.912C15.7534 22.068 15.7574 22.23 15.7654 22.398C15.7734 22.566 15.7934 22.73 15.8254 22.89C15.8574 23.05 15.9034 23.201 15.9634 23.343C16.0234 23.485 16.1054 23.61 16.2094 23.718C16.3134 23.826 16.4444 23.911 16.6024 23.973C16.7604 24.035 16.9494 24.066 17.1694 24.066C17.3934 24.066 17.5834 24.035 17.7394 23.973C17.8954 23.911 18.0254 23.826 18.1294 23.718C18.2334 23.61 18.3154 23.485 18.3754 23.343C18.4354 23.201 18.4814 23.05 18.5134 22.89C18.5454 22.73 18.5654 22.566 18.5734 22.398C18.5814 22.23 18.5854 22.068 18.5854 21.912C18.5854 21.756 18.5814 21.594 18.5734 21.426C18.5654 21.258 18.5454 21.094 18.5134 20.934C18.4814 20.774 18.4354 20.622 18.3754 20.478C18.3154 20.334 18.2334 20.208 18.1294 20.1C18.0254 19.992 17.8944 19.906 17.7364 19.842C17.5784 19.778 17.3894 19.746 17.1694 19.746C16.9494 19.746 16.7604 19.778 16.6024 19.842C16.4444 19.906 16.3134 19.992 16.2094 20.1C16.1054 20.208 16.0234 20.334 15.9634 20.478C15.9034 20.622 15.8574 20.774 15.8254 20.934C15.7934 21.094 15.7734 21.258 15.7654 21.426C15.7574 21.594 15.7534 21.756 15.7534 21.912Z" fill="white"/>
</g>
</g>
<defs>
<filter id="filter0_d_13_193" x="5.33325" y="15.3333" width="16.6666" height="4.33333" filterUnits="userSpaceOnUse" color-interpolation-filters="sRGB">
<feFlood flood-opacity="0" result="BackgroundImageFix"/>
<feColorMatrix in="SourceAlpha" type="matrix" values="0 0 0 0 0 0 0 0 0 0 0 0 0 0 0 0 0 0 127 0" result="hardAlpha"/>
<feOffset dy="1"/>
<feColorMatrix type="matrix" values="0 0 0 0 1 0 0 0 0 1 0 0 0 0 1 0 0 0 1 0"/>
<feBlend mode="normal" in2="BackgroundImageFix" result="effect1_dropShadow_13_193"/>
<feBlend mode="normal" in="SourceGraphic" in2="effect1_dropShadow_13_193" result="shape"/>
</filter>
</defs>
</svg>
