<svg width="40" height="51" viewBox="0 0 40 51" fill="none" xmlns="http://www.w3.org/2000/svg">
<path d="M7.654 49V44.8H8.146L10.03 47.974H9.766L11.626 44.8H12.118L12.124 49H11.548L11.542 45.706H11.68L10.024 48.49H9.748L8.08 45.706H8.23V49H7.654ZM13.4973 50.2C13.3453 50.2 13.1973 50.174 13.0533 50.122C12.9093 50.074 12.7853 50.002 12.6813 49.906L12.9273 49.474C13.0073 49.55 13.0953 49.608 13.1913 49.648C13.2873 49.688 13.3893 49.708 13.4973 49.708C13.6373 49.708 13.7533 49.672 13.8453 49.6C13.9373 49.528 14.0233 49.4 14.1033 49.216L14.3013 48.778L14.3613 48.706L15.6093 45.82H16.1733L14.6313 49.318C14.5393 49.542 14.4353 49.718 14.3193 49.846C14.2073 49.974 14.0833 50.064 13.9473 50.116C13.8113 50.172 13.6613 50.2 13.4973 50.2ZM14.2533 49.102L12.8013 45.82H13.4013L14.6373 48.652L14.2533 49.102ZM17.6169 49.042C17.8969 49.042 18.1449 49.002 18.3609 48.922C18.5809 48.838 18.7549 48.724 18.8829 48.58C19.0109 48.432 19.0749 48.262 19.0749 48.07C19.0749 47.83 18.9729 47.64 18.7689 47.5C18.5649 47.36 18.2849 47.29 17.9289 47.29L17.9049 47.428C18.1129 47.428 18.2969 47.394 18.4569 47.326C18.6169 47.258 18.7449 47.166 18.8409 47.05C18.9369 46.93 18.9849 46.794 18.9849 46.642C18.9849 46.462 18.9209 46.306 18.7929 46.174C18.6689 46.042 18.4989 45.942 18.2829 45.874C18.0669 45.802 17.8209 45.77 17.5449 45.778C17.3609 45.782 17.1749 45.81 16.9869 45.862C16.8029 45.91 16.6149 45.98 16.4229 46.072L16.5789 46.522C16.7509 46.438 16.9189 46.376 17.0829 46.336C17.2509 46.296 17.4149 46.274 17.5749 46.27C17.7389 46.27 17.8809 46.288 18.0009 46.324C18.1249 46.36 18.2209 46.412 18.2889 46.48C18.3569 46.548 18.3909 46.63 18.3909 46.726C18.3909 46.814 18.3609 46.892 18.3009 46.96C18.2449 47.024 18.1649 47.072 18.0609 47.104C17.9569 47.136 17.8349 47.152 17.6949 47.152H17.1549V47.566H17.7309C17.9669 47.566 18.1509 47.606 18.2829 47.686C18.4149 47.766 18.4809 47.88 18.4809 48.028C18.4809 48.132 18.4449 48.224 18.3729 48.304C18.3009 48.38 18.1969 48.44 18.0609 48.484C17.9289 48.528 17.7709 48.55 17.5869 48.55C17.3869 48.55 17.1889 48.524 16.9929 48.472C16.7969 48.416 16.6229 48.34 16.4709 48.244L16.2969 48.682C16.4769 48.798 16.6809 48.888 16.9089 48.952C17.1409 49.012 17.3769 49.042 17.6169 49.042ZM23.0946 49V45.82H23.6706V49H23.0946ZM21.3846 46.9C21.7886 46.904 22.0946 46.996 22.3026 47.176C22.5146 47.356 22.6206 47.61 22.6206 47.938C22.6206 48.282 22.5046 48.548 22.2726 48.736C22.0446 48.92 21.7166 49.01 21.2886 49.006L19.9506 49V45.82H20.5266V46.894L21.3846 46.9ZM21.2466 48.568C21.5026 48.572 21.6986 48.52 21.8346 48.412C21.9706 48.304 22.0386 48.144 22.0386 47.932C22.0386 47.724 21.9706 47.572 21.8346 47.476C21.7026 47.38 21.5066 47.33 21.2466 47.326L20.5266 47.314V48.562L21.2466 48.568ZM27.0944 49L25.8644 47.452L26.3384 47.164L27.7724 49H27.0944ZM24.7904 49V45.82H25.3664V49H24.7904ZM25.1924 47.656V47.164H26.2424V47.656H25.1924ZM26.3864 47.476L25.8524 47.404L27.0704 45.82H27.6884L26.3864 47.476ZM30.2678 49V48.328L30.2378 48.202V47.056C30.2378 46.812 30.1658 46.624 30.0218 46.492C29.8818 46.356 29.6698 46.288 29.3858 46.288C29.1978 46.288 29.0138 46.32 28.8338 46.384C28.6538 46.444 28.5018 46.526 28.3778 46.63L28.1378 46.198C28.3018 46.066 28.4978 45.966 28.7258 45.898C28.9578 45.826 29.1998 45.79 29.4518 45.79C29.8878 45.79 30.2238 45.896 30.4598 46.108C30.6958 46.32 30.8138 46.644 30.8138 47.08V49H30.2678ZM29.2238 49.036C28.9878 49.036 28.7798 48.996 28.5998 48.916C28.4238 48.836 28.2878 48.726 28.1918 48.586C28.0958 48.442 28.0478 48.28 28.0478 48.1C28.0478 47.928 28.0878 47.772 28.1678 47.632C28.2518 47.492 28.3858 47.38 28.5698 47.296C28.7578 47.212 29.0098 47.17 29.3258 47.17H30.3338V47.584H29.3498C29.0618 47.584 28.8678 47.632 28.7678 47.728C28.6678 47.824 28.6178 47.94 28.6178 48.076C28.6178 48.232 28.6798 48.358 28.8038 48.454C28.9278 48.546 29.0998 48.592 29.3198 48.592C29.5358 48.592 29.7238 48.544 29.8838 48.448C30.0478 48.352 30.1658 48.212 30.2378 48.028L30.3518 48.424C30.2758 48.612 30.1418 48.762 29.9498 48.874C29.7578 48.982 29.5158 49.036 29.2238 49.036Z" fill="white"/>
<path fill-rule="evenodd" clip-rule="evenodd" d="M26.0543 0C30.07 0 32.0773 0 34.239 0.683333C36.599 1.54233 38.4577 3.401 39.3167 5.761C40 7.92233 40 9.93033 40 13.9457V26.0543C40 30.07 40 32.0773 39.3167 34.239C38.4577 36.599 36.599 38.4577 34.239 39.3163C32.0773 40 30.07 40 26.0543 40H13.9457C9.93 40 7.92233 40 5.761 39.3163C3.401 38.4577 1.54233 36.599 0.683333 34.239C0 32.0773 0 30.07 0 26.0543V13.9457C0 9.93033 0 7.92233 0.683333 5.761C1.54233 3.401 3.401 1.54233 5.761 0.683333C7.92233 0 9.93 0 13.9457 0H26.0543Z" fill="url(#paint0_linear_13_219)"/>
<path fill-rule="evenodd" clip-rule="evenodd" d="M20 2.5C29.665 2.5 37.5 10.335 37.5 20C37.5 29.665 29.665 37.5 20 37.5C10.335 37.5 2.5 29.665 2.5 20C2.5 10.335 10.335 2.5 20 2.5ZM20 4.16667C11.2555 4.16667 4.16669 11.2555 4.16669 20C4.16669 28.7445 11.2555 35.8333 20 35.8333C28.7445 35.8333 35.8334 28.7445 35.8334 20C35.8334 11.2555 28.7445 4.16667 20 4.16667Z" fill="white"/>
<path fill-rule="evenodd" clip-rule="evenodd" d="M10 26.987C10 28.2828 11.0447 29.3333 12.6667 29.3333H13.3333C15.2887 29.3333 16.3333 27.9495 16.3333 26.3203V16.0374C16.3333 15.8522 16.4799 15.6722 16.66 15.6356L25.34 13.8691C25.5204 13.8324 25.6667 13.9534 25.6667 14.1364V21.0227C25.6484 21.5983 25.546 21.9207 25.3516 22.1757C25.1601 22.427 24.8492 22.5988 24.4793 22.6294H23C21.7113 22.6294 20.6667 23.6799 20.6667 24.9758C20.6667 26.2717 21.7113 27.3222 23.3333 27.3222H24C25.9553 27.3222 27 25.9383 27 24.3091V11.7337V9.55253C27 9.18361 26.7093 8.94137 26.3463 9.01235L15.6537 11.1031C15.2927 11.1737 15 11.5292 15 11.9046V13.7449V23.0338C14.9817 23.6095 14.8793 23.9319 14.6849 24.1869C14.4934 24.4382 14.1825 24.61 13.8126 24.6406H12.3333C11.0447 24.6406 10 25.6911 10 26.987Z" fill="white"/>
<defs>
<linearGradient id="paint0_linear_13_219" x1="0" y1="0" x2="0" y2="40" gradientUnits="userSpaceOnUse">
<stop stop-color="#FC5BC4"/>
<stop offset="1" stop-color="#A644FF"/>
</linearGradient>
</defs>
</svg>
