<svg width="40" height="51" viewBox="0 0 40 51" fill="none" xmlns="http://www.w3.org/2000/svg">
<path fill-rule="evenodd" clip-rule="evenodd" d="M26.0543 0C30.07 0 32.0773 0 34.239 0.683333C36.599 1.54233 38.4577 3.401 39.3167 5.761C40 7.92233 40 9.93033 40 13.9457V26.0543C40 30.07 40 32.0773 39.3167 34.239C38.4577 36.599 36.599 38.4577 34.239 39.3163C32.0773 40 30.07 40 26.0543 40H13.9457C9.93 40 7.92233 40 5.761 39.3163C3.401 38.4577 1.54233 36.599 0.683333 34.239C0 32.0773 0 30.07 0 26.0543V13.9457C0 9.93033 0 7.92233 0.683333 5.761C1.54233 3.401 3.401 1.54233 5.761 0.683333C7.92233 0 9.93 0 13.9457 0H26.0543Z" fill="url(#paint0_linear_13_8)"/>
<path fill-rule="evenodd" clip-rule="evenodd" d="M9.00496 17.0969C7.55336 14.4652 7 12.3436 7 10.9106C7 9.47761 7.35208 9.06661 7.70934 8.73457C8.0666 8.40254 9.6776 7.4093 9.95209 7.22407C10.2266 7.03883 11.2742 6.67885 11.9312 7.62393C12.5882 8.56902 13.8254 10.4665 14.6783 11.7271C16.0168 13.5126 14.9505 14.2964 14.606 14.7662C13.9722 15.6306 13.6073 15.8438 13.6073 16.9053C13.6073 17.9668 16.5739 20.9825 17.2832 21.7256C17.9871 22.463 20.9431 25.0542 21.859 25.1928C22.7814 25.3323 24.0162 24.3558 24.2787 24.1082C25.6143 23.0828 26.3682 23.8602 26.9833 24.1981C27.5985 24.536 30.378 26.268 31.2394 26.8518C32.05 27.4356 31.9994 28.3379 31.9994 28.3379C31.9994 28.3379 31.4226 30.0216 30.1247 31.31C29.8056 31.6268 29.2634 32 27.8953 32C26.5273 32 25.0657 31.7501 21.592 29.8398C18.7497 28.2766 16.0402 25.8288 14.6215 24.3958C13.1522 22.9628 10.6631 20.1031 9.00496 17.0969Z" fill="white"/>
<path d="M7.512 49V45.166L7.662 45.322H6.078V44.8H9.54V45.322H7.956L8.1 45.166V49H7.512ZM11.2611 49.036C10.9211 49.036 10.6211 48.966 10.3611 48.826C10.1051 48.686 9.90511 48.494 9.76111 48.25C9.62111 48.006 9.55111 47.726 9.55111 47.41C9.55111 47.094 9.61911 46.814 9.75511 46.57C9.89511 46.326 10.0851 46.136 10.3251 46C10.5691 45.86 10.8431 45.79 11.1471 45.79C11.4551 45.79 11.7271 45.858 11.9631 45.994C12.1991 46.13 12.3831 46.322 12.5151 46.57C12.6511 46.814 12.7191 47.1 12.7191 47.428C12.7191 47.452 12.7171 47.48 12.7131 47.512C12.7131 47.544 12.7111 47.574 12.7071 47.602H10.0011V47.188H12.4071L12.1731 47.332C12.1771 47.128 12.1351 46.946 12.0471 46.786C11.9591 46.626 11.8371 46.502 11.6811 46.414C11.5291 46.322 11.3511 46.276 11.1471 46.276C10.9471 46.276 10.7691 46.322 10.6131 46.414C10.4571 46.502 10.3351 46.628 10.2471 46.792C10.1591 46.952 10.1151 47.136 10.1151 47.344V47.44C10.1151 47.652 10.1631 47.842 10.2591 48.01C10.3591 48.174 10.4971 48.302 10.6731 48.394C10.8491 48.486 11.0511 48.532 11.2791 48.532C11.4671 48.532 11.6371 48.5 11.7891 48.436C11.9451 48.372 12.0811 48.276 12.1971 48.148L12.5151 48.52C12.3711 48.688 12.1911 48.816 11.9751 48.904C11.7631 48.992 11.5251 49.036 11.2611 49.036ZM13.032 48.994L13.068 48.508C13.096 48.512 13.122 48.516 13.146 48.52C13.17 48.524 13.192 48.526 13.212 48.526C13.34 48.526 13.44 48.482 13.512 48.394C13.588 48.306 13.644 48.19 13.68 48.046C13.716 47.898 13.742 47.732 13.758 47.548C13.774 47.364 13.786 47.18 13.794 46.996L13.848 45.82H16.29V49H15.714V46.156L15.852 46.324H14.22L14.352 46.15L14.31 47.032C14.298 47.312 14.276 47.574 14.244 47.818C14.212 48.062 14.162 48.276 14.094 48.46C14.03 48.644 13.94 48.788 13.824 48.892C13.712 48.996 13.566 49.048 13.386 49.048C13.334 49.048 13.278 49.042 13.218 49.03C13.162 49.022 13.1 49.01 13.032 48.994ZM18.8197 49.036C18.4797 49.036 18.1797 48.966 17.9197 48.826C17.6637 48.686 17.4637 48.494 17.3197 48.25C17.1797 48.006 17.1097 47.726 17.1097 47.41C17.1097 47.094 17.1777 46.814 17.3137 46.57C17.4537 46.326 17.6437 46.136 17.8837 46C18.1277 45.86 18.4017 45.79 18.7057 45.79C19.0137 45.79 19.2857 45.858 19.5217 45.994C19.7577 46.13 19.9417 46.322 20.0737 46.57C20.2097 46.814 20.2777 47.1 20.2777 47.428C20.2777 47.452 20.2757 47.48 20.2717 47.512C20.2717 47.544 20.2697 47.574 20.2657 47.602H17.5597V47.188H19.9657L19.7317 47.332C19.7357 47.128 19.6937 46.946 19.6057 46.786C19.5177 46.626 19.3957 46.502 19.2397 46.414C19.0877 46.322 18.9097 46.276 18.7057 46.276C18.5057 46.276 18.3277 46.322 18.1717 46.414C18.0157 46.502 17.8937 46.628 17.8057 46.792C17.7177 46.952 17.6737 47.136 17.6737 47.344V47.44C17.6737 47.652 17.7217 47.842 17.8177 48.01C17.9177 48.174 18.0557 48.302 18.2317 48.394C18.4077 48.486 18.6097 48.532 18.8377 48.532C19.0257 48.532 19.1957 48.5 19.3477 48.436C19.5037 48.372 19.6397 48.276 19.7557 48.148L20.0737 48.52C19.9297 48.688 19.7497 48.816 19.5337 48.904C19.3217 48.992 19.0837 49.036 18.8197 49.036ZM23.0673 49.048C23.0633 49.048 23.0493 49.048 23.0253 49.048C23.0053 49.048 22.9853 49.048 22.9653 49.048C22.9453 49.048 22.9333 49.048 22.9293 49.048C22.2773 49.04 21.7713 48.896 21.4113 48.616C21.0513 48.332 20.8713 47.928 20.8713 47.404C20.8713 46.884 21.0513 46.486 21.4113 46.21C21.7753 45.93 22.2873 45.788 22.9473 45.784C22.9553 45.784 22.9673 45.784 22.9833 45.784C23.0033 45.784 23.0213 45.784 23.0373 45.784C23.0573 45.784 23.0693 45.784 23.0733 45.784C23.7413 45.784 24.2593 45.924 24.6273 46.204C24.9993 46.484 25.1853 46.884 25.1853 47.404C25.1853 47.932 24.9993 48.338 24.6273 48.622C24.2553 48.906 23.7353 49.048 23.0673 49.048ZM23.0553 48.544C23.4033 48.544 23.6913 48.5 23.9193 48.412C24.1513 48.324 24.3253 48.196 24.4413 48.028C24.5573 47.86 24.6153 47.652 24.6153 47.404C24.6153 47.16 24.5573 46.956 24.4413 46.792C24.3253 46.628 24.1513 46.504 23.9193 46.42C23.6913 46.336 23.4033 46.294 23.0553 46.294C23.0473 46.294 23.0313 46.294 23.0073 46.294C22.9833 46.294 22.9693 46.294 22.9653 46.294C22.6253 46.294 22.3413 46.338 22.1133 46.426C21.8893 46.51 21.7213 46.634 21.6093 46.798C21.4973 46.962 21.4413 47.164 21.4413 47.404C21.4413 47.648 21.4973 47.854 21.6093 48.022C21.7253 48.19 21.8953 48.318 22.1193 48.406C22.3473 48.494 22.6293 48.54 22.9653 48.544C22.9733 48.544 22.9873 48.544 23.0073 48.544C23.0313 48.544 23.0473 48.544 23.0553 48.544ZM22.7433 50.164V44.548H23.3073V50.164H22.7433ZM27.3614 49.036C27.0414 49.036 26.7574 48.966 26.5094 48.826C26.2614 48.686 26.0654 48.494 25.9214 48.25C25.7774 48.002 25.7054 47.722 25.7054 47.41C25.7054 47.094 25.7774 46.814 25.9214 46.57C26.0654 46.326 26.2614 46.136 26.5094 46C26.7574 45.86 27.0414 45.79 27.3614 45.79C27.6774 45.79 27.9594 45.86 28.2074 46C28.4594 46.136 28.6554 46.326 28.7954 46.57C28.9394 46.81 29.0114 47.09 29.0114 47.41C29.0114 47.726 28.9394 48.006 28.7954 48.25C28.6554 48.494 28.4594 48.686 28.2074 48.826C27.9594 48.966 27.6774 49.036 27.3614 49.036ZM27.3614 48.532C27.5654 48.532 27.7474 48.486 27.9074 48.394C28.0714 48.302 28.1994 48.172 28.2914 48.004C28.3834 47.832 28.4294 47.634 28.4294 47.41C28.4294 47.182 28.3834 46.986 28.2914 46.822C28.1994 46.654 28.0714 46.524 27.9074 46.432C27.7474 46.34 27.5654 46.294 27.3614 46.294C27.1574 46.294 26.9754 46.34 26.8154 46.432C26.6554 46.524 26.5274 46.654 26.4314 46.822C26.3354 46.986 26.2874 47.182 26.2874 47.41C26.2874 47.634 26.3354 47.832 26.4314 48.004C26.5274 48.172 26.6554 48.302 26.8154 48.394C26.9754 48.486 27.1574 48.532 27.3614 48.532ZM29.8432 49V45.82H30.4192V47.17H32.2312V45.82H32.8072V49H32.2312V47.668H30.4192V49H29.8432Z" fill="white"/>
<defs>
<linearGradient id="paint0_linear_13_8" x1="0" y1="0" x2="0" y2="40" gradientUnits="userSpaceOnUse">
<stop stop-color="#67FF81"/>
<stop offset="1" stop-color="#01B41F"/>
</linearGradient>
</defs>
</svg>
