<svg width="36" height="36" viewBox="0 0 36 36" fill="none" xmlns="http://www.w3.org/2000/svg">
<path fill-rule="evenodd" clip-rule="evenodd" d="M18 0.5C27.665 0.5 35.5 8.33502 35.5 18C35.5 27.665 27.665 35.5 18 35.5C8.33502 35.5 0.5 27.665 0.5 18C0.5 8.33502 8.33502 0.5 18 0.5ZM18 2.16667C9.25551 2.16667 2.16669 9.25549 2.16669 18C2.16669 26.7445 9.25551 33.8333 18 33.8333C26.7445 33.8333 33.8334 26.7445 33.8334 18C33.8334 9.25549 26.7445 2.16667 18 2.16667Z" fill="white"/>
<path fill-rule="evenodd" clip-rule="evenodd" d="M8 24.987C8 26.2828 9.04467 27.3333 10.6667 27.3333H11.3333C13.2887 27.3333 14.3333 25.9495 14.3333 24.3203V14.0374C14.3333 13.8522 14.4799 13.6722 14.66 13.6356L23.34 11.8691C23.5204 11.8324 23.6667 11.9534 23.6667 12.1364V19.0227C23.6484 19.5983 23.546 19.9207 23.3516 20.1757C23.1601 20.427 22.8492 20.5988 22.4793 20.6294H21C19.7113 20.6294 18.6667 21.6799 18.6667 22.9758C18.6667 24.2717 19.7113 25.3222 21.3333 25.3222H22C23.9553 25.3222 25 23.9383 25 22.3091V9.7337V7.55253C25 7.18361 24.7093 6.94137 24.3463 7.01235L13.6537 9.10309C13.2927 9.17368 13 9.52916 13 9.9046V11.7449V21.0338C12.9817 21.6095 12.8793 21.9319 12.6849 22.1869C12.4934 22.4382 12.1825 22.61 11.8126 22.6406H10.3333C9.04467 22.6406 8 23.6911 8 24.987Z" fill="white"/>
</svg>
