<svg width="40" height="51" viewBox="0 0 40 51" fill="none" xmlns="http://www.w3.org/2000/svg">
<path d="M5.666 44.8H6.266V49H5.666V44.8ZM3.254 49H2.654V44.8H3.254V49ZM5.72 47.128H3.194V46.606H5.72V47.128ZM9.42988 49V48.328L9.39988 48.202V47.056C9.39988 46.812 9.32788 46.624 9.18388 46.492C9.04388 46.356 8.83188 46.288 8.54788 46.288C8.35988 46.288 8.17588 46.32 7.99588 46.384C7.81588 46.444 7.66388 46.526 7.53988 46.63L7.29988 46.198C7.46388 46.066 7.65988 45.966 7.88788 45.898C8.11988 45.826 8.36188 45.79 8.61388 45.79C9.04988 45.79 9.38588 45.896 9.62188 46.108C9.85788 46.32 9.97588 46.644 9.97588 47.08V49H9.42988ZM8.38588 49.036C8.14988 49.036 7.94188 48.996 7.76188 48.916C7.58588 48.836 7.44988 48.726 7.35388 48.586C7.25788 48.442 7.20988 48.28 7.20988 48.1C7.20988 47.928 7.24988 47.772 7.32988 47.632C7.41388 47.492 7.54788 47.38 7.73188 47.296C7.91988 47.212 8.17188 47.17 8.48788 47.17H9.49588V47.584H8.51188C8.22388 47.584 8.02988 47.632 7.92988 47.728C7.82988 47.824 7.77988 47.94 7.77988 48.076C7.77988 48.232 7.84188 48.358 7.96588 48.454C8.08988 48.546 8.26188 48.592 8.48188 48.592C8.69788 48.592 8.88588 48.544 9.04588 48.448C9.20988 48.352 9.32788 48.212 9.39988 48.028L9.51388 48.424C9.43788 48.612 9.30388 48.762 9.11188 48.874C8.91988 48.982 8.67788 49.036 8.38588 49.036ZM12.3991 49.036C12.0751 49.036 11.7851 48.966 11.5291 48.826C11.2771 48.686 11.0791 48.494 10.9351 48.25C10.7911 48.006 10.7191 47.726 10.7191 47.41C10.7191 47.094 10.7911 46.814 10.9351 46.57C11.0791 46.326 11.2771 46.136 11.5291 46C11.7851 45.86 12.0751 45.79 12.3991 45.79C12.6871 45.79 12.9431 45.848 13.1671 45.964C13.3951 46.076 13.5711 46.244 13.6951 46.468L13.2571 46.75C13.1531 46.594 13.0251 46.48 12.8731 46.408C12.7251 46.332 12.5651 46.294 12.3931 46.294C12.1851 46.294 11.9991 46.34 11.8351 46.432C11.6711 46.524 11.5411 46.654 11.4451 46.822C11.3491 46.986 11.3011 47.182 11.3011 47.41C11.3011 47.638 11.3491 47.836 11.4451 48.004C11.5411 48.172 11.6711 48.302 11.8351 48.394C11.9991 48.486 12.1851 48.532 12.3931 48.532C12.5651 48.532 12.7251 48.496 12.8731 48.424C13.0251 48.348 13.1531 48.232 13.2571 48.076L13.6951 48.352C13.5711 48.572 13.3951 48.742 13.1671 48.862C12.9431 48.978 12.6871 49.036 12.3991 49.036ZM15.0298 49V46.174L15.1738 46.324H13.8658V45.82H16.7698V46.324H15.4678L15.6058 46.174V49H15.0298ZM19.0448 49.036C18.7808 49.036 18.5388 48.976 18.3188 48.856C18.1028 48.732 17.9288 48.55 17.7968 48.31C17.6688 48.07 17.6048 47.77 17.6048 47.41C17.6048 47.05 17.6668 46.75 17.7908 46.51C17.9188 46.27 18.0908 46.09 18.3068 45.97C18.5268 45.85 18.7728 45.79 19.0448 45.79C19.3568 45.79 19.6328 45.858 19.8728 45.994C20.1128 46.13 20.3028 46.32 20.4428 46.564C20.5828 46.804 20.6528 47.086 20.6528 47.41C20.6528 47.734 20.5828 48.018 20.4428 48.262C20.3028 48.506 20.1128 48.696 19.8728 48.832C19.6328 48.968 19.3568 49.036 19.0448 49.036ZM17.3588 50.164V45.82H17.9108V46.678L17.8748 47.416L17.9348 48.154V50.164H17.3588ZM18.9968 48.532C19.2008 48.532 19.3828 48.486 19.5428 48.394C19.7068 48.302 19.8348 48.172 19.9268 48.004C20.0228 47.832 20.0708 47.634 20.0708 47.41C20.0708 47.182 20.0228 46.986 19.9268 46.822C19.8348 46.654 19.7068 46.524 19.5428 46.432C19.3828 46.34 19.2008 46.294 18.9968 46.294C18.7968 46.294 18.6148 46.34 18.4508 46.432C18.2908 46.524 18.1628 46.654 18.0668 46.822C17.9748 46.986 17.9288 47.182 17.9288 47.41C17.9288 47.634 17.9748 47.832 18.0668 48.004C18.1628 48.172 18.2908 48.302 18.4508 48.394C18.6148 48.486 18.7968 48.532 18.9968 48.532ZM22.8516 49.036C22.5316 49.036 22.2476 48.966 21.9996 48.826C21.7516 48.686 21.5556 48.494 21.4116 48.25C21.2676 48.002 21.1956 47.722 21.1956 47.41C21.1956 47.094 21.2676 46.814 21.4116 46.57C21.5556 46.326 21.7516 46.136 21.9996 46C22.2476 45.86 22.5316 45.79 22.8516 45.79C23.1676 45.79 23.4496 45.86 23.6976 46C23.9496 46.136 24.1456 46.326 24.2856 46.57C24.4296 46.81 24.5016 47.09 24.5016 47.41C24.5016 47.726 24.4296 48.006 24.2856 48.25C24.1456 48.494 23.9496 48.686 23.6976 48.826C23.4496 48.966 23.1676 49.036 22.8516 49.036ZM22.8516 48.532C23.0556 48.532 23.2376 48.486 23.3976 48.394C23.5616 48.302 23.6896 48.172 23.7816 48.004C23.8736 47.832 23.9196 47.634 23.9196 47.41C23.9196 47.182 23.8736 46.986 23.7816 46.822C23.6896 46.654 23.5616 46.524 23.3976 46.432C23.2376 46.34 23.0556 46.294 22.8516 46.294C22.6476 46.294 22.4656 46.34 22.3056 46.432C22.1456 46.524 22.0176 46.654 21.9216 46.822C21.8256 46.986 21.7776 47.182 21.7776 47.41C21.7776 47.634 21.8256 47.832 21.9216 48.004C22.0176 48.172 22.1456 48.302 22.3056 48.394C22.4656 48.486 22.6476 48.532 22.8516 48.532ZM25.3334 49V45.82H25.9094V48.136L27.8594 45.82H28.3814V49H27.8054V46.684L25.8614 49H25.3334ZM26.8214 45.406C26.5294 45.406 26.2994 45.336 26.1314 45.196C25.9674 45.052 25.8834 44.846 25.8794 44.578H26.2694C26.2734 44.73 26.3234 44.85 26.4194 44.938C26.5194 45.026 26.6514 45.07 26.8154 45.07C26.9794 45.07 27.1114 45.026 27.2114 44.938C27.3114 44.85 27.3634 44.73 27.3674 44.578H27.7694C27.7654 44.846 27.6794 45.052 27.5114 45.196C27.3434 45.336 27.1134 45.406 26.8214 45.406ZM31.8034 49L30.5734 47.452L31.0474 47.164L32.4814 49H31.8034ZM29.4994 49V45.82H30.0754V49H29.4994ZM29.9014 47.656V47.164H30.9514V47.656H29.9014ZM31.0954 47.476L30.5614 47.404L31.7794 45.82H32.3974L31.0954 47.476ZM33.0853 49V45.82H33.6613V48.136L35.6113 45.82H36.1333V49H35.5573V46.684L33.6133 49H33.0853Z" fill="white"/>
<path fill-rule="evenodd" clip-rule="evenodd" d="M26.0543 0C30.07 0 32.0773 0 34.239 0.683333C36.599 1.54233 38.4577 3.401 39.3167 5.761C40 7.92233 40 9.93033 40 13.9457V26.0543C40 30.07 40 32.0773 39.3167 34.239C38.4577 36.599 36.599 38.4577 34.239 39.3163C32.0773 40 30.07 40 26.0543 40H13.9457C9.93 40 7.92233 40 5.761 39.3163C3.401 38.4577 1.54233 36.599 0.683333 34.239C0 32.0773 0 30.07 0 26.0543V13.9457C0 9.93033 0 7.92233 0.683333 5.761C1.54233 3.401 3.401 1.54233 5.761 0.683333C7.92233 0 9.93 0 13.9457 0H26.0543Z" fill="url(#paint0_linear_13_143)"/>
<path fill-rule="evenodd" clip-rule="evenodd" d="M20.0001 37.3333C29.573 37.3333 37.3334 29.5729 37.3334 20C37.3334 10.4271 29.573 2.66666 20.0001 2.66666C10.4271 2.66666 2.66675 10.4271 2.66675 20C2.66675 29.5729 10.4271 37.3333 20.0001 37.3333Z" fill="#545454"/>
<g filter="url(#filter0_d_13_143)">
<path fill-rule="evenodd" clip-rule="evenodd" d="M21.3137 10.7839C21.2678 10.7775 21.2219 10.7714 21.1761 10.7656L21.069 9.49699C21.0358 9.10424 20.9316 9.0977 20.8357 9.47658L20.5245 10.7065C20.3757 10.6982 20.2273 10.6934 20.0796 10.6922L19.8183 9.4444C19.7375 9.05862 19.6333 9.06483 19.5843 9.45258L19.4255 10.7098C19.2722 10.7194 19.1197 10.7327 18.9681 10.7497L18.5794 9.54093C18.4587 9.1657 18.3557 9.18277 18.3475 9.57351L18.3209 10.8455C18.1746 10.8725 18.0292 10.9029 17.8851 10.9367L17.3513 9.78297C17.1858 9.42525 17.0857 9.45474 17.1252 9.84356L17.2537 11.1085C17.1118 11.1526 16.9711 11.1999 16.8319 11.2506L16.1605 10.1688C15.9527 9.83392 15.8569 9.8754 15.9435 10.2565L16.225 11.4957C16.0894 11.5561 15.9554 11.6197 15.8231 11.6863L15.0238 10.693C14.7767 10.386 14.6866 10.4388 14.819 10.8065L15.2491 12.0011C15.1216 12.0769 14.9959 12.1557 14.8722 12.2374L13.9571 11.3483C13.6744 11.0736 13.5915 11.137 13.7677 11.4859L14.3391 12.6171C14.2175 12.7102 14.0983 12.8062 13.9814 12.9052L12.9834 12.1206C12.6736 11.877 12.5977 11.9487 12.8094 12.2772L13.4974 13.3448C13.3908 13.4486 13.2867 13.555 13.185 13.6639L12.1 13.0075C11.7628 12.8035 11.6963 12.8839 11.9464 13.1842L12.7565 14.1565C12.6626 14.2724 12.5713 14.3907 12.4829 14.5113L11.3279 13.9929C10.9683 13.8315 10.9121 13.9195 11.197 14.187L12.116 15.05C12.0362 15.1765 11.9593 15.3053 11.8854 15.4361L10.6779 15.0629C10.3013 14.9465 10.2562 15.0406 10.5716 15.2715L11.5854 16.0134C11.521 16.1488 11.4597 16.2861 11.4016 16.4253L10.1591 16.2023C9.7712 16.1327 9.73791 16.2317 10.0791 16.4223L11.1725 17.0334C11.1231 17.1799 11.0772 17.3283 11.0348 17.4783L9.78296 17.3869C9.38986 17.3582 9.3671 17.4601 9.72632 17.6141L10.8802 18.1086C10.8494 18.2557 10.8221 18.4043 10.7982 18.5543L9.54571 18.6161C9.15204 18.6355 9.14187 18.7394 9.51718 18.8485L10.7181 19.1974C10.7044 19.3492 10.6945 19.5005 10.6882 19.6513L9.45571 19.8648C9.06735 19.9321 9.06991 20.0364 9.45571 20.0989L10.6838 20.2978C10.6881 20.4508 10.6961 20.603 10.7078 20.7544L9.51423 21.1154C9.13696 21.2295 9.15223 21.3328 9.54276 21.3478L10.7799 21.3953C10.803 21.5516 10.83 21.7069 10.8609 21.861L9.72022 22.341C9.35694 22.4939 9.38292 22.5951 9.77288 22.5692L11.0091 22.487C11.0498 22.6356 11.094 22.7828 11.1418 22.9285L10.0701 23.5429C9.72821 23.739 9.76632 23.8362 10.1502 23.7629L11.3629 23.5316C11.421 23.6746 11.4826 23.8159 11.5475 23.9555L10.56 24.695C10.2445 24.9312 10.2941 25.023 10.6663 24.9036L11.8378 24.5274C11.9125 24.6628 11.9905 24.7963 12.0716 24.9278L11.1828 25.7809C10.8985 26.0538 10.959 26.1389 11.3137 25.975L12.4266 25.4607C12.5169 25.5868 12.6103 25.7106 12.7068 25.832L11.9299 26.7854C11.681 27.0909 11.7514 27.168 12.0835 26.9621L13.1211 26.3187C13.2288 26.4369 13.3396 26.5524 13.4534 26.665L12.7854 27.6868C12.5697 28.0167 12.6478 28.086 12.9566 27.8464L13.9216 27.0979C14.0398 27.1999 14.1607 27.2991 14.2841 27.3953L13.747 28.4881C13.5732 28.8418 13.6591 28.9011 13.9364 28.6257L14.7991 27.769C14.9289 27.8566 15.0612 27.9411 15.1958 28.0223L14.7968 29.1698C14.6673 29.5421 14.7599 29.5904 15.0016 29.2833L15.7505 28.3315C15.8901 28.4032 16.0319 28.4715 16.1758 28.5364L15.92 29.7224C15.8368 30.1077 15.9346 30.1444 16.137 29.8101L16.7627 28.777C16.91 28.8315 17.0591 28.8826 17.2101 28.9299L17.1007 30.138C17.0652 30.5306 17.1667 30.5551 17.3269 30.1986L17.8211 29.099C17.9778 29.1367 18.1363 29.1705 18.2964 29.2004L18.3138 30.4076C18.3195 30.8017 18.423 30.8155 18.545 30.4442L18.9227 29.2957C19.0805 29.3143 19.2378 29.3289 19.3947 29.3395L19.559 30.5349C19.6126 30.9253 19.717 30.9264 19.7929 30.543L20.027 29.3609C20.1861 29.3609 20.3445 29.3568 20.5021 29.3488L20.8105 30.5137C20.9113 30.8947 21.0151 30.8831 21.0437 30.4933L21.1317 29.295C21.2898 29.276 21.4469 29.2531 21.6029 29.2262L22.0507 30.3444C22.1973 30.7103 22.2988 30.6861 22.2797 30.2957L22.2211 29.0978C22.3758 29.0601 22.5291 29.0185 22.681 28.9732L23.2622 30.0293C23.4523 30.3746 23.5501 30.3382 23.4836 29.9531L23.2796 28.772C23.4324 28.7148 23.5835 28.6536 23.7327 28.5887L24.419 29.5751C24.6441 29.8987 24.7376 29.8522 24.6312 29.4762L24.3032 28.317C24.444 28.244 24.5829 28.1675 24.7198 28.0875L25.5228 28.9849C25.7857 29.2786 25.8728 29.2211 25.7214 28.8608L25.2545 27.7502C25.3856 27.6613 25.5143 27.569 25.6407 27.4735L26.549 28.268C26.8457 28.5275 26.9252 28.4598 26.731 28.1207L26.1323 27.0754C26.2518 26.9718 26.3687 26.8651 26.483 26.7555L27.4832 27.4346C27.8092 27.656 27.8799 27.5791 27.6458 27.2662L26.9245 26.302C27.0308 26.1852 27.1342 26.0656 27.2347 25.9432L28.312 26.4963C28.6627 26.6763 28.7234 26.5914 28.4529 26.3094L27.6197 25.4405C27.7137 25.3086 27.8044 25.1741 27.8917 25.0371L29.0177 25.4733C29.3853 25.6156 29.4368 25.5248 29.1383 25.2726L28.2137 24.4913C28.2889 24.3532 28.3608 24.2129 28.4293 24.0704L29.6036 24.367C29.9857 24.4635 30.0258 24.3671 29.6988 24.1531L28.6843 23.4892C28.7422 23.3438 28.7967 23.1964 28.8475 23.0471L30.0543 23.199C30.4454 23.2482 30.4734 23.1477 30.1227 22.9751L29.032 22.4384C29.072 22.288 29.1085 22.1358 29.1413 21.9821L30.3635 21.9858C30.7577 21.987 30.7733 21.8838 30.4042 21.7553L29.2531 21.3544L29.2572 21.3254C29.2783 21.1757 29.2956 21.0263 29.3094 20.8774L30.5244 20.7534C30.9166 20.7134 30.9213 20.6091 30.5408 20.5199L29.3465 20.2398C29.3503 20.0838 29.3501 19.9284 29.3461 19.7737L30.5408 19.5017C30.9251 19.4142 30.9171 19.3101 30.5285 19.2679L29.3076 19.1353C29.2929 18.9805 29.2743 18.8267 29.252 18.6738L30.4087 18.2568C30.7795 18.1231 30.7589 18.0208 30.3681 18.0263L29.1376 18.0434C29.1047 17.8923 29.0681 17.7423 29.0279 17.5937L30.1301 17.0363C30.4819 16.8584 30.4489 16.7594 30.0617 16.8124L28.8389 16.9799C28.7886 16.8346 28.7348 16.6907 28.6775 16.5485L29.709 15.8573C30.0364 15.6379 29.9916 15.5436 29.6137 15.6435L28.4166 15.9598C28.3479 15.8182 28.2757 15.6785 28.2001 15.5408L29.154 14.7453C29.4567 14.4929 29.4023 14.4038 29.037 14.5426L27.8701 14.9858C27.7879 14.8579 27.7027 14.732 27.6144 14.6083L28.4684 13.6981C28.7381 13.4106 28.6732 13.3288 28.3275 13.5111L27.2207 14.0946C27.1245 13.9778 27.0255 13.8632 26.9238 13.751L27.6635 12.7394C27.8961 12.4212 27.8218 12.3479 27.5008 12.571L26.4718 13.2862C26.363 13.1818 26.2516 13.08 26.1377 12.9808L26.7507 11.8828C26.9428 11.5386 26.8601 11.475 26.5687 11.7355L25.6334 12.5717C25.5135 12.4811 25.3912 12.3933 25.2667 12.3085L25.7428 11.1403C25.8915 10.7754 25.8017 10.7222 25.5442 11.0163L24.717 11.9613C24.5837 11.8835 24.4482 11.8089 24.3106 11.7376L24.6614 10.5281C24.7712 10.1496 24.6762 10.1061 24.4509 10.4255L23.7223 11.4585C23.5854 11.3993 23.4466 11.3433 23.3061 11.2905L23.5077 10.0427C23.5705 9.6536 23.471 9.62205 23.2863 9.96649L22.6878 11.0827C22.5456 11.0404 22.4017 11.0013 22.2564 10.9655L22.3046 9.69737C22.3195 9.3035 22.2169 9.28431 22.0756 9.64869L21.6168 10.8315C21.5164 10.8141 21.4153 10.7982 21.3137 10.7839ZM27.592 21.067C27.0027 25.26 23.126 28.1814 18.933 27.5921C14.74 27.0028 11.8186 23.126 12.4079 18.933C12.9972 14.7401 16.874 11.8187 21.067 12.408C25.2599 12.9973 28.1813 16.874 27.592 21.067Z" fill="url(#paint1_linear_13_143)"/>
</g>
<g filter="url(#filter1_dd_13_143)">
<path fill-rule="evenodd" clip-rule="evenodd" d="M19.7667 6.00193C19.8443 6.00067 19.9221 6.00003 20 6.00003C20.1763 6.00003 20.3518 6.00329 20.5264 6.00974L20.9055 4.3936C21.0378 3.82982 21.1924 3.83682 21.2516 4.4178L21.4204 6.07119C21.6739 6.09673 21.9254 6.12903 22.1747 6.16792L22.7479 4.61022C22.9478 4.06676 23.1004 4.09254 23.0884 4.67642L23.0545 6.33421C23.3032 6.38955 23.5494 6.4515 23.7929 6.51987L24.5516 5.04356C24.8163 4.52852 24.9646 4.57271 24.8816 5.15077L24.6462 6.78944C24.8916 6.87574 25.1339 6.96868 25.3728 7.06804L26.2779 5.68492C26.595 5.20037 26.7378 5.25981 26.5948 5.82603L26.1877 7.43818C26.4157 7.55068 26.6401 7.6692 26.8609 7.79353L27.9296 6.52886C28.3034 6.08657 28.438 6.16298 28.227 6.70755L27.6266 8.25774C27.8393 8.39618 28.0481 8.54025 28.2526 8.68974L29.4699 7.56257C29.8948 7.16913 30.019 7.26136 29.7433 7.77617L28.9586 9.24115C29.1534 9.40346 29.3436 9.57096 29.5292 9.74343L30.8769 8.77149C31.3465 8.43276 31.4586 8.53945 31.1222 9.01682L30.1657 10.374C30.34 10.558 30.5092 10.7466 30.6734 10.9398L32.1308 10.1386C32.6382 9.85966 32.7365 9.97921 32.3444 10.412L31.2314 11.6406C31.3862 11.8481 31.5353 12.0601 31.6785 12.2763L33.2042 11.635C33.7381 11.4106 33.8233 11.5398 33.3881 11.9292L32.149 13.0381C32.2752 13.2579 32.3956 13.4813 32.51 13.7084L34.1027 13.2577C34.6599 13.1001 34.7287 13.2387 34.2493 13.5722L32.8869 14.5201C32.9861 14.7532 33.0793 14.9895 33.166 15.2289L34.8026 14.9756C35.3749 14.887 35.4263 15.0329 34.9098 15.3055L33.4437 16.0795C33.5144 16.3224 33.5787 16.5681 33.6365 16.8164L35.2942 16.7643C35.873 16.7461 35.9062 16.8972 35.3604 17.1049L33.8111 17.6942C33.8524 17.9434 33.8871 18.1947 33.915 18.4481L35.5704 18.5987C36.1471 18.6512 36.1617 18.8053 35.5946 18.9448L33.9848 19.341C33.9949 19.5594 34 19.7791 34 20C34 20.0393 33.9999 20.0785 33.9996 20.1177L35.6247 20.4395C36.1928 20.552 36.1912 20.7067 35.6126 20.7863L33.964 21.0129C33.9458 21.2671 33.9208 21.5195 33.8892 21.7698L35.4633 22.2874C36.0134 22.4683 35.993 22.6216 35.409 22.6301L33.7488 22.654C33.7008 22.9043 33.6461 23.1523 33.5849 23.3977L33.5849 23.3977L35.0841 24.1032C35.6081 24.3498 35.5691 24.4995 34.9885 24.4367L33.3406 24.2585C33.2632 24.5012 33.1794 24.741 33.0893 24.9777L34.4925 25.8614C34.9825 26.1699 34.9255 26.3138 34.3569 26.1807L32.7444 25.8033C32.6365 26.0398 32.5223 26.2727 32.4019 26.5019L33.7005 27.5239C34.1555 27.882 34.0839 28.0191 33.5323 27.8273L31.9603 27.2808C31.8281 27.4975 31.6901 27.7104 31.5466 27.9192L32.7134 29.0942C33.1214 29.5051 33.0335 29.6325 32.5094 29.3749L31.016 28.6409C30.8594 28.8404 30.6974 29.0354 30.5304 29.2259L31.5471 30.5366C31.902 30.9942 31.7993 31.1099 31.3105 30.7904L29.9186 29.8805C29.7397 30.06 29.5561 30.2346 29.3678 30.4043L30.2182 31.8308C30.5147 32.3282 30.3986 32.4306 29.9524 32.0538L28.6834 30.9825C28.4848 31.1397 28.2818 31.2917 28.0747 31.4382L28.7452 32.9585C28.9789 33.4883 28.8512 33.5758 28.4542 33.1475L27.3274 31.9317C27.1069 32.0674 26.8824 32.1971 26.6541 32.3207L27.1595 33.8949C27.3365 34.4463 27.2004 34.5199 26.8504 34.0524L25.8536 32.7213C25.6235 32.8273 25.3901 32.9273 25.1536 33.021L25.4635 34.6459C25.572 35.2147 25.4279 35.2712 25.1375 34.7645L24.3113 33.3236C24.0706 33.4015 23.8269 33.473 23.5806 33.538L23.6904 35.1907C23.7287 35.7685 23.5789 35.807 23.3523 35.2687L22.7082 33.7383H22.7082C22.4603 33.7869 22.2102 33.8289 21.9578 33.8642L21.8651 35.5216C21.8328 36.0997 21.6794 36.1197 21.5201 35.5578L21.0671 33.96C20.8159 33.9789 20.5628 33.9912 20.3081 33.9967L20.0135 35.6339C19.9109 36.2039 19.7562 36.205 19.6666 35.6279L19.4119 33.9879C19.1518 33.9771 18.8935 33.9593 18.6372 33.9345L18.1751 35.5247C18.0136 36.0808 17.8596 36.0658 17.8308 35.4825L17.7487 33.82C17.4972 33.7793 17.248 33.732 17.0013 33.6781L16.3489 35.2C16.1208 35.7323 15.9698 35.6986 16.0123 35.1161L16.1332 33.4592C15.8884 33.389 15.6464 33.3123 15.4074 33.2293L14.574 34.6613C14.2827 35.1617 14.1369 35.1099 14.2501 34.5369L14.5716 32.9087C14.3373 32.81 14.1062 32.7052 13.8785 32.5943L12.8752 33.916C12.5251 34.3772 12.3868 34.308 12.5689 33.7531L13.0864 32.1766C12.8658 32.0511 12.6489 31.9197 12.4359 31.7827L12.4359 31.7827L11.2767 32.9747C10.873 33.3899 10.7441 33.3043 10.9925 32.7757L11.6982 31.2741C11.4898 31.1204 11.2858 30.961 11.0864 30.7962L9.813 31.8571C9.36809 32.2278 9.24887 32.1292 9.55116 31.6295L10.4139 30.2034C10.2295 30.03 10.0497 29.8516 9.87481 29.6685L8.47976 30.5675C7.993 30.8812 7.88667 30.7688 8.24761 30.3097L9.27654 29.0009C9.11372 28.8071 8.95605 28.6089 8.80375 28.4063L7.30861 29.1291C6.78725 29.3811 6.69542 29.2566 7.10961 28.8449L8.28827 27.6733C8.14934 27.4617 8.016 27.2461 7.88844 27.0267L6.31607 27.5619C5.76788 27.7485 5.69191 27.6137 6.15319 27.2556L7.4633 26.2383C7.35035 26.0118 7.24336 25.7817 7.14253 25.5484L5.51612 25.8881C4.94927 26.0065 4.89029 25.8635 5.39178 25.5642L6.81402 24.7155C6.72699 24.4721 6.6465 24.2257 6.57276 23.9763L4.92651 24.1435C4.35039 24.202 4.30669 24.0536 4.83671 23.8084L6.34666 23.1098C6.2908 22.8635 6.24144 22.6148 6.19876 22.3638L4.54119 22.3291C3.96224 22.3169 3.93695 22.1643 4.49291 21.9855L6.07693 21.4761H6.07693C6.05068 21.2255 6.03103 20.973 6.01817 20.7187L4.3735 20.4817C3.80035 20.3991 3.79385 20.2445 4.36745 20.1348L6.00115 19.8224C6.00432 19.5677 6.01428 19.3147 6.03087 19.0635L4.42583 18.6274C3.86701 18.4755 3.8794 18.3213 4.4621 18.2823L6.11837 18.1715C6.15202 17.9135 6.1927 17.6578 6.2402 17.4044L6.2402 17.4044L4.6977 16.806C4.15781 16.5966 4.18625 16.4445 4.76983 16.4667L6.43348 16.5298C6.49638 16.2832 6.56582 16.0391 6.64162 15.7979L5.18313 15.0159C4.67279 14.7422 4.71955 14.5947 5.29608 14.6878L6.93744 14.9529C7.02915 14.7157 7.12713 14.4816 7.23118 14.2509L5.87723 13.2957C5.40404 12.9619 5.46843 12.8212 6.02932 12.9839L7.62535 13.4468C7.74438 13.2225 7.86933 13.0018 7.99998 12.785L6.77024 11.6698C6.34126 11.2809 6.42231 11.1491 6.9592 11.3789L8.4867 12.0327C8.63115 11.8244 8.7811 11.6201 8.93636 11.4202L8.93636 11.4202L7.8496 10.1611C7.47122 9.72276 7.56773 9.60183 8.07261 9.89536L9.50845 10.7301C9.67986 10.5363 9.85656 10.3472 10.0383 10.1631L9.09262 8.8024C8.76215 8.32688 8.87077 8.2167 9.34219 8.56139L10.6883 9.5456C10.8772 9.37718 11.0708 9.21381 11.2687 9.05569L10.4954 7.58884C10.2253 7.07659 10.3465 6.98047 10.7725 7.38004L11.9864 8.51894C12.1939 8.37385 12.4055 8.23425 12.621 8.10034L12.0321 6.54994C11.8264 6.0086 11.9585 5.92797 12.3325 6.37647L13.3964 7.65219L13.3964 7.65219C13.6196 7.53257 13.8464 7.41883 14.0767 7.31117L13.6811 5.70035C13.5429 5.13799 13.6838 5.07405 14.0004 5.56479L14.8994 6.95824C15.1351 6.86598 15.3739 6.77993 15.6157 6.70028L15.4192 5.05205C15.3506 4.47705 15.4982 4.43076 15.7527 4.95642L16.4744 6.44771C16.7244 6.38286 16.9771 6.32475 17.2323 6.27358L17.2092 4.61957C17.2011 4.04055 17.3528 4.00995 17.5509 4.55933L18.1157 6.12576C18.3656 6.09214 18.6176 6.06511 18.8715 6.04485L19.0506 4.39674C19.1132 3.82105 19.2674 3.80916 19.3971 4.37858L19.7667 6.00193ZM21.6999 19.1968C20.9647 19.1721 20.0611 18.5203 19.6971 17.8841L15.4561 10.5384C14.9988 9.73922 15.5221 8.84393 16.2256 8.43776C16.697 8.16563 18.26 7.66944 20.3305 7.6711C26.1529 7.82424 30.9701 12.0125 32.0884 17.5419C32.1891 18.4671 31.403 19.2077 30.572 19.1953L21.6999 19.1968ZM14.0882 11.2783L18.4738 18.8184C18.8319 19.4605 18.8129 20.6199 18.444 21.2533L14.203 28.599C13.7395 29.3946 12.5892 29.4844 11.8857 29.0782C11.4177 28.808 10.2203 27.7162 9.19129 25.9446C8.21962 24.1816 7.66675 22.1554 7.66675 20.0001C7.66675 16.3644 9.23238 13.1137 11.7351 10.8564C12.5437 10.4046 13.6669 10.5226 14.0882 11.2783ZM31.9551 22.3631C31.9551 21.5508 31.332 20.7591 30.4112 20.7556H21.9291C21.1961 20.7527 20.2907 21.2621 19.9136 21.8933L15.5765 29.4614C15.1028 30.2544 15.4796 31.2587 16.399 31.6965C17.7837 32.4455 21.3811 32.4167 24.1469 31.619C26.2695 30.8613 28.1237 29.5385 29.5282 27.8317C31.3789 25.4882 31.9551 23.0597 31.9551 22.3631ZM20 20.6667C20.3682 20.6667 20.6667 20.3682 20.6667 20C20.6667 19.6318 20.3682 19.3334 20 19.3334C19.6319 19.3334 19.3334 19.6318 19.3334 20C19.3334 20.3682 19.6319 20.6667 20 20.6667Z" fill="url(#paint2_linear_13_143)"/>
</g>
<defs>
<filter id="filter0_d_13_143" x="8.16541" y="8.15839" width="23.6591" height="23.6708" filterUnits="userSpaceOnUse" color-interpolation-filters="sRGB">
<feFlood flood-opacity="0" result="BackgroundImageFix"/>
<feColorMatrix in="SourceAlpha" type="matrix" values="0 0 0 0 0 0 0 0 0 0 0 0 0 0 0 0 0 0 127 0" result="hardAlpha"/>
<feOffset/>
<feGaussianBlur stdDeviation="0.5"/>
<feColorMatrix type="matrix" values="0 0 0 0 0 0 0 0 0 0 0 0 0 0 0 0 0 0 0.2 0"/>
<feBlend mode="normal" in2="BackgroundImageFix" result="effect1_dropShadow_13_143"/>
<feBlend mode="normal" in="SourceGraphic" in2="effect1_dropShadow_13_143" result="shape"/>
</filter>
<filter id="filter1_dd_13_143" x="1.94043" y="2.95817" width="36.1083" height="36.1029" filterUnits="userSpaceOnUse" color-interpolation-filters="sRGB">
<feFlood flood-opacity="0" result="BackgroundImageFix"/>
<feColorMatrix in="SourceAlpha" type="matrix" values="0 0 0 0 0 0 0 0 0 0 0 0 0 0 0 0 0 0 127 0" result="hardAlpha"/>
<feOffset dy="1"/>
<feGaussianBlur stdDeviation="1"/>
<feColorMatrix type="matrix" values="0 0 0 0 0 0 0 0 0 0 0 0 0 0 0 0 0 0 0.2 0"/>
<feBlend mode="normal" in2="BackgroundImageFix" result="effect1_dropShadow_13_143"/>
<feColorMatrix in="SourceAlpha" type="matrix" values="0 0 0 0 0 0 0 0 0 0 0 0 0 0 0 0 0 0 127 0" result="hardAlpha"/>
<feOffset dy="1"/>
<feColorMatrix type="matrix" values="0 0 0 0 0 0 0 0 0 0 0 0 0 0 0 0 0 0 0.2 0"/>
<feBlend mode="normal" in2="effect1_dropShadow_13_143" result="effect2_dropShadow_13_143"/>
<feBlend mode="normal" in="SourceGraphic" in2="effect2_dropShadow_13_143" result="shape"/>
</filter>
<linearGradient id="paint0_linear_13_143" x1="0" y1="0" x2="0" y2="40" gradientUnits="userSpaceOnUse">
<stop stop-color="#D3D7DD"/>
<stop offset="1" stop-color="#888C90"/>
</linearGradient>
<linearGradient id="paint1_linear_13_143" x1="15.8923" y1="5.6645" x2="5.94346" y2="23.4173" gradientUnits="userSpaceOnUse">
<stop stop-color="#AFB0B3"/>
<stop offset="1" stop-color="#B5B7BA"/>
</linearGradient>
<linearGradient id="paint2_linear_13_143" x1="3.94043" y1="3.95817" x2="3.94043" y2="36.0611" gradientUnits="userSpaceOnUse">
<stop stop-color="#D9DADB"/>
<stop offset="1" stop-color="#7D8082"/>
</linearGradient>
</defs>
</svg>
