<svg width="28" height="28" viewBox="0 0 28 28" fill="none" xmlns="http://www.w3.org/2000/svg">
<g clip-path="url(#clip0_564_334)">
<path d="M22.6688 15.1439C22.7154 14.7706 22.7504 14.3972 22.7504 14.0006C22.7504 13.6039 22.7154 13.2306 22.6688 12.8573L25.1304 10.9322C25.3521 10.7572 25.4104 10.4422 25.2704 10.1856L22.9371 6.14892C22.8321 5.96225 22.6338 5.85725 22.4238 5.85725C22.3538 5.85725 22.2838 5.86892 22.2254 5.89225L19.3204 7.05892C18.7138 6.59225 18.0604 6.20725 17.3488 5.91558L16.9054 2.82392C16.8704 2.54392 16.6254 2.33392 16.3338 2.33392H11.6671C11.3754 2.33392 11.1304 2.54392 11.0954 2.82392L10.6521 5.91558C9.94042 6.20725 9.28709 6.60392 8.68042 7.05892L5.77542 5.89225C5.70542 5.86892 5.63542 5.85725 5.56542 5.85725C5.36709 5.85725 5.16876 5.96225 5.06376 6.14892L2.73042 10.1856C2.57876 10.4422 2.64876 10.7572 2.87042 10.9322L5.33209 12.8573C5.28542 13.2306 5.25042 13.6156 5.25042 14.0006C5.25042 14.3856 5.28542 14.7706 5.33209 15.1439L2.87042 17.0689C2.64876 17.2439 2.59042 17.5589 2.73042 17.8156L5.06376 21.8522C5.16876 22.0389 5.36709 22.1439 5.57709 22.1439C5.64709 22.1439 5.71709 22.1323 5.77542 22.1089L8.68042 20.9423C9.28709 21.4089 9.94042 21.7939 10.6521 22.0856L11.0954 25.1773C11.1304 25.4573 11.3754 25.6673 11.6671 25.6673H16.3338C16.6254 25.6673 16.8704 25.4573 16.9054 25.1773L17.3488 22.0856C18.0604 21.7939 18.7138 21.3973 19.3204 20.9423L22.2254 22.1089C22.2954 22.1323 22.3654 22.1439 22.4354 22.1439C22.6338 22.1439 22.8321 22.0389 22.9371 21.8522L25.2704 17.8156C25.4104 17.5589 25.3521 17.2439 25.1304 17.0689L22.6688 15.1439V15.1439ZM20.3588 13.1489C20.4054 13.5106 20.4171 13.7556 20.4171 14.0006C20.4171 14.2456 20.3938 14.5022 20.3588 14.8522L20.1954 16.1706L21.2338 16.9873L22.4938 17.9672L21.6771 19.3789L20.1954 18.7839L18.9821 18.2939L17.9321 19.0873C17.4304 19.4606 16.9521 19.7406 16.4738 19.9389L15.2371 20.4406L15.0504 21.7589L14.8171 23.3339H13.1838L12.9621 21.7589L12.7754 20.4406L11.5388 19.9389C11.0371 19.7289 10.5704 19.4606 10.1038 19.1106L9.04209 18.2939L7.80542 18.7956L6.32376 19.3906L5.50709 17.9789L6.76709 16.9989L7.80542 16.1822L7.64209 14.8639C7.60709 14.5022 7.58376 14.2339 7.58376 14.0006C7.58376 13.7672 7.60709 13.4989 7.64209 13.1489L7.80542 11.8306L6.76709 11.0139L5.50709 10.0339L6.32376 8.62225L7.80542 9.21725L9.01876 9.70725L10.0688 8.91392C10.5704 8.54058 11.0488 8.26058 11.5271 8.06225L12.7638 7.56058L12.9504 6.24225L13.1838 4.66725H14.8054L15.0271 6.24225L15.2138 7.56058L16.4504 8.06225C16.9521 8.27225 17.4188 8.54058 17.8854 8.89058L18.9471 9.70725L20.1838 9.20558L21.6654 8.61058L22.4821 10.0222L21.2338 11.0139L20.1954 11.8306L20.3588 13.1489ZM14.0004 9.33392C11.4221 9.33392 9.33376 11.4222 9.33376 14.0006C9.33376 16.5789 11.4221 18.6673 14.0004 18.6673C16.5788 18.6673 18.6671 16.5789 18.6671 14.0006C18.6671 11.4222 16.5788 9.33392 14.0004 9.33392ZM14.0004 16.3339C12.7171 16.3339 11.6671 15.2839 11.6671 14.0006C11.6671 12.7172 12.7171 11.6672 14.0004 11.6672C15.2838 11.6672 16.3338 12.7172 16.3338 14.0006C16.3338 15.2839 15.2838 16.3339 14.0004 16.3339Z" fill="white"/>
</g>
<defs>
<clipPath id="clip0_564_334">
<rect width="28" height="28" fill="white"/>
</clipPath>
</defs>
</svg>
