<svg width="40" height="50" viewBox="0 0 40 50" fill="none" xmlns="http://www.w3.org/2000/svg">
<path fill-rule="evenodd" clip-rule="evenodd" d="M26.0543 0C30.07 0 32.0773 0 34.239 0.683333C36.599 1.54233 38.4577 3.401 39.3167 5.761C40 7.92233 40 9.93033 40 13.9457V26.0543C40 30.07 40 32.0773 39.3167 34.239C38.4577 36.599 36.599 38.4577 34.239 39.3163C32.0773 40 30.07 40 26.0543 40H13.9457C9.93 40 7.92233 40 5.761 39.3163C3.401 38.4577 1.54233 36.599 0.683333 34.239C0 32.0773 0 30.07 0 26.0543V13.9457C0 9.93033 0 7.92233 0.683333 5.761C1.54233 3.401 3.401 1.54233 5.761 0.683333C7.92233 0 9.93 0 13.9457 0H26.0543Z" fill="url(#paint0_linear_13_105)"/>
<path fill-rule="evenodd" clip-rule="evenodd" d="M34.2051 18.6987C34.2051 25.1597 27.8912 30.3974 20.1026 30.3974C19.1607 30.3974 18.2404 30.3208 17.3502 30.1748C16.5659 30.0988 16.1003 30.1714 15.2964 30.42C14.9992 30.512 14.6519 30.6977 14.254 30.9105C13.3624 31.3872 12.2164 32 10.8077 32C10.7811 32 10.8704 31.9116 11.0231 31.7604C11.5288 31.2596 12.7308 30.0694 12.7308 29.1154V28.6738C8.69288 26.6159 6 22.9182 6 18.6987C6 12.2377 12.3139 7 20.1026 7C27.8912 7 34.2051 12.2377 34.2051 18.6987Z" fill="white"/>
<path d="M3.532 49.048C3.212 49.048 2.916 48.996 2.644 48.892C2.376 48.784 2.142 48.634 1.942 48.442C1.746 48.246 1.592 48.018 1.48 47.758C1.368 47.498 1.312 47.212 1.312 46.9C1.312 46.588 1.368 46.302 1.48 46.042C1.592 45.782 1.748 45.556 1.948 45.364C2.148 45.168 2.382 45.018 2.65 44.914C2.922 44.806 3.218 44.752 3.538 44.752C3.862 44.752 4.16 44.808 4.432 44.92C4.708 45.028 4.942 45.19 5.134 45.406L4.744 45.784C4.584 45.616 4.404 45.492 4.204 45.412C4.004 45.328 3.79 45.286 3.562 45.286C3.326 45.286 3.106 45.326 2.902 45.406C2.702 45.486 2.528 45.598 2.38 45.742C2.232 45.886 2.116 46.058 2.032 46.258C1.952 46.454 1.912 46.668 1.912 46.9C1.912 47.132 1.952 47.348 2.032 47.548C2.116 47.744 2.232 47.914 2.38 48.058C2.528 48.202 2.702 48.314 2.902 48.394C3.106 48.474 3.326 48.514 3.562 48.514C3.79 48.514 4.004 48.474 4.204 48.394C4.404 48.31 4.584 48.182 4.744 48.01L5.134 48.388C4.942 48.604 4.708 48.768 4.432 48.88C4.16 48.992 3.86 49.048 3.532 49.048ZM7.09188 49.036C6.77188 49.036 6.48788 48.966 6.23988 48.826C5.99188 48.686 5.79588 48.494 5.65188 48.25C5.50788 48.002 5.43588 47.722 5.43588 47.41C5.43588 47.094 5.50788 46.814 5.65188 46.57C5.79588 46.326 5.99188 46.136 6.23988 46C6.48788 45.86 6.77188 45.79 7.09188 45.79C7.40788 45.79 7.68988 45.86 7.93788 46C8.18988 46.136 8.38588 46.326 8.52588 46.57C8.66988 46.81 8.74188 47.09 8.74188 47.41C8.74188 47.726 8.66988 48.006 8.52588 48.25C8.38588 48.494 8.18988 48.686 7.93788 48.826C7.68988 48.966 7.40788 49.036 7.09188 49.036ZM7.09188 48.532C7.29588 48.532 7.47788 48.486 7.63788 48.394C7.80188 48.302 7.92988 48.172 8.02188 48.004C8.11388 47.832 8.15988 47.634 8.15988 47.41C8.15988 47.182 8.11388 46.986 8.02188 46.822C7.92988 46.654 7.80188 46.524 7.63788 46.432C7.47788 46.34 7.29588 46.294 7.09188 46.294C6.88788 46.294 6.70588 46.34 6.54588 46.432C6.38588 46.524 6.25788 46.654 6.16188 46.822C6.06588 46.986 6.01788 47.182 6.01788 47.41C6.01788 47.634 6.06588 47.832 6.16188 48.004C6.25788 48.172 6.38588 48.302 6.54588 48.394C6.70588 48.486 6.88788 48.532 7.09188 48.532ZM10.9356 49.036C10.6156 49.036 10.3316 48.966 10.0836 48.826C9.83563 48.686 9.63963 48.494 9.49563 48.25C9.35163 48.002 9.27963 47.722 9.27963 47.41C9.27963 47.094 9.35163 46.814 9.49563 46.57C9.63963 46.326 9.83563 46.136 10.0836 46C10.3316 45.86 10.6156 45.79 10.9356 45.79C11.2516 45.79 11.5336 45.86 11.7816 46C12.0336 46.136 12.2296 46.326 12.3696 46.57C12.5136 46.81 12.5856 47.09 12.5856 47.41C12.5856 47.726 12.5136 48.006 12.3696 48.25C12.2296 48.494 12.0336 48.686 11.7816 48.826C11.5336 48.966 11.2516 49.036 10.9356 49.036ZM10.9356 48.532C11.1396 48.532 11.3216 48.486 11.4816 48.394C11.6456 48.302 11.7736 48.172 11.8656 48.004C11.9576 47.832 12.0036 47.634 12.0036 47.41C12.0036 47.182 11.9576 46.986 11.8656 46.822C11.7736 46.654 11.6456 46.524 11.4816 46.432C11.3216 46.34 11.1396 46.294 10.9356 46.294C10.7316 46.294 10.5496 46.34 10.3896 46.432C10.2296 46.524 10.1016 46.654 10.0056 46.822C9.90963 46.986 9.86163 47.182 9.86163 47.41C9.86163 47.634 9.90963 47.832 10.0056 48.004C10.1016 48.172 10.2296 48.302 10.3896 48.394C10.5496 48.486 10.7316 48.532 10.9356 48.532ZM14.8874 49.048C14.6234 49.048 14.3894 49.006 14.1854 48.922C13.9854 48.838 13.8134 48.714 13.6694 48.55C13.5254 48.382 13.4154 48.172 13.3394 47.92C13.2674 47.664 13.2314 47.364 13.2314 47.02C13.2314 46.748 13.2554 46.504 13.3034 46.288C13.3514 46.072 13.4194 45.88 13.5074 45.712C13.5994 45.544 13.7114 45.398 13.8434 45.274C13.9794 45.15 14.1314 45.048 14.2994 44.968C14.4714 44.884 14.6594 44.82 14.8634 44.776L16.3154 44.452L16.3994 44.986L15.0614 45.274C14.9814 45.29 14.8854 45.314 14.7734 45.346C14.6614 45.378 14.5474 45.428 14.4314 45.496C14.3154 45.56 14.2074 45.65 14.1074 45.766C14.0074 45.882 13.9274 46.034 13.8674 46.222C13.8074 46.406 13.7774 46.634 13.7774 46.906C13.7774 46.982 13.7794 47.04 13.7834 47.08C13.7874 47.12 13.7914 47.16 13.7954 47.2C13.8034 47.24 13.8094 47.3 13.8134 47.38L13.5734 47.134C13.6374 46.914 13.7394 46.722 13.8794 46.558C14.0194 46.394 14.1874 46.268 14.3834 46.18C14.5834 46.088 14.8014 46.042 15.0374 46.042C15.3334 46.042 15.5954 46.106 15.8234 46.234C16.0554 46.362 16.2374 46.538 16.3694 46.762C16.5014 46.986 16.5674 47.242 16.5674 47.53C16.5674 47.822 16.4974 48.084 16.3574 48.316C16.2214 48.544 16.0274 48.724 15.7754 48.856C15.5234 48.984 15.2274 49.048 14.8874 49.048ZM14.9414 48.568C15.1454 48.568 15.3254 48.524 15.4814 48.436C15.6374 48.344 15.7594 48.222 15.8474 48.07C15.9354 47.914 15.9794 47.74 15.9794 47.548C15.9794 47.356 15.9354 47.186 15.8474 47.038C15.7594 46.89 15.6374 46.774 15.4814 46.69C15.3254 46.602 15.1414 46.558 14.9294 46.558C14.7294 46.558 14.5494 46.6 14.3894 46.684C14.2294 46.764 14.1054 46.878 14.0174 47.026C13.9294 47.17 13.8854 47.338 13.8854 47.53C13.8854 47.722 13.9294 47.898 14.0174 48.058C14.1094 48.214 14.2334 48.338 14.3894 48.43C14.5494 48.522 14.7334 48.568 14.9414 48.568ZM19.502 48.496L19.37 48.646V45.82H19.946V48.646L19.802 48.496H21.482L21.344 48.646V45.82H21.92V49H17.39V45.82H17.966V48.646L17.828 48.496H19.502ZM21.848 49.678V48.85L21.986 49H21.314V48.496H22.388V49.678H21.848ZM24.4545 49.036C24.1145 49.036 23.8145 48.966 23.5545 48.826C23.2985 48.686 23.0985 48.494 22.9545 48.25C22.8145 48.006 22.7445 47.726 22.7445 47.41C22.7445 47.094 22.8125 46.814 22.9485 46.57C23.0885 46.326 23.2785 46.136 23.5185 46C23.7625 45.86 24.0365 45.79 24.3405 45.79C24.6485 45.79 24.9205 45.858 25.1565 45.994C25.3925 46.13 25.5765 46.322 25.7085 46.57C25.8445 46.814 25.9125 47.1 25.9125 47.428C25.9125 47.452 25.9105 47.48 25.9065 47.512C25.9065 47.544 25.9045 47.574 25.9005 47.602H23.1945V47.188H25.6005L25.3665 47.332C25.3705 47.128 25.3285 46.946 25.2405 46.786C25.1525 46.626 25.0305 46.502 24.8745 46.414C24.7225 46.322 24.5445 46.276 24.3405 46.276C24.1405 46.276 23.9625 46.322 23.8065 46.414C23.6505 46.502 23.5285 46.628 23.4405 46.792C23.3525 46.952 23.3085 47.136 23.3085 47.344V47.44C23.3085 47.652 23.3565 47.842 23.4525 48.01C23.5525 48.174 23.6905 48.302 23.8665 48.394C24.0425 48.486 24.2445 48.532 24.4725 48.532C24.6605 48.532 24.8305 48.5 24.9825 48.436C25.1385 48.372 25.2745 48.276 25.3905 48.148L25.7085 48.52C25.5645 48.688 25.3845 48.816 25.1685 48.904C24.9565 48.992 24.7185 49.036 24.4545 49.036ZM26.806 49V45.82H27.382V47.17H29.194V45.82H29.77V49H29.194V47.668H27.382V49H26.806ZM30.89 49V45.82H31.466V48.136L33.416 45.82H33.938V49H33.362V46.684L31.418 49H30.89ZM37.09 49V47.884L37.18 47.992H36.166C35.742 47.992 35.41 47.902 35.17 47.722C34.934 47.542 34.816 47.28 34.816 46.936C34.816 46.568 34.942 46.29 35.194 46.102C35.45 45.914 35.79 45.82 36.214 45.82H37.606V49H37.09ZM34.786 49L35.65 47.782H36.244L35.404 49H34.786ZM37.09 47.704V46.162L37.18 46.324H36.232C35.968 46.324 35.764 46.374 35.62 46.474C35.476 46.57 35.404 46.73 35.404 46.954C35.404 47.37 35.672 47.578 36.208 47.578H37.18L37.09 47.704Z" fill="white"/>
<defs>
<linearGradient id="paint0_linear_13_105" x1="0" y1="0" x2="0" y2="40" gradientUnits="userSpaceOnUse">
<stop stop-color="#67FF81"/>
<stop offset="1" stop-color="#01B41F"/>
</linearGradient>
</defs>
</svg>
