<svg width="29" height="25" viewBox="0 0 29 25" fill="none" xmlns="http://www.w3.org/2000/svg">
<path fill-rule="evenodd" clip-rule="evenodd" d="M28.2051 11.6987C28.2051 18.1597 21.8912 23.3974 14.1026 23.3974C13.1607 23.3974 12.2404 23.3208 11.3502 23.1748C10.5659 23.0988 10.1003 23.1714 9.29642 23.42C8.99919 23.512 8.65195 23.6977 8.25398 23.9105C7.36245 24.3872 6.21635 25 4.80768 25C4.78114 25 4.87038 24.9116 5.02311 24.7604C5.52884 24.2596 6.73076 23.0694 6.73076 22.1154V21.6738C2.69288 19.6159 0 15.9182 0 11.6987C0 5.23769 6.31393 0 14.1026 0C21.8912 0 28.2051 5.23769 28.2051 11.6987Z" fill="white"/>
</svg>
