<svg width="40" height="51" viewBox="0 0 40 51" fill="none" xmlns="http://www.w3.org/2000/svg">
<path d="M4.512 49V45.166L4.662 45.322H3.078V44.8H6.54V45.322H4.956L5.1 45.166V49H4.512ZM8.78306 49.036C8.51906 49.036 8.27706 48.976 8.05706 48.856C7.84106 48.732 7.66706 48.55 7.53506 48.31C7.40706 48.07 7.34306 47.77 7.34306 47.41C7.34306 47.05 7.40506 46.75 7.52906 46.51C7.65706 46.27 7.82906 46.09 8.04506 45.97C8.26506 45.85 8.51106 45.79 8.78306 45.79C9.09506 45.79 9.37106 45.858 9.61106 45.994C9.85106 46.13 10.0411 46.32 10.1811 46.564C10.3211 46.804 10.3911 47.086 10.3911 47.41C10.3911 47.734 10.3211 48.018 10.1811 48.262C10.0411 48.506 9.85106 48.696 9.61106 48.832C9.37106 48.968 9.09506 49.036 8.78306 49.036ZM7.09706 50.164V45.82H7.64906V46.678L7.61306 47.416L7.67306 48.154V50.164H7.09706ZM8.73506 48.532C8.93906 48.532 9.12106 48.486 9.28106 48.394C9.44506 48.302 9.57306 48.172 9.66506 48.004C9.76106 47.832 9.80906 47.634 9.80906 47.41C9.80906 47.182 9.76106 46.986 9.66506 46.822C9.57306 46.654 9.44506 46.524 9.28106 46.432C9.12106 46.34 8.93906 46.294 8.73506 46.294C8.53506 46.294 8.35306 46.34 8.18906 46.432C8.02906 46.524 7.90106 46.654 7.80506 46.822C7.71306 46.986 7.66706 47.182 7.66706 47.41C7.66706 47.634 7.71306 47.832 7.80506 48.004C7.90106 48.172 8.02906 48.302 8.18906 48.394C8.35306 48.486 8.53506 48.532 8.73506 48.532ZM13.1486 49V48.328L13.1186 48.202V47.056C13.1186 46.812 13.0466 46.624 12.9026 46.492C12.7626 46.356 12.5506 46.288 12.2666 46.288C12.0786 46.288 11.8946 46.32 11.7146 46.384C11.5346 46.444 11.3826 46.526 11.2586 46.63L11.0186 46.198C11.1826 46.066 11.3786 45.966 11.6066 45.898C11.8386 45.826 12.0806 45.79 12.3326 45.79C12.7686 45.79 13.1046 45.896 13.3406 46.108C13.5766 46.32 13.6946 46.644 13.6946 47.08V49H13.1486ZM12.1046 49.036C11.8686 49.036 11.6606 48.996 11.4806 48.916C11.3046 48.836 11.1686 48.726 11.0726 48.586C10.9766 48.442 10.9286 48.28 10.9286 48.1C10.9286 47.928 10.9686 47.772 11.0486 47.632C11.1326 47.492 11.2666 47.38 11.4506 47.296C11.6386 47.212 11.8906 47.17 12.2066 47.17H13.2146V47.584H12.2306C11.9426 47.584 11.7486 47.632 11.6486 47.728C11.5486 47.824 11.4986 47.94 11.4986 48.076C11.4986 48.232 11.5606 48.358 11.6846 48.454C11.8086 48.546 11.9806 48.592 12.2006 48.592C12.4166 48.592 12.6046 48.544 12.7646 48.448C12.9286 48.352 13.0466 48.212 13.1186 48.028L13.2326 48.424C13.1566 48.612 13.0226 48.762 12.8306 48.874C12.6386 48.982 12.3966 49.036 12.1046 49.036ZM14.7318 49V45.82H15.3078V47.17H17.1198V45.82H17.6958V49H17.1198V47.668H15.3078V49H14.7318ZM20.2018 49.036C19.8778 49.036 19.5878 48.966 19.3318 48.826C19.0798 48.686 18.8818 48.494 18.7378 48.25C18.5938 48.006 18.5218 47.726 18.5218 47.41C18.5218 47.094 18.5938 46.814 18.7378 46.57C18.8818 46.326 19.0798 46.136 19.3318 46C19.5878 45.86 19.8778 45.79 20.2018 45.79C20.4898 45.79 20.7458 45.848 20.9698 45.964C21.1978 46.076 21.3738 46.244 21.4978 46.468L21.0598 46.75C20.9558 46.594 20.8278 46.48 20.6758 46.408C20.5278 46.332 20.3678 46.294 20.1958 46.294C19.9878 46.294 19.8018 46.34 19.6378 46.432C19.4738 46.524 19.3438 46.654 19.2478 46.822C19.1518 46.986 19.1038 47.182 19.1038 47.41C19.1038 47.638 19.1518 47.836 19.2478 48.004C19.3438 48.172 19.4738 48.302 19.6378 48.394C19.8018 48.486 19.9878 48.532 20.1958 48.532C20.3678 48.532 20.5278 48.496 20.6758 48.424C20.8278 48.348 20.9558 48.232 21.0598 48.076L21.4978 48.352C21.3738 48.572 21.1978 48.742 20.9698 48.862C20.7458 48.978 20.4898 49.036 20.2018 49.036ZM22.2435 49V45.82H25.1895V49H24.6135V46.18L24.7515 46.324H22.6815L22.8195 46.18V49H22.2435ZM27.6661 49.036C27.3461 49.036 27.0621 48.966 26.8141 48.826C26.5661 48.686 26.3701 48.494 26.2261 48.25C26.0821 48.002 26.0101 47.722 26.0101 47.41C26.0101 47.094 26.0821 46.814 26.2261 46.57C26.3701 46.326 26.5661 46.136 26.8141 46C27.0621 45.86 27.3461 45.79 27.6661 45.79C27.9821 45.79 28.2641 45.86 28.5121 46C28.7641 46.136 28.9601 46.326 29.1001 46.57C29.2441 46.81 29.3161 47.09 29.3161 47.41C29.3161 47.726 29.2441 48.006 29.1001 48.25C28.9601 48.494 28.7641 48.686 28.5121 48.826C28.2641 48.966 27.9821 49.036 27.6661 49.036ZM27.6661 48.532C27.8701 48.532 28.0521 48.486 28.2121 48.394C28.3761 48.302 28.5041 48.172 28.5961 48.004C28.6881 47.832 28.7341 47.634 28.7341 47.41C28.7341 47.182 28.6881 46.986 28.5961 46.822C28.5041 46.654 28.3761 46.524 28.2121 46.432C28.0521 46.34 27.8701 46.294 27.6661 46.294C27.4621 46.294 27.2801 46.34 27.1201 46.432C26.9601 46.524 26.8321 46.654 26.7361 46.822C26.6401 46.986 26.5921 47.182 26.5921 47.41C26.5921 47.634 26.6401 47.832 26.7361 48.004C26.8321 48.172 26.9601 48.302 27.1201 48.394C27.2801 48.486 27.4621 48.532 27.6661 48.532ZM31.8338 49.036C31.5698 49.036 31.3278 48.976 31.1078 48.856C30.8918 48.732 30.7178 48.55 30.5858 48.31C30.4578 48.07 30.3938 47.77 30.3938 47.41C30.3938 47.05 30.4558 46.75 30.5798 46.51C30.7078 46.27 30.8798 46.09 31.0958 45.97C31.3158 45.85 31.5618 45.79 31.8338 45.79C32.1458 45.79 32.4218 45.858 32.6618 45.994C32.9018 46.13 33.0918 46.32 33.2318 46.564C33.3718 46.804 33.4418 47.086 33.4418 47.41C33.4418 47.734 33.3718 48.018 33.2318 48.262C33.0918 48.506 32.9018 48.696 32.6618 48.832C32.4218 48.968 32.1458 49.036 31.8338 49.036ZM30.1478 50.164V45.82H30.6998V46.678L30.6638 47.416L30.7238 48.154V50.164H30.1478ZM31.7858 48.532C31.9898 48.532 32.1718 48.486 32.3318 48.394C32.4958 48.302 32.6238 48.172 32.7158 48.004C32.8118 47.832 32.8598 47.634 32.8598 47.41C32.8598 47.182 32.8118 46.986 32.7158 46.822C32.6238 46.654 32.4958 46.524 32.3318 46.432C32.1718 46.34 31.9898 46.294 31.7858 46.294C31.5858 46.294 31.4038 46.34 31.2398 46.432C31.0798 46.524 30.9518 46.654 30.8558 46.822C30.7638 46.986 30.7178 47.182 30.7178 47.41C30.7178 47.634 30.7638 47.832 30.8558 48.004C30.9518 48.172 31.0798 48.302 31.2398 48.394C31.4038 48.486 31.5858 48.532 31.7858 48.532ZM34.7915 49V46.174L34.9355 46.324H33.6275V45.82H36.5315V46.324H35.2295L35.3675 46.174V49H34.7915Z" fill="white"/>
<path fill-rule="evenodd" clip-rule="evenodd" d="M26.0543 0C30.07 0 32.0773 0 34.239 0.683333C36.599 1.54233 38.4577 3.401 39.3167 5.761C40 7.92233 40 9.93033 40 13.9457V26.0543C40 30.07 40 32.0773 39.3167 34.239C38.4577 36.599 36.599 38.4577 34.239 39.3163C32.0773 40 30.07 40 26.0543 40H13.9457C9.93 40 7.92233 40 5.761 39.3163C3.401 38.4577 1.54233 36.599 0.683333 34.239C0 32.0773 0 30.07 0 26.0543V13.9457C0 9.93033 0 7.92233 0.683333 5.761C1.54233 3.401 3.401 1.54233 5.761 0.683333C7.92233 0 9.93 0 13.9457 0H26.0543Z" fill="url(#paint0_linear_13_157)"/>
<g clip-path="url(#clip0_13_157)">
<path d="M34.7919 15.5701C34.7206 15.3625 34.4678 15.2009 34.2568 15.2009C33.3431 15.2009 32.4293 15.2009 31.5156 15.2009C31.3397 15.2009 31.1352 15.3134 31.0305 15.471C30.4539 14.1008 29.7907 12.6904 29.1535 11.7126C29.0388 11.5366 28.8661 11.4064 28.6653 11.3447C28.5492 11.309 25.7553 10.4696 19.9999 10.4696C14.2447 10.4696 11.4509 11.309 11.3348 11.3447C11.1341 11.4064 10.9613 11.5366 10.8466 11.7127C10.2093 12.6907 9.54615 14.101 8.96961 15.4711C8.86501 15.3134 8.66041 15.2009 8.48445 15.2009C7.5707 15.2009 6.65703 15.2009 5.74329 15.2009C5.5323 15.2009 5.27952 15.3625 5.20809 15.5701C4.93055 16.3783 4.9307 16.8411 5.20816 17.6493C5.27952 17.857 5.5323 18.0185 5.74329 18.0185C6.22371 18.0185 6.70405 18.0185 7.18447 18.0185C6.5136 18.6897 6.09743 19.6155 6.09743 20.6372C6.09743 20.685 6.10066 20.7326 6.10705 20.78L6.19377 21.4174C6.22263 21.6297 6.31395 21.8196 6.44662 21.9711V23.4203H6.36291C6.1647 23.4203 6.00396 23.5811 6.00396 23.7793V28.0737C6.00396 28.8769 6.65746 29.5304 7.46065 29.5304H10.3734C11.1766 29.5304 11.8301 28.8769 11.8301 28.0737V26.228H28.3195V28.0737C28.3195 28.8769 28.973 29.5304 29.7762 29.5304H32.6889C33.4922 29.5304 34.1456 28.8769 34.1456 28.0737V23.7793C34.1456 23.5811 33.9849 23.4203 33.7866 23.4203H33.7029V22.112C33.9163 21.947 34.0666 21.7022 34.1053 21.4173L34.192 20.78C34.1984 20.7327 34.2016 20.6849 34.2016 20.6372C34.2016 19.6155 33.7854 18.6896 33.1145 18.0184C33.4953 18.0184 33.8759 18.0184 34.2566 18.0184C34.4676 18.0184 34.7203 17.8569 34.7917 17.6493C35.0695 16.8411 35.0694 16.3783 34.7919 15.5701ZM12.1709 12.9814C13.0172 12.7793 15.6027 12.2653 20 12.2653C24.3991 12.2653 26.985 12.7797 27.8293 12.9813C28.4287 13.9774 29.0587 15.3836 29.5956 16.7023C28.1857 16.4733 25.4087 16.212 20.0749 16.212C14.4063 16.212 11.6697 16.5115 10.3835 16.7536C10.9247 15.4206 11.5633 13.991 12.1709 12.9814ZM7.20106 25.4264V24.4931H9.7496L10.0187 25.4264H7.20106ZM7.16459 23.4203V21.656L12.1175 21.9749L12.6007 23.4203H7.16459ZM26.1628 25.2819H13.9869L13.6138 24.0692H26.536L26.1628 25.2819ZM26.792 23.4203H13.3577L12.9944 22.3338H27.1553L26.792 23.4203ZM12.7733 21.6529L12.4023 20.4474H27.7474L27.3765 21.6529H12.7733ZM32.9486 25.4264H30.1309L30.4 24.4931H32.9485V25.4264H32.9486ZM32.9851 23.4203H27.549L28.0322 21.9749L32.9851 21.656V23.4203Z" fill="white"/>
</g>
<defs>
<linearGradient id="paint0_linear_13_157" x1="0" y1="0" x2="0" y2="40" gradientUnits="userSpaceOnUse">
<stop stop-color="#48494B"/>
<stop offset="1" stop-color="#212222"/>
</linearGradient>
<clipPath id="clip0_13_157">
<rect width="30" height="30" fill="white" transform="translate(5 5)"/>
</clipPath>
</defs>
</svg>
