<svg width="30" height="30" viewBox="0 0 30 30" fill="none" xmlns="http://www.w3.org/2000/svg">
<g clip-path="url(#clip0_533_132)">
<path d="M29.7919 10.5701C29.7206 10.3625 29.4678 10.2009 29.2568 10.2009C28.3431 10.2009 27.4293 10.2009 26.5156 10.2009C26.3397 10.2009 26.1352 10.3134 26.0305 10.471C25.4539 9.10083 24.7907 7.69044 24.1535 6.71259C24.0388 6.53663 23.8661 6.4064 23.6653 6.34466C23.5492 6.30898 20.7553 5.46961 14.9999 5.46961C9.24467 5.46961 6.45089 6.30898 6.3348 6.34466C6.13408 6.4064 5.96128 6.53663 5.84663 6.71266C5.20935 7.69065 4.54615 9.10104 3.96961 10.4711C3.86501 10.3134 3.66041 10.2009 3.48445 10.2009C2.5707 10.2009 1.65703 10.2009 0.743288 10.2009C0.532297 10.2009 0.279524 10.3625 0.208093 10.5701C-0.0694479 11.3783 -0.0693043 11.8411 0.208164 12.6493C0.279524 12.857 0.532297 13.0185 0.743288 13.0185C1.22371 13.0185 1.70405 13.0185 2.18447 13.0185C1.5136 13.6897 1.09743 14.6155 1.09743 15.6372C1.09743 15.685 1.10066 15.7326 1.10705 15.78L1.19377 16.4174C1.22263 16.6297 1.31395 16.8196 1.44662 16.9711V18.4203H1.36291C1.1647 18.4203 1.00396 18.5811 1.00396 18.7793V23.0737C1.00396 23.8769 1.65746 24.5304 2.46065 24.5304H5.37339C6.17658 24.5304 6.83008 23.8769 6.83008 23.0737V21.228H23.3195V23.0737C23.3195 23.8769 23.973 24.5304 24.7762 24.5304H27.6889C28.4922 24.5304 29.1456 23.8769 29.1456 23.0737V18.7793C29.1456 18.5811 28.9849 18.4203 28.7866 18.4203H28.7029V17.112C28.9163 16.947 29.0666 16.7022 29.1053 16.4173L29.192 15.78C29.1984 15.7327 29.2016 15.6849 29.2016 15.6372C29.2016 14.6155 28.7854 13.6896 28.1145 13.0184C28.4953 13.0184 28.8759 13.0184 29.2566 13.0184C29.4676 13.0184 29.7203 12.8569 29.7917 12.6493C30.0695 11.8411 30.0694 11.3783 29.7919 10.5701ZM7.17087 7.9814C8.0172 7.77931 10.6027 7.2653 15 7.2653C19.3991 7.2653 21.985 7.77967 22.8293 7.98133C23.4287 8.97742 24.0587 10.3836 24.5956 11.7023C23.1857 11.4733 20.4087 11.212 15.0749 11.212C9.40634 11.212 6.6697 11.5115 5.38351 11.7536C5.92474 10.4206 6.56331 8.99099 7.17087 7.9814ZM2.20106 20.4264V19.4931H4.7496L5.01875 20.4264H2.20106ZM2.16459 18.4203V16.656L7.11746 16.9749L7.60075 18.4203H2.16459ZM21.1628 20.2819H8.98687L8.61378 19.0692H21.536L21.1628 20.2819ZM21.792 18.4203H8.3577L7.99437 17.3338H22.1553L21.792 18.4203ZM7.77326 16.6529L7.40232 15.4474H22.7474L22.3765 16.6529H7.77326ZM27.9486 20.4264H25.1309L25.4 19.4931H27.9485V20.4264H27.9486ZM27.9851 18.4203H22.549L23.0322 16.9749L27.9851 16.656V18.4203Z" fill="white"/>
</g>
<defs>
<clipPath id="clip0_533_132">
<rect width="30" height="30" fill="white"/>
</clipPath>
</defs>
</svg>
