<svg width="20" height="20" viewBox="0 0 20 20" fill="none" xmlns="http://www.w3.org/2000/svg">
<g clip-path="url(#clip0_841_35)">
<path d="M15.8333 2.49967H15V0.833008H13.3333V2.49967H6.66667V0.833008H5V2.49967H4.16667C3.25 2.49967 2.5 3.24967 2.5 4.16634V15.833C2.5 16.7497 3.25 17.4997 4.16667 17.4997H15.8333C16.75 17.4997 17.5 16.7497 17.5 15.833V4.16634C17.5 3.24967 16.75 2.49967 15.8333 2.49967ZM15.8333 15.833H4.16667V7.49967H15.8333V15.833ZM4.16667 5.83301V4.16634H15.8333V5.83301H4.16667ZM8.8 14.5497L13.7417 9.60801L12.8583 8.72468L8.8 12.783L7.04167 11.0247L6.15833 11.908L8.8 14.5497Z" fill="white"/>
</g>
<defs>
<clipPath id="clip0_841_35">
<rect width="20" height="20" fill="white"/>
</clipPath>
</defs>
</svg>
