<svg width="35" height="35" viewBox="0 0 35 35" fill="none" xmlns="http://www.w3.org/2000/svg">
<g clip-path="url(#clip0_841_31)">
<path d="M29.8744 5.12565C26.5691 1.82027 22.1744 0 17.5 0C12.8256 0 8.43097 1.82027 5.12559 5.12565C1.82027 8.43097 0 12.8256 0 17.5C0 22.1744 1.82027 26.569 5.12559 29.8743C8.43097 33.1797 12.8256 35 17.5 35C22.1744 35 26.569 33.1797 29.8744 29.8743C33.1797 26.5691 35 22.1744 35 17.5C35 12.8256 33.1797 8.43097 29.8744 5.12565ZM17.5 3.91446C24.3894 3.91446 30.097 9.06938 30.9695 15.7246L22.5483 14.9044C21.604 13.0754 19.6963 11.8212 17.5 11.8212C15.3037 11.8212 13.396 13.0754 12.4517 14.9044L4.03047 15.7246C4.90301 9.06938 10.6106 3.91446 17.5 3.91446ZM4.02562 19.2346L12.3471 19.8829C12.8728 21.0143 13.76 21.9451 14.86 22.5254L15.4053 30.9239C9.46866 30.0012 4.79192 25.2207 4.02562 19.2346ZM17.5 19.2643C16.5271 19.2643 15.7357 18.4728 15.7357 17.5C15.7357 16.5272 16.5272 15.7357 17.5 15.7357C18.4728 15.7357 19.2643 16.5272 19.2643 17.5C19.2643 18.4728 18.4729 19.2643 17.5 19.2643ZM19.5948 30.9239L20.1402 22.5254C21.2401 21.9451 22.1273 21.0143 22.6531 19.8829L30.9745 19.2346C30.2081 25.2207 25.5313 30.0012 19.5948 30.9239Z" fill="white"/>
</g>
<defs>
<clipPath id="clip0_841_31">
<rect width="35" height="35" fill="white"/>
</clipPath>
</defs>
</svg>
