<svg width="20" height="20" viewBox="0 0 20 20" fill="none" xmlns="http://www.w3.org/2000/svg">
<g clip-path="url(#clip0_161_62)">
<path d="M10 0C4.47717 0 0 4.47717 0 10C0 15.5228 4.47717 20 10 20C15.5228 20 20 15.5229 20 10C20 4.47713 15.5228 0 10 0ZM11.6667 16.407C11.6667 16.7842 11.3608 17.09 10.9836 17.09H9.10965C8.73244 17.09 8.42661 16.7842 8.42661 16.407V8.80335C8.42661 8.42613 8.73239 8.1203 9.10965 8.1203H10.9836C11.3608 8.1203 11.6667 8.42609 11.6667 8.80335V16.407ZM10 6.82609C9.06352 6.82609 8.30435 6.06691 8.30435 5.13043C8.30435 4.19396 9.06352 3.43478 10 3.43478C10.9365 3.43478 11.6957 4.19396 11.6957 5.13043C11.6957 6.06691 10.9365 6.82609 10 6.82609Z" fill="white"/>
</g>
<defs>
<clipPath id="clip0_161_62">
<rect width="20" height="20" fill="white"/>
</clipPath>
</defs>
</svg>
