<svg width="20" height="20" viewBox="0 0 20 20" fill="none" xmlns="http://www.w3.org/2000/svg">
<g clip-path="url(#clip0_161_87)">
<path d="M7.50033 9.16667C8.1596 9.16667 8.80406 8.97117 9.35223 8.6049C9.90039 8.23863 10.3276 7.71803 10.5799 7.10895C10.8322 6.49986 10.8982 5.82964 10.7696 5.18303C10.641 4.53643 10.3235 3.94249 9.85735 3.47631C9.39117 3.01014 8.79723 2.69267 8.15063 2.56405C7.50402 2.43543 6.8338 2.50144 6.22471 2.75374C5.61563 3.00603 5.09503 3.43327 4.72876 3.98143C4.36249 4.5296 4.16699 5.17406 4.16699 5.83333C4.16699 6.71739 4.51818 7.56524 5.1433 8.19036C5.76842 8.81548 6.61627 9.16667 7.50033 9.16667Z" fill="white"/>
<path d="M14.167 10.8335C14.6614 10.8335 15.1448 10.6869 15.5559 10.4122C15.967 10.1375 16.2875 9.74702 16.4767 9.29021C16.6659 8.83339 16.7154 8.33072 16.619 7.84577C16.5225 7.36082 16.2844 6.91536 15.9348 6.56573C15.5851 6.2161 15.1397 5.978 14.6547 5.88153C14.1698 5.78507 13.6671 5.83458 13.2103 6.0238C12.7535 6.21302 12.363 6.53345 12.0883 6.94457C11.8136 7.35569 11.667 7.83904 11.667 8.3335C11.667 8.99654 11.9304 9.63242 12.3992 10.1013C12.8681 10.5701 13.504 10.8335 14.167 10.8335Z" fill="white"/>
<path d="M17.5003 16.6668C17.7213 16.6668 17.9333 16.579 18.0896 16.4227C18.2459 16.2664 18.3337 16.0544 18.3337 15.8334C18.333 15.0546 18.114 14.2915 17.7017 13.6308C17.2893 12.9701 16.7 12.4382 16.0006 12.0955C15.3012 11.7527 14.5198 11.6129 13.745 11.6918C12.9702 11.7706 12.2329 12.0651 11.617 12.5418C10.8008 11.7287 9.76204 11.1756 8.63184 10.9521C7.50165 10.7286 6.33059 10.8448 5.26635 11.286C4.2021 11.7272 3.29234 12.4737 2.65178 13.4313C2.01122 14.3889 1.66855 15.5147 1.66699 16.6668C1.66699 16.8878 1.75479 17.0997 1.91107 17.256C2.06735 17.4123 2.27931 17.5001 2.50033 17.5001H12.5003C12.7213 17.5001 12.9333 17.4123 13.0896 17.256C13.2459 17.0997 13.3337 16.8878 13.3337 16.6668" fill="white"/>
</g>
<defs>
<clipPath id="clip0_161_87">
<rect width="20" height="20" fill="white"/>
</clipPath>
</defs>
</svg>
