<svg width="20" height="20" viewBox="0 0 20 20" fill="none" xmlns="http://www.w3.org/2000/svg">
<g clip-path="url(#clip0_161_94)">
<path d="M16.192 10.817C16.2254 10.5503 16.2504 10.2837 16.2504 10.0003C16.2504 9.71699 16.2254 9.45033 16.192 9.18366L17.9504 7.80866C18.1087 7.68366 18.1504 7.45866 18.0504 7.27533L16.3837 4.39199C16.3087 4.25866 16.167 4.18366 16.017 4.18366C15.967 4.18366 15.917 4.19199 15.8754 4.20866L13.8004 5.04199C13.367 4.70866 12.9004 4.43366 12.392 4.22533L12.0754 2.01699C12.0504 1.81699 11.8754 1.66699 11.667 1.66699H8.33369C8.12535 1.66699 7.95035 1.81699 7.92535 2.01699L7.60869 4.22533C7.10035 4.43366 6.63369 4.71699 6.20035 5.04199L4.12535 4.20866C4.07535 4.19199 4.02535 4.18366 3.97535 4.18366C3.83369 4.18366 3.69202 4.25866 3.61702 4.39199L1.95035 7.27533C1.84202 7.45866 1.89202 7.68366 2.05035 7.80866L3.80869 9.18366C3.77535 9.45033 3.75035 9.72533 3.75035 10.0003C3.75035 10.2753 3.77535 10.5503 3.80869 10.817L2.05035 12.192C1.89202 12.317 1.85035 12.542 1.95035 12.7253L3.61702 15.6087C3.69202 15.742 3.83369 15.817 3.98369 15.817C4.03369 15.817 4.08369 15.8087 4.12535 15.792L6.20035 14.9587C6.63369 15.292 7.10035 15.567 7.60869 15.7753L7.92535 17.9837C7.95035 18.1837 8.12535 18.3337 8.33369 18.3337H11.667C11.8754 18.3337 12.0504 18.1837 12.0754 17.9837L12.392 15.7753C12.9004 15.567 13.367 15.2837 13.8004 14.9587L15.8754 15.792C15.9254 15.8087 15.9754 15.817 16.0254 15.817C16.167 15.817 16.3087 15.742 16.3837 15.6087L18.0504 12.7253C18.1504 12.542 18.1087 12.317 17.9504 12.192L16.192 10.817ZM14.542 9.39199C14.5754 9.65033 14.5837 9.82533 14.5837 10.0003C14.5837 10.1753 14.567 10.3587 14.542 10.6087L14.4254 11.5503L15.167 12.1337L16.067 12.8337L15.4837 13.842L14.4254 13.417L13.5587 13.067L12.8087 13.6337C12.4504 13.9003 12.1087 14.1003 11.767 14.242L10.8837 14.6003L10.7504 15.542L10.5837 16.667H9.41702L9.25869 15.542L9.12535 14.6003L8.24202 14.242C7.88369 14.092 7.55035 13.9003 7.21702 13.6503L6.45869 13.067L5.57535 13.4253L4.51702 13.8503L3.93369 12.842L4.83369 12.142L5.57535 11.5587L5.45869 10.617C5.43369 10.3587 5.41702 10.167 5.41702 10.0003C5.41702 9.83366 5.43369 9.64199 5.45869 9.39199L5.57535 8.45033L4.83369 7.86699L3.93369 7.16699L4.51702 6.15866L5.57535 6.58366L6.44202 6.93366L7.19202 6.36699C7.55035 6.10033 7.89202 5.90033 8.23369 5.75866L9.11702 5.40033L9.25035 4.45866L9.41702 3.33366H10.5754L10.7337 4.45866L10.867 5.40033L11.7504 5.75866C12.1087 5.90866 12.442 6.10033 12.7754 6.35033L13.5337 6.93366L14.417 6.57533L15.4754 6.15033L16.0587 7.15866L15.167 7.86699L14.4254 8.45033L14.542 9.39199ZM10.0004 6.66699C8.15869 6.66699 6.66702 8.15866 6.66702 10.0003C6.66702 11.842 8.15869 13.3337 10.0004 13.3337C11.842 13.3337 13.3337 11.842 13.3337 10.0003C13.3337 8.15866 11.842 6.66699 10.0004 6.66699ZM10.0004 11.667C9.08369 11.667 8.33369 10.917 8.33369 10.0003C8.33369 9.08366 9.08369 8.33366 10.0004 8.33366C10.917 8.33366 11.667 9.08366 11.667 10.0003C11.667 10.917 10.917 11.667 10.0004 11.667Z" fill="white"/>
</g>
<defs>
<clipPath id="clip0_161_94">
<rect width="20" height="20" fill="white"/>
</clipPath>
</defs>
</svg>
