<svg width="35" height="35" viewBox="0 0 35 35" fill="none" xmlns="http://www.w3.org/2000/svg">
<g clip-path="url(#clip0_883_750)">
<path d="M29.4663 0H5.53374C2.4809 0 0 2.4809 0 5.53374V29.4663C0 32.5191 2.4809 35 5.53374 35H29.4663C32.5191 35 35 32.5191 35 29.4663V5.53374C35 2.48833 32.5117 0 29.4663 0ZM32.9945 29.4663C32.9945 31.4124 31.4124 32.9945 29.4663 32.9945H5.53374C3.58765 32.9945 2.00552 31.4124 2.00552 29.4663V5.53374C2.00552 3.58765 3.58765 2.00552 5.53374 2.00552H29.4663C31.4124 2.00552 32.9945 3.58765 32.9945 5.53374V29.4663Z" fill="white"/>
<path d="M25.5956 16.4971H11.8243L15.3451 12.9689C15.7388 12.5752 15.7388 11.9438 15.3451 11.5501C14.9515 11.1565 14.3201 11.1565 13.9264 11.5501L8.68979 16.7868C8.29611 17.1804 8.29611 17.8118 8.68979 18.2055L13.9338 23.4421C14.127 23.6352 14.3869 23.7392 14.6395 23.7392C14.892 23.7392 15.152 23.6427 15.3451 23.4421C15.7388 23.0484 15.7388 22.4171 15.3451 22.0234L11.8169 18.4952H25.5956C26.1526 18.4952 26.5983 18.0495 26.5983 17.4924C26.5983 16.9353 26.1526 16.4971 25.5956 16.4971Z" fill="white"/>
</g>
<defs>
<clipPath id="clip0_883_750">
<rect width="35" height="35" fill="white"/>
</clipPath>
</defs>
</svg>
