<svg width="15" height="15" viewBox="0 0 15 15" fill="none" xmlns="http://www.w3.org/2000/svg">
<path fill-rule="evenodd" clip-rule="evenodd" d="M10.4687 13.5076C9.65701 13.688 8.67231 13.75 7.5 13.75C6.32769 13.75 5.343 13.688 4.53131 13.5076C3.7125 13.3256 3.032 13.015 2.5085 12.4915C1.985 11.968 1.67438 11.2875 1.49238 10.4687C1.312 9.65701 1.25 8.67231 1.25 7.5C1.25 6.32769 1.312 5.343 1.49238 4.53131C1.67438 3.7125 1.985 3.032 2.5085 2.5085C3.032 1.985 3.7125 1.67438 4.53131 1.49238C5.343 1.312 6.32769 1.25 7.5 1.25C8.67231 1.25 9.65701 1.312 10.4687 1.49238C11.2875 1.67438 11.968 1.985 12.4915 2.5085C13.015 3.032 13.3256 3.7125 13.5076 4.53131C13.688 5.343 13.75 6.32769 13.75 7.5C13.75 8.67231 13.688 9.65701 13.5076 10.4687C13.3256 11.2875 13.015 11.968 12.4915 12.4915C11.968 13.015 11.2875 13.3256 10.4687 13.5076ZM8.125 5C8.125 4.65481 7.84519 4.375 7.5 4.375C7.15481 4.375 6.875 4.65481 6.875 5L6.875 8.49113L6.06694 7.68306C5.82288 7.439 5.42712 7.439 5.18306 7.68306C4.939 7.92712 4.939 8.32288 5.18306 8.56694L7.00369 10.3875C7.01306 10.397 7.02269 10.4061 7.0325 10.4148C7.147 10.5438 7.314 10.625 7.5 10.625C7.686 10.625 7.853 10.5438 7.9675 10.4148C7.97731 10.4061 7.98694 10.397 7.99631 10.3875L9.81694 8.56694C10.061 8.32288 10.061 7.92712 9.81694 7.68306C9.57286 7.439 9.17714 7.439 8.93306 7.68306L8.125 8.49113V5Z" fill="white"/>
</svg>
