<svg width="15" height="15" viewBox="0 0 15 15" fill="none" xmlns="http://www.w3.org/2000/svg">
<g clip-path="url(#clip0_883_526)">
<path d="M1.31055 11.2136L10.5966 1.92725L13.072 4.40262L3.78567 13.6887L1.31055 11.2136Z" fill="white"/>
<path d="M14.1338 3.34184L14.4874 2.98825C14.818 2.65766 15 2.2183 15 1.75069C15 1.28307 14.818 0.843711 14.4874 0.513128C14.1568 0.182546 13.7172 0 13.2496 0C12.782 0 12.3426 0.182296 12.0118 0.512878L11.6582 0.866467L14.1338 3.34184Z" fill="white"/>
<path d="M1.0251 11.6348L0.0128496 14.671C-0.0171579 14.7608 0.00634795 14.8601 0.0733647 14.9268C0.120877 14.9744 0.184893 15.0001 0.250159 15.0001C0.276666 15.0001 0.303172 14.9959 0.329179 14.9871L3.36519 13.9751L1.0251 11.6348Z" fill="white"/>
<path d="M10.9512 1.57405L11.305 1.22021L13.7804 3.69558L13.4265 4.04942L10.9512 1.57405Z" fill="white"/>
</g>
<defs>
<clipPath id="clip0_883_526">
<rect width="15" height="15" fill="white"/>
</clipPath>
</defs>
</svg>
