<svg width="15" height="15" viewBox="0 0 15 15" fill="none" xmlns="http://www.w3.org/2000/svg">
<path d="M6.09375 13.5936V10.3077C6.09375 10.078 6.32813 9.84361 6.5625 9.84361H8.4375C8.67188 9.84361 8.90625 10.078 8.90625 10.3124V13.5936C8.90625 13.7179 8.95564 13.8372 9.04354 13.9251C9.13145 14.013 9.25068 14.0624 9.375 14.0624H13.125C13.2493 14.0624 13.3686 14.013 13.4565 13.9251C13.5444 13.8372 13.5938 13.7179 13.5938 13.5936V7.03111C13.5939 6.96951 13.5818 6.9085 13.5583 6.85155C13.5349 6.79461 13.5004 6.74285 13.4569 6.69924L12.1875 5.4308V2.34361C12.1875 2.21929 12.1381 2.10006 12.0502 2.01216C11.9623 1.92425 11.8431 1.87486 11.7188 1.87486H10.7813C10.6569 1.87486 10.5377 1.92425 10.4498 2.01216C10.3619 2.10006 10.3125 2.21929 10.3125 2.34361V3.5558L7.83188 1.07424C7.78833 1.03058 7.73661 0.995949 7.67966 0.972318C7.62271 0.948687 7.56166 0.936523 7.5 0.936523C7.43834 0.936523 7.37729 0.948687 7.32034 0.972318C7.2634 0.995949 7.21167 1.03058 7.16813 1.07424L1.54313 6.69924C1.49962 6.74285 1.46514 6.79461 1.44166 6.85155C1.41817 6.9085 1.40614 6.96951 1.40625 7.03111V13.5936C1.40625 13.7179 1.45564 13.8372 1.54354 13.9251C1.63145 14.013 1.75068 14.0624 1.875 14.0624H5.625C5.74932 14.0624 5.86855 14.013 5.95646 13.9251C6.04436 13.8372 6.09375 13.7179 6.09375 13.5936Z" fill="white"/>
</svg>
