<svg width="12" height="12" viewBox="0 0 12 12" fill="none" xmlns="http://www.w3.org/2000/svg">
<path d="M11.7062 1.38277C11.8667 1.38277 11.9973 1.23848 11.9973 1.06112V0.321643C11.9973 0.144288 11.8667 0 11.7062 0H0.29109C0.130583 0 0 0.144288 0 0.321643V1.06413C0 1.24148 0.130583 1.38577 0.29109 1.38577H1.04738V10.6142H0.29109C0.130583 10.6142 0 10.7585 0 10.9359V11.6784C0 11.8557 0.130583 12 0.29109 12H11.7089C11.8694 12 12 11.8557 12 11.6784V10.9359C12 10.7585 11.8694 10.6142 11.7089 10.6142H11.2219V1.38577H11.7062V1.38277ZM4.0127 1.38277V4.67435H2.326V1.38277H4.0127ZM3.38699 5.68437V6.30962C3.38699 6.44188 3.28905 6.5501 3.16935 6.5501C3.04965 6.5501 2.95171 6.44188 2.95171 6.30962V5.68437C2.95171 5.5521 3.04965 5.44389 3.16935 5.44389C3.28905 5.44389 3.38699 5.5521 3.38699 5.68437ZM2.326 10.6112V7.31964H4.0127V10.6112H2.326ZM5.29132 10.6112V1.38277H6.97801V10.6112H5.29132ZM9.94332 10.6112H8.25663V1.38277H9.94332V10.6112Z" fill="white"/>
</svg>
