<svg width="15" height="15" viewBox="0 0 15 15" fill="none" xmlns="http://www.w3.org/2000/svg">
<path d="M7.50013 0.833496C6.2023 0.83458 4.95762 1.3492 4.03797 2.26495C3.11831 3.18071 2.5984 4.42318 2.5918 5.721C2.5918 7.66683 3.68346 9.296 4.48346 10.4835L4.6293 10.7002C5.42525 11.8538 6.27912 12.9663 7.18763 14.0335L7.5043 14.4043L7.82096 14.0335C8.72936 12.9662 9.58323 11.8537 10.3793 10.7002L10.5251 10.4793C11.321 9.29183 12.4126 7.66683 12.4126 5.721C12.406 4.42246 11.8855 3.17936 10.965 2.26348C10.0444 1.34761 8.79869 0.833479 7.50013 0.833496ZM7.50013 7.91683C6.95953 7.91683 6.43107 7.75652 5.98157 7.45618C5.53208 7.15584 5.18174 6.72895 4.97486 6.2295C4.76798 5.73005 4.71385 5.18046 4.81932 4.65025C4.92478 4.12003 5.18511 3.633 5.56737 3.25074C5.94964 2.86847 6.43667 2.60815 6.96688 2.50268C7.4971 2.39722 8.04668 2.45135 8.54613 2.65823C9.04558 2.8651 9.47247 3.21544 9.77281 3.66494C10.0732 4.11443 10.2335 4.64289 10.2335 5.1835C10.2335 5.90842 9.94549 6.60366 9.43289 7.11625C8.92029 7.62885 8.22506 7.91683 7.50013 7.91683Z" fill="white"/>
<path d="M7.49948 6.73773C8.35782 6.73773 9.05365 6.0419 9.05365 5.18356C9.05365 4.32522 8.35782 3.62939 7.49948 3.62939C6.64114 3.62939 5.94531 4.32522 5.94531 5.18356C5.94531 6.0419 6.64114 6.73773 7.49948 6.73773Z" fill="white"/>
</svg>
