<svg width="50" height="50" viewBox="0 0 50 50" fill="none" xmlns="http://www.w3.org/2000/svg">
<path d="M12.2211 40.1574C11.6016 40.1581 10.9821 40.1458 10.3632 40.1206L10.0737 40.0548C9.32578 39.8805 8.6444 39.4932 8.11199 38.9398C7.57957 38.3863 7.21893 37.6905 7.07368 36.9364L7.02632 36.6943C7.01316 36.4153 7 35.6259 7 34.939V11.668C7.00139 11.3364 7.13389 11.0189 7.36858 10.7847C7.60327 10.5505 7.92108 10.4187 8.25263 10.418H36.2368C36.5681 10.4187 36.8857 10.5506 37.12 10.7849C37.3542 11.0191 37.4861 11.3367 37.4868 11.668V15.6917H41.6737C42.025 15.693 42.3616 15.8332 42.61 16.0817C42.8584 16.3301 42.9986 16.6666 43 17.018V35.9443C43 37.061 42.5564 38.132 41.7668 38.9216C40.9771 39.7112 39.9062 40.1548 38.7895 40.1548L12.2211 40.1574ZM12.2211 37.239H34.7789C34.6444 36.8215 34.5761 36.3856 34.5763 35.9469V30.2259C34.5713 30.1303 34.5686 30.0347 34.5684 29.939V13.3338H9.91842V34.939C9.91842 35.5127 9.92632 36.0706 9.93421 36.3706L9.93947 36.3917C9.97874 36.5897 10.074 36.7723 10.2139 36.9178C10.3539 37.0634 10.5326 37.1657 10.7289 37.2127L10.7553 37.218C11.1053 37.2285 11.6974 37.239 12.2211 37.239ZM31.3421 17.9338H13.0263V20.8522H31.3421V17.9338ZM20.8158 24.2048H13.0263V33.4995H20.8158V24.2048ZM31.3474 24.2732H23.7711V27.1917H31.3447L31.3474 24.2732ZM31.3474 30.6153H23.7711V33.5311H31.3447L31.3474 30.6153ZM37.4947 18.6074V35.9469C37.4947 36.2903 37.6311 36.6196 37.874 36.8624C38.1168 37.1052 38.4461 37.2417 38.7895 37.2417C39.1329 37.2417 39.4622 37.1052 39.705 36.8624C39.9478 36.6196 40.0842 36.2903 40.0842 35.9469V18.6048L37.4947 18.6074Z" fill="#B7B7B7" fill-opacity="0.25"/>
</svg>
