<svg width="15" height="15" viewBox="0 0 15 15" fill="none" xmlns="http://www.w3.org/2000/svg">
<path fill-rule="evenodd" clip-rule="evenodd" d="M4.53129 1.49239C5.34299 1.312 6.32769 1.25 7.5 1.25C8.67231 1.25 9.657 1.312 10.4687 1.49239C11.2875 1.67436 11.968 1.985 12.4915 2.50849C13.015 3.03197 13.3256 3.71251 13.5076 4.53129C13.688 5.34299 13.75 6.32769 13.75 7.5C13.75 8.67231 13.688 9.657 13.5076 10.4687C13.3256 11.2875 13.015 11.968 12.4915 12.4915C11.968 13.015 11.2875 13.3256 10.4687 13.5076C9.657 13.688 8.67231 13.75 7.5 13.75C6.32769 13.75 5.34299 13.688 4.53129 13.5076C3.71251 13.3256 3.03197 13.015 2.50849 12.4915C1.985 11.968 1.67436 11.2875 1.49239 10.4687C1.312 9.657 1.25 8.67231 1.25 7.5C1.25 6.32769 1.312 5.34299 1.49239 4.53129C1.67436 3.71251 1.985 3.03197 2.50849 2.50849C3.03197 1.985 3.71251 1.67436 4.53129 1.49239ZM6.875 10C6.875 10.3452 7.15481 10.625 7.5 10.625C7.84519 10.625 8.125 10.3452 8.125 10V6.50887L8.93306 7.31694C9.17712 7.561 9.57288 7.561 9.81694 7.31694C10.061 7.07288 10.061 6.67712 9.81694 6.43306L7.99631 4.61246C7.98694 4.60304 7.97731 4.59394 7.9675 4.58517C7.853 4.45624 7.686 4.375 7.5 4.375C7.314 4.375 7.147 4.45624 7.0325 4.58517C7.02269 4.59394 7.01306 4.60304 7.00369 4.61246L5.18306 6.43306C4.93898 6.67712 4.93898 7.07288 5.18306 7.31694C5.42714 7.561 5.82286 7.561 6.06694 7.31694L6.875 6.50887V10Z" fill="white"/>
</svg>
