<svg width="306" height="46" viewBox="0 0 306 46" fill="none" xmlns="http://www.w3.org/2000/svg">
<path fill-rule="evenodd" clip-rule="evenodd" d="M175.357 2.94373H302.21C302.762 2.94373 303.21 3.39144 303.21 3.94373V42.9437C303.21 43.496 302.762 43.9437 302.21 43.9437H3.20996C2.65768 43.9437 2.20996 43.496 2.20996 42.9437V3.94373C2.20996 3.39144 2.65768 2.94373 3.20996 2.94373H14.7197V0.943726H3.20996C1.55311 0.943726 0.209961 2.28687 0.209961 3.94373V42.9437C0.209961 44.6006 1.55311 45.9437 3.20996 45.9437H302.21C303.867 45.9437 305.21 44.6006 305.21 42.9437V3.94373C305.21 2.28687 303.867 0.943726 302.21 0.943726H175.357V2.94373Z" fill="white"/>
</svg>
