<svg width="350" height="50" viewBox="0 0 350 50" fill="none" xmlns="http://www.w3.org/2000/svg">
<path fill-rule="evenodd" clip-rule="evenodd" d="M10.0574 0H3C1.34315 0 0 1.34315 0 3V47C0 48.6569 1.34315 50 3.00001 50H347C348.657 50 350 48.6569 350 47V3C350 1.34315 348.657 0 347 0H69.4136L69.4477 1.99956L69.4218 2H347C347.552 2 348 2.44772 348 3V47C348 47.5523 347.552 48 347 48H3.00001C2.44772 48 2 47.5523 2 47V3C2 2.44772 2.44772 2 3 2H10.0914L10.0573 2.13295e-06L10.0574 0Z" fill="white"/>
</svg>
