<svg width="18" height="18" viewBox="0 0 18 18" fill="none" xmlns="http://www.w3.org/2000/svg">
<path d="M9 10.125C11.7949 10.125 14.0625 7.85742 14.0625 5.0625C14.0625 2.26758 11.7949 0 9 0C6.20508 0 3.9375 2.26758 3.9375 5.0625C3.9375 7.85742 6.20508 10.125 9 10.125ZM13.5 11.25H11.5629C10.7824 11.6086 9.91406 11.8125 9 11.8125C8.08594 11.8125 7.22109 11.6086 6.43711 11.25H4.5C2.01445 11.25 0 13.2645 0 15.75V16.3125C0 17.2441 0.755859 18 1.6875 18H16.3125C17.2441 18 18 17.2441 18 16.3125V15.75C18 13.2645 15.9855 11.25 13.5 11.25Z" fill="white"/>
</svg>
