<svg width="18" height="18" viewBox="0 0 18 18" fill="none" xmlns="http://www.w3.org/2000/svg">
<g clip-path="url(#clip0_0_151)">
<path d="M8.6895 3.94932C10.0637 3.94932 11.3586 4.5585 12.3075 5.51082V5.51363C12.3075 5.05632 12.6152 4.71038 13.0404 4.71038H13.1484C13.8195 4.71038 13.9539 5.34319 13.9539 5.54288L13.9567 12.6501C13.9101 13.1158 14.4377 13.3566 14.7307 13.0573C15.8698 11.8856 17.235 7.02788 14.0214 4.21538C11.0244 1.59019 7.002 2.02388 4.86337 3.49763C2.59031 5.06813 1.13737 8.53707 2.54868 11.7973C4.08993 15.3518 8.496 16.4121 11.1184 15.3546C12.4459 14.8185 13.0579 16.6106 11.6781 17.1973C9.5985 18.0844 3.80306 17.9938 1.09631 13.3065C-0.732379 10.1402 -0.63563 4.57032 4.2165 1.68469C7.92506 -0.524246 12.8182 0.0877539 15.768 3.16744C18.8505 6.39 18.6722 12.4194 15.6628 14.7634C14.2999 15.8293 12.276 14.7926 12.2906 13.2396L12.2754 12.7333C11.3265 13.6733 10.0637 14.2245 8.6895 14.2245C5.97093 14.2245 3.5775 11.8305 3.5775 9.11475C3.5775 6.36975 5.97093 3.95044 8.6895 3.95044V3.94932ZM12.1089 8.91844C12.006 6.92888 10.5294 5.73075 8.74518 5.73075H8.67768C6.62118 5.73075 5.47875 7.35075 5.47875 9.18732C5.47875 11.2466 6.85856 12.5471 8.66925 12.5471C10.6903 12.5471 12.0172 11.0683 12.114 9.31894L12.1089 8.91844Z" fill="white"/>
</g>
<defs>
<clipPath id="clip0_0_151">
<rect width="18" height="18" fill="white"/>
</clipPath>
</defs>
</svg>
