<svg width="22" height="33" viewBox="0 0 22 33" fill="none" xmlns="http://www.w3.org/2000/svg">
<path d="M0.65625 5.5625C0.65625 2.54703 3.10953 0.09375 6.125 0.09375C9.14047 0.09375 11.5938 2.54703 11.5938 5.5625C11.5938 7.34203 10.7264 8.91047 9.40625 9.90906V5.5625C9.40625 3.75344 7.93406 2.28125 6.125 2.28125C4.31594 2.28125 2.84375 3.75344 2.84375 5.5625V9.90906C1.52359 8.91047 0.65625 7.34203 0.65625 5.5625ZM19.25 13.2188C18.0425 13.2188 17.0625 14.1988 17.0625 15.4062V14.3125C17.0625 13.105 16.0825 12.125 14.875 12.125C13.6675 12.125 12.6875 13.105 12.6875 14.3125V13.2188C12.6875 12.0113 11.7075 11.0312 10.5 11.0312C9.2925 11.0312 8.3125 12.0113 8.3125 13.2188V5.5625C8.3125 4.355 7.3325 3.375 6.125 3.375C4.9175 3.375 3.9375 4.355 3.9375 5.5625V16.803C3.61484 16.6159 3.24406 16.5 2.84375 16.5C1.63625 16.5 0.65625 17.48 0.65625 18.6875V21.9688C0.65625 22.4653 0.825781 22.9477 1.13531 23.3348L5.03125 29.625H18.1562L20.6642 26.0233C21.0897 25.5978 21.4375 24.7578 21.4375 24.1562V15.4062C21.4375 14.1988 20.4575 13.2188 19.25 13.2188ZM5.03125 30.7188V31.8125C5.03125 32.4162 5.52016 32.9062 6.125 32.9062H17.0625C17.6673 32.9062 18.1562 32.4162 18.1562 31.8125V30.7188H5.03125Z" fill="white"/>
</svg>