<svg width="35" height="31" viewBox="0 0 35 31" fill="none" xmlns="http://www.w3.org/2000/svg">
<path fill-rule="evenodd" clip-rule="evenodd" d="M15.1667 0.333252C14.5223 0.333252 14 0.855592 14 1.49992C14 2.14425 14.5223 2.66659 15.1667 2.66659C16.629 2.66659 17.4001 3.13391 17.8631 3.7822C18.3822 4.50892 18.6667 5.67278 18.6667 7.33325V23.6666C18.6667 25.327 18.3822 26.4909 17.8631 27.2177C17.4001 27.8659 16.629 28.3333 15.1667 28.3333C14.5223 28.3333 14 28.8557 14 29.4999C14 30.1442 14.5223 30.6666 15.1667 30.6666C17.2043 30.6666 18.7666 29.9673 19.7619 28.5738C19.7861 28.54 19.8099 28.5057 19.8333 28.4712C19.8567 28.5057 19.8806 28.54 19.9048 28.5738C20.9001 29.9673 22.4623 30.6666 24.5 30.6666C25.1442 30.6666 25.6667 30.1442 25.6667 29.4999C25.6667 28.8557 25.1442 28.3333 24.5 28.3333C23.0377 28.3333 22.2666 27.8659 21.8035 27.2177C21.2844 26.4909 21 25.327 21 23.6666V7.33325C21 5.67278 21.2844 4.50892 21.8035 3.7822C22.2666 3.13391 23.0377 2.66659 24.5 2.66659C25.1442 2.66659 25.6667 2.14425 25.6667 1.49992C25.6667 0.855592 25.1442 0.333252 24.5 0.333252C22.4623 0.333252 20.9001 1.0326 19.9048 2.42597C19.8806 2.45992 19.8567 2.49418 19.8333 2.52869C19.8099 2.49418 19.7861 2.45992 19.7619 2.42597C18.7666 1.0326 17.2043 0.333252 15.1667 0.333252ZM32.6667 9.66659H25.6667V7.33325H32.6667C33.9554 7.33325 35 8.37793 35 9.66659V21.3333C35 22.622 33.9554 23.6666 32.6667 23.6666H25.6667V21.3333H32.6667V9.66659ZM14 7.33325V9.66659H2.33333V21.3333H14V23.6666H2.33333C1.04467 23.6666 0 22.622 0 21.3333V9.66659C0 8.37793 1.04467 7.33325 2.33333 7.33325H14Z" fill="white"/>
</svg>