<svg width="22" height="22" viewBox="0 0 22 22" fill="none" xmlns="http://www.w3.org/2000/svg">
<path d="M18.3333 12.8333C19.0927 12.8333 19.7083 13.449 19.7083 14.2083C19.7083 14.923 19.163 15.5104 18.4657 15.577L18.3333 15.5833H6.98617L8.30556 16.9027C8.84254 17.4397 8.84254 18.3103 8.30556 18.8473C7.80215 19.3506 7.00552 19.3821 6.46545 18.9417L6.36102 18.8473L2.85084 15.3371C1.95768 14.4439 2.5394 12.9379 3.75947 12.8385L3.88793 12.8333H18.3333ZM13.6943 3.15273C14.1977 2.64932 14.9944 2.61785 15.5345 3.05834L15.6389 3.15273L19.149 6.66291C20.0422 7.55607 19.4605 9.06208 18.2405 9.16148L18.112 9.16667H3.66663C2.90723 9.16667 2.29163 8.55106 2.29163 7.79167C2.29163 7.07694 2.83694 6.48959 3.5342 6.42296L3.66663 6.41667H15.0138L13.6943 5.09727C13.1574 4.5603 13.1574 3.6897 13.6943 3.15273Z" fill="white"/>
</svg>
