<svg width="22" height="22" viewBox="0 0 22 22" fill="none" xmlns="http://www.w3.org/2000/svg">
<path d="M8.9375 19.9373V15.1179C8.9375 14.781 9.28125 14.4373 9.625 14.4373H12.375C12.7188 14.4373 13.0625 14.781 13.0625 15.1248V19.9373C13.0625 20.1196 13.1349 20.2945 13.2639 20.4234C13.3928 20.5523 13.5677 20.6248 13.75 20.6248H19.25C19.4323 20.6248 19.6072 20.5523 19.7361 20.4234C19.8651 20.2945 19.9375 20.1196 19.9375 19.9373V10.3123C19.9377 10.2219 19.92 10.1324 19.8856 10.0489C19.8511 9.96539 19.8006 9.88948 19.7368 9.82551L17.875 7.96514V3.43726C17.875 3.25493 17.8026 3.08006 17.6736 2.95113C17.5447 2.8222 17.3698 2.74976 17.1875 2.74976H15.8125C15.6302 2.74976 15.4553 2.8222 15.3264 2.95113C15.1974 3.08006 15.125 3.25493 15.125 3.43726V5.21514L11.4868 1.57551C11.4229 1.51149 11.347 1.46069 11.2635 1.42603C11.18 1.39138 11.0904 1.37354 11 1.37354C10.9096 1.37354 10.82 1.39138 10.7365 1.42603C10.653 1.46069 10.5771 1.51149 10.5133 1.57551L2.26325 9.82551C2.19945 9.88948 2.14888 9.96539 2.11443 10.0489C2.07999 10.1324 2.06234 10.2219 2.0625 10.3123V19.9373C2.0625 20.1196 2.13493 20.2945 2.26387 20.4234C2.3928 20.5523 2.56766 20.6248 2.75 20.6248H8.25C8.43234 20.6248 8.60721 20.5523 8.73614 20.4234C8.86507 20.2945 8.9375 20.1196 8.9375 19.9373Z" fill="white"/>
</svg>
