<svg width="22" height="22" viewBox="0 0 22 22" fill="none" xmlns="http://www.w3.org/2000/svg">
<path d="M15.5834 1.83337H6.41671C5.93048 1.83337 5.46416 2.02653 5.12034 2.37034C4.77653 2.71416 4.58337 3.18048 4.58337 3.66671V19.25C4.58337 19.4932 4.67995 19.7263 4.85186 19.8982C5.02377 20.0701 5.25693 20.1667 5.50004 20.1667H16.5C16.7432 20.1667 16.9763 20.0701 17.1482 19.8982C17.3201 19.7263 17.4167 19.4932 17.4167 19.25V3.66671C17.4167 3.18048 17.2236 2.71416 16.8797 2.37034C16.5359 2.02653 16.0696 1.83337 15.5834 1.83337ZM10.0834 14.6667H7.33337V12.8334H10.0834V14.6667ZM10.0834 11H7.33337V9.16671H10.0834V11ZM10.0834 7.33337H7.33337V5.50004H10.0834V7.33337ZM14.6667 14.6667H11.9167V12.8334H14.6667V14.6667ZM14.6667 11H11.9167V9.16671H14.6667V11ZM14.6667 7.33337H11.9167V5.50004H14.6667V7.33337Z" fill="white"/>
</svg>
