<svg width="15" height="15" viewBox="0 0 15 15" fill="none" xmlns="http://www.w3.org/2000/svg">
<g clip-path="url(#clip0_414_990)">
<path d="M14.7127 3.1293L13.4854 0.402004C13.3753 0.15732 13.1319 0 12.8637 0H2.1363C1.86798 0 1.62461 0.15732 1.51452 0.402004L0.287234 3.1293C0.192279 3.3403 0.210824 3.58499 0.336416 3.77931C0.462008 3.97363 0.677647 4.09095 0.909012 4.09095V14.3182C0.909012 14.6947 1.21429 15 1.59084 15H4.31813H10.6818H13.4091C13.7857 15 14.091 14.6947 14.091 14.3182V4.09095C14.3223 4.09095 14.5379 3.97358 14.6635 3.77931C14.7891 3.58503 14.8076 3.34026 14.7127 3.1293ZM2.57712 1.36365H12.4228L13.0364 2.72721H1.96352L2.57712 1.36365ZM4.99996 9.5454H10V10.9091H4.99996V9.5454ZM10 8.18176H4.99996V6.81815H10V8.18176ZM4.99996 13.6364V12.2727H10V13.6364H4.99996ZM12.7273 13.6364H11.3637V6.13633C11.3637 5.75978 11.0584 5.4545 10.6818 5.4545H4.31813C3.94159 5.4545 3.63631 5.75978 3.63631 6.13633V13.6364H2.27266V4.09095H12.7273V13.6364Z" fill="white"/>
</g>
<defs>
<clipPath id="clip0_414_990">
<rect width="15" height="15" fill="white"/>
</clipPath>
</defs>
</svg>
