<svg width="22" height="22" viewBox="0 0 22 22" fill="none" xmlns="http://www.w3.org/2000/svg">
<path d="M9.33333 14.9167V14H2.92583L2.91667 17.6667C2.91667 18.6842 3.7325 19.5 4.75 19.5H17.5833C18.6008 19.5 19.4167 18.6842 19.4167 17.6667V14H13V14.9167H9.33333ZM18.5 6.66667H14.8242V4.83333L12.9908 3H9.32417L7.49083 4.83333V6.66667H3.83333C2.825 6.66667 2 7.49167 2 8.5V11.25C2 12.2675 2.81583 13.0833 3.83333 13.0833H9.33333V11.25H13V13.0833H18.5C19.5083 13.0833 20.3333 12.2583 20.3333 11.25V8.5C20.3333 7.49167 19.5083 6.66667 18.5 6.66667ZM13 6.66667H9.33333V4.83333H13V6.66667Z" fill="white"/>
</svg>
